%FSTAX23Y23*%
%MOIN*%
%SFA1B1*%

%IPPOS*%
%ADD10C,0.066929*%
%ADD12C,0.118110*%
%ADD13C,0.078740*%
%ADD14R,0.078740X0.078740*%
%ADD15C,0.080000*%
%ADD16R,0.062000X0.062000*%
%ADD17C,0.062000*%
%ADD18R,0.059370X0.059370*%
%ADD19C,0.059370*%
%ADD20R,0.064961X0.064961*%
%ADD21C,0.064961*%
G54D10*
X0244Y0318D02*
X02515D01*
X02242Y03303D02*
X02316D01*
X0244Y0318*
X0224Y03405D02*
X02414Y0358D01*
X02725D02*
X02834Y0347D01*
X02414Y0358D02*
X02725D01*
X02834Y0292D02*
Y0347D01*
X03123Y02478D02*
Y02631D01*
X02834Y0292D02*
X03123Y02631D01*
X0124Y03305D02*
X0224D01*
X02242Y03303*
G54D12*
X01256Y03719D03*
X02221D03*
Y0187D03*
X01256D03*
G54D13*
X0224Y02005D03*
Y02105D03*
Y02205D03*
Y02305D03*
Y02405D03*
Y02505D03*
Y02605D03*
Y02705D03*
Y02805D03*
Y02905D03*
Y03005D03*
Y03105D03*
Y03205D03*
Y03305D03*
Y03405D03*
X0124Y02005D03*
Y02105D03*
Y02205D03*
Y02305D03*
Y02405D03*
Y02505D03*
Y02605D03*
Y02705D03*
Y02805D03*
Y02905D03*
Y03005D03*
Y03105D03*
Y03205D03*
Y03305D03*
G54D14*
X0124Y03405D03*
G54D15*
X0311Y0348D03*
X03115Y0308D03*
G54D16*
X02515Y0308D03*
G54D17*
X02515Y0318D03*
Y0328D03*
Y0338D03*
Y0348D03*
G54D18*
X02721Y01321D03*
G54D19*
X02918Y01321D03*
X02516Y02478D03*
X03123D03*
G54D20*
X017Y01325D03*
G54D21*
X017Y01525D03*
M02*