%FSTAX23Y23*%
%MOIN*%
%SFA1B1*%

%IPPOS*%
%ADD34C,0.007874*%
%ADD35C,0.005000*%
%ADD36C,0.010000*%
G54D34*
X01159Y03405D02*
D01*
D01*
G75*
G03X01151I-00003J0D01*
G74*G01*
D01*
G75*
G03X01159I00003J0D01*
G74*G01*
X02717Y01173D02*
D01*
D01*
G75*
G03X02709I-00003J0D01*
G74*G01*
D01*
G75*
G03X02717I00003J0D01*
G74*G01*
G54D35*
X02085Y01792D02*
X023D01*
X01389D02*
X02085D01*
X01177D02*
X01389D01*
X023D02*
Y03797D01*
X01177Y01792D02*
Y03797D01*
X01877D02*
X023D01*
X01613D02*
X01877D01*
X01177D02*
X01613D01*
X01177Y01792D02*
Y03797D01*
X023*
X01177Y01792D02*
X023D01*
Y03797*
X03213Y0123D02*
Y02569D01*
X02426D02*
X03213D01*
X02426Y0123D02*
Y02569D01*
Y0123D02*
X03213D01*
X01538Y01225D02*
Y01625D01*
X01822*
X01861*
Y01225D02*
Y01625D01*
X01822Y01225D02*
X01861D01*
X01538D02*
X01822D01*
Y01625*
G54D36*
X02455Y0354D02*
X0318D01*
X02455Y0302D02*
Y0354D01*
Y0302D02*
X0318D01*
Y0354*
X0132Y03429D02*
X01329Y03439D01*
X01349*
X01359Y03429*
Y03419*
X01349Y03409*
X01339*
X01349*
X01359Y03399*
Y03389*
X01349Y0338*
X01329*
X0132Y03389*
X01379Y03439D02*
Y03399D01*
X01399Y0338*
X01419Y03399*
Y03439*
X01439Y03429D02*
X01449Y03439D01*
X01469*
X01479Y03429*
Y03419*
X01469Y03409*
X01459*
X01469*
X01479Y03399*
Y03389*
X01469Y0338*
X01449*
X01439Y03389*
X0137Y02914D02*
Y02854D01*
Y02884*
X01409*
Y02914*
Y02854*
X01429D02*
Y02864D01*
X01439*
Y02854*
X01429*
X01479D02*
Y02914D01*
X01499Y02894*
X01519Y02914*
Y02854*
X01539D02*
Y02864D01*
X01549*
Y02854*
X01539*
X01589D02*
Y02914D01*
X01619*
X01629Y02904*
Y02884*
X01619Y02874*
X01589*
X01609D02*
X01629Y02854D01*
X01709Y02914D02*
Y02854D01*
X01739*
X01749Y02864*
Y02904*
X01739Y02914*
X01709*
X01799Y02854D02*
X01779D01*
X01769Y02864*
Y02884*
X01779Y02894*
X01799*
X01809Y02884*
Y02874*
X01769*
X01829Y02854D02*
X01859D01*
X01869Y02864*
X01859Y02874*
X01839*
X01829Y02884*
X01839Y02894*
X01869*
X01889Y02854D02*
X01909D01*
X01899*
Y02894*
X01889*
X01959Y02835D02*
X01969D01*
X01979Y02844*
Y02894*
X01949*
X01939Y02884*
Y02864*
X01949Y02854*
X01979*
X01999D02*
Y02894D01*
X02029*
X02039Y02884*
Y02854*
X02059D02*
X02089D01*
X02099Y02864*
X02089Y02874*
X02069*
X02059Y02884*
X02069Y02894*
X02099*
X02649Y03394D02*
X02639Y03404D01*
X02619*
X0261Y03394*
Y03384*
X02619Y03374*
X02639*
X02649Y03364*
Y03354*
X02639Y03345*
X02619*
X0261Y03354*
X02669Y03404D02*
Y03345D01*
X02699*
X02709Y03354*
Y03394*
X02699Y03404*
X02669*
X02729Y03345D02*
Y03384D01*
X02749Y03404*
X02769Y03384*
Y03345*
Y03374*
X02729*
X02644Y03279D02*
X02634Y03289D01*
X02614*
X02605Y03279*
Y03269*
X02614Y03259*
X02634*
X02644Y03249*
Y03239*
X02634Y0323*
X02614*
X02605Y03239*
X02704Y03279D02*
X02694Y03289D01*
X02674*
X02664Y03279*
Y03239*
X02674Y0323*
X02694*
X02704Y03239*
X02724Y03289D02*
Y0323D01*
X02764*
X01995Y03444D02*
Y03404D01*
X02014Y03385*
X02034Y03404*
Y03444*
X02054Y03385D02*
X02074D01*
X02064*
Y03424*
X02054*
X02104Y03385D02*
Y03424D01*
X02134*
X02144Y03414*
Y03385*
X02039Y03314D02*
X02029Y03324D01*
X02009*
X02Y03314*
Y03274*
X02009Y03265*
X02029*
X02039Y03274*
Y03294*
X02019*
X02059Y03265D02*
Y03324D01*
X02099Y03265*
Y03324*
X02119D02*
Y03265D01*
X02149*
X02159Y03274*
Y03314*
X02149Y03324*
X02119*
X01359Y03304D02*
X01349Y03314D01*
X01329*
X0132Y03304*
Y03264*
X01329Y03255*
X01349*
X01359Y03264*
Y03284*
X01339*
X01379Y03255D02*
Y03314D01*
X01419Y03255*
Y03314*
X01439D02*
Y03255D01*
X01469*
X01479Y03264*
Y03304*
X01469Y03314*
X01439*
X0246Y03634D02*
Y03584D01*
X02469Y03575*
X02489*
X02499Y03584*
Y03634*
X02519Y03624D02*
X02529Y03634D01*
X02549*
X02559Y03624*
Y03614*
X02539Y03594*
Y03584D02*
Y03575D01*
X0142Y03744D02*
Y03695D01*
X0143Y03685*
X0145*
X0146Y03695*
Y03744*
X01479Y03734D02*
X01489Y03744D01*
X01509*
X01519Y03734*
Y03724*
X01499Y03705*
Y03695D02*
Y03685D01*
X02425Y0261D02*
Y02669D01*
X02454*
X02464Y02659*
Y02639*
X02454Y02629*
X02425*
X02524Y02659D02*
X02514Y02669D01*
X02494*
X02484Y02659*
Y02649*
X02494Y02639*
X02514*
X02524Y02629*
Y02619*
X02514Y0261*
X02494*
X02484Y02619*
X02544Y02659D02*
X02554Y02669D01*
X02574*
X02584Y02659*
Y02649*
X02564Y02629*
Y02619D02*
Y0261D01*
X01538Y01666D02*
Y01725D01*
X01567*
X01577Y01715*
Y01695*
X01567Y01685*
X01538*
X01597Y01715D02*
X01607Y01725D01*
X01627*
X01637Y01715*
Y01705*
X01617Y01685*
Y01675D02*
Y01666D01*
M02*