%FSTAX23Y23*%
%MOIN*%
%SFA1B1*%

%IPPOS*%
%ADD35C,0.005000*%
%ADD47C,0.006667*%
G54D35*
X01236Y03699D02*
Y03739D01*
X01276*
Y03699*
X01236*
X02201D02*
Y03739D01*
X02241*
Y03699*
X02201*
Y0185D02*
Y0189D01*
X02241*
Y0185*
X02201*
X01236D02*
Y0189D01*
X01276*
Y0185*
X01236*
X0311Y0346D02*
X0309Y035D01*
X0313*
X0311Y0346*
X03115Y0306D02*
X03095Y031D01*
X03135*
X03115Y0306*
X02515D02*
X02525Y0307D01*
X02535*
X02525Y0308*
X02535Y0309*
X02525*
X02515Y031*
X02505Y0309*
X02495*
X02505Y0308*
X02495Y0307*
X02505*
X02515Y0306*
Y0316D02*
X02525Y0317D01*
X02535*
X02525Y0318*
X02535Y0319*
X02525*
X02515Y032*
X02505Y0319*
X02495*
X02505Y0318*
X02495Y0317*
X02505*
X02515Y0316*
Y0326D02*
X02525Y0327D01*
X02535*
X02525Y0328*
X02535Y0329*
X02525*
X02515Y033*
X02505Y0329*
X02495*
X02505Y0328*
X02495Y0327*
X02505*
X02515Y0326*
Y0336D02*
X02525Y0337D01*
X02535*
X02525Y0338*
X02535Y0339*
X02525*
X02515Y034*
X02505Y0339*
X02495*
X02505Y0338*
X02495Y0337*
X02505*
X02515Y0336*
Y0346D02*
X02525Y0347D01*
X02535*
X02525Y0348*
X02535Y0349*
X02525*
X02515Y035*
X02505Y0349*
X02495*
X02505Y0348*
X02495Y0347*
X02505*
X02515Y0346*
X02701Y01301D02*
X02711Y01321D01*
X02701Y01341*
X02721Y01331*
X02741Y01341*
X02731Y01321*
X02741Y01301*
X02721Y01311*
X02701Y01301*
X02898D02*
X02908Y01321D01*
X02898Y01341*
X02918Y01331*
X02938Y01341*
X02928Y01321*
X02938Y01301*
X02918Y01311*
X02898Y01301*
X02496Y02458D02*
X02506Y02478D01*
X02496Y02498*
X02516Y02488*
X02536Y02498*
X02526Y02478*
X02536Y02458*
X02516Y02468*
X02496Y02458*
X03103D02*
X03113Y02478D01*
X03103Y02498*
X03123Y02488*
X03143Y02498*
X03133Y02478*
X03143Y02458*
X03123Y02468*
X03103Y02458*
X0169Y01315D02*
Y01305D01*
X0171*
Y01315*
X0172*
Y01335*
X0171*
Y01345*
X0169*
Y01335*
X0168*
Y01315*
X0169*
Y01515D02*
Y01505D01*
X0171*
Y01515*
X0172*
Y01535*
X0171*
Y01545*
X0169*
Y01535*
X0168*
Y01515*
X0169*
G54D47*
X0226Y02005D02*
D01*
D01*
G75*
G03X0222I-00020J0D01*
G74*G01*
D01*
G75*
G03X0226I00020J0D01*
G74*G01*
Y02105D02*
D01*
D01*
G75*
G03X0222I-00020J0D01*
G74*G01*
D01*
G75*
G03X0226I00020J0D01*
G74*G01*
Y02205D02*
D01*
D01*
G75*
G03X0222I-00020J0D01*
G74*G01*
D01*
G75*
G03X0226I00020J0D01*
G74*G01*
Y02305D02*
D01*
D01*
G75*
G03X0222I-00020J0D01*
G74*G01*
D01*
G75*
G03X0226I00020J0D01*
G74*G01*
Y02405D02*
D01*
D01*
G75*
G03X0222I-00020J0D01*
G74*G01*
D01*
G75*
G03X0226I00020J0D01*
G74*G01*
Y02505D02*
D01*
D01*
G75*
G03X0222I-00020J0D01*
G74*G01*
D01*
G75*
G03X0226I00020J0D01*
G74*G01*
Y02605D02*
D01*
D01*
G75*
G03X0222I-00020J0D01*
G74*G01*
D01*
G75*
G03X0226I00020J0D01*
G74*G01*
Y02705D02*
D01*
D01*
G75*
G03X0222I-00020J0D01*
G74*G01*
D01*
G75*
G03X0226I00020J0D01*
G74*G01*
Y02805D02*
D01*
D01*
G75*
G03X0222I-00020J0D01*
G74*G01*
D01*
G75*
G03X0226I00020J0D01*
G74*G01*
Y02905D02*
D01*
D01*
G75*
G03X0222I-00020J0D01*
G74*G01*
D01*
G75*
G03X0226I00020J0D01*
G74*G01*
Y03005D02*
D01*
D01*
G75*
G03X0222I-00020J0D01*
G74*G01*
D01*
G75*
G03X0226I00020J0D01*
G74*G01*
Y03105D02*
D01*
D01*
G75*
G03X0222I-00020J0D01*
G74*G01*
D01*
G75*
G03X0226I00020J0D01*
G74*G01*
Y03205D02*
D01*
D01*
G75*
G03X0222I-00020J0D01*
G74*G01*
D01*
G75*
G03X0226I00020J0D01*
G74*G01*
Y03305D02*
D01*
D01*
G75*
G03X0222I-00020J0D01*
G74*G01*
D01*
G75*
G03X0226I00020J0D01*
G74*G01*
Y03405D02*
D01*
D01*
G75*
G03X0222I-00020J0D01*
G74*G01*
D01*
G75*
G03X0226I00020J0D01*
G74*G01*
X0126Y02005D02*
D01*
D01*
G75*
G03X0122I-00020J0D01*
G74*G01*
D01*
G75*
G03X0126I00020J0D01*
G74*G01*
Y02105D02*
D01*
D01*
G75*
G03X0122I-00020J0D01*
G74*G01*
D01*
G75*
G03X0126I00020J0D01*
G74*G01*
Y02205D02*
D01*
D01*
G75*
G03X0122I-00020J0D01*
G74*G01*
D01*
G75*
G03X0126I00020J0D01*
G74*G01*
Y02305D02*
D01*
D01*
G75*
G03X0122I-00020J0D01*
G74*G01*
D01*
G75*
G03X0126I00020J0D01*
G74*G01*
Y02405D02*
D01*
D01*
G75*
G03X0122I-00020J0D01*
G74*G01*
D01*
G75*
G03X0126I00020J0D01*
G74*G01*
Y02505D02*
D01*
D01*
G75*
G03X0122I-00020J0D01*
G74*G01*
D01*
G75*
G03X0126I00020J0D01*
G74*G01*
Y02605D02*
D01*
D01*
G75*
G03X0122I-00020J0D01*
G74*G01*
D01*
G75*
G03X0126I00020J0D01*
G74*G01*
Y02705D02*
D01*
D01*
G75*
G03X0122I-00020J0D01*
G74*G01*
D01*
G75*
G03X0126I00020J0D01*
G74*G01*
Y02805D02*
D01*
D01*
G75*
G03X0122I-00020J0D01*
G74*G01*
D01*
G75*
G03X0126I00020J0D01*
G74*G01*
Y02905D02*
D01*
D01*
G75*
G03X0122I-00020J0D01*
G74*G01*
D01*
G75*
G03X0126I00020J0D01*
G74*G01*
Y03005D02*
D01*
D01*
G75*
G03X0122I-00020J0D01*
G74*G01*
D01*
G75*
G03X0126I00020J0D01*
G74*G01*
Y03105D02*
D01*
D01*
G75*
G03X0122I-00020J0D01*
G74*G01*
D01*
G75*
G03X0126I00020J0D01*
G74*G01*
Y03205D02*
D01*
D01*
G75*
G03X0122I-00020J0D01*
G74*G01*
D01*
G75*
G03X0126I00020J0D01*
G74*G01*
Y03305D02*
D01*
D01*
G75*
G03X0122I-00020J0D01*
G74*G01*
D01*
G75*
G03X0126I00020J0D01*
G74*G01*
Y03405D02*
D01*
D01*
G75*
G03X0122I-00020J0D01*
G74*G01*
D01*
G75*
G03X0126I00020J0D01*
G74*G01*
M02*