%TF.GenerationSoftware,Altium Limited,Altium Designer,22.1.2 (22)*%
G04 Layer_Color=128*
%FSLAX45Y45*%
%MOMM*%
%TF.SameCoordinates,97720CCC-B93B-4F85-99AC-C394CD96EF65*%
%TF.FilePolarity,Positive*%
%TF.FileFunction,Drillmap*%
%TF.Part,Single*%
G01*
G75*
%TA.AperFunction,NonConductor*%
%ADD79C,0.12700*%
D79*
X4299700Y4762900D02*
X4431700D01*
X4365700Y4696900D02*
Y4828900D01*
X5499700Y4762900D02*
X5631700D01*
X5565700Y4696900D02*
Y4828900D01*
X5499700Y3542900D02*
X5631700D01*
X5565700Y3476900D02*
Y3608900D01*
X4901200Y3342900D02*
X5030200D01*
X4965700Y3278400D02*
Y3407400D01*
X4299700Y3542900D02*
X4431700D01*
X4365700Y3476900D02*
Y3608900D01*
X-7040466Y2866600D02*
X-6941466D01*
X-6990966Y2817100D02*
Y2916100D01*
X-7040466Y2416600D02*
X-6941466D01*
X-6990966Y2367100D02*
Y2466100D01*
X-7690466Y2866600D02*
X-7591466D01*
X-7640966Y2817100D02*
Y2916100D01*
X-7690466Y2416600D02*
X-7591466D01*
X-7640966Y2367100D02*
Y2466100D01*
X-15268600Y-9279000D02*
X-14668600D01*
X-14968600Y-9579000D02*
Y-8979000D01*
X1443400Y-584200D02*
X1528400D01*
X1485900Y-626700D02*
Y-541700D01*
X1443400Y177800D02*
X1528400D01*
X1485900Y135300D02*
Y220300D01*
X-6229900Y660400D02*
X-6139900D01*
X-6184900Y615400D02*
Y705400D01*
X-5975900Y660400D02*
X-5885900D01*
X-5930900Y615400D02*
Y705400D01*
X-5721900Y660400D02*
X-5631900D01*
X-5676900Y615400D02*
Y705400D01*
X-5467900Y660400D02*
X-5377900D01*
X-5422900Y615400D02*
Y705400D01*
X-5213900Y660400D02*
X-5123900D01*
X-5168900Y615400D02*
Y705400D01*
X-4959900Y660400D02*
X-4869900D01*
X-4914900Y615400D02*
Y705400D01*
X-4705900Y660400D02*
X-4615900D01*
X-4660900Y615400D02*
Y705400D01*
X-4451900Y660400D02*
X-4361900D01*
X-4406900Y615400D02*
Y705400D01*
X-4197900Y660400D02*
X-4107900D01*
X-4152900Y615400D02*
Y705400D01*
X-3943900Y660400D02*
X-3853900D01*
X-3898900Y615400D02*
Y705400D01*
X-3828300Y4762900D02*
X-3696300D01*
X-3762300Y4696900D02*
Y4828900D01*
X-2628300Y4762900D02*
X-2496300D01*
X-2562300Y4696900D02*
Y4828900D01*
X-2628300Y3542900D02*
X-2496300D01*
X-2562300Y3476900D02*
Y3608900D01*
X-3226800Y3342900D02*
X-3097800D01*
X-3162300Y3278400D02*
Y3407400D01*
X-3828300Y3542900D02*
X-3696300D01*
X-3762300Y3476900D02*
Y3608900D01*
X-5860300Y4762900D02*
X-5728300D01*
X-5794300Y4696900D02*
Y4828900D01*
X-4660300Y4762900D02*
X-4528300D01*
X-4594300Y4696900D02*
Y4828900D01*
X-4660300Y3542900D02*
X-4528300D01*
X-4594300Y3476900D02*
Y3608900D01*
X-5258800Y3342900D02*
X-5129800D01*
X-5194300Y3278400D02*
Y3407400D01*
X-5860300Y3542900D02*
X-5728300D01*
X-5794300Y3476900D02*
Y3608900D01*
X-11956300Y3542900D02*
X-11824300D01*
X-11890300Y3476900D02*
Y3608900D01*
X-11354800Y3342900D02*
X-11225800D01*
X-11290300Y3278400D02*
Y3407400D01*
X-10756300Y3542900D02*
X-10624300D01*
X-10690300Y3476900D02*
Y3608900D01*
X-10756300Y4762900D02*
X-10624300D01*
X-10690300Y4696900D02*
Y4828900D01*
X-11956300Y4762900D02*
X-11824300D01*
X-11890300Y4696900D02*
Y4828900D01*
X-6832800Y-5588000D02*
X-6730800D01*
X-6781800Y-5639000D02*
Y-5537000D01*
X-6832800Y-5334000D02*
X-6730800D01*
X-6781800Y-5385000D02*
Y-5283000D01*
X-6832800Y-5080000D02*
X-6730800D01*
X-6781800Y-5131000D02*
Y-5029000D01*
X-6832800Y-4826000D02*
X-6730800D01*
X-6781800Y-4877000D02*
Y-4775000D01*
X-6832800Y-4572000D02*
X-6730800D01*
X-6781800Y-4623000D02*
Y-4521000D01*
X-6832800Y-4318000D02*
X-6730800D01*
X-6781800Y-4369000D02*
Y-4267000D01*
X-6832800Y-4064000D02*
X-6730800D01*
X-6781800Y-4115000D02*
Y-4013000D01*
X-6832800Y-3810000D02*
X-6730800D01*
X-6781800Y-3861000D02*
Y-3759000D01*
X-8102800Y-3810000D02*
X-8000800D01*
X-8051800Y-3861000D02*
Y-3759000D01*
X-8102800Y-4064000D02*
X-8000800D01*
X-8051800Y-4115000D02*
Y-4013000D01*
X-8102800Y-4318000D02*
X-8000800D01*
X-8051800Y-4369000D02*
Y-4267000D01*
X-8102800Y-4572000D02*
X-8000800D01*
X-8051800Y-4623000D02*
Y-4521000D01*
X-8102800Y-4826000D02*
X-8000800D01*
X-8051800Y-4877000D02*
Y-4775000D01*
X-8102800Y-5080000D02*
X-8000800D01*
X-8051800Y-5131000D02*
Y-5029000D01*
X-8102800Y-5334000D02*
X-8000800D01*
X-8051800Y-5385000D02*
Y-5283000D01*
X-8102800Y-5588000D02*
X-8000800D01*
X-8051800Y-5639000D02*
Y-5537000D01*
X-15268600Y5697600D02*
X-14668600D01*
X-14968600Y5397600D02*
Y5997600D01*
X6375500Y-9279000D02*
X6975500D01*
X6675500Y-9579000D02*
Y-8979000D01*
X2255000Y0D02*
X2345000D01*
X2300000Y-45000D02*
Y45000D01*
X2255000Y-254000D02*
X2345000D01*
X2300000Y-299000D02*
Y-209000D01*
X6375500Y5697600D02*
X6975500D01*
X6675500Y5397600D02*
Y5997600D01*
X6497900Y-419100D02*
X6633900D01*
X6565900Y-487100D02*
Y-351100D01*
X6497900Y-165100D02*
X6633900D01*
X6565900Y-233100D02*
Y-97100D01*
X6497900Y88900D02*
X6633900D01*
X6565900Y20900D02*
Y156900D01*
X5278999Y5689600D02*
X5388999D01*
X5333999Y5634600D02*
Y5744600D01*
X4770999Y5689600D02*
X4880999D01*
X4825999Y5634600D02*
Y5744600D01*
X3220817Y5689600D02*
X3330817D01*
X3275817Y5634600D02*
Y5744600D01*
X2712817Y5689600D02*
X2822817D01*
X2767817Y5634600D02*
Y5744600D01*
X654635Y5689600D02*
X764635D01*
X709635Y5634600D02*
Y5744600D01*
X1162635Y5689600D02*
X1272635D01*
X1217635Y5634600D02*
Y5744600D01*
X-11768400Y-1032090D02*
X-11688400D01*
X-11728400Y-1072090D02*
Y-992090D01*
X-11568400Y-1032090D02*
X-11488400D01*
X-11528400Y-1072090D02*
Y-992090D01*
X-11368400Y-1032090D02*
X-11288400D01*
X-11328400Y-1072090D02*
Y-992090D01*
X-11168400Y-1032090D02*
X-11088400D01*
X-11128400Y-1072090D02*
Y-992090D01*
X-4752300Y-5803700D02*
X-4620300D01*
X-4686300Y-5869700D02*
Y-5737700D01*
X-4752300Y-3619700D02*
X-4620300D01*
X-4686300Y-3685700D02*
Y-3553700D01*
X-14990199Y-139700D02*
X-14880200D01*
X-14935201Y-194700D02*
Y-84700D01*
X-14990199Y-647700D02*
X-14880200D01*
X-14935201Y-702700D02*
Y-592700D01*
X-11180200Y-9156700D02*
X-11070200D01*
X-11125200Y-9211700D02*
Y-9101700D01*
X-11688200Y-9156700D02*
X-11578200D01*
X-11633200Y-9211700D02*
Y-9101700D01*
X-14745500Y-3226800D02*
X-14290500D01*
X-14517999Y-3454300D02*
Y-2999300D01*
X-14745500Y-3946800D02*
X-14290500D01*
X-14517999Y-4174300D02*
Y-3719300D01*
X-13244640Y5689600D02*
X-13134641D01*
X-13189639Y5634600D02*
Y5744600D01*
X-13752640Y5689600D02*
X-13642641D01*
X-13697639Y5634600D02*
Y5744600D01*
X-11186457Y5689600D02*
X-11076458D01*
X-11131458Y5634600D02*
Y5744600D01*
X-11694457Y5689600D02*
X-11584458D01*
X-11639458Y5634600D02*
Y5744600D01*
X-9128275Y5689600D02*
X-9018276D01*
X-9073275Y5634600D02*
Y5744600D01*
X-9636275Y5689600D02*
X-9526276D01*
X-9581275Y5634600D02*
Y5744600D01*
X-7578093Y5689600D02*
X-7468094D01*
X-7523093Y5634600D02*
Y5744600D01*
X-7070093Y5689600D02*
X-6960094D01*
X-7015093Y5634600D02*
Y5744600D01*
X-5011911Y5689600D02*
X-4901911D01*
X-4956911Y5634600D02*
Y5744600D01*
X-5519911Y5689600D02*
X-5409911D01*
X-5464911Y5634600D02*
Y5744600D01*
X-2953729Y5689600D02*
X-2843729D01*
X-2898729Y5634600D02*
Y5744600D01*
X-3461729Y5689600D02*
X-3351729D01*
X-3406729Y5634600D02*
Y5744600D01*
X-895547Y5689600D02*
X-785547D01*
X-840547Y5634600D02*
Y5744600D01*
X-1403547Y5689600D02*
X-1293547D01*
X-1348547Y5634600D02*
Y5744600D01*
X2734755Y2416600D02*
X2833755D01*
X2784255Y2367100D02*
Y2466100D01*
X2734755Y2866600D02*
X2833755D01*
X2784255Y2817100D02*
Y2916100D01*
X3384755Y2416600D02*
X3483755D01*
X3434255Y2367100D02*
Y2466100D01*
X3384755Y2866600D02*
X3483755D01*
X3434255Y2817100D02*
Y2916100D01*
X2267700Y3542900D02*
X2399700D01*
X2333700Y3476900D02*
Y3608900D01*
X2869200Y3342900D02*
X2998200D01*
X2933700Y3278400D02*
Y3407400D01*
X3467700Y3542900D02*
X3599700D01*
X3533700Y3476900D02*
Y3608900D01*
X3467700Y4762900D02*
X3599700D01*
X3533700Y4696900D02*
Y4828900D01*
X2267700Y4762900D02*
X2399700D01*
X2333700Y4696900D02*
Y4828900D01*
X649710Y2416600D02*
X748710D01*
X699210Y2367100D02*
Y2466100D01*
X649710Y2866600D02*
X748710D01*
X699210Y2817100D02*
Y2916100D01*
X1299711Y2416600D02*
X1398711D01*
X1349211Y2367100D02*
Y2466100D01*
X1299711Y2866600D02*
X1398711D01*
X1349211Y2817100D02*
Y2916100D01*
X2673400Y2146300D02*
X2763400D01*
X2718400Y2101300D02*
Y2191300D01*
X3383400Y2146300D02*
X3473400D01*
X3428400Y2101300D02*
Y2191300D01*
X590600Y2146300D02*
X680600D01*
X635600Y2101300D02*
Y2191300D01*
X1300600Y2146300D02*
X1390600D01*
X1345600Y2101300D02*
Y2191300D01*
X-1435334Y2416600D02*
X-1336334D01*
X-1385834Y2367100D02*
Y2466100D01*
X-1435334Y2866600D02*
X-1336334D01*
X-1385834Y2817100D02*
Y2916100D01*
X-785333Y2416600D02*
X-686333D01*
X-735833Y2367100D02*
Y2466100D01*
X-785333Y2866600D02*
X-686333D01*
X-735833Y2817100D02*
Y2916100D01*
X-2870378Y2866600D02*
X-2771377D01*
X-2820878Y2817100D02*
Y2916100D01*
X-2870378Y2416600D02*
X-2771377D01*
X-2820878Y2367100D02*
Y2466100D01*
X-3520378Y2866600D02*
X-3421378D01*
X-3470878Y2817100D02*
Y2916100D01*
X-3520378Y2416600D02*
X-3421378D01*
X-3470878Y2367100D02*
Y2466100D01*
X-4955422Y2866600D02*
X-4856422D01*
X-4905922Y2817100D02*
Y2916100D01*
X-4955422Y2416600D02*
X-4856422D01*
X-4905922Y2367100D02*
Y2466100D01*
X-5605422Y2866600D02*
X-5506422D01*
X-5555922Y2817100D02*
Y2916100D01*
X-5605422Y2416600D02*
X-5506422D01*
X-5555922Y2367100D02*
Y2466100D01*
X-9775510Y2416600D02*
X-9676510D01*
X-9726010Y2367100D02*
Y2466100D01*
X-9775510Y2866600D02*
X-9676510D01*
X-9726010Y2817100D02*
Y2916100D01*
X-9125510Y2416600D02*
X-9026510D01*
X-9076010Y2367100D02*
Y2466100D01*
X-9125510Y2866600D02*
X-9026510D01*
X-9076010Y2817100D02*
Y2916100D01*
X-11210554Y2866600D02*
X-11111554D01*
X-11161054Y2817100D02*
Y2916100D01*
X-11210554Y2416600D02*
X-11111554D01*
X-11161054Y2367100D02*
Y2466100D01*
X-11860554Y2866600D02*
X-11761554D01*
X-11811054Y2817100D02*
Y2916100D01*
X-11860554Y2416600D02*
X-11761554D01*
X-11811054Y2367100D02*
Y2466100D01*
X-13945598Y2416600D02*
X-13846597D01*
X-13896098Y2367100D02*
Y2466100D01*
X-13945598Y2866600D02*
X-13846597D01*
X-13896098Y2817100D02*
Y2916100D01*
X-13295598Y2416600D02*
X-13196597D01*
X-13246098Y2367100D02*
Y2466100D01*
X-13295598Y2866600D02*
X-13196597D01*
X-13246098Y2817100D02*
Y2916100D01*
X-13989000Y2146300D02*
X-13899001D01*
X-13944000Y2101300D02*
Y2191300D01*
X-13278999Y2146300D02*
X-13189000D01*
X-13234000Y2101300D02*
Y2191300D01*
X-3492700Y1612900D02*
X-3402700D01*
X-3447700Y1567900D02*
Y1657900D01*
X-3232700Y1612900D02*
X-3142700D01*
X-3187700Y1567900D02*
Y1657900D01*
X-2972700Y1612900D02*
X-2882700D01*
X-2927700Y1567900D02*
Y1657900D01*
X-11906200Y2146300D02*
X-11816200D01*
X-11861200Y2101300D02*
Y2191300D01*
X-11196200Y2146300D02*
X-11106200D01*
X-11151200Y2101300D02*
Y2191300D01*
X-13894000Y1562100D02*
X-13803999D01*
X-13849001Y1517100D02*
Y1607100D01*
X-13634000Y1562100D02*
X-13544000D01*
X-13589000Y1517100D02*
Y1607100D01*
X-13374001Y1562100D02*
X-13284000D01*
X-13328999Y1517100D02*
Y1607100D01*
X-11785800Y1611925D02*
X-11695800D01*
X-11740800Y1566925D02*
Y1656925D01*
X-11525800Y1611925D02*
X-11435800D01*
X-11480800Y1566925D02*
Y1656925D01*
X-11265800Y1611925D02*
X-11175800D01*
X-11220800Y1566925D02*
Y1656925D01*
X-1492200Y2146300D02*
X-1402200D01*
X-1447200Y2101300D02*
Y2191300D01*
X-782200Y2146300D02*
X-692200D01*
X-737200Y2101300D02*
Y2191300D01*
X-3575000Y2146300D02*
X-3485000D01*
X-3530000Y2101300D02*
Y2191300D01*
X-2865000Y2146300D02*
X-2775000D01*
X-2820000Y2101300D02*
Y2191300D01*
X-5657800Y2146300D02*
X-5567800D01*
X-5612800Y2101300D02*
Y2191300D01*
X-4947800Y2146300D02*
X-4857800D01*
X-4902800Y2101300D02*
Y2191300D01*
X-7740600Y2146300D02*
X-7650600D01*
X-7695600Y2101300D02*
Y2191300D01*
X-7030600Y2146300D02*
X-6940600D01*
X-6985600Y2101300D02*
Y2191300D01*
X-9728400Y1600200D02*
X-9638400D01*
X-9683400Y1555200D02*
Y1645200D01*
X-9468400Y1600200D02*
X-9378400D01*
X-9423400Y1555200D02*
Y1645200D01*
X-9208400Y1600200D02*
X-9118400D01*
X-9163400Y1555200D02*
Y1645200D01*
X-7645600Y1612900D02*
X-7555600D01*
X-7600600Y1567900D02*
Y1657900D01*
X-7385600Y1612900D02*
X-7295600D01*
X-7340600Y1567900D02*
Y1657900D01*
X-7125600Y1612900D02*
X-7035600D01*
X-7080600Y1567900D02*
Y1657900D01*
X-1384500Y1600200D02*
X-1294500D01*
X-1339500Y1555200D02*
Y1645200D01*
X-1124500Y1600200D02*
X-1034500D01*
X-1079500Y1555200D02*
Y1645200D01*
X-864500Y1600200D02*
X-774500D01*
X-819500Y1555200D02*
Y1645200D01*
X4902000Y1600200D02*
X4992000D01*
X4947000Y1555200D02*
Y1645200D01*
X5162000Y1600200D02*
X5252000D01*
X5207000Y1555200D02*
Y1645200D01*
X5422000Y1600200D02*
X5512000D01*
X5467000Y1555200D02*
Y1645200D01*
X-5524700Y1600200D02*
X-5434700D01*
X-5479700Y1555200D02*
Y1645200D01*
X-5264700Y1600200D02*
X-5174700D01*
X-5219700Y1555200D02*
Y1645200D01*
X-5004700Y1600200D02*
X-4914700D01*
X-4959700Y1555200D02*
Y1645200D01*
X672900Y1562100D02*
X762900D01*
X717900Y1517100D02*
Y1607100D01*
X932900Y1562100D02*
X1022900D01*
X977900Y1517100D02*
Y1607100D01*
X1192900Y1562100D02*
X1282900D01*
X1237900Y1517100D02*
Y1607100D01*
X2882700Y1562100D02*
X2972700D01*
X2927700Y1517100D02*
Y1607100D01*
X3142700Y1562100D02*
X3232700D01*
X3187700Y1517100D02*
Y1607100D01*
X3402700Y1562100D02*
X3492700D01*
X3447700Y1517100D02*
Y1607100D01*
X5469799Y2866600D02*
X5568799D01*
X5519299Y2817100D02*
Y2916100D01*
X5469799Y2416600D02*
X5568799D01*
X5519299Y2367100D02*
Y2466100D01*
X4819799Y2866600D02*
X4918799D01*
X4869299Y2817100D02*
Y2916100D01*
X4819799Y2416600D02*
X4918799D01*
X4869299Y2367100D02*
Y2466100D01*
X-2991700Y-8989600D02*
X-2536700D01*
X-2764200Y-9217100D02*
Y-8762100D01*
X-3711700Y-8989600D02*
X-3256700D01*
X-3484200Y-9217100D02*
Y-8762100D01*
X-1796300Y3542900D02*
X-1664300D01*
X-1730300Y3476900D02*
Y3608900D01*
X-1194800Y3342900D02*
X-1065800D01*
X-1130300Y3278400D02*
Y3407400D01*
X-596300Y3542900D02*
X-464300D01*
X-530300Y3476900D02*
Y3608900D01*
X-596300Y4762900D02*
X-464300D01*
X-530300Y4696900D02*
Y4828900D01*
X-1796300Y4762900D02*
X-1664300D01*
X-1730300Y4696900D02*
Y4828900D01*
X235700Y3542900D02*
X367700D01*
X301700Y3476900D02*
Y3608900D01*
X837200Y3342900D02*
X966200D01*
X901700Y3278400D02*
Y3407400D01*
X1435700Y3542900D02*
X1567700D01*
X1501700Y3476900D02*
Y3608900D01*
X1435700Y4762900D02*
X1567700D01*
X1501700Y4696900D02*
Y4828900D01*
X235700Y4762900D02*
X367700D01*
X301700Y4696900D02*
Y4828900D01*
X-13988300Y4762900D02*
X-13856300D01*
X-13922301Y4696900D02*
Y4828900D01*
X-12788300Y4762900D02*
X-12656300D01*
X-12722300Y4696900D02*
Y4828900D01*
X-12788300Y3542900D02*
X-12656300D01*
X-12722300Y3476900D02*
Y3608900D01*
X-13386800Y3342900D02*
X-13257800D01*
X-13322301Y3278400D02*
Y3407400D01*
X-13988300Y3542900D02*
X-13856300D01*
X-13922301Y3476900D02*
Y3608900D01*
X-9924300Y3542900D02*
X-9792300D01*
X-9858300Y3476900D02*
Y3608900D01*
X-9322800Y3342900D02*
X-9193800D01*
X-9258300Y3278400D02*
Y3407400D01*
X-8724300Y3542900D02*
X-8592300D01*
X-8658300Y3476900D02*
Y3608900D01*
X-8724300Y4762900D02*
X-8592300D01*
X-8658300Y4696900D02*
Y4828900D01*
X-9924300Y4762900D02*
X-9792300D01*
X-9858300Y4696900D02*
Y4828900D01*
X-7892300Y3542900D02*
X-7760300D01*
X-7826300Y3476900D02*
Y3608900D01*
X-7290800Y3342900D02*
X-7161800D01*
X-7226300Y3278400D02*
Y3407400D01*
X-6692300Y3542900D02*
X-6560300D01*
X-6626300Y3476900D02*
Y3608900D01*
X-6692300Y4762900D02*
X-6560300D01*
X-6626300Y4696900D02*
Y4828900D01*
X-7892300Y4762900D02*
X-7760300D01*
X-7826300Y4696900D02*
Y4828900D01*
X-9823400Y2146300D02*
X-9733400D01*
X-9778400Y2101300D02*
Y2191300D01*
X-9113400Y2146300D02*
X-9023400D01*
X-9068400Y2101300D02*
Y2191300D01*
X4756200Y2146300D02*
X4846200D01*
X4801200Y2101300D02*
Y2191300D01*
X5466200Y2146300D02*
X5556200D01*
X5511200Y2101300D02*
Y2191300D01*
X-7470100Y-6553400D02*
X-7338100D01*
X-7404100Y-6619400D02*
Y-6487400D01*
X-7470100Y-8737400D02*
X-7338100D01*
X-7404100Y-8803400D02*
Y-8671400D01*
X-588800Y-8560500D02*
X-266800D01*
X-427800Y-8721500D02*
Y-8399500D01*
X-588800Y-5790500D02*
X-266800D01*
X-427800Y-5951500D02*
Y-5629500D01*
X4991200Y-8560500D02*
X5313200D01*
X5152200Y-8721500D02*
Y-8399500D01*
X4991200Y-5790500D02*
X5313200D01*
X5152200Y-5951500D02*
Y-5629500D01*
X-12963300Y-2226500D02*
X-12641300D01*
X-12802299Y-2387500D02*
Y-2065500D01*
X-10193300Y-2226500D02*
X-9871300D01*
X-10032300Y-2387500D02*
Y-2065500D01*
X-12963300Y-7806500D02*
X-12641300D01*
X-12802299Y-7967500D02*
Y-7645500D01*
X-10193300Y-7806500D02*
X-9871300D01*
X-10032300Y-7967500D02*
Y-7645500D01*
X-588800Y-4433000D02*
X-266800D01*
X-427800Y-4594000D02*
Y-4272000D01*
X-588800Y-1663000D02*
X-266800D01*
X-427800Y-1824000D02*
Y-1502000D01*
X4991200Y-4433000D02*
X5313200D01*
X5152200Y-4594000D02*
Y-4272000D01*
X4991200Y-1663000D02*
X5313200D01*
X5152200Y-1824000D02*
Y-1502000D01*
X6472800Y-7797800D02*
X6582800D01*
X6527800Y-7852800D02*
Y-7742800D01*
X6472800Y-7289800D02*
X6582800D01*
X6527800Y-7344800D02*
Y-7234800D01*
X-45000Y-508000D02*
X45000D01*
X0Y-553000D02*
Y-463000D01*
X-45000Y-254000D02*
X45000D01*
X0Y-299000D02*
Y-209000D01*
X-45000Y0D02*
X45000D01*
X0Y-45000D02*
Y45000D01*
X-45000Y254000D02*
X45000D01*
X0Y209000D02*
Y299000D01*
X-15081799Y-6007100D02*
X-14991800D01*
X-15036800Y-6052100D02*
Y-5962100D01*
X-15081799Y-5753100D02*
X-14991800D01*
X-15036800Y-5798100D02*
Y-5708100D01*
X-15081799Y-5499100D02*
X-14991800D01*
X-15036800Y-5544100D02*
Y-5454100D01*
X-15081799Y-5245100D02*
X-14991800D01*
X-15036800Y-5290100D02*
Y-5200100D01*
X-15002901Y1041400D02*
X-14892900D01*
X-14947900Y986400D02*
Y1096400D01*
X-15002901Y533400D02*
X-14892900D01*
X-14947900Y478400D02*
Y588400D01*
X6472800Y-4318000D02*
X6582800D01*
X6527800Y-4373000D02*
Y-4263000D01*
X6472800Y-3810000D02*
X6582800D01*
X6527800Y-3865000D02*
Y-3755000D01*
X-7641400Y-2654300D02*
X-7537400D01*
X-7589400Y-2706300D02*
Y-2602300D01*
X-7387400Y-2654300D02*
X-7283400D01*
X-7335400Y-2706300D02*
Y-2602300D01*
X-3069400Y-2654300D02*
X-2965400D01*
X-3017400Y-2706300D02*
Y-2602300D01*
X-7133400Y-2654300D02*
X-7029400D01*
X-7081400Y-2706300D02*
Y-2602300D01*
X-6879400Y-2654300D02*
X-6775400D01*
X-6827400Y-2706300D02*
Y-2602300D01*
X-6625400Y-2654300D02*
X-6521400D01*
X-6573400Y-2706300D02*
Y-2602300D01*
X-6371400Y-2654300D02*
X-6267400D01*
X-6319400Y-2706300D02*
Y-2602300D01*
X-6117400Y-2654300D02*
X-6013400D01*
X-6065400Y-2706300D02*
Y-2602300D01*
X-5863400Y-2654300D02*
X-5759400D01*
X-5811400Y-2706300D02*
Y-2602300D01*
X-5609400Y-2654300D02*
X-5505400D01*
X-5557400Y-2706300D02*
Y-2602300D01*
X-5355400Y-2654300D02*
X-5251400D01*
X-5303400Y-2706300D02*
Y-2602300D01*
X-5101400Y-2654300D02*
X-4997400D01*
X-5049400Y-2706300D02*
Y-2602300D01*
X-4847400Y-2654300D02*
X-4743400D01*
X-4795400Y-2706300D02*
Y-2602300D01*
X-4593400Y-2654300D02*
X-4489400D01*
X-4541400Y-2706300D02*
Y-2602300D01*
X-4339400Y-2654300D02*
X-4235400D01*
X-4287400Y-2706300D02*
Y-2602300D01*
X-4085400Y-2654300D02*
X-3981400D01*
X-4033400Y-2706300D02*
Y-2602300D01*
X-3831400Y-2654300D02*
X-3727400D01*
X-3779400Y-2706300D02*
Y-2602300D01*
X-3577400Y-2654300D02*
X-3473400D01*
X-3525400Y-2706300D02*
Y-2602300D01*
X-3323400Y-2654300D02*
X-3219400D01*
X-3271400Y-2706300D02*
Y-2602300D01*
X-7641400Y-114300D02*
X-7537400D01*
X-7589400Y-166300D02*
Y-62300D01*
X-7387400Y-114300D02*
X-7283400D01*
X-7335400Y-166300D02*
Y-62300D01*
X-7133400Y-114300D02*
X-7029400D01*
X-7081400Y-166300D02*
Y-62300D01*
X-6879400Y-114300D02*
X-6775400D01*
X-6827400Y-166300D02*
Y-62300D01*
X-6625400Y-114300D02*
X-6521400D01*
X-6573400Y-166300D02*
Y-62300D01*
X-6371400Y-114300D02*
X-6267400D01*
X-6319400Y-166300D02*
Y-62300D01*
X-6117400Y-114300D02*
X-6013400D01*
X-6065400Y-166300D02*
Y-62300D01*
X-5863400Y-114300D02*
X-5759400D01*
X-5811400Y-166300D02*
Y-62300D01*
X-5609400Y-114300D02*
X-5505400D01*
X-5557400Y-166300D02*
Y-62300D01*
X-5355400Y-114300D02*
X-5251400D01*
X-5303400Y-166300D02*
Y-62300D01*
X-5101400Y-114300D02*
X-4997400D01*
X-5049400Y-166300D02*
Y-62300D01*
X-4847400Y-114300D02*
X-4743400D01*
X-4795400Y-166300D02*
Y-62300D01*
X-4593400Y-114300D02*
X-4489400D01*
X-4541400Y-166300D02*
Y-62300D01*
X-4339400Y-114300D02*
X-4235400D01*
X-4287400Y-166300D02*
Y-62300D01*
X-4085400Y-114300D02*
X-3981400D01*
X-4033400Y-166300D02*
Y-62300D01*
X-3831400Y-114300D02*
X-3727400D01*
X-3779400Y-166300D02*
Y-62300D01*
X-3577400Y-114300D02*
X-3473400D01*
X-3525400Y-166300D02*
Y-62300D01*
X-3323400Y-114300D02*
X-3219400D01*
X-3271400Y-166300D02*
Y-62300D01*
X-3069400Y-114300D02*
X-2965400D01*
X-3017400Y-166300D02*
Y-62300D01*
X-1713010Y-6775500D02*
X-1633010D01*
X-1673010Y-6815500D02*
Y-6735500D01*
X-1713010Y-6975500D02*
X-1633010D01*
X-1673010Y-7015500D02*
Y-6935500D01*
X-1713010Y-7175500D02*
X-1633010D01*
X-1673010Y-7215500D02*
Y-7135500D01*
X-1713010Y-7375500D02*
X-1633010D01*
X-1673010Y-7415500D02*
Y-7335500D01*
X-1687610Y-2724200D02*
X-1607610D01*
X-1647610Y-2764200D02*
Y-2684200D01*
X-1687610Y-2924200D02*
X-1607610D01*
X-1647610Y-2964200D02*
Y-2884200D01*
X-1687610Y-3124200D02*
X-1607610D01*
X-1647610Y-3164200D02*
Y-3084200D01*
X-1687610Y-3324200D02*
X-1607610D01*
X-1647610Y-3364200D02*
Y-3284200D01*
X3633152Y660400D02*
X3704272D01*
X3668712Y624840D02*
Y695960D01*
X6987540Y660400D02*
X7058660D01*
X7023100Y624840D02*
Y695960D01*
X4930139Y-787400D02*
X5001259D01*
X4965699Y-822960D02*
Y-751840D01*
X6250938Y-787400D02*
X6322058D01*
X6286498Y-822960D02*
Y-751840D01*
X6987540Y-63500D02*
X7058660D01*
X7023100Y-99060D02*
Y-27940D01*
X6987540Y-787400D02*
X7058660D01*
X7023100Y-822960D02*
Y-751840D01*
X5590538Y-787400D02*
X5661658D01*
X5626098Y-822960D02*
Y-751840D01*
X4269739Y-787400D02*
X4340859D01*
X4305299Y-822960D02*
Y-751840D01*
X3609339Y-787400D02*
X3680459D01*
X3644899Y-822960D02*
Y-751840D01*
X2948939Y-787400D02*
X3020059D01*
X2984499Y-822960D02*
Y-751840D01*
X2288540Y-787400D02*
X2359660D01*
X2324100Y-822960D02*
Y-751840D01*
X6306501Y660400D02*
X6377621D01*
X6342061Y624840D02*
Y695960D01*
X5638163Y660400D02*
X5709283D01*
X5673723Y624840D02*
Y695960D01*
X4969826Y660400D02*
X5040946D01*
X5005386Y624840D02*
Y695960D01*
X4301489Y660400D02*
X4372609D01*
X4337049Y624840D02*
Y695960D01*
X2296477Y660400D02*
X2367597D01*
X2332037Y624840D02*
Y695960D01*
X1628140Y660400D02*
X1699260D01*
X1663700Y624840D02*
Y695960D01*
%TF.MD5,e29b4d54272c34a4df80a765e90af6a3*%
M02*
