G04*
G04 #@! TF.GenerationSoftware,Altium Limited,Altium Designer,22.1.2 (22)*
G04*
G04 Layer_Color=65535*
%FSLAX44Y44*%
%MOMM*%
G71*
G04*
G04 #@! TF.SameCoordinates,E17F41A4-0C7A-49D5-8B51-7FD3D5A7BB14*
G04*
G04*
G04 #@! TF.FilePolarity,Positive*
G04*
G01*
G75*
%ADD10C,0.3000*%
%ADD11C,0.2000*%
%ADD12C,0.1270*%
%ADD13C,0.2540*%
%ADD14C,0.5000*%
%ADD15R,0.8000X1.9000*%
%ADD16C,0.1000*%
%ADD17C,0.2800*%
%ADD18C,0.0500*%
D10*
X1983240Y1291190D02*
G03*
X1983240Y1291190I-1000J0D01*
G01*
X1170440D02*
G03*
X1170440Y1291190I-1000J0D01*
G01*
X967240D02*
G03*
X967240Y1291190I-1000J0D01*
G01*
X357640D02*
G03*
X357640Y1291190I-1000J0D01*
G01*
X1780040D02*
G03*
X1780040Y1291190I-1000J0D01*
G01*
X1190490Y1139190D02*
G03*
X1190490Y1139190I-500J0D01*
G01*
X150360Y1134110D02*
G03*
X150360Y1134110I-500J0D01*
G01*
X361180Y1139092D02*
G03*
X361180Y1139092I-500J0D01*
G01*
X566920Y1137920D02*
G03*
X566920Y1137920I-500J0D01*
G01*
X775200Y1139190D02*
G03*
X775200Y1139190I-500J0D01*
G01*
X1401310Y1137920D02*
G03*
X1401310Y1137920I-500J0D01*
G01*
X2029960D02*
G03*
X2029960Y1137920I-500J0D01*
G01*
X987290D02*
G03*
X987290Y1137920I-500J0D01*
G01*
X1607050Y1134110D02*
G03*
X1607050Y1134110I-500J0D01*
G01*
X1828030D02*
G03*
X1828030Y1134110I-500J0D01*
G01*
X1373640Y1291190D02*
G03*
X1373640Y1291190I-1000J0D01*
G01*
X1576840D02*
G03*
X1576840Y1291190I-1000J0D01*
G01*
X154440D02*
G03*
X154440Y1291190I-1000J0D01*
G01*
X560840D02*
G03*
X560840Y1291190I-1000J0D01*
G01*
X764040D02*
G03*
X764040Y1291190I-1000J0D01*
G01*
D11*
X771813Y1264560D02*
G03*
X771813Y1264560I-1000J0D01*
G01*
X890180Y413500D02*
G03*
X890180Y413500I-1000J0D01*
G01*
X2204450Y915670D02*
G03*
X2204450Y915670I-1000J0D01*
G01*
X463020Y874691D02*
G03*
X463020Y874691I-1000J0D01*
G01*
X1814335Y1264560D02*
G03*
X1814335Y1264560I-1000J0D01*
G01*
X1605831D02*
G03*
X1605831Y1264560I-1000J0D01*
G01*
X1397327D02*
G03*
X1397327Y1264560I-1000J0D01*
G01*
X1188822D02*
G03*
X1188822Y1264560I-1000J0D01*
G01*
X980318D02*
G03*
X980318Y1264560I-1000J0D01*
G01*
X563309D02*
G03*
X563309Y1264560I-1000J0D01*
G01*
X354805D02*
G03*
X354805Y1264560I-1000J0D01*
G01*
X146300D02*
G03*
X146300Y1264560I-1000J0D01*
G01*
X2022840D02*
G03*
X2022840Y1264560I-1000J0D01*
G01*
X1380559Y328350D02*
G03*
X1380559Y328350I-1000J0D01*
G01*
X1383099Y733480D02*
G03*
X1383099Y733480I-1000J0D01*
G01*
X1695450Y982980D02*
Y985266D01*
Y929894D02*
Y932180D01*
Y982980D02*
X1703070D01*
Y932180D02*
Y982980D01*
X1687830Y932180D02*
X1703070D01*
X1687830D02*
Y982980D01*
X1695450D01*
X1389424Y202000D02*
X1406424D01*
X1406424Y179000D02*
X1411424Y183000D01*
X1406424Y202000D02*
X1411424Y198000D01*
X1389424Y179000D02*
X1406424D01*
X1411424Y183000D02*
Y198000D01*
X1350424Y179000D02*
Y202000D01*
X1369424D01*
X1350424Y179000D02*
X1369424D01*
X915670Y1018540D02*
Y1031240D01*
Y1018540D02*
X1169670D01*
Y1031240D01*
X924137Y984673D02*
Y1018540D01*
Y984673D02*
X928370Y980440D01*
X932603Y984673D01*
Y1018540D01*
X949537Y984673D02*
Y1018540D01*
Y984673D02*
X953770Y980440D01*
X958003Y984673D01*
Y1018540D01*
X974937Y984673D02*
Y1018540D01*
Y984673D02*
X979170Y980440D01*
X983403Y984673D01*
Y1018540D01*
X1000337Y984673D02*
Y1018540D01*
Y984673D02*
X1004570Y980440D01*
X1008803Y984673D01*
Y1018540D01*
X1025737Y984673D02*
Y1018540D01*
Y984673D02*
X1029970Y980440D01*
X1034203Y984673D01*
Y1018540D01*
X1051137Y984673D02*
Y1018540D01*
Y984673D02*
X1055370Y980440D01*
X1059603Y984673D01*
Y1018540D01*
X1076537Y984673D02*
Y1018540D01*
Y984673D02*
X1080770Y980440D01*
X1085003Y984673D01*
Y1018540D01*
X1101937Y984673D02*
Y1018540D01*
Y984673D02*
X1106170Y980440D01*
X1110403Y984673D01*
Y1018540D01*
X1127337Y984673D02*
Y1018540D01*
Y984673D02*
X1131570Y980440D01*
X1135803Y984673D01*
Y1018540D01*
X1152737Y984673D02*
Y1018540D01*
Y984673D02*
X1156970Y980440D01*
X1161203Y984673D01*
Y1018540D01*
X915670Y1031240D02*
X934720D01*
X915670Y1027007D02*
X919903Y1031240D01*
X934720D02*
X1169670D01*
X1394504Y602050D02*
X1411504D01*
X1411504Y579050D02*
X1416504Y583050D01*
X1411504Y602050D02*
X1416504Y598050D01*
X1394504Y579050D02*
X1411504D01*
X1416504Y583050D02*
Y598050D01*
X1355504Y579050D02*
Y602050D01*
X1374504D01*
X1355504Y579050D02*
X1374504D01*
X1751460Y939800D02*
Y990600D01*
Y939800D02*
X1764160D01*
X1751460Y990600D02*
X1764160D01*
Y939800D02*
Y990600D01*
X1717593Y982133D02*
X1751460D01*
X1713360Y977900D02*
X1717593Y982133D01*
X1713360Y977900D02*
X1717593Y973667D01*
X1717593Y973667D02*
X1751460D01*
X1717593Y956733D02*
X1751460D01*
X1713360Y952500D02*
X1717593Y956733D01*
X1713360Y952500D02*
X1717593Y948267D01*
X1751460D01*
X2242120Y1186880D02*
Y1210880D01*
X2218120Y1186880D02*
Y1210880D01*
X536250Y890810D02*
Y894810D01*
X543250Y890810D02*
Y894810D01*
X999180Y367690D02*
Y371690D01*
X992180Y367690D02*
Y371690D01*
X1350424Y339020D02*
X1369424D01*
X1350424Y362020D02*
X1369424D01*
X1350424Y339020D02*
Y362020D01*
X1411424Y343020D02*
Y358020D01*
X1389424Y339020D02*
X1406424D01*
Y362020D02*
X1411424Y358020D01*
X1406424Y339020D02*
X1411424Y343020D01*
X1389424Y362020D02*
X1406424D01*
X1359440Y377500D02*
X1363440D01*
X1359440Y384500D02*
X1363440D01*
X1359440Y156520D02*
X1363440D01*
X1359440Y163520D02*
X1363440D01*
X1007180Y398990D02*
Y417990D01*
X984180Y398990D02*
Y417990D01*
Y398990D02*
X1007180D01*
X988180Y459990D02*
X1003180D01*
X1007180Y437990D02*
Y454990D01*
X984180D02*
X988180Y459990D01*
X1003180D02*
X1007180Y454990D01*
X984180Y437990D02*
Y454990D01*
X1364520Y559110D02*
X1368520D01*
X1364520Y566110D02*
X1368520D01*
X1361980Y782630D02*
X1365980D01*
X1361980Y789630D02*
X1365980D01*
X1391964Y772230D02*
X1408964D01*
X1408964Y749230D02*
X1413964Y753230D01*
X1408964Y772230D02*
X1413964Y768230D01*
X1391964Y749230D02*
X1408964D01*
X1413964Y753230D02*
Y768230D01*
X1352964Y749230D02*
Y772230D01*
X1371964D01*
X1352964Y749230D02*
X1371964D01*
X294570Y884826D02*
Y903826D01*
X317570Y884826D02*
Y903826D01*
X294570D02*
X317570D01*
X298570Y842826D02*
X313570D01*
X294570Y847826D02*
Y864826D01*
X313570Y842826D02*
X317570Y847826D01*
X294570D02*
X298570Y842826D01*
X317570Y847826D02*
Y864826D01*
X496500Y884826D02*
Y903826D01*
X519500Y884826D02*
Y903826D01*
X496500D02*
X519500D01*
X500500Y842826D02*
X515500D01*
X496500Y847826D02*
Y864826D01*
X515500Y842826D02*
X519500Y847826D01*
X496500D02*
X500500Y842826D01*
X519500Y847826D02*
Y864826D01*
X1709520Y1245610D02*
Y1276610D01*
X1784020Y1245610D02*
X1788520Y1250110D01*
X1784020Y1276610D02*
X1788520Y1272110D01*
Y1250110D02*
Y1272110D01*
X1709520Y1245610D02*
X1735520D01*
X1709520Y1276610D02*
X1735520D01*
X1759520D02*
X1784020D01*
X1759520Y1245610D02*
X1784020D01*
X1873700Y1183030D02*
Y1202030D01*
X1834700Y1183030D02*
X1873700D01*
X1834700Y1202030D02*
X1873700D01*
X1665420Y1183030D02*
Y1202030D01*
X1626420Y1183030D02*
X1665420D01*
X1626420Y1202030D02*
X1665420D01*
X1492350Y1237990D02*
Y1268990D01*
X1566850Y1237990D02*
X1571350Y1242490D01*
X1566850Y1268990D02*
X1571350Y1264490D01*
Y1242490D02*
Y1264490D01*
X1492350Y1237990D02*
X1518350D01*
X1492350Y1268990D02*
X1518350D01*
X1542350D02*
X1566850D01*
X1542350Y1237990D02*
X1566850D01*
X743260Y1181640D02*
Y1185640D01*
X750260Y1181640D02*
Y1185640D01*
X122230Y1205770D02*
Y1209770D01*
X129230Y1205770D02*
Y1209770D01*
X541330Y1175290D02*
Y1179290D01*
X548330Y1175290D02*
Y1179290D01*
X334320Y1204500D02*
Y1208500D01*
X341320Y1204500D02*
Y1208500D01*
X207460Y1183030D02*
Y1202030D01*
X168460Y1183030D02*
X207460D01*
X168460Y1202030D02*
X207460D01*
X253150Y1146500D02*
X257150D01*
X253150Y1139500D02*
X257150D01*
X672370Y1146500D02*
X676370D01*
X672370Y1139500D02*
X676370D01*
X2207830Y1148690D02*
Y1156690D01*
X2183830Y1148690D02*
Y1156690D01*
X1302290Y1151580D02*
X1306290D01*
X1302290Y1144580D02*
X1306290D01*
X415740Y1183030D02*
Y1202030D01*
X376740Y1183030D02*
X415740D01*
X376740Y1202030D02*
X415740D01*
X461430Y1147770D02*
X465430D01*
X461430Y1140770D02*
X465430D01*
X1501680Y1154120D02*
X1505680D01*
X1501680Y1147120D02*
X1505680D01*
X1085120Y1150310D02*
X1089120D01*
X1085120Y1143310D02*
X1089120D01*
X884460Y1151580D02*
X888460D01*
X884460Y1144580D02*
X888460D01*
X1929670Y1157930D02*
X1933670D01*
X1929670Y1150930D02*
X1933670D01*
X1457140Y1183030D02*
Y1202030D01*
X1418140Y1183030D02*
X1457140D01*
X1418140Y1202030D02*
X1457140D01*
X1248860Y1183030D02*
Y1202030D01*
X1209860Y1183030D02*
X1248860D01*
X1209860Y1202030D02*
X1248860D01*
X1040580Y1183030D02*
Y1202030D01*
X1001580Y1183030D02*
X1040580D01*
X1001580Y1202030D02*
X1040580D01*
X832300Y1183030D02*
Y1202030D01*
X793300Y1183030D02*
X832300D01*
X793300Y1202030D02*
X832300D01*
X1378260Y1208310D02*
Y1212310D01*
X1385260Y1208310D02*
Y1212310D01*
X1162360Y1203230D02*
Y1207230D01*
X1169360Y1203230D02*
Y1207230D01*
X1964810Y1202760D02*
X1983810D01*
X1964810Y1179760D02*
X1983810D01*
Y1202760D01*
X1922810Y1183760D02*
Y1198760D01*
X1927810Y1202760D02*
X1944810D01*
X1922810Y1183760D02*
X1927810Y1179760D01*
X1922810Y1198760D02*
X1927810Y1202760D01*
X1927810Y1179760D02*
X1944810D01*
X957890Y1185570D02*
Y1189570D01*
X964890Y1185570D02*
Y1189570D01*
X272090Y890810D02*
Y894810D01*
X279090Y890810D02*
Y894810D01*
X666527Y267900D02*
X685527D01*
X666527Y290900D02*
X685527D01*
X666527Y267900D02*
Y290900D01*
X727527Y271900D02*
Y286900D01*
X705527Y267900D02*
X722527D01*
Y290900D02*
X727527Y286900D01*
X722527Y267900D02*
X727527Y271900D01*
X705527Y290900D02*
X722527D01*
X2176620Y1225620D02*
X2195620D01*
X2176620Y1202620D02*
X2195620D01*
Y1225620D01*
X2134620Y1206620D02*
Y1221620D01*
X2139620Y1225620D02*
X2156620D01*
X2134620Y1206620D02*
X2139620Y1202620D01*
X2134620Y1221620D02*
X2139620Y1225620D01*
X2139620Y1202620D02*
X2156620D01*
X1584000Y1203230D02*
Y1207230D01*
X1591000Y1203230D02*
Y1207230D01*
X624020Y1183030D02*
Y1202030D01*
X585020Y1183030D02*
X624020D01*
X585020Y1202030D02*
X624020D01*
X2081980Y1183030D02*
Y1202030D01*
X2042980Y1183030D02*
X2081980D01*
X2042980Y1202030D02*
X2081980D01*
X2000560Y1205770D02*
Y1209770D01*
X2007560Y1205770D02*
Y1209770D01*
X2128620Y1240530D02*
Y1271530D01*
X2203120Y1240530D02*
X2207620Y1245030D01*
X2203120Y1271530D02*
X2207620Y1267030D01*
Y1245030D02*
Y1267030D01*
X2128620Y1240530D02*
X2154620D01*
X2128620Y1271530D02*
X2154620D01*
X2178620D02*
X2203120D01*
X2178620Y1240530D02*
X2203120D01*
X1534160Y914400D02*
Y1016000D01*
X1487593Y922867D02*
X1521460D01*
X1483360Y927100D02*
X1487593Y922867D01*
X1483360Y927100D02*
X1487593Y931333D01*
X1521460D01*
X1487593Y948267D02*
X1521460D01*
X1483360Y952500D02*
X1487593Y948267D01*
X1483360Y952500D02*
X1487593Y956733D01*
X1521460D01*
X1487593Y973667D02*
X1521460D01*
X1483360Y977900D02*
X1487593Y973667D01*
X1483360Y977900D02*
X1487593Y982133D01*
X1521460D01*
X1487593Y999067D02*
X1521460D01*
X1483360Y1003300D02*
X1487593Y999067D01*
X1483360Y1003300D02*
X1487593Y1007533D01*
X1521460D01*
Y1016000D02*
X1534160D01*
X1521460Y914400D02*
X1534160D01*
X1521460D02*
Y1016000D01*
X30480Y466090D02*
X55880D01*
Y364490D02*
Y466090D01*
X30480Y364490D02*
Y466090D01*
Y364490D02*
X55880D01*
X1716310Y1147120D02*
X1720310D01*
X1716310Y1154120D02*
X1720310D01*
X249860Y1178490D02*
X266860D01*
X244860Y1197490D02*
X249860Y1201490D01*
X244860Y1182490D02*
X249860Y1178490D01*
Y1201490D02*
X266860D01*
X244860Y1182490D02*
Y1197490D01*
X305860Y1178490D02*
Y1201490D01*
X286860Y1178490D02*
X305860D01*
X286860Y1201490D02*
X305860D01*
X665150Y1177220D02*
X682150D01*
X660150Y1196220D02*
X665150Y1200220D01*
X660150Y1181220D02*
X665150Y1177220D01*
Y1200220D02*
X682150D01*
X660150Y1181220D02*
Y1196220D01*
X721150Y1177220D02*
Y1200220D01*
X702150Y1177220D02*
X721150D01*
X702150Y1200220D02*
X721150D01*
X1499540Y1187380D02*
X1516540D01*
X1494540Y1206380D02*
X1499540Y1210380D01*
X1494540Y1191380D02*
X1499540Y1187380D01*
Y1210380D02*
X1516540D01*
X1494540Y1191380D02*
Y1206380D01*
X1555540Y1187380D02*
Y1210380D01*
X1536540Y1187380D02*
X1555540D01*
X1536540Y1210380D02*
X1555540D01*
X464490Y1179760D02*
X481490D01*
X459490Y1198760D02*
X464490Y1202760D01*
X459490Y1183760D02*
X464490Y1179760D01*
Y1202760D02*
X481490D01*
X459490Y1183760D02*
Y1198760D01*
X520490Y1179760D02*
Y1202760D01*
X501490Y1179760D02*
X520490D01*
X501490Y1202760D02*
X520490D01*
X1714170Y1191190D02*
X1731170D01*
X1709170Y1210190D02*
X1714170Y1214190D01*
X1709170Y1195190D02*
X1714170Y1191190D01*
Y1214190D02*
X1731170D01*
X1709170Y1195190D02*
Y1210190D01*
X1770170Y1191190D02*
Y1214190D01*
X1751170Y1191190D02*
X1770170D01*
X1751170Y1214190D02*
X1770170D01*
X884860Y1182300D02*
X901860D01*
X879860Y1201300D02*
X884860Y1205300D01*
X879860Y1186300D02*
X884860Y1182300D01*
Y1205300D02*
X901860D01*
X879860Y1186300D02*
Y1201300D01*
X940860Y1182300D02*
Y1205300D01*
X921860Y1182300D02*
X940860D01*
X921860Y1205300D02*
X940860D01*
X1081710Y1184840D02*
X1098710D01*
X1076710Y1203840D02*
X1081710Y1207840D01*
X1076710Y1188840D02*
X1081710Y1184840D01*
Y1207840D02*
X1098710D01*
X1076710Y1188840D02*
Y1203840D01*
X1137710Y1184840D02*
Y1207840D01*
X1118710Y1184840D02*
X1137710D01*
X1118710Y1207840D02*
X1137710D01*
X1303960Y1184840D02*
X1320960D01*
X1298960Y1203840D02*
X1303960Y1207840D01*
X1298960Y1188840D02*
X1303960Y1184840D01*
Y1207840D02*
X1320960D01*
X1298960Y1188840D02*
Y1203840D01*
X1359960Y1184840D02*
Y1207840D01*
X1340960Y1184840D02*
X1359960D01*
X1340960Y1207840D02*
X1359960D01*
X292670Y1234180D02*
X317170D01*
X292670Y1265180D02*
X317170D01*
X242670D02*
X268670D01*
X242670Y1234180D02*
X268670D01*
X321670Y1238680D02*
Y1260680D01*
X317170Y1265180D02*
X321670Y1260680D01*
X317170Y1234180D02*
X321670Y1238680D01*
X242670Y1234180D02*
Y1265180D01*
X2041830Y1068000D02*
X2058830D01*
X2036830Y1087000D02*
X2041830Y1091000D01*
X2036830Y1072000D02*
X2041830Y1068000D01*
Y1091000D02*
X2058830D01*
X2036830Y1072000D02*
Y1087000D01*
X2097830Y1068000D02*
Y1091000D01*
X2078830Y1068000D02*
X2097830D01*
X2078830Y1091000D02*
X2097830D01*
X509840Y1232910D02*
X534340D01*
X509840Y1263910D02*
X534340D01*
X459840D02*
X485840D01*
X459840Y1232910D02*
X485840D01*
X538840Y1237410D02*
Y1259410D01*
X534340Y1263910D02*
X538840Y1259410D01*
X534340Y1232910D02*
X538840Y1237410D01*
X459840Y1232910D02*
Y1263910D01*
X710500Y1232910D02*
X735000D01*
X710500Y1263910D02*
X735000D01*
X660500D02*
X686500D01*
X660500Y1232910D02*
X686500D01*
X739500Y1237410D02*
Y1259410D01*
X735000Y1263910D02*
X739500Y1259410D01*
X735000Y1232910D02*
X739500Y1237410D01*
X660500Y1232910D02*
Y1263910D01*
X929850Y1235450D02*
X954350D01*
X929850Y1266450D02*
X954350D01*
X879850D02*
X905850D01*
X879850Y1235450D02*
X905850D01*
X958850Y1239950D02*
Y1261950D01*
X954350Y1266450D02*
X958850Y1261950D01*
X954350Y1235450D02*
X958850Y1239950D01*
X879850Y1235450D02*
Y1266450D01*
X1127060Y1239260D02*
X1151560D01*
X1127060Y1270260D02*
X1151560D01*
X1077060D02*
X1103060D01*
X1077060Y1239260D02*
X1103060D01*
X1156060Y1243760D02*
Y1265760D01*
X1151560Y1270260D02*
X1156060Y1265760D01*
X1151560Y1239260D02*
X1156060Y1243760D01*
X1077060Y1239260D02*
Y1270260D01*
X1345500Y1239260D02*
X1370000D01*
X1345500Y1270260D02*
X1370000D01*
X1295500D02*
X1321500D01*
X1295500Y1239260D02*
X1321500D01*
X1374500Y1243760D02*
Y1265760D01*
X1370000Y1270260D02*
X1374500Y1265760D01*
X1370000Y1239260D02*
X1374500Y1243760D01*
X1295500Y1239260D02*
Y1270260D01*
X1798010Y1205770D02*
Y1209770D01*
X1791010Y1205770D02*
Y1209770D01*
X1973240Y1236720D02*
X1997740D01*
X1973240Y1267720D02*
X1997740D01*
X1923240D02*
X1949240D01*
X1923240Y1236720D02*
X1949240D01*
X2002240Y1241220D02*
Y1263220D01*
X1997740Y1267720D02*
X2002240Y1263220D01*
X1997740Y1236720D02*
X2002240Y1241220D01*
X1923240Y1236720D02*
Y1267720D01*
X890180Y413500D02*
G03*
X890180Y413500I-1000J0D01*
G01*
X2204450Y915670D02*
G03*
X2204450Y915670I-1000J0D01*
G01*
X2081260Y1559560D02*
G03*
X2081260Y1559560I-1000J0D01*
G01*
X1875442D02*
G03*
X1875442Y1559560I-1000J0D01*
G01*
X1669624D02*
G03*
X1669624Y1559560I-1000J0D01*
G01*
X463020Y874691D02*
G03*
X463020Y874691I-1000J0D01*
G01*
X41640Y963930D02*
G03*
X41640Y963930I-1000J0D01*
G01*
X384540Y49530D02*
G03*
X384540Y49530I-1000J0D01*
G01*
X228896Y1559560D02*
G03*
X228896Y1559560I-1000J0D01*
G01*
X434714D02*
G03*
X434714Y1559560I-1000J0D01*
G01*
X640533D02*
G03*
X640533Y1559560I-1000J0D01*
G01*
X846351D02*
G03*
X846351Y1559560I-1000J0D01*
G01*
X1052169D02*
G03*
X1052169Y1559560I-1000J0D01*
G01*
X1257987D02*
G03*
X1257987Y1559560I-1000J0D01*
G01*
X1463805D02*
G03*
X1463805Y1559560I-1000J0D01*
G01*
X2213340Y198120D02*
G03*
X2213340Y198120I-1000J0D01*
G01*
X40370Y1082040D02*
G03*
X40370Y1082040I-1000J0D01*
G01*
X2213340Y546100D02*
G03*
X2213340Y546100I-1000J0D01*
G01*
X1380559Y328350D02*
G03*
X1380559Y328350I-1000J0D01*
G01*
X1383099Y733480D02*
G03*
X1383099Y733480I-1000J0D01*
G01*
D12*
X832813Y1242060D02*
G03*
X832813Y1242060I-17550J0D01*
G01*
X1875336D02*
G03*
X1875336Y1242060I-17550J0D01*
G01*
X1666831D02*
G03*
X1666831Y1242060I-17550J0D01*
G01*
X1458327D02*
G03*
X1458327Y1242060I-17550J0D01*
G01*
X1249822D02*
G03*
X1249822Y1242060I-17550J0D01*
G01*
X1041318D02*
G03*
X1041318Y1242060I-17550J0D01*
G01*
X624309D02*
G03*
X624309Y1242060I-17550J0D01*
G01*
X415805D02*
G03*
X415805Y1242060I-17550J0D01*
G01*
X207300D02*
G03*
X207300Y1242060I-17550J0D01*
G01*
X1252171Y1147400D02*
G03*
X1204009Y1147400I-24081J-5119D01*
G01*
X212041Y1142320D02*
G03*
X163879Y1142320I-24081J-5119D01*
G01*
X422861Y1147303D02*
G03*
X374699Y1147303I-24081J-5119D01*
G01*
X628601Y1146130D02*
G03*
X580439Y1146130I-24081J-5119D01*
G01*
X836881Y1147400D02*
G03*
X788719Y1147400I-24081J-5119D01*
G01*
X1462991Y1146130D02*
G03*
X1414829Y1146130I-24081J-5119D01*
G01*
X2091641D02*
G03*
X2043479Y1146130I-24081J-5119D01*
G01*
X1048971D02*
G03*
X1000809Y1146130I-24081J-5119D01*
G01*
X1668731Y1142320D02*
G03*
X1620569Y1142320I-24081J-5119D01*
G01*
X1889711D02*
G03*
X1841549Y1142320I-24081J-5119D01*
G01*
X2083840Y1242060D02*
G03*
X2083840Y1242060I-17550J0D01*
G01*
X2120930Y1297690D02*
Y1488690D01*
X1965930D02*
X2120930D01*
X1965930Y1297690D02*
Y1488690D01*
Y1297690D02*
X2120930D01*
X785313Y1230560D02*
Y1253560D01*
X792263Y1212110D02*
X838263D01*
X845263Y1230560D02*
Y1253560D01*
X793263Y1272010D02*
X838263D01*
X1308130Y1297690D02*
Y1488690D01*
X1153130D02*
X1308130D01*
X1153130Y1297690D02*
Y1488690D01*
Y1297690D02*
X1308130D01*
X1104930D02*
Y1488690D01*
X949930D02*
X1104930D01*
X949930Y1297690D02*
Y1488690D01*
Y1297690D02*
X1104930D01*
X340330D02*
X495330D01*
X340330D02*
Y1488690D01*
X495330D01*
Y1297690D02*
Y1488690D01*
X728980Y406400D02*
X881380D01*
X728980D02*
Y609600D01*
X881380D01*
Y406400D02*
Y609600D01*
X2170950Y920990D02*
Y1001790D01*
X2235950D01*
Y920990D02*
Y1001790D01*
X2170950Y920990D02*
X2235950D01*
X2004060Y1505860D02*
X2105660D01*
X2004060D02*
Y1577860D01*
Y1587860D01*
X2105660D01*
Y1577860D02*
Y1587860D01*
Y1505860D02*
Y1577860D01*
X2004060D02*
X2105660D01*
X1798242Y1505860D02*
X1899842D01*
X1798242D02*
Y1577860D01*
Y1587860D01*
X1899842D01*
Y1577860D02*
Y1587860D01*
Y1505860D02*
Y1577860D01*
X1798242D02*
X1899842D01*
X1592424D02*
X1694023D01*
Y1505860D02*
Y1577860D01*
Y1587860D01*
X1592424D02*
X1694023D01*
X1592424Y1577860D02*
Y1587860D01*
Y1505860D02*
Y1577860D01*
Y1505860D02*
X1694023D01*
X454020Y853191D02*
Y904191D01*
X354020D02*
X454020D01*
X354020Y853191D02*
Y904191D01*
Y853191D02*
X454020D01*
X1029730Y385930D02*
Y627530D01*
X1126730Y385930D02*
Y627530D01*
X1029730Y385930D02*
X1065030D01*
X1091430D02*
X1126730D01*
X1029730Y627530D02*
X1065030D01*
X1091430D02*
X1126730D01*
X94340Y887730D02*
Y989330D01*
X22340Y887730D02*
X94340D01*
X12340D02*
X22340D01*
X12340D02*
Y989330D01*
X22340D01*
X94340D01*
X22340Y887730D02*
Y989330D01*
X358140Y31230D02*
X459740D01*
X358140D02*
Y103230D01*
Y21230D02*
Y31230D01*
Y21230D02*
X459740D01*
Y31230D01*
Y103230D01*
X358140D02*
X459740D01*
X95060Y704220D02*
Y714220D01*
X111060Y696720D02*
X135560Y668720D01*
X54560D02*
X79060Y696720D01*
X90060Y529220D02*
X100060D01*
X95060Y524220D02*
Y534220D01*
X54560Y541720D02*
X135560D01*
Y668720D01*
X79060Y696720D02*
X111060D01*
X54560Y541720D02*
Y668720D01*
X151696Y1505860D02*
X253296D01*
X151696D02*
Y1577860D01*
Y1587860D01*
X253296D01*
Y1577860D02*
Y1587860D01*
Y1505860D02*
Y1577860D01*
X151696D02*
X253296D01*
X357514Y1505860D02*
X459114D01*
X357514D02*
Y1577860D01*
Y1587860D01*
X459114D01*
Y1577860D02*
Y1587860D01*
Y1505860D02*
Y1577860D01*
X357514D02*
X459114D01*
X563332Y1505860D02*
X664932D01*
X563332D02*
Y1577860D01*
Y1587860D01*
X664932D01*
Y1577860D02*
Y1587860D01*
Y1505860D02*
Y1577860D01*
X563332D02*
X664932D01*
X769151D02*
X870751D01*
Y1505860D02*
Y1577860D01*
Y1587860D01*
X769151D02*
X870751D01*
X769151Y1577860D02*
Y1587860D01*
Y1505860D02*
Y1577860D01*
Y1505860D02*
X870751D01*
X974969D02*
X1076569D01*
X974969D02*
Y1577860D01*
Y1587860D01*
X1076569D01*
Y1577860D02*
Y1587860D01*
Y1505860D02*
Y1577860D01*
X974969D02*
X1076569D01*
X1180787Y1505860D02*
X1282387D01*
X1180787D02*
Y1577860D01*
Y1587860D01*
X1282387D01*
Y1577860D02*
Y1587860D01*
Y1505860D02*
Y1577860D01*
X1180787D02*
X1282387D01*
X1386605Y1505860D02*
X1488205D01*
X1386605D02*
Y1577860D01*
Y1587860D01*
X1488205D01*
Y1577860D02*
Y1587860D01*
Y1505860D02*
Y1577860D01*
X1386605D02*
X1488205D01*
X1835786Y1272010D02*
X1880786D01*
X1887785Y1230560D02*
Y1253560D01*
X1834785Y1212110D02*
X1880786D01*
X1827836Y1230560D02*
Y1253560D01*
X1762730Y1297690D02*
X1917730D01*
X1762730D02*
Y1488690D01*
X1917730D01*
Y1297690D02*
Y1488690D01*
X1627281Y1272010D02*
X1672281D01*
X1679281Y1230560D02*
Y1253560D01*
X1626281Y1212110D02*
X1672281D01*
X1619331Y1230560D02*
Y1253560D01*
X1418777Y1272010D02*
X1463777D01*
X1470777Y1230560D02*
Y1253560D01*
X1417777Y1212110D02*
X1463777D01*
X1410827Y1230560D02*
Y1253560D01*
X1202322Y1230560D02*
Y1253560D01*
X1209272Y1212110D02*
X1255272D01*
X1262272Y1230560D02*
Y1253560D01*
X1210272Y1272010D02*
X1255272D01*
X993818Y1230560D02*
Y1253560D01*
X1000768Y1212110D02*
X1046768D01*
X1053768Y1230560D02*
Y1253560D01*
X1001768Y1272010D02*
X1046768D01*
X584759D02*
X629759D01*
X636759Y1230560D02*
Y1253560D01*
X583759Y1212110D02*
X629759D01*
X576809Y1230560D02*
Y1253560D01*
X368305Y1230560D02*
Y1253560D01*
X375255Y1212110D02*
X421255D01*
X428255Y1230560D02*
Y1253560D01*
X376255Y1272010D02*
X421255D01*
X167750D02*
X212750D01*
X219750Y1230560D02*
Y1253560D01*
X166750Y1212110D02*
X212750D01*
X159800Y1230560D02*
Y1253560D01*
X1210940Y1125890D02*
X1245240D01*
X170810Y1120810D02*
X205110D01*
X381630Y1125792D02*
X415930D01*
X587370Y1124620D02*
X621670D01*
X795650Y1125890D02*
X829950D01*
X1421760Y1124620D02*
X1456060D01*
X2050410D02*
X2084710D01*
X1007740D02*
X1042040D01*
X1627500Y1120810D02*
X1661800D01*
X1848480D02*
X1882780D01*
X2036340Y1230560D02*
Y1253560D01*
X2043290Y1212110D02*
X2089290D01*
X2096290Y1230560D02*
Y1253560D01*
X2044290Y1272010D02*
X2089290D01*
X1184940Y38440D02*
X1311940D01*
X1156940Y62940D02*
Y94940D01*
X1184940Y119440D02*
X1311940D01*
Y38440D02*
Y119440D01*
X1319440Y78940D02*
X1329440D01*
X1324440Y73940D02*
Y83940D01*
X1156940Y62940D02*
X1184940Y38440D01*
X1156940Y94940D02*
X1184940Y119440D01*
X1139440Y78940D02*
X1149440D01*
X1356330Y1297690D02*
X1511330D01*
X1356330D02*
Y1488690D01*
X1511330D01*
Y1297690D02*
Y1488690D01*
X1559530Y1297690D02*
X1714530D01*
X1559530D02*
Y1488690D01*
X1714530D01*
Y1297690D02*
Y1488690D01*
X292130Y1297690D02*
Y1488690D01*
X137130D02*
X292130D01*
X137130Y1297690D02*
Y1488690D01*
Y1297690D02*
X292130D01*
X543530D02*
X698530D01*
X543530D02*
Y1488690D01*
X698530D01*
Y1297690D02*
Y1488690D01*
X746730Y1297690D02*
X901730D01*
X746730D02*
Y1488690D01*
X901730D01*
Y1297690D02*
Y1488690D01*
X819650Y334160D02*
X854950D01*
X757950D02*
X793250D01*
X819650Y92560D02*
X854950D01*
X757950D02*
X793250D01*
X854950D02*
Y334160D01*
X757950Y92560D02*
Y334160D01*
X2158640Y172720D02*
Y274320D01*
X2230640D01*
X2240640D01*
Y172720D02*
Y274320D01*
X2230640Y172720D02*
X2240640D01*
X2158640D02*
X2230640D01*
Y274320D01*
X93070Y1005840D02*
Y1107440D01*
X21070Y1005840D02*
X93070D01*
X11070D02*
X21070D01*
X11070D02*
Y1107440D01*
X21070D01*
X93070D01*
X21070Y1005840D02*
Y1107440D01*
X2158640Y520700D02*
Y622300D01*
X2230640D01*
X2240640D01*
Y520700D02*
Y622300D01*
X2230640Y520700D02*
X2240640D01*
X2158640D02*
X2230640D01*
Y622300D01*
X714020Y699970D02*
X1258020D01*
X714020D02*
Y978970D01*
X1258020D01*
Y699970D02*
Y978970D01*
X1401059Y220350D02*
Y320350D01*
X1350059Y220350D02*
X1401059D01*
X1350059D02*
Y320350D01*
X1401059D01*
X1403599Y625480D02*
Y725480D01*
X1352599Y625480D02*
X1403599D01*
X1352599D02*
Y725480D01*
X1403599D01*
X832813Y1242060D02*
G03*
X832813Y1242060I-17550J0D01*
G01*
X1875336D02*
G03*
X1875336Y1242060I-17550J0D01*
G01*
X1666831D02*
G03*
X1666831Y1242060I-17550J0D01*
G01*
X1458327D02*
G03*
X1458327Y1242060I-17550J0D01*
G01*
X1249822D02*
G03*
X1249822Y1242060I-17550J0D01*
G01*
X1041318D02*
G03*
X1041318Y1242060I-17550J0D01*
G01*
X624309D02*
G03*
X624309Y1242060I-17550J0D01*
G01*
X415805D02*
G03*
X415805Y1242060I-17550J0D01*
G01*
X207300D02*
G03*
X207300Y1242060I-17550J0D01*
G01*
X1203946Y1139253D02*
G03*
X1210827Y1126034I39104J11955D01*
G01*
X1245353D02*
G03*
X1252234Y1139253I-32222J25175D01*
G01*
X1252206Y1139128D02*
G03*
X1203974Y1139128I-24116J3389D01*
G01*
X163816Y1134173D02*
G03*
X170697Y1120954I39104J11955D01*
G01*
X205223D02*
G03*
X212104Y1134173I-32222J25175D01*
G01*
X212076Y1134048D02*
G03*
X163844Y1134048I-24116J3389D01*
G01*
X374636Y1139156D02*
G03*
X381517Y1125936I39104J11955D01*
G01*
X416043D02*
G03*
X422924Y1139156I-32222J25175D01*
G01*
X422896Y1139031D02*
G03*
X374664Y1139031I-24116J3389D01*
G01*
X580376Y1137983D02*
G03*
X587257Y1124764I39104J11955D01*
G01*
X621783D02*
G03*
X628664Y1137983I-32222J25175D01*
G01*
X628636Y1137858D02*
G03*
X580404Y1137858I-24116J3389D01*
G01*
X788656Y1139253D02*
G03*
X795537Y1126034I39104J11955D01*
G01*
X830063D02*
G03*
X836944Y1139253I-32222J25175D01*
G01*
X836916Y1139128D02*
G03*
X788684Y1139128I-24116J3389D01*
G01*
X1414766Y1137983D02*
G03*
X1421647Y1124764I39104J11955D01*
G01*
X1456173D02*
G03*
X1463054Y1137983I-32222J25175D01*
G01*
X1463026Y1137858D02*
G03*
X1414794Y1137858I-24116J3389D01*
G01*
X2043416Y1137983D02*
G03*
X2050297Y1124764I39104J11955D01*
G01*
X2084823D02*
G03*
X2091704Y1137983I-32222J25175D01*
G01*
X2091676Y1137858D02*
G03*
X2043444Y1137858I-24116J3389D01*
G01*
X1000746Y1137983D02*
G03*
X1007627Y1124764I39104J11955D01*
G01*
X1042153D02*
G03*
X1049034Y1137983I-32222J25175D01*
G01*
X1049006Y1137858D02*
G03*
X1000774Y1137858I-24116J3389D01*
G01*
X1620506Y1134173D02*
G03*
X1627387Y1120954I39104J11955D01*
G01*
X1661913D02*
G03*
X1668794Y1134173I-32222J25175D01*
G01*
X1668766Y1134048D02*
G03*
X1620534Y1134048I-24116J3389D01*
G01*
X1841486Y1134173D02*
G03*
X1848367Y1120954I39104J11955D01*
G01*
X1882893D02*
G03*
X1889774Y1134173I-32222J25175D01*
G01*
X1889746Y1134048D02*
G03*
X1841514Y1134048I-24116J3389D01*
G01*
X2083840Y1242060D02*
G03*
X2083840Y1242060I-17550J0D01*
G01*
X2120930Y1297690D02*
Y1488690D01*
X1965930D02*
X2120930D01*
X1965930Y1297690D02*
Y1488690D01*
Y1297690D02*
X2120930D01*
X785313Y1272010D02*
X845213D01*
Y1212110D02*
Y1272010D01*
X785313Y1212110D02*
X845213D01*
X785313D02*
Y1272010D01*
X1308130Y1297690D02*
Y1488690D01*
X1153130D02*
X1308130D01*
X1153130Y1297690D02*
Y1488690D01*
Y1297690D02*
X1308130D01*
X1104930D02*
Y1488690D01*
X949930D02*
X1104930D01*
X949930Y1297690D02*
Y1488690D01*
Y1297690D02*
X1104930D01*
X340330D02*
X495330D01*
X340330D02*
Y1488690D01*
X495330D01*
Y1297690D02*
Y1488690D01*
X728980Y406400D02*
X881380D01*
X728980D02*
Y609600D01*
X881380D01*
Y406400D02*
Y609600D01*
X2170950Y920990D02*
Y1001790D01*
X2235950D01*
Y920990D02*
Y1001790D01*
X2170950Y920990D02*
X2235950D01*
X2004060Y1505860D02*
X2105660D01*
X2004060D02*
Y1587860D01*
X2105660D01*
Y1505860D02*
Y1587860D01*
X1798242Y1505860D02*
X1899842D01*
X1798242D02*
Y1587860D01*
X1899842D01*
Y1505860D02*
Y1587860D01*
X1694023Y1505860D02*
Y1587860D01*
X1592424D02*
X1694023D01*
X1592424Y1505860D02*
Y1587860D01*
Y1505860D02*
X1694023D01*
X454020Y853191D02*
Y904191D01*
X354020D02*
X454020D01*
X354020Y853191D02*
Y904191D01*
Y853191D02*
X454020D01*
X1029730Y385930D02*
X1126730D01*
X1029730D02*
Y627530D01*
X1126730D01*
Y385930D02*
Y627530D01*
X94340Y887730D02*
Y989330D01*
X12340Y887730D02*
X94340D01*
X12340D02*
Y989330D01*
X94340D01*
X358140Y21230D02*
Y103230D01*
Y21230D02*
X459740D01*
Y103230D01*
X358140D02*
X459740D01*
X90060Y529220D02*
X100060D01*
X95060Y524220D02*
Y534220D01*
Y704220D02*
Y714220D01*
X54560Y668720D02*
X79060Y696720D01*
X111060D02*
X135560Y668720D01*
X54560Y541720D02*
X135560D01*
Y668720D01*
X79060Y696720D02*
X111060D01*
X54560Y541720D02*
Y668720D01*
X151696Y1505860D02*
X253296D01*
X151696D02*
Y1587860D01*
X253296D01*
Y1505860D02*
Y1587860D01*
X357514Y1505860D02*
X459114D01*
X357514D02*
Y1587860D01*
X459114D01*
Y1505860D02*
Y1587860D01*
X563332Y1505860D02*
X664932D01*
X563332D02*
Y1587860D01*
X664932D01*
Y1505860D02*
Y1587860D01*
X870751Y1505860D02*
Y1587860D01*
X769151D02*
X870751D01*
X769151Y1505860D02*
Y1587860D01*
Y1505860D02*
X870751D01*
X974969D02*
X1076569D01*
X974969D02*
Y1587860D01*
X1076569D01*
Y1505860D02*
Y1587860D01*
X1180787Y1505860D02*
X1282387D01*
X1180787D02*
Y1587860D01*
X1282387D01*
Y1505860D02*
Y1587860D01*
X1386605Y1505860D02*
X1488205D01*
X1386605D02*
Y1587860D01*
X1488205D01*
Y1505860D02*
Y1587860D01*
X1827836Y1212110D02*
Y1272010D01*
Y1212110D02*
X1887735D01*
Y1272010D01*
X1827836D02*
X1887735D01*
X1762730Y1297690D02*
X1917730D01*
X1762730D02*
Y1488690D01*
X1917730D01*
Y1297690D02*
Y1488690D01*
X1619331Y1212110D02*
Y1272010D01*
Y1212110D02*
X1679231D01*
Y1272010D01*
X1619331D02*
X1679231D01*
X1410827Y1212110D02*
Y1272010D01*
Y1212110D02*
X1470727D01*
Y1272010D01*
X1410827D02*
X1470727D01*
X1202322D02*
X1262222D01*
Y1212110D02*
Y1272010D01*
X1202322Y1212110D02*
X1262222D01*
X1202322D02*
Y1272010D01*
X993818D02*
X1053718D01*
Y1212110D02*
Y1272010D01*
X993818Y1212110D02*
X1053718D01*
X993818D02*
Y1272010D01*
X576809Y1212110D02*
Y1272010D01*
Y1212110D02*
X636709D01*
Y1272010D01*
X576809D02*
X636709D01*
X368305D02*
X428205D01*
Y1212110D02*
Y1272010D01*
X368305Y1212110D02*
X428205D01*
X368305D02*
Y1272010D01*
X159800Y1212110D02*
Y1272010D01*
Y1212110D02*
X219700D01*
Y1272010D01*
X159800D02*
X219700D01*
X1210940Y1125890D02*
X1245240D01*
X170810Y1120810D02*
X205110D01*
X381630Y1125792D02*
X415930D01*
X587370Y1124620D02*
X621670D01*
X795650Y1125890D02*
X829950D01*
X1421760Y1124620D02*
X1456060D01*
X2050410D02*
X2084710D01*
X1007740D02*
X1042040D01*
X1627500Y1120810D02*
X1661800D01*
X1848480D02*
X1882780D01*
X2036340Y1272010D02*
X2096240D01*
Y1212110D02*
Y1272010D01*
X2036340Y1212110D02*
X2096240D01*
X2036340D02*
Y1272010D01*
X1184940Y38440D02*
X1311940D01*
X1156940Y62940D02*
Y94940D01*
X1184940Y119440D02*
X1311940D01*
Y38440D02*
Y119440D01*
X1156940Y94940D02*
X1184940Y119440D01*
X1156940Y62940D02*
X1184940Y38440D01*
X1139440Y78940D02*
X1149440D01*
X1319440D02*
X1329440D01*
X1324440Y73940D02*
Y83940D01*
X1356330Y1297690D02*
X1511330D01*
X1356330D02*
Y1488690D01*
X1511330D01*
Y1297690D02*
Y1488690D01*
X1559530Y1297690D02*
X1714530D01*
X1559530D02*
Y1488690D01*
X1714530D01*
Y1297690D02*
Y1488690D01*
X292130Y1297690D02*
Y1488690D01*
X137130D02*
X292130D01*
X137130Y1297690D02*
Y1488690D01*
Y1297690D02*
X292130D01*
X543530D02*
X698530D01*
X543530D02*
Y1488690D01*
X698530D01*
Y1297690D02*
Y1488690D01*
X746730Y1297690D02*
X901730D01*
X746730D02*
Y1488690D01*
X901730D01*
Y1297690D02*
Y1488690D01*
X854950Y92560D02*
Y334160D01*
X757950D02*
X854950D01*
X757950Y92560D02*
Y334160D01*
Y92560D02*
X854950D01*
X2158640Y172720D02*
Y274320D01*
X2240640D01*
Y172720D02*
Y274320D01*
X2158640Y172720D02*
X2240640D01*
X93070Y1005840D02*
Y1107440D01*
X11070Y1005840D02*
X93070D01*
X11070D02*
Y1107440D01*
X93070D01*
X2158640Y520700D02*
Y622300D01*
X2240640D01*
Y520700D02*
Y622300D01*
X2158640Y520700D02*
X2240640D01*
X714020Y699970D02*
Y978970D01*
X1258020D01*
Y699970D02*
Y978970D01*
X714020Y699970D02*
X1258020D01*
X1401059Y220350D02*
Y320350D01*
X1350059Y220350D02*
X1401059D01*
X1350059D02*
Y320350D01*
X1401059D01*
X1403599Y625480D02*
Y725480D01*
X1352599Y625480D02*
X1403599D01*
X1352599D02*
Y725480D01*
X1403599D01*
D13*
X1503574Y449149D02*
G03*
X1453724Y400031I406J-50268D01*
G01*
X2112061Y398782D02*
G03*
X2062484Y448829I-49981J68D01*
G01*
X2061221Y70523D02*
G03*
X2113414Y121922I859J51327D01*
G01*
X1454281Y121922D02*
G03*
X1503677Y72053I49799J-72D01*
G01*
X593929Y755756D02*
G03*
X544811Y805606I-50268J-406D01*
G01*
X543562Y147269D02*
G03*
X593609Y196846I68J49981D01*
G01*
X215303Y198109D02*
G03*
X266702Y145916I51327J-859D01*
G01*
X266702Y805049D02*
G03*
X216833Y755653I-72J-49799D01*
G01*
X1503574Y861899D02*
G03*
X1453724Y812781I406J-50268D01*
G01*
X2112061Y811532D02*
G03*
X2062484Y861579I-49981J68D01*
G01*
X2061221Y483273D02*
G03*
X2113414Y534672I859J51327D01*
G01*
X1454281Y534672D02*
G03*
X1503677Y484803I49799J-72D01*
G01*
X1188790Y150110D02*
Y340110D01*
X1038790Y150110D02*
Y340110D01*
X1040130Y150110D02*
X1188790D01*
X1038790Y340110D02*
X1188790D01*
X1503574Y449149D02*
X2062484Y449580D01*
X1452880Y400031D02*
X1452880Y121922D01*
X1503677Y71850D02*
X2061210Y71850D01*
X2113280Y398782D02*
X2113280Y121922D01*
X593929Y755756D02*
X594360Y196846D01*
X266702Y806450D02*
X544811Y806450D01*
X216630Y755653D02*
X216630Y198120D01*
X266702Y146050D02*
X543562Y146050D01*
X1503574Y861899D02*
X2062484Y862330D01*
X1452880Y812781D02*
X1452880Y534672D01*
X1503677Y484600D02*
X2061210Y484600D01*
X2113280Y811532D02*
X2113280Y534672D01*
X26670Y325118D02*
X34288D01*
X36827Y327658D01*
X34288Y330197D01*
X29209D01*
X26670Y332736D01*
X29209Y335275D01*
X36827D01*
X44444Y337814D02*
Y335275D01*
X41905D01*
X46983D01*
X44444D01*
Y327658D01*
X46983Y325118D01*
X62218D02*
X57140D01*
X54601Y327658D01*
Y332736D01*
X57140Y335275D01*
X62218D01*
X64758Y332736D01*
Y330197D01*
X54601D01*
X69836Y320040D02*
Y335275D01*
X77454D01*
X79993Y332736D01*
Y327658D01*
X77454Y325118D01*
X69836D01*
X85071Y320040D02*
Y335275D01*
X92689D01*
X95228Y332736D01*
Y327658D01*
X92689Y325118D01*
X85071D01*
X107924D02*
X102845D01*
X100306Y327658D01*
Y332736D01*
X102845Y335275D01*
X107924D01*
X110463Y332736D01*
Y330197D01*
X100306D01*
X115541Y335275D02*
Y325118D01*
Y330197D01*
X118080Y332736D01*
X120620Y335275D01*
X123159D01*
X2143760Y157475D02*
Y144779D01*
X2146299Y142240D01*
X2151378D01*
X2153917Y144779D01*
Y157475D01*
X2158995Y142240D02*
Y157475D01*
X2166613D01*
X2169152Y154936D01*
Y149858D01*
X2166613Y147318D01*
X2158995D01*
X2189465Y157475D02*
Y142240D01*
X2197083D01*
X2199622Y144779D01*
Y154936D01*
X2197083Y157475D01*
X2189465D01*
X2207240Y142240D02*
X2212318D01*
X2214857Y144779D01*
Y149858D01*
X2212318Y152397D01*
X2207240D01*
X2204700Y149858D01*
Y144779D01*
X2207240Y142240D01*
X2219935Y152397D02*
Y144779D01*
X2222475Y142240D01*
X2225014Y144779D01*
X2227553Y142240D01*
X2230092Y144779D01*
Y152397D01*
X2235170Y142240D02*
Y152397D01*
X2242788D01*
X2245327Y149858D01*
Y142240D01*
X2114549Y492755D02*
X2119628D01*
X2122167Y490216D01*
Y482598D01*
X2114549D01*
X2112010Y485137D01*
X2114549Y487677D01*
X2122167D01*
X2127245Y492755D02*
Y485137D01*
X2129784Y482598D01*
X2137402D01*
Y492755D01*
X2147558Y477520D02*
X2150098D01*
X2152637Y480059D01*
Y492755D01*
X2145019D01*
X2142480Y490216D01*
Y485137D01*
X2145019Y482598D01*
X2152637D01*
X2165333D02*
X2160254D01*
X2157715Y485137D01*
Y490216D01*
X2160254Y492755D01*
X2165333D01*
X2167872Y490216D01*
Y487677D01*
X2157715D01*
X2172950Y492755D02*
Y482598D01*
Y487677D01*
X2175490Y490216D01*
X2178029Y492755D01*
X2180568D01*
X2203420Y482598D02*
X2211038D01*
X2213577Y485137D01*
X2211038Y487677D01*
X2205960D01*
X2203420Y490216D01*
X2205960Y492755D01*
X2213577D01*
X2218656Y477520D02*
Y492755D01*
X2226273D01*
X2228812Y490216D01*
Y485137D01*
X2226273Y482598D01*
X2218656D01*
X2233891D02*
X2238969D01*
X2236430D01*
Y492755D01*
X2233891D01*
X2246586Y482598D02*
Y492755D01*
X2254204D01*
X2256743Y490216D01*
Y482598D01*
X365764Y919477D02*
X363225Y916937D01*
Y911859D01*
X365764Y909320D01*
X375921D01*
X378460Y911859D01*
Y916937D01*
X375921Y919477D01*
X370843D01*
Y914398D01*
X378460Y924555D02*
X368303D01*
Y932173D01*
X370843Y934712D01*
X378460D01*
X363225Y949947D02*
X378460D01*
Y942329D01*
X375921Y939790D01*
X370843D01*
X368303Y942329D01*
Y949947D01*
X1313177Y246376D02*
X1310638Y248915D01*
X1305559D01*
X1303020Y246376D01*
Y236219D01*
X1305559Y233680D01*
X1310638D01*
X1313177Y236219D01*
Y241297D01*
X1308098D01*
X1318255Y233680D02*
Y243837D01*
X1325873D01*
X1328412Y241297D01*
Y233680D01*
X1343647Y248915D02*
Y233680D01*
X1336029D01*
X1333490Y236219D01*
Y241297D01*
X1336029Y243837D01*
X1343647D01*
X1315717Y647696D02*
X1313177Y650235D01*
X1308099D01*
X1305560Y647696D01*
Y637539D01*
X1308099Y635000D01*
X1313177D01*
X1315717Y637539D01*
Y642617D01*
X1310638D01*
X1320795Y635000D02*
Y645157D01*
X1328413D01*
X1330952Y642617D01*
Y635000D01*
X1346187Y650235D02*
Y635000D01*
X1338569D01*
X1336030Y637539D01*
Y642617D01*
X1338569Y645157D01*
X1346187D01*
X1178560Y1050285D02*
Y1040128D01*
X1183638Y1035050D01*
X1188717Y1040128D01*
Y1050285D01*
X1203952Y1045207D02*
X1196334D01*
X1193795Y1042667D01*
Y1037589D01*
X1196334Y1035050D01*
X1203952D01*
X1219187Y1045207D02*
X1211569D01*
X1209030Y1042667D01*
Y1037589D01*
X1211569Y1035050D01*
X1219187D01*
X876297Y1050286D02*
X873757Y1052825D01*
X868679D01*
X866140Y1050286D01*
Y1040129D01*
X868679Y1037590D01*
X873757D01*
X876297Y1040129D01*
Y1045208D01*
X871218D01*
X881375Y1037590D02*
Y1047747D01*
X888993D01*
X891532Y1045208D01*
Y1037590D01*
X906767Y1052825D02*
Y1037590D01*
X899149D01*
X896610Y1040129D01*
Y1045208D01*
X899149Y1047747D01*
X906767D01*
X2110740Y1567180D02*
Y1582415D01*
X2120897Y1567180D01*
Y1582415D01*
X2133593D02*
X2128514D01*
X2125975Y1579876D01*
Y1569719D01*
X2128514Y1567180D01*
X2133593D01*
X2136132Y1569719D01*
Y1579876D01*
X2133593Y1582415D01*
X1972310Y1568450D02*
Y1583685D01*
X1982467Y1568450D01*
Y1583685D01*
X1997702Y1581146D02*
X1995163Y1583685D01*
X1990084D01*
X1987545Y1581146D01*
Y1570989D01*
X1990084Y1568450D01*
X1995163D01*
X1997702Y1570989D01*
X1905000Y1568450D02*
Y1583685D01*
X1915157Y1568450D01*
Y1583685D01*
X1927853D02*
X1922774D01*
X1920235Y1581146D01*
Y1570989D01*
X1922774Y1568450D01*
X1927853D01*
X1930392Y1570989D01*
Y1581146D01*
X1927853Y1583685D01*
X1766570Y1568450D02*
Y1583685D01*
X1776727Y1568450D01*
Y1583685D01*
X1791962Y1581146D02*
X1789423Y1583685D01*
X1784344D01*
X1781805Y1581146D01*
Y1570989D01*
X1784344Y1568450D01*
X1789423D01*
X1791962Y1570989D01*
X1699260Y1568450D02*
Y1583685D01*
X1709417Y1568450D01*
Y1583685D01*
X1722113D02*
X1717034D01*
X1714495Y1581146D01*
Y1570989D01*
X1717034Y1568450D01*
X1722113D01*
X1724652Y1570989D01*
Y1581146D01*
X1722113Y1583685D01*
X1560830Y1567180D02*
Y1582415D01*
X1570987Y1567180D01*
Y1582415D01*
X1586222Y1579876D02*
X1583683Y1582415D01*
X1578604D01*
X1576065Y1579876D01*
Y1569719D01*
X1578604Y1567180D01*
X1583683D01*
X1586222Y1569719D01*
X1493520Y1567180D02*
Y1582415D01*
X1503677Y1567180D01*
Y1582415D01*
X1516373D02*
X1511294D01*
X1508755Y1579876D01*
Y1569719D01*
X1511294Y1567180D01*
X1516373D01*
X1518912Y1569719D01*
Y1579876D01*
X1516373Y1582415D01*
X1356360Y1567180D02*
Y1582415D01*
X1366517Y1567180D01*
Y1582415D01*
X1381752Y1579876D02*
X1379213Y1582415D01*
X1374134D01*
X1371595Y1579876D01*
Y1569719D01*
X1374134Y1567180D01*
X1379213D01*
X1381752Y1569719D01*
X1286510Y1567180D02*
Y1582415D01*
X1296667Y1567180D01*
Y1582415D01*
X1309363D02*
X1304284D01*
X1301745Y1579876D01*
Y1569719D01*
X1304284Y1567180D01*
X1309363D01*
X1311902Y1569719D01*
Y1579876D01*
X1309363Y1582415D01*
X1150620Y1567180D02*
Y1582415D01*
X1160777Y1567180D01*
Y1582415D01*
X1176012Y1579876D02*
X1173473Y1582415D01*
X1168394D01*
X1165855Y1579876D01*
Y1569719D01*
X1168394Y1567180D01*
X1173473D01*
X1176012Y1569719D01*
X1080770Y1567180D02*
Y1582415D01*
X1090927Y1567180D01*
Y1582415D01*
X1103623D02*
X1098544D01*
X1096005Y1579876D01*
Y1569719D01*
X1098544Y1567180D01*
X1103623D01*
X1106162Y1569719D01*
Y1579876D01*
X1103623Y1582415D01*
X942340Y1567180D02*
Y1582415D01*
X952497Y1567180D01*
Y1582415D01*
X967732Y1579876D02*
X965193Y1582415D01*
X960114D01*
X957575Y1579876D01*
Y1569719D01*
X960114Y1567180D01*
X965193D01*
X967732Y1569719D01*
X877570Y1567180D02*
Y1582415D01*
X887727Y1567180D01*
Y1582415D01*
X900423D02*
X895344D01*
X892805Y1579876D01*
Y1569719D01*
X895344Y1567180D01*
X900423D01*
X902962Y1569719D01*
Y1579876D01*
X900423Y1582415D01*
X737870Y1568450D02*
Y1583685D01*
X748027Y1568450D01*
Y1583685D01*
X763262Y1581146D02*
X760723Y1583685D01*
X755644D01*
X753105Y1581146D01*
Y1570989D01*
X755644Y1568450D01*
X760723D01*
X763262Y1570989D01*
X670560Y1568450D02*
Y1583685D01*
X680717Y1568450D01*
Y1583685D01*
X693413D02*
X688334D01*
X685795Y1581146D01*
Y1570989D01*
X688334Y1568450D01*
X693413D01*
X695952Y1570989D01*
Y1581146D01*
X693413Y1583685D01*
X529590Y1568450D02*
Y1583685D01*
X539747Y1568450D01*
Y1583685D01*
X554982Y1581146D02*
X552443Y1583685D01*
X547364D01*
X544825Y1581146D01*
Y1570989D01*
X547364Y1568450D01*
X552443D01*
X554982Y1570989D01*
X466090Y1568450D02*
Y1583685D01*
X476247Y1568450D01*
Y1583685D01*
X488943D02*
X483864D01*
X481325Y1581146D01*
Y1570989D01*
X483864Y1568450D01*
X488943D01*
X491482Y1570989D01*
Y1581146D01*
X488943Y1583685D01*
X326390Y1568450D02*
Y1583685D01*
X336547Y1568450D01*
Y1583685D01*
X351782Y1581146D02*
X349243Y1583685D01*
X344164D01*
X341625Y1581146D01*
Y1570989D01*
X344164Y1568450D01*
X349243D01*
X351782Y1570989D01*
X115570Y1568450D02*
Y1583685D01*
X125727Y1568450D01*
Y1583685D01*
X140962Y1581146D02*
X138423Y1583685D01*
X133344D01*
X130805Y1581146D01*
Y1570989D01*
X133344Y1568450D01*
X138423D01*
X140962Y1570989D01*
X264160Y1568450D02*
Y1583685D01*
X274317Y1568450D01*
Y1583685D01*
X287013D02*
X281934D01*
X279395Y1581146D01*
Y1570989D01*
X281934Y1568450D01*
X287013D01*
X289552Y1570989D01*
Y1581146D01*
X287013Y1583685D01*
X1564644Y111757D02*
X1562105Y109218D01*
Y104139D01*
X1564644Y101600D01*
X1574801D01*
X1577340Y104139D01*
Y109218D01*
X1574801Y111757D01*
X1569722D01*
Y106678D01*
X1577340Y116835D02*
X1567183D01*
Y124453D01*
X1569722Y126992D01*
X1577340D01*
X1562105Y142227D02*
X1577340D01*
Y134609D01*
X1574801Y132070D01*
X1569722D01*
X1567183Y134609D01*
Y142227D01*
X1563375Y375920D02*
X1573532D01*
X1578610Y380998D01*
X1573532Y386077D01*
X1563375D01*
X1570992Y391155D02*
Y401312D01*
X1565914Y396233D02*
X1576071D01*
X1581154Y515617D02*
X1578615Y513078D01*
Y507999D01*
X1581154Y505460D01*
X1591311D01*
X1593850Y507999D01*
Y513078D01*
X1591311Y515617D01*
X1586232D01*
Y510538D01*
X1593850Y520695D02*
X1583693D01*
Y528313D01*
X1586232Y530852D01*
X1593850D01*
X1578615Y546087D02*
X1593850D01*
Y538469D01*
X1591311Y535930D01*
X1586232D01*
X1583693Y538469D01*
Y546087D01*
X1559565Y796290D02*
X1569722D01*
X1574800Y801368D01*
X1569722Y806447D01*
X1559565D01*
X1567182Y811525D02*
Y821682D01*
X1562104Y816603D02*
X1572261D01*
X242567Y698496D02*
X240028Y701035D01*
X234949D01*
X232410Y698496D01*
Y688339D01*
X234949Y685800D01*
X240028D01*
X242567Y688339D01*
Y693418D01*
X237488D01*
X247645Y685800D02*
Y695957D01*
X255263D01*
X257802Y693418D01*
Y685800D01*
X273037Y701035D02*
Y685800D01*
X265419D01*
X262880Y688339D01*
Y693418D01*
X265419Y695957D01*
X273037D01*
X524510Y699765D02*
Y689608D01*
X529588Y684530D01*
X534667Y689608D01*
Y699765D01*
X539745Y692148D02*
X549902D01*
X544823Y697226D02*
Y687069D01*
X2128512Y934716D02*
X2125973Y937255D01*
X2120894D01*
X2118355Y934716D01*
Y924559D01*
X2120894Y922020D01*
X2125973D01*
X2128512Y924559D01*
Y929638D01*
X2123433D01*
X2133590Y922020D02*
Y932177D01*
X2141208D01*
X2143747Y929638D01*
Y922020D01*
X2158982Y937255D02*
Y922020D01*
X2151364D01*
X2148825Y924559D01*
Y929638D01*
X2151364Y932177D01*
X2158982D01*
X2113277Y961386D02*
X2110737Y963925D01*
X2105659D01*
X2103120Y961386D01*
Y951229D01*
X2105659Y948690D01*
X2110737D01*
X2113277Y951229D01*
X2118355Y948690D02*
Y958847D01*
X2123433Y963925D01*
X2128512Y958847D01*
Y948690D01*
Y956308D01*
X2118355D01*
X2133590Y948690D02*
Y963925D01*
X2143747Y948690D01*
Y963925D01*
X2148825D02*
Y948690D01*
X2158982D01*
X2113277Y1002026D02*
X2110737Y1004565D01*
X2105659D01*
X2103120Y1002026D01*
Y991869D01*
X2105659Y989330D01*
X2110737D01*
X2113277Y991869D01*
X2118355Y989330D02*
Y999487D01*
X2123433Y1004565D01*
X2128512Y999487D01*
Y989330D01*
Y996947D01*
X2118355D01*
X2133590Y989330D02*
Y1004565D01*
X2143747Y989330D01*
Y1004565D01*
X2148825D02*
Y989330D01*
Y996947D01*
X2158982D01*
Y1004565D01*
Y989330D01*
X1228090Y129540D02*
X1233168D01*
X1230629D01*
Y144775D01*
X1228090Y142236D01*
X1250943Y129540D02*
X1240786D01*
X1250943Y139697D01*
Y142236D01*
X1248403Y144775D01*
X1243325D01*
X1240786Y142236D01*
X1256021Y144775D02*
Y134618D01*
X1261099Y129540D01*
X1266178Y134618D01*
Y144775D01*
X165105Y576577D02*
Y566420D01*
X172722D01*
X170183Y571498D01*
Y574038D01*
X172722Y576577D01*
X177801D01*
X180340Y574038D01*
Y568959D01*
X177801Y566420D01*
X165105Y581655D02*
X175262D01*
X180340Y586733D01*
X175262Y591812D01*
X165105D01*
X102870Y1089654D02*
Y1074419D01*
X113027D01*
X118105D02*
X123183D01*
X120644D01*
Y1084576D01*
X118105D01*
X130801Y1074419D02*
Y1084576D01*
X133340D01*
X135879Y1082037D01*
Y1074419D01*
Y1082037D01*
X138419Y1084576D01*
X140958Y1082037D01*
Y1074419D01*
X146036D02*
X151114D01*
X148575D01*
Y1084576D01*
X146036D01*
X161271Y1087115D02*
Y1084576D01*
X158732D01*
X163810D01*
X161271D01*
Y1076958D01*
X163810Y1074419D01*
X171428Y1071880D02*
X181584D01*
X196820Y1087115D02*
X194280Y1089654D01*
X189202D01*
X186663Y1087115D01*
Y1084576D01*
X189202Y1082037D01*
X194280D01*
X196820Y1079498D01*
Y1076958D01*
X194280Y1074419D01*
X189202D01*
X186663Y1076958D01*
X201898Y1071880D02*
X212055D01*
X217133Y1074419D02*
X222211D01*
X219672D01*
Y1089654D01*
X217133Y1087115D01*
X16510Y873754D02*
Y858519D01*
X26667D01*
X31745D02*
X36823D01*
X34284D01*
Y868676D01*
X31745D01*
X44441Y858519D02*
Y868676D01*
X46980D01*
X49519Y866137D01*
Y858519D01*
Y866137D01*
X52059Y868676D01*
X54598Y866137D01*
Y858519D01*
X59676D02*
X64754D01*
X62215D01*
Y868676D01*
X59676D01*
X74911Y871215D02*
Y868676D01*
X72372D01*
X77450D01*
X74911D01*
Y861058D01*
X77450Y858519D01*
X85068Y855980D02*
X95225D01*
X110460Y871215D02*
X107920Y873754D01*
X102842D01*
X100303Y871215D01*
Y868676D01*
X102842Y866137D01*
X107920D01*
X110460Y863597D01*
Y861058D01*
X107920Y858519D01*
X102842D01*
X100303Y861058D01*
X115538Y855980D02*
X125695D01*
X140930Y858519D02*
X130773D01*
X140930Y868676D01*
Y871215D01*
X138391Y873754D01*
X133312D01*
X130773Y871215D01*
X111757Y908046D02*
X109218Y910585D01*
X104139D01*
X101600Y908046D01*
Y897889D01*
X104139Y895350D01*
X109218D01*
X111757Y897889D01*
Y902968D01*
X106678D01*
X116835Y895350D02*
Y905507D01*
X124453D01*
X126992Y902968D01*
Y895350D01*
X142227Y910585D02*
Y895350D01*
X134609D01*
X132070Y897889D01*
Y902968D01*
X134609Y905507D01*
X142227D01*
X114297Y1027426D02*
X111757Y1029965D01*
X106679D01*
X104140Y1027426D01*
Y1017269D01*
X106679Y1014730D01*
X111757D01*
X114297Y1017269D01*
Y1022347D01*
X109218D01*
X119375Y1014730D02*
Y1024887D01*
X126993D01*
X129532Y1022347D01*
Y1014730D01*
X144767Y1029965D02*
Y1014730D01*
X137149D01*
X134610Y1017269D01*
Y1022347D01*
X137149Y1024887D01*
X144767D01*
X685798Y590550D02*
X688337D01*
X690877Y593089D01*
Y605785D01*
X683259D01*
X680720Y603246D01*
Y598167D01*
X683259Y595628D01*
X690877D01*
X695955D02*
Y605785D01*
X703573D01*
X706112Y603246D01*
Y595628D01*
X721347Y610863D02*
Y595628D01*
X713729D01*
X711190Y598167D01*
Y603246D01*
X713729Y605785D01*
X721347D01*
X680720Y579115D02*
Y568958D01*
X685798Y563880D01*
X690877Y568958D01*
Y579115D01*
X695955Y563880D02*
X701033D01*
X698494D01*
Y574037D01*
X695955D01*
X708651Y563880D02*
Y574037D01*
X716268D01*
X718808Y571497D01*
Y563880D01*
X666750Y429255D02*
Y419098D01*
X671828Y414020D01*
X676907Y419098D01*
Y429255D01*
X681985Y414020D02*
Y429255D01*
X687063Y424177D01*
X692142Y429255D01*
Y414020D01*
X699759D02*
X704838D01*
X707377Y416559D01*
Y421637D01*
X704838Y424177D01*
X699759D01*
X697220Y421637D01*
Y416559D01*
X699759Y414020D01*
X714994Y426716D02*
Y424177D01*
X712455D01*
X717534D01*
X714994D01*
Y416559D01*
X717534Y414020D01*
X1236980Y688335D02*
Y678178D01*
X1242058Y673100D01*
X1247137Y678178D01*
Y688335D01*
X1252215Y673100D02*
X1257293D01*
X1254754D01*
Y683257D01*
X1252215D01*
X1264911Y673100D02*
Y683257D01*
X1272529D01*
X1275068Y680717D01*
Y673100D01*
X1543050Y1032505D02*
Y1022348D01*
X1548128Y1017270D01*
X1553207Y1022348D01*
Y1032505D01*
X1568442Y1027427D02*
X1560824D01*
X1558285Y1024887D01*
Y1019809D01*
X1560824Y1017270D01*
X1568442D01*
X1583677Y1027427D02*
X1576059D01*
X1573520Y1024887D01*
Y1019809D01*
X1576059Y1017270D01*
X1583677D01*
X755648Y982980D02*
X758187D01*
X760727Y985519D01*
Y998215D01*
X753109D01*
X750570Y995676D01*
Y990598D01*
X753109Y988058D01*
X760727D01*
X765805D02*
Y998215D01*
X773423D01*
X775962Y995676D01*
Y988058D01*
X791197Y1003293D02*
Y988058D01*
X783579D01*
X781040Y990598D01*
Y995676D01*
X783579Y998215D01*
X791197D01*
X988074Y1082037D02*
Y1066802D01*
X995692D01*
X998231Y1069341D01*
Y1071880D01*
X995692Y1074419D01*
X988074D01*
X995692D01*
X998231Y1076958D01*
Y1079498D01*
X995692Y1082037D01*
X988074D01*
X1005848Y1076958D02*
X1010927D01*
X1013466Y1074419D01*
Y1066802D01*
X1005848D01*
X1003309Y1069341D01*
X1005848Y1071880D01*
X1013466D01*
X1028701Y1076958D02*
X1021083D01*
X1018544Y1074419D01*
Y1069341D01*
X1021083Y1066802D01*
X1028701D01*
X1033779D02*
Y1082037D01*
Y1071880D02*
X1041397Y1076958D01*
X1033779Y1071880D02*
X1041397Y1066802D01*
X1049014Y1076958D02*
Y1069341D01*
X1051553Y1066802D01*
X1059171D01*
Y1076958D01*
X1064249Y1061723D02*
Y1076958D01*
X1071867D01*
X1074406Y1074419D01*
Y1069341D01*
X1071867Y1066802D01*
X1064249D01*
X1294136Y201928D02*
Y186693D01*
X1301754D01*
X1304293Y189232D01*
Y199388D01*
X1301754Y201928D01*
X1294136D01*
X1309371Y186693D02*
X1314450D01*
X1311910D01*
Y201928D01*
X1309371Y199388D01*
X1322067D02*
X1324606Y201928D01*
X1329685D01*
X1332224Y199388D01*
Y196849D01*
X1329685Y194310D01*
X1332224Y191771D01*
Y189232D01*
X1329685Y186693D01*
X1324606D01*
X1322067Y189232D01*
Y191771D01*
X1324606Y194310D01*
X1322067Y196849D01*
Y199388D01*
X1324606Y194310D02*
X1329685D01*
X31754Y104143D02*
Y114299D01*
X34293D01*
X36832Y111760D01*
Y104143D01*
Y111760D01*
X39372Y114299D01*
X41911Y111760D01*
Y104143D01*
X46989Y119377D02*
Y104143D01*
Y111760D01*
X49528Y114299D01*
X54607D01*
X57146Y111760D01*
Y104143D01*
X2199644Y100332D02*
Y110489D01*
X2202183D01*
X2204722Y107950D01*
Y100332D01*
Y107950D01*
X2207262Y110489D01*
X2209801Y107950D01*
Y100332D01*
X2214879Y115568D02*
Y100332D01*
Y107950D01*
X2217418Y110489D01*
X2222497D01*
X2225036Y107950D01*
Y100332D01*
X2198374Y1488443D02*
Y1498599D01*
X2200913D01*
X2203452Y1496060D01*
Y1488443D01*
Y1496060D01*
X2205992Y1498599D01*
X2208531Y1496060D01*
Y1488443D01*
X2213609Y1503678D02*
Y1488443D01*
Y1496060D01*
X2216148Y1498599D01*
X2221227D01*
X2223766Y1496060D01*
Y1488443D01*
X43184Y1475742D02*
Y1485899D01*
X45723D01*
X48263Y1483360D01*
Y1475742D01*
Y1483360D01*
X50802Y1485899D01*
X53341Y1483360D01*
Y1475742D01*
X58419Y1490977D02*
Y1475742D01*
Y1483360D01*
X60958Y1485899D01*
X66037D01*
X68576Y1483360D01*
Y1475742D01*
X2180841Y1022347D02*
X2173223D01*
X2170684Y1019808D01*
Y1014729D01*
X2173223Y1012190D01*
X2180841D01*
X2188458Y1022347D02*
X2193537D01*
X2196076Y1019808D01*
Y1012190D01*
X2188458D01*
X2185919Y1014729D01*
X2188458Y1017268D01*
X2196076D01*
X2201154Y1012190D02*
Y1022347D01*
X2208772D01*
X2211311Y1019808D01*
Y1012190D01*
X1681487Y1010922D02*
Y1026158D01*
X1689104D01*
X1691643Y1023618D01*
Y1018540D01*
X1689104Y1016001D01*
X1681487D01*
X1686565D02*
X1691643Y1010922D01*
X1706878D02*
X1696722D01*
X1706878Y1021079D01*
Y1023618D01*
X1704339Y1026158D01*
X1699261D01*
X1696722Y1023618D01*
X1711957Y1013462D02*
X1714496Y1010922D01*
X1719574D01*
X1722113Y1013462D01*
Y1023618D01*
X1719574Y1026158D01*
X1714496D01*
X1711957Y1023618D01*
Y1021079D01*
X1714496Y1018540D01*
X1722113D01*
X1151379Y145029D02*
X1146300D01*
X1148839D01*
Y132333D01*
X1146300Y129794D01*
X1143761D01*
X1141222Y132333D01*
X1166614Y129794D02*
X1156457D01*
X1166614Y139951D01*
Y142490D01*
X1164075Y145029D01*
X1158996D01*
X1156457Y142490D01*
X1433830Y445766D02*
X1436369Y448305D01*
X1441447D01*
X1443987Y445766D01*
Y443227D01*
X1441447Y440687D01*
X1438908D01*
X1441447D01*
X1443987Y438148D01*
Y435609D01*
X1441447Y433070D01*
X1436369D01*
X1433830Y435609D01*
X206499Y789940D02*
X196342D01*
X206499Y800097D01*
Y802636D01*
X203960Y805175D01*
X198881D01*
X196342Y802636D01*
X1438910Y845820D02*
X1443988D01*
X1441449D01*
Y861055D01*
X1438910Y858516D01*
X300996Y59693D02*
Y74928D01*
X308614D01*
X311153Y72388D01*
Y67310D01*
X308614Y64771D01*
X300996D01*
X316231Y59693D02*
X321310D01*
X318770D01*
Y74928D01*
X316231Y72388D01*
X328927D02*
X331466Y74928D01*
X336545D01*
X339084Y72388D01*
Y69849D01*
X336545Y67310D01*
X339084Y64771D01*
Y62232D01*
X336545Y59693D01*
X331466D01*
X328927Y62232D01*
Y64771D01*
X331466Y67310D01*
X328927Y69849D01*
Y72388D01*
X331466Y67310D02*
X336545D01*
X2158492Y284734D02*
Y299969D01*
X2166109D01*
X2168649Y297430D01*
Y292351D01*
X2166109Y289812D01*
X2158492D01*
X2173727Y284734D02*
X2178805D01*
X2176266D01*
Y299969D01*
X2173727Y297430D01*
X2186423Y299969D02*
X2196580D01*
Y297430D01*
X2186423Y287273D01*
Y284734D01*
X737869Y134622D02*
X748026D01*
Y142240D01*
X742947D01*
X748026D01*
Y149858D01*
X722634D02*
X732791D01*
X722634Y139701D01*
Y137162D01*
X725173Y134622D01*
X730252D01*
X732791Y137162D01*
X675214Y320037D02*
Y304802D01*
X682832D01*
X685371Y307342D01*
Y317498D01*
X682832Y320037D01*
X675214D01*
X690449Y317498D02*
X692988Y320037D01*
X698067D01*
X700606Y317498D01*
Y314959D01*
X698067Y312420D01*
X695527D01*
X698067D01*
X700606Y309881D01*
Y307342D01*
X698067Y304802D01*
X692988D01*
X690449Y307342D01*
X705684D02*
X708223Y304802D01*
X713302D01*
X715841Y307342D01*
Y317498D01*
X713302Y320037D01*
X708223D01*
X705684Y317498D01*
Y314959D01*
X708223Y312420D01*
X715841D01*
X2043435Y1291588D02*
X2040896Y1294128D01*
X2035818D01*
X2033279Y1291588D01*
Y1289049D01*
X2035818Y1286510D01*
X2040896D01*
X2043435Y1283971D01*
Y1281432D01*
X2040896Y1278893D01*
X2035818D01*
X2033279Y1281432D01*
X2048514Y1294128D02*
Y1278893D01*
X2053592Y1283971D01*
X2058670Y1278893D01*
Y1294128D01*
X2063749Y1278893D02*
X2068827D01*
X2066288D01*
Y1294128D01*
X2063749Y1291588D01*
X2076445D02*
X2078984Y1294128D01*
X2084062D01*
X2086601Y1291588D01*
Y1281432D01*
X2084062Y1278893D01*
X2078984D01*
X2076445Y1281432D01*
Y1291588D01*
X1833883Y1290318D02*
X1831344Y1292858D01*
X1826266D01*
X1823727Y1290318D01*
Y1287779D01*
X1826266Y1285240D01*
X1831344D01*
X1833883Y1282701D01*
Y1280162D01*
X1831344Y1277623D01*
X1826266D01*
X1823727Y1280162D01*
X1838962Y1292858D02*
Y1277623D01*
X1844040Y1282701D01*
X1849118Y1277623D01*
Y1292858D01*
X1854197Y1280162D02*
X1856736Y1277623D01*
X1861814D01*
X1864353Y1280162D01*
Y1290318D01*
X1861814Y1292858D01*
X1856736D01*
X1854197Y1290318D01*
Y1287779D01*
X1856736Y1285240D01*
X1864353D01*
X1358903Y1287778D02*
X1356364Y1290318D01*
X1351286D01*
X1348747Y1287778D01*
Y1285239D01*
X1351286Y1282700D01*
X1356364D01*
X1358903Y1280161D01*
Y1277622D01*
X1356364Y1275082D01*
X1351286D01*
X1348747Y1277622D01*
X1363982Y1290318D02*
Y1275082D01*
X1369060Y1280161D01*
X1374138Y1275082D01*
Y1290318D01*
X1379217D02*
X1389373D01*
Y1287778D01*
X1379217Y1277622D01*
Y1275082D01*
X1131573Y1287778D02*
X1129034Y1290318D01*
X1123956D01*
X1121417Y1287778D01*
Y1285239D01*
X1123956Y1282700D01*
X1129034D01*
X1131573Y1280161D01*
Y1277622D01*
X1129034Y1275082D01*
X1123956D01*
X1121417Y1277622D01*
X1136652Y1290318D02*
Y1275082D01*
X1141730Y1280161D01*
X1146808Y1275082D01*
Y1290318D01*
X1162043D02*
X1156965Y1287778D01*
X1151887Y1282700D01*
Y1277622D01*
X1154426Y1275082D01*
X1159504D01*
X1162043Y1277622D01*
Y1280161D01*
X1159504Y1282700D01*
X1151887D01*
X942343Y1285238D02*
X939804Y1287778D01*
X934726D01*
X932187Y1285238D01*
Y1282699D01*
X934726Y1280160D01*
X939804D01*
X942343Y1277621D01*
Y1275082D01*
X939804Y1272542D01*
X934726D01*
X932187Y1275082D01*
X947422Y1287778D02*
Y1272542D01*
X952500Y1277621D01*
X957578Y1272542D01*
Y1287778D01*
X972813D02*
X962657D01*
Y1280160D01*
X967735Y1282699D01*
X970274D01*
X972813Y1280160D01*
Y1275082D01*
X970274Y1272542D01*
X965196D01*
X962657Y1275082D01*
X779783Y1291588D02*
X777244Y1294128D01*
X772166D01*
X769627Y1291588D01*
Y1289049D01*
X772166Y1286510D01*
X777244D01*
X779783Y1283971D01*
Y1281432D01*
X777244Y1278893D01*
X772166D01*
X769627Y1281432D01*
X784862Y1294128D02*
Y1278893D01*
X789940Y1283971D01*
X795018Y1278893D01*
Y1294128D01*
X807714Y1278893D02*
Y1294128D01*
X800097Y1286510D01*
X810253D01*
X525783Y1285238D02*
X523244Y1287778D01*
X518166D01*
X515627Y1285238D01*
Y1282699D01*
X518166Y1280160D01*
X523244D01*
X525783Y1277621D01*
Y1275082D01*
X523244Y1272542D01*
X518166D01*
X515627Y1275082D01*
X530862Y1287778D02*
Y1272542D01*
X535940Y1277621D01*
X541018Y1272542D01*
Y1287778D01*
X546097Y1285238D02*
X548636Y1287778D01*
X553714D01*
X556253Y1285238D01*
Y1282699D01*
X553714Y1280160D01*
X551175D01*
X553714D01*
X556253Y1277621D01*
Y1275082D01*
X553714Y1272542D01*
X548636D01*
X546097Y1275082D01*
X314963Y1287778D02*
X312424Y1290318D01*
X307346D01*
X304807Y1287778D01*
Y1285239D01*
X307346Y1282700D01*
X312424D01*
X314963Y1280161D01*
Y1277622D01*
X312424Y1275082D01*
X307346D01*
X304807Y1277622D01*
X320042Y1290318D02*
Y1275082D01*
X325120Y1280161D01*
X330198Y1275082D01*
Y1290318D01*
X345433Y1275082D02*
X335277D01*
X345433Y1285239D01*
Y1287778D01*
X342894Y1290318D01*
X337816D01*
X335277Y1287778D01*
X110492Y1280158D02*
X107953Y1282697D01*
X102875D01*
X100336Y1280158D01*
Y1277619D01*
X102875Y1275080D01*
X107953D01*
X110492Y1272541D01*
Y1270002D01*
X107953Y1267462D01*
X102875D01*
X100336Y1270002D01*
X115571Y1282697D02*
Y1267462D01*
X120649Y1272541D01*
X125728Y1267462D01*
Y1282697D01*
X130806Y1267462D02*
X135884D01*
X133345D01*
Y1282697D01*
X130806Y1280158D01*
X1634493Y1291588D02*
X1631954Y1294128D01*
X1626876D01*
X1624337Y1291588D01*
Y1289049D01*
X1626876Y1286510D01*
X1631954D01*
X1634493Y1283971D01*
Y1281432D01*
X1631954Y1278893D01*
X1626876D01*
X1624337Y1281432D01*
X1639572Y1294128D02*
Y1278893D01*
X1644650Y1283971D01*
X1649728Y1278893D01*
Y1294128D01*
X1654807Y1291588D02*
X1657346Y1294128D01*
X1662424D01*
X1664963Y1291588D01*
Y1289049D01*
X1662424Y1286510D01*
X1664963Y1283971D01*
Y1281432D01*
X1662424Y1278893D01*
X1657346D01*
X1654807Y1281432D01*
Y1283971D01*
X1657346Y1286510D01*
X1654807Y1289049D01*
Y1291588D01*
X1657346Y1286510D02*
X1662424D01*
X1000760Y570228D02*
X990603D01*
Y562610D01*
X995682D01*
X990603D01*
Y554992D01*
X1005838D02*
X1010917D01*
X1008378D01*
Y570228D01*
X1005838Y567688D01*
X857254Y636268D02*
Y623572D01*
X859793Y621032D01*
X864872D01*
X867411Y623572D01*
Y636268D01*
X882646Y621032D02*
X872489D01*
X882646Y631189D01*
Y633728D01*
X880107Y636268D01*
X875028D01*
X872489Y633728D01*
X1380497Y152402D02*
Y167638D01*
X1388114D01*
X1390653Y165098D01*
Y160020D01*
X1388114Y157481D01*
X1380497D01*
X1385575D02*
X1390653Y152402D01*
X1405888D02*
X1395732D01*
X1405888Y162559D01*
Y165098D01*
X1403349Y167638D01*
X1398271D01*
X1395732Y165098D01*
X1410967D02*
X1413506Y167638D01*
X1418584D01*
X1421123Y165098D01*
Y162559D01*
X1418584Y160020D01*
X1421123Y157481D01*
Y154942D01*
X1418584Y152402D01*
X1413506D01*
X1410967Y154942D01*
Y157481D01*
X1413506Y160020D01*
X1410967Y162559D01*
Y165098D01*
X1413506Y160020D02*
X1418584D01*
X1384307Y373382D02*
Y388618D01*
X1391924D01*
X1394463Y386078D01*
Y381000D01*
X1391924Y378461D01*
X1384307D01*
X1389385D02*
X1394463Y373382D01*
X1409698D02*
X1399542D01*
X1409698Y383539D01*
Y386078D01*
X1407159Y388618D01*
X1402081D01*
X1399542Y386078D01*
X1414777Y388618D02*
X1424933D01*
Y386078D01*
X1414777Y375922D01*
Y373382D01*
X547368Y914286D02*
X532132D01*
Y921904D01*
X534672Y924443D01*
X539750D01*
X542289Y921904D01*
Y914286D01*
Y919365D02*
X547368Y924443D01*
Y939678D02*
Y929522D01*
X537211Y939678D01*
X534672D01*
X532132Y937139D01*
Y932061D01*
X534672Y929522D01*
X532132Y954913D02*
X534672Y949835D01*
X539750Y944757D01*
X544828D01*
X547368Y947296D01*
Y952374D01*
X544828Y954913D01*
X542289D01*
X539750Y952374D01*
Y944757D01*
X285748Y913137D02*
X270513D01*
Y920754D01*
X273052Y923293D01*
X278130D01*
X280669Y920754D01*
Y913137D01*
Y918215D02*
X285748Y923293D01*
Y938528D02*
Y928372D01*
X275591Y938528D01*
X273052D01*
X270513Y935989D01*
Y930911D01*
X273052Y928372D01*
X270513Y953763D02*
Y943607D01*
X278130D01*
X275591Y948685D01*
Y951224D01*
X278130Y953763D01*
X283208D01*
X285748Y951224D01*
Y946146D01*
X283208Y943607D01*
X1304297Y775973D02*
Y791208D01*
X1311914D01*
X1314453Y788668D01*
Y783590D01*
X1311914Y781051D01*
X1304297D01*
X1309375D02*
X1314453Y775973D01*
X1329688D02*
X1319532D01*
X1329688Y786129D01*
Y788668D01*
X1327149Y791208D01*
X1322071D01*
X1319532Y788668D01*
X1342384Y775973D02*
Y791208D01*
X1334767Y783590D01*
X1344923D01*
X1303147Y554992D02*
Y570228D01*
X1310764D01*
X1313303Y567688D01*
Y562610D01*
X1310764Y560071D01*
X1303147D01*
X1308225D02*
X1313303Y554992D01*
X1328538D02*
X1318382D01*
X1328538Y565149D01*
Y567688D01*
X1325999Y570228D01*
X1320921D01*
X1318382Y567688D01*
X1333617D02*
X1336156Y570228D01*
X1341234D01*
X1343773Y567688D01*
Y565149D01*
X1341234Y562610D01*
X1338695D01*
X1341234D01*
X1343773Y560071D01*
Y557532D01*
X1341234Y554992D01*
X1336156D01*
X1333617Y557532D01*
X1746386Y999492D02*
Y1014727D01*
X1754004D01*
X1756543Y1012188D01*
Y1007110D01*
X1754004Y1004571D01*
X1746386D01*
X1761621Y999492D02*
X1766700D01*
X1764160D01*
Y1014727D01*
X1761621Y1012188D01*
X1784474Y1014727D02*
X1779395Y1012188D01*
X1774317Y1007110D01*
Y1002032D01*
X1776856Y999492D01*
X1781935D01*
X1784474Y1002032D01*
Y1004571D01*
X1781935Y1007110D01*
X1774317D01*
X1484884Y1024636D02*
Y1039871D01*
X1492502D01*
X1495041Y1037332D01*
Y1032253D01*
X1492502Y1029714D01*
X1484884D01*
X1500119Y1024636D02*
X1505197D01*
X1502658D01*
Y1039871D01*
X1500119Y1037332D01*
X1522972Y1039871D02*
X1512815D01*
Y1032253D01*
X1517893Y1034793D01*
X1520432D01*
X1522972Y1032253D01*
Y1027175D01*
X1520432Y1024636D01*
X1515354D01*
X1512815Y1027175D01*
X2125987Y1187448D02*
Y1172213D01*
X2133604D01*
X2136143Y1174752D01*
Y1184908D01*
X2133604Y1187448D01*
X2125987D01*
X2141222Y1184908D02*
X2143761Y1187448D01*
X2148839D01*
X2151378Y1184908D01*
Y1182369D01*
X2148839Y1179830D01*
X2146300D01*
X2148839D01*
X2151378Y1177291D01*
Y1174752D01*
X2148839Y1172213D01*
X2143761D01*
X2141222Y1174752D01*
X2156457Y1184908D02*
X2158996Y1187448D01*
X2164074D01*
X2166613Y1184908D01*
Y1182369D01*
X2164074Y1179830D01*
X2166613Y1177291D01*
Y1174752D01*
X2164074Y1172213D01*
X2158996D01*
X2156457Y1174752D01*
Y1177291D01*
X2158996Y1179830D01*
X2156457Y1182369D01*
Y1184908D01*
X2158996Y1179830D02*
X2164074D01*
X1767847Y1179827D02*
Y1164593D01*
X1775464D01*
X1778003Y1167132D01*
Y1177288D01*
X1775464Y1179827D01*
X1767847D01*
X1783082Y1177288D02*
X1785621Y1179827D01*
X1790699D01*
X1793238Y1177288D01*
Y1174749D01*
X1790699Y1172210D01*
X1788160D01*
X1790699D01*
X1793238Y1169671D01*
Y1167132D01*
X1790699Y1164593D01*
X1785621D01*
X1783082Y1167132D01*
X1798317Y1179827D02*
X1808473D01*
Y1177288D01*
X1798317Y1167132D01*
Y1164593D01*
X1559567Y1179827D02*
Y1164593D01*
X1567184D01*
X1569723Y1167132D01*
Y1177288D01*
X1567184Y1179827D01*
X1559567D01*
X1574802Y1177288D02*
X1577341Y1179827D01*
X1582419D01*
X1584958Y1177288D01*
Y1174749D01*
X1582419Y1172210D01*
X1579880D01*
X1582419D01*
X1584958Y1169671D01*
Y1167132D01*
X1582419Y1164593D01*
X1577341D01*
X1574802Y1167132D01*
X1600193Y1179827D02*
X1595115Y1177288D01*
X1590037Y1172210D01*
Y1167132D01*
X1592576Y1164593D01*
X1597654D01*
X1600193Y1167132D01*
Y1169671D01*
X1597654Y1172210D01*
X1590037D01*
X1485907Y1179827D02*
Y1164593D01*
X1493524D01*
X1496063Y1167132D01*
Y1177288D01*
X1493524Y1179827D01*
X1485907D01*
X1501142Y1177288D02*
X1503681Y1179827D01*
X1508759D01*
X1511298Y1177288D01*
Y1174749D01*
X1508759Y1172210D01*
X1506220D01*
X1508759D01*
X1511298Y1169671D01*
Y1167132D01*
X1508759Y1164593D01*
X1503681D01*
X1501142Y1167132D01*
X1526533Y1179827D02*
X1516377D01*
Y1172210D01*
X1521455Y1174749D01*
X1523994D01*
X1526533Y1172210D01*
Y1167132D01*
X1523994Y1164593D01*
X1518916D01*
X1516377Y1167132D01*
X1264927Y1177288D02*
Y1162053D01*
X1272544D01*
X1275083Y1164592D01*
Y1174748D01*
X1272544Y1177288D01*
X1264927D01*
X1280162Y1174748D02*
X1282701Y1177288D01*
X1287779D01*
X1290318Y1174748D01*
Y1172209D01*
X1287779Y1169670D01*
X1285240D01*
X1287779D01*
X1290318Y1167131D01*
Y1164592D01*
X1287779Y1162053D01*
X1282701D01*
X1280162Y1164592D01*
X1303014Y1162053D02*
Y1177288D01*
X1295397Y1169670D01*
X1305553D01*
X1068077Y1177288D02*
Y1162053D01*
X1075694D01*
X1078233Y1164592D01*
Y1174748D01*
X1075694Y1177288D01*
X1068077D01*
X1083312Y1174748D02*
X1085851Y1177288D01*
X1090929D01*
X1093468Y1174748D01*
Y1172209D01*
X1090929Y1169670D01*
X1088390D01*
X1090929D01*
X1093468Y1167131D01*
Y1164592D01*
X1090929Y1162053D01*
X1085851D01*
X1083312Y1164592D01*
X1098547Y1174748D02*
X1101086Y1177288D01*
X1106164D01*
X1108703Y1174748D01*
Y1172209D01*
X1106164Y1169670D01*
X1103625D01*
X1106164D01*
X1108703Y1167131D01*
Y1164592D01*
X1106164Y1162053D01*
X1101086D01*
X1098547Y1164592D01*
X857257Y1176018D02*
Y1160782D01*
X864874D01*
X867413Y1163322D01*
Y1173478D01*
X864874Y1176018D01*
X857257D01*
X872492Y1173478D02*
X875031Y1176018D01*
X880109D01*
X882648Y1173478D01*
Y1170939D01*
X880109Y1168400D01*
X877570D01*
X880109D01*
X882648Y1165861D01*
Y1163322D01*
X880109Y1160782D01*
X875031D01*
X872492Y1163322D01*
X897883Y1160782D02*
X887727D01*
X897883Y1170939D01*
Y1173478D01*
X895344Y1176018D01*
X890266D01*
X887727Y1173478D01*
X651516Y1170938D02*
Y1155703D01*
X659133D01*
X661673Y1158242D01*
Y1168398D01*
X659133Y1170938D01*
X651516D01*
X666751Y1168398D02*
X669290Y1170938D01*
X674368D01*
X676908Y1168398D01*
Y1165859D01*
X674368Y1163320D01*
X671829D01*
X674368D01*
X676908Y1160781D01*
Y1158242D01*
X674368Y1155703D01*
X669290D01*
X666751Y1158242D01*
X681986Y1155703D02*
X687064D01*
X684525D01*
Y1170938D01*
X681986Y1168398D01*
X447047Y1172207D02*
Y1156973D01*
X454664D01*
X457203Y1159512D01*
Y1169668D01*
X454664Y1172207D01*
X447047D01*
X462282Y1169668D02*
X464821Y1172207D01*
X469899D01*
X472438Y1169668D01*
Y1167129D01*
X469899Y1164590D01*
X467360D01*
X469899D01*
X472438Y1162051D01*
Y1159512D01*
X469899Y1156973D01*
X464821D01*
X462282Y1159512D01*
X477517Y1169668D02*
X480056Y1172207D01*
X485134D01*
X487673Y1169668D01*
Y1159512D01*
X485134Y1156973D01*
X480056D01*
X477517Y1159512D01*
Y1169668D01*
X300992Y914407D02*
X316227D01*
Y922024D01*
X313688Y924563D01*
X303532D01*
X300992Y922024D01*
Y914407D01*
X316227Y939798D02*
Y929642D01*
X306071Y939798D01*
X303532D01*
X300992Y937259D01*
Y932181D01*
X303532Y929642D01*
X313688Y944877D02*
X316227Y947416D01*
Y952494D01*
X313688Y955033D01*
X303532D01*
X300992Y952494D01*
Y947416D01*
X303532Y944877D01*
X306071D01*
X308610Y947416D01*
Y955033D01*
X231147Y1172207D02*
Y1156973D01*
X238764D01*
X241303Y1159512D01*
Y1169668D01*
X238764Y1172207D01*
X231147D01*
X256538Y1156973D02*
X246382D01*
X256538Y1167129D01*
Y1169668D01*
X253999Y1172207D01*
X248921D01*
X246382Y1169668D01*
X261617D02*
X264156Y1172207D01*
X269234D01*
X271773Y1169668D01*
Y1167129D01*
X269234Y1164590D01*
X271773Y1162051D01*
Y1159512D01*
X269234Y1156973D01*
X264156D01*
X261617Y1159512D01*
Y1162051D01*
X264156Y1164590D01*
X261617Y1167129D01*
Y1169668D01*
X264156Y1164590D02*
X269234D01*
X2158492Y632714D02*
Y647949D01*
X2166109D01*
X2168649Y645410D01*
Y640331D01*
X2166109Y637792D01*
X2158492D01*
X2173727Y632714D02*
X2178805D01*
X2176266D01*
Y647949D01*
X2173727Y645410D01*
X2194041Y632714D02*
Y647949D01*
X2186423Y640331D01*
X2196580D01*
X62236Y821693D02*
Y836927D01*
X69854D01*
X72393Y834388D01*
Y829310D01*
X69854Y826771D01*
X62236D01*
X77471Y821693D02*
X82550D01*
X80010D01*
Y836927D01*
X77471Y834388D01*
X90167D02*
X92706Y836927D01*
X97785D01*
X100324Y834388D01*
Y831849D01*
X97785Y829310D01*
X95246D01*
X97785D01*
X100324Y826771D01*
Y824232D01*
X97785Y821693D01*
X92706D01*
X90167Y824232D01*
X1936756Y1535432D02*
Y1550668D01*
X1944374D01*
X1946913Y1548128D01*
Y1543050D01*
X1944374Y1540511D01*
X1936756D01*
X1951991Y1535432D02*
X1957070D01*
X1954530D01*
Y1550668D01*
X1951991Y1548128D01*
X1974844Y1535432D02*
X1964687D01*
X1974844Y1545589D01*
Y1548128D01*
X1972305Y1550668D01*
X1967226D01*
X1964687Y1548128D01*
X10922Y1117854D02*
Y1133089D01*
X18540D01*
X21079Y1130550D01*
Y1125471D01*
X18540Y1122932D01*
X10922D01*
X26157Y1117854D02*
X31235D01*
X28696D01*
Y1133089D01*
X26157Y1130550D01*
X38853Y1117854D02*
X43931D01*
X41392D01*
Y1133089D01*
X38853Y1130550D01*
X1731016Y1531622D02*
Y1546857D01*
X1738634D01*
X1741173Y1544318D01*
Y1539240D01*
X1738634Y1536701D01*
X1731016D01*
X1746251Y1531622D02*
X1751330D01*
X1748790D01*
Y1546857D01*
X1746251Y1544318D01*
X1758947D02*
X1761486Y1546857D01*
X1766565D01*
X1769104Y1544318D01*
Y1534162D01*
X1766565Y1531622D01*
X1761486D01*
X1758947Y1534162D01*
Y1544318D01*
X32004Y474726D02*
Y489961D01*
X39622D01*
X42161Y487422D01*
Y482343D01*
X39622Y479804D01*
X32004D01*
X47239Y477265D02*
X49778Y474726D01*
X54857D01*
X57396Y477265D01*
Y487422D01*
X54857Y489961D01*
X49778D01*
X47239Y487422D01*
Y484883D01*
X49778Y482343D01*
X57396D01*
X1535434Y1531622D02*
Y1546857D01*
X1543052D01*
X1545591Y1544318D01*
Y1539240D01*
X1543052Y1536701D01*
X1535434D01*
X1550669Y1544318D02*
X1553208Y1546857D01*
X1558287D01*
X1560826Y1544318D01*
Y1541779D01*
X1558287Y1539240D01*
X1560826Y1536701D01*
Y1534162D01*
X1558287Y1531622D01*
X1553208D01*
X1550669Y1534162D01*
Y1536701D01*
X1553208Y1539240D01*
X1550669Y1541779D01*
Y1544318D01*
X1553208Y1539240D02*
X1558287D01*
X1332234Y1522733D02*
Y1537968D01*
X1339852D01*
X1342391Y1535428D01*
Y1530350D01*
X1339852Y1527811D01*
X1332234D01*
X1347469Y1537968D02*
X1357626D01*
Y1535428D01*
X1347469Y1525272D01*
Y1522733D01*
X1135384Y1539243D02*
Y1554478D01*
X1143002D01*
X1145541Y1551938D01*
Y1546860D01*
X1143002Y1544321D01*
X1135384D01*
X1160776Y1554478D02*
X1155697Y1551938D01*
X1150619Y1546860D01*
Y1541782D01*
X1153158Y1539243D01*
X1158237D01*
X1160776Y1541782D01*
Y1544321D01*
X1158237Y1546860D01*
X1150619D01*
X919484Y1527812D02*
Y1543047D01*
X927102D01*
X929641Y1540508D01*
Y1535430D01*
X927102Y1532891D01*
X919484D01*
X944876Y1543047D02*
X934719D01*
Y1535430D01*
X939798Y1537969D01*
X942337D01*
X944876Y1535430D01*
Y1530352D01*
X942337Y1527812D01*
X937258D01*
X934719Y1530352D01*
X727714Y1545592D02*
Y1560827D01*
X735332D01*
X737871Y1558288D01*
Y1553210D01*
X735332Y1550671D01*
X727714D01*
X750567Y1545592D02*
Y1560827D01*
X742949Y1553210D01*
X753106D01*
X516894Y1530352D02*
Y1545587D01*
X524512D01*
X527051Y1543048D01*
Y1537970D01*
X524512Y1535431D01*
X516894D01*
X532129Y1543048D02*
X534668Y1545587D01*
X539747D01*
X542286Y1543048D01*
Y1540509D01*
X539747Y1537970D01*
X537207D01*
X539747D01*
X542286Y1535431D01*
Y1532892D01*
X539747Y1530352D01*
X534668D01*
X532129Y1532892D01*
X321314Y1512572D02*
Y1527807D01*
X328932D01*
X331471Y1525268D01*
Y1520190D01*
X328932Y1517651D01*
X321314D01*
X346706Y1512572D02*
X336549D01*
X346706Y1522729D01*
Y1525268D01*
X344167Y1527807D01*
X339088D01*
X336549Y1525268D01*
X101603Y1499872D02*
Y1515108D01*
X109221D01*
X111760Y1512568D01*
Y1507490D01*
X109221Y1504951D01*
X101603D01*
X116838Y1499872D02*
X121917D01*
X119378D01*
Y1515108D01*
X116838Y1512568D01*
X1958346Y1513837D02*
Y1498602D01*
Y1503681D01*
X1968503Y1513837D01*
X1960885Y1506220D01*
X1968503Y1498602D01*
X1973581D02*
X1978660D01*
X1976120D01*
Y1513837D01*
X1973581Y1511298D01*
X1986277D02*
X1988816Y1513837D01*
X1993895D01*
X1996434Y1511298D01*
Y1501142D01*
X1993895Y1498602D01*
X1988816D01*
X1986277Y1501142D01*
Y1511298D01*
X1762506Y1514343D02*
Y1499108D01*
Y1504186D01*
X1772663Y1514343D01*
X1765045Y1506725D01*
X1772663Y1499108D01*
X1777741Y1501647D02*
X1780280Y1499108D01*
X1785359D01*
X1787898Y1501647D01*
Y1511804D01*
X1785359Y1514343D01*
X1780280D01*
X1777741Y1511804D01*
Y1509265D01*
X1780280Y1506725D01*
X1787898D01*
X1559306Y1514343D02*
Y1499108D01*
Y1504186D01*
X1569463Y1514343D01*
X1561845Y1506725D01*
X1569463Y1499108D01*
X1574541Y1511804D02*
X1577080Y1514343D01*
X1582159D01*
X1584698Y1511804D01*
Y1509265D01*
X1582159Y1506725D01*
X1584698Y1504186D01*
Y1501647D01*
X1582159Y1499108D01*
X1577080D01*
X1574541Y1501647D01*
Y1504186D01*
X1577080Y1506725D01*
X1574541Y1509265D01*
Y1511804D01*
X1577080Y1506725D02*
X1582159D01*
X1356106Y1514343D02*
Y1499108D01*
Y1504186D01*
X1366263Y1514343D01*
X1358645Y1506725D01*
X1366263Y1499108D01*
X1371341Y1514343D02*
X1381498D01*
Y1511804D01*
X1371341Y1501647D01*
Y1499108D01*
X1118874Y1507487D02*
Y1492253D01*
Y1497331D01*
X1129031Y1507487D01*
X1121413Y1499870D01*
X1129031Y1492253D01*
X1144266Y1507487D02*
X1139187Y1504948D01*
X1134109Y1499870D01*
Y1494792D01*
X1136648Y1492253D01*
X1141727D01*
X1144266Y1494792D01*
Y1497331D01*
X1141727Y1499870D01*
X1134109D01*
X911864Y1474467D02*
Y1459232D01*
Y1464311D01*
X922021Y1474467D01*
X914403Y1466850D01*
X922021Y1459232D01*
X937256Y1474467D02*
X927099D01*
Y1466850D01*
X932178Y1469389D01*
X934717D01*
X937256Y1466850D01*
Y1461772D01*
X934717Y1459232D01*
X929638D01*
X927099Y1461772D01*
X746506Y1514343D02*
Y1499108D01*
Y1504186D01*
X756663Y1514343D01*
X749045Y1506725D01*
X756663Y1499108D01*
X769359D02*
Y1514343D01*
X761741Y1506725D01*
X771898D01*
X543306Y1514343D02*
Y1499108D01*
Y1504186D01*
X553463Y1514343D01*
X545845Y1506725D01*
X553463Y1499108D01*
X558541Y1511804D02*
X561080Y1514343D01*
X566159D01*
X568698Y1511804D01*
Y1509265D01*
X566159Y1506725D01*
X563619D01*
X566159D01*
X568698Y1504186D01*
Y1501647D01*
X566159Y1499108D01*
X561080D01*
X558541Y1501647D01*
X303534Y1468118D02*
Y1452883D01*
Y1457961D01*
X313691Y1468118D01*
X306073Y1460500D01*
X313691Y1452883D01*
X328926D02*
X318769D01*
X328926Y1463039D01*
Y1465578D01*
X326387Y1468118D01*
X321308D01*
X318769Y1465578D01*
X136906Y1514343D02*
Y1499108D01*
Y1504186D01*
X147063Y1514343D01*
X139445Y1506725D01*
X147063Y1499108D01*
X152141D02*
X157219D01*
X154680D01*
Y1514343D01*
X152141Y1511804D01*
X713740Y1004565D02*
Y991869D01*
X716279Y989330D01*
X721357D01*
X723897Y991869D01*
Y1004565D01*
X728975Y989330D02*
X734053D01*
X731514D01*
Y1004565D01*
X728975Y1002026D01*
X1951997Y1212852D02*
Y1228087D01*
X1959614D01*
X1962153Y1225548D01*
Y1220470D01*
X1959614Y1217931D01*
X1951997D01*
X1957075D02*
X1962153Y1212852D01*
X1977388D02*
X1967232D01*
X1977388Y1223009D01*
Y1225548D01*
X1974849Y1228087D01*
X1969771D01*
X1967232Y1225548D01*
X1992623Y1212852D02*
X1982467D01*
X1992623Y1223009D01*
Y1225548D01*
X1990084Y1228087D01*
X1985006D01*
X1982467Y1225548D01*
X1790954Y1227836D02*
Y1243071D01*
X1798571D01*
X1801111Y1240532D01*
Y1235453D01*
X1798571Y1232914D01*
X1790954D01*
X1796032D02*
X1801111Y1227836D01*
X1816346D02*
X1806189D01*
X1816346Y1237993D01*
Y1240532D01*
X1813807Y1243071D01*
X1808728D01*
X1806189Y1240532D01*
X1821424Y1227836D02*
X1826503D01*
X1823963D01*
Y1243071D01*
X1821424Y1240532D01*
X1537977Y1215393D02*
Y1230628D01*
X1545594D01*
X1548133Y1228088D01*
Y1223010D01*
X1545594Y1220471D01*
X1537977D01*
X1543055D02*
X1548133Y1215393D01*
X1563368D02*
X1553212D01*
X1563368Y1225549D01*
Y1228088D01*
X1560829Y1230628D01*
X1555751D01*
X1553212Y1228088D01*
X1568447D02*
X1570986Y1230628D01*
X1576064D01*
X1578603Y1228088D01*
Y1217932D01*
X1576064Y1215393D01*
X1570986D01*
X1568447Y1217932D01*
Y1228088D01*
X1334776Y1215393D02*
Y1230628D01*
X1342394D01*
X1344933Y1228088D01*
Y1223010D01*
X1342394Y1220471D01*
X1334776D01*
X1339854D02*
X1344933Y1215393D01*
X1350011D02*
X1355090D01*
X1352550D01*
Y1230628D01*
X1350011Y1228088D01*
X1362707Y1217932D02*
X1365246Y1215393D01*
X1370325D01*
X1372864Y1217932D01*
Y1228088D01*
X1370325Y1230628D01*
X1365246D01*
X1362707Y1228088D01*
Y1225549D01*
X1365246Y1223010D01*
X1372864D01*
X1117606Y1215393D02*
Y1230628D01*
X1125224D01*
X1127763Y1228088D01*
Y1223010D01*
X1125224Y1220471D01*
X1117606D01*
X1122684D02*
X1127763Y1215393D01*
X1132841D02*
X1137920D01*
X1135380D01*
Y1230628D01*
X1132841Y1228088D01*
X1145537D02*
X1148076Y1230628D01*
X1153155D01*
X1155694Y1228088D01*
Y1225549D01*
X1153155Y1223010D01*
X1155694Y1220471D01*
Y1217932D01*
X1153155Y1215393D01*
X1148076D01*
X1145537Y1217932D01*
Y1220471D01*
X1148076Y1223010D01*
X1145537Y1225549D01*
Y1228088D01*
X1148076Y1223010D02*
X1153155D01*
X932186Y1211582D02*
Y1226817D01*
X939804D01*
X942343Y1224278D01*
Y1219200D01*
X939804Y1216661D01*
X932186D01*
X937264D02*
X942343Y1211582D01*
X947421D02*
X952500D01*
X949960D01*
Y1226817D01*
X947421Y1224278D01*
X960117Y1226817D02*
X970274D01*
Y1224278D01*
X960117Y1214122D01*
Y1211582D01*
X1022356Y356992D02*
Y372228D01*
X1029974D01*
X1032513Y369688D01*
Y364610D01*
X1029974Y362071D01*
X1022356D01*
X1027434D02*
X1032513Y356992D01*
X1037591D02*
X1042670D01*
X1040130D01*
Y372228D01*
X1037591Y369688D01*
X1060444Y372228D02*
X1055366Y369688D01*
X1050287Y364610D01*
Y359532D01*
X1052826Y356992D01*
X1057905D01*
X1060444Y359532D01*
Y362071D01*
X1057905Y364610D01*
X1050287D01*
X712476Y1209043D02*
Y1224277D01*
X720094D01*
X722633Y1221738D01*
Y1216660D01*
X720094Y1214121D01*
X712476D01*
X717554D02*
X722633Y1209043D01*
X727711D02*
X732790D01*
X730250D01*
Y1224277D01*
X727711Y1221738D01*
X750564Y1224277D02*
X740407D01*
Y1216660D01*
X745486Y1219199D01*
X748025D01*
X750564Y1216660D01*
Y1211582D01*
X748025Y1209043D01*
X742946D01*
X740407Y1211582D01*
X518166Y1206503D02*
Y1221738D01*
X525784D01*
X528323Y1219198D01*
Y1214120D01*
X525784Y1211581D01*
X518166D01*
X523245D02*
X528323Y1206503D01*
X533401D02*
X538480D01*
X535940D01*
Y1221738D01*
X533401Y1219198D01*
X553715Y1206503D02*
Y1221738D01*
X546097Y1214120D01*
X556254D01*
X287026Y1211582D02*
Y1226817D01*
X294644D01*
X297183Y1224278D01*
Y1219200D01*
X294644Y1216661D01*
X287026D01*
X292104D02*
X297183Y1211582D01*
X302261D02*
X307340D01*
X304800D01*
Y1226817D01*
X302261Y1224278D01*
X314957D02*
X317496Y1226817D01*
X322575D01*
X325114Y1224278D01*
Y1221739D01*
X322575Y1219200D01*
X320036D01*
X322575D01*
X325114Y1216661D01*
Y1214122D01*
X322575Y1211582D01*
X317496D01*
X314957Y1214122D01*
X99066Y1228092D02*
Y1243327D01*
X106684D01*
X109223Y1240788D01*
Y1235710D01*
X106684Y1233171D01*
X99066D01*
X104144D02*
X109223Y1228092D01*
X114301D02*
X119380D01*
X116840D01*
Y1243327D01*
X114301Y1240788D01*
X137154Y1228092D02*
X126997D01*
X137154Y1238249D01*
Y1240788D01*
X134615Y1243327D01*
X129536D01*
X126997Y1240788D01*
X2179325Y1108712D02*
Y1123948D01*
X2186943D01*
X2189482Y1121408D01*
Y1116330D01*
X2186943Y1113791D01*
X2179325D01*
X2184404D02*
X2189482Y1108712D01*
X2194560D02*
X2199639D01*
X2197100D01*
Y1123948D01*
X2194560Y1121408D01*
X2207256Y1108712D02*
X2212335D01*
X2209796D01*
Y1123948D01*
X2207256Y1121408D01*
X1291596Y1116332D02*
Y1131568D01*
X1299214D01*
X1301753Y1129028D01*
Y1123950D01*
X1299214Y1121411D01*
X1291596D01*
X1296674D02*
X1301753Y1116332D01*
X1306831D02*
X1311910D01*
X1309370D01*
Y1131568D01*
X1306831Y1129028D01*
X1319527D02*
X1322066Y1131568D01*
X1327145D01*
X1329684Y1129028D01*
Y1118872D01*
X1327145Y1116332D01*
X1322066D01*
X1319527Y1118872D01*
Y1129028D01*
X875034Y1120143D02*
Y1135378D01*
X882652D01*
X885191Y1132838D01*
Y1127760D01*
X882652Y1125221D01*
X875034D01*
X880113D02*
X885191Y1120143D01*
X890269Y1122682D02*
X892808Y1120143D01*
X897887D01*
X900426Y1122682D01*
Y1132838D01*
X897887Y1135378D01*
X892808D01*
X890269Y1132838D01*
Y1130299D01*
X892808Y1127760D01*
X900426D01*
X1949454Y1146813D02*
Y1162048D01*
X1957072D01*
X1959611Y1159508D01*
Y1154430D01*
X1957072Y1151891D01*
X1949454D01*
X1954532D02*
X1959611Y1146813D01*
X1964689Y1159508D02*
X1967228Y1162048D01*
X1972307D01*
X1974846Y1159508D01*
Y1156969D01*
X1972307Y1154430D01*
X1974846Y1151891D01*
Y1149352D01*
X1972307Y1146813D01*
X1967228D01*
X1964689Y1149352D01*
Y1151891D01*
X1967228Y1154430D01*
X1964689Y1156969D01*
Y1159508D01*
X1967228Y1154430D02*
X1972307D01*
X1107444Y1125222D02*
Y1140458D01*
X1115062D01*
X1117601Y1137918D01*
Y1132840D01*
X1115062Y1130301D01*
X1107444D01*
X1112523D02*
X1117601Y1125222D01*
X1122679Y1140458D02*
X1132836D01*
Y1137918D01*
X1122679Y1127762D01*
Y1125222D01*
X1708404Y1164336D02*
Y1179571D01*
X1716022D01*
X1718561Y1177032D01*
Y1171954D01*
X1716022Y1169414D01*
X1708404D01*
X1713482D02*
X1718561Y1164336D01*
X1733796Y1179571D02*
X1728717Y1177032D01*
X1723639Y1171954D01*
Y1166875D01*
X1726178Y1164336D01*
X1731257D01*
X1733796Y1166875D01*
Y1169414D01*
X1731257Y1171954D01*
X1723639D01*
X1496064Y1121413D02*
Y1136647D01*
X1503682D01*
X1506221Y1134108D01*
Y1129030D01*
X1503682Y1126491D01*
X1496064D01*
X1501142D02*
X1506221Y1121413D01*
X1521456Y1136647D02*
X1511299D01*
Y1129030D01*
X1516378Y1131569D01*
X1518917D01*
X1521456Y1129030D01*
Y1123952D01*
X1518917Y1121413D01*
X1513838D01*
X1511299Y1123952D01*
X450734Y1112523D02*
Y1127758D01*
X458352D01*
X460891Y1125218D01*
Y1120140D01*
X458352Y1117601D01*
X450734D01*
X455812D02*
X460891Y1112523D01*
X473587D02*
Y1127758D01*
X465969Y1120140D01*
X476126D01*
X283214Y1130303D02*
Y1145537D01*
X290832D01*
X293371Y1142998D01*
Y1137920D01*
X290832Y1135381D01*
X283214D01*
X288293D02*
X293371Y1130303D01*
X298449Y1142998D02*
X300988Y1145537D01*
X306067D01*
X308606Y1142998D01*
Y1140459D01*
X306067Y1137920D01*
X303528D01*
X306067D01*
X308606Y1135381D01*
Y1132842D01*
X306067Y1130303D01*
X300988D01*
X298449Y1132842D01*
X660404Y1115062D02*
Y1130297D01*
X668022D01*
X670561Y1127758D01*
Y1122680D01*
X668022Y1120141D01*
X660404D01*
X665482D02*
X670561Y1115062D01*
X685796D02*
X675639D01*
X685796Y1125219D01*
Y1127758D01*
X683257Y1130297D01*
X678178D01*
X675639Y1127758D01*
X2218182Y1235964D02*
Y1251199D01*
X2225800D01*
X2228339Y1248660D01*
Y1243581D01*
X2225800Y1241042D01*
X2218182D01*
X2223260D02*
X2228339Y1235964D01*
X2233417D02*
X2238495D01*
X2235956D01*
Y1251199D01*
X2233417Y1248660D01*
X2125313Y1139192D02*
Y1149348D01*
X2122774Y1151888D01*
X2117695D01*
X2115156Y1149348D01*
Y1139192D01*
X2117695Y1136653D01*
X2122774D01*
X2120235Y1141731D02*
X2125313Y1136653D01*
X2122774D02*
X2125313Y1139192D01*
X2130391Y1136653D02*
X2135470D01*
X2132930D01*
Y1151888D01*
X2130391Y1149348D01*
X2143087D02*
X2145626Y1151888D01*
X2150705D01*
X2153244Y1149348D01*
Y1139192D01*
X2150705Y1136653D01*
X2145626D01*
X2143087Y1139192D01*
Y1149348D01*
X1805941Y1139192D02*
Y1149348D01*
X1803402Y1151888D01*
X1798323D01*
X1795784Y1149348D01*
Y1139192D01*
X1798323Y1136653D01*
X1803402D01*
X1800862Y1141731D02*
X1805941Y1136653D01*
X1803402D02*
X1805941Y1139192D01*
X1811019D02*
X1813558Y1136653D01*
X1818637D01*
X1821176Y1139192D01*
Y1149348D01*
X1818637Y1151888D01*
X1813558D01*
X1811019Y1149348D01*
Y1146809D01*
X1813558Y1144270D01*
X1821176D01*
X1642111Y1097282D02*
Y1107438D01*
X1639572Y1109977D01*
X1634493D01*
X1631954Y1107438D01*
Y1097282D01*
X1634493Y1094743D01*
X1639572D01*
X1637032Y1099821D02*
X1642111Y1094743D01*
X1639572D02*
X1642111Y1097282D01*
X1647189Y1107438D02*
X1649728Y1109977D01*
X1654807D01*
X1657346Y1107438D01*
Y1104899D01*
X1654807Y1102360D01*
X1657346Y1099821D01*
Y1097282D01*
X1654807Y1094743D01*
X1649728D01*
X1647189Y1097282D01*
Y1099821D01*
X1649728Y1102360D01*
X1647189Y1104899D01*
Y1107438D01*
X1649728Y1102360D02*
X1654807D01*
X1372871Y1155702D02*
Y1165858D01*
X1370332Y1168398D01*
X1365253D01*
X1362714Y1165858D01*
Y1155702D01*
X1365253Y1153163D01*
X1370332D01*
X1367793Y1158241D02*
X1372871Y1153163D01*
X1370332D02*
X1372871Y1155702D01*
X1377949Y1168398D02*
X1388106D01*
Y1165858D01*
X1377949Y1155702D01*
Y1153163D01*
X1160781Y1148082D02*
Y1158238D01*
X1158242Y1160778D01*
X1153163D01*
X1150624Y1158238D01*
Y1148082D01*
X1153163Y1145543D01*
X1158242D01*
X1155703Y1150621D02*
X1160781Y1145543D01*
X1158242D02*
X1160781Y1148082D01*
X1176016Y1160778D02*
X1170938Y1158238D01*
X1165859Y1153160D01*
Y1148082D01*
X1168398Y1145543D01*
X1173477D01*
X1176016Y1148082D01*
Y1150621D01*
X1173477Y1153160D01*
X1165859D01*
X958851Y1149352D02*
Y1159508D01*
X956312Y1162048D01*
X951233D01*
X948694Y1159508D01*
Y1149352D01*
X951233Y1146813D01*
X956312D01*
X953773Y1151891D02*
X958851Y1146813D01*
X956312D02*
X958851Y1149352D01*
X974086Y1162048D02*
X963929D01*
Y1154430D01*
X969007Y1156969D01*
X971547D01*
X974086Y1154430D01*
Y1149352D01*
X971547Y1146813D01*
X966468D01*
X963929Y1149352D01*
X743551Y1145542D02*
Y1155698D01*
X741012Y1158238D01*
X735933D01*
X733394Y1155698D01*
Y1145542D01*
X735933Y1143002D01*
X741012D01*
X738473Y1148081D02*
X743551Y1143002D01*
X741012D02*
X743551Y1145542D01*
X756247Y1143002D02*
Y1158238D01*
X748629Y1150620D01*
X758786D01*
X534671Y1146812D02*
Y1156968D01*
X532132Y1159508D01*
X527053D01*
X524514Y1156968D01*
Y1146812D01*
X527053Y1144273D01*
X532132D01*
X529593Y1149351D02*
X534671Y1144273D01*
X532132D02*
X534671Y1146812D01*
X539749Y1156968D02*
X542288Y1159508D01*
X547367D01*
X549906Y1156968D01*
Y1154429D01*
X547367Y1151890D01*
X544827D01*
X547367D01*
X549906Y1149351D01*
Y1146812D01*
X547367Y1144273D01*
X542288D01*
X539749Y1146812D01*
X336551Y1150524D02*
Y1160681D01*
X334012Y1163220D01*
X328933D01*
X326394Y1160681D01*
Y1150524D01*
X328933Y1147985D01*
X334012D01*
X331473Y1153063D02*
X336551Y1147985D01*
X334012D02*
X336551Y1150524D01*
X351786Y1147985D02*
X341629D01*
X351786Y1158142D01*
Y1160681D01*
X349247Y1163220D01*
X344168D01*
X341629Y1160681D01*
X129540Y1150622D02*
Y1160778D01*
X127001Y1163317D01*
X121923D01*
X119383Y1160778D01*
Y1150622D01*
X121923Y1148083D01*
X127001D01*
X124462Y1153161D02*
X129540Y1148083D01*
X127001D02*
X129540Y1150622D01*
X134618Y1148083D02*
X139697D01*
X137158D01*
Y1163317D01*
X134618Y1160778D01*
X1339593Y327909D02*
X1334514D01*
X1337054D01*
Y315213D01*
X1334514Y312674D01*
X1331975D01*
X1329436Y315213D01*
X408938Y842008D02*
X403860D01*
X406399D01*
Y829312D01*
X403860Y826773D01*
X401321D01*
X398782Y829312D01*
X1342133Y733039D02*
X1337054D01*
X1339594D01*
Y720343D01*
X1337054Y717804D01*
X1334515D01*
X1331976Y720343D01*
X29210Y730247D02*
X24132D01*
X26671D01*
Y717552D01*
X24132Y715013D01*
X21593D01*
X19053Y717552D01*
X34288Y715013D02*
X39367D01*
X36828D01*
Y730247D01*
X34288Y727708D01*
X2147577Y1301747D02*
Y1286512D01*
X2155194D01*
X2157733Y1289052D01*
Y1299208D01*
X2155194Y1301747D01*
X2147577D01*
X2172968Y1286512D02*
X2162812D01*
X2172968Y1296669D01*
Y1299208D01*
X2170429Y1301747D01*
X2165351D01*
X2162812Y1299208D01*
X2178047Y1301747D02*
X2188203D01*
Y1299208D01*
X2178047Y1289052D01*
Y1286512D01*
X1924812Y1291585D02*
Y1276350D01*
X1932430D01*
X1934969Y1278889D01*
Y1289046D01*
X1932430Y1291585D01*
X1924812D01*
X1950204Y1276350D02*
X1940047D01*
X1950204Y1286507D01*
Y1289046D01*
X1947665Y1291585D01*
X1942586D01*
X1940047Y1289046D01*
X1965439Y1291585D02*
X1960361Y1289046D01*
X1955282Y1283967D01*
Y1278889D01*
X1957821Y1276350D01*
X1962900D01*
X1965439Y1278889D01*
Y1281428D01*
X1962900Y1283967D01*
X1955282D01*
X1719587Y1299207D02*
Y1283972D01*
X1727204D01*
X1729743Y1286512D01*
Y1296668D01*
X1727204Y1299207D01*
X1719587D01*
X1744978Y1283972D02*
X1734822D01*
X1744978Y1294129D01*
Y1296668D01*
X1742439Y1299207D01*
X1737361D01*
X1734822Y1296668D01*
X1760213Y1299207D02*
X1750057D01*
Y1291590D01*
X1755135Y1294129D01*
X1757674D01*
X1760213Y1291590D01*
Y1286512D01*
X1757674Y1283972D01*
X1752596D01*
X1750057Y1286512D01*
X1294341Y759457D02*
Y744222D01*
X1301958D01*
X1304497Y746762D01*
Y756918D01*
X1301958Y759457D01*
X1294341D01*
X1319732Y744222D02*
X1309576D01*
X1319732Y754379D01*
Y756918D01*
X1317193Y759457D01*
X1312115D01*
X1309576Y756918D01*
X1332428Y744222D02*
Y759457D01*
X1324811Y751840D01*
X1334967D01*
X1300487Y600708D02*
Y585472D01*
X1308104D01*
X1310643Y588012D01*
Y598168D01*
X1308104Y600708D01*
X1300487D01*
X1325878Y585472D02*
X1315722D01*
X1325878Y595629D01*
Y598168D01*
X1323339Y600708D01*
X1318261D01*
X1315722Y598168D01*
X1330957D02*
X1333496Y600708D01*
X1338574D01*
X1341113Y598168D01*
Y595629D01*
X1338574Y593090D01*
X1336035D01*
X1338574D01*
X1341113Y590551D01*
Y588012D01*
X1338574Y585472D01*
X1333496D01*
X1330957Y588012D01*
X1515117Y1291588D02*
Y1276352D01*
X1522734D01*
X1525273Y1278892D01*
Y1289048D01*
X1522734Y1291588D01*
X1515117D01*
X1540508Y1276352D02*
X1530352D01*
X1540508Y1286509D01*
Y1289048D01*
X1537969Y1291588D01*
X1532891D01*
X1530352Y1289048D01*
X1555743Y1276352D02*
X1545587D01*
X1555743Y1286509D01*
Y1289048D01*
X1553204Y1291588D01*
X1548126D01*
X1545587Y1289048D01*
X1310850Y359408D02*
Y344173D01*
X1318467D01*
X1321006Y346712D01*
Y356868D01*
X1318467Y359408D01*
X1310850D01*
X1336242Y344173D02*
X1326085D01*
X1336242Y354329D01*
Y356868D01*
X1333702Y359408D01*
X1328624D01*
X1326085Y356868D01*
X1341320Y344173D02*
X1346398D01*
X1343859D01*
Y359408D01*
X1341320Y356868D01*
X501652Y915472D02*
X516888D01*
Y923090D01*
X514348Y925629D01*
X504192D01*
X501652Y923090D01*
Y915472D01*
X516888Y940864D02*
Y930708D01*
X506731Y940864D01*
X504192D01*
X501652Y938325D01*
Y933247D01*
X504192Y930708D01*
Y945943D02*
X501652Y948482D01*
Y953560D01*
X504192Y956099D01*
X514348D01*
X516888Y953560D01*
Y948482D01*
X514348Y945943D01*
X504192D01*
X1296924Y1294125D02*
Y1278890D01*
X1304541D01*
X1307081Y1281429D01*
Y1291586D01*
X1304541Y1294125D01*
X1296924D01*
X1312159Y1278890D02*
X1317237D01*
X1314698D01*
Y1294125D01*
X1312159Y1291586D01*
X1324855Y1281429D02*
X1327394Y1278890D01*
X1332473D01*
X1335012Y1281429D01*
Y1291586D01*
X1332473Y1294125D01*
X1327394D01*
X1324855Y1291586D01*
Y1289047D01*
X1327394Y1286508D01*
X1335012D01*
X1078484Y1294125D02*
Y1278890D01*
X1086102D01*
X1088641Y1281429D01*
Y1291586D01*
X1086102Y1294125D01*
X1078484D01*
X1093719Y1278890D02*
X1098797D01*
X1096258D01*
Y1294125D01*
X1093719Y1291586D01*
X1106415Y1294125D02*
X1116572D01*
Y1291586D01*
X1106415Y1281429D01*
Y1278890D01*
X957578Y451834D02*
X942343D01*
Y444216D01*
X944882Y441677D01*
X955038D01*
X957578Y444216D01*
Y451834D01*
X942343Y436599D02*
Y431520D01*
Y434060D01*
X957578D01*
X955038Y436599D01*
X957578Y413746D02*
X955038Y418825D01*
X949960Y423903D01*
X944882D01*
X942343Y421364D01*
Y416285D01*
X944882Y413746D01*
X947421D01*
X949960Y416285D01*
Y423903D01*
X881380Y1290315D02*
Y1275080D01*
X888997D01*
X891537Y1277619D01*
Y1287776D01*
X888997Y1290315D01*
X881380D01*
X896615Y1275080D02*
X901693D01*
X899154D01*
Y1290315D01*
X896615Y1287776D01*
X919468Y1290315D02*
X909311D01*
Y1282697D01*
X914389Y1285237D01*
X916928D01*
X919468Y1282697D01*
Y1277619D01*
X916928Y1275080D01*
X911850D01*
X909311Y1277619D01*
X661924Y1287775D02*
Y1272540D01*
X669541D01*
X672081Y1275079D01*
Y1285236D01*
X669541Y1287775D01*
X661924D01*
X677159Y1272540D02*
X682237D01*
X679698D01*
Y1287775D01*
X677159Y1285236D01*
X697473Y1272540D02*
Y1287775D01*
X689855Y1280157D01*
X700012D01*
X461264Y1287775D02*
Y1272540D01*
X468881D01*
X471421Y1275079D01*
Y1285236D01*
X468881Y1287775D01*
X461264D01*
X476499Y1272540D02*
X481577D01*
X479038D01*
Y1287775D01*
X476499Y1285236D01*
X489195D02*
X491734Y1287775D01*
X496813D01*
X499352Y1285236D01*
Y1282697D01*
X496813Y1280157D01*
X494273D01*
X496813D01*
X499352Y1277618D01*
Y1275079D01*
X496813Y1272540D01*
X491734D01*
X489195Y1275079D01*
X2038350Y1114801D02*
Y1099566D01*
X2045968D01*
X2048507Y1102105D01*
Y1112262D01*
X2045968Y1114801D01*
X2038350D01*
X2053585Y1099566D02*
X2058663D01*
X2056124D01*
Y1114801D01*
X2053585Y1112262D01*
X2076438Y1099566D02*
X2066281D01*
X2076438Y1109723D01*
Y1112262D01*
X2073898Y1114801D01*
X2068820D01*
X2066281Y1112262D01*
X244094Y1289045D02*
Y1273810D01*
X251712D01*
X254251Y1276349D01*
Y1286506D01*
X251712Y1289045D01*
X244094D01*
X259329Y1273810D02*
X264407D01*
X261868D01*
Y1289045D01*
X259329Y1286506D01*
X272025Y1273810D02*
X277103D01*
X274564D01*
Y1289045D01*
X272025Y1286506D01*
X2175516Y1195068D02*
Y1179833D01*
X2183134D01*
X2185673Y1182372D01*
Y1192528D01*
X2183134Y1195068D01*
X2175516D01*
X2190751Y1179833D02*
X2195830D01*
X2193290D01*
Y1195068D01*
X2190751Y1192528D01*
X2203447D02*
X2205986Y1195068D01*
X2211065D01*
X2213604Y1192528D01*
Y1182372D01*
X2211065Y1179833D01*
X2205986D01*
X2203447Y1182372D01*
Y1192528D01*
X1915164Y1226817D02*
Y1211582D01*
X1922782D01*
X1925321Y1214122D01*
Y1224278D01*
X1922782Y1226817D01*
X1915164D01*
X1930399Y1214122D02*
X1932938Y1211582D01*
X1938017D01*
X1940556Y1214122D01*
Y1224278D01*
X1938017Y1226817D01*
X1932938D01*
X1930399Y1224278D01*
Y1221739D01*
X1932938Y1219200D01*
X1940556D01*
X881380Y1229101D02*
Y1213866D01*
X888997D01*
X891537Y1216405D01*
Y1226562D01*
X888997Y1229101D01*
X881380D01*
X896615Y1226562D02*
X899154Y1229101D01*
X904233D01*
X906772Y1226562D01*
Y1224023D01*
X904233Y1221484D01*
X906772Y1218944D01*
Y1216405D01*
X904233Y1213866D01*
X899154D01*
X896615Y1216405D01*
Y1218944D01*
X899154Y1221484D01*
X896615Y1224023D01*
Y1226562D01*
X899154Y1221484D02*
X904233D01*
X1078230Y1231641D02*
Y1216406D01*
X1085847D01*
X1088387Y1218945D01*
Y1229102D01*
X1085847Y1231641D01*
X1078230D01*
X1093465D02*
X1103622D01*
Y1229102D01*
X1093465Y1218945D01*
Y1216406D01*
X1300480Y1231641D02*
Y1216406D01*
X1308098D01*
X1310637Y1218945D01*
Y1229102D01*
X1308098Y1231641D01*
X1300480D01*
X1325872D02*
X1320793Y1229102D01*
X1315715Y1224024D01*
Y1218945D01*
X1318254Y1216406D01*
X1323333D01*
X1325872Y1218945D01*
Y1221484D01*
X1323333Y1224024D01*
X1315715D01*
X1710690Y1237991D02*
Y1222756D01*
X1718307D01*
X1720847Y1225295D01*
Y1235452D01*
X1718307Y1237991D01*
X1710690D01*
X1736082D02*
X1725925D01*
Y1230374D01*
X1731003Y1232913D01*
X1733543D01*
X1736082Y1230374D01*
Y1225295D01*
X1733543Y1222756D01*
X1728464D01*
X1725925Y1225295D01*
X461010Y1226561D02*
Y1211326D01*
X468628D01*
X471167Y1213865D01*
Y1224022D01*
X468628Y1226561D01*
X461010D01*
X483863Y1211326D02*
Y1226561D01*
X476245Y1218943D01*
X486402D01*
X1496060Y1234181D02*
Y1218946D01*
X1503678D01*
X1506217Y1221485D01*
Y1231642D01*
X1503678Y1234181D01*
X1496060D01*
X1511295Y1231642D02*
X1513834Y1234181D01*
X1518913D01*
X1521452Y1231642D01*
Y1229103D01*
X1518913Y1226563D01*
X1516373D01*
X1518913D01*
X1521452Y1224024D01*
Y1221485D01*
X1518913Y1218946D01*
X1513834D01*
X1511295Y1221485D01*
X246380Y1225291D02*
Y1210056D01*
X253997D01*
X256537Y1212595D01*
Y1222752D01*
X253997Y1225291D01*
X246380D01*
X271772Y1210056D02*
X261615D01*
X271772Y1220213D01*
Y1222752D01*
X269233Y1225291D01*
X264154D01*
X261615Y1222752D01*
X661670Y1224021D02*
Y1208786D01*
X669287D01*
X671827Y1211325D01*
Y1221482D01*
X669287Y1224021D01*
X661670D01*
X676905Y1208786D02*
X681983D01*
X679444D01*
Y1224021D01*
X676905Y1221482D01*
X1019812Y330198D02*
X1029968Y320042D01*
X1019812D02*
X1029968Y330198D01*
X1019812Y325120D02*
X1029968D01*
X1024890Y320042D02*
Y330198D01*
X49530Y1597660D02*
G03*
X0Y1548130I0J-49530D01*
G01*
X2264410Y1546860D02*
G03*
X2213610Y1597660I-50800J0D01*
G01*
X2213610Y0D02*
G03*
X2264410Y50800I0J50800D01*
G01*
X0Y50000D02*
G03*
X50000Y0I50000J0D01*
G01*
X2264410Y1546860D02*
X2264410Y50800D01*
X49530Y1597660D02*
X2213610Y1597660D01*
X50000Y-0D02*
X2213610Y0D01*
X0Y50000D02*
Y1549400D01*
X2508060Y1593660D02*
X2508060D01*
X2508060D02*
Y1593910D01*
D14*
X300910Y1029878D02*
Y1009884D01*
Y1019881D01*
X314239D01*
Y1029878D01*
Y1009884D01*
X320904D02*
Y1013217D01*
X324236D01*
Y1009884D01*
X320904D01*
X337565D02*
Y1029878D01*
X344229Y1023214D01*
X350894Y1029878D01*
Y1009884D01*
X357558D02*
Y1013217D01*
X360891D01*
Y1009884D01*
X357558D01*
X374220D02*
Y1029878D01*
X384216D01*
X387549Y1026546D01*
Y1019881D01*
X384216Y1016549D01*
X374220D01*
X380884D02*
X387549Y1009884D01*
X414207Y1029878D02*
Y1009884D01*
X424204D01*
X427536Y1013217D01*
Y1026546D01*
X424204Y1029878D01*
X414207D01*
X444197Y1009884D02*
X437533D01*
X434200Y1013217D01*
Y1019881D01*
X437533Y1023214D01*
X444197D01*
X447529Y1019881D01*
Y1016549D01*
X434200D01*
X454194Y1009884D02*
X464191D01*
X467523Y1013217D01*
X464191Y1016549D01*
X457526D01*
X454194Y1019881D01*
X457526Y1023214D01*
X467523D01*
X474188Y1009884D02*
X480852D01*
X477520D01*
Y1023214D01*
X474188D01*
X497513Y1003220D02*
X500845D01*
X504178Y1006552D01*
Y1023214D01*
X494181D01*
X490849Y1019881D01*
Y1013217D01*
X494181Y1009884D01*
X504178D01*
X510842D02*
Y1023214D01*
X520839D01*
X524171Y1019881D01*
Y1009884D01*
X530836D02*
X540833D01*
X544165Y1013217D01*
X540833Y1016549D01*
X534168D01*
X530836Y1019881D01*
X534168Y1023214D01*
X544165D01*
D15*
X1837700Y1192530D02*
D03*
X1629420D02*
D03*
X171460D02*
D03*
X379740Y1192530D02*
D03*
X1421140Y1192530D02*
D03*
X1212860D02*
D03*
X1004580D02*
D03*
X796300D02*
D03*
X588020D02*
D03*
X2045980D02*
D03*
D16*
X1379424Y188500D02*
Y192500D01*
X1377424Y190500D02*
X1381424D01*
X1384504Y588550D02*
Y592550D01*
X1382504Y590550D02*
X1386504D01*
X1377424Y350520D02*
X1381424D01*
X1379424Y348520D02*
Y352520D01*
X995680Y425990D02*
Y429990D01*
X993680Y427990D02*
X997680D01*
X1381964Y758730D02*
Y762730D01*
X1379964Y760730D02*
X1383964D01*
X306070Y872826D02*
Y876826D01*
X304070Y874826D02*
X308070D01*
X508000Y872826D02*
Y876826D01*
X506000Y874826D02*
X510000D01*
X1745520Y1261110D02*
X1749520D01*
X1747520Y1259110D02*
Y1263110D01*
X1528350Y1253490D02*
X1532350D01*
X1530350Y1251490D02*
Y1255490D01*
X1952810Y1191260D02*
X1956810D01*
X1954810Y1189260D02*
Y1193260D01*
X693527Y279400D02*
X697527D01*
X695527Y277400D02*
Y281400D01*
X2164620Y1214120D02*
X2168620D01*
X2166620Y1212120D02*
Y1216120D01*
X2164620Y1256030D02*
X2168620D01*
X2166620Y1254030D02*
Y1258030D01*
X276860Y1187990D02*
Y1191990D01*
X274860Y1189990D02*
X278860D01*
X692150Y1186720D02*
Y1190720D01*
X690150Y1188720D02*
X694150D01*
X1526540Y1196880D02*
Y1200880D01*
X1524540Y1198880D02*
X1528540D01*
X491490Y1189260D02*
Y1193260D01*
X489490Y1191260D02*
X493490D01*
X1741170Y1200690D02*
Y1204690D01*
X1739170Y1202690D02*
X1743170D01*
X911860Y1191800D02*
Y1195800D01*
X909860Y1193800D02*
X913860D01*
X1108710Y1194340D02*
Y1198340D01*
X1106710Y1196340D02*
X1110710D01*
X1330960Y1194340D02*
Y1198340D01*
X1328960Y1196340D02*
X1332960D01*
X280670Y1247680D02*
Y1251680D01*
X278670Y1249680D02*
X282670D01*
X2068830Y1077500D02*
Y1081500D01*
X2066830Y1079500D02*
X2070830D01*
X497840Y1246410D02*
Y1250410D01*
X495840Y1248410D02*
X499840D01*
X698500Y1246410D02*
Y1250410D01*
X696500Y1248410D02*
X700500D01*
X917850Y1248950D02*
Y1252950D01*
X915850Y1250950D02*
X919850D01*
X1115060Y1252760D02*
Y1256760D01*
X1113060Y1254760D02*
X1117060D01*
X1333500Y1252760D02*
Y1256760D01*
X1331500Y1254760D02*
X1335500D01*
X1961240Y1250220D02*
Y1254220D01*
X1959240Y1252220D02*
X1963240D01*
X2216870Y1224630D02*
X2243370D01*
X2216870Y1173130D02*
X2243370D01*
Y1224630D01*
X2216870Y1173130D02*
Y1224630D01*
X535000Y884310D02*
Y901310D01*
X544500Y884310D02*
Y901310D01*
X535000Y884310D02*
X544500D01*
X535000Y901310D02*
X544500D01*
X1000430Y361190D02*
Y378190D01*
X990930Y361190D02*
Y378190D01*
X1000430D01*
X990930Y361190D02*
X1000430D01*
X1352940Y376250D02*
X1369940D01*
X1352940Y385750D02*
X1369940D01*
Y376250D02*
Y385750D01*
X1352940Y376250D02*
Y385750D01*
Y155270D02*
X1369940D01*
X1352940Y164770D02*
X1369940D01*
Y155270D02*
Y164770D01*
X1352940Y155270D02*
Y164770D01*
X1358020Y557860D02*
X1375020D01*
X1358020Y567360D02*
X1375020D01*
Y557860D02*
Y567360D01*
X1358020Y557860D02*
Y567360D01*
X1355480Y781380D02*
X1372480D01*
X1355480Y790880D02*
X1372480D01*
Y781380D02*
Y790880D01*
X1355480Y781380D02*
Y790880D01*
X742010Y1175140D02*
Y1192140D01*
X751510Y1175140D02*
Y1192140D01*
X742010Y1175140D02*
X751510D01*
X742010Y1192140D02*
X751510D01*
X120980Y1199270D02*
Y1216270D01*
X130480Y1199270D02*
Y1216270D01*
X120980Y1199270D02*
X130480D01*
X120980Y1216270D02*
X130480D01*
X540080Y1168790D02*
Y1185790D01*
X549580Y1168790D02*
Y1185790D01*
X540080Y1168790D02*
X549580D01*
X540080Y1185790D02*
X549580D01*
X333070Y1198000D02*
Y1215000D01*
X342570Y1198000D02*
Y1215000D01*
X333070Y1198000D02*
X342570D01*
X333070Y1215000D02*
X342570D01*
X246650Y1147750D02*
X263650D01*
X246650Y1138250D02*
X263650D01*
X246650D02*
Y1147750D01*
X263650Y1138250D02*
Y1147750D01*
X665870Y1147750D02*
X682870D01*
X665870Y1138250D02*
X682870D01*
X665870D02*
Y1147750D01*
X682870Y1138250D02*
Y1147750D01*
X2209030Y1135940D02*
Y1169440D01*
X2182630Y1135940D02*
Y1169440D01*
X2209030D01*
X2182630Y1135940D02*
X2209030D01*
X1295790Y1152830D02*
X1312790D01*
X1295790Y1143330D02*
X1312790D01*
X1295790D02*
Y1152830D01*
X1312790Y1143330D02*
Y1152830D01*
X454930Y1149020D02*
X471930D01*
X454930Y1139520D02*
X471930D01*
X454930D02*
Y1149020D01*
X471930Y1139520D02*
Y1149020D01*
X1495180Y1155370D02*
X1512180D01*
X1495180Y1145870D02*
X1512180D01*
X1495180D02*
Y1155370D01*
X1512180Y1145870D02*
Y1155370D01*
X1078620Y1151560D02*
X1095620D01*
X1078620Y1142060D02*
X1095620D01*
X1078620D02*
Y1151560D01*
X1095620Y1142060D02*
Y1151560D01*
X877960Y1152830D02*
X894960D01*
X877960Y1143330D02*
X894960D01*
X877960D02*
Y1152830D01*
X894960Y1143330D02*
Y1152830D01*
X1923170Y1159180D02*
X1940170D01*
X1923170Y1149680D02*
X1940170D01*
X1923170D02*
Y1159180D01*
X1940170Y1149680D02*
Y1159180D01*
X1377010Y1201810D02*
Y1218810D01*
X1386510Y1201810D02*
Y1218810D01*
X1377010Y1201810D02*
X1386510D01*
X1377010Y1218810D02*
X1386510D01*
X1161110Y1196730D02*
Y1213730D01*
X1170610Y1196730D02*
Y1213730D01*
X1161110Y1196730D02*
X1170610D01*
X1161110Y1213730D02*
X1170610D01*
X956640Y1179070D02*
Y1196070D01*
X966140Y1179070D02*
Y1196070D01*
X956640Y1179070D02*
X966140D01*
X956640Y1196070D02*
X966140D01*
X270840Y884310D02*
Y901310D01*
X280340Y884310D02*
Y901310D01*
X270840Y884310D02*
X280340D01*
X270840Y901310D02*
X280340D01*
X1582750Y1196730D02*
Y1213730D01*
X1592250Y1196730D02*
Y1213730D01*
X1582750Y1196730D02*
X1592250D01*
X1582750Y1213730D02*
X1592250D01*
X1999310Y1199270D02*
Y1216270D01*
X2008810Y1199270D02*
Y1216270D01*
X1999310Y1199270D02*
X2008810D01*
X1999310Y1216270D02*
X2008810D01*
X1726810Y1145870D02*
Y1155370D01*
X1709810Y1145870D02*
Y1155370D01*
Y1145870D02*
X1726810D01*
X1709810Y1155370D02*
X1726810D01*
X1789760Y1216270D02*
X1799260D01*
X1789760Y1199270D02*
X1799260D01*
Y1216270D01*
X1789760Y1199270D02*
Y1216270D01*
X2216120Y1227880D02*
X2244120D01*
X2216120Y1169880D02*
X2244120D01*
Y1227880D01*
X2216120Y1169880D02*
Y1227880D01*
X2230120Y1193880D02*
Y1203880D01*
X2225120Y1198880D02*
X2235120D01*
X535000Y892810D02*
X544500D01*
X539750Y888060D02*
Y897560D01*
X534250Y880810D02*
Y904810D01*
X545250Y880810D02*
Y904810D01*
X534250Y880810D02*
X545250D01*
X534250Y904810D02*
X545250D01*
X990930Y369690D02*
X1000430D01*
X995680Y364940D02*
Y374440D01*
X1001180Y357690D02*
Y381690D01*
X990180Y357690D02*
Y381690D01*
X1001180D01*
X990180Y357690D02*
X1001180D01*
X1361440Y376250D02*
Y385750D01*
X1356690Y381000D02*
X1366190D01*
X1349440Y375500D02*
X1373440D01*
X1349440Y386500D02*
X1373440D01*
Y375500D02*
Y386500D01*
X1349440Y375500D02*
Y386500D01*
X1361440Y155270D02*
Y164770D01*
X1356690Y160020D02*
X1366190D01*
X1349440Y154520D02*
X1373440D01*
X1349440Y165520D02*
X1373440D01*
Y154520D02*
Y165520D01*
X1349440Y154520D02*
Y165520D01*
X1366520Y557860D02*
Y567360D01*
X1361770Y562610D02*
X1371270D01*
X1354520Y557110D02*
X1378520D01*
X1354520Y568110D02*
X1378520D01*
Y557110D02*
Y568110D01*
X1354520Y557110D02*
Y568110D01*
X1363980Y781380D02*
Y790880D01*
X1359230Y786130D02*
X1368730D01*
X1351980Y780630D02*
X1375980D01*
X1351980Y791630D02*
X1375980D01*
Y780630D02*
Y791630D01*
X1351980Y780630D02*
Y791630D01*
X742010Y1183640D02*
X751510D01*
X746760Y1178890D02*
Y1188390D01*
X741260Y1171640D02*
Y1195640D01*
X752260Y1171640D02*
Y1195640D01*
X741260Y1171640D02*
X752260D01*
X741260Y1195640D02*
X752260D01*
X120980Y1207770D02*
X130480D01*
X125730Y1203020D02*
Y1212520D01*
X120230Y1195770D02*
Y1219770D01*
X131230Y1195770D02*
Y1219770D01*
X120230Y1195770D02*
X131230D01*
X120230Y1219770D02*
X131230D01*
X540080Y1177290D02*
X549580D01*
X544830Y1172540D02*
Y1182040D01*
X539330Y1165290D02*
Y1189290D01*
X550330Y1165290D02*
Y1189290D01*
X539330Y1165290D02*
X550330D01*
X539330Y1189290D02*
X550330D01*
X333070Y1206500D02*
X342570D01*
X337820Y1201750D02*
Y1211250D01*
X332320Y1194500D02*
Y1218500D01*
X343320Y1194500D02*
Y1218500D01*
X332320Y1194500D02*
X343320D01*
X332320Y1218500D02*
X343320D01*
X255150Y1138250D02*
Y1147750D01*
X250400Y1143000D02*
X259900D01*
X243150Y1148500D02*
X267150D01*
X243150Y1137500D02*
X267150D01*
X243150D02*
Y1148500D01*
X267150Y1137500D02*
Y1148500D01*
X674370Y1138250D02*
Y1147750D01*
X669620Y1143000D02*
X679120D01*
X662370Y1148500D02*
X686370D01*
X662370Y1137500D02*
X686370D01*
X662370D02*
Y1148500D01*
X686370Y1137500D02*
Y1148500D01*
X2190830Y1152690D02*
X2200830D01*
X2195830Y1147690D02*
Y1157690D01*
X2209830Y1132690D02*
Y1172690D01*
X2181830Y1132690D02*
Y1172690D01*
X2209830D01*
X2181830Y1132690D02*
X2209830D01*
X1304290Y1143330D02*
Y1152830D01*
X1299540Y1148080D02*
X1309040D01*
X1292290Y1153580D02*
X1316290D01*
X1292290Y1142580D02*
X1316290D01*
X1292290D02*
Y1153580D01*
X1316290Y1142580D02*
Y1153580D01*
X463430Y1139520D02*
Y1149020D01*
X458680Y1144270D02*
X468180D01*
X451430Y1149770D02*
X475430D01*
X451430Y1138770D02*
X475430D01*
X451430D02*
Y1149770D01*
X475430Y1138770D02*
Y1149770D01*
X1503680Y1145870D02*
Y1155370D01*
X1498930Y1150620D02*
X1508430D01*
X1491680Y1156120D02*
X1515680D01*
X1491680Y1145120D02*
X1515680D01*
X1491680D02*
Y1156120D01*
X1515680Y1145120D02*
Y1156120D01*
X1087120Y1142060D02*
Y1151560D01*
X1082370Y1146810D02*
X1091870D01*
X1075120Y1152310D02*
X1099120D01*
X1075120Y1141310D02*
X1099120D01*
X1075120D02*
Y1152310D01*
X1099120Y1141310D02*
Y1152310D01*
X886460Y1143330D02*
Y1152830D01*
X881710Y1148080D02*
X891210D01*
X874460Y1153580D02*
X898460D01*
X874460Y1142580D02*
X898460D01*
X874460D02*
Y1153580D01*
X898460Y1142580D02*
Y1153580D01*
X1931670Y1149680D02*
Y1159180D01*
X1926920Y1154430D02*
X1936420D01*
X1919670Y1159930D02*
X1943670D01*
X1919670Y1148930D02*
X1943670D01*
X1919670D02*
Y1159930D01*
X1943670Y1148930D02*
Y1159930D01*
X1377010Y1210310D02*
X1386510D01*
X1381760Y1205560D02*
Y1215060D01*
X1376260Y1198310D02*
Y1222310D01*
X1387260Y1198310D02*
Y1222310D01*
X1376260Y1198310D02*
X1387260D01*
X1376260Y1222310D02*
X1387260D01*
X1161110Y1205230D02*
X1170610D01*
X1165860Y1200480D02*
Y1209980D01*
X1160360Y1193230D02*
Y1217230D01*
X1171360Y1193230D02*
Y1217230D01*
X1160360Y1193230D02*
X1171360D01*
X1160360Y1217230D02*
X1171360D01*
X956640Y1187570D02*
X966140D01*
X961390Y1182820D02*
Y1192320D01*
X955890Y1175570D02*
Y1199570D01*
X966890Y1175570D02*
Y1199570D01*
X955890Y1175570D02*
X966890D01*
X955890Y1199570D02*
X966890D01*
X270840Y892810D02*
X280340D01*
X275590Y888060D02*
Y897560D01*
X270090Y880810D02*
Y904810D01*
X281090Y880810D02*
Y904810D01*
X270090Y880810D02*
X281090D01*
X270090Y904810D02*
X281090D01*
X1582750Y1205230D02*
X1592250D01*
X1587500Y1200480D02*
Y1209980D01*
X1582000Y1193230D02*
Y1217230D01*
X1593000Y1193230D02*
Y1217230D01*
X1582000Y1193230D02*
X1593000D01*
X1582000Y1217230D02*
X1593000D01*
X1999310Y1207770D02*
X2008810D01*
X2004060Y1203020D02*
Y1212520D01*
X1998560Y1195770D02*
Y1219770D01*
X2009560Y1195770D02*
Y1219770D01*
X1998560Y1195770D02*
X2009560D01*
X1998560Y1219770D02*
X2009560D01*
X1730310Y1145120D02*
Y1156120D01*
X1706310Y1145120D02*
Y1156120D01*
Y1145120D02*
X1730310D01*
X1706310Y1156120D02*
X1730310D01*
X1713560Y1150620D02*
X1723060D01*
X1718310Y1145870D02*
Y1155370D01*
X1789010Y1219770D02*
X1800010D01*
X1789010Y1195770D02*
X1800010D01*
Y1219770D01*
X1789010Y1195770D02*
Y1219770D01*
X1794510Y1203020D02*
Y1212520D01*
X1789760Y1207770D02*
X1799260D01*
D17*
X787920Y693470D02*
G03*
X787920Y693470I-1400J0D01*
G01*
D18*
X2123430Y1295190D02*
Y1491190D01*
X1963430D02*
X2123430D01*
X1963430Y1295190D02*
Y1491190D01*
Y1295190D02*
X2123430D01*
X772763Y1274560D02*
X857763D01*
Y1209560D02*
Y1274560D01*
X772763Y1209560D02*
X857763D01*
X772763D02*
Y1274560D01*
X1310630Y1295190D02*
Y1491190D01*
X1150630D02*
X1310630D01*
X1150630Y1295190D02*
Y1491190D01*
Y1295190D02*
X1310630D01*
X1107430D02*
Y1491190D01*
X947430D02*
X1107430D01*
X947430Y1295190D02*
Y1491190D01*
Y1295190D02*
X1107430D01*
X337830D02*
X497830D01*
X337830D02*
Y1491190D01*
X497830D01*
Y1295190D02*
Y1491190D01*
X883880Y403900D02*
Y612100D01*
X726480D02*
X883880D01*
X726480Y403900D02*
Y612100D01*
Y403900D02*
X883880D01*
X2168450Y918490D02*
Y1004290D01*
X2238450D01*
Y918490D02*
Y1004290D01*
X2168450Y918490D02*
X2238450D01*
X2001560Y1503360D02*
X2108160D01*
X2001560D02*
Y1590360D01*
X2108160D01*
Y1503360D02*
Y1590360D01*
X1795742Y1503360D02*
X1902342D01*
X1795742D02*
Y1590360D01*
X1902342D01*
Y1503360D02*
Y1590360D01*
X1696523Y1503360D02*
Y1590360D01*
X1589924D02*
X1696523D01*
X1589924Y1503360D02*
Y1590360D01*
Y1503360D02*
X1696523D01*
X456520Y850691D02*
Y906691D01*
X351520D02*
X456520D01*
X351520Y850691D02*
Y906691D01*
Y850691D02*
X456520D01*
X1027230Y383430D02*
X1129230D01*
X1027230D02*
Y630030D01*
X1129230D01*
Y383430D02*
Y630030D01*
X96840Y885230D02*
Y991830D01*
X9840Y885230D02*
X96840D01*
X9840D02*
Y991830D01*
X96840D01*
X355640Y18730D02*
Y105730D01*
Y18730D02*
X462240D01*
Y105730D01*
X355640D02*
X462240D01*
X52060Y539220D02*
Y699220D01*
X138060D01*
Y539220D02*
Y699220D01*
X52060Y539220D02*
X138060D01*
X149196Y1503360D02*
X255796D01*
X149196D02*
Y1590360D01*
X255796D01*
Y1503360D02*
Y1590360D01*
X355014Y1503360D02*
X461614D01*
X355014D02*
Y1590360D01*
X461614D01*
Y1503360D02*
Y1590360D01*
X560832Y1503360D02*
X667432D01*
X560832D02*
Y1590360D01*
X667432D01*
Y1503360D02*
Y1590360D01*
X873251Y1503360D02*
Y1590360D01*
X766651D02*
X873251D01*
X766651Y1503360D02*
Y1590360D01*
Y1503360D02*
X873251D01*
X972469D02*
X1079069D01*
X972469D02*
Y1590360D01*
X1079069D01*
Y1503360D02*
Y1590360D01*
X1178287Y1503360D02*
X1284887D01*
X1178287D02*
Y1590360D01*
X1284887D01*
Y1503360D02*
Y1590360D01*
X1384105Y1503360D02*
X1490705D01*
X1384105D02*
Y1590360D01*
X1490705D01*
Y1503360D02*
Y1590360D01*
X1815285Y1209560D02*
Y1274560D01*
Y1209560D02*
X1900285D01*
Y1274560D01*
X1815285D02*
X1900285D01*
X1760230Y1295190D02*
X1920230D01*
X1760230D02*
Y1491190D01*
X1920230D01*
Y1295190D02*
Y1491190D01*
X1606781Y1209560D02*
Y1274560D01*
Y1209560D02*
X1691781D01*
Y1274560D01*
X1606781D02*
X1691781D01*
X1398277Y1209560D02*
Y1274560D01*
Y1209560D02*
X1483277D01*
Y1274560D01*
X1398277D02*
X1483277D01*
X1189772D02*
X1274772D01*
Y1209560D02*
Y1274560D01*
X1189772Y1209560D02*
X1274772D01*
X1189772D02*
Y1274560D01*
X981268D02*
X1066268D01*
Y1209560D02*
Y1274560D01*
X981268Y1209560D02*
X1066268D01*
X981268D02*
Y1274560D01*
X564259Y1209560D02*
Y1274560D01*
Y1209560D02*
X649259D01*
Y1274560D01*
X564259D02*
X649259D01*
X355755D02*
X440755D01*
Y1209560D02*
Y1274560D01*
X355755Y1209560D02*
X440755D01*
X355755D02*
Y1274560D01*
X147250Y1209560D02*
Y1274560D01*
Y1209560D02*
X232250D01*
Y1274560D01*
X147250D02*
X232250D01*
X1192590Y1122690D02*
Y1169990D01*
Y1122690D02*
X1263590D01*
Y1169990D01*
X1192590D02*
X1263590D01*
X152460Y1117610D02*
Y1164910D01*
Y1117610D02*
X223460D01*
Y1164910D01*
X152460D02*
X223460D01*
X363280Y1122592D02*
Y1169893D01*
Y1122592D02*
X434280D01*
Y1169893D01*
X363280D02*
X434280D01*
X569020Y1121420D02*
Y1168720D01*
Y1121420D02*
X640020D01*
Y1168720D01*
X569020D02*
X640020D01*
X777300Y1122690D02*
Y1169990D01*
Y1122690D02*
X848300D01*
Y1169990D01*
X777300D02*
X848300D01*
X1403410Y1121420D02*
Y1168720D01*
Y1121420D02*
X1474410D01*
Y1168720D01*
X1403410D02*
X1474410D01*
X2032060Y1121420D02*
Y1168720D01*
Y1121420D02*
X2103060D01*
Y1168720D01*
X2032060D02*
X2103060D01*
X989390Y1121420D02*
Y1168720D01*
Y1121420D02*
X1060390D01*
Y1168720D01*
X989390D02*
X1060390D01*
X1609150Y1117610D02*
Y1164910D01*
Y1117610D02*
X1680150D01*
Y1164910D01*
X1609150D02*
X1680150D01*
X1830130Y1117610D02*
Y1164910D01*
Y1117610D02*
X1901130D01*
Y1164910D01*
X1830130D02*
X1901130D01*
X2023790Y1274560D02*
X2108790D01*
Y1209560D02*
Y1274560D01*
X2023790Y1209560D02*
X2108790D01*
X2023790D02*
Y1274560D01*
X1314440Y35940D02*
Y121940D01*
X1154440D02*
X1314440D01*
X1154440Y35940D02*
Y121940D01*
Y35940D02*
X1314440D01*
X1353830Y1295190D02*
X1513830D01*
X1353830D02*
Y1491190D01*
X1513830D01*
Y1295190D02*
Y1491190D01*
X1557030Y1295190D02*
X1717030D01*
X1557030D02*
Y1491190D01*
X1717030D01*
Y1295190D02*
Y1491190D01*
X294630Y1295190D02*
Y1491190D01*
X134630D02*
X294630D01*
X134630Y1295190D02*
Y1491190D01*
Y1295190D02*
X294630D01*
X541030D02*
X701030D01*
X541030D02*
Y1491190D01*
X701030D01*
Y1295190D02*
Y1491190D01*
X744230Y1295190D02*
X904230D01*
X744230D02*
Y1491190D01*
X904230D01*
Y1295190D02*
Y1491190D01*
X857450Y90060D02*
Y336660D01*
X755450D02*
X857450D01*
X755450Y90060D02*
Y336660D01*
Y90060D02*
X857450D01*
X2156140Y170220D02*
Y276820D01*
X2243140D01*
Y170220D02*
Y276820D01*
X2156140Y170220D02*
X2243140D01*
X95570Y1003340D02*
Y1109940D01*
X8570Y1003340D02*
X95570D01*
X8570D02*
Y1109940D01*
X95570D01*
X2156140Y518200D02*
Y624800D01*
X2243140D01*
Y518200D02*
Y624800D01*
X2156140Y518200D02*
X2243140D01*
X711520Y697470D02*
Y981470D01*
X1260520D01*
Y697470D02*
Y981470D01*
X711520Y697470D02*
X1260520D01*
X1403559Y217850D02*
Y322850D01*
X1347559Y217850D02*
X1403559D01*
X1347559D02*
Y322850D01*
X1403559D01*
X1406099Y622980D02*
Y727980D01*
X1350099Y622980D02*
X1406099D01*
X1350099D02*
Y727980D01*
X1406099D01*
M02*
