%TF.GenerationSoftware,Altium Limited,Altium Designer,22.1.2 (22)*%
G04 Layer_Color=32768*
%FSLAX45Y45*%
%MOMM*%
%TF.SameCoordinates,97720CCC-B93B-4F85-99AC-C394CD96EF65*%
%TF.FilePolarity,Positive*%
%TF.FileFunction,Other,Mechanical_15*%
%TF.Part,Single*%
G01*
G75*
%TA.AperFunction,NonConductor*%
%ADD80C,0.25400*%
%ADD92C,0.10000*%
%ADD93C,0.05000*%
D80*
X9611999Y6157599D02*
X9612000D01*
X9611999D02*
Y6160100D01*
D92*
X6692600Y2499800D02*
X6972600D01*
X6692600Y1919800D02*
X6972600D01*
Y2499800D01*
X6692600Y1919800D02*
Y2499800D01*
X6832600Y2159800D02*
Y2259800D01*
X6782600Y2209800D02*
X6882600D01*
X-10118600Y-850900D02*
X-10023600D01*
X-10071100Y-898400D02*
Y-803400D01*
X-10126100Y-970900D02*
Y-730900D01*
X-10016100Y-970900D02*
Y-730900D01*
X-10126100Y-970900D02*
X-10016100D01*
X-10126100Y-730900D02*
X-10016100D01*
X-5559300Y-6082100D02*
X-5464300D01*
X-5511800Y-6129600D02*
Y-6034600D01*
X-5456800Y-6202100D02*
Y-5962100D01*
X-5566800Y-6202100D02*
Y-5962100D01*
X-5456800D01*
X-5566800Y-6202100D02*
X-5456800D01*
X-1854200Y-6016500D02*
Y-5921500D01*
X-1901700Y-5969000D02*
X-1806700D01*
X-1974200Y-6024000D02*
X-1734200D01*
X-1974200Y-5914000D02*
X-1734200D01*
Y-6024000D02*
Y-5914000D01*
X-1974200Y-6024000D02*
Y-5914000D01*
X-1854200Y-8226300D02*
Y-8131300D01*
X-1901700Y-8178800D02*
X-1806700D01*
X-1974200Y-8233800D02*
X-1734200D01*
X-1974200Y-8123800D02*
X-1734200D01*
Y-8233800D02*
Y-8123800D01*
X-1974200Y-8233800D02*
Y-8123800D01*
X-1803400Y-4200400D02*
Y-4105400D01*
X-1850900Y-4152900D02*
X-1755900D01*
X-1923400Y-4207900D02*
X-1683400D01*
X-1923400Y-4097900D02*
X-1683400D01*
Y-4207900D02*
Y-4097900D01*
X-1923400Y-4207900D02*
Y-4097900D01*
X-1828800Y-1965200D02*
Y-1870200D01*
X-1876300Y-1917700D02*
X-1781300D01*
X-1948800Y-1972700D02*
X-1708800D01*
X-1948800Y-1862700D02*
X-1708800D01*
Y-1972700D02*
Y-1862700D01*
X-1948800Y-1972700D02*
Y-1862700D01*
X-8048500Y2057400D02*
X-7953500D01*
X-8001000Y2009900D02*
Y2104900D01*
X-8056000Y1937400D02*
Y2177400D01*
X-7946000Y1937400D02*
Y2177400D01*
X-8056000Y1937400D02*
X-7946000D01*
X-8056000Y2177400D02*
X-7946000D01*
X-14258800Y2298700D02*
X-14163800D01*
X-14211301Y2251200D02*
Y2346200D01*
X-14266299Y2178700D02*
Y2418700D01*
X-14156300Y2178700D02*
Y2418700D01*
X-14266299Y2178700D02*
X-14156300D01*
X-14266299Y2418700D02*
X-14156300D01*
X-10067800Y1993900D02*
X-9972800D01*
X-10020300Y1946400D02*
Y2041400D01*
X-10075300Y1873900D02*
Y2113900D01*
X-9965300Y1873900D02*
Y2113900D01*
X-10075300Y1873900D02*
X-9965300D01*
X-10075300Y2113900D02*
X-9965300D01*
X-12137900Y2286000D02*
X-12042900D01*
X-12090400Y2238500D02*
Y2333500D01*
X-12145400Y2166000D02*
Y2406000D01*
X-12035400Y2166000D02*
Y2406000D01*
X-12145400Y2166000D02*
X-12035400D01*
X-12145400Y2406000D02*
X-12035400D01*
X-12917101Y1603500D02*
Y1698500D01*
X-12964600Y1651000D02*
X-12869600D01*
X-13037100Y1706000D02*
X-12797100D01*
X-13037100Y1596000D02*
X-12797100D01*
X-13037100D02*
Y1706000D01*
X-12797100Y1596000D02*
Y1706000D01*
X-8724900Y1603500D02*
Y1698500D01*
X-8772400Y1651000D02*
X-8677400D01*
X-8844900Y1706000D02*
X-8604900D01*
X-8844900Y1596000D02*
X-8604900D01*
X-8844900D02*
Y1706000D01*
X-8604900Y1596000D02*
Y1706000D01*
X6439700Y1747900D02*
X6539700D01*
X6489700Y1697900D02*
Y1797900D01*
X6629700Y1547900D02*
Y1947900D01*
X6349700Y1547900D02*
Y1947900D01*
X6629700D01*
X6349700Y1547900D02*
X6629700D01*
X-2425700Y1654300D02*
Y1749300D01*
X-2473200Y1701800D02*
X-2378200D01*
X-2545700Y1756800D02*
X-2305700D01*
X-2545700Y1646800D02*
X-2305700D01*
X-2545700D02*
Y1756800D01*
X-2305700Y1646800D02*
Y1756800D01*
X-10834300Y1616200D02*
Y1711200D01*
X-10881800Y1663700D02*
X-10786800D01*
X-10954300Y1718700D02*
X-10714300D01*
X-10954300Y1608700D02*
X-10714300D01*
X-10954300D02*
Y1718700D01*
X-10714300Y1608700D02*
Y1718700D01*
X-431800Y1679700D02*
Y1774700D01*
X-479300Y1727200D02*
X-384300D01*
X-551800Y1782200D02*
X-311800D01*
X-551800Y1672200D02*
X-311800D01*
X-551800D02*
Y1782200D01*
X-311800Y1672200D02*
Y1782200D01*
X-4597400Y1641600D02*
Y1736600D01*
X-4644900Y1689100D02*
X-4549900D01*
X-4717400Y1744100D02*
X-4477400D01*
X-4717400Y1634100D02*
X-4477400D01*
X-4717400D02*
Y1744100D01*
X-4477400Y1634100D02*
Y1744100D01*
X-6604000Y1654300D02*
Y1749300D01*
X-6651500Y1701800D02*
X-6556500D01*
X-6724000Y1756800D02*
X-6484000D01*
X-6724000Y1646800D02*
X-6484000D01*
X-6724000D02*
Y1756800D01*
X-6484000Y1646800D02*
Y1756800D01*
X3848100Y1717800D02*
Y1812800D01*
X3800600Y1765300D02*
X3895600D01*
X3728100Y1820300D02*
X3968100D01*
X3728100Y1710300D02*
X3968100D01*
X3728100D02*
Y1820300D01*
X3968100Y1710300D02*
Y1820300D01*
X-1698500Y2324100D02*
X-1603500D01*
X-1651000Y2276600D02*
Y2371600D01*
X-1706000Y2204100D02*
Y2444100D01*
X-1596000Y2204100D02*
Y2444100D01*
X-1706000Y2204100D02*
X-1596000D01*
X-1706000Y2444100D02*
X-1596000D01*
X-3857500Y2273300D02*
X-3762500D01*
X-3810000Y2225800D02*
Y2320800D01*
X-3865000Y2153300D02*
Y2393300D01*
X-3755000Y2153300D02*
Y2393300D01*
X-3865000Y2153300D02*
X-3755000D01*
X-3865000Y2393300D02*
X-3755000D01*
X-5902200Y2096700D02*
X-5807200D01*
X-5854700Y2049200D02*
Y2144200D01*
X-5909700Y1976700D02*
Y2216700D01*
X-5799700Y1976700D02*
Y2216700D01*
X-5909700Y1976700D02*
X-5799700D01*
X-5909700Y2216700D02*
X-5799700D01*
X-12760200Y-850900D02*
X-12665200D01*
X-12712700Y-898400D02*
Y-803400D01*
X-12767700Y-970900D02*
Y-730900D01*
X-12657700Y-970900D02*
Y-730900D01*
X-12767700Y-970900D02*
X-12657700D01*
X-12767700Y-730900D02*
X-12657700D01*
X358900Y2273300D02*
X453900D01*
X406400Y2225800D02*
Y2320800D01*
X351400Y2153300D02*
Y2393300D01*
X461400Y2153300D02*
Y2393300D01*
X351400Y2153300D02*
X461400D01*
X351400Y2393300D02*
X461400D01*
X4524500Y2298700D02*
X4619500D01*
X4572000Y2251200D02*
Y2346200D01*
X4517000Y2178700D02*
Y2418700D01*
X4627000Y2178700D02*
Y2418700D01*
X4517000Y2178700D02*
X4627000D01*
X4517000Y2418700D02*
X4627000D01*
X1834500Y1672200D02*
Y1782200D01*
X1594500Y1672200D02*
Y1782200D01*
Y1672200D02*
X1834500D01*
X1594500Y1782200D02*
X1834500D01*
X1667000Y1727200D02*
X1762000D01*
X1714500Y1679700D02*
Y1774700D01*
X2421500Y2418700D02*
X2531500D01*
X2421500Y2178700D02*
X2531500D01*
Y2418700D01*
X2421500Y2178700D02*
Y2418700D01*
X2476500Y2251200D02*
Y2346200D01*
X2429000Y2298700D02*
X2524000D01*
D93*
X5765700Y3172900D02*
Y5132900D01*
X4165700D02*
X5765700D01*
X4165700Y3172900D02*
Y5132900D01*
Y3172900D02*
X5765700D01*
X-7740966Y2966600D02*
X-6890966D01*
Y2316600D02*
Y2966600D01*
X-7740966Y2316600D02*
X-6890966D01*
X-7740966D02*
Y2966600D01*
X-2362300Y3172900D02*
Y5132900D01*
X-3962300D02*
X-2362300D01*
X-3962300Y3172900D02*
Y5132900D01*
Y3172900D02*
X-2362300D01*
X-4394300D02*
Y5132900D01*
X-5994300D02*
X-4394300D01*
X-5994300Y3172900D02*
Y5132900D01*
Y3172900D02*
X-4394300D01*
X-12090300D02*
X-10490300D01*
X-12090300D02*
Y5132900D01*
X-10490300D01*
Y3172900D02*
Y5132900D01*
X-6629800Y-5740000D02*
Y-3658000D01*
X-8203800D02*
X-6629800D01*
X-8203800Y-5740000D02*
Y-3658000D01*
Y-5740000D02*
X-6629800D01*
X6215900Y-594100D02*
Y263900D01*
X6915900D01*
Y-594100D02*
Y263900D01*
X6215900Y-594100D02*
X6915900D01*
X4546999Y5254600D02*
X5612999D01*
X4546999D02*
Y6124600D01*
X5612999D01*
Y5254600D02*
Y6124600D01*
X2488817Y5254600D02*
X3554817D01*
X2488817D02*
Y6124600D01*
X3554817D01*
Y5254600D02*
Y6124600D01*
X1496635Y5254600D02*
Y6124600D01*
X430635D02*
X1496635D01*
X430635Y5254600D02*
Y6124600D01*
Y5254600D02*
X1496635D01*
X-10903400Y-1272090D02*
Y-712090D01*
X-11953400D02*
X-10903400D01*
X-11953400Y-1272090D02*
Y-712090D01*
Y-1272090D02*
X-10903400D01*
X-5196300Y-5944700D02*
X-4176300D01*
X-5196300D02*
Y-3478700D01*
X-4176300D01*
Y-5944700D02*
Y-3478700D01*
X-14500200Y-926700D02*
Y139300D01*
X-15370200Y-926700D02*
X-14500200D01*
X-15370200D02*
Y139300D01*
X-14500200D01*
X-11912200Y-9591700D02*
Y-8721700D01*
Y-9591700D02*
X-10846200D01*
Y-8721700D01*
X-11912200D02*
X-10846200D01*
X-14948000Y-4386800D02*
Y-2786800D01*
X-14088000D01*
Y-4386800D02*
Y-2786800D01*
X-14948000Y-4386800D02*
X-14088000D01*
X-13976640Y5254600D02*
X-12910640D01*
X-13976640D02*
Y6124600D01*
X-12910640D01*
Y5254600D02*
Y6124600D01*
X-11918457Y5254600D02*
X-10852458D01*
X-11918457D02*
Y6124600D01*
X-10852458D01*
Y5254600D02*
Y6124600D01*
X-9860275Y5254600D02*
X-8794276D01*
X-9860275D02*
Y6124600D01*
X-8794276D01*
Y5254600D02*
Y6124600D01*
X-6736093Y5254600D02*
Y6124600D01*
X-7802093D02*
X-6736093D01*
X-7802093Y5254600D02*
Y6124600D01*
Y5254600D02*
X-6736093D01*
X-5743911D02*
X-4677911D01*
X-5743911D02*
Y6124600D01*
X-4677911D01*
Y5254600D02*
Y6124600D01*
X-3685729Y5254600D02*
X-2619729D01*
X-3685729D02*
Y6124600D01*
X-2619729D01*
Y5254600D02*
Y6124600D01*
X-1627547Y5254600D02*
X-561547D01*
X-1627547D02*
Y6124600D01*
X-561547D01*
Y5254600D02*
Y6124600D01*
X2684255Y2316600D02*
Y2966600D01*
Y2316600D02*
X3534255D01*
Y2966600D01*
X2684255D02*
X3534255D01*
X2133700Y3172900D02*
X3733700D01*
X2133700D02*
Y5132900D01*
X3733700D01*
Y3172900D02*
Y5132900D01*
X599211Y2316600D02*
Y2966600D01*
Y2316600D02*
X1449210D01*
Y2966600D01*
X599211D02*
X1449210D01*
X-1485833Y2316600D02*
Y2966600D01*
Y2316600D02*
X-635834D01*
Y2966600D01*
X-1485833D02*
X-635834D01*
X-3570878D02*
X-2720878D01*
Y2316600D02*
Y2966600D01*
X-3570878Y2316600D02*
X-2720878D01*
X-3570878D02*
Y2966600D01*
X-5655922D02*
X-4805922D01*
Y2316600D02*
Y2966600D01*
X-5655922Y2316600D02*
X-4805922D01*
X-5655922D02*
Y2966600D01*
X-9826010Y2316600D02*
Y2966600D01*
Y2316600D02*
X-8976010D01*
Y2966600D01*
X-9826010D02*
X-8976010D01*
X-11911054D02*
X-11061054D01*
Y2316600D02*
Y2966600D01*
X-11911054Y2316600D02*
X-11061054D01*
X-11911054D02*
Y2966600D01*
X-13996098Y2316600D02*
Y2966600D01*
Y2316600D02*
X-13146098D01*
Y2966600D01*
X-13996098D02*
X-13146098D01*
X-3542700Y1447900D02*
Y1920900D01*
Y1447900D02*
X-2832700D01*
Y1920900D01*
X-3542700D02*
X-2832700D01*
X-13944000Y1397100D02*
Y1870100D01*
Y1397100D02*
X-13234000D01*
Y1870100D01*
X-13944000D02*
X-13234000D01*
X-11835800Y1446925D02*
Y1919925D01*
Y1446925D02*
X-11125800D01*
Y1919925D01*
X-11835800D02*
X-11125800D01*
X-9778400Y1435200D02*
Y1908200D01*
Y1435200D02*
X-9068400D01*
Y1908200D01*
X-9778400D02*
X-9068400D01*
X-7695600Y1447900D02*
Y1920900D01*
Y1447900D02*
X-6985600D01*
Y1920900D01*
X-7695600D02*
X-6985600D01*
X-1434500Y1435200D02*
Y1908200D01*
Y1435200D02*
X-724500D01*
Y1908200D01*
X-1434500D02*
X-724500D01*
X4852000Y1435200D02*
Y1908200D01*
Y1435200D02*
X5562000D01*
Y1908200D01*
X4852000D02*
X5562000D01*
X-5574700Y1435200D02*
Y1908200D01*
Y1435200D02*
X-4864700D01*
Y1908200D01*
X-5574700D02*
X-4864700D01*
X622900Y1397100D02*
Y1870100D01*
Y1397100D02*
X1332900D01*
Y1870100D01*
X622900D02*
X1332900D01*
X2832700Y1397100D02*
Y1870100D01*
Y1397100D02*
X3542700D01*
Y1870100D01*
X2832700D02*
X3542700D01*
X4769299Y2966600D02*
X5619299D01*
Y2316600D02*
Y2966600D01*
X4769299Y2316600D02*
X5619299D01*
X4769299D02*
Y2966600D01*
X-2324200Y-9419600D02*
Y-8559600D01*
X-3924200D02*
X-2324200D01*
X-3924200Y-9419600D02*
Y-8559600D01*
Y-9419600D02*
X-2324200D01*
X-1930300Y3172900D02*
X-330300D01*
X-1930300D02*
Y5132900D01*
X-330300D01*
Y3172900D02*
Y5132900D01*
X101700Y3172900D02*
X1701700D01*
X101700D02*
Y5132900D01*
X1701700D01*
Y3172900D02*
Y5132900D01*
X-12522300Y3172900D02*
Y5132900D01*
X-14122301D02*
X-12522300D01*
X-14122301Y3172900D02*
Y5132900D01*
Y3172900D02*
X-12522300D01*
X-10058300D02*
X-8458300D01*
X-10058300D02*
Y5132900D01*
X-8458300D01*
Y3172900D02*
Y5132900D01*
X-8026300Y3172900D02*
X-6426300D01*
X-8026300D02*
Y5132900D01*
X-6426300D01*
Y3172900D02*
Y5132900D01*
X-6894100Y-8878400D02*
Y-6412400D01*
X-7914100D02*
X-6894100D01*
X-7914100Y-8878400D02*
Y-6412400D01*
Y-8878400D02*
X-6894100D01*
X6092800Y-8076800D02*
Y-7010800D01*
X6962800D01*
Y-8076800D02*
Y-7010800D01*
X6092800Y-8076800D02*
X6962800D01*
X-14512900Y254400D02*
Y1320400D01*
X-15382899Y254400D02*
X-14512900D01*
X-15382899D02*
Y1320400D01*
X-14512900D01*
X6092800Y-4597000D02*
Y-3531000D01*
X6962800D01*
Y-4597000D02*
Y-3531000D01*
X6092800Y-4597000D02*
X6962800D01*
X-8353400Y-2804300D02*
Y35700D01*
X-2863400D01*
Y-2804300D02*
Y35700D01*
X-8353400Y-2804300D02*
X-2863400D01*
X-1433010Y-7600500D02*
Y-6550500D01*
X-1993010Y-7600500D02*
X-1433010D01*
X-1993010D02*
Y-6550500D01*
X-1433010D01*
X-1407610Y-3549200D02*
Y-2499200D01*
X-1967610Y-3549200D02*
X-1407610D01*
X-1967610D02*
Y-2499200D01*
X-1407610D01*
%TF.MD5,672d43c7bc394295408d1cc25ee4cf14*%
M02*
