G04*
G04 #@! TF.GenerationSoftware,Altium Limited,Altium Designer,22.1.2 (22)*
G04*
G04 Layer_Physical_Order=1*
G04 Layer_Color=255*
%FSLAX44Y44*%
%MOMM*%
G71*
G04*
G04 #@! TF.SameCoordinates,E17F41A4-0C7A-49D5-8B51-7FD3D5A7BB14*
G04*
G04*
G04 #@! TF.FilePolarity,Positive*
G04*
G01*
G75*
%ADD11C,0.2000*%
%ADD12C,0.1270*%
%ADD13C,0.2540*%
%ADD16C,0.1000*%
%ADD17C,0.2800*%
%ADD18C,0.0500*%
%ADD19R,2.0000X2.0000*%
%ADD20R,1.5000X1.5000*%
%ADD21R,2.6000X1.2000*%
%ADD22R,0.9000X0.7000*%
%ADD23R,0.7000X0.9000*%
%ADD24R,1.5000X1.5000*%
%ADD25R,2.3000X2.3000*%
%ADD26R,2.6000X1.1000*%
%ADD60C,1.0000*%
%ADD61C,0.3810*%
%ADD62C,4.0000*%
%ADD63C,1.9800*%
%ADD64C,1.9350*%
%ADD65R,1.9800X1.9800*%
%ADD66C,1.4980*%
%ADD67R,1.4980X1.4980*%
%ADD68C,8.0000*%
%ADD69C,1.4000*%
%ADD70C,1.5000*%
%ADD71R,1.5300X1.5300*%
%ADD72C,1.5300*%
%ADD73R,2.0400X2.0400*%
%ADD74C,2.0400*%
%ADD75R,1.6500X1.6500*%
%ADD76C,1.6500*%
%ADD77C,1.3080*%
%ADD78R,1.3080X1.3080*%
%ADD79R,1.6500X1.6500*%
%ADD80C,6.0000*%
%ADD81R,6.0000X6.0000*%
%ADD82R,1.4000X1.4000*%
%ADD83R,6.0000X6.0000*%
%ADD84R,1.5600X1.5600*%
%ADD85C,1.5600*%
%ADD86R,1.3080X1.3080*%
%ADD87C,1.2700*%
G36*
X1191214Y1202570D02*
X1183820D01*
Y1189321D01*
X1182647Y1188835D01*
X1173465Y1198017D01*
Y1198880D01*
X1173206Y1200848D01*
X1172900Y1201587D01*
Y1203770D01*
X1172799D01*
X1172781Y1203775D01*
X1172643Y1203982D01*
X1173259Y1205344D01*
X1173563Y1205384D01*
X1175397Y1206144D01*
X1176972Y1207352D01*
X1180622Y1211002D01*
X1191214D01*
Y1202570D01*
D02*
G37*
G36*
X1609105D02*
X1600380D01*
Y1189321D01*
X1599207Y1188835D01*
X1595105Y1192937D01*
Y1197610D01*
X1594846Y1199578D01*
X1594540Y1200317D01*
Y1203770D01*
X1591858D01*
X1591302Y1204196D01*
X1590611Y1204483D01*
Y1205857D01*
X1591303Y1206144D01*
X1592014Y1206690D01*
X1594540D01*
Y1209015D01*
X1597120Y1211595D01*
X1609105D01*
Y1202570D01*
D02*
G37*
G36*
X2026935Y1203240D02*
X2026265Y1202570D01*
X2016940D01*
Y1189321D01*
X2015767Y1188835D01*
X2011483Y1193119D01*
X2011100Y1194230D01*
X2011100D01*
Y1206310D01*
X2007620D01*
X2006926Y1206961D01*
X2007100Y1208368D01*
X2007863Y1208684D01*
X2008574Y1209230D01*
X2011100D01*
Y1211555D01*
X2011500Y1211955D01*
X2026935D01*
Y1203240D01*
D02*
G37*
G36*
X1821195Y1209700D02*
Y1205780D01*
X1817985Y1202570D01*
X1808660D01*
Y1189321D01*
X1807487Y1188835D01*
X1801550Y1194772D01*
Y1206310D01*
X1798070D01*
X1797376Y1206961D01*
X1797550Y1208368D01*
X1798313Y1208684D01*
X1799024Y1209230D01*
X1801550D01*
Y1210325D01*
X1820570D01*
X1821195Y1209700D01*
D02*
G37*
G36*
X151092Y1211534D02*
X151145Y1211503D01*
Y1202570D01*
X142420D01*
Y1189321D01*
X141247Y1188835D01*
X134605Y1195477D01*
Y1201420D01*
X134346Y1203388D01*
X133586Y1205222D01*
X132770Y1206286D01*
Y1206310D01*
X132752D01*
X132378Y1206798D01*
X130863Y1207960D01*
X130853Y1208090D01*
X131346Y1209230D01*
X132770D01*
Y1211555D01*
X133170Y1211955D01*
X150671D01*
X151092Y1211534D01*
D02*
G37*
G36*
X2261820Y1123950D02*
X2137933D01*
X2137447Y1125123D01*
X2147629Y1135305D01*
X2180290D01*
Y1131150D01*
X2211370D01*
Y1147230D01*
X2180290D01*
Y1143075D01*
X2146020D01*
X2144533Y1142779D01*
X2143273Y1141937D01*
X2125286Y1123950D01*
X2053640D01*
Y1128125D01*
X2053590Y1128375D01*
Y1128630D01*
X2053548Y1128843D01*
X2053450Y1129079D01*
X2053443Y1129116D01*
X2053421Y1129148D01*
X2053161Y1129777D01*
X2052446Y1130491D01*
X2051818Y1130751D01*
X2051786Y1130773D01*
X2051749Y1130780D01*
X2051513Y1130878D01*
X2051300Y1130920D01*
X2051100D01*
Y1141965D01*
X2052273Y1142451D01*
X2058020Y1136705D01*
Y1136664D01*
X2058670Y1134238D01*
X2059926Y1132062D01*
X2061702Y1130286D01*
X2063878Y1129030D01*
X2066304Y1128380D01*
X2068816D01*
X2071242Y1129030D01*
X2073418Y1130286D01*
X2075194Y1132062D01*
X2076450Y1134238D01*
X2077100Y1136664D01*
Y1139176D01*
X2076450Y1141602D01*
X2075194Y1143778D01*
X2073418Y1145554D01*
X2071242Y1146810D01*
X2068816Y1147460D01*
X2068775D01*
X2045986Y1170249D01*
X2044411Y1171457D01*
X2042577Y1172217D01*
X2040609Y1172476D01*
X2032126D01*
X2023285Y1181317D01*
X2023771Y1182490D01*
X2037020D01*
Y1191815D01*
X2039918Y1194712D01*
X2041126Y1196288D01*
X2041886Y1198122D01*
X2042145Y1200090D01*
Y1213972D01*
X2043136Y1215689D01*
X2043820Y1218240D01*
Y1220881D01*
X2043136Y1223431D01*
X2041816Y1225719D01*
X2039948Y1227586D01*
X2037661Y1228906D01*
X2035110Y1229590D01*
X2032469D01*
X2029918Y1228906D01*
X2027631Y1227586D01*
X2027210Y1227165D01*
X2008350D01*
X2006382Y1226906D01*
X2004547Y1226146D01*
X2002972Y1224938D01*
X1999345Y1221310D01*
X1997020D01*
Y1217977D01*
X1996714Y1217238D01*
X1996455Y1215270D01*
X1996714Y1213302D01*
X1997020Y1212563D01*
Y1209230D01*
X1999546D01*
X2000258Y1208684D01*
X2000314Y1208660D01*
X2000314Y1207286D01*
X1998987Y1206736D01*
X1998432Y1206310D01*
X1997020D01*
Y1205016D01*
X1996204Y1203952D01*
X1995444Y1202118D01*
X1995185Y1200150D01*
Y1191057D01*
X1995444Y1189089D01*
X1996204Y1187254D01*
X1997412Y1185679D01*
X2023598Y1159493D01*
X2025173Y1158285D01*
X2027007Y1157525D01*
X2028976Y1157266D01*
X2037459D01*
X2046091Y1148633D01*
X2045605Y1147460D01*
X2034463D01*
X2034462Y1147461D01*
X2034413Y1147711D01*
X2034271Y1147924D01*
X2034173Y1148159D01*
X2034144Y1148204D01*
X2034143Y1148204D01*
X2033963Y1148384D01*
X2033851Y1148552D01*
X2033684Y1148663D01*
X2033429Y1148919D01*
X2033096Y1149057D01*
X2033011Y1149113D01*
X2032911Y1149133D01*
X2032777Y1149189D01*
X2032756Y1149203D01*
X2032731Y1149208D01*
X2032495Y1149305D01*
X2032270Y1149350D01*
X2032015D01*
X2031765Y1149400D01*
X2025905D01*
X2025655Y1149350D01*
X2025400D01*
X2025187Y1149308D01*
X2024951Y1149210D01*
X2024914Y1149203D01*
X2024882Y1149181D01*
X2024254Y1148921D01*
X2023539Y1148206D01*
X2023279Y1147578D01*
X2023257Y1147546D01*
X2023250Y1147509D01*
X2023152Y1147273D01*
X2023110Y1147060D01*
Y1146805D01*
X2023060Y1146555D01*
Y1123950D01*
X1895479D01*
X1895312Y1125220D01*
X1895312Y1125220D01*
X1897488Y1126476D01*
X1899264Y1128252D01*
X1900520Y1130428D01*
X1901170Y1132854D01*
Y1132895D01*
X1916957Y1148681D01*
X1918130Y1148195D01*
Y1147390D01*
X1922900D01*
Y1154430D01*
Y1161470D01*
X1920735D01*
Y1163930D01*
X1938025Y1181220D01*
X1947350D01*
Y1201300D01*
X1945630D01*
Y1238180D01*
X1952780D01*
Y1266260D01*
X1946345D01*
Y1293680D01*
X1946086Y1295648D01*
X1945641Y1296723D01*
X1945326Y1297482D01*
X1944118Y1299058D01*
X1912660Y1330515D01*
X1912670Y1330552D01*
Y1333828D01*
X1911822Y1336992D01*
X1910184Y1339828D01*
X1907868Y1342144D01*
X1905032Y1343782D01*
X1901868Y1344630D01*
X1898592D01*
X1895428Y1343782D01*
X1892592Y1342144D01*
X1890276Y1339828D01*
X1888638Y1336992D01*
X1887790Y1333828D01*
Y1330552D01*
X1888638Y1327388D01*
X1890276Y1324552D01*
X1892592Y1322236D01*
X1895428Y1320598D01*
X1898592Y1319750D01*
X1901868D01*
X1901905Y1319760D01*
X1931135Y1290530D01*
Y1266260D01*
X1924700D01*
Y1238180D01*
X1930420D01*
Y1201300D01*
X1927270D01*
Y1191975D01*
X1907752Y1172458D01*
X1906544Y1170882D01*
X1905784Y1169048D01*
X1905525Y1167080D01*
Y1158760D01*
X1890415Y1143650D01*
X1890374D01*
X1887948Y1143000D01*
X1885772Y1141744D01*
X1883996Y1139968D01*
X1882740Y1137792D01*
X1882090Y1135366D01*
Y1132854D01*
X1882740Y1130428D01*
X1883996Y1128252D01*
X1885772Y1126476D01*
X1887948Y1125220D01*
X1887948Y1125220D01*
X1887781Y1123950D01*
X1877911D01*
X1877425Y1125123D01*
X1879187Y1126886D01*
X1880029Y1128146D01*
X1880325Y1129632D01*
Y1177661D01*
X1885835Y1183171D01*
X1888378Y1182490D01*
X1891022D01*
X1893575Y1183174D01*
X1895865Y1184496D01*
X1897734Y1186365D01*
X1899056Y1188655D01*
X1899740Y1191208D01*
Y1193852D01*
X1899056Y1196405D01*
X1897734Y1198695D01*
X1895865Y1200564D01*
X1893575Y1201886D01*
X1891022Y1202570D01*
X1888378D01*
X1885825Y1201886D01*
X1883535Y1200564D01*
X1881666Y1198695D01*
X1880344Y1196405D01*
X1879660Y1193852D01*
Y1191208D01*
X1880341Y1188665D01*
X1873693Y1182017D01*
X1872851Y1180757D01*
X1872555Y1179270D01*
Y1142280D01*
X1871285Y1141861D01*
X1869312Y1143000D01*
X1866886Y1143650D01*
X1866845D01*
X1841517Y1168979D01*
X1839942Y1170187D01*
X1838107Y1170947D01*
X1836139Y1171206D01*
X1825116D01*
X1815005Y1181317D01*
X1815491Y1182490D01*
X1828740D01*
Y1191815D01*
X1834178Y1197252D01*
X1835386Y1198828D01*
X1835701Y1199587D01*
X1836146Y1200662D01*
X1836405Y1202630D01*
Y1212850D01*
X1836146Y1214818D01*
X1835701Y1215893D01*
X1835386Y1216653D01*
X1835019Y1217132D01*
X1835316Y1218240D01*
Y1220881D01*
X1834632Y1223431D01*
X1833311Y1225719D01*
X1831444Y1227586D01*
X1829157Y1228906D01*
X1826606Y1229590D01*
X1823965D01*
X1821414Y1228906D01*
X1819127Y1227586D01*
X1817260Y1225719D01*
X1817153Y1225535D01*
X1797170D01*
X1795202Y1225276D01*
X1793367Y1224516D01*
X1791792Y1223308D01*
X1789795Y1221310D01*
X1787470D01*
Y1217977D01*
X1787164Y1217238D01*
X1786905Y1215270D01*
X1787164Y1213302D01*
X1787470Y1212563D01*
Y1209230D01*
X1789996D01*
X1790708Y1208684D01*
X1790764Y1208660D01*
X1790764Y1207286D01*
X1789438Y1206736D01*
X1788882Y1206310D01*
X1787470D01*
Y1205016D01*
X1786654Y1203952D01*
X1785894Y1202118D01*
X1785635Y1200150D01*
Y1192327D01*
X1785894Y1190359D01*
X1786654Y1188524D01*
X1787862Y1186949D01*
X1816588Y1158223D01*
X1818163Y1157015D01*
X1818923Y1156700D01*
X1819997Y1156255D01*
X1821966Y1155996D01*
X1832989D01*
X1844162Y1144823D01*
X1843676Y1143650D01*
X1830090D01*
Y1124570D01*
X1829077Y1123950D01*
X1674499D01*
X1674332Y1125220D01*
X1674332Y1125220D01*
X1676508Y1126476D01*
X1678284Y1128252D01*
X1679540Y1130428D01*
X1680190Y1132854D01*
Y1132895D01*
X1703597Y1156301D01*
X1704770Y1155816D01*
Y1151890D01*
X1709540D01*
Y1157660D01*
X1706615D01*
X1706129Y1158833D01*
X1726548Y1179252D01*
X1727756Y1180827D01*
X1728516Y1182662D01*
X1728775Y1184630D01*
Y1192650D01*
X1733710D01*
Y1212730D01*
X1731950D01*
Y1247070D01*
X1739060D01*
Y1275150D01*
X1732625D01*
Y1304200D01*
X1732366Y1306168D01*
X1731921Y1307243D01*
X1731606Y1308002D01*
X1730398Y1309578D01*
X1709460Y1330515D01*
X1709470Y1330552D01*
Y1333828D01*
X1708622Y1336992D01*
X1706985Y1339828D01*
X1704668Y1342144D01*
X1701832Y1343782D01*
X1698668Y1344630D01*
X1695392D01*
X1692228Y1343782D01*
X1689392Y1342144D01*
X1687076Y1339828D01*
X1685438Y1336992D01*
X1684590Y1333828D01*
Y1330552D01*
X1685438Y1327388D01*
X1687076Y1324552D01*
X1689392Y1322236D01*
X1692228Y1320598D01*
X1695392Y1319750D01*
X1698668D01*
X1698705Y1319760D01*
X1717415Y1301050D01*
Y1275150D01*
X1710980D01*
Y1247070D01*
X1716740D01*
Y1212730D01*
X1713630D01*
Y1200964D01*
X1713565Y1200470D01*
Y1187780D01*
X1669435Y1143650D01*
X1669394D01*
X1666968Y1143000D01*
X1664995Y1141861D01*
X1663725Y1142280D01*
Y1169341D01*
X1677555Y1183171D01*
X1680098Y1182490D01*
X1682742D01*
X1685295Y1183174D01*
X1687585Y1184496D01*
X1689454Y1186365D01*
X1690776Y1188655D01*
X1691460Y1191208D01*
Y1193852D01*
X1690776Y1196405D01*
X1689454Y1198695D01*
X1687585Y1200564D01*
X1685295Y1201886D01*
X1682742Y1202570D01*
X1680098D01*
X1677545Y1201886D01*
X1675255Y1200564D01*
X1673386Y1198695D01*
X1672064Y1196405D01*
X1671380Y1193852D01*
Y1191208D01*
X1672061Y1188665D01*
X1657093Y1173697D01*
X1656251Y1172437D01*
X1655955Y1170950D01*
Y1130807D01*
X1654228Y1129080D01*
X1653212Y1129859D01*
X1653540Y1130428D01*
X1654190Y1132854D01*
Y1135366D01*
X1653540Y1137792D01*
X1652284Y1139968D01*
X1650508Y1141744D01*
X1648332Y1143000D01*
X1645906Y1143650D01*
X1645865D01*
X1621806Y1167709D01*
X1620231Y1168917D01*
X1618397Y1169677D01*
X1618360Y1169682D01*
X1606725Y1181317D01*
X1607211Y1182490D01*
X1620460D01*
Y1191815D01*
X1622088Y1193442D01*
X1623296Y1195017D01*
X1623611Y1195777D01*
X1624056Y1196852D01*
X1624315Y1198820D01*
Y1212909D01*
X1624807Y1213401D01*
X1626127Y1215689D01*
X1626811Y1218240D01*
Y1220881D01*
X1626127Y1223431D01*
X1624807Y1225719D01*
X1622940Y1227586D01*
X1620652Y1228906D01*
X1618102Y1229590D01*
X1615461D01*
X1612910Y1228906D01*
X1610623Y1227586D01*
X1609842Y1226805D01*
X1593970D01*
X1592002Y1226546D01*
X1590168Y1225786D01*
X1588593Y1224578D01*
X1582785Y1218770D01*
X1580460D01*
Y1215437D01*
X1580154Y1214698D01*
X1579895Y1212730D01*
X1580154Y1210762D01*
X1580460Y1210023D01*
Y1206690D01*
X1582986D01*
X1583698Y1206144D01*
X1584389Y1205857D01*
Y1204483D01*
X1583698Y1204196D01*
X1583142Y1203770D01*
X1580460D01*
Y1200317D01*
X1580154Y1199578D01*
X1579895Y1197610D01*
Y1189787D01*
X1580154Y1187819D01*
X1580914Y1185984D01*
X1582122Y1184409D01*
X1609578Y1156954D01*
X1611153Y1155745D01*
X1612987Y1154985D01*
X1613025Y1154980D01*
X1623181Y1144823D01*
X1622695Y1143650D01*
X1609110D01*
Y1125295D01*
X1609110Y1124570D01*
X1608066Y1124025D01*
X1536700D01*
X1536325Y1123950D01*
X1447381D01*
X1446895Y1125123D01*
X1455086Y1133315D01*
X1456673Y1133106D01*
X1457276Y1132062D01*
X1459052Y1130286D01*
X1461228Y1129030D01*
X1463654Y1128380D01*
X1466166D01*
X1468592Y1129030D01*
X1470768Y1130286D01*
X1472544Y1132062D01*
X1473800Y1134238D01*
X1474450Y1136664D01*
Y1136798D01*
X1488967Y1151315D01*
X1490140Y1150829D01*
Y1143580D01*
X1494910D01*
Y1150620D01*
X1496180D01*
Y1151890D01*
X1502220D01*
Y1157660D01*
X1496971D01*
X1496485Y1158833D01*
X1515408Y1177756D01*
X1516616Y1179331D01*
X1517376Y1181165D01*
X1517635Y1183133D01*
Y1188840D01*
X1519080D01*
Y1208920D01*
X1516050D01*
Y1239450D01*
X1521890D01*
Y1267530D01*
X1515455D01*
Y1315518D01*
X1515196Y1317487D01*
X1514436Y1319321D01*
X1513228Y1320896D01*
X1505700Y1328424D01*
X1506270Y1330552D01*
Y1333828D01*
X1505422Y1336992D01*
X1503784Y1339828D01*
X1501468Y1342144D01*
X1498632Y1343782D01*
X1495468Y1344630D01*
X1492192D01*
X1489028Y1343782D01*
X1486192Y1342144D01*
X1483875Y1339828D01*
X1482238Y1336992D01*
X1481390Y1333828D01*
Y1330552D01*
X1482238Y1327388D01*
X1483875Y1324552D01*
X1486192Y1322236D01*
X1489028Y1320598D01*
X1492192Y1319750D01*
X1492863D01*
X1500245Y1312368D01*
Y1267530D01*
X1493810D01*
Y1239450D01*
X1500840D01*
Y1208920D01*
X1499000D01*
Y1188840D01*
X1502425D01*
Y1186283D01*
X1463582Y1147441D01*
X1461228Y1146810D01*
X1459255Y1145671D01*
X1457985Y1146090D01*
Y1171881D01*
X1469275Y1183171D01*
X1471818Y1182490D01*
X1474462D01*
X1477015Y1183174D01*
X1479305Y1184496D01*
X1481174Y1186365D01*
X1482496Y1188655D01*
X1483180Y1191208D01*
Y1193852D01*
X1482496Y1196405D01*
X1481174Y1198695D01*
X1479305Y1200564D01*
X1477015Y1201886D01*
X1474462Y1202570D01*
X1471818D01*
X1469265Y1201886D01*
X1466975Y1200564D01*
X1465106Y1198695D01*
X1463784Y1196405D01*
X1463100Y1193852D01*
Y1191208D01*
X1463781Y1188665D01*
X1451353Y1176237D01*
X1450511Y1174977D01*
X1450215Y1173490D01*
Y1139865D01*
X1449571Y1139385D01*
X1448255Y1139902D01*
X1447800Y1141602D01*
X1446544Y1143778D01*
X1444768Y1145554D01*
X1442592Y1146810D01*
X1440166Y1147460D01*
X1440125D01*
X1421911Y1165674D01*
X1420336Y1166882D01*
X1418502Y1167642D01*
X1416534Y1167901D01*
X1411861D01*
X1398445Y1181317D01*
X1398931Y1182490D01*
X1412180D01*
Y1191815D01*
X1415078Y1194712D01*
X1416286Y1196288D01*
X1417046Y1198122D01*
X1417305Y1200090D01*
Y1202690D01*
X1417046Y1204658D01*
X1416835Y1205169D01*
Y1214323D01*
X1417623Y1215689D01*
X1418307Y1218240D01*
Y1220881D01*
X1417623Y1223431D01*
X1416303Y1225719D01*
X1414435Y1227586D01*
X1412148Y1228906D01*
X1409597Y1229590D01*
X1406956D01*
X1404405Y1228906D01*
X1402118Y1227586D01*
X1400744Y1226212D01*
X1385976D01*
X1384008Y1225953D01*
X1382709Y1225415D01*
X1381760D01*
X1379792Y1225156D01*
X1377957Y1224396D01*
X1377246Y1223850D01*
X1374720D01*
Y1220517D01*
X1374414Y1219778D01*
X1374155Y1217810D01*
X1374414Y1215842D01*
X1374720Y1215103D01*
Y1211770D01*
X1377246D01*
X1377957Y1211224D01*
X1378014Y1211200D01*
Y1209826D01*
X1376687Y1209276D01*
X1376132Y1208850D01*
X1374720D01*
Y1207556D01*
X1373904Y1206492D01*
X1373144Y1204658D01*
X1372885Y1202690D01*
Y1188517D01*
X1373144Y1186548D01*
X1373904Y1184714D01*
X1375112Y1183139D01*
X1403333Y1154919D01*
X1404908Y1153710D01*
X1406742Y1152950D01*
X1408711Y1152691D01*
X1413384D01*
X1417442Y1148633D01*
X1416956Y1147460D01*
X1403370D01*
Y1128380D01*
X1422450D01*
Y1141965D01*
X1423623Y1142451D01*
X1429370Y1136705D01*
Y1136664D01*
X1430020Y1134238D01*
X1431276Y1132062D01*
X1433052Y1130286D01*
X1435228Y1129030D01*
X1437428Y1128440D01*
X1438030Y1127246D01*
X1434734Y1123950D01*
X1235291D01*
X1234805Y1125123D01*
X1242267Y1132586D01*
X1243109Y1133846D01*
X1243405Y1135332D01*
Y1137302D01*
X1244675Y1137469D01*
X1245200Y1135508D01*
X1246456Y1133332D01*
X1248232Y1131556D01*
X1250408Y1130300D01*
X1252834Y1129650D01*
X1255346D01*
X1257772Y1130300D01*
X1259948Y1131556D01*
X1261724Y1133332D01*
X1262980Y1135508D01*
X1263630Y1137934D01*
Y1137975D01*
X1311955Y1186300D01*
X1323500D01*
Y1206380D01*
X1319835D01*
Y1240720D01*
X1325040D01*
Y1268800D01*
X1318605D01*
Y1311820D01*
X1318346Y1313788D01*
X1317901Y1314863D01*
X1317586Y1315623D01*
X1316378Y1317198D01*
X1303060Y1330515D01*
X1303070Y1330552D01*
Y1333828D01*
X1302222Y1336992D01*
X1300585Y1339828D01*
X1298268Y1342144D01*
X1295432Y1343782D01*
X1292268Y1344630D01*
X1288992D01*
X1285828Y1343782D01*
X1282992Y1342144D01*
X1280676Y1339828D01*
X1279038Y1336992D01*
X1278190Y1333828D01*
Y1330552D01*
X1279038Y1327388D01*
X1280676Y1324552D01*
X1282992Y1322236D01*
X1285828Y1320598D01*
X1288992Y1319750D01*
X1292268D01*
X1292305Y1319760D01*
X1303395Y1308670D01*
Y1268800D01*
X1296960D01*
Y1240720D01*
X1304625D01*
Y1206380D01*
X1303420D01*
Y1199262D01*
X1303362Y1199218D01*
X1252875Y1148730D01*
X1252834D01*
X1250408Y1148080D01*
X1248232Y1146824D01*
X1246456Y1145048D01*
X1245200Y1142872D01*
X1244675Y1140911D01*
X1243405Y1141078D01*
Y1165581D01*
X1260995Y1183171D01*
X1263538Y1182490D01*
X1266182D01*
X1268735Y1183174D01*
X1271025Y1184496D01*
X1272894Y1186365D01*
X1274216Y1188655D01*
X1274900Y1191208D01*
Y1193852D01*
X1274216Y1196405D01*
X1272894Y1198695D01*
X1271025Y1200564D01*
X1268735Y1201886D01*
X1266182Y1202570D01*
X1263538D01*
X1260985Y1201886D01*
X1258695Y1200564D01*
X1256826Y1198695D01*
X1255504Y1196405D01*
X1254820Y1193852D01*
Y1191208D01*
X1255501Y1188665D01*
X1236773Y1169937D01*
X1235931Y1168677D01*
X1235635Y1167190D01*
Y1146796D01*
X1234462Y1146310D01*
X1233948Y1146824D01*
X1231772Y1148080D01*
X1229346Y1148730D01*
X1229305D01*
X1205247Y1172789D01*
X1203671Y1173997D01*
X1201837Y1174757D01*
X1199869Y1175016D01*
X1196466D01*
X1190165Y1181317D01*
X1190651Y1182490D01*
X1203900D01*
Y1191815D01*
X1204197Y1192112D01*
X1205406Y1193687D01*
X1206165Y1195521D01*
X1206424Y1197489D01*
Y1212028D01*
X1207798Y1213401D01*
X1209119Y1215689D01*
X1209802Y1218240D01*
Y1220881D01*
X1209119Y1223431D01*
X1207798Y1225719D01*
X1205931Y1227586D01*
X1203644Y1228906D01*
X1201093Y1229590D01*
X1198452D01*
X1195901Y1228906D01*
X1193614Y1227586D01*
X1192240Y1226212D01*
X1177472D01*
X1175503Y1225953D01*
X1173669Y1225193D01*
X1172094Y1223985D01*
X1168445Y1220335D01*
X1165860D01*
X1163892Y1220076D01*
X1162057Y1219316D01*
X1161346Y1218770D01*
X1158820D01*
Y1215437D01*
X1158514Y1214698D01*
X1158255Y1212730D01*
X1158514Y1210762D01*
X1158820Y1210023D01*
Y1206690D01*
X1160349D01*
X1160936Y1206103D01*
X1160829Y1204524D01*
X1160482Y1204258D01*
X1160108Y1203770D01*
X1158820D01*
Y1201587D01*
X1158514Y1200848D01*
X1158255Y1198880D01*
Y1194867D01*
X1158514Y1192898D01*
X1158820Y1192160D01*
Y1191690D01*
X1159015D01*
X1159274Y1191064D01*
X1160482Y1189489D01*
X1187938Y1162033D01*
X1189513Y1160825D01*
X1191347Y1160065D01*
X1193316Y1159806D01*
X1196719D01*
X1206621Y1149903D01*
X1206135Y1148730D01*
X1192550D01*
Y1129650D01*
X1211630D01*
Y1143235D01*
X1212803Y1143721D01*
X1218550Y1137975D01*
Y1137934D01*
X1219200Y1135508D01*
X1220456Y1133332D01*
X1222232Y1131556D01*
X1224408Y1130300D01*
X1226608Y1129710D01*
X1227210Y1128516D01*
X1222719Y1124025D01*
X1129030D01*
X1128655Y1123950D01*
X1044015D01*
Y1129685D01*
X1045285Y1130140D01*
X1047208Y1129030D01*
X1049634Y1128380D01*
X1052146D01*
X1054572Y1129030D01*
X1056748Y1130286D01*
X1058524Y1132062D01*
X1059780Y1134238D01*
X1060430Y1136664D01*
Y1136705D01*
X1072407Y1148681D01*
X1073580Y1148195D01*
Y1148080D01*
X1079620D01*
X1085660D01*
Y1153850D01*
X1079234D01*
X1078748Y1155023D01*
X1094088Y1170362D01*
X1095296Y1171937D01*
X1095611Y1172697D01*
X1096056Y1173772D01*
X1096315Y1175740D01*
Y1186300D01*
X1101250D01*
Y1206380D01*
X1099490D01*
Y1240720D01*
X1106600D01*
Y1268800D01*
X1100165D01*
Y1324408D01*
X1099906Y1326376D01*
X1099205Y1328069D01*
X1099870Y1330552D01*
Y1333828D01*
X1099022Y1336992D01*
X1097384Y1339828D01*
X1095068Y1342144D01*
X1092232Y1343782D01*
X1089068Y1344630D01*
X1085792D01*
X1082628Y1343782D01*
X1079792Y1342144D01*
X1077476Y1339828D01*
X1075838Y1336992D01*
X1074990Y1333828D01*
Y1330552D01*
X1075838Y1327388D01*
X1077476Y1324552D01*
X1079792Y1322236D01*
X1082628Y1320598D01*
X1084955Y1319974D01*
Y1268800D01*
X1078520D01*
Y1240720D01*
X1084280D01*
Y1206380D01*
X1081170D01*
Y1194334D01*
X1081105Y1193840D01*
Y1178890D01*
X1049675Y1147460D01*
X1049634D01*
X1047208Y1146810D01*
X1046431Y1146361D01*
X1045651Y1147377D01*
X1049481Y1151208D01*
X1049482Y1151208D01*
X1059387Y1161114D01*
X1060229Y1162374D01*
X1060525Y1163860D01*
Y1167130D01*
X1060465Y1167432D01*
Y1183180D01*
X1062745Y1184496D01*
X1064614Y1186365D01*
X1065936Y1188655D01*
X1066620Y1191208D01*
Y1193852D01*
X1065936Y1196405D01*
X1064614Y1198695D01*
X1062745Y1200564D01*
X1060455Y1201886D01*
X1057902Y1202570D01*
X1055258D01*
X1052705Y1201886D01*
X1050415Y1200564D01*
X1048546Y1198695D01*
X1047224Y1196405D01*
X1046540Y1193852D01*
Y1191208D01*
X1047224Y1188655D01*
X1048546Y1186365D01*
X1050415Y1184496D01*
X1052695Y1183180D01*
Y1167130D01*
X1052755Y1166828D01*
Y1165469D01*
X1043988Y1156702D01*
X1043988Y1156702D01*
X1037383Y1150097D01*
X1036541Y1148837D01*
X1036245Y1147350D01*
Y1138958D01*
X1036266Y1138852D01*
X1036144Y1137920D01*
X1036266Y1136988D01*
X1036245Y1136882D01*
Y1123950D01*
X975774D01*
X964137Y1135587D01*
X962877Y1136429D01*
X961390Y1136725D01*
X869019D01*
X852185Y1153559D01*
Y1183180D01*
X854465Y1184496D01*
X856334Y1186365D01*
X857656Y1188655D01*
X858340Y1191208D01*
Y1193852D01*
X857656Y1196405D01*
X856334Y1198695D01*
X854465Y1200564D01*
X852175Y1201886D01*
X849622Y1202570D01*
X846978D01*
X844425Y1201886D01*
X842135Y1200564D01*
X841512Y1199940D01*
X840339Y1200426D01*
Y1211141D01*
X841512Y1211627D01*
X841605Y1211534D01*
X843892Y1210213D01*
X846443Y1209530D01*
X849084D01*
X851635Y1210213D01*
X853922Y1211534D01*
X855789Y1213401D01*
X857110Y1215689D01*
X857793Y1218240D01*
Y1220881D01*
X857518Y1221909D01*
X857881Y1222400D01*
X858560Y1222927D01*
X860264Y1222703D01*
X874708D01*
X876676Y1222962D01*
X878510Y1223722D01*
X880085Y1224930D01*
X886077Y1230921D01*
X887250Y1230435D01*
Y1203840D01*
X884320D01*
Y1183760D01*
X904400D01*
Y1203840D01*
X902460D01*
Y1236910D01*
X909390D01*
Y1264990D01*
X902955D01*
Y1318418D01*
X902696Y1320387D01*
X902251Y1321461D01*
X901936Y1322221D01*
X900728Y1323796D01*
X896100Y1328424D01*
X896670Y1330552D01*
Y1333828D01*
X895822Y1336992D01*
X894184Y1339828D01*
X891868Y1342144D01*
X889032Y1343782D01*
X885868Y1344630D01*
X882592D01*
X879428Y1343782D01*
X876592Y1342144D01*
X874276Y1339828D01*
X872638Y1336992D01*
X871790Y1333828D01*
Y1330552D01*
X872638Y1327388D01*
X874276Y1324552D01*
X876592Y1322236D01*
X879428Y1320598D01*
X882592Y1319750D01*
X883263D01*
X887745Y1315268D01*
Y1264990D01*
X881310D01*
Y1247665D01*
X871558Y1237913D01*
X863414D01*
X861359Y1239968D01*
X859784Y1241176D01*
X857950Y1241936D01*
X855982Y1242195D01*
X841538D01*
X839569Y1241936D01*
X837735Y1241176D01*
X836160Y1239968D01*
X827356Y1231163D01*
X826147Y1229588D01*
X825387Y1227754D01*
X825128Y1225786D01*
Y1145927D01*
X825387Y1143958D01*
X826147Y1142124D01*
X827356Y1140549D01*
X829012Y1138892D01*
X829260Y1138702D01*
Y1137934D01*
X829910Y1135508D01*
X831166Y1133332D01*
X832942Y1131556D01*
X835118Y1130300D01*
X837544Y1129650D01*
X840056D01*
X842482Y1130300D01*
X844658Y1131556D01*
X846434Y1133332D01*
X847690Y1135508D01*
X848340Y1137934D01*
Y1140446D01*
X847690Y1142872D01*
X846434Y1145048D01*
X844658Y1146824D01*
X842482Y1148080D01*
X840579Y1148590D01*
X840339Y1148904D01*
Y1184633D01*
X841512Y1185119D01*
X842135Y1184496D01*
X844415Y1183180D01*
Y1151950D01*
X844711Y1150463D01*
X845553Y1149203D01*
X864663Y1130093D01*
X865923Y1129251D01*
X867410Y1128955D01*
X959781D01*
X963613Y1125123D01*
X963127Y1123950D01*
X634696D01*
X631400Y1127246D01*
X632002Y1128440D01*
X634202Y1129030D01*
X636378Y1130286D01*
X638154Y1132062D01*
X639410Y1134238D01*
X640060Y1136664D01*
Y1136705D01*
X677528Y1174172D01*
X678736Y1175748D01*
X679051Y1176507D01*
X679496Y1177582D01*
X679641Y1178680D01*
X684690D01*
Y1198760D01*
X682930D01*
Y1234370D01*
X690040D01*
Y1262450D01*
X683605D01*
Y1320001D01*
X685832Y1320598D01*
X688668Y1322236D01*
X690984Y1324552D01*
X692622Y1327388D01*
X693470Y1330552D01*
Y1333828D01*
X692622Y1336992D01*
X690984Y1339828D01*
X688668Y1342144D01*
X685832Y1343782D01*
X682668Y1344630D01*
X679392D01*
X676228Y1343782D01*
X673392Y1342144D01*
X671076Y1339828D01*
X669438Y1336992D01*
X668590Y1333828D01*
Y1330552D01*
X669278Y1327984D01*
X668654Y1326476D01*
X668395Y1324508D01*
Y1262450D01*
X661960D01*
Y1234370D01*
X667720D01*
Y1198760D01*
X664610D01*
Y1186714D01*
X664545Y1186220D01*
Y1182700D01*
X629305Y1147460D01*
X629264D01*
X626838Y1146810D01*
X624662Y1145554D01*
X622886Y1143778D01*
X622375Y1142892D01*
X621105Y1143232D01*
Y1168121D01*
X636155Y1183171D01*
X638698Y1182490D01*
X641342D01*
X643895Y1183174D01*
X646185Y1184496D01*
X648054Y1186365D01*
X649376Y1188655D01*
X650060Y1191208D01*
Y1193852D01*
X649376Y1196405D01*
X648054Y1198695D01*
X646185Y1200564D01*
X643895Y1201886D01*
X641342Y1202570D01*
X638698D01*
X636145Y1201886D01*
X633855Y1200564D01*
X631986Y1198695D01*
X630664Y1196405D01*
X629980Y1193852D01*
Y1191208D01*
X630661Y1188665D01*
X614473Y1172477D01*
X613631Y1171217D01*
X613335Y1169730D01*
Y1144094D01*
X612728Y1143932D01*
X612065Y1143866D01*
X610378Y1145554D01*
X608202Y1146810D01*
X605776Y1147460D01*
X605735D01*
X589578Y1163618D01*
X588003Y1164826D01*
X586168Y1165586D01*
X584200Y1165845D01*
X553838D01*
X552435Y1167248D01*
Y1168400D01*
X552176Y1170368D01*
X551870Y1171107D01*
Y1175830D01*
X546160D01*
X545214Y1175955D01*
Y1177235D01*
X545690Y1177298D01*
X546798Y1177444D01*
X548633Y1178204D01*
X549344Y1178750D01*
X551870D01*
Y1181075D01*
X554450Y1183655D01*
X558980D01*
Y1182490D01*
X579060D01*
Y1191852D01*
X580146Y1193268D01*
X580906Y1195102D01*
X581165Y1197070D01*
Y1212281D01*
X582285Y1213401D01*
X583605Y1215689D01*
X584289Y1218240D01*
Y1220881D01*
X583605Y1223431D01*
X582285Y1225719D01*
X580418Y1227586D01*
X578130Y1228906D01*
X575579Y1229590D01*
X572938D01*
X570388Y1228906D01*
X568100Y1227586D01*
X566233Y1225719D01*
X564912Y1223431D01*
X564229Y1220881D01*
Y1218240D01*
X564912Y1215689D01*
X565955Y1213883D01*
Y1202570D01*
X558980D01*
Y1198865D01*
X551300D01*
X549332Y1198606D01*
X547497Y1197846D01*
X545923Y1196638D01*
X540115Y1190830D01*
X537790D01*
Y1187497D01*
X537484Y1186758D01*
X537225Y1184790D01*
X537484Y1182822D01*
X537790Y1182083D01*
Y1178750D01*
X540316D01*
X541027Y1178204D01*
X542862Y1177444D01*
X543970Y1177298D01*
X544446Y1177235D01*
Y1175955D01*
X543500Y1175830D01*
X537790D01*
Y1171107D01*
X537484Y1170368D01*
X537225Y1168400D01*
Y1164098D01*
X537484Y1162130D01*
X538244Y1160295D01*
X539452Y1158720D01*
X545310Y1152862D01*
X546885Y1151654D01*
X547645Y1151339D01*
X548719Y1150894D01*
X550688Y1150635D01*
X581050D01*
X583051Y1148633D01*
X582565Y1147460D01*
X568980D01*
Y1128380D01*
X588060D01*
Y1141965D01*
X589233Y1142451D01*
X594980Y1136705D01*
Y1136664D01*
X595630Y1134238D01*
X596886Y1132062D01*
X598662Y1130286D01*
X600838Y1129030D01*
X603264Y1128380D01*
X605776D01*
X608202Y1129030D01*
X610378Y1130286D01*
X612154Y1132062D01*
X612869Y1133301D01*
X614364Y1133350D01*
X614473Y1133186D01*
X622535Y1125123D01*
X622049Y1123950D01*
X430129D01*
X425660Y1128419D01*
X426262Y1129613D01*
X428462Y1130203D01*
X430638Y1131459D01*
X432414Y1133235D01*
X433670Y1135410D01*
X434320Y1137837D01*
Y1137877D01*
X476868Y1180425D01*
X477478Y1181220D01*
X484030D01*
Y1201300D01*
X482270D01*
Y1234370D01*
X489380D01*
Y1262450D01*
X484190D01*
Y1321497D01*
X485468Y1322236D01*
X487785Y1324552D01*
X489422Y1327388D01*
X490270Y1330552D01*
Y1333828D01*
X489422Y1336992D01*
X487785Y1339828D01*
X485468Y1342144D01*
X482632Y1343782D01*
X479468Y1344630D01*
X476192D01*
X473028Y1343782D01*
X470192Y1342144D01*
X467876Y1339828D01*
X466238Y1336992D01*
X465390Y1333828D01*
Y1330552D01*
X466238Y1327388D01*
X467876Y1324552D01*
X468980Y1323447D01*
Y1262450D01*
X461300D01*
Y1234370D01*
X467060D01*
Y1201300D01*
X463950D01*
Y1189254D01*
X463914Y1188982D01*
X423565Y1148633D01*
X423524D01*
X421098Y1147982D01*
X419125Y1146843D01*
X417855Y1147262D01*
Y1173151D01*
X427875Y1183171D01*
X430418Y1182490D01*
X433062D01*
X435615Y1183174D01*
X437905Y1184496D01*
X439774Y1186365D01*
X441096Y1188655D01*
X441780Y1191208D01*
Y1193852D01*
X441096Y1196405D01*
X439774Y1198695D01*
X437905Y1200564D01*
X435615Y1201886D01*
X433062Y1202570D01*
X430418D01*
X427865Y1201886D01*
X425575Y1200564D01*
X423706Y1198695D01*
X422384Y1196405D01*
X421700Y1193852D01*
Y1191208D01*
X422381Y1188665D01*
X411223Y1177507D01*
X410381Y1176247D01*
X410085Y1174760D01*
Y1134615D01*
X410381Y1133128D01*
X411223Y1131868D01*
X417968Y1125123D01*
X417482Y1123950D01*
X217809D01*
X217642Y1125220D01*
X217642Y1125220D01*
X219818Y1126476D01*
X221594Y1128252D01*
X222850Y1130428D01*
X223500Y1132854D01*
Y1132895D01*
X240340Y1149735D01*
X241610Y1149209D01*
Y1144270D01*
X246380D01*
Y1150040D01*
X242441D01*
X241915Y1151310D01*
X265728Y1175122D01*
X266936Y1176697D01*
X267696Y1178532D01*
X267883Y1179950D01*
X269400D01*
Y1200030D01*
X266370D01*
Y1235640D01*
X272210D01*
Y1263720D01*
X265775D01*
Y1310286D01*
X275239Y1319750D01*
X276268D01*
X279432Y1320598D01*
X282268Y1322236D01*
X284585Y1324552D01*
X286222Y1327388D01*
X287070Y1330552D01*
Y1333828D01*
X286222Y1336992D01*
X284585Y1339828D01*
X282268Y1342144D01*
X279432Y1343782D01*
X276268Y1344630D01*
X272992D01*
X269828Y1343782D01*
X266992Y1342144D01*
X264676Y1339828D01*
X263038Y1336992D01*
X262190Y1333828D01*
Y1330552D01*
X262685Y1328706D01*
X252792Y1318814D01*
X251584Y1317239D01*
X250824Y1315405D01*
X250565Y1313436D01*
Y1263720D01*
X244130D01*
Y1235640D01*
X251160D01*
Y1200030D01*
X249320D01*
Y1180225D01*
X212745Y1143650D01*
X212704D01*
X210278Y1143000D01*
X208305Y1141861D01*
X207035Y1142280D01*
Y1170611D01*
X219595Y1183171D01*
X222138Y1182490D01*
X224782D01*
X227335Y1183174D01*
X229625Y1184496D01*
X231494Y1186365D01*
X232816Y1188655D01*
X233500Y1191208D01*
Y1193852D01*
X232816Y1196405D01*
X231494Y1198695D01*
X229625Y1200564D01*
X227335Y1201886D01*
X224782Y1202570D01*
X222138D01*
X219585Y1201886D01*
X217295Y1200564D01*
X215426Y1198695D01*
X214104Y1196405D01*
X213420Y1193852D01*
Y1191208D01*
X214101Y1188665D01*
X200403Y1174967D01*
X199561Y1173707D01*
X199265Y1172220D01*
Y1123950D01*
X191809D01*
X191642Y1125220D01*
X191642Y1125220D01*
X193818Y1126476D01*
X195594Y1128252D01*
X196850Y1130428D01*
X197500Y1132854D01*
Y1135366D01*
X196850Y1137792D01*
X195594Y1139968D01*
X193818Y1141744D01*
X191642Y1143000D01*
X189216Y1143650D01*
X189175D01*
X163846Y1168979D01*
X162271Y1170187D01*
X160437Y1170947D01*
X158938Y1171144D01*
X148765Y1181317D01*
X149251Y1182490D01*
X162500D01*
Y1191815D01*
X164128Y1193442D01*
X165336Y1195017D01*
X165651Y1195777D01*
X166096Y1196852D01*
X166355Y1198820D01*
Y1215270D01*
X166597Y1215689D01*
X167280Y1218240D01*
Y1220881D01*
X166597Y1223431D01*
X165276Y1225719D01*
X163409Y1227586D01*
X161122Y1228906D01*
X158571Y1229590D01*
X155930D01*
X153379Y1228906D01*
X151092Y1227586D01*
X150671Y1227165D01*
X130020D01*
X128052Y1226906D01*
X126217Y1226146D01*
X124642Y1224938D01*
X121015Y1221310D01*
X118690D01*
Y1217977D01*
X118384Y1217238D01*
X118125Y1215270D01*
X118384Y1213302D01*
X118690Y1212563D01*
Y1209230D01*
X121216D01*
X121927Y1208684D01*
X121971Y1208666D01*
X122162Y1207212D01*
X121622Y1206798D01*
X121248Y1206310D01*
X118690D01*
Y1194230D01*
X119395D01*
Y1192327D01*
X119654Y1190359D01*
X120414Y1188524D01*
X121622Y1186949D01*
X150348Y1158223D01*
X151923Y1157015D01*
X152683Y1156700D01*
X153757Y1156255D01*
X155257Y1156058D01*
X166492Y1144823D01*
X166005Y1143650D01*
X152420D01*
Y1125220D01*
X152420Y1124570D01*
X151407Y1123950D01*
X41910D01*
Y1092830D01*
X41280D01*
Y1071250D01*
X41910D01*
Y1035012D01*
X41280Y1032661D01*
Y1029819D01*
X41910Y1027468D01*
Y622300D01*
X151130D01*
Y488950D01*
X2590D01*
Y1388110D01*
X2261820D01*
Y1123950D01*
D02*
G37*
G36*
X2031990Y1146765D02*
X2032020Y1146720D01*
Y1139190D01*
X2041560D01*
Y1137920D01*
X2042830D01*
Y1128380D01*
X2050795D01*
X2051008Y1128338D01*
X2051050Y1128125D01*
Y1123950D01*
Y1094740D01*
X2071370D01*
Y1065530D01*
X2261820D01*
Y885190D01*
X1672590D01*
Y1065530D01*
X2025650D01*
Y1146555D01*
X2025692Y1146768D01*
X2025905Y1146810D01*
X2031765D01*
X2031990Y1146765D01*
D02*
G37*
G36*
X628650Y434340D02*
X740227D01*
X740338Y434310D01*
X743022D01*
X743133Y434340D01*
X753060D01*
Y420906D01*
X751790Y420739D01*
X751176Y423033D01*
X749834Y425357D01*
X747937Y427254D01*
X745613Y428596D01*
X743022Y429290D01*
X742950D01*
Y419100D01*
X741680D01*
Y417830D01*
X731490D01*
Y417758D01*
X732184Y415167D01*
X733526Y412843D01*
X734839Y411530D01*
X734313Y410260D01*
X704850D01*
X703859Y410063D01*
X703019Y409501D01*
X702457Y408661D01*
X702260Y407670D01*
X657860Y407670D01*
Y407670D01*
X657860Y407670D01*
X657860D01*
X657860Y304537D01*
X657193Y304091D01*
X656029Y302927D01*
X655467Y302087D01*
X655270Y301096D01*
X655270Y82805D01*
X655320Y82555D01*
Y82300D01*
X655362Y82087D01*
X655460Y81851D01*
X655467Y81814D01*
X655489Y81782D01*
X655749Y81153D01*
X656463Y80439D01*
X657092Y80179D01*
X657124Y80157D01*
X657161Y80150D01*
X657397Y80052D01*
X657610Y80010D01*
X657865D01*
X658115Y79960D01*
X855725D01*
X855975Y80010D01*
X1113790D01*
Y149999D01*
X1113840Y150249D01*
Y187960D01*
X1188720D01*
Y118110D01*
X1156970D01*
Y80010D01*
Y44500D01*
Y41910D01*
X1234440D01*
Y119125D01*
X1234461Y119157D01*
X1234520Y119300D01*
X1234663Y119359D01*
X1234695Y119380D01*
X1234695Y119380D01*
X1309320D01*
Y2590D01*
X602030Y2589D01*
D01*
D01*
X600760Y3859D01*
D01*
Y80010D01*
Y101345D01*
X600710Y101595D01*
X600710Y101850D01*
X600659Y102105D01*
X600562Y102341D01*
X600512Y102591D01*
X600370Y102803D01*
X600332Y102895D01*
X600370Y102987D01*
X600512Y103199D01*
X600562Y103449D01*
X600659Y103685D01*
X600710Y103940D01*
Y104195D01*
X600760Y104445D01*
Y343526D01*
X600710Y343776D01*
Y344031D01*
X600665Y344256D01*
X600665Y344256D01*
Y344256D01*
X600568Y344492D01*
X600563Y344517D01*
X600549Y344538D01*
X600279Y345190D01*
X600279Y345190D01*
X600279Y345190D01*
X599780Y345688D01*
X599766Y345709D01*
X599744Y345724D01*
X599564Y345904D01*
X599564Y345904D01*
X599373Y346032D01*
X599137Y346129D01*
X598926Y346271D01*
X598223Y346562D01*
X598170Y346572D01*
Y363220D01*
X441960D01*
Y785175D01*
X511090D01*
Y756520D01*
X543630D01*
X576170D01*
Y785175D01*
X628650D01*
Y434340D01*
D02*
G37*
G36*
X1009650Y369570D02*
X981710D01*
Y420370D01*
X985640D01*
Y411760D01*
X995680D01*
X1005720D01*
Y420370D01*
X1009650D01*
Y369570D01*
D02*
G37*
G36*
X1127760Y383540D02*
X1027430D01*
Y429260D01*
X981710D01*
Y477520D01*
X1127760D01*
Y383540D01*
D02*
G37*
G36*
X774700Y378460D02*
Y372160D01*
X754380D01*
X754130Y372110D01*
X753110D01*
Y371776D01*
X752549Y371401D01*
X751987Y370561D01*
X751790Y369570D01*
Y264160D01*
X704850D01*
Y269360D01*
X711758D01*
Y279400D01*
Y289440D01*
X704850D01*
Y403860D01*
Y407670D01*
X755650D01*
Y554990D01*
Y556260D01*
Y557530D01*
X728980D01*
Y612140D01*
X774700D01*
Y378460D01*
D02*
G37*
G36*
X1111250Y214630D02*
X1113740D01*
X1113937Y213639D01*
X1114499Y212799D01*
X1115339Y212237D01*
X1116330Y212040D01*
X1234440D01*
X1234440Y121920D01*
X1234190D01*
X1233977Y121878D01*
X1233741Y121780D01*
X1233704Y121773D01*
X1233672Y121751D01*
X1233044Y121491D01*
X1232329Y120777D01*
X1232069Y120148D01*
X1232047Y120116D01*
X1232040Y120079D01*
X1231942Y119843D01*
X1231900Y119630D01*
Y119375D01*
X1231850Y119125D01*
Y84125D01*
X1230580Y84025D01*
X1230179Y86560D01*
X1228596Y91431D01*
X1226271Y95995D01*
X1223260Y100138D01*
X1219638Y103760D01*
X1215495Y106771D01*
X1210931Y109096D01*
X1206060Y110679D01*
X1201001Y111480D01*
X1199710D01*
Y78940D01*
Y46400D01*
X1201001D01*
X1206060Y47201D01*
X1210931Y48784D01*
X1215495Y51109D01*
X1219638Y54120D01*
X1223260Y57742D01*
X1226271Y61885D01*
X1228596Y66449D01*
X1230179Y71320D01*
X1230580Y73855D01*
X1231850Y73755D01*
Y44500D01*
X1159560D01*
Y80010D01*
Y115520D01*
X1188720D01*
X1189711Y115717D01*
X1190551Y116279D01*
X1191113Y117119D01*
X1191310Y118110D01*
Y187960D01*
X1191113Y188951D01*
X1190551Y189791D01*
X1189711Y190353D01*
X1188720Y190550D01*
X1113840D01*
X1112849Y190353D01*
X1112009Y189791D01*
X1111447Y188951D01*
X1111250Y187960D01*
Y150249D01*
D01*
X1111200Y149999D01*
Y149860D01*
X1110310D01*
X1110077Y149763D01*
X1109980Y149860D01*
X1038860D01*
Y214630D01*
Y339090D01*
X1038763Y339187D01*
X1039249Y340360D01*
X1111250D01*
Y214630D01*
D02*
G37*
G36*
X695960Y123190D02*
X855980D01*
Y82805D01*
X855938Y82592D01*
X855725Y82550D01*
X658115D01*
X657902Y82592D01*
X657860Y82805D01*
X657860Y301096D01*
X659024Y302260D01*
X695960D01*
Y123190D01*
D02*
G37*
G36*
X596978Y344220D02*
X597232Y344169D01*
X597934Y343878D01*
X598125Y343751D01*
X598170Y343526D01*
Y104445D01*
X598119Y104190D01*
X407925D01*
X407675Y104140D01*
X407420D01*
X407207Y104098D01*
X406971Y104000D01*
X406934Y103993D01*
X406902Y103971D01*
X406273Y103711D01*
X405559Y102997D01*
X405299Y102368D01*
X405277Y102336D01*
X405270Y102299D01*
X405172Y102063D01*
X405130Y101850D01*
Y101595D01*
X405080Y101345D01*
Y34340D01*
X362000D01*
Y344170D01*
X596900D01*
X596950Y344220D01*
X596978D01*
D02*
G37*
G36*
X1631950Y993140D02*
Y2590D01*
X1311910Y2590D01*
Y214630D01*
X1116330D01*
Y273050D01*
Y349250D01*
X1029970D01*
Y257810D01*
X754380D01*
Y369315D01*
X754425Y369540D01*
X754470Y369570D01*
X979120D01*
X979317Y368579D01*
X979879Y367739D01*
X980719Y367177D01*
X981710Y366980D01*
X988640D01*
Y363460D01*
X995680D01*
X1002720D01*
Y366980D01*
X1009650D01*
X1010641Y367177D01*
X1011481Y367739D01*
X1012043Y368579D01*
X1012240Y369570D01*
X1186180D01*
X1187082Y335280D01*
X1187450D01*
Y321310D01*
X1188696Y273960D01*
X1187810Y273050D01*
X1187450D01*
Y242570D01*
X1338580D01*
Y25400D01*
X1607820D01*
Y993140D01*
X1558120D01*
X1556900Y993260D01*
X1556900Y994410D01*
Y1002030D01*
X1546860D01*
X1536820D01*
X1536820Y993260D01*
X1535569Y993215D01*
X1521460D01*
Y1016000D01*
X1631950D01*
Y993140D01*
D02*
G37*
G36*
X359410Y34340D02*
Y31750D01*
X407670D01*
Y101345D01*
X407712Y101558D01*
X407925Y101600D01*
X598119D01*
X598170Y101345D01*
Y2590D01*
X215900D01*
Y7620D01*
Y344170D01*
X359410D01*
Y34340D01*
D02*
G37*
%LPC*%
G36*
X1995870Y1344630D02*
X1984700D01*
Y1333460D01*
X1995870D01*
Y1344630D01*
D02*
G37*
G36*
X1792670D02*
X1781500D01*
Y1333460D01*
X1792670D01*
Y1344630D01*
D02*
G37*
G36*
X1982160D02*
X1970990D01*
Y1333460D01*
X1982160D01*
Y1344630D01*
D02*
G37*
G36*
X1778960D02*
X1767790D01*
Y1333460D01*
X1778960D01*
Y1344630D01*
D02*
G37*
G36*
X370270D02*
X359100D01*
Y1333460D01*
X370270D01*
Y1344630D01*
D02*
G37*
G36*
X167070D02*
X155900D01*
Y1333460D01*
X167070D01*
Y1344630D01*
D02*
G37*
G36*
X356560D02*
X345390D01*
Y1333460D01*
X356560D01*
Y1344630D01*
D02*
G37*
G36*
X153360D02*
X142190D01*
Y1333460D01*
X153360D01*
Y1344630D01*
D02*
G37*
G36*
X1589470D02*
X1578300D01*
Y1333460D01*
X1589470D01*
Y1344630D01*
D02*
G37*
G36*
X1386270D02*
X1375100D01*
Y1333460D01*
X1386270D01*
Y1344630D01*
D02*
G37*
G36*
X1183070D02*
X1171900D01*
Y1333460D01*
X1183070D01*
Y1344630D01*
D02*
G37*
G36*
X979870D02*
X968700D01*
Y1333460D01*
X979870D01*
Y1344630D01*
D02*
G37*
G36*
X776670D02*
X765500D01*
Y1333460D01*
X776670D01*
Y1344630D01*
D02*
G37*
G36*
X573470D02*
X562300D01*
Y1333460D01*
X573470D01*
Y1344630D01*
D02*
G37*
G36*
X1575760D02*
X1564590D01*
Y1333460D01*
X1575760D01*
Y1344630D01*
D02*
G37*
G36*
X1372560D02*
X1361390D01*
Y1333460D01*
X1372560D01*
Y1344630D01*
D02*
G37*
G36*
X1169360D02*
X1158190D01*
Y1333460D01*
X1169360D01*
Y1344630D01*
D02*
G37*
G36*
X966160D02*
X954990D01*
Y1333460D01*
X966160D01*
Y1344630D01*
D02*
G37*
G36*
X762960D02*
X751790D01*
Y1333460D01*
X762960D01*
Y1344630D01*
D02*
G37*
G36*
X559760D02*
X548590D01*
Y1333460D01*
X559760D01*
Y1344630D01*
D02*
G37*
G36*
X1995870Y1330920D02*
X1984700D01*
Y1319750D01*
X1995870D01*
Y1330920D01*
D02*
G37*
G36*
X1982160D02*
X1970990D01*
Y1319750D01*
X1982160D01*
Y1330920D01*
D02*
G37*
G36*
X1792670D02*
X1781500D01*
Y1319750D01*
X1792670D01*
Y1330920D01*
D02*
G37*
G36*
X1778960D02*
X1767790D01*
Y1319750D01*
X1778960D01*
Y1330920D01*
D02*
G37*
G36*
X1589470Y1330920D02*
X1578300D01*
Y1319750D01*
X1589470D01*
Y1330920D01*
D02*
G37*
G36*
X1575760D02*
X1564590D01*
Y1319750D01*
X1575760D01*
Y1330920D01*
D02*
G37*
G36*
X1386270D02*
X1375100D01*
Y1319750D01*
X1386270D01*
Y1330920D01*
D02*
G37*
G36*
X1372560D02*
X1361390D01*
Y1319750D01*
X1372560D01*
Y1330920D01*
D02*
G37*
G36*
X1183070D02*
X1171900D01*
Y1319750D01*
X1183070D01*
Y1330920D01*
D02*
G37*
G36*
X1169360D02*
X1158190D01*
Y1319750D01*
X1169360D01*
Y1330920D01*
D02*
G37*
G36*
X979870D02*
X968700D01*
Y1319750D01*
X979870D01*
Y1330920D01*
D02*
G37*
G36*
X966160D02*
X954990D01*
Y1319750D01*
X966160D01*
Y1330920D01*
D02*
G37*
G36*
X776670D02*
X765500D01*
Y1319750D01*
X776670D01*
Y1330920D01*
D02*
G37*
G36*
X762960D02*
X751790D01*
Y1319750D01*
X762960D01*
Y1330920D01*
D02*
G37*
G36*
X573470D02*
X562300D01*
Y1319750D01*
X573470D01*
Y1330920D01*
D02*
G37*
G36*
X559760D02*
X548590D01*
Y1319750D01*
X559760D01*
Y1330920D01*
D02*
G37*
G36*
X370270Y1330920D02*
X359100D01*
Y1319750D01*
X370270D01*
Y1330920D01*
D02*
G37*
G36*
X356560D02*
X345390D01*
Y1319750D01*
X356560D01*
Y1330920D01*
D02*
G37*
G36*
X167070D02*
X155900D01*
Y1319750D01*
X167070D01*
Y1330920D01*
D02*
G37*
G36*
X153360D02*
X142190D01*
Y1319750D01*
X153360D01*
Y1330920D01*
D02*
G37*
G36*
X2045038Y1324405D02*
X2044700D01*
Y1313460D01*
X2055645D01*
Y1313798D01*
X2054813Y1316905D01*
X2053204Y1319690D01*
X2050930Y1321964D01*
X2048145Y1323573D01*
X2045038Y1324405D01*
D02*
G37*
G36*
X1841838D02*
X1841500D01*
Y1313460D01*
X1852445D01*
Y1313798D01*
X1851613Y1316905D01*
X1850004Y1319690D01*
X1847730Y1321964D01*
X1844945Y1323573D01*
X1841838Y1324405D01*
D02*
G37*
G36*
X1638638D02*
X1638300D01*
Y1313460D01*
X1649245D01*
Y1313798D01*
X1648413Y1316905D01*
X1646804Y1319690D01*
X1644530Y1321964D01*
X1641745Y1323573D01*
X1638638Y1324405D01*
D02*
G37*
G36*
X1435438D02*
X1435100D01*
Y1313460D01*
X1446045D01*
Y1313798D01*
X1445213Y1316905D01*
X1443604Y1319690D01*
X1441330Y1321964D01*
X1438545Y1323573D01*
X1435438Y1324405D01*
D02*
G37*
G36*
X1232238D02*
X1231900D01*
Y1313460D01*
X1242845D01*
Y1313798D01*
X1242013Y1316905D01*
X1240404Y1319690D01*
X1238130Y1321964D01*
X1235345Y1323573D01*
X1232238Y1324405D01*
D02*
G37*
G36*
X1029038D02*
X1028700D01*
Y1313460D01*
X1039645D01*
Y1313798D01*
X1038813Y1316905D01*
X1037204Y1319690D01*
X1034930Y1321964D01*
X1032145Y1323573D01*
X1029038Y1324405D01*
D02*
G37*
G36*
X825838D02*
X825500D01*
Y1313460D01*
X836445D01*
Y1313798D01*
X835613Y1316905D01*
X834004Y1319690D01*
X831730Y1321964D01*
X828945Y1323573D01*
X825838Y1324405D01*
D02*
G37*
G36*
X622638D02*
X622300D01*
Y1313460D01*
X633245D01*
Y1313798D01*
X632413Y1316905D01*
X630804Y1319690D01*
X628530Y1321964D01*
X625745Y1323573D01*
X622638Y1324405D01*
D02*
G37*
G36*
X419438D02*
X419100D01*
Y1313460D01*
X430045D01*
Y1313798D01*
X429213Y1316905D01*
X427604Y1319690D01*
X425330Y1321964D01*
X422545Y1323573D01*
X419438Y1324405D01*
D02*
G37*
G36*
X216238D02*
X215900D01*
Y1313460D01*
X226845D01*
Y1313798D01*
X226013Y1316905D01*
X224404Y1319690D01*
X222130Y1321964D01*
X219345Y1323573D01*
X216238Y1324405D01*
D02*
G37*
G36*
X1635760D02*
X1635422D01*
X1632315Y1323573D01*
X1629530Y1321964D01*
X1627256Y1319690D01*
X1625647Y1316905D01*
X1624815Y1313798D01*
Y1313460D01*
X1635760D01*
Y1324405D01*
D02*
G37*
G36*
X1432560D02*
X1432222D01*
X1429115Y1323573D01*
X1426330Y1321964D01*
X1424056Y1319690D01*
X1422447Y1316905D01*
X1421615Y1313798D01*
Y1313460D01*
X1432560D01*
Y1324405D01*
D02*
G37*
G36*
X1229360D02*
X1229022D01*
X1225915Y1323573D01*
X1223130Y1321964D01*
X1220856Y1319690D01*
X1219247Y1316905D01*
X1218415Y1313798D01*
Y1313460D01*
X1229360D01*
Y1324405D01*
D02*
G37*
G36*
X1026160D02*
X1025822D01*
X1022715Y1323573D01*
X1019930Y1321964D01*
X1017656Y1319690D01*
X1016047Y1316905D01*
X1015215Y1313798D01*
Y1313460D01*
X1026160D01*
Y1324405D01*
D02*
G37*
G36*
X822960D02*
X822622D01*
X819515Y1323573D01*
X816730Y1321964D01*
X814456Y1319690D01*
X812847Y1316905D01*
X812015Y1313798D01*
Y1313460D01*
X822960D01*
Y1324405D01*
D02*
G37*
G36*
X619760D02*
X619422D01*
X616315Y1323573D01*
X613530Y1321964D01*
X611256Y1319690D01*
X609647Y1316905D01*
X608815Y1313798D01*
Y1313460D01*
X619760D01*
Y1324405D01*
D02*
G37*
G36*
X2042160D02*
X2041822D01*
X2038715Y1323573D01*
X2035930Y1321964D01*
X2033656Y1319690D01*
X2032047Y1316905D01*
X2031215Y1313798D01*
Y1313460D01*
X2042160D01*
Y1324405D01*
D02*
G37*
G36*
X1838960D02*
X1838622D01*
X1835515Y1323573D01*
X1832730Y1321964D01*
X1830456Y1319690D01*
X1828847Y1316905D01*
X1828015Y1313798D01*
Y1313460D01*
X1838960D01*
Y1324405D01*
D02*
G37*
G36*
X416560D02*
X416222D01*
X413115Y1323573D01*
X410330Y1321964D01*
X408056Y1319690D01*
X406447Y1316905D01*
X405615Y1313798D01*
Y1313460D01*
X416560D01*
Y1324405D01*
D02*
G37*
G36*
X213360D02*
X213022D01*
X209915Y1323573D01*
X207130Y1321964D01*
X204856Y1319690D01*
X203247Y1316905D01*
X202415Y1313798D01*
Y1313460D01*
X213360D01*
Y1324405D01*
D02*
G37*
G36*
X2055645Y1310920D02*
X2044700D01*
Y1299975D01*
X2045038D01*
X2048145Y1300807D01*
X2050930Y1302416D01*
X2053204Y1304690D01*
X2054813Y1307475D01*
X2055645Y1310582D01*
Y1310920D01*
D02*
G37*
G36*
X2042160D02*
X2031215D01*
Y1310582D01*
X2032047Y1307475D01*
X2033656Y1304690D01*
X2035930Y1302416D01*
X2038715Y1300807D01*
X2041822Y1299975D01*
X2042160D01*
Y1310920D01*
D02*
G37*
G36*
X1852445D02*
X1841500D01*
Y1299975D01*
X1841838D01*
X1844945Y1300807D01*
X1847730Y1302416D01*
X1850004Y1304690D01*
X1851613Y1307475D01*
X1852445Y1310582D01*
Y1310920D01*
D02*
G37*
G36*
X1838960D02*
X1828015D01*
Y1310582D01*
X1828847Y1307475D01*
X1830456Y1304690D01*
X1832730Y1302416D01*
X1835515Y1300807D01*
X1838622Y1299975D01*
X1838960D01*
Y1310920D01*
D02*
G37*
G36*
X1649245D02*
X1638300D01*
Y1299975D01*
X1638638D01*
X1641745Y1300807D01*
X1644530Y1302416D01*
X1646804Y1304690D01*
X1648413Y1307475D01*
X1649245Y1310582D01*
Y1310920D01*
D02*
G37*
G36*
X1635760D02*
X1624815D01*
Y1310582D01*
X1625647Y1307475D01*
X1627256Y1304690D01*
X1629530Y1302416D01*
X1632315Y1300807D01*
X1635422Y1299975D01*
X1635760D01*
Y1310920D01*
D02*
G37*
G36*
X1446045D02*
X1435100D01*
Y1299975D01*
X1435438D01*
X1438545Y1300807D01*
X1441330Y1302416D01*
X1443604Y1304690D01*
X1445213Y1307475D01*
X1446045Y1310582D01*
Y1310920D01*
D02*
G37*
G36*
X1432560D02*
X1421615D01*
Y1310582D01*
X1422447Y1307475D01*
X1424056Y1304690D01*
X1426330Y1302416D01*
X1429115Y1300807D01*
X1432222Y1299975D01*
X1432560D01*
Y1310920D01*
D02*
G37*
G36*
X1242845D02*
X1231900D01*
Y1299975D01*
X1232238D01*
X1235345Y1300807D01*
X1238130Y1302416D01*
X1240404Y1304690D01*
X1242013Y1307475D01*
X1242845Y1310582D01*
Y1310920D01*
D02*
G37*
G36*
X1229360D02*
X1218415D01*
Y1310582D01*
X1219247Y1307475D01*
X1220856Y1304690D01*
X1223130Y1302416D01*
X1225915Y1300807D01*
X1229022Y1299975D01*
X1229360D01*
Y1310920D01*
D02*
G37*
G36*
X1039645D02*
X1028700D01*
Y1299975D01*
X1029038D01*
X1032145Y1300807D01*
X1034930Y1302416D01*
X1037204Y1304690D01*
X1038813Y1307475D01*
X1039645Y1310582D01*
Y1310920D01*
D02*
G37*
G36*
X1026160D02*
X1015215D01*
Y1310582D01*
X1016047Y1307475D01*
X1017656Y1304690D01*
X1019930Y1302416D01*
X1022715Y1300807D01*
X1025822Y1299975D01*
X1026160D01*
Y1310920D01*
D02*
G37*
G36*
X836445D02*
X825500D01*
Y1299975D01*
X825838D01*
X828945Y1300807D01*
X831730Y1302416D01*
X834004Y1304690D01*
X835613Y1307475D01*
X836445Y1310582D01*
Y1310920D01*
D02*
G37*
G36*
X822960D02*
X812015D01*
Y1310582D01*
X812847Y1307475D01*
X814456Y1304690D01*
X816730Y1302416D01*
X819515Y1300807D01*
X822622Y1299975D01*
X822960D01*
Y1310920D01*
D02*
G37*
G36*
X633245D02*
X622300D01*
Y1299975D01*
X622638D01*
X625745Y1300807D01*
X628530Y1302416D01*
X630804Y1304690D01*
X632413Y1307475D01*
X633245Y1310582D01*
Y1310920D01*
D02*
G37*
G36*
X619760D02*
X608815D01*
Y1310582D01*
X609647Y1307475D01*
X611256Y1304690D01*
X613530Y1302416D01*
X616315Y1300807D01*
X619422Y1299975D01*
X619760D01*
Y1310920D01*
D02*
G37*
G36*
X430045D02*
X419100D01*
Y1299975D01*
X419438D01*
X422545Y1300807D01*
X425330Y1302416D01*
X427604Y1304690D01*
X429213Y1307475D01*
X430045Y1310582D01*
Y1310920D01*
D02*
G37*
G36*
X416560D02*
X405615D01*
Y1310582D01*
X406447Y1307475D01*
X408056Y1304690D01*
X410330Y1302416D01*
X413115Y1300807D01*
X416222Y1299975D01*
X416560D01*
Y1310920D01*
D02*
G37*
G36*
X226845D02*
X215900D01*
Y1299975D01*
X216238D01*
X219345Y1300807D01*
X222130Y1302416D01*
X224404Y1304690D01*
X226013Y1307475D01*
X226845Y1310582D01*
Y1310920D01*
D02*
G37*
G36*
X213360D02*
X202415D01*
Y1310582D01*
X203247Y1307475D01*
X204856Y1304690D01*
X207130Y1302416D01*
X209915Y1300807D01*
X213022Y1299975D01*
X213360D01*
Y1310920D01*
D02*
G37*
G36*
X2100110Y1274590D02*
X2100060D01*
Y1265830D01*
X2108820D01*
Y1265881D01*
X2108136Y1268431D01*
X2106816Y1270719D01*
X2104948Y1272586D01*
X2102661Y1273906D01*
X2100110Y1274590D01*
D02*
G37*
G36*
X2097520D02*
X2097469D01*
X2094918Y1273906D01*
X2092631Y1272586D01*
X2090764Y1270719D01*
X2089443Y1268431D01*
X2088760Y1265881D01*
Y1265830D01*
X2097520D01*
Y1274590D01*
D02*
G37*
G36*
X2043820D02*
X2035060D01*
Y1265830D01*
X2043820D01*
Y1274590D01*
D02*
G37*
G36*
X2032520D02*
X2023760D01*
Y1265830D01*
X2032520D01*
Y1274590D01*
D02*
G37*
G36*
X1891606D02*
X1891555D01*
Y1265830D01*
X1900316D01*
Y1265881D01*
X1899632Y1268431D01*
X1898311Y1270719D01*
X1896444Y1272586D01*
X1894157Y1273906D01*
X1891606Y1274590D01*
D02*
G37*
G36*
X1889016D02*
X1888965D01*
X1886414Y1273906D01*
X1884127Y1272586D01*
X1882260Y1270719D01*
X1880939Y1268431D01*
X1880255Y1265881D01*
Y1265830D01*
X1889016D01*
Y1274590D01*
D02*
G37*
G36*
X1835316D02*
X1826555D01*
Y1265830D01*
X1835316D01*
Y1274590D01*
D02*
G37*
G36*
X1824016D02*
X1815255D01*
Y1265830D01*
X1824016D01*
Y1274590D01*
D02*
G37*
G36*
X1683102D02*
X1683051D01*
Y1265830D01*
X1691811D01*
Y1265881D01*
X1691127Y1268431D01*
X1689807Y1270719D01*
X1687940Y1272586D01*
X1685652Y1273906D01*
X1683102Y1274590D01*
D02*
G37*
G36*
X1680511D02*
X1680461D01*
X1677910Y1273906D01*
X1675623Y1272586D01*
X1673755Y1270719D01*
X1672435Y1268431D01*
X1671751Y1265881D01*
Y1265830D01*
X1680511D01*
Y1274590D01*
D02*
G37*
G36*
X1626811D02*
X1618051D01*
Y1265830D01*
X1626811D01*
Y1274590D01*
D02*
G37*
G36*
X1615511D02*
X1606751D01*
Y1265830D01*
X1615511D01*
Y1274590D01*
D02*
G37*
G36*
X1474597D02*
X1474547D01*
Y1265830D01*
X1483307D01*
Y1265881D01*
X1482623Y1268431D01*
X1481303Y1270719D01*
X1479435Y1272586D01*
X1477148Y1273906D01*
X1474597Y1274590D01*
D02*
G37*
G36*
X1472007D02*
X1471956D01*
X1469405Y1273906D01*
X1467118Y1272586D01*
X1465251Y1270719D01*
X1463930Y1268431D01*
X1463247Y1265881D01*
Y1265830D01*
X1472007D01*
Y1274590D01*
D02*
G37*
G36*
X1418307D02*
X1409547D01*
Y1265830D01*
X1418307D01*
Y1274590D01*
D02*
G37*
G36*
X1407007D02*
X1398247D01*
Y1265830D01*
X1407007D01*
Y1274590D01*
D02*
G37*
G36*
X1266093D02*
X1266042D01*
Y1265830D01*
X1274802D01*
Y1265881D01*
X1274119Y1268431D01*
X1272798Y1270719D01*
X1270931Y1272586D01*
X1268644Y1273906D01*
X1266093Y1274590D01*
D02*
G37*
G36*
X1263502D02*
X1263452D01*
X1260901Y1273906D01*
X1258614Y1272586D01*
X1256746Y1270719D01*
X1255426Y1268431D01*
X1254742Y1265881D01*
Y1265830D01*
X1263502D01*
Y1274590D01*
D02*
G37*
G36*
X1209802D02*
X1201042D01*
Y1265830D01*
X1209802D01*
Y1274590D01*
D02*
G37*
G36*
X1198502D02*
X1189742D01*
Y1265830D01*
X1198502D01*
Y1274590D01*
D02*
G37*
G36*
X1057588D02*
X1057538D01*
Y1265830D01*
X1066298D01*
Y1265881D01*
X1065614Y1268431D01*
X1064294Y1270719D01*
X1062426Y1272586D01*
X1060139Y1273906D01*
X1057588Y1274590D01*
D02*
G37*
G36*
X1054998D02*
X1054947D01*
X1052396Y1273906D01*
X1050109Y1272586D01*
X1048242Y1270719D01*
X1046921Y1268431D01*
X1046238Y1265881D01*
Y1265830D01*
X1054998D01*
Y1274590D01*
D02*
G37*
G36*
X1001298D02*
X992538D01*
Y1265830D01*
X1001298D01*
Y1274590D01*
D02*
G37*
G36*
X989998D02*
X981238D01*
Y1265830D01*
X989998D01*
Y1274590D01*
D02*
G37*
G36*
X849084D02*
X849033D01*
Y1265830D01*
X857793D01*
Y1265881D01*
X857110Y1268431D01*
X855789Y1270719D01*
X853922Y1272586D01*
X851635Y1273906D01*
X849084Y1274590D01*
D02*
G37*
G36*
X846493D02*
X846443D01*
X843892Y1273906D01*
X841605Y1272586D01*
X839737Y1270719D01*
X838417Y1268431D01*
X837733Y1265881D01*
Y1265830D01*
X846493D01*
Y1274590D01*
D02*
G37*
G36*
X792793D02*
X784033D01*
Y1265830D01*
X792793D01*
Y1274590D01*
D02*
G37*
G36*
X781493D02*
X772733D01*
Y1265830D01*
X781493D01*
Y1274590D01*
D02*
G37*
G36*
X640580D02*
X640529D01*
Y1265830D01*
X649289D01*
Y1265881D01*
X648605Y1268431D01*
X647285Y1270719D01*
X645418Y1272586D01*
X643130Y1273906D01*
X640580Y1274590D01*
D02*
G37*
G36*
X637989D02*
X637939D01*
X635388Y1273906D01*
X633101Y1272586D01*
X631233Y1270719D01*
X629913Y1268431D01*
X629229Y1265881D01*
Y1265830D01*
X637989D01*
Y1274590D01*
D02*
G37*
G36*
X584289D02*
X575529D01*
Y1265830D01*
X584289D01*
Y1274590D01*
D02*
G37*
G36*
X572989D02*
X564229D01*
Y1265830D01*
X572989D01*
Y1274590D01*
D02*
G37*
G36*
X432075D02*
X432025D01*
Y1265830D01*
X440785D01*
Y1265881D01*
X440101Y1268431D01*
X438781Y1270719D01*
X436913Y1272586D01*
X434626Y1273906D01*
X432075Y1274590D01*
D02*
G37*
G36*
X429485D02*
X429434D01*
X426883Y1273906D01*
X424596Y1272586D01*
X422729Y1270719D01*
X421408Y1268431D01*
X420725Y1265881D01*
Y1265830D01*
X429485D01*
Y1274590D01*
D02*
G37*
G36*
X375785D02*
X367025D01*
Y1265830D01*
X375785D01*
Y1274590D01*
D02*
G37*
G36*
X364485D02*
X355725D01*
Y1265830D01*
X364485D01*
Y1274590D01*
D02*
G37*
G36*
X223571D02*
X223520D01*
Y1265830D01*
X232280D01*
Y1265881D01*
X231597Y1268431D01*
X230276Y1270719D01*
X228409Y1272586D01*
X226122Y1273906D01*
X223571Y1274590D01*
D02*
G37*
G36*
X220980D02*
X220930D01*
X218379Y1273906D01*
X216092Y1272586D01*
X214224Y1270719D01*
X212904Y1268431D01*
X212220Y1265881D01*
Y1265830D01*
X220980D01*
Y1274590D01*
D02*
G37*
G36*
X167280D02*
X158520D01*
Y1265830D01*
X167280D01*
Y1274590D01*
D02*
G37*
G36*
X155980D02*
X147220D01*
Y1265830D01*
X155980D01*
Y1274590D01*
D02*
G37*
G36*
X1784060Y1275150D02*
X1771290D01*
Y1262380D01*
X1784060D01*
Y1275150D01*
D02*
G37*
G36*
X1768750D02*
X1755980D01*
Y1262380D01*
X1768750D01*
Y1275150D01*
D02*
G37*
G36*
X2203160Y1270070D02*
X2190390D01*
Y1257300D01*
X2203160D01*
Y1270070D01*
D02*
G37*
G36*
X2187850D02*
X2175080D01*
Y1257300D01*
X2187850D01*
Y1270070D01*
D02*
G37*
G36*
X1370040Y1268800D02*
X1357270D01*
Y1256030D01*
X1370040D01*
Y1268800D01*
D02*
G37*
G36*
X1354730D02*
X1341960D01*
Y1256030D01*
X1354730D01*
Y1268800D01*
D02*
G37*
G36*
X1151600D02*
X1138830D01*
Y1256030D01*
X1151600D01*
Y1268800D01*
D02*
G37*
G36*
X1136290D02*
X1123520D01*
Y1256030D01*
X1136290D01*
Y1268800D01*
D02*
G37*
G36*
X1566890Y1267530D02*
X1554120D01*
Y1254760D01*
X1566890D01*
Y1267530D01*
D02*
G37*
G36*
X1551580D02*
X1538810D01*
Y1254760D01*
X1551580D01*
Y1267530D01*
D02*
G37*
G36*
X2108820Y1263290D02*
X2100060D01*
Y1254530D01*
X2100110D01*
X2102661Y1255213D01*
X2104948Y1256534D01*
X2106816Y1258401D01*
X2108136Y1260689D01*
X2108820Y1263240D01*
Y1263290D01*
D02*
G37*
G36*
X2097520D02*
X2088760D01*
Y1263240D01*
X2089443Y1260689D01*
X2090764Y1258401D01*
X2092631Y1256534D01*
X2094918Y1255213D01*
X2097469Y1254530D01*
X2097520D01*
Y1263290D01*
D02*
G37*
G36*
X2043820D02*
X2035060D01*
Y1254530D01*
X2043820D01*
Y1263290D01*
D02*
G37*
G36*
X2032520D02*
X2023760D01*
Y1254530D01*
X2032520D01*
Y1263290D01*
D02*
G37*
G36*
X1900316D02*
X1891555D01*
Y1254530D01*
X1891606D01*
X1894157Y1255213D01*
X1896444Y1256534D01*
X1898311Y1258401D01*
X1899632Y1260689D01*
X1900316Y1263240D01*
Y1263290D01*
D02*
G37*
G36*
X1889016D02*
X1880255D01*
Y1263240D01*
X1880939Y1260689D01*
X1882260Y1258401D01*
X1884127Y1256534D01*
X1886414Y1255213D01*
X1888965Y1254530D01*
X1889016D01*
Y1263290D01*
D02*
G37*
G36*
X1835316D02*
X1826555D01*
Y1254530D01*
X1835316D01*
Y1263290D01*
D02*
G37*
G36*
X1824016D02*
X1815255D01*
Y1254530D01*
X1824016D01*
Y1263290D01*
D02*
G37*
G36*
X1691811D02*
X1683051D01*
Y1254530D01*
X1683102D01*
X1685652Y1255213D01*
X1687940Y1256534D01*
X1689807Y1258401D01*
X1691127Y1260689D01*
X1691811Y1263240D01*
Y1263290D01*
D02*
G37*
G36*
X1680511D02*
X1671751D01*
Y1263240D01*
X1672435Y1260689D01*
X1673755Y1258401D01*
X1675623Y1256534D01*
X1677910Y1255213D01*
X1680461Y1254530D01*
X1680511D01*
Y1263290D01*
D02*
G37*
G36*
X1626811D02*
X1618051D01*
Y1254530D01*
X1626811D01*
Y1263290D01*
D02*
G37*
G36*
X1615511D02*
X1606751D01*
Y1254530D01*
X1615511D01*
Y1263290D01*
D02*
G37*
G36*
X1483307D02*
X1474547D01*
Y1254530D01*
X1474597D01*
X1477148Y1255213D01*
X1479435Y1256534D01*
X1481303Y1258401D01*
X1482623Y1260689D01*
X1483307Y1263240D01*
Y1263290D01*
D02*
G37*
G36*
X1472007D02*
X1463247D01*
Y1263240D01*
X1463930Y1260689D01*
X1465251Y1258401D01*
X1467118Y1256534D01*
X1469405Y1255213D01*
X1471956Y1254530D01*
X1472007D01*
Y1263290D01*
D02*
G37*
G36*
X1418307D02*
X1409547D01*
Y1254530D01*
X1418307D01*
Y1263290D01*
D02*
G37*
G36*
X1407007D02*
X1398247D01*
Y1254530D01*
X1407007D01*
Y1263290D01*
D02*
G37*
G36*
X1274802D02*
X1266042D01*
Y1254530D01*
X1266093D01*
X1268644Y1255213D01*
X1270931Y1256534D01*
X1272798Y1258401D01*
X1274119Y1260689D01*
X1274802Y1263240D01*
Y1263290D01*
D02*
G37*
G36*
X1263502D02*
X1254742D01*
Y1263240D01*
X1255426Y1260689D01*
X1256746Y1258401D01*
X1258614Y1256534D01*
X1260901Y1255213D01*
X1263452Y1254530D01*
X1263502D01*
Y1263290D01*
D02*
G37*
G36*
X1209802D02*
X1201042D01*
Y1254530D01*
X1209802D01*
Y1263290D01*
D02*
G37*
G36*
X1198502D02*
X1189742D01*
Y1254530D01*
X1198502D01*
Y1263290D01*
D02*
G37*
G36*
X1066298D02*
X1057538D01*
Y1254530D01*
X1057588D01*
X1060139Y1255213D01*
X1062426Y1256534D01*
X1064294Y1258401D01*
X1065614Y1260689D01*
X1066298Y1263240D01*
Y1263290D01*
D02*
G37*
G36*
X1054998D02*
X1046238D01*
Y1263240D01*
X1046921Y1260689D01*
X1048242Y1258401D01*
X1050109Y1256534D01*
X1052396Y1255213D01*
X1054947Y1254530D01*
X1054998D01*
Y1263290D01*
D02*
G37*
G36*
X1001298D02*
X992538D01*
Y1254530D01*
X1001298D01*
Y1263290D01*
D02*
G37*
G36*
X989998D02*
X981238D01*
Y1254530D01*
X989998D01*
Y1263290D01*
D02*
G37*
G36*
X857793D02*
X849033D01*
Y1254530D01*
X849084D01*
X851635Y1255213D01*
X853922Y1256534D01*
X855789Y1258401D01*
X857110Y1260689D01*
X857793Y1263240D01*
Y1263290D01*
D02*
G37*
G36*
X846493D02*
X837733D01*
Y1263240D01*
X838417Y1260689D01*
X839737Y1258401D01*
X841605Y1256534D01*
X843892Y1255213D01*
X846443Y1254530D01*
X846493D01*
Y1263290D01*
D02*
G37*
G36*
X792793D02*
X784033D01*
Y1254530D01*
X792793D01*
Y1263290D01*
D02*
G37*
G36*
X781493D02*
X772733D01*
Y1254530D01*
X781493D01*
Y1263290D01*
D02*
G37*
G36*
X649289D02*
X640529D01*
Y1254530D01*
X640580D01*
X643130Y1255213D01*
X645418Y1256534D01*
X647285Y1258401D01*
X648605Y1260689D01*
X649289Y1263240D01*
Y1263290D01*
D02*
G37*
G36*
X637989D02*
X629229D01*
Y1263240D01*
X629913Y1260689D01*
X631233Y1258401D01*
X633101Y1256534D01*
X635388Y1255213D01*
X637939Y1254530D01*
X637989D01*
Y1263290D01*
D02*
G37*
G36*
X584289D02*
X575529D01*
Y1254530D01*
X584289D01*
Y1263290D01*
D02*
G37*
G36*
X572989D02*
X564229D01*
Y1254530D01*
X572989D01*
Y1263290D01*
D02*
G37*
G36*
X440785D02*
X432025D01*
Y1254530D01*
X432075D01*
X434626Y1255213D01*
X436913Y1256534D01*
X438781Y1258401D01*
X440101Y1260689D01*
X440785Y1263240D01*
Y1263290D01*
D02*
G37*
G36*
X429485D02*
X420725D01*
Y1263240D01*
X421408Y1260689D01*
X422729Y1258401D01*
X424596Y1256534D01*
X426883Y1255213D01*
X429434Y1254530D01*
X429485D01*
Y1263290D01*
D02*
G37*
G36*
X375785D02*
X367025D01*
Y1254530D01*
X375785D01*
Y1263290D01*
D02*
G37*
G36*
X364485D02*
X355725D01*
Y1254530D01*
X364485D01*
Y1263290D01*
D02*
G37*
G36*
X232280D02*
X223520D01*
Y1254530D01*
X223571D01*
X226122Y1255213D01*
X228409Y1256534D01*
X230276Y1258401D01*
X231597Y1260689D01*
X232280Y1263240D01*
Y1263290D01*
D02*
G37*
G36*
X220980D02*
X212220D01*
Y1263240D01*
X212904Y1260689D01*
X214224Y1258401D01*
X216092Y1256534D01*
X218379Y1255213D01*
X220930Y1254530D01*
X220980D01*
Y1263290D01*
D02*
G37*
G36*
X167280D02*
X158520D01*
Y1254530D01*
X167280D01*
Y1263290D01*
D02*
G37*
G36*
X155980D02*
X147220D01*
Y1254530D01*
X155980D01*
Y1263290D01*
D02*
G37*
G36*
X1997780Y1266260D02*
X1985010D01*
Y1253490D01*
X1997780D01*
Y1266260D01*
D02*
G37*
G36*
X1982470D02*
X1969700D01*
Y1253490D01*
X1982470D01*
Y1266260D01*
D02*
G37*
G36*
X954390Y1264990D02*
X941620D01*
Y1252220D01*
X954390D01*
Y1264990D01*
D02*
G37*
G36*
X939080D02*
X926310D01*
Y1252220D01*
X939080D01*
Y1264990D01*
D02*
G37*
G36*
X317210Y1263720D02*
X304440D01*
Y1250950D01*
X317210D01*
Y1263720D01*
D02*
G37*
G36*
X301900D02*
X289130D01*
Y1250950D01*
X301900D01*
Y1263720D01*
D02*
G37*
G36*
X735040Y1262450D02*
X722270D01*
Y1249680D01*
X735040D01*
Y1262450D01*
D02*
G37*
G36*
X719730D02*
X706960D01*
Y1249680D01*
X719730D01*
Y1262450D01*
D02*
G37*
G36*
X534380D02*
X521610D01*
Y1249680D01*
X534380D01*
Y1262450D01*
D02*
G37*
G36*
X519070D02*
X506300D01*
Y1249680D01*
X519070D01*
Y1262450D01*
D02*
G37*
G36*
X1784060Y1259840D02*
X1771290D01*
Y1247070D01*
X1784060D01*
Y1259840D01*
D02*
G37*
G36*
X1768750D02*
X1755980D01*
Y1247070D01*
X1768750D01*
Y1259840D01*
D02*
G37*
G36*
X2203160Y1254760D02*
X2190390D01*
Y1241990D01*
X2203160D01*
Y1254760D01*
D02*
G37*
G36*
X2187850D02*
X2175080D01*
Y1241990D01*
X2187850D01*
Y1254760D01*
D02*
G37*
G36*
X1370040Y1253490D02*
X1357270D01*
Y1240720D01*
X1370040D01*
Y1253490D01*
D02*
G37*
G36*
X1354730D02*
X1341960D01*
Y1240720D01*
X1354730D01*
Y1253490D01*
D02*
G37*
G36*
X1151600D02*
X1138830D01*
Y1240720D01*
X1151600D01*
Y1253490D01*
D02*
G37*
G36*
X1136290D02*
X1123520D01*
Y1240720D01*
X1136290D01*
Y1253490D01*
D02*
G37*
G36*
X1566890Y1252220D02*
X1554120D01*
Y1239450D01*
X1566890D01*
Y1252220D01*
D02*
G37*
G36*
X1551580D02*
X1538810D01*
Y1239450D01*
X1551580D01*
Y1252220D01*
D02*
G37*
G36*
X1997780Y1250950D02*
X1985010D01*
Y1238180D01*
X1997780D01*
Y1250950D01*
D02*
G37*
G36*
X1982470D02*
X1969700D01*
Y1238180D01*
X1982470D01*
Y1250950D01*
D02*
G37*
G36*
X954390Y1249680D02*
X941620D01*
Y1236910D01*
X954390D01*
Y1249680D01*
D02*
G37*
G36*
X939080D02*
X926310D01*
Y1236910D01*
X939080D01*
Y1249680D01*
D02*
G37*
G36*
X317210Y1248410D02*
X304440D01*
Y1235640D01*
X317210D01*
Y1248410D01*
D02*
G37*
G36*
X301900D02*
X289130D01*
Y1235640D01*
X301900D01*
Y1248410D01*
D02*
G37*
G36*
X735040Y1247140D02*
X722270D01*
Y1234370D01*
X735040D01*
Y1247140D01*
D02*
G37*
G36*
X719730D02*
X706960D01*
Y1234370D01*
X719730D01*
Y1247140D01*
D02*
G37*
G36*
X534380D02*
X521610D01*
Y1234370D01*
X534380D01*
Y1247140D01*
D02*
G37*
G36*
X519070D02*
X506300D01*
Y1234370D01*
X519070D01*
Y1247140D01*
D02*
G37*
G36*
X432075Y1229590D02*
X429434D01*
X426883Y1228906D01*
X424596Y1227586D01*
X424175Y1227165D01*
X372334D01*
X371913Y1227586D01*
X369626Y1228906D01*
X367075Y1229590D01*
X364434D01*
X361883Y1228906D01*
X359596Y1227586D01*
X358222Y1226212D01*
X343454D01*
X341486Y1225953D01*
X339652Y1225193D01*
X338077Y1223985D01*
X335145Y1221053D01*
X334017Y1220586D01*
X333306Y1220040D01*
X330780D01*
Y1216707D01*
X330474Y1215968D01*
X330215Y1214000D01*
X330474Y1212032D01*
X330780Y1211293D01*
Y1207960D01*
X333306D01*
X334017Y1207414D01*
X334564Y1207187D01*
Y1205813D01*
X334017Y1205586D01*
X333306Y1205040D01*
X330780D01*
Y1201707D01*
X330474Y1200968D01*
X330215Y1199000D01*
Y1189787D01*
X330474Y1187818D01*
X331234Y1185984D01*
X332442Y1184409D01*
X357407Y1159445D01*
X358982Y1158236D01*
X359742Y1157921D01*
X360816Y1157476D01*
X362785Y1157217D01*
X369900D01*
X377312Y1149806D01*
X376825Y1148633D01*
X363240D01*
Y1129553D01*
X382320D01*
Y1143138D01*
X383493Y1143624D01*
X389240Y1137877D01*
Y1137837D01*
X389890Y1135410D01*
X391146Y1133235D01*
X392922Y1131459D01*
X395098Y1130203D01*
X397524Y1129553D01*
X400036D01*
X402462Y1130203D01*
X404638Y1131459D01*
X406414Y1133235D01*
X407670Y1135410D01*
X408320Y1137837D01*
Y1140349D01*
X407670Y1142775D01*
X406414Y1144950D01*
X404638Y1146726D01*
X402462Y1147982D01*
X400036Y1148633D01*
X399995D01*
X378428Y1170200D01*
X376853Y1171408D01*
X375019Y1172168D01*
X373050Y1172427D01*
X365935D01*
X357045Y1181317D01*
X357531Y1182490D01*
X370780D01*
Y1191852D01*
X371866Y1193268D01*
X372181Y1194027D01*
X372626Y1195102D01*
X372885Y1197070D01*
Y1211955D01*
X424175D01*
X424596Y1211534D01*
X426883Y1210213D01*
X429434Y1209530D01*
X432075D01*
X434626Y1210213D01*
X436913Y1211534D01*
X438781Y1213401D01*
X440101Y1215689D01*
X440785Y1218240D01*
Y1220881D01*
X440101Y1223431D01*
X438781Y1225719D01*
X436913Y1227586D01*
X434626Y1228906D01*
X432075Y1229590D01*
D02*
G37*
G36*
X2245660Y1229420D02*
X2214580D01*
Y1224765D01*
X2190880D01*
X2189393Y1224469D01*
X2188931Y1224160D01*
X2174080D01*
Y1204080D01*
X2194160D01*
Y1216995D01*
X2214580D01*
Y1212340D01*
X2245660D01*
Y1229420D01*
D02*
G37*
G36*
X2100110Y1229590D02*
X2097469D01*
X2094918Y1228906D01*
X2092631Y1227586D01*
X2090764Y1225719D01*
X2089443Y1223431D01*
X2088760Y1220881D01*
Y1218240D01*
X2089443Y1215689D01*
X2090764Y1213401D01*
X2092631Y1211534D01*
X2094918Y1210213D01*
X2097469Y1209530D01*
X2100110D01*
X2102661Y1210213D01*
X2104948Y1211534D01*
X2106816Y1213401D01*
X2108136Y1215689D01*
X2108820Y1218240D01*
Y1220881D01*
X2108136Y1223431D01*
X2106816Y1225719D01*
X2104948Y1227586D01*
X2102661Y1228906D01*
X2100110Y1229590D01*
D02*
G37*
G36*
X1891606D02*
X1888965D01*
X1886414Y1228906D01*
X1884127Y1227586D01*
X1882260Y1225719D01*
X1880939Y1223431D01*
X1880255Y1220881D01*
Y1218240D01*
X1880939Y1215689D01*
X1882260Y1213401D01*
X1884127Y1211534D01*
X1886414Y1210213D01*
X1888965Y1209530D01*
X1891606D01*
X1894157Y1210213D01*
X1896444Y1211534D01*
X1898311Y1213401D01*
X1899632Y1215689D01*
X1900316Y1218240D01*
Y1220881D01*
X1899632Y1223431D01*
X1898311Y1225719D01*
X1896444Y1227586D01*
X1894157Y1228906D01*
X1891606Y1229590D01*
D02*
G37*
G36*
X1683102D02*
X1680461D01*
X1677910Y1228906D01*
X1675623Y1227586D01*
X1673755Y1225719D01*
X1672435Y1223431D01*
X1671751Y1220881D01*
Y1218240D01*
X1672435Y1215689D01*
X1673755Y1213401D01*
X1675623Y1211534D01*
X1677910Y1210213D01*
X1680461Y1209530D01*
X1683102D01*
X1685652Y1210213D01*
X1687940Y1211534D01*
X1689807Y1213401D01*
X1691127Y1215689D01*
X1691811Y1218240D01*
Y1220881D01*
X1691127Y1223431D01*
X1689807Y1225719D01*
X1687940Y1227586D01*
X1685652Y1228906D01*
X1683102Y1229590D01*
D02*
G37*
G36*
X1474597D02*
X1471956D01*
X1469405Y1228906D01*
X1467118Y1227586D01*
X1465251Y1225719D01*
X1463930Y1223431D01*
X1463247Y1220881D01*
Y1218240D01*
X1463930Y1215689D01*
X1465251Y1213401D01*
X1467118Y1211534D01*
X1469405Y1210213D01*
X1471956Y1209530D01*
X1474597D01*
X1477148Y1210213D01*
X1479435Y1211534D01*
X1481303Y1213401D01*
X1482623Y1215689D01*
X1483307Y1218240D01*
Y1220881D01*
X1482623Y1223431D01*
X1481303Y1225719D01*
X1479435Y1227586D01*
X1477148Y1228906D01*
X1474597Y1229590D01*
D02*
G37*
G36*
X1266093D02*
X1263452D01*
X1260901Y1228906D01*
X1258614Y1227586D01*
X1256746Y1225719D01*
X1255426Y1223431D01*
X1254742Y1220881D01*
Y1218240D01*
X1255426Y1215689D01*
X1256746Y1213401D01*
X1258614Y1211534D01*
X1260901Y1210213D01*
X1263452Y1209530D01*
X1266093D01*
X1268644Y1210213D01*
X1270931Y1211534D01*
X1272798Y1213401D01*
X1274119Y1215689D01*
X1274802Y1218240D01*
Y1220881D01*
X1274119Y1223431D01*
X1272798Y1225719D01*
X1270931Y1227586D01*
X1268644Y1228906D01*
X1266093Y1229590D01*
D02*
G37*
G36*
X1057588D02*
X1054947D01*
X1052396Y1228906D01*
X1050109Y1227586D01*
X1048242Y1225719D01*
X1046921Y1223431D01*
X1046238Y1220881D01*
Y1218240D01*
X1046921Y1215689D01*
X1048242Y1213401D01*
X1050109Y1211534D01*
X1052396Y1210213D01*
X1054947Y1209530D01*
X1057588D01*
X1060139Y1210213D01*
X1062426Y1211534D01*
X1064294Y1213401D01*
X1065614Y1215689D01*
X1066298Y1218240D01*
Y1220881D01*
X1065614Y1223431D01*
X1064294Y1225719D01*
X1062426Y1227586D01*
X1060139Y1228906D01*
X1057588Y1229590D01*
D02*
G37*
G36*
X640580D02*
X637939D01*
X635388Y1228906D01*
X633101Y1227586D01*
X631233Y1225719D01*
X629913Y1223431D01*
X629229Y1220881D01*
Y1218240D01*
X629913Y1215689D01*
X631233Y1213401D01*
X633101Y1211534D01*
X635388Y1210213D01*
X637939Y1209530D01*
X640580D01*
X643130Y1210213D01*
X645418Y1211534D01*
X647285Y1213401D01*
X648605Y1215689D01*
X649289Y1218240D01*
Y1220881D01*
X648605Y1223431D01*
X647285Y1225719D01*
X645418Y1227586D01*
X643130Y1228906D01*
X640580Y1229590D01*
D02*
G37*
G36*
X223571D02*
X220930D01*
X218379Y1228906D01*
X216092Y1227586D01*
X214224Y1225719D01*
X212904Y1223431D01*
X212220Y1220881D01*
Y1218240D01*
X212904Y1215689D01*
X214224Y1213401D01*
X216092Y1211534D01*
X218379Y1210213D01*
X220930Y1209530D01*
X223571D01*
X226122Y1210213D01*
X228409Y1211534D01*
X230276Y1213401D01*
X231597Y1215689D01*
X232280Y1218240D01*
Y1220881D01*
X231597Y1223431D01*
X230276Y1225719D01*
X228409Y1227586D01*
X226122Y1228906D01*
X223571Y1229590D01*
D02*
G37*
G36*
X992588D02*
X989947D01*
X987396Y1228906D01*
X985109Y1227586D01*
X983242Y1225719D01*
X981921Y1223431D01*
X981238Y1220881D01*
Y1218240D01*
X981921Y1215689D01*
X982710Y1214323D01*
Y1202570D01*
X981238D01*
X980440Y1202675D01*
X961390D01*
X959422Y1202416D01*
X957588Y1201656D01*
X956876Y1201110D01*
X954350D01*
Y1197777D01*
X954044Y1197038D01*
X953785Y1195070D01*
X954044Y1193102D01*
X954350Y1192363D01*
Y1189030D01*
X956876D01*
X957588Y1188484D01*
X959422Y1187724D01*
X961390Y1187465D01*
X975540D01*
Y1182490D01*
X995620D01*
Y1191815D01*
X995693Y1191887D01*
X996901Y1193462D01*
X997661Y1195297D01*
X997920Y1197265D01*
Y1212028D01*
X999294Y1213401D01*
X1000614Y1215689D01*
X1001298Y1218240D01*
Y1220881D01*
X1000614Y1223431D01*
X999294Y1225719D01*
X997426Y1227586D01*
X995139Y1228906D01*
X992588Y1229590D01*
D02*
G37*
G36*
X2099302Y1202570D02*
X2096658D01*
X2094105Y1201886D01*
X2091815Y1200564D01*
X2089946Y1198695D01*
X2088624Y1196405D01*
X2087940Y1193852D01*
Y1191208D01*
X2088624Y1188655D01*
X2089946Y1186365D01*
X2091815Y1184496D01*
X2094105Y1183174D01*
X2096658Y1182490D01*
X2099302D01*
X2101855Y1183174D01*
X2104145Y1184496D01*
X2106014Y1186365D01*
X2107336Y1188655D01*
X2108020Y1191208D01*
Y1193852D01*
X2107336Y1196405D01*
X2106014Y1198695D01*
X2104145Y1200564D01*
X2101855Y1201886D01*
X2099302Y1202570D01*
D02*
G37*
G36*
X784084Y1229590D02*
X781443D01*
X778892Y1228906D01*
X776605Y1227586D01*
X774737Y1225719D01*
X773417Y1223431D01*
X772733Y1220881D01*
Y1218240D01*
X772740Y1218216D01*
X772235Y1216998D01*
X771976Y1215030D01*
Y1202570D01*
X767260D01*
Y1200135D01*
X748150D01*
X746182Y1199876D01*
X744348Y1199116D01*
X742773Y1197908D01*
X742045Y1197180D01*
X739720D01*
Y1193847D01*
X739414Y1193108D01*
X739155Y1191140D01*
X739414Y1189172D01*
X739720Y1188433D01*
Y1185100D01*
X742246D01*
X742958Y1184554D01*
X744792Y1183794D01*
X745900Y1183648D01*
X746376Y1183585D01*
Y1182305D01*
X745430Y1182180D01*
X739720D01*
Y1177457D01*
X739414Y1176718D01*
X739155Y1174750D01*
Y1164590D01*
X739414Y1162622D01*
X740174Y1160788D01*
X741382Y1159212D01*
X750272Y1150322D01*
X751848Y1149114D01*
X753682Y1148354D01*
X755650Y1148095D01*
X777260D01*
Y1129650D01*
X796340D01*
Y1143235D01*
X797513Y1143721D01*
X803260Y1137975D01*
Y1137934D01*
X803910Y1135508D01*
X805166Y1133332D01*
X806942Y1131556D01*
X809118Y1130300D01*
X811544Y1129650D01*
X814056D01*
X816482Y1130300D01*
X818658Y1131556D01*
X820434Y1133332D01*
X821690Y1135508D01*
X822340Y1137934D01*
Y1140446D01*
X821690Y1142872D01*
X820434Y1145048D01*
X818658Y1146824D01*
X816482Y1148080D01*
X814056Y1148730D01*
X814015D01*
X801668Y1161078D01*
X800092Y1162286D01*
X798258Y1163046D01*
X796290Y1163305D01*
X758800D01*
X754365Y1167740D01*
Y1174750D01*
X754106Y1176718D01*
X753800Y1177457D01*
Y1182180D01*
X748090D01*
X747144Y1182305D01*
Y1183585D01*
X747620Y1183648D01*
X748728Y1183794D01*
X750563Y1184554D01*
X751046Y1184925D01*
X767260D01*
Y1182490D01*
X787340D01*
Y1202570D01*
X787186D01*
Y1210532D01*
X788922Y1211534D01*
X790789Y1213401D01*
X792110Y1215689D01*
X792793Y1218240D01*
Y1220881D01*
X792110Y1223431D01*
X790789Y1225719D01*
X788922Y1227586D01*
X786635Y1228906D01*
X784084Y1229590D01*
D02*
G37*
G36*
X2245660Y1185420D02*
X2231390D01*
Y1178150D01*
X2245660D01*
Y1185420D01*
D02*
G37*
G36*
X2228850D02*
X2214580D01*
Y1178150D01*
X2228850D01*
Y1185420D01*
D02*
G37*
G36*
X2245660Y1175610D02*
X2231390D01*
Y1168340D01*
X2245660D01*
Y1175610D01*
D02*
G37*
G36*
X2194560Y1174230D02*
X2180290D01*
Y1167460D01*
X2194560D01*
Y1174230D01*
D02*
G37*
G36*
X2228850Y1175610D02*
X2214580D01*
Y1174305D01*
X2200060D01*
X2199685Y1174230D01*
X2197100D01*
Y1166190D01*
Y1158150D01*
X2211370D01*
Y1166535D01*
X2216660D01*
X2218147Y1166831D01*
X2219407Y1167673D01*
X2220074Y1168340D01*
X2228850D01*
Y1175610D01*
D02*
G37*
G36*
X2194560Y1164920D02*
X2180290D01*
Y1158150D01*
X2194560D01*
Y1164920D01*
D02*
G37*
G36*
X1930210Y1161470D02*
X1925440D01*
Y1155700D01*
X1930210D01*
Y1161470D01*
D02*
G37*
G36*
X1716850Y1157660D02*
X1712080D01*
Y1151890D01*
X1716850D01*
Y1157660D01*
D02*
G37*
G36*
X1302830Y1155120D02*
X1298060D01*
Y1149350D01*
X1302830D01*
Y1155120D01*
D02*
G37*
G36*
X885000D02*
X880230D01*
Y1149350D01*
X885000D01*
Y1155120D01*
D02*
G37*
G36*
X1295520D02*
X1290750D01*
Y1149350D01*
X1295520D01*
Y1155120D01*
D02*
G37*
G36*
X877690D02*
X872920D01*
Y1149350D01*
X877690D01*
Y1155120D01*
D02*
G37*
G36*
X1982350Y1201300D02*
X1962270D01*
Y1185405D01*
X1962195Y1185030D01*
Y1183949D01*
X1939716Y1161470D01*
X1933130D01*
Y1147390D01*
X1945210D01*
Y1155976D01*
X1968827Y1179593D01*
X1969669Y1180853D01*
X1969742Y1181220D01*
X1982350D01*
Y1201300D01*
D02*
G37*
G36*
X1930210Y1153160D02*
X1925440D01*
Y1147390D01*
X1930210D01*
Y1153160D01*
D02*
G37*
G36*
X461970Y1151310D02*
X457200D01*
Y1145540D01*
X461970D01*
Y1151310D01*
D02*
G37*
G36*
X454660D02*
X449890D01*
Y1145540D01*
X454660D01*
Y1151310D01*
D02*
G37*
G36*
X253690Y1150040D02*
X248920D01*
Y1144270D01*
X253690D01*
Y1150040D01*
D02*
G37*
G36*
X672910Y1150040D02*
X668140D01*
Y1144270D01*
X672910D01*
Y1150040D01*
D02*
G37*
G36*
X665600D02*
X660830D01*
Y1144270D01*
X665600D01*
Y1150040D01*
D02*
G37*
G36*
X1768710Y1212730D02*
X1748630D01*
Y1192650D01*
X1754785D01*
Y1186089D01*
X1726356Y1157660D01*
X1719770D01*
Y1143580D01*
X1731850D01*
Y1152166D01*
X1761417Y1181733D01*
X1762259Y1182993D01*
X1762555Y1184480D01*
Y1192650D01*
X1768710D01*
Y1212730D01*
D02*
G37*
G36*
X1716850Y1149350D02*
X1712080D01*
Y1143580D01*
X1716850D01*
Y1149350D01*
D02*
G37*
G36*
X1709540D02*
X1704770D01*
Y1143580D01*
X1709540D01*
Y1149350D01*
D02*
G37*
G36*
X1554080Y1208920D02*
X1534000D01*
Y1188840D01*
X1540435D01*
Y1186369D01*
X1511726Y1157660D01*
X1505140D01*
Y1143580D01*
X1517220D01*
Y1152166D01*
X1547067Y1182013D01*
X1547909Y1183273D01*
X1548205Y1184760D01*
Y1188840D01*
X1554080D01*
Y1208920D01*
D02*
G37*
G36*
X1502220Y1149350D02*
X1497450D01*
Y1143580D01*
X1502220D01*
Y1149350D01*
D02*
G37*
G36*
X1358500Y1206380D02*
X1338420D01*
Y1186300D01*
X1341857D01*
X1342343Y1185127D01*
X1312336Y1155120D01*
X1305750D01*
Y1141040D01*
X1317830D01*
Y1149626D01*
X1351207Y1183003D01*
X1352049Y1184263D01*
X1352345Y1185750D01*
Y1186300D01*
X1358500D01*
Y1206380D01*
D02*
G37*
G36*
X1302830Y1146810D02*
X1298060D01*
Y1141040D01*
X1302830D01*
Y1146810D01*
D02*
G37*
G36*
X1295520D02*
X1290750D01*
Y1141040D01*
X1295520D01*
Y1146810D01*
D02*
G37*
G36*
X939400Y1203840D02*
X919320D01*
Y1183760D01*
X925475D01*
Y1170999D01*
X909671Y1155195D01*
X896190D01*
X895815Y1155120D01*
X887920D01*
Y1141040D01*
X900000D01*
Y1147425D01*
X911280D01*
X912767Y1147721D01*
X914027Y1148563D01*
X932107Y1166643D01*
X932949Y1167903D01*
X933245Y1169390D01*
Y1183760D01*
X939400D01*
Y1203840D01*
D02*
G37*
G36*
X885000Y1146810D02*
X880230D01*
Y1141040D01*
X885000D01*
Y1146810D01*
D02*
G37*
G36*
X877690D02*
X872920D01*
Y1141040D01*
X877690D01*
Y1146810D01*
D02*
G37*
G36*
X1136250Y1206380D02*
X1116170D01*
Y1186300D01*
X1122325D01*
Y1181009D01*
X1095166Y1153850D01*
X1088580D01*
Y1139770D01*
X1100660D01*
Y1148356D01*
X1128957Y1176653D01*
X1129799Y1177913D01*
X1130095Y1179400D01*
Y1186300D01*
X1136250D01*
Y1206380D01*
D02*
G37*
G36*
X1085660Y1145540D02*
X1080890D01*
Y1139770D01*
X1085660D01*
Y1145540D01*
D02*
G37*
G36*
X1078350D02*
X1073580D01*
Y1139770D01*
X1078350D01*
Y1145540D01*
D02*
G37*
G36*
X519030Y1201300D02*
X498950D01*
Y1181220D01*
X504115D01*
Y1179905D01*
X502680D01*
X501193Y1179609D01*
X499933Y1178767D01*
X472476Y1151310D01*
X464890D01*
Y1137230D01*
X476970D01*
Y1144816D01*
X504289Y1172135D01*
X506512D01*
X507999Y1172431D01*
X509259Y1173273D01*
X510747Y1174761D01*
X511589Y1176021D01*
X511885Y1177508D01*
Y1181220D01*
X519030D01*
Y1201300D01*
D02*
G37*
G36*
X461970Y1143000D02*
X457200D01*
Y1137230D01*
X461970D01*
Y1143000D01*
D02*
G37*
G36*
X454660D02*
X449890D01*
Y1137230D01*
X454660D01*
Y1143000D01*
D02*
G37*
G36*
X304400Y1200030D02*
X284320D01*
Y1179950D01*
X290755D01*
Y1177599D01*
X263196Y1150040D01*
X256610D01*
Y1135960D01*
X268690D01*
Y1144546D01*
X297387Y1173243D01*
X298229Y1174503D01*
X298525Y1175990D01*
Y1179950D01*
X304400D01*
Y1200030D01*
D02*
G37*
G36*
X253690Y1141730D02*
X248920D01*
Y1135960D01*
X253690D01*
Y1141730D01*
D02*
G37*
G36*
X246380D02*
X241610D01*
Y1135960D01*
X246380D01*
Y1141730D01*
D02*
G37*
G36*
X719690Y1198760D02*
X699610D01*
Y1178680D01*
X706045D01*
Y1173669D01*
X682416Y1150040D01*
X675830D01*
Y1135960D01*
X687910D01*
Y1144546D01*
X712677Y1169313D01*
X713519Y1170573D01*
X713815Y1172060D01*
Y1178680D01*
X719690D01*
Y1198760D01*
D02*
G37*
G36*
X672910Y1141730D02*
X668140D01*
Y1135960D01*
X672910D01*
Y1141730D01*
D02*
G37*
G36*
X665600D02*
X660830D01*
Y1135960D01*
X665600D01*
Y1141730D01*
D02*
G37*
G36*
X2105068Y1344630D02*
X2101792D01*
X2098628Y1343782D01*
X2095792Y1342144D01*
X2093475Y1339828D01*
X2091838Y1336992D01*
X2090990Y1333828D01*
Y1330552D01*
X2091838Y1327388D01*
X2093475Y1324552D01*
X2095792Y1322236D01*
X2095825Y1322216D01*
Y1296720D01*
X2096084Y1294752D01*
X2096844Y1292917D01*
X2098052Y1291342D01*
X2130080Y1259315D01*
Y1241990D01*
X2139015D01*
Y1216620D01*
X2139080Y1216126D01*
Y1204080D01*
X2139655D01*
Y1194770D01*
X2092345Y1147460D01*
X2092304D01*
X2089878Y1146810D01*
X2087702Y1145554D01*
X2085926Y1143778D01*
X2084670Y1141602D01*
X2084020Y1139176D01*
Y1136664D01*
X2084670Y1134238D01*
X2085926Y1132062D01*
X2087702Y1130286D01*
X2089878Y1129030D01*
X2092304Y1128380D01*
X2094816D01*
X2097242Y1129030D01*
X2099418Y1130286D01*
X2101194Y1132062D01*
X2102450Y1134238D01*
X2103100Y1136664D01*
Y1136705D01*
X2152638Y1186242D01*
X2153846Y1187818D01*
X2154161Y1188577D01*
X2154606Y1189652D01*
X2154865Y1191620D01*
Y1204080D01*
X2159160D01*
Y1224160D01*
X2154225D01*
Y1241990D01*
X2158160D01*
Y1270070D01*
X2140835D01*
X2111035Y1299870D01*
Y1322216D01*
X2111068Y1322236D01*
X2113385Y1324552D01*
X2115022Y1327388D01*
X2115870Y1330552D01*
Y1333828D01*
X2115022Y1336992D01*
X2113385Y1339828D01*
X2111068Y1342144D01*
X2108232Y1343782D01*
X2105068Y1344630D01*
D02*
G37*
G36*
X961390Y1186165D02*
X960972Y1186110D01*
X954350D01*
Y1181267D01*
X954044Y1180528D01*
X953785Y1178560D01*
Y1172988D01*
X954044Y1171020D01*
X954804Y1169185D01*
X956012Y1167610D01*
X961870Y1161752D01*
X963445Y1160544D01*
X964205Y1160229D01*
X965279Y1159784D01*
X967248Y1159525D01*
X992530D01*
X1003421Y1148633D01*
X1002935Y1147460D01*
X989350D01*
Y1128380D01*
X1008430D01*
Y1141965D01*
X1009603Y1142451D01*
X1015350Y1136705D01*
Y1136664D01*
X1016000Y1134238D01*
X1017256Y1132062D01*
X1019032Y1130286D01*
X1021208Y1129030D01*
X1023634Y1128380D01*
X1026146D01*
X1028572Y1129030D01*
X1030748Y1130286D01*
X1032524Y1132062D01*
X1033780Y1134238D01*
X1034430Y1136664D01*
Y1139176D01*
X1033780Y1141602D01*
X1032524Y1143778D01*
X1030748Y1145554D01*
X1028572Y1146810D01*
X1026146Y1147460D01*
X1026105D01*
X1001058Y1172508D01*
X999482Y1173716D01*
X997648Y1174476D01*
X995680Y1174735D01*
X970398D01*
X968995Y1176138D01*
Y1178560D01*
X968736Y1180528D01*
X968430Y1181267D01*
Y1186110D01*
X961808D01*
X961390Y1186165D01*
D02*
G37*
G36*
X127600Y615760D02*
X96330D01*
Y584490D01*
X127600D01*
Y615760D01*
D02*
G37*
G36*
X93790D02*
X62520D01*
Y584490D01*
X93790D01*
Y615760D01*
D02*
G37*
G36*
X127600Y581950D02*
X96330D01*
Y550680D01*
X127600D01*
Y581950D01*
D02*
G37*
G36*
X93790D02*
X62520D01*
Y550680D01*
X93790D01*
Y581950D01*
D02*
G37*
%LPD*%
G36*
X357675Y1202570D02*
X350700D01*
Y1189321D01*
X349527Y1188835D01*
X345425Y1192937D01*
Y1199000D01*
X345166Y1200968D01*
X344860Y1201707D01*
Y1205040D01*
X342334D01*
X341623Y1205586D01*
X341589Y1205600D01*
X341458Y1206307D01*
X341589Y1206975D01*
X342649Y1207414D01*
X343361Y1207960D01*
X344860D01*
Y1209258D01*
X346604Y1211002D01*
X357675D01*
Y1202570D01*
D02*
G37*
%LPC*%
G36*
X2040290Y1136650D02*
X2032020D01*
Y1128380D01*
X2040290D01*
Y1136650D01*
D02*
G37*
G36*
X2061370Y1089540D02*
X2052600D01*
Y1080770D01*
X2061370D01*
Y1089540D01*
D02*
G37*
G36*
X2050060D02*
X2041290D01*
Y1080770D01*
X2050060D01*
Y1089540D01*
D02*
G37*
G36*
X2061370Y1078230D02*
X2052600D01*
Y1069460D01*
X2061370D01*
Y1078230D01*
D02*
G37*
G36*
X2050060D02*
X2041290D01*
Y1069460D01*
X2050060D01*
Y1078230D01*
D02*
G37*
G36*
X2250440Y1052803D02*
Y1045210D01*
X2258033D01*
X2257454Y1047371D01*
X2256284Y1049399D01*
X2254629Y1051054D01*
X2252601Y1052224D01*
X2250440Y1052803D01*
D02*
G37*
G36*
X2247900D02*
X2245739Y1052224D01*
X2243711Y1051054D01*
X2242056Y1049399D01*
X2240886Y1047371D01*
X2240307Y1045210D01*
X2247900D01*
Y1052803D01*
D02*
G37*
G36*
X2182336D02*
Y1045210D01*
X2189929D01*
X2189350Y1047371D01*
X2188180Y1049399D01*
X2186525Y1051054D01*
X2184498Y1052224D01*
X2182336Y1052803D01*
D02*
G37*
G36*
X2179796D02*
X2177635Y1052224D01*
X2175607Y1051054D01*
X2173952Y1049399D01*
X2172782Y1047371D01*
X2172203Y1045210D01*
X2179796D01*
Y1052803D01*
D02*
G37*
G36*
X2115502D02*
Y1045210D01*
X2123096D01*
X2122516Y1047371D01*
X2121346Y1049399D01*
X2119691Y1051054D01*
X2117664Y1052224D01*
X2115502Y1052803D01*
D02*
G37*
G36*
X2112962D02*
X2110801Y1052224D01*
X2108774Y1051054D01*
X2107119Y1049399D01*
X2105948Y1047371D01*
X2105369Y1045210D01*
X2112962D01*
Y1052803D01*
D02*
G37*
G36*
X2048669D02*
Y1045210D01*
X2056262D01*
X2055683Y1047371D01*
X2054512Y1049399D01*
X2052857Y1051054D01*
X2050830Y1052224D01*
X2048669Y1052803D01*
D02*
G37*
G36*
X2046129D02*
X2043967Y1052224D01*
X2041940Y1051054D01*
X2040285Y1049399D01*
X2039115Y1047371D01*
X2038535Y1045210D01*
X2046129D01*
Y1052803D01*
D02*
G37*
G36*
X1981835D02*
Y1045210D01*
X1989428D01*
X1988849Y1047371D01*
X1987679Y1049399D01*
X1986024Y1051054D01*
X1983996Y1052224D01*
X1981835Y1052803D01*
D02*
G37*
G36*
X1979295D02*
X1977133Y1052224D01*
X1975106Y1051054D01*
X1973451Y1049399D01*
X1972281Y1047371D01*
X1971702Y1045210D01*
X1979295D01*
Y1052803D01*
D02*
G37*
G36*
X1915001D02*
Y1045210D01*
X1922594D01*
X1922015Y1047371D01*
X1920845Y1049399D01*
X1919190Y1051054D01*
X1917163Y1052224D01*
X1915001Y1052803D01*
D02*
G37*
G36*
X1912461D02*
X1910300Y1052224D01*
X1908273Y1051054D01*
X1906617Y1049399D01*
X1905447Y1047371D01*
X1904868Y1045210D01*
X1912461D01*
Y1052803D01*
D02*
G37*
G36*
X1781334D02*
Y1045210D01*
X1788927D01*
X1788348Y1047371D01*
X1787177Y1049399D01*
X1785522Y1051054D01*
X1783495Y1052224D01*
X1781334Y1052803D01*
D02*
G37*
G36*
X1778794D02*
X1776632Y1052224D01*
X1774605Y1051054D01*
X1772950Y1049399D01*
X1771780Y1047371D01*
X1771200Y1045210D01*
X1778794D01*
Y1052803D01*
D02*
G37*
G36*
X1714500D02*
Y1045210D01*
X1722093D01*
X1721514Y1047371D01*
X1720344Y1049399D01*
X1718689Y1051054D01*
X1716661Y1052224D01*
X1714500Y1052803D01*
D02*
G37*
G36*
X1711960D02*
X1709799Y1052224D01*
X1707771Y1051054D01*
X1706116Y1049399D01*
X1704946Y1047371D01*
X1704367Y1045210D01*
X1711960D01*
Y1052803D01*
D02*
G37*
G36*
X2258033Y1042670D02*
X2250440D01*
Y1035077D01*
X2252601Y1035656D01*
X2254629Y1036826D01*
X2256284Y1038481D01*
X2257454Y1040509D01*
X2258033Y1042670D01*
D02*
G37*
G36*
X2247900D02*
X2240307D01*
X2240886Y1040509D01*
X2242056Y1038481D01*
X2243711Y1036826D01*
X2245739Y1035656D01*
X2247900Y1035077D01*
Y1042670D01*
D02*
G37*
G36*
X2189929D02*
X2182336D01*
Y1035077D01*
X2184498Y1035656D01*
X2186525Y1036826D01*
X2188180Y1038481D01*
X2189350Y1040509D01*
X2189929Y1042670D01*
D02*
G37*
G36*
X2179796D02*
X2172203D01*
X2172782Y1040509D01*
X2173952Y1038481D01*
X2175607Y1036826D01*
X2177635Y1035656D01*
X2179796Y1035077D01*
Y1042670D01*
D02*
G37*
G36*
X2123096D02*
X2115502D01*
Y1035077D01*
X2117664Y1035656D01*
X2119691Y1036826D01*
X2121346Y1038481D01*
X2122516Y1040509D01*
X2123096Y1042670D01*
D02*
G37*
G36*
X2112962D02*
X2105369D01*
X2105948Y1040509D01*
X2107119Y1038481D01*
X2108774Y1036826D01*
X2110801Y1035656D01*
X2112962Y1035077D01*
Y1042670D01*
D02*
G37*
G36*
X2056262D02*
X2048669D01*
Y1035077D01*
X2050830Y1035656D01*
X2052857Y1036826D01*
X2054512Y1038481D01*
X2055683Y1040509D01*
X2056262Y1042670D01*
D02*
G37*
G36*
X2046129D02*
X2038535D01*
X2039115Y1040509D01*
X2040285Y1038481D01*
X2041940Y1036826D01*
X2043967Y1035656D01*
X2046129Y1035077D01*
Y1042670D01*
D02*
G37*
G36*
X1989428D02*
X1981835D01*
Y1035077D01*
X1983996Y1035656D01*
X1986024Y1036826D01*
X1987679Y1038481D01*
X1988849Y1040509D01*
X1989428Y1042670D01*
D02*
G37*
G36*
X1979295D02*
X1971702D01*
X1972281Y1040509D01*
X1973451Y1038481D01*
X1975106Y1036826D01*
X1977133Y1035656D01*
X1979295Y1035077D01*
Y1042670D01*
D02*
G37*
G36*
X1922594D02*
X1915001D01*
Y1035077D01*
X1917163Y1035656D01*
X1919190Y1036826D01*
X1920845Y1038481D01*
X1922015Y1040509D01*
X1922594Y1042670D01*
D02*
G37*
G36*
X1912461D02*
X1904868D01*
X1905447Y1040509D01*
X1906617Y1038481D01*
X1908273Y1036826D01*
X1910300Y1035656D01*
X1912461Y1035077D01*
Y1042670D01*
D02*
G37*
G36*
X1788927D02*
X1781334D01*
Y1035077D01*
X1783495Y1035656D01*
X1785522Y1036826D01*
X1787177Y1038481D01*
X1788348Y1040509D01*
X1788927Y1042670D01*
D02*
G37*
G36*
X1778794D02*
X1771200D01*
X1771780Y1040509D01*
X1772950Y1038481D01*
X1774605Y1036826D01*
X1776632Y1035656D01*
X1778794Y1035077D01*
Y1042670D01*
D02*
G37*
G36*
X1722093D02*
X1714500D01*
Y1035077D01*
X1716661Y1035656D01*
X1718689Y1036826D01*
X1720344Y1038481D01*
X1721514Y1040509D01*
X1722093Y1042670D01*
D02*
G37*
G36*
X1711960D02*
X1704367D01*
X1704946Y1040509D01*
X1706116Y1038481D01*
X1707771Y1036826D01*
X1709799Y1035656D01*
X1711960Y1035077D01*
Y1042670D01*
D02*
G37*
G36*
X2250440Y980413D02*
Y972820D01*
X2258033D01*
X2257454Y974981D01*
X2256284Y977009D01*
X2254629Y978664D01*
X2252601Y979834D01*
X2250440Y980413D01*
D02*
G37*
G36*
X2247900D02*
X2245739Y979834D01*
X2243711Y978664D01*
X2242056Y977009D01*
X2240886Y974981D01*
X2240307Y972820D01*
X2247900D01*
Y980413D01*
D02*
G37*
G36*
X2258033Y970280D02*
X2250440D01*
Y962687D01*
X2252601Y963266D01*
X2254629Y964436D01*
X2256284Y966091D01*
X2257454Y968119D01*
X2258033Y970280D01*
D02*
G37*
G36*
X2247900D02*
X2240307D01*
X2240886Y968119D01*
X2242056Y966091D01*
X2243711Y964436D01*
X2245739Y963266D01*
X2247900Y962687D01*
Y970280D01*
D02*
G37*
G36*
X1696706Y1005220D02*
X1694194D01*
X1691768Y1004570D01*
X1689592Y1003314D01*
X1687816Y1001538D01*
X1686560Y999362D01*
X1685910Y996936D01*
Y994424D01*
X1686560Y991998D01*
X1687816Y989822D01*
X1689592Y988046D01*
X1690918Y987281D01*
Y962987D01*
X1691263Y961253D01*
X1692245Y959782D01*
X1694447Y957580D01*
X1692245Y955378D01*
X1691263Y953907D01*
X1690918Y952173D01*
Y927879D01*
X1689592Y927114D01*
X1687816Y925338D01*
X1686560Y923162D01*
X1685910Y920736D01*
Y918224D01*
X1686560Y915798D01*
X1687816Y913622D01*
X1689592Y911846D01*
X1691768Y910590D01*
X1694194Y909940D01*
X1696706D01*
X1699132Y910590D01*
X1701308Y911846D01*
X1703084Y913622D01*
X1704340Y915798D01*
X1704990Y918224D01*
Y920736D01*
X1704340Y923162D01*
X1703084Y925338D01*
X1701308Y927114D01*
X1699982Y927879D01*
Y949873D01*
X1731800D01*
X1733535Y950218D01*
X1735005Y951200D01*
X1741297Y957493D01*
X1766879D01*
X1767213Y956915D01*
X1767463Y956223D01*
X1766820Y953822D01*
Y951178D01*
X1767504Y948625D01*
X1768826Y946335D01*
X1770695Y944466D01*
X1772985Y943144D01*
X1775538Y942460D01*
X1778182D01*
X1780735Y943144D01*
X1783025Y944466D01*
X1784894Y946335D01*
X1786216Y948625D01*
X1786900Y951178D01*
Y953822D01*
X1786257Y956223D01*
X1786507Y956915D01*
X1786841Y957493D01*
X1985165D01*
X1986900Y957838D01*
X1988370Y958820D01*
X1995932Y966383D01*
X2190284D01*
X2191258Y965113D01*
X2190710Y963067D01*
Y959713D01*
X2191578Y956472D01*
X2193255Y953568D01*
X2195627Y951196D01*
X2197698Y950000D01*
X2197358Y948730D01*
X2190710D01*
Y937260D01*
X2203450D01*
X2216190D01*
Y948730D01*
X2209542D01*
X2209202Y950000D01*
X2211272Y951196D01*
X2213645Y953568D01*
X2215322Y956472D01*
X2216190Y959713D01*
Y963067D01*
X2215322Y966308D01*
X2213645Y969212D01*
X2211272Y971584D01*
X2208367Y973262D01*
X2207646Y973455D01*
Y974725D01*
X2208367Y974918D01*
X2211272Y976596D01*
X2213645Y978968D01*
X2215322Y981872D01*
X2216190Y985113D01*
Y988467D01*
X2215322Y991708D01*
X2213645Y994613D01*
X2211272Y996984D01*
X2208367Y998662D01*
X2205127Y999530D01*
X2201773D01*
X2198533Y998662D01*
X2195627Y996984D01*
X2193255Y994613D01*
X2191578Y991708D01*
X2190710Y988467D01*
Y985113D01*
X2191258Y983067D01*
X2190284Y981797D01*
X1991425D01*
X1991425Y981797D01*
X1989691Y981452D01*
X1988220Y980470D01*
X1988220Y980470D01*
X1980658Y972907D01*
X1786900D01*
Y987940D01*
X1766820D01*
Y972907D01*
X1736790D01*
X1735056Y972562D01*
X1733585Y971580D01*
X1727293Y965287D01*
X1699982D01*
Y987281D01*
X1701308Y988046D01*
X1703084Y989822D01*
X1704340Y991998D01*
X1704990Y994424D01*
Y996936D01*
X1704340Y999362D01*
X1703084Y1001538D01*
X1701308Y1003314D01*
X1699132Y1004570D01*
X1696706Y1005220D01*
D02*
G37*
G36*
X2216190Y934720D02*
X2204720D01*
Y923250D01*
X2216190D01*
Y934720D01*
D02*
G37*
G36*
X2202180D02*
X2190710D01*
Y923250D01*
X2202180D01*
Y934720D01*
D02*
G37*
G36*
X2250440Y908023D02*
Y900430D01*
X2258033D01*
X2257454Y902591D01*
X2256284Y904619D01*
X2254629Y906274D01*
X2252601Y907444D01*
X2250440Y908023D01*
D02*
G37*
G36*
X2247900D02*
X2245739Y907444D01*
X2243711Y906274D01*
X2242056Y904619D01*
X2240886Y902591D01*
X2240307Y900430D01*
X2247900D01*
Y908023D01*
D02*
G37*
G36*
X2176780D02*
Y900430D01*
X2184373D01*
X2183794Y902591D01*
X2182624Y904619D01*
X2180968Y906274D01*
X2178941Y907444D01*
X2176780Y908023D01*
D02*
G37*
G36*
X2174240D02*
X2172078Y907444D01*
X2170051Y906274D01*
X2168396Y904619D01*
X2167226Y902591D01*
X2166647Y900430D01*
X2174240D01*
Y908023D01*
D02*
G37*
G36*
X2110740D02*
Y900430D01*
X2118333D01*
X2117754Y902591D01*
X2116584Y904619D01*
X2114928Y906274D01*
X2112901Y907444D01*
X2110740Y908023D01*
D02*
G37*
G36*
X2108200D02*
X2106038Y907444D01*
X2104011Y906274D01*
X2102356Y904619D01*
X2101186Y902591D01*
X2100607Y900430D01*
X2108200D01*
Y908023D01*
D02*
G37*
G36*
X2044700D02*
Y900430D01*
X2052293D01*
X2051714Y902591D01*
X2050544Y904619D01*
X2048889Y906274D01*
X2046861Y907444D01*
X2044700Y908023D01*
D02*
G37*
G36*
X2042160D02*
X2039998Y907444D01*
X2037971Y906274D01*
X2036316Y904619D01*
X2035146Y902591D01*
X2034567Y900430D01*
X2042160D01*
Y908023D01*
D02*
G37*
G36*
X1978660D02*
Y900430D01*
X1986253D01*
X1985674Y902591D01*
X1984504Y904619D01*
X1982849Y906274D01*
X1980821Y907444D01*
X1978660Y908023D01*
D02*
G37*
G36*
X1976120D02*
X1973958Y907444D01*
X1971931Y906274D01*
X1970276Y904619D01*
X1969106Y902591D01*
X1968527Y900430D01*
X1976120D01*
Y908023D01*
D02*
G37*
G36*
X1912620D02*
Y900430D01*
X1920213D01*
X1919634Y902591D01*
X1918464Y904619D01*
X1916808Y906274D01*
X1914781Y907444D01*
X1912620Y908023D01*
D02*
G37*
G36*
X1910080D02*
X1907919Y907444D01*
X1905891Y906274D01*
X1904236Y904619D01*
X1903066Y902591D01*
X1902487Y900430D01*
X1910080D01*
Y908023D01*
D02*
G37*
G36*
X1846580D02*
Y900430D01*
X1854173D01*
X1853594Y902591D01*
X1852424Y904619D01*
X1850768Y906274D01*
X1848741Y907444D01*
X1846580Y908023D01*
D02*
G37*
G36*
X1844040D02*
X1841879Y907444D01*
X1839851Y906274D01*
X1838196Y904619D01*
X1837026Y902591D01*
X1836447Y900430D01*
X1844040D01*
Y908023D01*
D02*
G37*
G36*
X1780540D02*
Y900430D01*
X1788133D01*
X1787554Y902591D01*
X1786384Y904619D01*
X1784729Y906274D01*
X1782701Y907444D01*
X1780540Y908023D01*
D02*
G37*
G36*
X1778000D02*
X1775839Y907444D01*
X1773811Y906274D01*
X1772156Y904619D01*
X1770986Y902591D01*
X1770407Y900430D01*
X1778000D01*
Y908023D01*
D02*
G37*
G36*
X2258033Y897890D02*
X2250440D01*
Y890297D01*
X2252601Y890876D01*
X2254629Y892046D01*
X2256284Y893701D01*
X2257454Y895729D01*
X2258033Y897890D01*
D02*
G37*
G36*
X2247900D02*
X2240307D01*
X2240886Y895729D01*
X2242056Y893701D01*
X2243711Y892046D01*
X2245739Y890876D01*
X2247900Y890297D01*
Y897890D01*
D02*
G37*
G36*
X2184373D02*
X2176780D01*
Y890297D01*
X2178941Y890876D01*
X2180968Y892046D01*
X2182624Y893701D01*
X2183794Y895729D01*
X2184373Y897890D01*
D02*
G37*
G36*
X2174240D02*
X2166647D01*
X2167226Y895729D01*
X2168396Y893701D01*
X2170051Y892046D01*
X2172078Y890876D01*
X2174240Y890297D01*
Y897890D01*
D02*
G37*
G36*
X2118333D02*
X2110740D01*
Y890297D01*
X2112901Y890876D01*
X2114928Y892046D01*
X2116584Y893701D01*
X2117754Y895729D01*
X2118333Y897890D01*
D02*
G37*
G36*
X2108200D02*
X2100607D01*
X2101186Y895729D01*
X2102356Y893701D01*
X2104011Y892046D01*
X2106038Y890876D01*
X2108200Y890297D01*
Y897890D01*
D02*
G37*
G36*
X2052293D02*
X2044700D01*
Y890297D01*
X2046861Y890876D01*
X2048889Y892046D01*
X2050544Y893701D01*
X2051714Y895729D01*
X2052293Y897890D01*
D02*
G37*
G36*
X2042160D02*
X2034567D01*
X2035146Y895729D01*
X2036316Y893701D01*
X2037971Y892046D01*
X2039998Y890876D01*
X2042160Y890297D01*
Y897890D01*
D02*
G37*
G36*
X1986253D02*
X1978660D01*
Y890297D01*
X1980821Y890876D01*
X1982849Y892046D01*
X1984504Y893701D01*
X1985674Y895729D01*
X1986253Y897890D01*
D02*
G37*
G36*
X1976120D02*
X1968527D01*
X1969106Y895729D01*
X1970276Y893701D01*
X1971931Y892046D01*
X1973958Y890876D01*
X1976120Y890297D01*
Y897890D01*
D02*
G37*
G36*
X1920213D02*
X1912620D01*
Y890297D01*
X1914781Y890876D01*
X1916808Y892046D01*
X1918464Y893701D01*
X1919634Y895729D01*
X1920213Y897890D01*
D02*
G37*
G36*
X1910080D02*
X1902487D01*
X1903066Y895729D01*
X1904236Y893701D01*
X1905891Y892046D01*
X1907919Y890876D01*
X1910080Y890297D01*
Y897890D01*
D02*
G37*
G36*
X1854173D02*
X1846580D01*
Y890297D01*
X1848741Y890876D01*
X1850768Y892046D01*
X1852424Y893701D01*
X1853594Y895729D01*
X1854173Y897890D01*
D02*
G37*
G36*
X1844040D02*
X1836447D01*
X1837026Y895729D01*
X1838196Y893701D01*
X1839851Y892046D01*
X1841879Y890876D01*
X1844040Y890297D01*
Y897890D01*
D02*
G37*
G36*
X1788133D02*
X1780540D01*
Y890297D01*
X1782701Y890876D01*
X1784729Y892046D01*
X1786384Y893701D01*
X1787554Y895729D01*
X1788133Y897890D01*
D02*
G37*
G36*
X1778000D02*
X1770407D01*
X1770986Y895729D01*
X1772156Y893701D01*
X1773811Y892046D01*
X1775839Y890876D01*
X1778000Y890297D01*
Y897890D01*
D02*
G37*
G36*
X576170Y753980D02*
X544900D01*
Y722710D01*
X576170D01*
Y753980D01*
D02*
G37*
G36*
X542360D02*
X511090D01*
Y722710D01*
X542360D01*
Y753980D01*
D02*
G37*
G36*
X740410Y429290D02*
X740338D01*
X737747Y428596D01*
X735423Y427254D01*
X733526Y425357D01*
X732184Y423033D01*
X731490Y420442D01*
Y420370D01*
X740410D01*
Y429290D01*
D02*
G37*
G36*
X1171330Y185150D02*
X1160060D01*
Y173880D01*
X1171330D01*
Y185150D01*
D02*
G37*
G36*
X1157520D02*
X1146250D01*
Y173880D01*
X1157520D01*
Y185150D01*
D02*
G37*
G36*
X1171330Y171340D02*
X1160060D01*
Y160070D01*
X1171330D01*
Y171340D01*
D02*
G37*
G36*
X1157520D02*
X1146250D01*
Y160070D01*
X1157520D01*
Y171340D01*
D02*
G37*
G36*
X1302980Y111480D02*
X1271710D01*
Y80210D01*
X1302980D01*
Y111480D01*
D02*
G37*
G36*
X1269170D02*
X1237900D01*
Y80210D01*
X1269170D01*
Y111480D01*
D02*
G37*
G36*
X1302980Y77670D02*
X1271710D01*
Y46400D01*
X1302980D01*
Y77670D01*
D02*
G37*
G36*
X1269170D02*
X1237900D01*
Y46400D01*
X1269170D01*
Y77670D01*
D02*
G37*
G36*
X1005720Y409220D02*
X996950D01*
Y400450D01*
X1005720D01*
Y409220D01*
D02*
G37*
G36*
X994410D02*
X985640D01*
Y400450D01*
X994410D01*
Y409220D01*
D02*
G37*
G36*
X1002720Y383230D02*
X996950D01*
Y378460D01*
X1002720D01*
Y383230D01*
D02*
G37*
G36*
X994410D02*
X988640D01*
Y378460D01*
X994410D01*
Y383230D01*
D02*
G37*
G36*
X1002720Y375920D02*
X996950D01*
Y371150D01*
X1002720D01*
Y375920D01*
D02*
G37*
G36*
X994410D02*
X988640D01*
Y371150D01*
X994410D01*
Y375920D01*
D02*
G37*
G36*
X1005720Y455530D02*
X996950D01*
Y446760D01*
X1005720D01*
Y455530D01*
D02*
G37*
G36*
X994410D02*
X985640D01*
Y446760D01*
X994410D01*
Y455530D01*
D02*
G37*
G36*
X1005720Y444220D02*
X996950D01*
Y435450D01*
X1005720D01*
Y444220D01*
D02*
G37*
G36*
X994410D02*
X985640D01*
Y435450D01*
X994410D01*
Y444220D01*
D02*
G37*
G36*
X1090670Y409970D02*
X1079500D01*
Y398800D01*
X1090670D01*
Y409970D01*
D02*
G37*
G36*
X1076960D02*
X1065790D01*
Y398800D01*
X1076960D01*
Y409970D01*
D02*
G37*
G36*
X1090670Y396260D02*
X1079500D01*
Y385090D01*
X1090670D01*
Y396260D01*
D02*
G37*
G36*
X1076960D02*
X1065790D01*
Y385090D01*
X1076960D01*
Y396260D01*
D02*
G37*
G36*
X743022Y607090D02*
X740338D01*
X737747Y606396D01*
X735423Y605054D01*
X733526Y603157D01*
X732184Y600833D01*
X731490Y598242D01*
Y595558D01*
X732184Y592967D01*
X733526Y590643D01*
X735423Y588746D01*
X737747Y587404D01*
X740338Y586710D01*
X743022D01*
X745613Y587404D01*
X747937Y588746D01*
X749834Y590643D01*
X751176Y592967D01*
X751870Y595558D01*
Y598242D01*
X751176Y600833D01*
X749834Y603157D01*
X747937Y605054D01*
X745613Y606396D01*
X743022Y607090D01*
D02*
G37*
G36*
Y581690D02*
X742950D01*
Y572770D01*
X751870D01*
Y572842D01*
X751176Y575433D01*
X749834Y577757D01*
X747937Y579654D01*
X745613Y580996D01*
X743022Y581690D01*
D02*
G37*
G36*
X740410D02*
X740338D01*
X737747Y580996D01*
X735423Y579654D01*
X733526Y577757D01*
X732184Y575433D01*
X731490Y572842D01*
Y572770D01*
X740410D01*
Y581690D01*
D02*
G37*
G36*
X751870Y570230D02*
X742950D01*
Y561310D01*
X743022D01*
X745613Y562004D01*
X747937Y563346D01*
X749834Y565243D01*
X751176Y567567D01*
X751870Y570158D01*
Y570230D01*
D02*
G37*
G36*
X740410D02*
X731490D01*
Y570158D01*
X732184Y567567D01*
X733526Y565243D01*
X735423Y563346D01*
X737747Y562004D01*
X740338Y561310D01*
X740410D01*
Y570230D01*
D02*
G37*
G36*
X723067Y289440D02*
X714297D01*
Y280670D01*
X723067D01*
Y289440D01*
D02*
G37*
G36*
Y278130D02*
X714297D01*
Y269360D01*
X723067D01*
Y278130D01*
D02*
G37*
G36*
X1081330Y330150D02*
X1070060D01*
Y318880D01*
X1081330D01*
Y330150D01*
D02*
G37*
G36*
X1067520D02*
X1056250D01*
Y318880D01*
X1067520D01*
Y330150D01*
D02*
G37*
G36*
X1081330Y316340D02*
X1070060D01*
Y305070D01*
X1081330D01*
Y316340D01*
D02*
G37*
G36*
X1067520D02*
X1056250D01*
Y305070D01*
X1067520D01*
Y316340D01*
D02*
G37*
G36*
X1081330Y185150D02*
X1070060D01*
Y173880D01*
X1081330D01*
Y185150D01*
D02*
G37*
G36*
X1067520D02*
X1056250D01*
Y173880D01*
X1067520D01*
Y185150D01*
D02*
G37*
G36*
X1081330Y171340D02*
X1070060D01*
Y160070D01*
X1081330D01*
Y171340D01*
D02*
G37*
G36*
X1067520D02*
X1056250D01*
Y160070D01*
X1067520D01*
Y171340D01*
D02*
G37*
G36*
X1197170Y111480D02*
X1195879D01*
X1190820Y110679D01*
X1185949Y109096D01*
X1181385Y106771D01*
X1177242Y103760D01*
X1173620Y100138D01*
X1170609Y95995D01*
X1168284Y91431D01*
X1166701Y86560D01*
X1165900Y81501D01*
Y80210D01*
X1197170D01*
Y111480D01*
D02*
G37*
G36*
Y77670D02*
X1165900D01*
Y76379D01*
X1166701Y71320D01*
X1168284Y66449D01*
X1170609Y61885D01*
X1173620Y57742D01*
X1177242Y54120D01*
X1181385Y51109D01*
X1185949Y48784D01*
X1190820Y47201D01*
X1195879Y46400D01*
X1197170D01*
Y77670D01*
D02*
G37*
G36*
X688067Y289440D02*
X679297D01*
Y280670D01*
X688067D01*
Y289440D01*
D02*
G37*
G36*
X676757D02*
X667988D01*
Y280670D01*
X676757D01*
Y289440D01*
D02*
G37*
G36*
X688067Y278130D02*
X679297D01*
Y269360D01*
X688067D01*
Y278130D01*
D02*
G37*
G36*
X676757D02*
X667988D01*
Y269360D01*
X676757D01*
Y278130D01*
D02*
G37*
G36*
X818890Y116600D02*
X807720D01*
Y105430D01*
X818890D01*
Y116600D01*
D02*
G37*
G36*
X805180D02*
X794010D01*
Y105430D01*
X805180D01*
Y116600D01*
D02*
G37*
G36*
X818890Y102890D02*
X807720D01*
Y91720D01*
X818890D01*
Y102890D01*
D02*
G37*
G36*
X805180D02*
X794010D01*
Y91720D01*
X805180D01*
Y102890D01*
D02*
G37*
G36*
X576170Y229790D02*
X544900D01*
Y198520D01*
X576170D01*
Y229790D01*
D02*
G37*
G36*
X542360D02*
X511090D01*
Y198520D01*
X542360D01*
Y229790D01*
D02*
G37*
G36*
X576170Y195980D02*
X544900D01*
Y164710D01*
X576170D01*
Y195980D01*
D02*
G37*
G36*
X542360D02*
X511090D01*
Y164710D01*
X542360D01*
Y195980D01*
D02*
G37*
G36*
X394330Y73020D02*
X384810D01*
Y63500D01*
X394330D01*
Y73020D01*
D02*
G37*
G36*
X382270D02*
X372750D01*
Y63500D01*
X382270D01*
Y73020D01*
D02*
G37*
G36*
X394330Y60960D02*
X384810D01*
Y51440D01*
X394330D01*
Y60960D01*
D02*
G37*
G36*
X382270D02*
X372750D01*
Y51440D01*
X382270D01*
Y60960D01*
D02*
G37*
G36*
X1556900Y1013340D02*
X1548130D01*
Y1004570D01*
X1556900D01*
Y1013340D01*
D02*
G37*
G36*
X1545590D02*
X1536820D01*
Y1004570D01*
X1545590D01*
Y1013340D01*
D02*
G37*
G36*
X1002720Y360920D02*
X996950D01*
Y356150D01*
X1002720D01*
Y360920D01*
D02*
G37*
G36*
X994410D02*
X988640D01*
Y356150D01*
X994410D01*
Y360920D01*
D02*
G37*
G36*
X808088Y335000D02*
X807720D01*
Y323830D01*
X818890D01*
Y324198D01*
X818042Y327362D01*
X816404Y330198D01*
X814088Y332514D01*
X811252Y334152D01*
X808088Y335000D01*
D02*
G37*
G36*
X805180D02*
X804812D01*
X801648Y334152D01*
X798812Y332514D01*
X796496Y330198D01*
X794858Y327362D01*
X794010Y324198D01*
Y323830D01*
X805180D01*
Y335000D01*
D02*
G37*
G36*
X1171330Y330150D02*
X1160060D01*
Y318880D01*
X1171330D01*
Y330150D01*
D02*
G37*
G36*
X1157520D02*
X1146250D01*
Y318880D01*
X1157520D01*
Y330150D01*
D02*
G37*
G36*
X818890Y321290D02*
X807720D01*
Y310120D01*
X808088D01*
X811252Y310968D01*
X814088Y312605D01*
X816404Y314922D01*
X818042Y317758D01*
X818890Y320922D01*
Y321290D01*
D02*
G37*
G36*
X805180D02*
X794010D01*
Y320922D01*
X794858Y317758D01*
X796496Y314922D01*
X798812Y312605D01*
X801648Y310968D01*
X804812Y310120D01*
X805180D01*
Y321290D01*
D02*
G37*
G36*
X1157520Y316340D02*
X1146250D01*
Y305070D01*
X1157520D01*
Y316340D01*
D02*
G37*
G36*
X1171330D02*
X1160060D01*
Y305070D01*
X1167145D01*
X1167520Y304995D01*
X1167895Y305070D01*
X1171330D01*
Y308505D01*
X1171405Y308880D01*
X1171330Y309255D01*
D01*
Y316340D01*
D02*
G37*
G36*
X299170Y229790D02*
X267900D01*
Y198520D01*
X299170D01*
Y229790D01*
D02*
G37*
G36*
X265360D02*
X234090D01*
Y198520D01*
X265360D01*
Y229790D01*
D02*
G37*
G36*
X299170Y195980D02*
X267900D01*
Y164710D01*
X299170D01*
Y195980D01*
D02*
G37*
G36*
X265360D02*
X234090D01*
Y164710D01*
X265360D01*
Y195980D01*
D02*
G37*
G36*
X435760Y73020D02*
X435610D01*
Y63500D01*
X445130D01*
Y63650D01*
X444395Y66395D01*
X442974Y68855D01*
X440965Y70864D01*
X438505Y72285D01*
X435760Y73020D01*
D02*
G37*
G36*
X433070D02*
X432920D01*
X430175Y72285D01*
X427715Y70864D01*
X425706Y68855D01*
X424285Y66395D01*
X423550Y63650D01*
Y63500D01*
X433070D01*
Y73020D01*
D02*
G37*
G36*
X445130Y60960D02*
X435610D01*
Y51440D01*
X435760D01*
X438505Y52175D01*
X440965Y53596D01*
X442974Y55605D01*
X444395Y58065D01*
X445130Y60809D01*
Y60960D01*
D02*
G37*
G36*
X433070D02*
X423550D01*
Y60809D01*
X424285Y58065D01*
X425706Y55605D01*
X427715Y53596D01*
X430175Y52175D01*
X432920Y51440D01*
X433070D01*
Y60960D01*
D02*
G37*
%LPD*%
D11*
X890180Y413500D02*
G03*
X890180Y413500I-1000J0D01*
G01*
X2204450Y915670D02*
G03*
X2204450Y915670I-1000J0D01*
G01*
X2081260Y1559560D02*
G03*
X2081260Y1559560I-1000J0D01*
G01*
X1875442D02*
G03*
X1875442Y1559560I-1000J0D01*
G01*
X1669624D02*
G03*
X1669624Y1559560I-1000J0D01*
G01*
X463020Y874691D02*
G03*
X463020Y874691I-1000J0D01*
G01*
X41640Y963930D02*
G03*
X41640Y963930I-1000J0D01*
G01*
X384540Y49530D02*
G03*
X384540Y49530I-1000J0D01*
G01*
X228896Y1559560D02*
G03*
X228896Y1559560I-1000J0D01*
G01*
X434714D02*
G03*
X434714Y1559560I-1000J0D01*
G01*
X640533D02*
G03*
X640533Y1559560I-1000J0D01*
G01*
X846351D02*
G03*
X846351Y1559560I-1000J0D01*
G01*
X1052169D02*
G03*
X1052169Y1559560I-1000J0D01*
G01*
X1257987D02*
G03*
X1257987Y1559560I-1000J0D01*
G01*
X1463805D02*
G03*
X1463805Y1559560I-1000J0D01*
G01*
X2213340Y198120D02*
G03*
X2213340Y198120I-1000J0D01*
G01*
X40370Y1082040D02*
G03*
X40370Y1082040I-1000J0D01*
G01*
X2213340Y546100D02*
G03*
X2213340Y546100I-1000J0D01*
G01*
X1380559Y328350D02*
G03*
X1380559Y328350I-1000J0D01*
G01*
X1383099Y733480D02*
G03*
X1383099Y733480I-1000J0D01*
G01*
D12*
X832813Y1242060D02*
G03*
X832813Y1242060I-17550J0D01*
G01*
X1875336D02*
G03*
X1875336Y1242060I-17550J0D01*
G01*
X1666831D02*
G03*
X1666831Y1242060I-17550J0D01*
G01*
X1458327D02*
G03*
X1458327Y1242060I-17550J0D01*
G01*
X1249822D02*
G03*
X1249822Y1242060I-17550J0D01*
G01*
X1041318D02*
G03*
X1041318Y1242060I-17550J0D01*
G01*
X624309D02*
G03*
X624309Y1242060I-17550J0D01*
G01*
X415805D02*
G03*
X415805Y1242060I-17550J0D01*
G01*
X207300D02*
G03*
X207300Y1242060I-17550J0D01*
G01*
X1203946Y1139253D02*
G03*
X1210827Y1126034I39104J11955D01*
G01*
X1245353D02*
G03*
X1252234Y1139253I-32222J25175D01*
G01*
X1252206Y1139128D02*
G03*
X1203974Y1139128I-24116J3389D01*
G01*
X163816Y1134173D02*
G03*
X170697Y1120954I39104J11955D01*
G01*
X205223D02*
G03*
X212104Y1134173I-32222J25175D01*
G01*
X212076Y1134048D02*
G03*
X163844Y1134048I-24116J3389D01*
G01*
X374636Y1139156D02*
G03*
X381517Y1125936I39104J11955D01*
G01*
X416043D02*
G03*
X422924Y1139156I-32222J25175D01*
G01*
X422896Y1139031D02*
G03*
X374664Y1139031I-24116J3389D01*
G01*
X580376Y1137983D02*
G03*
X587257Y1124764I39104J11955D01*
G01*
X621783D02*
G03*
X628664Y1137983I-32222J25175D01*
G01*
X628636Y1137858D02*
G03*
X580404Y1137858I-24116J3389D01*
G01*
X788656Y1139253D02*
G03*
X795537Y1126034I39104J11955D01*
G01*
X830063D02*
G03*
X836944Y1139253I-32222J25175D01*
G01*
X836916Y1139128D02*
G03*
X788684Y1139128I-24116J3389D01*
G01*
X1414766Y1137983D02*
G03*
X1421647Y1124764I39104J11955D01*
G01*
X1456173D02*
G03*
X1463054Y1137983I-32222J25175D01*
G01*
X1463026Y1137858D02*
G03*
X1414794Y1137858I-24116J3389D01*
G01*
X2043416Y1137983D02*
G03*
X2050297Y1124764I39104J11955D01*
G01*
X2084823D02*
G03*
X2091704Y1137983I-32222J25175D01*
G01*
X2091676Y1137858D02*
G03*
X2043444Y1137858I-24116J3389D01*
G01*
X1000746Y1137983D02*
G03*
X1007627Y1124764I39104J11955D01*
G01*
X1042153D02*
G03*
X1049034Y1137983I-32222J25175D01*
G01*
X1049006Y1137858D02*
G03*
X1000774Y1137858I-24116J3389D01*
G01*
X1620506Y1134173D02*
G03*
X1627387Y1120954I39104J11955D01*
G01*
X1661913D02*
G03*
X1668794Y1134173I-32222J25175D01*
G01*
X1668766Y1134048D02*
G03*
X1620534Y1134048I-24116J3389D01*
G01*
X1841486Y1134173D02*
G03*
X1848367Y1120954I39104J11955D01*
G01*
X1882893D02*
G03*
X1889774Y1134173I-32222J25175D01*
G01*
X1889746Y1134048D02*
G03*
X1841514Y1134048I-24116J3389D01*
G01*
X2083840Y1242060D02*
G03*
X2083840Y1242060I-17550J0D01*
G01*
X2120930Y1297690D02*
Y1488690D01*
X1965930D02*
X2120930D01*
X1965930Y1297690D02*
Y1488690D01*
Y1297690D02*
X2120930D01*
X785313Y1272010D02*
X845213D01*
Y1212110D02*
Y1272010D01*
X785313Y1212110D02*
X845213D01*
X785313D02*
Y1272010D01*
X1308130Y1297690D02*
Y1488690D01*
X1153130D02*
X1308130D01*
X1153130Y1297690D02*
Y1488690D01*
Y1297690D02*
X1308130D01*
X1104930D02*
Y1488690D01*
X949930D02*
X1104930D01*
X949930Y1297690D02*
Y1488690D01*
Y1297690D02*
X1104930D01*
X340330D02*
X495330D01*
X340330D02*
Y1488690D01*
X495330D01*
Y1297690D02*
Y1488690D01*
X728980Y406400D02*
X881380D01*
X728980D02*
Y609600D01*
X881380D01*
Y406400D02*
Y609600D01*
X2170950Y920990D02*
Y1001790D01*
X2235950D01*
Y920990D02*
Y1001790D01*
X2170950Y920990D02*
X2235950D01*
X2004060Y1505860D02*
X2105660D01*
X2004060D02*
Y1587860D01*
X2105660D01*
Y1505860D02*
Y1587860D01*
X1798242Y1505860D02*
X1899842D01*
X1798242D02*
Y1587860D01*
X1899842D01*
Y1505860D02*
Y1587860D01*
X1694023Y1505860D02*
Y1587860D01*
X1592424D02*
X1694023D01*
X1592424Y1505860D02*
Y1587860D01*
Y1505860D02*
X1694023D01*
X454020Y853191D02*
Y904191D01*
X354020D02*
X454020D01*
X354020Y853191D02*
Y904191D01*
Y853191D02*
X454020D01*
X1029730Y385930D02*
X1126730D01*
X1029730D02*
Y627530D01*
X1126730D01*
Y385930D02*
Y627530D01*
X94340Y887730D02*
Y989330D01*
X12340Y887730D02*
X94340D01*
X12340D02*
Y989330D01*
X94340D01*
X358140Y21230D02*
Y103230D01*
Y21230D02*
X459740D01*
Y103230D01*
X358140D02*
X459740D01*
X90060Y529220D02*
X100060D01*
X95060Y524220D02*
Y534220D01*
Y704220D02*
Y714220D01*
X54560Y668720D02*
X79060Y696720D01*
X111060D02*
X135560Y668720D01*
X54560Y541720D02*
X135560D01*
Y668720D01*
X79060Y696720D02*
X111060D01*
X54560Y541720D02*
Y668720D01*
X151696Y1505860D02*
X253296D01*
X151696D02*
Y1587860D01*
X253296D01*
Y1505860D02*
Y1587860D01*
X357514Y1505860D02*
X459114D01*
X357514D02*
Y1587860D01*
X459114D01*
Y1505860D02*
Y1587860D01*
X563332Y1505860D02*
X664932D01*
X563332D02*
Y1587860D01*
X664932D01*
Y1505860D02*
Y1587860D01*
X870751Y1505860D02*
Y1587860D01*
X769151D02*
X870751D01*
X769151Y1505860D02*
Y1587860D01*
Y1505860D02*
X870751D01*
X974969D02*
X1076569D01*
X974969D02*
Y1587860D01*
X1076569D01*
Y1505860D02*
Y1587860D01*
X1180787Y1505860D02*
X1282387D01*
X1180787D02*
Y1587860D01*
X1282387D01*
Y1505860D02*
Y1587860D01*
X1386605Y1505860D02*
X1488205D01*
X1386605D02*
Y1587860D01*
X1488205D01*
Y1505860D02*
Y1587860D01*
X1827836Y1212110D02*
Y1272010D01*
Y1212110D02*
X1887735D01*
Y1272010D01*
X1827836D02*
X1887735D01*
X1762730Y1297690D02*
X1917730D01*
X1762730D02*
Y1488690D01*
X1917730D01*
Y1297690D02*
Y1488690D01*
X1619331Y1212110D02*
Y1272010D01*
Y1212110D02*
X1679231D01*
Y1272010D01*
X1619331D02*
X1679231D01*
X1410827Y1212110D02*
Y1272010D01*
Y1212110D02*
X1470727D01*
Y1272010D01*
X1410827D02*
X1470727D01*
X1202322D02*
X1262222D01*
Y1212110D02*
Y1272010D01*
X1202322Y1212110D02*
X1262222D01*
X1202322D02*
Y1272010D01*
X993818D02*
X1053718D01*
Y1212110D02*
Y1272010D01*
X993818Y1212110D02*
X1053718D01*
X993818D02*
Y1272010D01*
X576809Y1212110D02*
Y1272010D01*
Y1212110D02*
X636709D01*
Y1272010D01*
X576809D02*
X636709D01*
X368305D02*
X428205D01*
Y1212110D02*
Y1272010D01*
X368305Y1212110D02*
X428205D01*
X368305D02*
Y1272010D01*
X159800Y1212110D02*
Y1272010D01*
Y1212110D02*
X219700D01*
Y1272010D01*
X159800D02*
X219700D01*
X1210940Y1125890D02*
X1245240D01*
X170810Y1120810D02*
X205110D01*
X381630Y1125792D02*
X415930D01*
X587370Y1124620D02*
X621670D01*
X795650Y1125890D02*
X829950D01*
X1421760Y1124620D02*
X1456060D01*
X2050410D02*
X2084710D01*
X1007740D02*
X1042040D01*
X1627500Y1120810D02*
X1661800D01*
X1848480D02*
X1882780D01*
X2036340Y1272010D02*
X2096240D01*
Y1212110D02*
Y1272010D01*
X2036340Y1212110D02*
X2096240D01*
X2036340D02*
Y1272010D01*
X1184940Y38440D02*
X1311940D01*
X1156940Y62940D02*
Y94940D01*
X1184940Y119440D02*
X1311940D01*
Y38440D02*
Y119440D01*
X1156940Y94940D02*
X1184940Y119440D01*
X1156940Y62940D02*
X1184940Y38440D01*
X1139440Y78940D02*
X1149440D01*
X1319440D02*
X1329440D01*
X1324440Y73940D02*
Y83940D01*
X1356330Y1297690D02*
X1511330D01*
X1356330D02*
Y1488690D01*
X1511330D01*
Y1297690D02*
Y1488690D01*
X1559530Y1297690D02*
X1714530D01*
X1559530D02*
Y1488690D01*
X1714530D01*
Y1297690D02*
Y1488690D01*
X292130Y1297690D02*
Y1488690D01*
X137130D02*
X292130D01*
X137130Y1297690D02*
Y1488690D01*
Y1297690D02*
X292130D01*
X543530D02*
X698530D01*
X543530D02*
Y1488690D01*
X698530D01*
Y1297690D02*
Y1488690D01*
X746730Y1297690D02*
X901730D01*
X746730D02*
Y1488690D01*
X901730D01*
Y1297690D02*
Y1488690D01*
X854950Y92560D02*
Y334160D01*
X757950D02*
X854950D01*
X757950Y92560D02*
Y334160D01*
Y92560D02*
X854950D01*
X2158640Y172720D02*
Y274320D01*
X2240640D01*
Y172720D02*
Y274320D01*
X2158640Y172720D02*
X2240640D01*
X93070Y1005840D02*
Y1107440D01*
X11070Y1005840D02*
X93070D01*
X11070D02*
Y1107440D01*
X93070D01*
X2158640Y520700D02*
Y622300D01*
X2240640D01*
Y520700D02*
Y622300D01*
X2158640Y520700D02*
X2240640D01*
X714020Y699970D02*
Y978970D01*
X1258020D01*
Y699970D02*
Y978970D01*
X714020Y699970D02*
X1258020D01*
X1401059Y220350D02*
Y320350D01*
X1350059Y220350D02*
X1401059D01*
X1350059D02*
Y320350D01*
X1401059D01*
X1403599Y625480D02*
Y725480D01*
X1352599Y625480D02*
X1403599D01*
X1352599D02*
Y725480D01*
X1403599D01*
D13*
X1040130Y1138958D02*
G03*
X1040130Y1136882I10760J-1038D01*
G01*
X1168920Y987842D02*
X1170408Y989330D01*
X1554480D02*
X1590040Y953770D01*
X1168920Y966470D02*
Y987842D01*
X1170408Y989330D02*
X1554480D01*
X1725930Y1151740D02*
X1758670Y1184480D01*
Y1202690D01*
X1725930Y1150620D02*
Y1151740D01*
X52070Y1082040D02*
X314960Y819150D01*
X891743Y716280D02*
X892810D01*
X162560Y963930D02*
X337430Y789060D01*
X54610Y963930D02*
X162560D01*
X314960Y819150D02*
X855980D01*
X337430Y789060D02*
X654490D01*
X1040130Y1136882D02*
X1040130Y1049020D01*
X1041920Y1035050D02*
Y1047230D01*
X1040130Y1049020D02*
X1041920Y1047230D01*
Y1035050D02*
X1046480D01*
X1041920Y966470D02*
Y1035050D01*
X1040130Y1138958D02*
Y1147350D01*
X1046735Y1153955D02*
X1056640Y1163860D01*
X1040130Y1147350D02*
X1046735Y1153955D01*
X1056580Y1167130D02*
Y1189930D01*
X1046735Y1153955D02*
X1046735D01*
X1056640Y1163860D02*
Y1167130D01*
X1118870Y1037590D02*
Y1049020D01*
Y967220D02*
Y1037590D01*
X1121925D02*
X1128275Y1043940D01*
X1118870Y1037590D02*
X1121925D01*
X1128275Y1043940D02*
X1131570D01*
X1092720Y966470D02*
Y1052080D01*
X1097795Y1036320D02*
X1105415Y1043940D01*
X1093470Y1036320D02*
X1097795D01*
X1105415Y1043940D02*
X1106170D01*
X1067320Y966470D02*
Y1058430D01*
X1072395Y1051560D02*
X1080015Y1043940D01*
X1080770D01*
X1068070Y1051560D02*
X1072395D01*
X1046480Y1035050D02*
X1055370Y1043940D01*
X1016520Y966470D02*
Y1077710D01*
X1017270Y1037590D02*
X1020325D01*
X1026675Y1043940D02*
X1029970D01*
X1020325Y1037590D02*
X1026675Y1043940D01*
X991120Y966470D02*
Y1071360D01*
X991870Y1043940D02*
X1004570D01*
X965720Y966470D02*
Y1052310D01*
X966470Y1051560D02*
X970795D01*
X978415Y1043940D02*
X979170D01*
X970795Y1051560D02*
X978415Y1043940D01*
X914400Y1027430D02*
X914920Y1026910D01*
X882650Y1059180D02*
X914400Y1027430D01*
X937260D01*
X953770Y1043940D01*
X1167130Y1070610D02*
X1817418D01*
X1143520Y966470D02*
Y1047000D01*
X1167130Y1070610D01*
X203150Y1082924D02*
X226894Y1059180D01*
X882650D01*
X413970Y1134615D02*
X461465Y1087120D01*
X930910D01*
X965720Y1052310D01*
X617220Y1135932D02*
X645712Y1107440D01*
X955040D01*
X991120Y1071360D01*
X914920Y966470D02*
Y1026910D01*
X1156970Y1087120D02*
X1503680D01*
X1118870Y1049020D02*
X1156970Y1087120D01*
X1146810Y1106170D02*
X1422448D01*
X1092720Y1052080D02*
X1146810Y1106170D01*
X1129030Y1120140D02*
X1224328D01*
X1067320Y1058430D02*
X1129030Y1120140D01*
X1590040Y749300D02*
Y953770D01*
X1341120Y394820D02*
Y500380D01*
X1590040Y749300D01*
X1309370Y603250D02*
X1350010Y562610D01*
X1360170D01*
X1309370Y603250D02*
Y706120D01*
X1341120Y892810D02*
X1426210Y977900D01*
X1546860D01*
X1367790Y589764D02*
Y591820D01*
X1350614Y199578D02*
X1353940Y202904D01*
X1350614Y181422D02*
X1353940Y178096D01*
Y202904D02*
Y233560D01*
X1350614Y181422D02*
Y199578D01*
X1143520Y443980D02*
X1353940Y233560D01*
X1143520Y443980D02*
Y712470D01*
X1353940Y160020D02*
Y178096D01*
X1162050Y314350D02*
Y322580D01*
Y314350D02*
X1167520Y308880D01*
X1341120Y394820D02*
X1352400Y383540D01*
X1352550D01*
X885075Y651625D02*
X914920Y681470D01*
X654490Y789060D02*
X791925Y651625D01*
X885075D01*
X1367790Y589764D02*
X1374020Y583534D01*
Y562610D02*
Y583534D01*
X1245870Y769620D02*
X1309370Y706120D01*
X1087120Y769620D02*
X1245870D01*
X1067320Y749820D02*
X1087120Y769620D01*
X1067320Y712470D02*
Y749820D01*
X2091690Y1076960D02*
Y1084860D01*
X2146020Y1139190D01*
X2195830D01*
X2191200Y1163320D02*
X2198370D01*
X2186940Y1212850D02*
Y1216940D01*
X2190880Y1220880D02*
X2230120D01*
X2186940Y1216940D02*
X2190880Y1220880D01*
X2220990Y1174750D02*
X2231390D01*
X2200060Y1170420D02*
X2216660D01*
X2220990Y1174750D01*
X2195830Y1166190D02*
X2200060Y1170420D01*
X1966080Y1185030D02*
X1972310Y1191260D01*
X1939170Y1154430D02*
Y1155430D01*
X1966080Y1182340D01*
Y1185030D01*
X1544320Y1184760D02*
Y1198880D01*
X1511180Y1150620D02*
Y1151620D01*
X1544320Y1184760D01*
X848300Y1151950D02*
X867410Y1132840D01*
X848300Y1151950D02*
Y1192530D01*
X867410Y1132840D02*
X961390D01*
X294640Y1175990D02*
Y1191260D01*
X293370Y1192530D02*
X294640Y1191260D01*
X262650Y1144000D02*
X294640Y1175990D01*
X262650Y1143000D02*
Y1144000D01*
X222250Y1191320D02*
Y1195070D01*
X203150Y1172220D02*
X222250Y1191320D01*
X203150Y1082924D02*
Y1172220D01*
X508000Y1189990D02*
X509270Y1191260D01*
X508000Y1177508D02*
Y1189990D01*
X502680Y1176020D02*
X506512D01*
X508000Y1177508D01*
X474160Y1147500D02*
X502680Y1176020D01*
X470930Y1144270D02*
Y1145270D01*
X473160Y1147500D01*
X474160D01*
X709930Y1172060D02*
Y1189990D01*
X681870Y1143000D02*
Y1144000D01*
X709930Y1172060D01*
X894080Y1146810D02*
Y1149200D01*
X896190Y1151310D01*
X911280D01*
X929360Y1169390D02*
Y1193800D01*
X911280Y1151310D02*
X929360Y1169390D01*
X1096010Y1149200D02*
X1126210Y1179400D01*
Y1196340D01*
X1096010Y1148080D02*
Y1149200D01*
X1312060Y1149350D02*
X1348460Y1185750D01*
Y1196340D01*
X1311910Y1149350D02*
X1312060D01*
X431740Y1192530D02*
X431800Y1192590D01*
X413970Y1174760D02*
X431740Y1192530D01*
X430530Y1193800D02*
X431740Y1192590D01*
X413970Y1134615D02*
Y1174760D01*
X431800Y1192590D02*
Y1193800D01*
X676910Y276860D02*
X678180Y275590D01*
X1371480Y767746D02*
Y786130D01*
X1365250Y761516D02*
X1371480Y767746D01*
X1365250Y759460D02*
Y761516D01*
X1399464Y722845D02*
Y760730D01*
X1382739Y706120D02*
X1399464Y722845D01*
X1381760Y706120D02*
X1382739D01*
X1884680Y1192530D02*
X1885630Y1191580D01*
X1817418Y1070610D02*
X1876440Y1129632D01*
Y1179270D01*
X1885630Y1188460D01*
Y1191580D01*
X1384300Y683279D02*
Y685800D01*
Y683279D02*
X1402004Y665575D01*
Y590550D02*
Y665575D01*
X1355090Y783740D02*
Y787400D01*
X1073730Y782900D02*
X1354250D01*
X1355090Y783740D01*
X1041920Y751090D02*
X1073730Y782900D01*
X1041920Y712470D02*
Y751090D01*
X1368154Y162196D02*
X1370330Y160020D01*
X1361924Y190500D02*
X1368154Y184270D01*
Y162196D02*
Y184270D01*
X1395654Y191770D02*
X1399540D01*
X1390694Y196730D02*
Y269215D01*
Y196730D02*
X1395654Y191770D01*
X1379559Y280350D02*
X1390694Y269215D01*
X1383030Y295910D02*
Y303821D01*
X1396924Y317715D02*
Y350520D01*
X1383030Y303821D02*
X1396924Y317715D01*
X1362710Y349250D02*
Y351306D01*
X1368940Y357536D01*
Y381000D01*
X855980Y819150D02*
X889520Y785610D01*
X914920Y681470D02*
Y712470D01*
X889520Y718503D02*
Y785610D01*
Y718503D02*
X891743Y716280D01*
X939800Y717550D02*
X942340Y715010D01*
X939800Y717550D02*
Y797560D01*
X880110Y857250D02*
X939800Y797560D01*
X682275Y857250D02*
X880110D01*
X539750Y900310D02*
X639215D01*
X682275Y857250D01*
X991120Y712470D02*
Y806970D01*
X1076960Y892810D01*
X1341120D01*
X1016520Y790460D02*
X1088390Y862330D01*
X1016520Y712470D02*
Y790460D01*
X1545590Y952500D02*
X1546860Y951230D01*
X1088390Y862330D02*
X1355090D01*
X881380Y894080D02*
X965720Y809740D01*
X631190Y958850D02*
X695960Y894080D01*
X881380D01*
X334010Y958850D02*
X631190D01*
X508000Y892326D02*
Y892810D01*
X515016Y885310D02*
X539750D01*
X508000Y892326D02*
X515016Y885310D01*
X508000Y857326D02*
X511810Y853516D01*
X501770Y863556D02*
X508000Y857326D01*
X445155Y863556D02*
X501770D01*
X511810Y852170D02*
Y853516D01*
X434020Y874691D02*
X445155Y863556D01*
X304800Y891056D02*
Y892810D01*
X275590Y885310D02*
X299054D01*
X304800Y891056D01*
X278130Y902970D02*
X334010Y958850D01*
X965720Y712470D02*
Y809740D01*
X1355090Y862330D02*
X1445260Y952500D01*
X1545590D01*
X1422448Y1106170D02*
X1454100Y1137822D01*
X1503680Y1087120D02*
X1536700Y1120140D01*
X1263590Y1191260D02*
X1266190D01*
X1239520Y1167190D02*
X1263590Y1191260D01*
X1239520Y1135332D02*
Y1167190D01*
X1224328Y1120140D02*
X1239520Y1135332D01*
X1469390Y1188780D02*
Y1192530D01*
X1454100Y1173490D02*
X1469390Y1188780D01*
X1454100Y1137822D02*
Y1173490D01*
X431740Y1192530D02*
Y1192590D01*
X640020Y1192530D02*
X640080Y1192590D01*
Y1193800D01*
X1056580Y1189930D02*
X1059180Y1192530D01*
X848300Y1193740D02*
X848360Y1193800D01*
X848300Y1192530D02*
Y1193740D01*
X617220Y1135932D02*
Y1169730D01*
X640020Y1192530D01*
X961390Y1132840D02*
X1016520Y1077710D01*
X1536700Y1120140D02*
X1650782D01*
X1682750Y1193860D02*
Y1195070D01*
X1650782Y1120140D02*
X1659840Y1129198D01*
X1681420Y1192530D02*
X1682750Y1193860D01*
X1659840Y1170950D02*
X1681420Y1192530D01*
X1659840Y1129198D02*
Y1170950D01*
X1118120Y966470D02*
X1118870Y967220D01*
X1473140Y1191200D02*
X1474470Y1192530D01*
X49530Y1597660D02*
G03*
X0Y1548130I0J-49530D01*
G01*
X2264410Y1546860D02*
G03*
X2213610Y1597660I-50800J0D01*
G01*
X2213610Y0D02*
G03*
X2264410Y50800I0J50800D01*
G01*
X0Y50000D02*
G03*
X50000Y0I50000J0D01*
G01*
X2264410Y1546860D02*
X2264410Y50800D01*
X49530Y1597660D02*
X2213610Y1597660D01*
X50000Y-0D02*
X2213610Y0D01*
X0Y50000D02*
Y1549400D01*
X2508060Y1593660D02*
X2508060D01*
X2508060D02*
Y1593910D01*
D16*
X1379424Y188500D02*
Y192500D01*
X1377424Y190500D02*
X1381424D01*
X1384504Y588550D02*
Y592550D01*
X1382504Y590550D02*
X1386504D01*
X1377424Y350520D02*
X1381424D01*
X1379424Y348520D02*
Y352520D01*
X995680Y425990D02*
Y429990D01*
X993680Y427990D02*
X997680D01*
X1381964Y758730D02*
Y762730D01*
X1379964Y760730D02*
X1383964D01*
X306070Y872826D02*
Y876826D01*
X304070Y874826D02*
X308070D01*
X508000Y872826D02*
Y876826D01*
X506000Y874826D02*
X510000D01*
X1745520Y1261110D02*
X1749520D01*
X1747520Y1259110D02*
Y1263110D01*
X1528350Y1253490D02*
X1532350D01*
X1530350Y1251490D02*
Y1255490D01*
X1952810Y1191260D02*
X1956810D01*
X1954810Y1189260D02*
Y1193260D01*
X693527Y279400D02*
X697527D01*
X695527Y277400D02*
Y281400D01*
X2164620Y1214120D02*
X2168620D01*
X2166620Y1212120D02*
Y1216120D01*
X2164620Y1256030D02*
X2168620D01*
X2166620Y1254030D02*
Y1258030D01*
X276860Y1187990D02*
Y1191990D01*
X274860Y1189990D02*
X278860D01*
X692150Y1186720D02*
Y1190720D01*
X690150Y1188720D02*
X694150D01*
X1526540Y1196880D02*
Y1200880D01*
X1524540Y1198880D02*
X1528540D01*
X491490Y1189260D02*
Y1193260D01*
X489490Y1191260D02*
X493490D01*
X1741170Y1200690D02*
Y1204690D01*
X1739170Y1202690D02*
X1743170D01*
X911860Y1191800D02*
Y1195800D01*
X909860Y1193800D02*
X913860D01*
X1108710Y1194340D02*
Y1198340D01*
X1106710Y1196340D02*
X1110710D01*
X1330960Y1194340D02*
Y1198340D01*
X1328960Y1196340D02*
X1332960D01*
X280670Y1247680D02*
Y1251680D01*
X278670Y1249680D02*
X282670D01*
X2068830Y1077500D02*
Y1081500D01*
X2066830Y1079500D02*
X2070830D01*
X497840Y1246410D02*
Y1250410D01*
X495840Y1248410D02*
X499840D01*
X698500Y1246410D02*
Y1250410D01*
X696500Y1248410D02*
X700500D01*
X917850Y1248950D02*
Y1252950D01*
X915850Y1250950D02*
X919850D01*
X1115060Y1252760D02*
Y1256760D01*
X1113060Y1254760D02*
X1117060D01*
X1333500Y1252760D02*
Y1256760D01*
X1331500Y1254760D02*
X1335500D01*
X1961240Y1250220D02*
Y1254220D01*
X1959240Y1252220D02*
X1963240D01*
X2216870Y1224630D02*
X2243370D01*
X2216870Y1173130D02*
X2243370D01*
Y1224630D01*
X2216870Y1173130D02*
Y1224630D01*
X535000Y884310D02*
Y901310D01*
X544500Y884310D02*
Y901310D01*
X535000Y884310D02*
X544500D01*
X535000Y901310D02*
X544500D01*
X1000430Y361190D02*
Y378190D01*
X990930Y361190D02*
Y378190D01*
X1000430D01*
X990930Y361190D02*
X1000430D01*
X1352940Y376250D02*
X1369940D01*
X1352940Y385750D02*
X1369940D01*
Y376250D02*
Y385750D01*
X1352940Y376250D02*
Y385750D01*
Y155270D02*
X1369940D01*
X1352940Y164770D02*
X1369940D01*
Y155270D02*
Y164770D01*
X1352940Y155270D02*
Y164770D01*
X1358020Y557860D02*
X1375020D01*
X1358020Y567360D02*
X1375020D01*
Y557860D02*
Y567360D01*
X1358020Y557860D02*
Y567360D01*
X1355480Y781380D02*
X1372480D01*
X1355480Y790880D02*
X1372480D01*
Y781380D02*
Y790880D01*
X1355480Y781380D02*
Y790880D01*
X742010Y1175140D02*
Y1192140D01*
X751510Y1175140D02*
Y1192140D01*
X742010Y1175140D02*
X751510D01*
X742010Y1192140D02*
X751510D01*
X120980Y1199270D02*
Y1216270D01*
X130480Y1199270D02*
Y1216270D01*
X120980Y1199270D02*
X130480D01*
X120980Y1216270D02*
X130480D01*
X540080Y1168790D02*
Y1185790D01*
X549580Y1168790D02*
Y1185790D01*
X540080Y1168790D02*
X549580D01*
X540080Y1185790D02*
X549580D01*
X333070Y1198000D02*
Y1215000D01*
X342570Y1198000D02*
Y1215000D01*
X333070Y1198000D02*
X342570D01*
X333070Y1215000D02*
X342570D01*
X246650Y1147750D02*
X263650D01*
X246650Y1138250D02*
X263650D01*
X246650D02*
Y1147750D01*
X263650Y1138250D02*
Y1147750D01*
X665870Y1147750D02*
X682870D01*
X665870Y1138250D02*
X682870D01*
X665870D02*
Y1147750D01*
X682870Y1138250D02*
Y1147750D01*
X2209030Y1135940D02*
Y1169440D01*
X2182630Y1135940D02*
Y1169440D01*
X2209030D01*
X2182630Y1135940D02*
X2209030D01*
X1295790Y1152830D02*
X1312790D01*
X1295790Y1143330D02*
X1312790D01*
X1295790D02*
Y1152830D01*
X1312790Y1143330D02*
Y1152830D01*
X454930Y1149020D02*
X471930D01*
X454930Y1139520D02*
X471930D01*
X454930D02*
Y1149020D01*
X471930Y1139520D02*
Y1149020D01*
X1495180Y1155370D02*
X1512180D01*
X1495180Y1145870D02*
X1512180D01*
X1495180D02*
Y1155370D01*
X1512180Y1145870D02*
Y1155370D01*
X1078620Y1151560D02*
X1095620D01*
X1078620Y1142060D02*
X1095620D01*
X1078620D02*
Y1151560D01*
X1095620Y1142060D02*
Y1151560D01*
X877960Y1152830D02*
X894960D01*
X877960Y1143330D02*
X894960D01*
X877960D02*
Y1152830D01*
X894960Y1143330D02*
Y1152830D01*
X1923170Y1159180D02*
X1940170D01*
X1923170Y1149680D02*
X1940170D01*
X1923170D02*
Y1159180D01*
X1940170Y1149680D02*
Y1159180D01*
X1377010Y1201810D02*
Y1218810D01*
X1386510Y1201810D02*
Y1218810D01*
X1377010Y1201810D02*
X1386510D01*
X1377010Y1218810D02*
X1386510D01*
X1161110Y1196730D02*
Y1213730D01*
X1170610Y1196730D02*
Y1213730D01*
X1161110Y1196730D02*
X1170610D01*
X1161110Y1213730D02*
X1170610D01*
X956640Y1179070D02*
Y1196070D01*
X966140Y1179070D02*
Y1196070D01*
X956640Y1179070D02*
X966140D01*
X956640Y1196070D02*
X966140D01*
X270840Y884310D02*
Y901310D01*
X280340Y884310D02*
Y901310D01*
X270840Y884310D02*
X280340D01*
X270840Y901310D02*
X280340D01*
X1582750Y1196730D02*
Y1213730D01*
X1592250Y1196730D02*
Y1213730D01*
X1582750Y1196730D02*
X1592250D01*
X1582750Y1213730D02*
X1592250D01*
X1999310Y1199270D02*
Y1216270D01*
X2008810Y1199270D02*
Y1216270D01*
X1999310Y1199270D02*
X2008810D01*
X1999310Y1216270D02*
X2008810D01*
X1726810Y1145870D02*
Y1155370D01*
X1709810Y1145870D02*
Y1155370D01*
Y1145870D02*
X1726810D01*
X1709810Y1155370D02*
X1726810D01*
X1789760Y1216270D02*
X1799260D01*
X1789760Y1199270D02*
X1799260D01*
Y1216270D01*
X1789760Y1199270D02*
Y1216270D01*
X2216120Y1227880D02*
X2244120D01*
X2216120Y1169880D02*
X2244120D01*
Y1227880D01*
X2216120Y1169880D02*
Y1227880D01*
X2230120Y1193880D02*
Y1203880D01*
X2225120Y1198880D02*
X2235120D01*
X535000Y892810D02*
X544500D01*
X539750Y888060D02*
Y897560D01*
X534250Y880810D02*
Y904810D01*
X545250Y880810D02*
Y904810D01*
X534250Y880810D02*
X545250D01*
X534250Y904810D02*
X545250D01*
X990930Y369690D02*
X1000430D01*
X995680Y364940D02*
Y374440D01*
X1001180Y357690D02*
Y381690D01*
X990180Y357690D02*
Y381690D01*
X1001180D01*
X990180Y357690D02*
X1001180D01*
X1361440Y376250D02*
Y385750D01*
X1356690Y381000D02*
X1366190D01*
X1349440Y375500D02*
X1373440D01*
X1349440Y386500D02*
X1373440D01*
Y375500D02*
Y386500D01*
X1349440Y375500D02*
Y386500D01*
X1361440Y155270D02*
Y164770D01*
X1356690Y160020D02*
X1366190D01*
X1349440Y154520D02*
X1373440D01*
X1349440Y165520D02*
X1373440D01*
Y154520D02*
Y165520D01*
X1349440Y154520D02*
Y165520D01*
X1366520Y557860D02*
Y567360D01*
X1361770Y562610D02*
X1371270D01*
X1354520Y557110D02*
X1378520D01*
X1354520Y568110D02*
X1378520D01*
Y557110D02*
Y568110D01*
X1354520Y557110D02*
Y568110D01*
X1363980Y781380D02*
Y790880D01*
X1359230Y786130D02*
X1368730D01*
X1351980Y780630D02*
X1375980D01*
X1351980Y791630D02*
X1375980D01*
Y780630D02*
Y791630D01*
X1351980Y780630D02*
Y791630D01*
X742010Y1183640D02*
X751510D01*
X746760Y1178890D02*
Y1188390D01*
X741260Y1171640D02*
Y1195640D01*
X752260Y1171640D02*
Y1195640D01*
X741260Y1171640D02*
X752260D01*
X741260Y1195640D02*
X752260D01*
X120980Y1207770D02*
X130480D01*
X125730Y1203020D02*
Y1212520D01*
X120230Y1195770D02*
Y1219770D01*
X131230Y1195770D02*
Y1219770D01*
X120230Y1195770D02*
X131230D01*
X120230Y1219770D02*
X131230D01*
X540080Y1177290D02*
X549580D01*
X544830Y1172540D02*
Y1182040D01*
X539330Y1165290D02*
Y1189290D01*
X550330Y1165290D02*
Y1189290D01*
X539330Y1165290D02*
X550330D01*
X539330Y1189290D02*
X550330D01*
X333070Y1206500D02*
X342570D01*
X337820Y1201750D02*
Y1211250D01*
X332320Y1194500D02*
Y1218500D01*
X343320Y1194500D02*
Y1218500D01*
X332320Y1194500D02*
X343320D01*
X332320Y1218500D02*
X343320D01*
X255150Y1138250D02*
Y1147750D01*
X250400Y1143000D02*
X259900D01*
X243150Y1148500D02*
X267150D01*
X243150Y1137500D02*
X267150D01*
X243150D02*
Y1148500D01*
X267150Y1137500D02*
Y1148500D01*
X674370Y1138250D02*
Y1147750D01*
X669620Y1143000D02*
X679120D01*
X662370Y1148500D02*
X686370D01*
X662370Y1137500D02*
X686370D01*
X662370D02*
Y1148500D01*
X686370Y1137500D02*
Y1148500D01*
X2190830Y1152690D02*
X2200830D01*
X2195830Y1147690D02*
Y1157690D01*
X2209830Y1132690D02*
Y1172690D01*
X2181830Y1132690D02*
Y1172690D01*
X2209830D01*
X2181830Y1132690D02*
X2209830D01*
X1304290Y1143330D02*
Y1152830D01*
X1299540Y1148080D02*
X1309040D01*
X1292290Y1153580D02*
X1316290D01*
X1292290Y1142580D02*
X1316290D01*
X1292290D02*
Y1153580D01*
X1316290Y1142580D02*
Y1153580D01*
X463430Y1139520D02*
Y1149020D01*
X458680Y1144270D02*
X468180D01*
X451430Y1149770D02*
X475430D01*
X451430Y1138770D02*
X475430D01*
X451430D02*
Y1149770D01*
X475430Y1138770D02*
Y1149770D01*
X1503680Y1145870D02*
Y1155370D01*
X1498930Y1150620D02*
X1508430D01*
X1491680Y1156120D02*
X1515680D01*
X1491680Y1145120D02*
X1515680D01*
X1491680D02*
Y1156120D01*
X1515680Y1145120D02*
Y1156120D01*
X1087120Y1142060D02*
Y1151560D01*
X1082370Y1146810D02*
X1091870D01*
X1075120Y1152310D02*
X1099120D01*
X1075120Y1141310D02*
X1099120D01*
X1075120D02*
Y1152310D01*
X1099120Y1141310D02*
Y1152310D01*
X886460Y1143330D02*
Y1152830D01*
X881710Y1148080D02*
X891210D01*
X874460Y1153580D02*
X898460D01*
X874460Y1142580D02*
X898460D01*
X874460D02*
Y1153580D01*
X898460Y1142580D02*
Y1153580D01*
X1931670Y1149680D02*
Y1159180D01*
X1926920Y1154430D02*
X1936420D01*
X1919670Y1159930D02*
X1943670D01*
X1919670Y1148930D02*
X1943670D01*
X1919670D02*
Y1159930D01*
X1943670Y1148930D02*
Y1159930D01*
X1377010Y1210310D02*
X1386510D01*
X1381760Y1205560D02*
Y1215060D01*
X1376260Y1198310D02*
Y1222310D01*
X1387260Y1198310D02*
Y1222310D01*
X1376260Y1198310D02*
X1387260D01*
X1376260Y1222310D02*
X1387260D01*
X1161110Y1205230D02*
X1170610D01*
X1165860Y1200480D02*
Y1209980D01*
X1160360Y1193230D02*
Y1217230D01*
X1171360Y1193230D02*
Y1217230D01*
X1160360Y1193230D02*
X1171360D01*
X1160360Y1217230D02*
X1171360D01*
X956640Y1187570D02*
X966140D01*
X961390Y1182820D02*
Y1192320D01*
X955890Y1175570D02*
Y1199570D01*
X966890Y1175570D02*
Y1199570D01*
X955890Y1175570D02*
X966890D01*
X955890Y1199570D02*
X966890D01*
X270840Y892810D02*
X280340D01*
X275590Y888060D02*
Y897560D01*
X270090Y880810D02*
Y904810D01*
X281090Y880810D02*
Y904810D01*
X270090Y880810D02*
X281090D01*
X270090Y904810D02*
X281090D01*
X1582750Y1205230D02*
X1592250D01*
X1587500Y1200480D02*
Y1209980D01*
X1582000Y1193230D02*
Y1217230D01*
X1593000Y1193230D02*
Y1217230D01*
X1582000Y1193230D02*
X1593000D01*
X1582000Y1217230D02*
X1593000D01*
X1999310Y1207770D02*
X2008810D01*
X2004060Y1203020D02*
Y1212520D01*
X1998560Y1195770D02*
Y1219770D01*
X2009560Y1195770D02*
Y1219770D01*
X1998560Y1195770D02*
X2009560D01*
X1998560Y1219770D02*
X2009560D01*
X1730310Y1145120D02*
Y1156120D01*
X1706310Y1145120D02*
Y1156120D01*
Y1145120D02*
X1730310D01*
X1706310Y1156120D02*
X1730310D01*
X1713560Y1150620D02*
X1723060D01*
X1718310Y1145870D02*
Y1155370D01*
X1789010Y1219770D02*
X1800010D01*
X1789010Y1195770D02*
X1800010D01*
Y1219770D01*
X1789010Y1195770D02*
Y1219770D01*
X1794510Y1203020D02*
Y1212520D01*
X1789760Y1207770D02*
X1799260D01*
D17*
X787920Y693470D02*
G03*
X787920Y693470I-1400J0D01*
G01*
D18*
X2123430Y1295190D02*
Y1491190D01*
X1963430D02*
X2123430D01*
X1963430Y1295190D02*
Y1491190D01*
Y1295190D02*
X2123430D01*
X772763Y1274560D02*
X857763D01*
Y1209560D02*
Y1274560D01*
X772763Y1209560D02*
X857763D01*
X772763D02*
Y1274560D01*
X1310630Y1295190D02*
Y1491190D01*
X1150630D02*
X1310630D01*
X1150630Y1295190D02*
Y1491190D01*
Y1295190D02*
X1310630D01*
X1107430D02*
Y1491190D01*
X947430D02*
X1107430D01*
X947430Y1295190D02*
Y1491190D01*
Y1295190D02*
X1107430D01*
X337830D02*
X497830D01*
X337830D02*
Y1491190D01*
X497830D01*
Y1295190D02*
Y1491190D01*
X883880Y403900D02*
Y612100D01*
X726480D02*
X883880D01*
X726480Y403900D02*
Y612100D01*
Y403900D02*
X883880D01*
X2168450Y918490D02*
Y1004290D01*
X2238450D01*
Y918490D02*
Y1004290D01*
X2168450Y918490D02*
X2238450D01*
X2001560Y1503360D02*
X2108160D01*
X2001560D02*
Y1590360D01*
X2108160D01*
Y1503360D02*
Y1590360D01*
X1795742Y1503360D02*
X1902342D01*
X1795742D02*
Y1590360D01*
X1902342D01*
Y1503360D02*
Y1590360D01*
X1696523Y1503360D02*
Y1590360D01*
X1589924D02*
X1696523D01*
X1589924Y1503360D02*
Y1590360D01*
Y1503360D02*
X1696523D01*
X456520Y850691D02*
Y906691D01*
X351520D02*
X456520D01*
X351520Y850691D02*
Y906691D01*
Y850691D02*
X456520D01*
X1027230Y383430D02*
X1129230D01*
X1027230D02*
Y630030D01*
X1129230D01*
Y383430D02*
Y630030D01*
X96840Y885230D02*
Y991830D01*
X9840Y885230D02*
X96840D01*
X9840D02*
Y991830D01*
X96840D01*
X355640Y18730D02*
Y105730D01*
Y18730D02*
X462240D01*
Y105730D01*
X355640D02*
X462240D01*
X52060Y539220D02*
Y699220D01*
X138060D01*
Y539220D02*
Y699220D01*
X52060Y539220D02*
X138060D01*
X149196Y1503360D02*
X255796D01*
X149196D02*
Y1590360D01*
X255796D01*
Y1503360D02*
Y1590360D01*
X355014Y1503360D02*
X461614D01*
X355014D02*
Y1590360D01*
X461614D01*
Y1503360D02*
Y1590360D01*
X560832Y1503360D02*
X667432D01*
X560832D02*
Y1590360D01*
X667432D01*
Y1503360D02*
Y1590360D01*
X873251Y1503360D02*
Y1590360D01*
X766651D02*
X873251D01*
X766651Y1503360D02*
Y1590360D01*
Y1503360D02*
X873251D01*
X972469D02*
X1079069D01*
X972469D02*
Y1590360D01*
X1079069D01*
Y1503360D02*
Y1590360D01*
X1178287Y1503360D02*
X1284887D01*
X1178287D02*
Y1590360D01*
X1284887D01*
Y1503360D02*
Y1590360D01*
X1384105Y1503360D02*
X1490705D01*
X1384105D02*
Y1590360D01*
X1490705D01*
Y1503360D02*
Y1590360D01*
X1815285Y1209560D02*
Y1274560D01*
Y1209560D02*
X1900285D01*
Y1274560D01*
X1815285D02*
X1900285D01*
X1760230Y1295190D02*
X1920230D01*
X1760230D02*
Y1491190D01*
X1920230D01*
Y1295190D02*
Y1491190D01*
X1606781Y1209560D02*
Y1274560D01*
Y1209560D02*
X1691781D01*
Y1274560D01*
X1606781D02*
X1691781D01*
X1398277Y1209560D02*
Y1274560D01*
Y1209560D02*
X1483277D01*
Y1274560D01*
X1398277D02*
X1483277D01*
X1189772D02*
X1274772D01*
Y1209560D02*
Y1274560D01*
X1189772Y1209560D02*
X1274772D01*
X1189772D02*
Y1274560D01*
X981268D02*
X1066268D01*
Y1209560D02*
Y1274560D01*
X981268Y1209560D02*
X1066268D01*
X981268D02*
Y1274560D01*
X564259Y1209560D02*
Y1274560D01*
Y1209560D02*
X649259D01*
Y1274560D01*
X564259D02*
X649259D01*
X355755D02*
X440755D01*
Y1209560D02*
Y1274560D01*
X355755Y1209560D02*
X440755D01*
X355755D02*
Y1274560D01*
X147250Y1209560D02*
Y1274560D01*
Y1209560D02*
X232250D01*
Y1274560D01*
X147250D02*
X232250D01*
X1192590Y1122690D02*
Y1169990D01*
Y1122690D02*
X1263590D01*
Y1169990D01*
X1192590D02*
X1263590D01*
X152460Y1117610D02*
Y1164910D01*
Y1117610D02*
X223460D01*
Y1164910D01*
X152460D02*
X223460D01*
X363280Y1122592D02*
Y1169893D01*
Y1122592D02*
X434280D01*
Y1169893D01*
X363280D02*
X434280D01*
X569020Y1121420D02*
Y1168720D01*
Y1121420D02*
X640020D01*
Y1168720D01*
X569020D02*
X640020D01*
X777300Y1122690D02*
Y1169990D01*
Y1122690D02*
X848300D01*
Y1169990D01*
X777300D02*
X848300D01*
X1403410Y1121420D02*
Y1168720D01*
Y1121420D02*
X1474410D01*
Y1168720D01*
X1403410D02*
X1474410D01*
X2032060Y1121420D02*
Y1168720D01*
Y1121420D02*
X2103060D01*
Y1168720D01*
X2032060D02*
X2103060D01*
X989390Y1121420D02*
Y1168720D01*
Y1121420D02*
X1060390D01*
Y1168720D01*
X989390D02*
X1060390D01*
X1609150Y1117610D02*
Y1164910D01*
Y1117610D02*
X1680150D01*
Y1164910D01*
X1609150D02*
X1680150D01*
X1830130Y1117610D02*
Y1164910D01*
Y1117610D02*
X1901130D01*
Y1164910D01*
X1830130D02*
X1901130D01*
X2023790Y1274560D02*
X2108790D01*
Y1209560D02*
Y1274560D01*
X2023790Y1209560D02*
X2108790D01*
X2023790D02*
Y1274560D01*
X1314440Y35940D02*
Y121940D01*
X1154440D02*
X1314440D01*
X1154440Y35940D02*
Y121940D01*
Y35940D02*
X1314440D01*
X1353830Y1295190D02*
X1513830D01*
X1353830D02*
Y1491190D01*
X1513830D01*
Y1295190D02*
Y1491190D01*
X1557030Y1295190D02*
X1717030D01*
X1557030D02*
Y1491190D01*
X1717030D01*
Y1295190D02*
Y1491190D01*
X294630Y1295190D02*
Y1491190D01*
X134630D02*
X294630D01*
X134630Y1295190D02*
Y1491190D01*
Y1295190D02*
X294630D01*
X541030D02*
X701030D01*
X541030D02*
Y1491190D01*
X701030D01*
Y1295190D02*
Y1491190D01*
X744230Y1295190D02*
X904230D01*
X744230D02*
Y1491190D01*
X904230D01*
Y1295190D02*
Y1491190D01*
X857450Y90060D02*
Y336660D01*
X755450D02*
X857450D01*
X755450Y90060D02*
Y336660D01*
Y90060D02*
X857450D01*
X2156140Y170220D02*
Y276820D01*
X2243140D01*
Y170220D02*
Y276820D01*
X2156140Y170220D02*
X2243140D01*
X95570Y1003340D02*
Y1109940D01*
X8570Y1003340D02*
X95570D01*
X8570D02*
Y1109940D01*
X95570D01*
X2156140Y518200D02*
Y624800D01*
X2243140D01*
Y518200D02*
Y624800D01*
X2156140Y518200D02*
X2243140D01*
X711520Y697470D02*
Y981470D01*
X1260520D01*
Y697470D02*
Y981470D01*
X711520Y697470D02*
X1260520D01*
X1403559Y217850D02*
Y322850D01*
X1347559Y217850D02*
X1403559D01*
X1347559D02*
Y322850D01*
X1403559D01*
X1406099Y622980D02*
Y727980D01*
X1350099Y622980D02*
X1406099D01*
X1350099D02*
Y727980D01*
X1406099D01*
D19*
X1158790Y317610D02*
D03*
Y172610D02*
D03*
X1068790D02*
D03*
Y317610D02*
D03*
D20*
X1361924Y190500D02*
D03*
X1396924D02*
D03*
X1367004Y590550D02*
D03*
X1402004D02*
D03*
X1396924Y350520D02*
D03*
X1361924D02*
D03*
X1364464Y760730D02*
D03*
X1399464D02*
D03*
X1937310Y1191260D02*
D03*
X1972310D02*
D03*
X713027Y279400D02*
D03*
X678027D02*
D03*
X2149120Y1214120D02*
D03*
X2184120D02*
D03*
X294360Y1189990D02*
D03*
X259360D02*
D03*
X709650Y1188720D02*
D03*
X674650D02*
D03*
X1544040Y1198880D02*
D03*
X1509040D02*
D03*
X508990Y1191260D02*
D03*
X473990D02*
D03*
X1758670Y1202690D02*
D03*
X1723670D02*
D03*
X929360Y1193800D02*
D03*
X894360D02*
D03*
X1126210Y1196340D02*
D03*
X1091210D02*
D03*
X1348460D02*
D03*
X1313460D02*
D03*
X2086330Y1079500D02*
D03*
X2051330D02*
D03*
X928370Y1043940D02*
D03*
X1818700Y1192530D02*
D03*
X1610420D02*
D03*
X152460D02*
D03*
X360740D02*
D03*
X1402140D02*
D03*
X1193860D02*
D03*
X985580D02*
D03*
X777300D02*
D03*
X569020D02*
D03*
X2026980D02*
D03*
D21*
X2230120Y1220880D02*
D03*
Y1176880D02*
D03*
D22*
X539750Y885310D02*
D03*
Y900310D02*
D03*
X995680Y377190D02*
D03*
Y362190D02*
D03*
X746760Y1176140D02*
D03*
Y1191140D02*
D03*
X125730Y1200270D02*
D03*
Y1215270D02*
D03*
X544830Y1169790D02*
D03*
Y1184790D02*
D03*
X337820Y1199000D02*
D03*
Y1214000D02*
D03*
X1381760Y1202810D02*
D03*
Y1217810D02*
D03*
X1165860Y1197730D02*
D03*
Y1212730D02*
D03*
X961390Y1180070D02*
D03*
Y1195070D02*
D03*
X275590Y885310D02*
D03*
Y900310D02*
D03*
X1587500Y1197730D02*
D03*
Y1212730D02*
D03*
X2004060Y1200270D02*
D03*
Y1215270D02*
D03*
X1794510D02*
D03*
Y1200270D02*
D03*
D23*
X1368940Y381000D02*
D03*
X1353940D02*
D03*
X1368940Y160020D02*
D03*
X1353940D02*
D03*
X1374020Y562610D02*
D03*
X1359020D02*
D03*
X1371480Y786130D02*
D03*
X1356480D02*
D03*
X247650Y1143000D02*
D03*
X262650D02*
D03*
X666870Y1143000D02*
D03*
X681870D02*
D03*
X1296790Y1148080D02*
D03*
X1311790D02*
D03*
X455930Y1144270D02*
D03*
X470930D02*
D03*
X1496180Y1150620D02*
D03*
X1511180D02*
D03*
X1079620Y1146810D02*
D03*
X1094620D02*
D03*
X878960Y1148080D02*
D03*
X893960D02*
D03*
X1924170Y1154430D02*
D03*
X1939170D02*
D03*
X1725810Y1150620D02*
D03*
X1710810D02*
D03*
D24*
X995680Y445490D02*
D03*
Y410490D02*
D03*
X306070Y857326D02*
D03*
Y892326D02*
D03*
X508000Y857326D02*
D03*
Y892326D02*
D03*
X1776860Y977900D02*
D03*
X1546860Y1003300D02*
D03*
X43180Y453390D02*
D03*
D25*
X1725020Y1261110D02*
D03*
X1770020D02*
D03*
X1507850Y1253490D02*
D03*
X1552850D02*
D03*
X2144120Y1256030D02*
D03*
X2189120D02*
D03*
X303170Y1249680D02*
D03*
X258170D02*
D03*
X520340Y1248410D02*
D03*
X475340D02*
D03*
X721000D02*
D03*
X676000D02*
D03*
X940350Y1250950D02*
D03*
X895350D02*
D03*
X1137560Y1254760D02*
D03*
X1092560D02*
D03*
X1356000D02*
D03*
X1311000D02*
D03*
X1983740Y1252220D02*
D03*
X1938740D02*
D03*
D26*
X2195830Y1166190D02*
D03*
Y1139190D02*
D03*
D60*
X413431Y874102D02*
X414020Y874691D01*
X306070Y857250D02*
X401320D01*
X413431Y869361D02*
Y874102D01*
X401320Y857250D02*
X413431Y869361D01*
X568960Y1192530D02*
X569020D01*
X573560Y1218861D02*
X574259Y1219560D01*
X573560Y1197070D02*
Y1218861D01*
X569020Y1192530D02*
X573560Y1197070D01*
X551300Y1191260D02*
X563880D01*
X544830Y1184790D02*
X551300Y1191260D01*
X544830Y1164098D02*
X550688Y1158240D01*
X584200D01*
X544830Y1164098D02*
Y1168400D01*
X584200Y1158240D02*
X604520Y1137920D01*
X894855Y1250455D02*
Y1252715D01*
Y1194295D02*
Y1250455D01*
X895350Y1250950D01*
X874708Y1230308D02*
X894855Y1250455D01*
X832733Y1145927D02*
X834390Y1144270D01*
X832733Y1225786D02*
X841538Y1234590D01*
X855982D01*
X860264Y1230308D01*
X832733Y1145927D02*
Y1225786D01*
X860264Y1230308D02*
X874708D01*
X990600Y1221740D02*
X992221Y1220119D01*
X986790Y1192530D02*
Y1193740D01*
X990315Y1197265D01*
Y1218607D02*
X991268Y1219560D01*
X990315Y1197265D02*
Y1218607D01*
X961390Y1195070D02*
X980440D01*
X961390Y1172988D02*
Y1178560D01*
Y1172988D02*
X967248Y1167130D01*
X995680D01*
X1024890Y1137920D01*
X156263Y1219200D02*
X158203Y1217260D01*
X130020Y1219560D02*
X157250D01*
X158203Y1217207D02*
X158750Y1216660D01*
Y1198820D02*
Y1216660D01*
X156210Y1219200D02*
X156263D01*
X158203Y1217207D02*
Y1217260D01*
X152460Y1192530D02*
X158750Y1198820D01*
X157250Y1219560D02*
X158390D01*
X158750Y1219200D01*
X125730Y1215270D02*
X130020Y1219560D01*
X127000Y1192327D02*
Y1201420D01*
X155726Y1163601D02*
X158469D01*
X187960Y1134110D01*
X127000Y1192327D02*
X155726Y1163601D01*
X258170Y1250590D02*
X258765Y1249995D01*
X256540Y1252220D02*
X258170Y1250590D01*
X258765Y1190585D02*
Y1249995D01*
X258170Y1250590D02*
Y1313436D01*
Y1249680D02*
Y1250590D01*
Y1313436D02*
X274320Y1329586D01*
Y1330960D01*
X260350Y1180500D02*
Y1192530D01*
X258765Y1190585D02*
X259360Y1189990D01*
X213960Y1134110D02*
X260350Y1180500D01*
X474665Y1191935D02*
Y1251905D01*
X473990Y1191260D02*
X476250D01*
X424780Y1139092D02*
X471490Y1185803D01*
Y1188760D01*
X473990Y1191260D01*
X779581Y1215030D02*
X783590Y1219039D01*
Y1220470D01*
X777300Y1192530D02*
X779581Y1194811D01*
Y1215030D01*
X748150Y1192530D02*
X775970D01*
X746760Y1191140D02*
X748150Y1192530D01*
X746760Y1164590D02*
X755650Y1155700D01*
X746760Y1164590D02*
Y1174750D01*
X755650Y1155700D02*
X796290D01*
X812800Y1139190D01*
X2142490Y1257300D02*
X2146620Y1253170D01*
X2103430Y1296720D02*
Y1330650D01*
X2103120Y1330960D02*
X2103430Y1330650D01*
Y1296720D02*
X2144120Y1256030D01*
X2147260Y1212540D02*
X2150110Y1215390D01*
X2148980Y1214260D02*
X2149120Y1214120D01*
X2146620Y1216620D02*
X2148980Y1214260D01*
X2146620Y1216620D02*
Y1253170D01*
X2093560Y1137920D02*
X2147260Y1191620D01*
Y1212540D01*
X2031489Y1219560D02*
X2033270Y1221341D01*
Y1221740D01*
X2034540Y1200090D02*
Y1221740D01*
X2026980Y1192530D02*
X2034540Y1200090D01*
X2008350Y1219560D02*
X2031489D01*
X2004060Y1215270D02*
X2008350Y1219560D01*
X2028976Y1164871D02*
X2040609D01*
X2002790Y1191057D02*
X2028976Y1164871D01*
X2040609D02*
X2067560Y1137920D01*
X2002790Y1191057D02*
Y1200150D01*
X1938025Y1191975D02*
Y1254755D01*
X1902460Y1329960D02*
Y1336040D01*
X1938740Y1252220D02*
Y1293680D01*
X1902460Y1329960D02*
X1938740Y1293680D01*
X1938020Y1254760D02*
X1938025Y1254755D01*
X1937310Y1191260D02*
X1938025Y1191975D01*
X1913130Y1167080D02*
X1937310Y1191260D01*
X1891630Y1134110D02*
X1913130Y1155610D01*
Y1167080D01*
X1823043Y1218607D02*
X1823720Y1217930D01*
X1824990Y1216660D02*
X1828800Y1212850D01*
Y1202630D02*
Y1212850D01*
X1818700Y1192530D02*
X1828800Y1202630D01*
X1822985Y1218607D02*
X1823043D01*
X1794510Y1215270D02*
X1797170Y1217930D01*
X1822308D01*
X1822985Y1218607D01*
X1793240Y1192327D02*
X1821966Y1163601D01*
X1793240Y1192327D02*
Y1200150D01*
X1836139Y1163601D02*
X1865630Y1134110D01*
X1821966Y1163601D02*
X1836139D01*
X1724345Y1203365D02*
Y1262695D01*
X1695450Y1329690D02*
X1699530D01*
X1725020Y1261110D02*
Y1304200D01*
X1699530Y1329690D02*
X1725020Y1304200D01*
X1723670Y1202690D02*
X1724345Y1203365D01*
X1723390Y1263650D02*
X1724345Y1262695D01*
X1721170Y1200470D02*
X1723390Y1202690D01*
X1670650Y1134110D02*
X1721170Y1184630D01*
Y1200470D01*
X1593970Y1219200D02*
X1616710D01*
X1610420Y1192530D02*
X1616710Y1198820D01*
Y1219200D01*
X1587500Y1212730D02*
X1593970Y1219200D01*
X1614956Y1162331D02*
X1616429D01*
X1587500Y1189787D02*
X1614956Y1162331D01*
X1616429D02*
X1644650Y1134110D01*
X1587500Y1189787D02*
Y1197610D01*
X1507850Y1254400D02*
X1508445Y1253805D01*
X1507490Y1254760D02*
X1507850Y1254400D01*
X1508445Y1199475D02*
Y1253805D01*
X1507850Y1254400D02*
Y1315518D01*
Y1253490D02*
Y1254400D01*
X1494790Y1328578D02*
Y1332230D01*
Y1328578D02*
X1507850Y1315518D01*
X1508445Y1199475D02*
X1509040Y1198880D01*
X1510030Y1183133D02*
Y1196340D01*
X1464910Y1137920D02*
Y1138013D01*
X1510030Y1183133D01*
X1409229Y1203160D02*
Y1220940D01*
Y1203160D02*
X1409700Y1202690D01*
X1408430Y1221740D02*
X1409229Y1220940D01*
X1402140Y1192530D02*
X1409700Y1200090D01*
Y1202690D01*
X1385179Y1217810D02*
X1385976Y1218607D01*
X1407753D02*
X1408430Y1217930D01*
X1381760Y1217810D02*
X1385179D01*
X1385976Y1218607D02*
X1407753D01*
X1380490Y1188517D02*
Y1202690D01*
Y1188517D02*
X1408711Y1160296D01*
X1416534D01*
X1438910Y1137920D01*
X1309370Y1254760D02*
X1312230Y1251900D01*
X1290320Y1329690D02*
X1293130D01*
X1311000Y1254760D02*
Y1311820D01*
X1293130Y1329690D02*
X1311000Y1311820D01*
X1313180Y1196060D02*
Y1196340D01*
X1312230Y1197570D02*
X1313460Y1196340D01*
X1312230Y1197570D02*
Y1251900D01*
X1310960Y1193840D02*
X1313180Y1196060D01*
X1254090Y1139190D02*
X1308740Y1193840D01*
X1310960D01*
X1198819Y1218607D02*
X1200827D01*
X1177472D02*
X1198819D01*
X1193860Y1192530D02*
X1198819Y1197489D01*
X1192530Y1192530D02*
X1193860D01*
X1198819Y1218607D02*
X1199772Y1219560D01*
X1198819Y1197489D02*
Y1218607D01*
X1165860Y1212730D02*
X1171595D01*
X1177472Y1218607D01*
X1200827D02*
X1201420Y1219200D01*
X1165860Y1194867D02*
Y1198880D01*
X1193316Y1167411D02*
X1199869D01*
X1228090Y1139190D01*
X1165860Y1194867D02*
X1193316Y1167411D01*
X1091885Y1197015D02*
Y1255715D01*
X1091210Y1196340D02*
X1093470D01*
X1050890Y1137920D02*
X1088710Y1175740D01*
Y1193840D01*
X1091210Y1196340D01*
X1087120Y1329848D02*
Y1332230D01*
X1092560Y1254760D02*
Y1324408D01*
X1087120Y1329848D02*
X1092560Y1324408D01*
X1091885Y1255715D02*
X1092200Y1256030D01*
X1091210Y1196340D02*
X1091885Y1197015D01*
X883920Y1329848D02*
Y1334770D01*
Y1329848D02*
X895350Y1318418D01*
Y1250950D02*
Y1318418D01*
X894080Y1253490D02*
X894855Y1252715D01*
X894360Y1193800D02*
X894855Y1194295D01*
X673380Y1187450D02*
X675640D01*
X675325Y1189395D02*
Y1250635D01*
X672150Y1179550D02*
Y1186220D01*
X630520Y1137920D02*
X672150Y1179550D01*
Y1186220D02*
X673380Y1187450D01*
X679450Y1327958D02*
Y1334770D01*
X676000Y1248410D02*
Y1324508D01*
X679450Y1327958D01*
X674650Y1188720D02*
X675325Y1189395D01*
Y1250635D02*
X675640Y1250950D01*
X476585Y1249655D02*
Y1331295D01*
X477520Y1332230D01*
X475340Y1248410D02*
X476585Y1249655D01*
X474665Y1251905D02*
X474980Y1252220D01*
X473990Y1191260D02*
X474665Y1191935D01*
X430755Y1219560D02*
X431440D01*
X365755D02*
X430755D01*
X431440D02*
X431800Y1219200D01*
X373050Y1164822D02*
X397473Y1140399D01*
X398719D01*
X337820Y1189787D02*
Y1199000D01*
Y1189787D02*
X362785Y1164822D01*
X373050D01*
X398719Y1140399D02*
X398780Y1140460D01*
X338847Y1214000D02*
X343454Y1218607D01*
X363897D01*
X337820Y1214000D02*
X338847D01*
X363897Y1218607D02*
X364490Y1219200D01*
X361950Y1192530D02*
Y1193740D01*
X365280Y1219085D02*
X365755Y1219560D01*
X365280Y1197070D02*
Y1219085D01*
X361950Y1193740D02*
X365280Y1197070D01*
D61*
X1773084Y959304D02*
X1776860Y955528D01*
X1770853Y962025D02*
X1773084Y959793D01*
Y959304D02*
Y959793D01*
X1731800Y954405D02*
X1739420Y962025D01*
X1770853D01*
X1695450Y952173D02*
X1697682Y954405D01*
X1731800D01*
X1695450Y919480D02*
Y952173D01*
X1771265Y972305D02*
X1776860Y977900D01*
X1771265Y970607D02*
Y972305D01*
X1769033Y968375D02*
X1771265Y970607D01*
X1736790Y968375D02*
X1769033D01*
X1695450Y962987D02*
Y995680D01*
X1729170Y960755D02*
X1736790Y968375D01*
X1697682Y960755D02*
X1729170D01*
X1695450Y962987D02*
X1697682Y960755D01*
X2203149Y961390D02*
X2203450D01*
X1994055Y970915D02*
X2193624D01*
X2203149Y961390D01*
X1782867Y962025D02*
X1985165D01*
X1780636Y959793D02*
X1782867Y962025D01*
X1780636Y959304D02*
Y959793D01*
X1776860Y955528D02*
X1780636Y959304D01*
X1784687Y968375D02*
X1982535D01*
X1991425Y977265D01*
X1985165Y962025D02*
X1994055Y970915D01*
X1991425Y977265D02*
X2193624D01*
X1776860Y977900D02*
X1782455Y972305D01*
Y970607D02*
X1784687Y968375D01*
X1782455Y970607D02*
Y972305D01*
X2203149Y986790D02*
X2203450D01*
X2193624Y977265D02*
X2203149Y986790D01*
X1776860Y952500D02*
Y955528D01*
D62*
X1195070Y1546860D02*
X1206187D01*
X1170630Y1454190D02*
Y1522420D01*
X1195070Y1546860D01*
X967430Y1513921D02*
X1000369Y1546860D01*
X967430Y1454190D02*
Y1513921D01*
X1290630Y1454190D02*
Y1512260D01*
X1257300Y1545590D02*
X1290630Y1512260D01*
X1373830Y1508450D02*
X1412240Y1546860D01*
X1373830Y1454190D02*
Y1508450D01*
X1493830Y1454190D02*
Y1516070D01*
X1463040Y1546860D02*
X1493830Y1516070D01*
X1667510Y1546860D02*
X1697030Y1517340D01*
Y1454190D02*
Y1517340D01*
X1577030Y1505910D02*
X1617980Y1546860D01*
X1577030Y1454190D02*
Y1505910D01*
X1874520Y1545590D02*
X1900230Y1519880D01*
Y1454190D02*
Y1519880D01*
X1780230Y1503370D02*
X1823720Y1546860D01*
X1780230Y1454190D02*
Y1503370D01*
X2080260Y1545590D02*
X2103430Y1522420D01*
Y1454190D02*
Y1522420D01*
X1983430Y1500830D02*
X2029460Y1546860D01*
X1983430Y1454190D02*
Y1500830D01*
X1087430Y1454190D02*
Y1510990D01*
X1051560Y1546860D02*
X1087430Y1510990D01*
X845820Y1546860D02*
X884230Y1508450D01*
Y1454190D02*
Y1508450D01*
X764230Y1516070D02*
X795020Y1546860D01*
X764230Y1454190D02*
Y1516070D01*
X681030Y1454190D02*
Y1505910D01*
X640080Y1546860D02*
X681030Y1505910D01*
X561030Y1518610D02*
X589280Y1546860D01*
X561030Y1454190D02*
Y1518610D01*
X477520Y1454150D02*
Y1503054D01*
X433714Y1546860D02*
X477520Y1503054D01*
X357830Y1522420D02*
X382270Y1546860D01*
X357830Y1454190D02*
Y1522420D01*
X228600Y1546860D02*
X274630Y1500830D01*
Y1454190D02*
Y1500830D01*
X154630Y1523690D02*
X177800Y1546860D01*
X154630Y1454190D02*
Y1523690D01*
D63*
X1983430Y1454190D02*
D03*
X2103430D02*
D03*
Y1332190D02*
D03*
X1170630Y1454190D02*
D03*
X1290630D02*
D03*
Y1332190D02*
D03*
X967430Y1454190D02*
D03*
X1087430D02*
D03*
Y1332190D02*
D03*
X477830D02*
D03*
Y1454190D02*
D03*
X357830D02*
D03*
X1078230Y615930D02*
D03*
X1900230Y1332190D02*
D03*
Y1454190D02*
D03*
X1780230D02*
D03*
X1493830Y1332190D02*
D03*
Y1454190D02*
D03*
X1373830D02*
D03*
X1697030Y1332190D02*
D03*
Y1454190D02*
D03*
X1577030D02*
D03*
X154630D02*
D03*
X274630D02*
D03*
Y1332190D02*
D03*
X681030D02*
D03*
Y1454190D02*
D03*
X561030D02*
D03*
X884230Y1332190D02*
D03*
Y1454190D02*
D03*
X764230D02*
D03*
X806450Y322560D02*
D03*
D64*
X2043430Y1312190D02*
D03*
X1230630D02*
D03*
X1027430D02*
D03*
X417830D02*
D03*
X1840230D02*
D03*
X1433830D02*
D03*
X1637030D02*
D03*
X214630D02*
D03*
X621030D02*
D03*
X824230D02*
D03*
D65*
X1983430Y1332190D02*
D03*
X1170630D02*
D03*
X967430D02*
D03*
X357830D02*
D03*
X1078230Y397530D02*
D03*
X1780230Y1332190D02*
D03*
X1373830D02*
D03*
X1577030D02*
D03*
X154630D02*
D03*
X561030D02*
D03*
X764230D02*
D03*
X806450Y104160D02*
D03*
D66*
X847763Y1264560D02*
D03*
Y1219560D02*
D03*
X782763D02*
D03*
X1825285D02*
D03*
X1890285D02*
D03*
Y1264560D02*
D03*
X1616781Y1219560D02*
D03*
X1681781D02*
D03*
Y1264560D02*
D03*
X1408277Y1219560D02*
D03*
X1473277D02*
D03*
Y1264560D02*
D03*
X1264772D02*
D03*
Y1219560D02*
D03*
X1199772D02*
D03*
X1056268Y1264560D02*
D03*
Y1219560D02*
D03*
X991268D02*
D03*
X574259D02*
D03*
X639259D02*
D03*
Y1264560D02*
D03*
X430755D02*
D03*
Y1219560D02*
D03*
X365755D02*
D03*
X157250D02*
D03*
X222250D02*
D03*
Y1264560D02*
D03*
X2098790D02*
D03*
Y1219560D02*
D03*
X2033790D02*
D03*
D67*
X782763Y1264560D02*
D03*
X1825285D02*
D03*
X1616781D02*
D03*
X1408277D02*
D03*
X1199772D02*
D03*
X991268D02*
D03*
X574259D02*
D03*
X365755D02*
D03*
X157250D02*
D03*
X2033790D02*
D03*
D68*
X50000Y50000D02*
D03*
Y1547660D02*
D03*
X2214410Y50000D02*
D03*
Y1547660D02*
D03*
D69*
X1695450Y919480D02*
D03*
Y995680D02*
D03*
X1228090Y1139190D02*
D03*
X1254090D02*
D03*
X187960Y1134110D02*
D03*
X213960D02*
D03*
X398780Y1139092D02*
D03*
X424780D02*
D03*
X604520Y1137920D02*
D03*
X630520D02*
D03*
X812800Y1139190D02*
D03*
X838800D02*
D03*
X1438910Y1137920D02*
D03*
X1464910D02*
D03*
X2067560D02*
D03*
X2093560D02*
D03*
X1024890D02*
D03*
X1050890D02*
D03*
X1644650Y1134110D02*
D03*
X1670650D02*
D03*
X1865630D02*
D03*
X1891630D02*
D03*
D70*
X953770Y1043940D02*
D03*
X979170D02*
D03*
X1004570D02*
D03*
X1029970D02*
D03*
X1055370D02*
D03*
X1080770D02*
D03*
X1106170D02*
D03*
X1131570D02*
D03*
X1156970D02*
D03*
X1776860Y952500D02*
D03*
X1889700Y1192530D02*
D03*
X1681420D02*
D03*
X223460D02*
D03*
X431740D02*
D03*
X1473140D02*
D03*
X1264860D02*
D03*
X1056580D02*
D03*
X848300D02*
D03*
X640020D02*
D03*
X2097980D02*
D03*
X1546860Y927100D02*
D03*
Y952500D02*
D03*
Y977900D02*
D03*
X43180Y377190D02*
D03*
Y402590D02*
D03*
Y427990D02*
D03*
D71*
X868680Y419100D02*
D03*
D72*
Y444500D02*
D03*
Y469900D02*
D03*
Y495300D02*
D03*
Y520700D02*
D03*
Y546100D02*
D03*
Y571500D02*
D03*
Y596900D02*
D03*
X741680D02*
D03*
Y571500D02*
D03*
Y546100D02*
D03*
Y520700D02*
D03*
Y495300D02*
D03*
Y469900D02*
D03*
Y444500D02*
D03*
Y419100D02*
D03*
D73*
X2203450Y935990D02*
D03*
D74*
Y961390D02*
D03*
Y986790D02*
D03*
D75*
X2080260Y1546860D02*
D03*
X1874442D02*
D03*
X1668624D02*
D03*
X383540Y62230D02*
D03*
X227896Y1546860D02*
D03*
X433714D02*
D03*
X639533D02*
D03*
X845351D02*
D03*
X1051169D02*
D03*
X1256987D02*
D03*
X1462805D02*
D03*
D76*
X2029460D02*
D03*
X1823642D02*
D03*
X1617823D02*
D03*
X53340Y913130D02*
D03*
X434340Y62230D02*
D03*
X177096Y1546860D02*
D03*
X382914D02*
D03*
X588732D02*
D03*
X794551D02*
D03*
X1000369D02*
D03*
X1206187D02*
D03*
X1412005D02*
D03*
X2199640Y248920D02*
D03*
X52070Y1031240D02*
D03*
X2199640Y596900D02*
D03*
D77*
X374020Y874691D02*
D03*
X394020D02*
D03*
X414020D02*
D03*
X1379559Y280350D02*
D03*
Y260350D02*
D03*
Y240350D02*
D03*
X1382099Y685480D02*
D03*
Y665480D02*
D03*
Y645480D02*
D03*
D78*
X434020Y874691D02*
D03*
D79*
X53340Y963930D02*
D03*
X2199640Y198120D02*
D03*
X52070Y1082040D02*
D03*
X2199640Y546100D02*
D03*
D80*
X95060Y655220D02*
D03*
X1198440Y78940D02*
D03*
D81*
X95060Y583220D02*
D03*
X1504080Y121850D02*
D03*
Y398850D02*
D03*
X2062080Y121850D02*
D03*
Y398850D02*
D03*
X1504080Y534600D02*
D03*
Y811600D02*
D03*
X2062080Y534600D02*
D03*
Y811600D02*
D03*
D82*
X1202090Y1139190D02*
D03*
X161960Y1134110D02*
D03*
X372780Y1139092D02*
D03*
X578520Y1137920D02*
D03*
X786800Y1139190D02*
D03*
X1412910Y1137920D02*
D03*
X2041560D02*
D03*
X998890D02*
D03*
X1618650Y1134110D02*
D03*
X1839630D02*
D03*
D83*
X1270440Y78940D02*
D03*
X266630Y755250D02*
D03*
X543630D02*
D03*
X266630Y197250D02*
D03*
X543630D02*
D03*
D84*
X787920Y712470D02*
D03*
D85*
X813320D02*
D03*
X1245120D02*
D03*
X838720D02*
D03*
X864120D02*
D03*
X889520D02*
D03*
X914920D02*
D03*
X940320D02*
D03*
X965720D02*
D03*
X991120D02*
D03*
X1016520D02*
D03*
X1041920D02*
D03*
X1067320D02*
D03*
X1092720D02*
D03*
X1118120D02*
D03*
X1143520D02*
D03*
X1168920D02*
D03*
X1194320D02*
D03*
X1219720D02*
D03*
X787920Y966470D02*
D03*
X813320D02*
D03*
X838720D02*
D03*
X864120D02*
D03*
X889520D02*
D03*
X914920D02*
D03*
X940320D02*
D03*
X965720D02*
D03*
X991120D02*
D03*
X1016520D02*
D03*
X1041920D02*
D03*
X1067320D02*
D03*
X1092720D02*
D03*
X1118120D02*
D03*
X1143520D02*
D03*
X1168920D02*
D03*
X1194320D02*
D03*
X1219720D02*
D03*
X1245120D02*
D03*
D86*
X1379559Y300350D02*
D03*
X1382099Y705480D02*
D03*
D87*
X1913731Y1043940D02*
D03*
X2249170D02*
D03*
X2043430Y899160D02*
D03*
X2175510D02*
D03*
X2249170Y971550D02*
D03*
Y899160D02*
D03*
X2109470D02*
D03*
X1977390D02*
D03*
X1911350D02*
D03*
X1845310D02*
D03*
X1779270D02*
D03*
X2181066Y1043940D02*
D03*
X2114232D02*
D03*
X2047399D02*
D03*
X1980565D02*
D03*
X1780064D02*
D03*
X1713230D02*
D03*
M02*
