%TF.GenerationSoftware,Altium Limited,Altium Designer,22.1.2 (22)*%
G04 Layer_Color=65535*
%FSLAX45Y45*%
%MOMM*%
%TF.SameCoordinates,97720CCC-B93B-4F85-99AC-C394CD96EF65*%
%TF.FilePolarity,Positive*%
%TF.FileFunction,Legend,Top*%
%TF.Part,Single*%
G01*
G75*
%TA.AperFunction,NonConductor*%
%ADD77C,0.30000*%
%ADD78C,0.20000*%
%ADD79C,0.12700*%
%ADD80C,0.25400*%
%ADD81C,0.50000*%
%ADD82R,0.80000X1.90000*%
D77*
X4363800Y3132900D02*
G03*
X4363800Y3132900I-10000J0D01*
G01*
X-3764200D02*
G03*
X-3764200Y3132900I-10000J0D01*
G01*
X-5796200D02*
G03*
X-5796200Y3132900I-10000J0D01*
G01*
X-11892200D02*
G03*
X-11892200Y3132900I-10000J0D01*
G01*
X2331800D02*
G03*
X2331800Y3132900I-10000J0D01*
G01*
X-3563700Y1612900D02*
G03*
X-3563700Y1612900I-5000J0D01*
G01*
X-13964999Y1562100D02*
G03*
X-13964999Y1562100I-5000J0D01*
G01*
X-11856800Y1611925D02*
G03*
X-11856800Y1611925I-5000J0D01*
G01*
X-9799400Y1600200D02*
G03*
X-9799400Y1600200I-5000J0D01*
G01*
X-7716600Y1612900D02*
G03*
X-7716600Y1612900I-5000J0D01*
G01*
X-1455500Y1600200D02*
G03*
X-1455500Y1600200I-5000J0D01*
G01*
X4831000D02*
G03*
X4831000Y1600200I-5000J0D01*
G01*
X-5595700D02*
G03*
X-5595700Y1600200I-5000J0D01*
G01*
X601900Y1562100D02*
G03*
X601900Y1562100I-5000J0D01*
G01*
X2811700D02*
G03*
X2811700Y1562100I-5000J0D01*
G01*
X-1732200Y3132900D02*
G03*
X-1732200Y3132900I-10000J0D01*
G01*
X299800D02*
G03*
X299800Y3132900I-10000J0D01*
G01*
X-13924200D02*
G03*
X-13924200Y3132900I-10000J0D01*
G01*
X-9860200D02*
G03*
X-9860200Y3132900I-10000J0D01*
G01*
X-7828200D02*
G03*
X-7828200Y3132900I-10000J0D01*
G01*
D78*
X-7750466Y2866600D02*
G03*
X-7750466Y2866600I-10000J0D01*
G01*
X-6566800Y-5644000D02*
G03*
X-6566800Y-5644000I-10000J0D01*
G01*
X6575900Y-622300D02*
G03*
X6575900Y-622300I-10000J0D01*
G01*
X-10838400Y-1032090D02*
G03*
X-10838400Y-1032090I-10000J0D01*
G01*
X2674755Y2866600D02*
G03*
X2674755Y2866600I-10000J0D01*
G01*
X589711D02*
G03*
X589711Y2866600I-10000J0D01*
G01*
X-1495334D02*
G03*
X-1495334Y2866600I-10000J0D01*
G01*
X-3580378D02*
G03*
X-3580378Y2866600I-10000J0D01*
G01*
X-5665422D02*
G03*
X-5665422Y2866600I-10000J0D01*
G01*
X-9835510D02*
G03*
X-9835510Y2866600I-10000J0D01*
G01*
X-11920554D02*
G03*
X-11920554Y2866600I-10000J0D01*
G01*
X-14005598D02*
G03*
X-14005598Y2866600I-10000J0D01*
G01*
X4759799D02*
G03*
X4759799Y2866600I-10000J0D01*
G01*
X-1663010Y-6495500D02*
G03*
X-1663010Y-6495500I-10000J0D01*
G01*
X-1637610Y-2444200D02*
G03*
X-1637610Y-2444200I-10000J0D01*
G01*
X1485900Y50800D02*
Y73660D01*
Y-480060D02*
Y-457200D01*
Y50800D02*
X1562100D01*
Y-457200D02*
Y50800D01*
X1409700Y-457200D02*
X1562100D01*
X1409700D02*
Y50800D01*
X1485900D01*
X-1574360Y-7759000D02*
X-1404360D01*
X-1404360Y-7989000D02*
X-1354360Y-7949000D01*
X-1404360Y-7759000D02*
X-1354360Y-7799000D01*
X-1574360Y-7989000D02*
X-1404360D01*
X-1354360Y-7949000D02*
Y-7799000D01*
X-1964360Y-7989000D02*
Y-7759000D01*
X-1774360D01*
X-1964360Y-7989000D02*
X-1774360D01*
X-6311900Y406400D02*
Y533400D01*
Y406400D02*
X-3771900D01*
Y533400D01*
X-6227232Y67734D02*
Y406400D01*
Y67734D02*
X-6184900Y25400D01*
X-6142566Y67734D01*
Y406400D01*
X-5973232Y67734D02*
Y406400D01*
Y67734D02*
X-5930900Y25400D01*
X-5888566Y67734D01*
Y406400D01*
X-5719232Y67734D02*
Y406400D01*
Y67734D02*
X-5676900Y25400D01*
X-5634566Y67734D01*
Y406400D01*
X-5465232Y67734D02*
Y406400D01*
Y67734D02*
X-5422900Y25400D01*
X-5380566Y67734D01*
Y406400D01*
X-5211232Y67734D02*
Y406400D01*
Y67734D02*
X-5168900Y25400D01*
X-5126566Y67734D01*
Y406400D01*
X-4957234Y67734D02*
Y406400D01*
Y67734D02*
X-4914900Y25400D01*
X-4872568Y67734D01*
Y406400D01*
X-4703234Y67734D02*
Y406400D01*
Y67734D02*
X-4660900Y25400D01*
X-4618568Y67734D01*
Y406400D01*
X-4449234Y67734D02*
Y406400D01*
Y67734D02*
X-4406900Y25400D01*
X-4364568Y67734D01*
Y406400D01*
X-4195234Y67734D02*
Y406400D01*
Y67734D02*
X-4152900Y25400D01*
X-4110568Y67734D01*
Y406400D01*
X-3941234Y67734D02*
Y406400D01*
Y67734D02*
X-3898900Y25400D01*
X-3856568Y67734D01*
Y406400D01*
X-6311900Y533400D02*
X-6121400D01*
X-6311900Y491068D02*
X-6269566Y533400D01*
X-6121400D02*
X-3771900D01*
X-1523560Y-3758500D02*
X-1353560D01*
X-1353560Y-3988500D02*
X-1303560Y-3948500D01*
X-1353560Y-3758500D02*
X-1303560Y-3798500D01*
X-1523560Y-3988500D02*
X-1353560D01*
X-1303560Y-3948500D02*
Y-3798500D01*
X-1913560Y-3988500D02*
Y-3758500D01*
X-1723560D01*
X-1913560Y-3988500D02*
X-1723560D01*
X2046000Y-381000D02*
Y127000D01*
Y-381000D02*
X2173000D01*
X2046000Y127000D02*
X2173000D01*
Y-381000D02*
Y127000D01*
X1707334Y42332D02*
X2046000D01*
X1665000Y0D02*
X1707334Y42332D01*
X1665000Y0D02*
X1707334Y-42334D01*
X1707334Y-42334D02*
X2046000D01*
X1707334Y-211666D02*
X2046000D01*
X1665000Y-254000D02*
X1707334Y-211666D01*
X1665000Y-254000D02*
X1707334Y-296332D01*
X2046000D01*
X6952600Y2089800D02*
Y2329800D01*
X6712600Y2089800D02*
Y2329800D01*
X-10106100Y-870900D02*
Y-830900D01*
X-10036100Y-870900D02*
Y-830900D01*
X-5476800Y-6102100D02*
Y-6062100D01*
X-5546800Y-6102100D02*
Y-6062100D01*
X-1964360Y-6388800D02*
X-1774360D01*
X-1964360Y-6158800D02*
X-1774360D01*
X-1964360Y-6388800D02*
Y-6158800D01*
X-1354360Y-6348800D02*
Y-6198800D01*
X-1574360Y-6388800D02*
X-1404360D01*
Y-6158800D02*
X-1354360Y-6198800D01*
X-1404360Y-6388800D02*
X-1354360Y-6348800D01*
X-1574360Y-6158800D02*
X-1404360D01*
X-1874200Y-6004000D02*
X-1834200D01*
X-1874200Y-5934000D02*
X-1834200D01*
X-1874200Y-8213800D02*
X-1834200D01*
X-1874200Y-8143800D02*
X-1834200D01*
X-5396800Y-5789100D02*
Y-5599100D01*
X-5626800Y-5789100D02*
Y-5599100D01*
Y-5789100D02*
X-5396800D01*
X-5586800Y-5179100D02*
X-5436800D01*
X-5396800Y-5399100D02*
Y-5229100D01*
X-5626800D02*
X-5586800Y-5179100D01*
X-5436800D02*
X-5396800Y-5229100D01*
X-5626800Y-5399100D02*
Y-5229100D01*
X-1823400Y-4187900D02*
X-1783400D01*
X-1823400Y-4117900D02*
X-1783400D01*
X-1848800Y-1952700D02*
X-1808800D01*
X-1848800Y-1882700D02*
X-1808800D01*
X-1548960Y-2056700D02*
X-1378960D01*
X-1378960Y-2286700D02*
X-1328960Y-2246700D01*
X-1378960Y-2056700D02*
X-1328960Y-2096700D01*
X-1548960Y-2286700D02*
X-1378960D01*
X-1328960Y-2246700D02*
Y-2096700D01*
X-1938960Y-2286700D02*
Y-2056700D01*
X-1748960D01*
X-1938960Y-2286700D02*
X-1748960D01*
X-12522900Y-930740D02*
Y-740740D01*
X-12292900Y-930740D02*
Y-740740D01*
X-12522900D02*
X-12292900D01*
X-12482900Y-1350740D02*
X-12332900D01*
X-12522900Y-1300740D02*
Y-1130740D01*
X-12332900Y-1350740D02*
X-12292900Y-1300740D01*
X-12522900D02*
X-12482900Y-1350740D01*
X-12292900Y-1300740D02*
Y-1130740D01*
X-10503600Y-930740D02*
Y-740740D01*
X-10273600Y-930740D02*
Y-740740D01*
X-10503600D02*
X-10273600D01*
X-10463600Y-1350740D02*
X-10313600D01*
X-10503600Y-1300740D02*
Y-1130740D01*
X-10313600Y-1350740D02*
X-10273600Y-1300740D01*
X-10503600D02*
X-10463600Y-1350740D01*
X-10273600Y-1300740D02*
Y-1130740D01*
X1626600Y2677100D02*
Y2987100D01*
X2371600Y2677100D02*
X2416600Y2722100D01*
X2371600Y2987100D02*
X2416600Y2942100D01*
Y2722100D02*
Y2942100D01*
X1626600Y2677100D02*
X1886600D01*
X1626600Y2987100D02*
X1886600D01*
X2126600D02*
X2371600D01*
X2126600Y2677100D02*
X2371600D01*
X3268400Y2051300D02*
Y2241300D01*
X2878400Y2051300D02*
X3268400D01*
X2878400Y2241300D02*
X3268400D01*
X1185600Y2051300D02*
Y2241300D01*
X795600Y2051300D02*
X1185600D01*
X795600Y2241300D02*
X1185600D01*
X-545100Y2600900D02*
Y2910900D01*
X199900Y2600900D02*
X244900Y2645900D01*
X199900Y2910900D02*
X244900Y2865900D01*
Y2645900D02*
Y2865900D01*
X-545100Y2600900D02*
X-285100D01*
X-545100Y2910900D02*
X-285100D01*
X-45100D02*
X199900D01*
X-45100Y2600900D02*
X199900D01*
X-8036000Y2037400D02*
Y2077400D01*
X-7966000Y2037400D02*
Y2077400D01*
X-14246300Y2278700D02*
Y2318700D01*
X-14176300Y2278700D02*
Y2318700D01*
X-10055300Y1973900D02*
Y2013900D01*
X-9985300Y1973900D02*
Y2013900D01*
X-12125400Y2266000D02*
Y2306000D01*
X-12055400Y2266000D02*
Y2306000D01*
X-13394000Y2051300D02*
Y2241300D01*
X-13784000Y2051300D02*
X-13394000D01*
X-13784000Y2241300D02*
X-13394000D01*
X-12937100Y1686000D02*
X-12897099D01*
X-12937100Y1616000D02*
X-12897099D01*
X-8744900Y1686000D02*
X-8704900D01*
X-8744900Y1616000D02*
X-8704900D01*
X6609700Y1707900D02*
Y1787900D01*
X6369700Y1707900D02*
Y1787900D01*
X-2445700Y1736800D02*
X-2405700D01*
X-2445700Y1666800D02*
X-2405700D01*
X-11311200Y2051300D02*
Y2241300D01*
X-11701200Y2051300D02*
X-11311200D01*
X-11701200Y2241300D02*
X-11311200D01*
X-10854300Y1698700D02*
X-10814300D01*
X-10854300Y1628700D02*
X-10814300D01*
X-451800Y1762200D02*
X-411800D01*
X-451800Y1692200D02*
X-411800D01*
X-4617400Y1724100D02*
X-4577400D01*
X-4617400Y1654100D02*
X-4577400D01*
X-6624000Y1736800D02*
X-6584000D01*
X-6624000Y1666800D02*
X-6584000D01*
X3828100Y1800300D02*
X3868100D01*
X3828100Y1730300D02*
X3868100D01*
X-897200Y2051300D02*
Y2241300D01*
X-1287200Y2051300D02*
X-897200D01*
X-1287200Y2241300D02*
X-897200D01*
X-2980000Y2051300D02*
Y2241300D01*
X-3370000Y2051300D02*
X-2980000D01*
X-3370000Y2241300D02*
X-2980000D01*
X-5062800Y2051300D02*
Y2241300D01*
X-5452800Y2051300D02*
X-5062800D01*
X-5452800Y2241300D02*
X-5062800D01*
X-7145600Y2051300D02*
Y2241300D01*
X-7535600Y2051300D02*
X-7145600D01*
X-7535600Y2241300D02*
X-7145600D01*
X-1686000Y2304100D02*
Y2344100D01*
X-1616000Y2304100D02*
Y2344100D01*
X-3845000Y2253300D02*
Y2293300D01*
X-3775000Y2253300D02*
Y2293300D01*
X4179500Y2248600D02*
X4369500D01*
X4179500Y2018600D02*
X4369500D01*
Y2248600D01*
X3759500Y2058600D02*
Y2208600D01*
X3809500Y2248600D02*
X3979500D01*
X3759500Y2058600D02*
X3809500Y2018600D01*
X3759500Y2208600D02*
X3809500Y2248600D01*
X3809500Y2018600D02*
X3979500D01*
X-5889700Y2076700D02*
Y2116700D01*
X-5819700Y2076700D02*
Y2116700D01*
X-12747700Y-870900D02*
Y-830900D01*
X-12677700Y-870900D02*
Y-830900D01*
X-8803326Y-7100000D02*
X-8613325D01*
X-8803326Y-6870000D02*
X-8613326D01*
X-8803326Y-7100000D02*
Y-6870000D01*
X-8193325Y-7060000D02*
Y-6910000D01*
X-8413326Y-7100000D02*
X-8243325D01*
Y-6870000D02*
X-8193325Y-6910000D01*
X-8243325Y-7100000D02*
X-8193325Y-7060000D01*
X-8413326Y-6870000D02*
X-8243326D01*
X6297600Y2477200D02*
X6487600D01*
X6297600Y2247200D02*
X6487600D01*
Y2477200D01*
X5877600Y2287200D02*
Y2437200D01*
X5927600Y2477200D02*
X6097600D01*
X5877600Y2287200D02*
X5927600Y2247200D01*
X5877600Y2437200D02*
X5927600Y2477200D01*
X5927600Y2247200D02*
X6097600D01*
X371400Y2253300D02*
Y2293300D01*
X441400Y2253300D02*
Y2293300D01*
X-9228400Y2051300D02*
Y2241300D01*
X-9618400Y2051300D02*
X-9228400D01*
X-9618400Y2241300D02*
X-9228400D01*
X5351200Y2051300D02*
Y2241300D01*
X4961200Y2051300D02*
X5351200D01*
X4961200Y2241300D02*
X5351200D01*
X4537000Y2278700D02*
Y2318700D01*
X4607000Y2278700D02*
Y2318700D01*
X5817600Y2626300D02*
Y2936300D01*
X6562600Y2626300D02*
X6607600Y2671300D01*
X6562600Y2936300D02*
X6607600Y2891300D01*
Y2671300D02*
Y2891300D01*
X5817600Y2626300D02*
X6077600D01*
X5817600Y2936300D02*
X6077600D01*
X6317600D02*
X6562600D01*
X6317600Y2626300D02*
X6562600D01*
X-127000Y-635000D02*
Y381000D01*
X-592666Y-550332D02*
X-254000D01*
X-635000Y-508000D02*
X-592666Y-550332D01*
X-635000Y-508000D02*
X-592666Y-465666D01*
X-254000D01*
X-592666Y-296332D02*
X-254000D01*
X-635000Y-254000D02*
X-592666Y-296332D01*
X-635000Y-254000D02*
X-592666Y-211666D01*
X-254000D01*
X-592666Y-42334D02*
X-254000D01*
X-635000Y0D02*
X-592666Y-42334D01*
X-635000Y0D02*
X-592666Y42332D01*
X-254000D01*
X-592666Y211666D02*
X-254000D01*
X-635000Y254000D02*
X-592666Y211666D01*
X-635000Y254000D02*
X-592666Y296332D01*
X-254000D01*
Y381000D02*
X-127000D01*
X-254000Y-635000D02*
X-127000D01*
X-254000D02*
Y381000D01*
X-15163800Y-5118100D02*
X-14909801D01*
Y-6134100D02*
Y-5118100D01*
X-15163800Y-6134100D02*
Y-5118100D01*
Y-6134100D02*
X-14909801D01*
X1694500Y1692200D02*
X1734500D01*
X1694500Y1762200D02*
X1734500D01*
X-12970000Y2005900D02*
X-12800000D01*
X-13020000Y2195900D02*
X-12970000Y2235900D01*
X-13020000Y2045900D02*
X-12970000Y2005900D01*
Y2235900D02*
X-12800000D01*
X-13020000Y2045900D02*
Y2195900D01*
X-12410000Y2005900D02*
Y2235900D01*
X-12600000Y2005900D02*
X-12410000D01*
X-12600000Y2235900D02*
X-12410000D01*
X-8817100Y1993200D02*
X-8647100D01*
X-8867100Y2183200D02*
X-8817100Y2223200D01*
X-8867100Y2033200D02*
X-8817100Y1993200D01*
Y2223200D02*
X-8647100D01*
X-8867100Y2033200D02*
Y2183200D01*
X-8257100Y1993200D02*
Y2223200D01*
X-8447100Y1993200D02*
X-8257100D01*
X-8447100Y2223200D02*
X-8257100D01*
X-473200Y2094800D02*
X-303200D01*
X-523200Y2284800D02*
X-473200Y2324800D01*
X-523200Y2134800D02*
X-473200Y2094800D01*
Y2324800D02*
X-303200D01*
X-523200Y2134800D02*
Y2284800D01*
X86800Y2094800D02*
Y2324800D01*
X-103200Y2094800D02*
X86800D01*
X-103200Y2324800D02*
X86800D01*
X-10823700Y2018600D02*
X-10653700D01*
X-10873700Y2208600D02*
X-10823700Y2248600D01*
X-10873700Y2058600D02*
X-10823700Y2018600D01*
Y2248600D02*
X-10653700D01*
X-10873700Y2058600D02*
Y2208600D01*
X-10263700Y2018600D02*
Y2248600D01*
X-10453700Y2018600D02*
X-10263700D01*
X-10453700Y2248600D02*
X-10263700D01*
X1673100Y2132900D02*
X1843100D01*
X1623100Y2322900D02*
X1673100Y2362900D01*
X1623100Y2172900D02*
X1673100Y2132900D01*
Y2362900D02*
X1843100D01*
X1623100Y2172900D02*
Y2322900D01*
X2233100Y2132900D02*
Y2362900D01*
X2043100Y2132900D02*
X2233100D01*
X2043100Y2362900D02*
X2233100D01*
X-6620000Y2044000D02*
X-6450000D01*
X-6670000Y2234000D02*
X-6620000Y2274000D01*
X-6670000Y2084000D02*
X-6620000Y2044000D01*
Y2274000D02*
X-6450000D01*
X-6670000Y2084000D02*
Y2234000D01*
X-6060000Y2044000D02*
Y2274000D01*
X-6250000Y2044000D02*
X-6060000D01*
X-6250000Y2274000D02*
X-6060000D01*
X-4651500Y2069400D02*
X-4481500D01*
X-4701500Y2259400D02*
X-4651500Y2299400D01*
X-4701500Y2109400D02*
X-4651500Y2069400D01*
Y2299400D02*
X-4481500D01*
X-4701500Y2109400D02*
Y2259400D01*
X-4091500Y2069400D02*
Y2299400D01*
X-4281500Y2069400D02*
X-4091500D01*
X-4281500Y2299400D02*
X-4091500D01*
X-2429000Y2069400D02*
X-2259000D01*
X-2479000Y2259400D02*
X-2429000Y2299400D01*
X-2479000Y2109400D02*
X-2429000Y2069400D01*
Y2299400D02*
X-2259000D01*
X-2479000Y2109400D02*
Y2259400D01*
X-1869000Y2069400D02*
Y2299400D01*
X-2059000Y2069400D02*
X-1869000D01*
X-2059000Y2299400D02*
X-1869000D01*
X-12541900Y2562800D02*
X-12296900D01*
X-12541900Y2872800D02*
X-12296900D01*
X-13041901D02*
X-12781900D01*
X-13041901Y2562800D02*
X-12781900D01*
X-12251900Y2607800D02*
Y2827800D01*
X-12296900Y2872800D02*
X-12251900Y2827800D01*
X-12296900Y2562800D02*
X-12251900Y2607800D01*
X-13041901Y2562800D02*
Y2872800D01*
X4949700Y901000D02*
X5119700D01*
X4899700Y1091000D02*
X4949700Y1131000D01*
X4899700Y941000D02*
X4949700Y901000D01*
Y1131000D02*
X5119700D01*
X4899700Y941000D02*
Y1091000D01*
X5509700Y901000D02*
Y1131000D01*
X5319700Y901000D02*
X5509700D01*
X5319700Y1131000D02*
X5509700D01*
X-10370200Y2550100D02*
X-10125200D01*
X-10370200Y2860100D02*
X-10125200D01*
X-10870200D02*
X-10610200D01*
X-10870200Y2550100D02*
X-10610200D01*
X-10080200Y2595100D02*
Y2815100D01*
X-10125200Y2860100D02*
X-10080200Y2815100D01*
X-10125200Y2550100D02*
X-10080200Y2595100D01*
X-10870200Y2550100D02*
Y2860100D01*
X-8363600Y2550100D02*
X-8118600D01*
X-8363600Y2860100D02*
X-8118600D01*
X-8863600D02*
X-8603600D01*
X-8863600Y2550100D02*
X-8603600D01*
X-8073600Y2595100D02*
Y2815100D01*
X-8118600Y2860100D02*
X-8073600Y2815100D01*
X-8118600Y2550100D02*
X-8073600Y2595100D01*
X-8863600Y2550100D02*
Y2860100D01*
X-6170100Y2575500D02*
X-5925100D01*
X-6170100Y2885500D02*
X-5925100D01*
X-6670100D02*
X-6410100D01*
X-6670100Y2575500D02*
X-6410100D01*
X-5880100Y2620500D02*
Y2840500D01*
X-5925100Y2885500D02*
X-5880100Y2840500D01*
X-5925100Y2575500D02*
X-5880100Y2620500D01*
X-6670100Y2575500D02*
Y2885500D01*
X-4198000Y2613600D02*
X-3953000D01*
X-4198000Y2923600D02*
X-3953000D01*
X-4698000D02*
X-4438000D01*
X-4698000Y2613600D02*
X-4438000D01*
X-3908000Y2658600D02*
Y2878600D01*
X-3953000Y2923600D02*
X-3908000Y2878600D01*
X-3953000Y2613600D02*
X-3908000Y2658600D01*
X-4698000Y2613600D02*
Y2923600D01*
X-2013600Y2613600D02*
X-1768600D01*
X-2013600Y2923600D02*
X-1768600D01*
X-2513600D02*
X-2253600D01*
X-2513600Y2613600D02*
X-2253600D01*
X-1723600Y2658600D02*
Y2878600D01*
X-1768600Y2923600D02*
X-1723600Y2878600D01*
X-1768600Y2613600D02*
X-1723600Y2658600D01*
X-2513600Y2613600D02*
Y2923600D01*
X2511500Y2278700D02*
Y2318700D01*
X2441500Y2278700D02*
Y2318700D01*
X4263800Y2588200D02*
X4508800D01*
X4263800Y2898200D02*
X4508800D01*
X3763800D02*
X4023800D01*
X3763800Y2588200D02*
X4023800D01*
X4553800Y2633200D02*
Y2853200D01*
X4508800Y2898200D02*
X4553800Y2853200D01*
X4508800Y2588200D02*
X4553800Y2633200D01*
X3763800Y2588200D02*
Y2898200D01*
D79*
X-7140466Y2641600D02*
G03*
X-7140466Y2641600I-175500J0D01*
G01*
X3284755D02*
G03*
X3284755Y2641600I-175500J0D01*
G01*
X1199711D02*
G03*
X1199711Y2641600I-175500J0D01*
G01*
X-885334D02*
G03*
X-885334Y2641600I-175500J0D01*
G01*
X-2970378D02*
G03*
X-2970378Y2641600I-175500J0D01*
G01*
X-5055422D02*
G03*
X-5055422Y2641600I-175500J0D01*
G01*
X-9225510D02*
G03*
X-9225510Y2641600I-175500J0D01*
G01*
X-11310554D02*
G03*
X-11310554Y2641600I-175500J0D01*
G01*
X-13395598D02*
G03*
X-13395598Y2641600I-175500J0D01*
G01*
X-2946888Y1695003D02*
G03*
X-3428512Y1695003I-240812J-51186D01*
G01*
X-13348187Y1644203D02*
G03*
X-13829813Y1644203I-240812J-51186D01*
G01*
X-11239988Y1694029D02*
G03*
X-11721612Y1694029I-240812J-51186D01*
G01*
X-9182588Y1682303D02*
G03*
X-9664212Y1682303I-240812J-51186D01*
G01*
X-7099788Y1695003D02*
G03*
X-7581412Y1695003I-240812J-51186D01*
G01*
X-838688Y1682303D02*
G03*
X-1320312Y1682303I-240812J-51186D01*
G01*
X5447812D02*
G03*
X4966188Y1682303I-240812J-51186D01*
G01*
X-4978888D02*
G03*
X-5460512Y1682303I-240812J-51186D01*
G01*
X1218712Y1644203D02*
G03*
X737088Y1644203I-240812J-51186D01*
G01*
X3428512D02*
G03*
X2946888Y1644203I-240812J-51186D01*
G01*
X5369799Y2641600D02*
G03*
X5369799Y2641600I-175500J0D01*
G01*
X5740700Y3197900D02*
Y5107900D01*
X4190700D02*
X5740700D01*
X4190700Y3197900D02*
Y5107900D01*
Y3197900D02*
X5740700D01*
X-7615466Y2526600D02*
Y2756600D01*
X-7545966Y2342100D02*
X-7085966D01*
X-7015966Y2526600D02*
Y2756600D01*
X-7535966Y2941100D02*
X-7085966D01*
X-2387300Y3197900D02*
Y5107900D01*
X-3937300D02*
X-2387300D01*
X-3937300Y3197900D02*
Y5107900D01*
Y3197900D02*
X-2387300D01*
X-4419300D02*
Y5107900D01*
X-5969300D02*
X-4419300D01*
X-5969300Y3197900D02*
Y5107900D01*
Y3197900D02*
X-4419300D01*
X-12065300D02*
X-10515300D01*
X-12065300D02*
Y5107900D01*
X-10515300D01*
Y3197900D02*
Y5107900D01*
X-8178800Y-5715000D02*
X-6654800D01*
X-8178800D02*
Y-3683000D01*
X-6654800D01*
Y-5715000D02*
Y-3683000D01*
X6240900Y-569100D02*
Y238900D01*
X6890900D01*
Y-569100D02*
Y238900D01*
X6240900Y-569100D02*
X6890900D01*
X4571999Y5279600D02*
X5587999D01*
X4571999D02*
Y5999600D01*
Y6099600D01*
X5587999D01*
Y5999600D02*
Y6099600D01*
Y5279600D02*
Y5999600D01*
X4571999D02*
X5587999D01*
X2513817Y5279600D02*
X3529817D01*
X2513817D02*
Y5999600D01*
Y6099600D01*
X3529817D01*
Y5999600D02*
Y6099600D01*
Y5279600D02*
Y5999600D01*
X2513817D02*
X3529817D01*
X455635D02*
X1471635D01*
Y5279600D02*
Y5999600D01*
Y6099600D01*
X455635D02*
X1471635D01*
X455635Y5999600D02*
Y6099600D01*
Y5279600D02*
Y5999600D01*
Y5279600D02*
X1471635D01*
X-10928400Y-1247090D02*
Y-737090D01*
X-11928400D02*
X-10928400D01*
X-11928400Y-1247090D02*
Y-737090D01*
Y-1247090D02*
X-10928400D01*
X-5171300Y-5919700D02*
Y-3503700D01*
X-4201300Y-5919700D02*
Y-3503700D01*
X-5171300Y-5919700D02*
X-4818300D01*
X-4554300D02*
X-4201300D01*
X-5171300Y-3503700D02*
X-4818300D01*
X-4554300D02*
X-4201300D01*
X-14525200Y-901700D02*
Y114300D01*
X-15245200Y-901700D02*
X-14525200D01*
X-15345200D02*
X-15245200D01*
X-15345200D02*
Y114300D01*
X-15245200D01*
X-14525200D01*
X-15245200Y-901700D02*
Y114300D01*
X-11887200Y-9466700D02*
X-10871200D01*
X-11887200D02*
Y-8746700D01*
Y-9566700D02*
Y-9466700D01*
Y-9566700D02*
X-10871200D01*
Y-9466700D01*
Y-8746700D01*
X-11887200D02*
X-10871200D01*
X-14517999Y-2736800D02*
Y-2636800D01*
X-14358000Y-2811800D02*
X-14113000Y-3091800D01*
X-14923000D02*
X-14678000Y-2811800D01*
X-14567999Y-4486800D02*
X-14467999D01*
X-14517999Y-4536800D02*
Y-4436800D01*
X-14923000Y-4361800D02*
X-14113000D01*
Y-3091800D01*
X-14678000Y-2811800D02*
X-14358000D01*
X-14923000Y-4361800D02*
Y-3091800D01*
X-13951640Y5279600D02*
X-12935640D01*
X-13951640D02*
Y5999600D01*
Y6099600D01*
X-12935640D01*
Y5999600D02*
Y6099600D01*
Y5279600D02*
Y5999600D01*
X-13951640D02*
X-12935640D01*
X-11893458Y5279600D02*
X-10877458D01*
X-11893458D02*
Y5999600D01*
Y6099600D01*
X-10877458D01*
Y5999600D02*
Y6099600D01*
Y5279600D02*
Y5999600D01*
X-11893458D02*
X-10877458D01*
X-9835275Y5279600D02*
X-8819275D01*
X-9835275D02*
Y5999600D01*
Y6099600D01*
X-8819275D01*
Y5999600D02*
Y6099600D01*
Y5279600D02*
Y5999600D01*
X-9835275D02*
X-8819275D01*
X-7777093D02*
X-6761093D01*
Y5279600D02*
Y5999600D01*
Y6099600D01*
X-7777093D02*
X-6761093D01*
X-7777093Y5999600D02*
Y6099600D01*
Y5279600D02*
Y5999600D01*
Y5279600D02*
X-6761093D01*
X-5718911D02*
X-4702911D01*
X-5718911D02*
Y5999600D01*
Y6099600D01*
X-4702911D01*
Y5999600D02*
Y6099600D01*
Y5279600D02*
Y5999600D01*
X-5718911D02*
X-4702911D01*
X-3660729Y5279600D02*
X-2644729D01*
X-3660729D02*
Y5999600D01*
Y6099600D01*
X-2644729D01*
Y5999600D02*
Y6099600D01*
Y5279600D02*
Y5999600D01*
X-3660729D02*
X-2644729D01*
X-1602547Y5279600D02*
X-586547D01*
X-1602547D02*
Y5999600D01*
Y6099600D01*
X-586547D01*
Y5999600D02*
Y6099600D01*
Y5279600D02*
Y5999600D01*
X-1602547D02*
X-586547D01*
X2889255Y2941100D02*
X3339255D01*
X3409255Y2526600D02*
Y2756600D01*
X2879255Y2342100D02*
X3339255D01*
X2809755Y2526600D02*
Y2756600D01*
X2158700Y3197900D02*
X3708700D01*
X2158700D02*
Y5107900D01*
X3708700D01*
Y3197900D02*
Y5107900D01*
X804210Y2941100D02*
X1254211D01*
X1324210Y2526600D02*
Y2756600D01*
X794211Y2342100D02*
X1254211D01*
X724711Y2526600D02*
Y2756600D01*
X-1280834Y2941100D02*
X-830833D01*
X-760834Y2526600D02*
Y2756600D01*
X-1290834Y2342100D02*
X-830833D01*
X-1360334Y2526600D02*
Y2756600D01*
X-3445378Y2526600D02*
Y2756600D01*
X-3375878Y2342100D02*
X-2915878D01*
X-2845878Y2526600D02*
Y2756600D01*
X-3365878Y2941100D02*
X-2915878D01*
X-5530422Y2526600D02*
Y2756600D01*
X-5460922Y2342100D02*
X-5000922D01*
X-4930922Y2526600D02*
Y2756600D01*
X-5450922Y2941100D02*
X-5000922D01*
X-9621010D02*
X-9171010D01*
X-9101010Y2526600D02*
Y2756600D01*
X-9631010Y2342100D02*
X-9171010D01*
X-9700510Y2526600D02*
Y2756600D01*
X-11785554Y2526600D02*
Y2756600D01*
X-11716054Y2342100D02*
X-11256054D01*
X-11186054Y2526600D02*
Y2756600D01*
X-11706054Y2941100D02*
X-11256054D01*
X-13791098D02*
X-13341098D01*
X-13271098Y2526600D02*
Y2756600D01*
X-13801099Y2342100D02*
X-13341098D01*
X-13870598Y2526600D02*
Y2756600D01*
X-3359200Y1479900D02*
X-3016200D01*
X-13760500Y1429100D02*
X-13417500D01*
X-11652300Y1478925D02*
X-11309300D01*
X-9594900Y1467200D02*
X-9251900D01*
X-7512100Y1479900D02*
X-7169100D01*
X-1251000Y1467200D02*
X-908000D01*
X5035500D02*
X5378500D01*
X-5391200D02*
X-5048200D01*
X806400Y1429100D02*
X1149400D01*
X3016200D02*
X3359200D01*
X4894799Y2526600D02*
Y2756600D01*
X4964299Y2342100D02*
X5424299D01*
X5494299Y2526600D02*
Y2756600D01*
X4974299Y2941100D02*
X5424299D01*
X-3619200Y-9394600D02*
X-2349200D01*
X-3899200Y-9149600D02*
Y-8829600D01*
X-3619200Y-8584600D02*
X-2349200D01*
Y-9394600D02*
Y-8584600D01*
X-2274200Y-8989600D02*
X-2174200D01*
X-2224200Y-9039600D02*
Y-8939600D01*
X-3899200Y-9149600D02*
X-3619200Y-9394600D01*
X-3899200Y-8829600D02*
X-3619200Y-8584600D01*
X-4074200Y-8989600D02*
X-3974200D01*
X-1905300Y3197900D02*
X-355300D01*
X-1905300D02*
Y5107900D01*
X-355300D01*
Y3197900D02*
Y5107900D01*
X126700Y3197900D02*
X1676700D01*
X126700D02*
Y5107900D01*
X1676700D01*
Y3197900D02*
Y5107900D01*
X-12547300Y3197900D02*
Y5107900D01*
X-14097301D02*
X-12547300D01*
X-14097301Y3197900D02*
Y5107900D01*
Y3197900D02*
X-12547300D01*
X-10033300D02*
X-8483300D01*
X-10033300D02*
Y5107900D01*
X-8483300D01*
Y3197900D02*
Y5107900D01*
X-8001300Y3197900D02*
X-6451300D01*
X-8001300D02*
Y5107900D01*
X-6451300D01*
Y3197900D02*
Y5107900D01*
X-7272100Y-6437400D02*
X-6919100D01*
X-7889100D02*
X-7536100D01*
X-7272100Y-8853400D02*
X-6919100D01*
X-7889100D02*
X-7536100D01*
X-6919100D02*
Y-6437400D01*
X-7889100Y-8853400D02*
Y-6437400D01*
X6117800Y-8051800D02*
Y-7035800D01*
X6837800D01*
X6937800D01*
Y-8051800D02*
Y-7035800D01*
X6837800Y-8051800D02*
X6937800D01*
X6117800D02*
X6837800D01*
Y-7035800D01*
X-14537900Y279400D02*
Y1295400D01*
X-15257899Y279400D02*
X-14537900D01*
X-15357899D02*
X-15257899D01*
X-15357899D02*
Y1295400D01*
X-15257899D01*
X-14537900D01*
X-15257899Y279400D02*
Y1295400D01*
X6117800Y-4572000D02*
Y-3556000D01*
X6837800D01*
X6937800D01*
Y-4572000D02*
Y-3556000D01*
X6837800Y-4572000D02*
X6937800D01*
X6117800D02*
X6837800D01*
Y-3556000D01*
X-8328400Y-2779300D02*
X-2888400D01*
X-8328400D02*
Y10700D01*
X-2888400D01*
Y-2779300D02*
Y10700D01*
X-1458010Y-7575500D02*
Y-6575500D01*
X-1968010Y-7575500D02*
X-1458010D01*
X-1968010D02*
Y-6575500D01*
X-1458010D01*
X-1432610Y-3524200D02*
Y-2524200D01*
X-1942610Y-3524200D02*
X-1432610D01*
X-1942610D02*
Y-2524200D01*
X-1432610D01*
D80*
X-432859Y-5287506D02*
G03*
X-931360Y-5778693I4065J-502681D01*
G01*
X5652006Y-5791183D02*
G03*
X5156242Y-5290710I-499806J683D01*
G01*
X5143613Y-9073773D02*
G03*
X5665544Y-8559780I8587J513273D01*
G01*
X-925786Y-8559784D02*
G03*
X-431827Y-9058470I497986J-716D01*
G01*
X-9529306Y-2221441D02*
G03*
X-10020493Y-1722940I-502681J-4065D01*
G01*
X-10032983Y-8306306D02*
G03*
X-9532510Y-7810542I683J499806D01*
G01*
X-13315573Y-7797913D02*
G03*
X-12801579Y-8319844I513273J-8587D01*
G01*
X-12801584Y-1728514D02*
G03*
X-13300270Y-2222473I-716J-497986D01*
G01*
X-432859Y-1160006D02*
G03*
X-931360Y-1651193I4065J-502681D01*
G01*
X5652006Y-1663683D02*
G03*
X5156242Y-1163210I-499806J683D01*
G01*
X5143613Y-4946273D02*
G03*
X5665544Y-4432280I8587J513273D01*
G01*
X-925786Y-4432284D02*
G03*
X-431827Y-4930970I497986J-716D01*
G01*
X-3580700Y-8277900D02*
Y-6377900D01*
X-5080700Y-8277900D02*
Y-6377900D01*
X-5067300Y-8277900D02*
X-3580700D01*
X-5080700Y-6377900D02*
X-3580700D01*
X-432859Y-5287506D02*
X5156242Y-5283200D01*
X-939800Y-5778693D02*
X-939800Y-8559784D01*
X-431827Y-9060501D02*
X5143500Y-9060500D01*
X5664200Y-5791183D02*
X5664200Y-8559780D01*
X-9529306Y-2221441D02*
X-9525000Y-7810542D01*
X-12801584Y-1714500D02*
X-10020493Y-1714500D01*
X-13302301Y-2222473D02*
X-13302299Y-7797800D01*
X-12801579Y-8318500D02*
X-10032983Y-8318500D01*
X-432859Y-1160006D02*
X5156242Y-1155700D01*
X-939800Y-1651193D02*
X-939800Y-4432284D01*
X-431827Y-4933001D02*
X5143500Y-4933000D01*
X5664200Y-1663683D02*
X5664200Y-4432280D01*
X-15201900Y-6527817D02*
X-15125725D01*
X-15100333Y-6502425D01*
X-15125725Y-6477033D01*
X-15176508D01*
X-15201900Y-6451641D01*
X-15176508Y-6426249D01*
X-15100333D01*
X-15024158Y-6400858D02*
Y-6426249D01*
X-15049548D01*
X-14998766D01*
X-15024158D01*
Y-6502425D01*
X-14998766Y-6527817D01*
X-14846416D02*
X-14897198D01*
X-14922591Y-6502425D01*
Y-6451641D01*
X-14897198Y-6426249D01*
X-14846416D01*
X-14821024Y-6451641D01*
Y-6477033D01*
X-14922591D01*
X-14770239Y-6578600D02*
Y-6426249D01*
X-14694064D01*
X-14668672Y-6451641D01*
Y-6502425D01*
X-14694064Y-6527817D01*
X-14770239D01*
X-14617889Y-6578600D02*
Y-6426249D01*
X-14541714D01*
X-14516322Y-6451641D01*
Y-6502425D01*
X-14541714Y-6527817D01*
X-14617889D01*
X-14389363D02*
X-14440146D01*
X-14465538Y-6502425D01*
Y-6451641D01*
X-14440146Y-6426249D01*
X-14389363D01*
X-14363971Y-6451641D01*
Y-6477033D01*
X-14465538D01*
X-14313188Y-6426249D02*
Y-6527817D01*
Y-6477033D01*
X-14287796Y-6451641D01*
X-14262404Y-6426249D01*
X-14237012D01*
X5969000Y-8204249D02*
Y-8331208D01*
X5994392Y-8356600D01*
X6045175D01*
X6070567Y-8331208D01*
Y-8204249D01*
X6121351Y-8356600D02*
Y-8204249D01*
X6197526D01*
X6222918Y-8229641D01*
Y-8280425D01*
X6197526Y-8305817D01*
X6121351D01*
X6426052Y-8204249D02*
Y-8356600D01*
X6502228D01*
X6527619Y-8331208D01*
Y-8229641D01*
X6502228Y-8204249D01*
X6426052D01*
X6603795Y-8356600D02*
X6654578D01*
X6679970Y-8331208D01*
Y-8280425D01*
X6654578Y-8255033D01*
X6603795D01*
X6578403Y-8280425D01*
Y-8331208D01*
X6603795Y-8356600D01*
X6730754Y-8255033D02*
Y-8331208D01*
X6756145Y-8356600D01*
X6781537Y-8331208D01*
X6806929Y-8356600D01*
X6832321Y-8331208D01*
Y-8255033D01*
X6883104Y-8356600D02*
Y-8255033D01*
X6959280D01*
X6984672Y-8280425D01*
Y-8356600D01*
X5676892Y-4851449D02*
X5727675D01*
X5753067Y-4876841D01*
Y-4953017D01*
X5676892D01*
X5651500Y-4927625D01*
X5676892Y-4902233D01*
X5753067D01*
X5803851Y-4851449D02*
Y-4927625D01*
X5829243Y-4953017D01*
X5905418D01*
Y-4851449D01*
X6006985Y-5003800D02*
X6032377D01*
X6057769Y-4978408D01*
Y-4851449D01*
X5981593D01*
X5956201Y-4876841D01*
Y-4927625D01*
X5981593Y-4953017D01*
X6057769D01*
X6184728D02*
X6133944D01*
X6108552Y-4927625D01*
Y-4876841D01*
X6133944Y-4851449D01*
X6184728D01*
X6210119Y-4876841D01*
Y-4902233D01*
X6108552D01*
X6260903Y-4851449D02*
Y-4953017D01*
Y-4902233D01*
X6286295Y-4876841D01*
X6311686Y-4851449D01*
X6337078D01*
X6565604Y-4953017D02*
X6641780D01*
X6667172Y-4927625D01*
X6641780Y-4902233D01*
X6590996D01*
X6565604Y-4876841D01*
X6590996Y-4851449D01*
X6667172D01*
X6717955Y-5003800D02*
Y-4851449D01*
X6794130D01*
X6819522Y-4876841D01*
Y-4927625D01*
X6794130Y-4953017D01*
X6717955D01*
X6870306D02*
X6921089D01*
X6895698D01*
Y-4851449D01*
X6870306D01*
X6997265Y-4953017D02*
Y-4851449D01*
X7073440D01*
X7098832Y-4876841D01*
Y-4953017D01*
X-11810959Y-584233D02*
X-11836351Y-609625D01*
Y-660408D01*
X-11810959Y-685800D01*
X-11709392D01*
X-11684000Y-660408D01*
Y-609625D01*
X-11709392Y-584233D01*
X-11760175D01*
Y-635017D01*
X-11684000Y-533449D02*
X-11785567D01*
Y-457274D01*
X-11760175Y-431882D01*
X-11684000D01*
X-11836351Y-279531D02*
X-11684000D01*
Y-355707D01*
X-11709392Y-381099D01*
X-11760175D01*
X-11785567Y-355707D01*
Y-279531D01*
X-2336833Y-7315241D02*
X-2362225Y-7289849D01*
X-2413008D01*
X-2438400Y-7315241D01*
Y-7416808D01*
X-2413008Y-7442200D01*
X-2362225D01*
X-2336833Y-7416808D01*
Y-7366025D01*
X-2387617D01*
X-2286049Y-7442200D02*
Y-7340633D01*
X-2209874D01*
X-2184482Y-7366025D01*
Y-7442200D01*
X-2032131Y-7289849D02*
Y-7442200D01*
X-2108307D01*
X-2133699Y-7416808D01*
Y-7366025D01*
X-2108307Y-7340633D01*
X-2032131D01*
X-2311433Y-3302041D02*
X-2336825Y-3276649D01*
X-2387608D01*
X-2413000Y-3302041D01*
Y-3403608D01*
X-2387608Y-3429000D01*
X-2336825D01*
X-2311433Y-3403608D01*
Y-3352825D01*
X-2362217D01*
X-2260649Y-3429000D02*
Y-3327433D01*
X-2184474D01*
X-2159082Y-3352825D01*
Y-3429000D01*
X-2006731Y-3276649D02*
Y-3429000D01*
X-2082907D01*
X-2108299Y-3403608D01*
Y-3352825D01*
X-2082907Y-3327433D01*
X-2006731D01*
X-3683000Y723851D02*
Y622283D01*
X-3632217Y571500D01*
X-3581433Y622283D01*
Y723851D01*
X-3429082Y673067D02*
X-3505257D01*
X-3530649Y647675D01*
Y596892D01*
X-3505257Y571500D01*
X-3429082D01*
X-3276731Y673067D02*
X-3352907D01*
X-3378299Y647675D01*
Y596892D01*
X-3352907Y571500D01*
X-3276731D01*
X-6705633Y723859D02*
X-6731025Y749251D01*
X-6781808D01*
X-6807200Y723859D01*
Y622292D01*
X-6781808Y596900D01*
X-6731025D01*
X-6705633Y622292D01*
Y673075D01*
X-6756417D01*
X-6654849Y596900D02*
Y698467D01*
X-6578674D01*
X-6553282Y673075D01*
Y596900D01*
X-6400931Y749251D02*
Y596900D01*
X-6477107D01*
X-6502499Y622292D01*
Y673075D01*
X-6477107Y698467D01*
X-6400931D01*
X5638800Y5892800D02*
Y6045151D01*
X5740367Y5892800D01*
Y6045151D01*
X5867326D02*
X5816543D01*
X5791151Y6019759D01*
Y5918192D01*
X5816543Y5892800D01*
X5867326D01*
X5892718Y5918192D01*
Y6019759D01*
X5867326Y6045151D01*
X4254500Y5905500D02*
Y6057851D01*
X4356067Y5905500D01*
Y6057851D01*
X4508418Y6032459D02*
X4483026Y6057851D01*
X4432243D01*
X4406851Y6032459D01*
Y5930892D01*
X4432243Y5905500D01*
X4483026D01*
X4508418Y5930892D01*
X3581400Y5905500D02*
Y6057851D01*
X3682967Y5905500D01*
Y6057851D01*
X3809926D02*
X3759143D01*
X3733751Y6032459D01*
Y5930892D01*
X3759143Y5905500D01*
X3809926D01*
X3835318Y5930892D01*
Y6032459D01*
X3809926Y6057851D01*
X2197100Y5905500D02*
Y6057851D01*
X2298667Y5905500D01*
Y6057851D01*
X2451018Y6032459D02*
X2425626Y6057851D01*
X2374843D01*
X2349451Y6032459D01*
Y5930892D01*
X2374843Y5905500D01*
X2425626D01*
X2451018Y5930892D01*
X1524000Y5905500D02*
Y6057851D01*
X1625567Y5905500D01*
Y6057851D01*
X1752526D02*
X1701743D01*
X1676351Y6032459D01*
Y5930892D01*
X1701743Y5905500D01*
X1752526D01*
X1777918Y5930892D01*
Y6032459D01*
X1752526Y6057851D01*
X139700Y5892800D02*
Y6045151D01*
X241267Y5892800D01*
Y6045151D01*
X393618Y6019759D02*
X368226Y6045151D01*
X317443D01*
X292051Y6019759D01*
Y5918192D01*
X317443Y5892800D01*
X368226D01*
X393618Y5918192D01*
X-533400Y5892800D02*
Y6045151D01*
X-431833Y5892800D01*
Y6045151D01*
X-304874D02*
X-355657D01*
X-381049Y6019759D01*
Y5918192D01*
X-355657Y5892800D01*
X-304874D01*
X-279482Y5918192D01*
Y6019759D01*
X-304874Y6045151D01*
X-1905000Y5892800D02*
Y6045151D01*
X-1803433Y5892800D01*
Y6045151D01*
X-1651082Y6019759D02*
X-1676474Y6045151D01*
X-1727257D01*
X-1752649Y6019759D01*
Y5918192D01*
X-1727257Y5892800D01*
X-1676474D01*
X-1651082Y5918192D01*
X-2603500Y5892800D02*
Y6045151D01*
X-2501933Y5892800D01*
Y6045151D01*
X-2374974D02*
X-2425757D01*
X-2451149Y6019759D01*
Y5918192D01*
X-2425757Y5892800D01*
X-2374974D01*
X-2349582Y5918192D01*
Y6019759D01*
X-2374974Y6045151D01*
X-3962400Y5892800D02*
Y6045151D01*
X-3860833Y5892800D01*
Y6045151D01*
X-3708482Y6019759D02*
X-3733874Y6045151D01*
X-3784657D01*
X-3810049Y6019759D01*
Y5918192D01*
X-3784657Y5892800D01*
X-3733874D01*
X-3708482Y5918192D01*
X-4660900Y5892800D02*
Y6045151D01*
X-4559333Y5892800D01*
Y6045151D01*
X-4432374D02*
X-4483157D01*
X-4508549Y6019759D01*
Y5918192D01*
X-4483157Y5892800D01*
X-4432374D01*
X-4406982Y5918192D01*
Y6019759D01*
X-4432374Y6045151D01*
X-6045200Y5892800D02*
Y6045151D01*
X-5943633Y5892800D01*
Y6045151D01*
X-5791282Y6019759D02*
X-5816674Y6045151D01*
X-5867457D01*
X-5892849Y6019759D01*
Y5918192D01*
X-5867457Y5892800D01*
X-5816674D01*
X-5791282Y5918192D01*
X-6692900Y5892800D02*
Y6045151D01*
X-6591333Y5892800D01*
Y6045151D01*
X-6464374D02*
X-6515157D01*
X-6540549Y6019759D01*
Y5918192D01*
X-6515157Y5892800D01*
X-6464374D01*
X-6438982Y5918192D01*
Y6019759D01*
X-6464374Y6045151D01*
X-8089900Y5905500D02*
Y6057851D01*
X-7988333Y5905500D01*
Y6057851D01*
X-7835982Y6032459D02*
X-7861374Y6057851D01*
X-7912157D01*
X-7937549Y6032459D01*
Y5930892D01*
X-7912157Y5905500D01*
X-7861374D01*
X-7835982Y5930892D01*
X-8763000Y5905500D02*
Y6057851D01*
X-8661433Y5905500D01*
Y6057851D01*
X-8534474D02*
X-8585257D01*
X-8610649Y6032459D01*
Y5930892D01*
X-8585257Y5905500D01*
X-8534474D01*
X-8509082Y5930892D01*
Y6032459D01*
X-8534474Y6057851D01*
X-10172700Y5905500D02*
Y6057851D01*
X-10071133Y5905500D01*
Y6057851D01*
X-9918782Y6032459D02*
X-9944174Y6057851D01*
X-9994957D01*
X-10020349Y6032459D01*
Y5930892D01*
X-9994957Y5905500D01*
X-9944174D01*
X-9918782Y5930892D01*
X-10807700Y5905500D02*
Y6057851D01*
X-10706133Y5905500D01*
Y6057851D01*
X-10579174D02*
X-10629957D01*
X-10655349Y6032459D01*
Y5930892D01*
X-10629957Y5905500D01*
X-10579174D01*
X-10553782Y5930892D01*
Y6032459D01*
X-10579174Y6057851D01*
X-12204700Y5905500D02*
Y6057851D01*
X-12103133Y5905500D01*
Y6057851D01*
X-11950782Y6032459D02*
X-11976174Y6057851D01*
X-12026957D01*
X-12052349Y6032459D01*
Y5930892D01*
X-12026957Y5905500D01*
X-11976174D01*
X-11950782Y5930892D01*
X-14312900Y5905500D02*
Y6057851D01*
X-14211333Y5905500D01*
Y6057851D01*
X-14058981Y6032459D02*
X-14084373Y6057851D01*
X-14135156D01*
X-14160548Y6032459D01*
Y5930892D01*
X-14135156Y5905500D01*
X-14084373D01*
X-14058981Y5930892D01*
X-12827000Y5905500D02*
Y6057851D01*
X-12725433Y5905500D01*
Y6057851D01*
X-12598474D02*
X-12649257D01*
X-12674649Y6032459D01*
Y5930892D01*
X-12649257Y5905500D01*
X-12598474D01*
X-12573082Y5930892D01*
Y6032459D01*
X-12598474Y6057851D01*
X177841Y-8661433D02*
X152449Y-8686825D01*
Y-8737608D01*
X177841Y-8763000D01*
X279408D01*
X304800Y-8737608D01*
Y-8686825D01*
X279408Y-8661433D01*
X228625D01*
Y-8712217D01*
X304800Y-8610649D02*
X203233D01*
Y-8534474D01*
X228625Y-8509082D01*
X304800D01*
X152449Y-8356731D02*
X304800D01*
Y-8432907D01*
X279408Y-8458299D01*
X228625D01*
X203233Y-8432907D01*
Y-8356731D01*
X165149Y-6019800D02*
X266717D01*
X317500Y-5969017D01*
X266717Y-5918233D01*
X165149D01*
X241325Y-5867449D02*
Y-5765882D01*
X190541Y-5816666D02*
X292108D01*
X342941Y-4622833D02*
X317549Y-4648225D01*
Y-4699008D01*
X342941Y-4724400D01*
X444508D01*
X469900Y-4699008D01*
Y-4648225D01*
X444508Y-4622833D01*
X393725D01*
Y-4673617D01*
X469900Y-4572049D02*
X368333D01*
Y-4495874D01*
X393725Y-4470482D01*
X469900D01*
X317549Y-4318131D02*
X469900D01*
Y-4394307D01*
X444508Y-4419699D01*
X393725D01*
X368333Y-4394307D01*
Y-4318131D01*
X127049Y-1816100D02*
X228617D01*
X279400Y-1765317D01*
X228617Y-1714533D01*
X127049D01*
X203225Y-1663749D02*
Y-1562182D01*
X152441Y-1612966D02*
X254008D01*
X-13042934Y-2794041D02*
X-13068324Y-2768649D01*
X-13119109D01*
X-13144501Y-2794041D01*
Y-2895608D01*
X-13119109Y-2921000D01*
X-13068324D01*
X-13042934Y-2895608D01*
Y-2844825D01*
X-13093716D01*
X-12992149Y-2921000D02*
Y-2819433D01*
X-12915974D01*
X-12890582Y-2844825D01*
Y-2921000D01*
X-12738231Y-2768649D02*
Y-2921000D01*
X-12814407D01*
X-12839799Y-2895608D01*
Y-2844825D01*
X-12814407Y-2819433D01*
X-12738231D01*
X-10223500Y-2781349D02*
Y-2882917D01*
X-10172717Y-2933700D01*
X-10121933Y-2882917D01*
Y-2781349D01*
X-10071149Y-2857525D02*
X-9969582D01*
X-10020366Y-2806741D02*
Y-2908308D01*
X5816518Y-431841D02*
X5791126Y-406449D01*
X5740343D01*
X5714951Y-431841D01*
Y-533408D01*
X5740343Y-558800D01*
X5791126D01*
X5816518Y-533408D01*
Y-482625D01*
X5765734D01*
X5867301Y-558800D02*
Y-457233D01*
X5943477D01*
X5968869Y-482625D01*
Y-558800D01*
X6121219Y-406449D02*
Y-558800D01*
X6045044D01*
X6019652Y-533408D01*
Y-482625D01*
X6045044Y-457233D01*
X6121219D01*
X5664167Y-165141D02*
X5638775Y-139749D01*
X5587992D01*
X5562600Y-165141D01*
Y-266708D01*
X5587992Y-292100D01*
X5638775D01*
X5664167Y-266708D01*
X5714951Y-292100D02*
Y-190533D01*
X5765734Y-139749D01*
X5816518Y-190533D01*
Y-292100D01*
Y-215925D01*
X5714951D01*
X5867301Y-292100D02*
Y-139749D01*
X5968869Y-292100D01*
Y-139749D01*
X6019652D02*
Y-292100D01*
X6121219D01*
X5664167Y241259D02*
X5638775Y266651D01*
X5587992D01*
X5562600Y241259D01*
Y139692D01*
X5587992Y114300D01*
X5638775D01*
X5664167Y139692D01*
X5714951Y114300D02*
Y215867D01*
X5765734Y266651D01*
X5816518Y215867D01*
Y114300D01*
Y190475D01*
X5714951D01*
X5867301Y114300D02*
Y266651D01*
X5968869Y114300D01*
Y266651D01*
X6019652D02*
Y114300D01*
Y190475D01*
X6121219D01*
Y266651D01*
Y114300D01*
X-3187700Y-8483600D02*
X-3136917D01*
X-3162308D01*
Y-8331249D01*
X-3187700Y-8356641D01*
X-2959174Y-8483600D02*
X-3060741D01*
X-2959174Y-8382033D01*
Y-8356641D01*
X-2984566Y-8331249D01*
X-3035349D01*
X-3060741Y-8356641D01*
X-2908390Y-8331249D02*
Y-8432817D01*
X-2857607Y-8483600D01*
X-2806823Y-8432817D01*
Y-8331249D01*
X-13817551Y-4013233D02*
Y-4114800D01*
X-13741376D01*
X-13766766Y-4064017D01*
Y-4038625D01*
X-13741376Y-4013233D01*
X-13690591D01*
X-13665199Y-4038625D01*
Y-4089408D01*
X-13690591Y-4114800D01*
X-13817551Y-3962449D02*
X-13715984D01*
X-13665199Y-3911666D01*
X-13715984Y-3860882D01*
X-13817551D01*
X-14439900Y1117543D02*
Y965192D01*
X-14338333D01*
X-14287549D02*
X-14236766D01*
X-14262157D01*
Y1066759D01*
X-14287549D01*
X-14160590Y965192D02*
Y1066759D01*
X-14135199D01*
X-14109807Y1041367D01*
Y965192D01*
Y1041367D01*
X-14084415Y1066759D01*
X-14059023Y1041367D01*
Y965192D01*
X-14008240D02*
X-13957455D01*
X-13982848D01*
Y1066759D01*
X-14008240D01*
X-13855888Y1092151D02*
Y1066759D01*
X-13881281D01*
X-13830498D01*
X-13855888D01*
Y990584D01*
X-13830498Y965192D01*
X-13754321Y939800D02*
X-13652756D01*
X-13500404Y1092151D02*
X-13525797Y1117543D01*
X-13576579D01*
X-13601971Y1092151D01*
Y1066759D01*
X-13576579Y1041367D01*
X-13525797D01*
X-13500404Y1015975D01*
Y990584D01*
X-13525797Y965192D01*
X-13576579D01*
X-13601971Y990584D01*
X-13449622Y939800D02*
X-13348053D01*
X-13297270Y965192D02*
X-13246486D01*
X-13271878D01*
Y1117543D01*
X-13297270Y1092151D01*
X-15303500Y-1041457D02*
Y-1193808D01*
X-15201933D01*
X-15151149D02*
X-15100366D01*
X-15125757D01*
Y-1092241D01*
X-15151149D01*
X-15024190Y-1193808D02*
Y-1092241D01*
X-14998799D01*
X-14973407Y-1117633D01*
Y-1193808D01*
Y-1117633D01*
X-14948015Y-1092241D01*
X-14922623Y-1117633D01*
Y-1193808D01*
X-14871840D02*
X-14821056D01*
X-14846448D01*
Y-1092241D01*
X-14871840D01*
X-14719489Y-1066849D02*
Y-1092241D01*
X-14744881D01*
X-14694096D01*
X-14719489D01*
Y-1168416D01*
X-14694096Y-1193808D01*
X-14617921Y-1219200D02*
X-14516354D01*
X-14364005Y-1066849D02*
X-14389397Y-1041457D01*
X-14440179D01*
X-14465572Y-1066849D01*
Y-1092241D01*
X-14440179Y-1117633D01*
X-14389397D01*
X-14364005Y-1143025D01*
Y-1168416D01*
X-14389397Y-1193808D01*
X-14440179D01*
X-14465572Y-1168416D01*
X-14313222Y-1219200D02*
X-14211653D01*
X-14059303Y-1193808D02*
X-14160870D01*
X-14059303Y-1092241D01*
Y-1066849D01*
X-14084694Y-1041457D01*
X-14135478D01*
X-14160870Y-1066849D01*
X-14351033Y-698541D02*
X-14376425Y-673149D01*
X-14427208D01*
X-14452600Y-698541D01*
Y-800108D01*
X-14427208Y-825500D01*
X-14376425D01*
X-14351033Y-800108D01*
Y-749325D01*
X-14401817D01*
X-14300249Y-825500D02*
Y-723933D01*
X-14224074D01*
X-14198682Y-749325D01*
Y-825500D01*
X-14046330Y-673149D02*
Y-825500D01*
X-14122507D01*
X-14147899Y-800108D01*
Y-749325D01*
X-14122507Y-723933D01*
X-14046330D01*
X-14325633Y495259D02*
X-14351025Y520651D01*
X-14401808D01*
X-14427200Y495259D01*
Y393692D01*
X-14401808Y368300D01*
X-14351025D01*
X-14325633Y393692D01*
Y444475D01*
X-14376418D01*
X-14274849Y368300D02*
Y469867D01*
X-14198674D01*
X-14173282Y444475D01*
Y368300D01*
X-14020930Y520651D02*
Y368300D01*
X-14097107D01*
X-14122499Y393692D01*
Y444475D01*
X-14097107Y469867D01*
X-14020930D01*
X-8610617Y-3873500D02*
X-8585225D01*
X-8559833Y-3848108D01*
Y-3721149D01*
X-8636008D01*
X-8661400Y-3746541D01*
Y-3797325D01*
X-8636008Y-3822717D01*
X-8559833D01*
X-8509049D02*
Y-3721149D01*
X-8432874D01*
X-8407482Y-3746541D01*
Y-3822717D01*
X-8255131Y-3670366D02*
Y-3822717D01*
X-8331307D01*
X-8356699Y-3797325D01*
Y-3746541D01*
X-8331307Y-3721149D01*
X-8255131D01*
X-8661400Y-3987849D02*
Y-4089417D01*
X-8610617Y-4140200D01*
X-8559833Y-4089417D01*
Y-3987849D01*
X-8509049Y-4140200D02*
X-8458266D01*
X-8483657D01*
Y-4038633D01*
X-8509049D01*
X-8382090Y-4140200D02*
Y-4038633D01*
X-8305915D01*
X-8280523Y-4064025D01*
Y-4140200D01*
X-8801100Y-5486449D02*
Y-5588017D01*
X-8750317Y-5638800D01*
X-8699533Y-5588017D01*
Y-5486449D01*
X-8648749Y-5638800D02*
Y-5486449D01*
X-8597966Y-5537233D01*
X-8547182Y-5486449D01*
Y-5638800D01*
X-8471007D02*
X-8420223D01*
X-8394831Y-5613408D01*
Y-5562625D01*
X-8420223Y-5537233D01*
X-8471007D01*
X-8496399Y-5562625D01*
Y-5613408D01*
X-8471007Y-5638800D01*
X-8318656Y-5511841D02*
Y-5537233D01*
X-8344048D01*
X-8293264D01*
X-8318656D01*
Y-5613408D01*
X-8293264Y-5638800D01*
X-3098800Y-2895649D02*
Y-2997217D01*
X-3048017Y-3048000D01*
X-2997233Y-2997217D01*
Y-2895649D01*
X-2946449Y-3048000D02*
X-2895666D01*
X-2921057D01*
Y-2946433D01*
X-2946449D01*
X-2819490Y-3048000D02*
Y-2946433D01*
X-2743315D01*
X-2717923Y-2971825D01*
Y-3048000D01*
X-38100Y546051D02*
Y444483D01*
X12683Y393700D01*
X63467Y444483D01*
Y546051D01*
X215818Y495267D02*
X139643D01*
X114251Y469875D01*
Y419092D01*
X139643Y393700D01*
X215818D01*
X368169Y495267D02*
X291993D01*
X266601Y469875D01*
Y419092D01*
X291993Y393700D01*
X368169D01*
X-7912117Y50800D02*
X-7886725D01*
X-7861333Y76192D01*
Y203151D01*
X-7937508D01*
X-7962900Y177759D01*
Y126975D01*
X-7937508Y101583D01*
X-7861333D01*
X-7810549D02*
Y203151D01*
X-7734374D01*
X-7708982Y177759D01*
Y101583D01*
X-7556631Y253934D02*
Y101583D01*
X-7632807D01*
X-7658199Y126975D01*
Y177759D01*
X-7632807Y203151D01*
X-7556631D01*
X-5587860Y1041367D02*
Y889017D01*
X-5511685D01*
X-5486293Y914408D01*
Y939800D01*
X-5511685Y965192D01*
X-5587860D01*
X-5511685D01*
X-5486293Y990584D01*
Y1015975D01*
X-5511685Y1041367D01*
X-5587860D01*
X-5410118Y990584D02*
X-5359334D01*
X-5333942Y965192D01*
Y889017D01*
X-5410118D01*
X-5435510Y914408D01*
X-5410118Y939800D01*
X-5333942D01*
X-5181592Y990584D02*
X-5257767D01*
X-5283159Y965192D01*
Y914408D01*
X-5257767Y889017D01*
X-5181592D01*
X-5130808D02*
Y1041367D01*
Y939800D02*
X-5054633Y990584D01*
X-5130808Y939800D02*
X-5054633Y889017D01*
X-4978457Y990584D02*
Y914408D01*
X-4953066Y889017D01*
X-4876890D01*
Y990584D01*
X-4826107Y838233D02*
Y990584D01*
X-4749931D01*
X-4724539Y965192D01*
Y914408D01*
X-4749931Y889017D01*
X-4826107D01*
X-2527238Y-7759725D02*
Y-7912075D01*
X-2451063D01*
X-2425671Y-7886683D01*
Y-7785117D01*
X-2451063Y-7759725D01*
X-2527238D01*
X-2374888Y-7912075D02*
X-2324104D01*
X-2349496D01*
Y-7759725D01*
X-2374888Y-7785117D01*
X-2247929D02*
X-2222537Y-7759725D01*
X-2171753D01*
X-2146361Y-7785117D01*
Y-7810508D01*
X-2171753Y-7835900D01*
X-2146361Y-7861292D01*
Y-7886683D01*
X-2171753Y-7912075D01*
X-2222537D01*
X-2247929Y-7886683D01*
Y-7861292D01*
X-2222537Y-7835900D01*
X-2247929Y-7810508D01*
Y-7785117D01*
X-2222537Y-7835900D02*
X-2171753D01*
X-15151059Y-8737575D02*
Y-8636008D01*
X-15125667D01*
X-15100275Y-8661400D01*
Y-8737575D01*
Y-8661400D01*
X-15074883Y-8636008D01*
X-15049492Y-8661400D01*
Y-8737575D01*
X-14998708Y-8585225D02*
Y-8737575D01*
Y-8661400D01*
X-14973315Y-8636008D01*
X-14922533D01*
X-14897141Y-8661400D01*
Y-8737575D01*
X6527841Y-8775675D02*
Y-8674108D01*
X6553233D01*
X6578625Y-8699500D01*
Y-8775675D01*
Y-8699500D01*
X6604017Y-8674108D01*
X6629408Y-8699500D01*
Y-8775675D01*
X6680192Y-8623325D02*
Y-8775675D01*
Y-8699500D01*
X6705584Y-8674108D01*
X6756367D01*
X6781759Y-8699500D01*
Y-8775675D01*
X6515141Y5105425D02*
Y5206992D01*
X6540533D01*
X6565925Y5181600D01*
Y5105425D01*
Y5181600D01*
X6591317Y5206992D01*
X6616708Y5181600D01*
Y5105425D01*
X6667492Y5257775D02*
Y5105425D01*
Y5181600D01*
X6692884Y5206992D01*
X6743667D01*
X6769059Y5181600D01*
Y5105425D01*
X-15036758Y4978425D02*
Y5079992D01*
X-15011366D01*
X-14985976Y5054600D01*
Y4978425D01*
Y5054600D01*
X-14960583Y5079992D01*
X-14935191Y5054600D01*
Y4978425D01*
X-14884409Y5130775D02*
Y4978425D01*
Y5054600D01*
X-14859016Y5079992D01*
X-14808234D01*
X-14782841Y5054600D01*
Y4978425D01*
X6339807Y444467D02*
X6263632D01*
X6238240Y419075D01*
Y368292D01*
X6263632Y342900D01*
X6339807D01*
X6415983Y444467D02*
X6466766D01*
X6492158Y419075D01*
Y342900D01*
X6415983D01*
X6390591Y368292D01*
X6415983Y393683D01*
X6492158D01*
X6542941Y342900D02*
Y444467D01*
X6619117D01*
X6644509Y419075D01*
Y342900D01*
X1346266Y330225D02*
Y482575D01*
X1422441D01*
X1447833Y457183D01*
Y406400D01*
X1422441Y381008D01*
X1346266D01*
X1397049D02*
X1447833Y330225D01*
X1600184D02*
X1498617D01*
X1600184Y431792D01*
Y457183D01*
X1574792Y482575D01*
X1524008D01*
X1498617Y457183D01*
X1650967Y355617D02*
X1676359Y330225D01*
X1727143D01*
X1752534Y355617D01*
Y457183D01*
X1727143Y482575D01*
X1676359D01*
X1650967Y457183D01*
Y431792D01*
X1676359Y406400D01*
X1752534D01*
X-3954813Y-8328709D02*
X-4005597D01*
X-3980205D01*
Y-8455668D01*
X-4005597Y-8481060D01*
X-4030988D01*
X-4056380Y-8455668D01*
X-3802462Y-8481060D02*
X-3904029D01*
X-3802462Y-8379493D01*
Y-8354101D01*
X-3827854Y-8328709D01*
X-3878637D01*
X-3904029Y-8354101D01*
X-1130300Y-5321341D02*
X-1104908Y-5295949D01*
X-1054125D01*
X-1028733Y-5321341D01*
Y-5346733D01*
X-1054125Y-5372125D01*
X-1079517D01*
X-1054125D01*
X-1028733Y-5397517D01*
Y-5422908D01*
X-1054125Y-5448300D01*
X-1104908D01*
X-1130300Y-5422908D01*
X-13403613Y-1879600D02*
X-13505180D01*
X-13403613Y-1778033D01*
Y-1752641D01*
X-13429005Y-1727249D01*
X-13479788D01*
X-13505180Y-1752641D01*
X-1079500Y-1320800D02*
X-1028717D01*
X-1054108D01*
Y-1168449D01*
X-1079500Y-1193841D01*
X-12458638Y-9182075D02*
Y-9029725D01*
X-12382463D01*
X-12357071Y-9055117D01*
Y-9105900D01*
X-12382463Y-9131292D01*
X-12458638D01*
X-12306288Y-9182075D02*
X-12255504D01*
X-12280896D01*
Y-9029725D01*
X-12306288Y-9055117D01*
X-12179329D02*
X-12153937Y-9029725D01*
X-12103153D01*
X-12077761Y-9055117D01*
Y-9080508D01*
X-12103153Y-9105900D01*
X-12077761Y-9131292D01*
Y-9156683D01*
X-12103153Y-9182075D01*
X-12153937D01*
X-12179329Y-9156683D01*
Y-9131292D01*
X-12153937Y-9105900D01*
X-12179329Y-9080508D01*
Y-9055117D01*
X-12153937Y-9105900D02*
X-12103153D01*
X6116320Y-6931660D02*
Y-6779309D01*
X6192495D01*
X6217887Y-6804701D01*
Y-6855485D01*
X6192495Y-6880877D01*
X6116320D01*
X6268671Y-6931660D02*
X6319454D01*
X6294063D01*
Y-6779309D01*
X6268671Y-6804701D01*
X6395630Y-6779309D02*
X6497197D01*
Y-6804701D01*
X6395630Y-6906268D01*
Y-6931660D01*
X-8089908Y-8432776D02*
X-7988341D01*
Y-8356601D01*
X-8039125D01*
X-7988341D01*
Y-8280425D01*
X-8242259D02*
X-8140692D01*
X-8242259Y-8381992D01*
Y-8407384D01*
X-8216867Y-8432776D01*
X-8166084D01*
X-8140692Y-8407384D01*
X-8716460Y-6578625D02*
Y-6730975D01*
X-8640284D01*
X-8614893Y-6705583D01*
Y-6604017D01*
X-8640284Y-6578625D01*
X-8716460D01*
X-8564109Y-6604017D02*
X-8538717Y-6578625D01*
X-8487934D01*
X-8462542Y-6604017D01*
Y-6629408D01*
X-8487934Y-6654800D01*
X-8513326D01*
X-8487934D01*
X-8462542Y-6680192D01*
Y-6705583D01*
X-8487934Y-6730975D01*
X-8538717D01*
X-8564109Y-6705583D01*
X-8411758D02*
X-8386367Y-6730975D01*
X-8335583D01*
X-8310191Y-6705583D01*
Y-6604017D01*
X-8335583Y-6578625D01*
X-8386367D01*
X-8411758Y-6604017D01*
Y-6629408D01*
X-8386367Y-6654800D01*
X-8310191D01*
X4965754Y3136883D02*
X4940362Y3162275D01*
X4889578D01*
X4864186Y3136883D01*
Y3111492D01*
X4889578Y3086100D01*
X4940362D01*
X4965754Y3060708D01*
Y3035317D01*
X4940362Y3009925D01*
X4889578D01*
X4864186Y3035317D01*
X5016537Y3162275D02*
Y3009925D01*
X5067321Y3060708D01*
X5118104Y3009925D01*
Y3162275D01*
X5168888Y3009925D02*
X5219671D01*
X5194280D01*
Y3162275D01*
X5168888Y3136883D01*
X5295847D02*
X5321239Y3162275D01*
X5372022D01*
X5397414Y3136883D01*
Y3035317D01*
X5372022Y3009925D01*
X5321239D01*
X5295847Y3035317D01*
Y3136883D01*
X2870233Y3124183D02*
X2844841Y3149575D01*
X2794058D01*
X2768666Y3124183D01*
Y3098792D01*
X2794058Y3073400D01*
X2844841D01*
X2870233Y3048008D01*
Y3022617D01*
X2844841Y2997225D01*
X2794058D01*
X2768666Y3022617D01*
X2921017Y3149575D02*
Y2997225D01*
X2971800Y3048008D01*
X3022584Y2997225D01*
Y3149575D01*
X3073367Y3022617D02*
X3098759Y2997225D01*
X3149543D01*
X3174934Y3022617D01*
Y3124183D01*
X3149543Y3149575D01*
X3098759D01*
X3073367Y3124183D01*
Y3098792D01*
X3098759Y3073400D01*
X3174934D01*
X-1879567Y3098783D02*
X-1904959Y3124175D01*
X-1955742D01*
X-1981134Y3098783D01*
Y3073392D01*
X-1955742Y3048000D01*
X-1904959D01*
X-1879567Y3022608D01*
Y2997217D01*
X-1904959Y2971825D01*
X-1955742D01*
X-1981134Y2997217D01*
X-1828783Y3124175D02*
Y2971825D01*
X-1778000Y3022608D01*
X-1727216Y2971825D01*
Y3124175D01*
X-1676433D02*
X-1574866D01*
Y3098783D01*
X-1676433Y2997217D01*
Y2971825D01*
X-4152867Y3098783D02*
X-4178259Y3124175D01*
X-4229042D01*
X-4254434Y3098783D01*
Y3073392D01*
X-4229042Y3048000D01*
X-4178259D01*
X-4152867Y3022608D01*
Y2997217D01*
X-4178259Y2971825D01*
X-4229042D01*
X-4254434Y2997217D01*
X-4102083Y3124175D02*
Y2971825D01*
X-4051300Y3022608D01*
X-4000516Y2971825D01*
Y3124175D01*
X-3848166D02*
X-3898949Y3098783D01*
X-3949733Y3048000D01*
Y2997217D01*
X-3924341Y2971825D01*
X-3873557D01*
X-3848166Y2997217D01*
Y3022608D01*
X-3873557Y3048000D01*
X-3949733D01*
X-6045167Y3073383D02*
X-6070559Y3098775D01*
X-6121342D01*
X-6146734Y3073383D01*
Y3047992D01*
X-6121342Y3022600D01*
X-6070559D01*
X-6045167Y2997208D01*
Y2971817D01*
X-6070559Y2946425D01*
X-6121342D01*
X-6146734Y2971817D01*
X-5994383Y3098775D02*
Y2946425D01*
X-5943600Y2997208D01*
X-5892816Y2946425D01*
Y3098775D01*
X-5740466D02*
X-5842033D01*
Y3022600D01*
X-5791249Y3047992D01*
X-5765857D01*
X-5740466Y3022600D01*
Y2971817D01*
X-5765857Y2946425D01*
X-5816641D01*
X-5842033Y2971817D01*
X-7670767Y3136883D02*
X-7696159Y3162275D01*
X-7746942D01*
X-7772334Y3136883D01*
Y3111492D01*
X-7746942Y3086100D01*
X-7696159D01*
X-7670767Y3060708D01*
Y3035317D01*
X-7696159Y3009925D01*
X-7746942D01*
X-7772334Y3035317D01*
X-7619983Y3162275D02*
Y3009925D01*
X-7569200Y3060708D01*
X-7518416Y3009925D01*
Y3162275D01*
X-7391457Y3009925D02*
Y3162275D01*
X-7467633Y3086100D01*
X-7366066D01*
X-10210767Y3073383D02*
X-10236159Y3098775D01*
X-10286942D01*
X-10312334Y3073383D01*
Y3047992D01*
X-10286942Y3022600D01*
X-10236159D01*
X-10210767Y2997208D01*
Y2971817D01*
X-10236159Y2946425D01*
X-10286942D01*
X-10312334Y2971817D01*
X-10159983Y3098775D02*
Y2946425D01*
X-10109200Y2997208D01*
X-10058416Y2946425D01*
Y3098775D01*
X-10007633Y3073383D02*
X-9982241Y3098775D01*
X-9931457D01*
X-9906066Y3073383D01*
Y3047992D01*
X-9931457Y3022600D01*
X-9956849D01*
X-9931457D01*
X-9906066Y2997208D01*
Y2971817D01*
X-9931457Y2946425D01*
X-9982241D01*
X-10007633Y2971817D01*
X-12318967Y3098783D02*
X-12344359Y3124175D01*
X-12395142D01*
X-12420534Y3098783D01*
Y3073392D01*
X-12395142Y3048000D01*
X-12344359D01*
X-12318967Y3022608D01*
Y2997217D01*
X-12344359Y2971825D01*
X-12395142D01*
X-12420534Y2997217D01*
X-12268183Y3124175D02*
Y2971825D01*
X-12217400Y3022608D01*
X-12166616Y2971825D01*
Y3124175D01*
X-12014266Y2971825D02*
X-12115833D01*
X-12014266Y3073392D01*
Y3098783D01*
X-12039657Y3124175D01*
X-12090441D01*
X-12115833Y3098783D01*
X-14363675Y3022583D02*
X-14389067Y3047975D01*
X-14439850D01*
X-14465242Y3022583D01*
Y2997192D01*
X-14439850Y2971800D01*
X-14389067D01*
X-14363675Y2946408D01*
Y2921017D01*
X-14389067Y2895625D01*
X-14439850D01*
X-14465242Y2921017D01*
X-14312892Y3047975D02*
Y2895625D01*
X-14262108Y2946408D01*
X-14211324Y2895625D01*
Y3047975D01*
X-14160541Y2895625D02*
X-14109756D01*
X-14135149D01*
Y3047975D01*
X-14160541Y3022583D01*
X876333Y3136883D02*
X850941Y3162275D01*
X800158D01*
X774766Y3136883D01*
Y3111492D01*
X800158Y3086100D01*
X850941D01*
X876333Y3060708D01*
Y3035317D01*
X850941Y3009925D01*
X800158D01*
X774766Y3035317D01*
X927117Y3162275D02*
Y3009925D01*
X977900Y3060708D01*
X1028684Y3009925D01*
Y3162275D01*
X1079467Y3136883D02*
X1104859Y3162275D01*
X1155643D01*
X1181034Y3136883D01*
Y3111492D01*
X1155643Y3086100D01*
X1181034Y3060708D01*
Y3035317D01*
X1155643Y3009925D01*
X1104859D01*
X1079467Y3035317D01*
Y3060708D01*
X1104859Y3086100D01*
X1079467Y3111492D01*
Y3136883D01*
X1104859Y3086100D02*
X1155643D01*
X-5461000Y-4076725D02*
X-5562567D01*
Y-4152900D01*
X-5511783D01*
X-5562567D01*
Y-4229075D01*
X-5410216D02*
X-5359433D01*
X-5384824D01*
Y-4076725D01*
X-5410216Y-4102117D01*
X-6896059Y-3416325D02*
Y-3543283D01*
X-6870667Y-3568675D01*
X-6819883D01*
X-6794492Y-3543283D01*
Y-3416325D01*
X-6642141Y-3568675D02*
X-6743708D01*
X-6642141Y-3467108D01*
Y-3441717D01*
X-6667533Y-3416325D01*
X-6718316D01*
X-6743708Y-3441717D01*
X-1663634Y-8254975D02*
Y-8102625D01*
X-1587459D01*
X-1562067Y-8128017D01*
Y-8178800D01*
X-1587459Y-8204192D01*
X-1663634D01*
X-1612851D02*
X-1562067Y-8254975D01*
X-1409716D02*
X-1511283D01*
X-1409716Y-8153408D01*
Y-8128017D01*
X-1435108Y-8102625D01*
X-1485892D01*
X-1511283Y-8128017D01*
X-1358933D02*
X-1333541Y-8102625D01*
X-1282757D01*
X-1257366Y-8128017D01*
Y-8153408D01*
X-1282757Y-8178800D01*
X-1257366Y-8204192D01*
Y-8229583D01*
X-1282757Y-8254975D01*
X-1333541D01*
X-1358933Y-8229583D01*
Y-8204192D01*
X-1333541Y-8178800D01*
X-1358933Y-8153408D01*
Y-8128017D01*
X-1333541Y-8178800D02*
X-1282757D01*
X-1625534Y-6045175D02*
Y-5892825D01*
X-1549359D01*
X-1523967Y-5918217D01*
Y-5969000D01*
X-1549359Y-5994392D01*
X-1625534D01*
X-1574751D02*
X-1523967Y-6045175D01*
X-1371616D02*
X-1473183D01*
X-1371616Y-5943608D01*
Y-5918217D01*
X-1397008Y-5892825D01*
X-1447792D01*
X-1473183Y-5918217D01*
X-1320833Y-5892825D02*
X-1219266D01*
Y-5918217D01*
X-1320833Y-6019783D01*
Y-6045175D01*
X-9994925Y-636135D02*
X-10147276D01*
Y-559959D01*
X-10121884Y-534567D01*
X-10071100D01*
X-10045708Y-559959D01*
Y-636135D01*
Y-585351D02*
X-9994925Y-534567D01*
Y-382217D02*
Y-483784D01*
X-10096492Y-382217D01*
X-10121884D01*
X-10147276Y-407609D01*
Y-458392D01*
X-10121884Y-483784D01*
X-10147276Y-229866D02*
X-10121884Y-280650D01*
X-10071100Y-331433D01*
X-10020317D01*
X-9994925Y-306041D01*
Y-255258D01*
X-10020317Y-229866D01*
X-10045708D01*
X-10071100Y-255258D01*
Y-331433D01*
X-12611125Y-647634D02*
X-12763475D01*
Y-571459D01*
X-12738083Y-546067D01*
X-12687300D01*
X-12661908Y-571459D01*
Y-647634D01*
Y-596851D02*
X-12611125Y-546067D01*
Y-393716D02*
Y-495283D01*
X-12712692Y-393716D01*
X-12738083D01*
X-12763475Y-419108D01*
Y-469892D01*
X-12738083Y-495283D01*
X-12763475Y-241366D02*
Y-342933D01*
X-12687300D01*
X-12712692Y-292149D01*
Y-266757D01*
X-12687300Y-241366D01*
X-12636517D01*
X-12611125Y-266757D01*
Y-317541D01*
X-12636517Y-342933D01*
X-2425634Y-2019275D02*
Y-1866925D01*
X-2349459D01*
X-2324067Y-1892317D01*
Y-1943100D01*
X-2349459Y-1968492D01*
X-2425634D01*
X-2374851D02*
X-2324067Y-2019275D01*
X-2171716D02*
X-2273283D01*
X-2171716Y-1917708D01*
Y-1892317D01*
X-2197108Y-1866925D01*
X-2247892D01*
X-2273283Y-1892317D01*
X-2044757Y-2019275D02*
Y-1866925D01*
X-2120933Y-1943100D01*
X-2019366D01*
X-2437134Y-4229075D02*
Y-4076724D01*
X-2360959D01*
X-2335567Y-4102116D01*
Y-4152900D01*
X-2360959Y-4178292D01*
X-2437134D01*
X-2386351D02*
X-2335567Y-4229075D01*
X-2183216D02*
X-2284783D01*
X-2183216Y-4127508D01*
Y-4102116D01*
X-2208608Y-4076724D01*
X-2259391D01*
X-2284783Y-4102116D01*
X-2132433D02*
X-2107041Y-4076724D01*
X-2056257D01*
X-2030865Y-4102116D01*
Y-4127508D01*
X-2056257Y-4152900D01*
X-2081649D01*
X-2056257D01*
X-2030865Y-4178292D01*
Y-4203683D01*
X-2056257Y-4229075D01*
X-2107041D01*
X-2132433Y-4203683D01*
X1995262Y215925D02*
Y368275D01*
X2071437D01*
X2096829Y342883D01*
Y292100D01*
X2071437Y266708D01*
X1995262D01*
X2147612Y215925D02*
X2198396D01*
X2173004D01*
Y368275D01*
X2147612Y342883D01*
X2376139Y368275D02*
X2325355Y342883D01*
X2274571Y292100D01*
Y241317D01*
X2299963Y215925D01*
X2350747D01*
X2376139Y241317D01*
Y266708D01*
X2350747Y292100D01*
X2274571D01*
X-619760Y467360D02*
Y619711D01*
X-543585D01*
X-518193Y594319D01*
Y543535D01*
X-543585Y518143D01*
X-619760D01*
X-467409Y467360D02*
X-416626D01*
X-442017D01*
Y619711D01*
X-467409Y594319D01*
X-238883Y619711D02*
X-340450D01*
Y543535D01*
X-289667Y568927D01*
X-264275D01*
X-238883Y543535D01*
Y492752D01*
X-264275Y467360D01*
X-315059D01*
X-340450Y492752D01*
X5791266Y2095475D02*
Y1943125D01*
X5867441D01*
X5892833Y1968517D01*
Y2070083D01*
X5867441Y2095475D01*
X5791266D01*
X5943617Y2070083D02*
X5969008Y2095475D01*
X6019792D01*
X6045184Y2070083D01*
Y2044692D01*
X6019792Y2019300D01*
X5994400D01*
X6019792D01*
X6045184Y1993908D01*
Y1968517D01*
X6019792Y1943125D01*
X5969008D01*
X5943617Y1968517D01*
X6095967Y2070083D02*
X6121359Y2095475D01*
X6172143D01*
X6197534Y2070083D01*
Y2044692D01*
X6172143Y2019300D01*
X6197534Y1993908D01*
Y1968517D01*
X6172143Y1943125D01*
X6121359D01*
X6095967Y1968517D01*
Y1993908D01*
X6121359Y2019300D01*
X6095967Y2044692D01*
Y2070083D01*
X6121359Y2019300D02*
X6172143D01*
X2209866Y2019275D02*
Y1866925D01*
X2286041D01*
X2311433Y1892317D01*
Y1993883D01*
X2286041Y2019275D01*
X2209866D01*
X2362217Y1993883D02*
X2387608Y2019275D01*
X2438392D01*
X2463784Y1993883D01*
Y1968492D01*
X2438392Y1943100D01*
X2413000D01*
X2438392D01*
X2463784Y1917708D01*
Y1892317D01*
X2438392Y1866925D01*
X2387608D01*
X2362217Y1892317D01*
X2514567Y2019275D02*
X2616134D01*
Y1993883D01*
X2514567Y1892317D01*
Y1866925D01*
X127066Y2019275D02*
Y1866925D01*
X203241D01*
X228633Y1892317D01*
Y1993883D01*
X203241Y2019275D01*
X127066D01*
X279417Y1993883D02*
X304808Y2019275D01*
X355592D01*
X380984Y1993883D01*
Y1968492D01*
X355592Y1943100D01*
X330200D01*
X355592D01*
X380984Y1917708D01*
Y1892317D01*
X355592Y1866925D01*
X304808D01*
X279417Y1892317D01*
X533334Y2019275D02*
X482551Y1993883D01*
X431767Y1943100D01*
Y1892317D01*
X457159Y1866925D01*
X507943D01*
X533334Y1892317D01*
Y1917708D01*
X507943Y1943100D01*
X431767D01*
X-609534Y2019275D02*
Y1866925D01*
X-533359D01*
X-507967Y1892317D01*
Y1993883D01*
X-533359Y2019275D01*
X-609534D01*
X-457183Y1993883D02*
X-431792Y2019275D01*
X-381008D01*
X-355616Y1993883D01*
Y1968492D01*
X-381008Y1943100D01*
X-406400D01*
X-381008D01*
X-355616Y1917708D01*
Y1892317D01*
X-381008Y1866925D01*
X-431792D01*
X-457183Y1892317D01*
X-203266Y2019275D02*
X-304833D01*
Y1943100D01*
X-254049Y1968492D01*
X-228657D01*
X-203266Y1943100D01*
Y1892317D01*
X-228657Y1866925D01*
X-279441D01*
X-304833Y1892317D01*
X-2819334Y1993875D02*
Y1841525D01*
X-2743159D01*
X-2717767Y1866917D01*
Y1968483D01*
X-2743159Y1993875D01*
X-2819334D01*
X-2666983Y1968483D02*
X-2641592Y1993875D01*
X-2590808D01*
X-2565416Y1968483D01*
Y1943092D01*
X-2590808Y1917700D01*
X-2616200D01*
X-2590808D01*
X-2565416Y1892308D01*
Y1866917D01*
X-2590808Y1841525D01*
X-2641592D01*
X-2666983Y1866917D01*
X-2438457Y1841525D02*
Y1993875D01*
X-2514633Y1917700D01*
X-2413066D01*
X-4787834Y1993875D02*
Y1841525D01*
X-4711659D01*
X-4686267Y1866917D01*
Y1968483D01*
X-4711659Y1993875D01*
X-4787834D01*
X-4635483Y1968483D02*
X-4610092Y1993875D01*
X-4559308D01*
X-4533916Y1968483D01*
Y1943092D01*
X-4559308Y1917700D01*
X-4584700D01*
X-4559308D01*
X-4533916Y1892308D01*
Y1866917D01*
X-4559308Y1841525D01*
X-4610092D01*
X-4635483Y1866917D01*
X-4483133Y1968483D02*
X-4457741Y1993875D01*
X-4406957D01*
X-4381566Y1968483D01*
Y1943092D01*
X-4406957Y1917700D01*
X-4432349D01*
X-4406957D01*
X-4381566Y1892308D01*
Y1866917D01*
X-4406957Y1841525D01*
X-4457741D01*
X-4483133Y1866917D01*
X-6896034Y1981175D02*
Y1828825D01*
X-6819859D01*
X-6794467Y1854217D01*
Y1955783D01*
X-6819859Y1981175D01*
X-6896034D01*
X-6743683Y1955783D02*
X-6718292Y1981175D01*
X-6667508D01*
X-6642116Y1955783D01*
Y1930392D01*
X-6667508Y1905000D01*
X-6692900D01*
X-6667508D01*
X-6642116Y1879608D01*
Y1854217D01*
X-6667508Y1828825D01*
X-6718292D01*
X-6743683Y1854217D01*
X-6489766Y1828825D02*
X-6591333D01*
X-6489766Y1930392D01*
Y1955783D01*
X-6515157Y1981175D01*
X-6565941D01*
X-6591333Y1955783D01*
X-8953442Y1930375D02*
Y1778025D01*
X-8877267D01*
X-8851875Y1803417D01*
Y1904983D01*
X-8877267Y1930375D01*
X-8953442D01*
X-8801092Y1904983D02*
X-8775700Y1930375D01*
X-8724916D01*
X-8699524Y1904983D01*
Y1879592D01*
X-8724916Y1854200D01*
X-8750308D01*
X-8724916D01*
X-8699524Y1828808D01*
Y1803417D01*
X-8724916Y1778025D01*
X-8775700D01*
X-8801092Y1803417D01*
X-8648741Y1778025D02*
X-8597957D01*
X-8623349D01*
Y1930375D01*
X-8648741Y1904983D01*
X-10998134Y1943075D02*
Y1790725D01*
X-10921959D01*
X-10896567Y1816117D01*
Y1917683D01*
X-10921959Y1943075D01*
X-10998134D01*
X-10845783Y1917683D02*
X-10820392Y1943075D01*
X-10769608D01*
X-10744216Y1917683D01*
Y1892292D01*
X-10769608Y1866900D01*
X-10795000D01*
X-10769608D01*
X-10744216Y1841508D01*
Y1816117D01*
X-10769608Y1790725D01*
X-10820392D01*
X-10845783Y1816117D01*
X-10693433Y1917683D02*
X-10668041Y1943075D01*
X-10617257D01*
X-10591866Y1917683D01*
Y1816117D01*
X-10617257Y1790725D01*
X-10668041D01*
X-10693433Y1816117D01*
Y1917683D01*
X-12458676Y-634934D02*
X-12306325D01*
Y-558759D01*
X-12331717Y-533367D01*
X-12433284D01*
X-12458676Y-558759D01*
Y-634934D01*
X-12306325Y-381017D02*
Y-482584D01*
X-12407892Y-381017D01*
X-12433284D01*
X-12458676Y-406408D01*
Y-457192D01*
X-12433284Y-482584D01*
X-12331717Y-330233D02*
X-12306325Y-304841D01*
Y-254058D01*
X-12331717Y-228666D01*
X-12433284D01*
X-12458676Y-254058D01*
Y-304841D01*
X-12433284Y-330233D01*
X-12407892D01*
X-12382500Y-304841D01*
Y-228666D01*
X-13157133Y1943075D02*
Y1790725D01*
X-13080959D01*
X-13055566Y1816117D01*
Y1917683D01*
X-13080959Y1943075D01*
X-13157133D01*
X-12903217Y1790725D02*
X-13004784D01*
X-12903217Y1892292D01*
Y1917683D01*
X-12928609Y1943075D01*
X-12979391D01*
X-13004784Y1917683D01*
X-12852432D02*
X-12827042Y1943075D01*
X-12776257D01*
X-12750866Y1917683D01*
Y1892292D01*
X-12776257Y1866900D01*
X-12750866Y1841508D01*
Y1816117D01*
X-12776257Y1790725D01*
X-12827042D01*
X-12852432Y1816117D01*
Y1841508D01*
X-12827042Y1866900D01*
X-12852432Y1892292D01*
Y1917683D01*
X-12827042Y1866900D02*
X-12776257D01*
X6116320Y-3451860D02*
Y-3299509D01*
X6192495D01*
X6217887Y-3324901D01*
Y-3375685D01*
X6192495Y-3401077D01*
X6116320D01*
X6268671Y-3451860D02*
X6319454D01*
X6294063D01*
Y-3299509D01*
X6268671Y-3324901D01*
X6471805Y-3451860D02*
Y-3299509D01*
X6395630Y-3375685D01*
X6497197D01*
X-14846239Y-1562075D02*
Y-1409725D01*
X-14770062D01*
X-14744672Y-1435117D01*
Y-1485900D01*
X-14770062Y-1511292D01*
X-14846239D01*
X-14693887Y-1562075D02*
X-14643105D01*
X-14668497D01*
Y-1409725D01*
X-14693887Y-1435117D01*
X-14566930D02*
X-14541537Y-1409725D01*
X-14490753D01*
X-14465361Y-1435117D01*
Y-1460508D01*
X-14490753Y-1485900D01*
X-14516145D01*
X-14490753D01*
X-14465361Y-1511292D01*
Y-1536683D01*
X-14490753Y-1562075D01*
X-14541537D01*
X-14566930Y-1536683D01*
X3898962Y5575325D02*
Y5727675D01*
X3975137D01*
X4000529Y5702283D01*
Y5651500D01*
X3975137Y5626108D01*
X3898962D01*
X4051312Y5575325D02*
X4102096D01*
X4076704D01*
Y5727675D01*
X4051312Y5702283D01*
X4279839Y5575325D02*
X4178271D01*
X4279839Y5676892D01*
Y5702283D01*
X4254447Y5727675D01*
X4203663D01*
X4178271Y5702283D01*
X-15359380Y1399540D02*
Y1551891D01*
X-15283205D01*
X-15257812Y1526499D01*
Y1475715D01*
X-15283205Y1450323D01*
X-15359380D01*
X-15207030Y1399540D02*
X-15156245D01*
X-15181638D01*
Y1551891D01*
X-15207030Y1526499D01*
X-15080070Y1399540D02*
X-15029288D01*
X-15054678D01*
Y1551891D01*
X-15080070Y1526499D01*
X1841562Y5537225D02*
Y5689575D01*
X1917737D01*
X1943129Y5664183D01*
Y5613400D01*
X1917737Y5588008D01*
X1841562D01*
X1993912Y5537225D02*
X2044696D01*
X2019304D01*
Y5689575D01*
X1993912Y5664183D01*
X2120871D02*
X2146263Y5689575D01*
X2197047D01*
X2222439Y5664183D01*
Y5562617D01*
X2197047Y5537225D01*
X2146263D01*
X2120871Y5562617D01*
Y5664183D01*
X-15148560Y-5031740D02*
Y-4879389D01*
X-15072385D01*
X-15046992Y-4904781D01*
Y-4955565D01*
X-15072385Y-4980957D01*
X-15148560D01*
X-14996210Y-5006348D02*
X-14970818Y-5031740D01*
X-14920033D01*
X-14894643Y-5006348D01*
Y-4904781D01*
X-14920033Y-4879389D01*
X-14970818D01*
X-14996210Y-4904781D01*
Y-4930173D01*
X-14970818Y-4955565D01*
X-14894643D01*
X-114259Y5537225D02*
Y5689575D01*
X-38083D01*
X-12692Y5664183D01*
Y5613400D01*
X-38083Y5588008D01*
X-114259D01*
X38092Y5664183D02*
X63484Y5689575D01*
X114267D01*
X139659Y5664183D01*
Y5638792D01*
X114267Y5613400D01*
X139659Y5588008D01*
Y5562617D01*
X114267Y5537225D01*
X63484D01*
X38092Y5562617D01*
Y5588008D01*
X63484Y5613400D01*
X38092Y5638792D01*
Y5664183D01*
X63484Y5613400D02*
X114267D01*
X-2146259Y5448325D02*
Y5600675D01*
X-2070083D01*
X-2044692Y5575283D01*
Y5524500D01*
X-2070083Y5499108D01*
X-2146259D01*
X-1993908Y5600675D02*
X-1892341D01*
Y5575283D01*
X-1993908Y5473717D01*
Y5448325D01*
X-4114759Y5613425D02*
Y5765775D01*
X-4038583D01*
X-4013192Y5740383D01*
Y5689600D01*
X-4038583Y5664208D01*
X-4114759D01*
X-3860841Y5765775D02*
X-3911625Y5740383D01*
X-3962408Y5689600D01*
Y5638817D01*
X-3937016Y5613425D01*
X-3886233D01*
X-3860841Y5638817D01*
Y5664208D01*
X-3886233Y5689600D01*
X-3962408D01*
X-6273759Y5499125D02*
Y5651475D01*
X-6197583D01*
X-6172192Y5626083D01*
Y5575300D01*
X-6197583Y5549908D01*
X-6273759D01*
X-6019841Y5651475D02*
X-6121408D01*
Y5575300D01*
X-6070625Y5600692D01*
X-6045233D01*
X-6019841Y5575300D01*
Y5524517D01*
X-6045233Y5499125D01*
X-6096016D01*
X-6121408Y5524517D01*
X-8191459Y5676925D02*
Y5829275D01*
X-8115283D01*
X-8089892Y5803883D01*
Y5753100D01*
X-8115283Y5727708D01*
X-8191459D01*
X-7962933Y5676925D02*
Y5829275D01*
X-8039108Y5753100D01*
X-7937541D01*
X-10299659Y5524525D02*
Y5676875D01*
X-10223483D01*
X-10198092Y5651483D01*
Y5600700D01*
X-10223483Y5575308D01*
X-10299659D01*
X-10147308Y5651483D02*
X-10121916Y5676875D01*
X-10071133D01*
X-10045741Y5651483D01*
Y5626092D01*
X-10071133Y5600700D01*
X-10096525D01*
X-10071133D01*
X-10045741Y5575308D01*
Y5549917D01*
X-10071133Y5524525D01*
X-10121916D01*
X-10147308Y5549917D01*
X-12255459Y5346725D02*
Y5499075D01*
X-12179283D01*
X-12153892Y5473683D01*
Y5422900D01*
X-12179283Y5397508D01*
X-12255459D01*
X-12001541Y5346725D02*
X-12103108D01*
X-12001541Y5448292D01*
Y5473683D01*
X-12026933Y5499075D01*
X-12077716D01*
X-12103108Y5473683D01*
X-14452567Y5219725D02*
Y5372075D01*
X-14376392D01*
X-14350999Y5346683D01*
Y5295900D01*
X-14376392Y5270508D01*
X-14452567D01*
X-14300217Y5219725D02*
X-14249432D01*
X-14274825D01*
Y5372075D01*
X-14300217Y5346683D01*
X4114862Y5359375D02*
Y5207025D01*
Y5257808D01*
X4216429Y5359375D01*
X4140254Y5283200D01*
X4216429Y5207025D01*
X4267212D02*
X4317996D01*
X4292604D01*
Y5359375D01*
X4267212Y5333983D01*
X4394171D02*
X4419563Y5359375D01*
X4470347D01*
X4495739Y5333983D01*
Y5232417D01*
X4470347Y5207025D01*
X4419563D01*
X4394171Y5232417D01*
Y5333983D01*
X2156460Y5364431D02*
Y5212080D01*
Y5262863D01*
X2258027Y5364431D01*
X2181852Y5288255D01*
X2258027Y5212080D01*
X2308811Y5237472D02*
X2334203Y5212080D01*
X2384986D01*
X2410378Y5237472D01*
Y5339039D01*
X2384986Y5364431D01*
X2334203D01*
X2308811Y5339039D01*
Y5313647D01*
X2334203Y5288255D01*
X2410378D01*
X124460Y5364431D02*
Y5212080D01*
Y5262863D01*
X226027Y5364431D01*
X149852Y5288255D01*
X226027Y5212080D01*
X276811Y5339039D02*
X302203Y5364431D01*
X352986D01*
X378378Y5339039D01*
Y5313647D01*
X352986Y5288255D01*
X378378Y5262863D01*
Y5237472D01*
X352986Y5212080D01*
X302203D01*
X276811Y5237472D01*
Y5262863D01*
X302203Y5288255D01*
X276811Y5313647D01*
Y5339039D01*
X302203Y5288255D02*
X352986D01*
X-1907540Y5364431D02*
Y5212080D01*
Y5262863D01*
X-1805973Y5364431D01*
X-1882148Y5288255D01*
X-1805973Y5212080D01*
X-1755189Y5364431D02*
X-1653622D01*
Y5339039D01*
X-1755189Y5237472D01*
Y5212080D01*
X-4279859Y5295875D02*
Y5143525D01*
Y5194308D01*
X-4178292Y5295875D01*
X-4254467Y5219700D01*
X-4178292Y5143525D01*
X-4025941Y5295875D02*
X-4076725Y5270483D01*
X-4127508Y5219700D01*
Y5168917D01*
X-4102116Y5143525D01*
X-4051333D01*
X-4025941Y5168917D01*
Y5194308D01*
X-4051333Y5219700D01*
X-4127508D01*
X-6349959Y4965675D02*
Y4813325D01*
Y4864108D01*
X-6248392Y4965675D01*
X-6324567Y4889500D01*
X-6248392Y4813325D01*
X-6096041Y4965675D02*
X-6197608D01*
Y4889500D01*
X-6146825Y4914892D01*
X-6121433D01*
X-6096041Y4889500D01*
Y4838717D01*
X-6121433Y4813325D01*
X-6172216D01*
X-6197608Y4838717D01*
X-8003540Y5364431D02*
Y5212080D01*
Y5262863D01*
X-7901973Y5364431D01*
X-7978148Y5288255D01*
X-7901973Y5212080D01*
X-7775014D02*
Y5364431D01*
X-7851189Y5288255D01*
X-7749622D01*
X-10035540Y5364431D02*
Y5212080D01*
Y5262863D01*
X-9933973Y5364431D01*
X-10010148Y5288255D01*
X-9933973Y5212080D01*
X-9883189Y5339039D02*
X-9857797Y5364431D01*
X-9807014D01*
X-9781622Y5339039D01*
Y5313647D01*
X-9807014Y5288255D01*
X-9832406D01*
X-9807014D01*
X-9781622Y5262863D01*
Y5237472D01*
X-9807014Y5212080D01*
X-9857797D01*
X-9883189Y5237472D01*
X-12433259Y4902175D02*
Y4749825D01*
Y4800608D01*
X-12331692Y4902175D01*
X-12407867Y4826000D01*
X-12331692Y4749825D01*
X-12179341D02*
X-12280908D01*
X-12179341Y4851392D01*
Y4876783D01*
X-12204733Y4902175D01*
X-12255516D01*
X-12280908Y4876783D01*
X-14099541Y5364431D02*
Y5212080D01*
Y5262863D01*
X-13997974Y5364431D01*
X-14074149Y5288255D01*
X-13997974Y5212080D01*
X-13947189D02*
X-13896407D01*
X-13921797D01*
Y5364431D01*
X-13947189Y5339039D01*
X-8331200Y266651D02*
Y139692D01*
X-8305808Y114300D01*
X-8255025D01*
X-8229633Y139692D01*
Y266651D01*
X-8178849Y114300D02*
X-8128066D01*
X-8153457D01*
Y266651D01*
X-8178849Y241259D01*
X4051366Y2349525D02*
Y2501875D01*
X4127541D01*
X4152933Y2476483D01*
Y2425700D01*
X4127541Y2400308D01*
X4051366D01*
X4102149D02*
X4152933Y2349525D01*
X4305284D02*
X4203717D01*
X4305284Y2451092D01*
Y2476483D01*
X4279892Y2501875D01*
X4229108D01*
X4203717Y2476483D01*
X4457634Y2349525D02*
X4356067D01*
X4457634Y2451092D01*
Y2476483D01*
X4432243Y2501875D01*
X4381459D01*
X4356067Y2476483D01*
X2440940Y2499360D02*
Y2651711D01*
X2517115D01*
X2542507Y2626319D01*
Y2575535D01*
X2517115Y2550143D01*
X2440940D01*
X2491723D02*
X2542507Y2499360D01*
X2694858D02*
X2593291D01*
X2694858Y2600927D01*
Y2626319D01*
X2669466Y2651711D01*
X2618683D01*
X2593291Y2626319D01*
X2745641Y2499360D02*
X2796425D01*
X2771033D01*
Y2651711D01*
X2745641Y2626319D01*
X-88834Y2374925D02*
Y2527275D01*
X-12659D01*
X12733Y2501883D01*
Y2451100D01*
X-12659Y2425708D01*
X-88834D01*
X-38051D02*
X12733Y2374925D01*
X165084D02*
X63517D01*
X165084Y2476492D01*
Y2501883D01*
X139692Y2527275D01*
X88908D01*
X63517Y2501883D01*
X215867D02*
X241259Y2527275D01*
X292043D01*
X317434Y2501883D01*
Y2400317D01*
X292043Y2374925D01*
X241259D01*
X215867Y2400317D01*
Y2501883D01*
X-2120838Y2374925D02*
Y2527275D01*
X-2044663D01*
X-2019271Y2501883D01*
Y2451100D01*
X-2044663Y2425708D01*
X-2120838D01*
X-2070055D02*
X-2019271Y2374925D01*
X-1968488D02*
X-1917704D01*
X-1943096D01*
Y2527275D01*
X-1968488Y2501883D01*
X-1841529Y2400317D02*
X-1816137Y2374925D01*
X-1765353D01*
X-1739961Y2400317D01*
Y2501883D01*
X-1765353Y2527275D01*
X-1816137D01*
X-1841529Y2501883D01*
Y2476492D01*
X-1816137Y2451100D01*
X-1739961D01*
X-4292538Y2374925D02*
Y2527275D01*
X-4216363D01*
X-4190971Y2501883D01*
Y2451100D01*
X-4216363Y2425708D01*
X-4292538D01*
X-4241755D02*
X-4190971Y2374925D01*
X-4140188D02*
X-4089404D01*
X-4114796D01*
Y2527275D01*
X-4140188Y2501883D01*
X-4013229D02*
X-3987837Y2527275D01*
X-3937053D01*
X-3911661Y2501883D01*
Y2476492D01*
X-3937053Y2451100D01*
X-3911661Y2425708D01*
Y2400317D01*
X-3937053Y2374925D01*
X-3987837D01*
X-4013229Y2400317D01*
Y2425708D01*
X-3987837Y2451100D01*
X-4013229Y2476492D01*
Y2501883D01*
X-3987837Y2451100D02*
X-3937053D01*
X-6146738Y2336825D02*
Y2489175D01*
X-6070563D01*
X-6045171Y2463783D01*
Y2413000D01*
X-6070563Y2387608D01*
X-6146738D01*
X-6095955D02*
X-6045171Y2336825D01*
X-5994388D02*
X-5943604D01*
X-5968996D01*
Y2489175D01*
X-5994388Y2463783D01*
X-5867429Y2489175D02*
X-5765861D01*
Y2463783D01*
X-5867429Y2362217D01*
Y2336825D01*
X-5245038Y-6209075D02*
Y-6056725D01*
X-5168863D01*
X-5143471Y-6082117D01*
Y-6132900D01*
X-5168863Y-6158292D01*
X-5245038D01*
X-5194255D02*
X-5143471Y-6209075D01*
X-5092687D02*
X-5041904D01*
X-5067295D01*
Y-6056725D01*
X-5092687Y-6082117D01*
X-4864161Y-6056725D02*
X-4914945Y-6082117D01*
X-4965728Y-6132900D01*
Y-6183684D01*
X-4940337Y-6209075D01*
X-4889553D01*
X-4864161Y-6183684D01*
Y-6158292D01*
X-4889553Y-6132900D01*
X-4965728D01*
X-8343838Y2311425D02*
Y2463775D01*
X-8267663D01*
X-8242271Y2438383D01*
Y2387600D01*
X-8267663Y2362208D01*
X-8343838D01*
X-8293055D02*
X-8242271Y2311425D01*
X-8191488D02*
X-8140704D01*
X-8166096D01*
Y2463775D01*
X-8191488Y2438383D01*
X-7962961Y2463775D02*
X-8064529D01*
Y2387600D01*
X-8013745Y2412992D01*
X-7988353D01*
X-7962961Y2387600D01*
Y2336817D01*
X-7988353Y2311425D01*
X-8039137D01*
X-8064529Y2336817D01*
X-10286938Y2286025D02*
Y2438375D01*
X-10210763D01*
X-10185371Y2412983D01*
Y2362200D01*
X-10210763Y2336808D01*
X-10286938D01*
X-10236155D02*
X-10185371Y2286025D01*
X-10134588D02*
X-10083804D01*
X-10109196D01*
Y2438375D01*
X-10134588Y2412983D01*
X-9931453Y2286025D02*
Y2438375D01*
X-10007629Y2362200D01*
X-9906061D01*
X-12598338Y2336825D02*
Y2489175D01*
X-12522163D01*
X-12496771Y2463783D01*
Y2413000D01*
X-12522163Y2387608D01*
X-12598338D01*
X-12547555D02*
X-12496771Y2336825D01*
X-12445988D02*
X-12395204D01*
X-12420596D01*
Y2489175D01*
X-12445988Y2463783D01*
X-12319029D02*
X-12293637Y2489175D01*
X-12242853D01*
X-12217461Y2463783D01*
Y2438392D01*
X-12242853Y2413000D01*
X-12268245D01*
X-12242853D01*
X-12217461Y2387608D01*
Y2362217D01*
X-12242853Y2336825D01*
X-12293637D01*
X-12319029Y2362217D01*
X-14477937Y2501925D02*
Y2654275D01*
X-14401762D01*
X-14376370Y2628883D01*
Y2578100D01*
X-14401762Y2552708D01*
X-14477937D01*
X-14427155D02*
X-14376370Y2501925D01*
X-14325587D02*
X-14274805D01*
X-14300195D01*
Y2654275D01*
X-14325587Y2628883D01*
X-14097061Y2501925D02*
X-14198630D01*
X-14097061Y2603492D01*
Y2628883D01*
X-14122453Y2654275D01*
X-14173238D01*
X-14198630Y2628883D01*
X6324654Y1308125D02*
Y1460475D01*
X6400829D01*
X6426221Y1435083D01*
Y1384300D01*
X6400829Y1358908D01*
X6324654D01*
X6375437D02*
X6426221Y1308125D01*
X6477004D02*
X6527788D01*
X6502396D01*
Y1460475D01*
X6477004Y1435083D01*
X6603963Y1308125D02*
X6654747D01*
X6629355D01*
Y1460475D01*
X6603963Y1435083D01*
X-2552638Y1384325D02*
Y1536675D01*
X-2476463D01*
X-2451071Y1511283D01*
Y1460500D01*
X-2476463Y1435108D01*
X-2552638D01*
X-2501855D02*
X-2451071Y1384325D01*
X-2400288D02*
X-2349504D01*
X-2374896D01*
Y1536675D01*
X-2400288Y1511283D01*
X-2273329D02*
X-2247937Y1536675D01*
X-2197153D01*
X-2171761Y1511283D01*
Y1409717D01*
X-2197153Y1384325D01*
X-2247937D01*
X-2273329Y1409717D01*
Y1511283D01*
X-6718259Y1422425D02*
Y1574775D01*
X-6642083D01*
X-6616692Y1549383D01*
Y1498600D01*
X-6642083Y1473208D01*
X-6718259D01*
X-6667475D02*
X-6616692Y1422425D01*
X-6565908Y1447817D02*
X-6540516Y1422425D01*
X-6489733D01*
X-6464341Y1447817D01*
Y1549383D01*
X-6489733Y1574775D01*
X-6540516D01*
X-6565908Y1549383D01*
Y1523992D01*
X-6540516Y1498600D01*
X-6464341D01*
X4025941Y1689125D02*
Y1841475D01*
X4102117D01*
X4127508Y1816083D01*
Y1765300D01*
X4102117Y1739908D01*
X4025941D01*
X4076725D02*
X4127508Y1689125D01*
X4178292Y1816083D02*
X4203684Y1841475D01*
X4254467D01*
X4279859Y1816083D01*
Y1790692D01*
X4254467Y1765300D01*
X4279859Y1739908D01*
Y1714517D01*
X4254467Y1689125D01*
X4203684D01*
X4178292Y1714517D01*
Y1739908D01*
X4203684Y1765300D01*
X4178292Y1790692D01*
Y1816083D01*
X4203684Y1765300D02*
X4254467D01*
X-4394159Y1473225D02*
Y1625575D01*
X-4317983D01*
X-4292592Y1600183D01*
Y1549400D01*
X-4317983Y1524008D01*
X-4394159D01*
X-4343375D02*
X-4292592Y1473225D01*
X-4241808Y1625575D02*
X-4140241D01*
Y1600183D01*
X-4241808Y1498617D01*
Y1473225D01*
X1615440Y1864360D02*
Y2016711D01*
X1691615D01*
X1717007Y1991319D01*
Y1940535D01*
X1691615Y1915143D01*
X1615440D01*
X1666223D02*
X1717007Y1864360D01*
X1869358Y2016711D02*
X1818574Y1991319D01*
X1767791Y1940535D01*
Y1889752D01*
X1793183Y1864360D01*
X1843966D01*
X1869358Y1889752D01*
Y1915143D01*
X1843966Y1940535D01*
X1767791D01*
X-507959Y1435125D02*
Y1587475D01*
X-431783D01*
X-406392Y1562083D01*
Y1511300D01*
X-431783Y1485908D01*
X-507959D01*
X-457175D02*
X-406392Y1435125D01*
X-254041Y1587475D02*
X-355608D01*
Y1511300D01*
X-304825Y1536692D01*
X-279433D01*
X-254041Y1511300D01*
Y1460517D01*
X-279433Y1435125D01*
X-330216D01*
X-355608Y1460517D01*
X-10961259Y1346225D02*
Y1498576D01*
X-10885083D01*
X-10859692Y1473184D01*
Y1422400D01*
X-10885083Y1397008D01*
X-10961259D01*
X-10910475D02*
X-10859692Y1346225D01*
X-10732733D02*
Y1498576D01*
X-10808908Y1422400D01*
X-10707341D01*
X-12636459Y1524025D02*
Y1676375D01*
X-12560283D01*
X-12534892Y1650983D01*
Y1600200D01*
X-12560283Y1574808D01*
X-12636459D01*
X-12585675D02*
X-12534892Y1524025D01*
X-12484108Y1650983D02*
X-12458716Y1676375D01*
X-12407933D01*
X-12382541Y1650983D01*
Y1625592D01*
X-12407933Y1600200D01*
X-12433325D01*
X-12407933D01*
X-12382541Y1574808D01*
Y1549417D01*
X-12407933Y1524025D01*
X-12458716D01*
X-12484108Y1549417D01*
X-8864559Y1371625D02*
Y1523975D01*
X-8788383D01*
X-8762992Y1498583D01*
Y1447800D01*
X-8788383Y1422408D01*
X-8864559D01*
X-8813775D02*
X-8762992Y1371625D01*
X-8610641D02*
X-8712208D01*
X-8610641Y1473192D01*
Y1498583D01*
X-8636033Y1523975D01*
X-8686816D01*
X-8712208Y1498583D01*
X6713220Y2580640D02*
Y2732991D01*
X6789395D01*
X6814787Y2707599D01*
Y2656815D01*
X6789395Y2631423D01*
X6713220D01*
X6764003D02*
X6814787Y2580640D01*
X6865571D02*
X6916354D01*
X6890963D01*
Y2732991D01*
X6865571Y2707599D01*
X5784529Y1612917D02*
Y1714483D01*
X5759137Y1739875D01*
X5708354D01*
X5682962Y1714483D01*
Y1612917D01*
X5708354Y1587525D01*
X5759137D01*
X5733745Y1638308D02*
X5784529Y1587525D01*
X5759137D02*
X5784529Y1612917D01*
X5835312Y1587525D02*
X5886096D01*
X5860704D01*
Y1739875D01*
X5835312Y1714483D01*
X5962271D02*
X5987663Y1739875D01*
X6038447D01*
X6063839Y1714483D01*
Y1612917D01*
X6038447Y1587525D01*
X5987663D01*
X5962271Y1612917D01*
Y1714483D01*
X2590808Y1612917D02*
Y1714483D01*
X2565417Y1739875D01*
X2514633D01*
X2489241Y1714483D01*
Y1612917D01*
X2514633Y1587525D01*
X2565417D01*
X2540025Y1638308D02*
X2590808Y1587525D01*
X2565417D02*
X2590808Y1612917D01*
X2641592D02*
X2666984Y1587525D01*
X2717767D01*
X2743159Y1612917D01*
Y1714483D01*
X2717767Y1739875D01*
X2666984D01*
X2641592Y1714483D01*
Y1689092D01*
X2666984Y1663700D01*
X2743159D01*
X952508Y1193817D02*
Y1295383D01*
X927117Y1320775D01*
X876333D01*
X850941Y1295383D01*
Y1193817D01*
X876333Y1168425D01*
X927117D01*
X901725Y1219208D02*
X952508Y1168425D01*
X927117D02*
X952508Y1193817D01*
X1003292Y1295383D02*
X1028684Y1320775D01*
X1079467D01*
X1104859Y1295383D01*
Y1269992D01*
X1079467Y1244600D01*
X1104859Y1219208D01*
Y1193817D01*
X1079467Y1168425D01*
X1028684D01*
X1003292Y1193817D01*
Y1219208D01*
X1028684Y1244600D01*
X1003292Y1269992D01*
Y1295383D01*
X1028684Y1244600D02*
X1079467D01*
X-1739892Y1778017D02*
Y1879583D01*
X-1765283Y1904975D01*
X-1816067D01*
X-1841459Y1879583D01*
Y1778017D01*
X-1816067Y1752625D01*
X-1765283D01*
X-1790675Y1803408D02*
X-1739892Y1752625D01*
X-1765283D02*
X-1739892Y1778017D01*
X-1689108Y1904975D02*
X-1587541D01*
Y1879583D01*
X-1689108Y1778017D01*
Y1752625D01*
X-3860792Y1701817D02*
Y1803383D01*
X-3886183Y1828775D01*
X-3936967D01*
X-3962359Y1803383D01*
Y1701817D01*
X-3936967Y1676425D01*
X-3886183D01*
X-3911575Y1727208D02*
X-3860792Y1676425D01*
X-3886183D02*
X-3860792Y1701817D01*
X-3708441Y1828775D02*
X-3759225Y1803383D01*
X-3810008Y1752600D01*
Y1701817D01*
X-3784616Y1676425D01*
X-3733833D01*
X-3708441Y1701817D01*
Y1727208D01*
X-3733833Y1752600D01*
X-3810008D01*
X-5880092Y1714517D02*
Y1816083D01*
X-5905483Y1841475D01*
X-5956267D01*
X-5981659Y1816083D01*
Y1714517D01*
X-5956267Y1689125D01*
X-5905483D01*
X-5930875Y1739908D02*
X-5880092Y1689125D01*
X-5905483D02*
X-5880092Y1714517D01*
X-5727741Y1841475D02*
X-5829308D01*
Y1765300D01*
X-5778525Y1790692D01*
X-5753133D01*
X-5727741Y1765300D01*
Y1714517D01*
X-5753133Y1689125D01*
X-5803916D01*
X-5829308Y1714517D01*
X-8033092Y1676417D02*
Y1777983D01*
X-8058484Y1803375D01*
X-8109267D01*
X-8134659Y1777983D01*
Y1676417D01*
X-8109267Y1651025D01*
X-8058484D01*
X-8083875Y1701808D02*
X-8033092Y1651025D01*
X-8058484D02*
X-8033092Y1676417D01*
X-7906133Y1651025D02*
Y1803375D01*
X-7982308Y1727200D01*
X-7880741D01*
X-10121892Y1689117D02*
Y1790683D01*
X-10147283Y1816075D01*
X-10198067D01*
X-10223459Y1790683D01*
Y1689117D01*
X-10198067Y1663725D01*
X-10147283D01*
X-10172675Y1714508D02*
X-10121892Y1663725D01*
X-10147283D02*
X-10121892Y1689117D01*
X-10071108Y1790683D02*
X-10045716Y1816075D01*
X-9994933D01*
X-9969541Y1790683D01*
Y1765292D01*
X-9994933Y1739900D01*
X-10020325D01*
X-9994933D01*
X-9969541Y1714508D01*
Y1689117D01*
X-9994933Y1663725D01*
X-10045716D01*
X-10071108Y1689117D01*
X-12103092Y1726242D02*
Y1827809D01*
X-12128483Y1853201D01*
X-12179267D01*
X-12204659Y1827809D01*
Y1726242D01*
X-12179267Y1700850D01*
X-12128483D01*
X-12153875Y1751633D02*
X-12103092Y1700850D01*
X-12128483D02*
X-12103092Y1726242D01*
X-11950741Y1700850D02*
X-12052308D01*
X-11950741Y1802417D01*
Y1827809D01*
X-11976133Y1853201D01*
X-12026916D01*
X-12052308Y1827809D01*
X-14173199Y1727217D02*
Y1828783D01*
X-14198592Y1854175D01*
X-14249374D01*
X-14274767Y1828783D01*
Y1727217D01*
X-14249374Y1701825D01*
X-14198592D01*
X-14223982Y1752608D02*
X-14173199Y1701825D01*
X-14198592D02*
X-14173199Y1727217D01*
X-14122417Y1701825D02*
X-14071632D01*
X-14097025D01*
Y1854175D01*
X-14122417Y1828783D01*
X-2072673Y-6499909D02*
X-2123457D01*
X-2098065D01*
Y-6626868D01*
X-2123457Y-6652260D01*
X-2148848D01*
X-2174240Y-6626868D01*
X-11379216Y-1358925D02*
X-11430000D01*
X-11404608D01*
Y-1485883D01*
X-11430000Y-1511275D01*
X-11455392D01*
X-11480783Y-1485883D01*
X-2047273Y-2448609D02*
X-2098057D01*
X-2072665D01*
Y-2575568D01*
X-2098057Y-2600960D01*
X-2123448D01*
X-2148840Y-2575568D01*
X-15176500Y-2476525D02*
X-15227283D01*
X-15201892D01*
Y-2603483D01*
X-15227283Y-2628875D01*
X-15252675D01*
X-15278067Y-2603483D01*
X-15125716Y-2628875D02*
X-15074933D01*
X-15100323D01*
Y-2476525D01*
X-15125716Y-2501917D01*
X6007166Y3238475D02*
Y3086125D01*
X6083341D01*
X6108733Y3111517D01*
Y3213083D01*
X6083341Y3238475D01*
X6007166D01*
X6261084Y3086125D02*
X6159517D01*
X6261084Y3187692D01*
Y3213083D01*
X6235692Y3238475D01*
X6184908D01*
X6159517Y3213083D01*
X6311867Y3238475D02*
X6413434D01*
Y3213083D01*
X6311867Y3111517D01*
Y3086125D01*
X3779520Y3136851D02*
Y2984500D01*
X3855695D01*
X3881087Y3009892D01*
Y3111459D01*
X3855695Y3136851D01*
X3779520D01*
X4033438Y2984500D02*
X3931871D01*
X4033438Y3086067D01*
Y3111459D01*
X4008046Y3136851D01*
X3957263D01*
X3931871Y3111459D01*
X4185789Y3136851D02*
X4135005Y3111459D01*
X4084221Y3060675D01*
Y3009892D01*
X4109613Y2984500D01*
X4160397D01*
X4185789Y3009892D01*
Y3035283D01*
X4160397Y3060675D01*
X4084221D01*
X1727266Y3213075D02*
Y3060725D01*
X1803441D01*
X1828833Y3086117D01*
Y3187683D01*
X1803441Y3213075D01*
X1727266D01*
X1981184Y3060725D02*
X1879617D01*
X1981184Y3162292D01*
Y3187683D01*
X1955792Y3213075D01*
X1905008D01*
X1879617Y3187683D01*
X2133534Y3213075D02*
X2031967D01*
Y3136900D01*
X2082751Y3162292D01*
X2108143D01*
X2133534Y3136900D01*
Y3086117D01*
X2108143Y3060725D01*
X2057359D01*
X2031967Y3086117D01*
X-2525194Y-2184425D02*
Y-2336775D01*
X-2449019D01*
X-2423627Y-2311383D01*
Y-2209817D01*
X-2449019Y-2184425D01*
X-2525194D01*
X-2271276Y-2336775D02*
X-2372843D01*
X-2271276Y-2235208D01*
Y-2209817D01*
X-2296668Y-2184425D01*
X-2347451D01*
X-2372843Y-2209817D01*
X-2144317Y-2336775D02*
Y-2184425D01*
X-2220493Y-2260600D01*
X-2118925D01*
X-2463734Y-3771925D02*
Y-3924275D01*
X-2387559D01*
X-2362167Y-3898883D01*
Y-3797317D01*
X-2387559Y-3771925D01*
X-2463734D01*
X-2209816Y-3924275D02*
X-2311383D01*
X-2209816Y-3822708D01*
Y-3797317D01*
X-2235208Y-3771925D01*
X-2285992D01*
X-2311383Y-3797317D01*
X-2159033D02*
X-2133641Y-3771925D01*
X-2082857D01*
X-2057466Y-3797317D01*
Y-3822708D01*
X-2082857Y-3848100D01*
X-2108249D01*
X-2082857D01*
X-2057466Y-3873492D01*
Y-3898883D01*
X-2082857Y-3924275D01*
X-2133641D01*
X-2159033Y-3898883D01*
X-317434Y3136875D02*
Y2984525D01*
X-241259D01*
X-215867Y3009917D01*
Y3111483D01*
X-241259Y3136875D01*
X-317434D01*
X-63516Y2984525D02*
X-165083D01*
X-63516Y3086092D01*
Y3111483D01*
X-88908Y3136875D01*
X-139692D01*
X-165083Y3111483D01*
X88834Y2984525D02*
X-12733D01*
X88834Y3086092D01*
Y3111483D01*
X63443Y3136875D01*
X12659D01*
X-12733Y3111483D01*
X-2360102Y-6184925D02*
Y-6337275D01*
X-2283927D01*
X-2258535Y-6311883D01*
Y-6210317D01*
X-2283927Y-6184925D01*
X-2360102D01*
X-2106184Y-6337275D02*
X-2207751D01*
X-2106184Y-6235708D01*
Y-6210317D01*
X-2131576Y-6184925D01*
X-2182360D01*
X-2207751Y-6210317D01*
X-2055401Y-6337275D02*
X-2004617D01*
X-2030009D01*
Y-6184925D01*
X-2055401Y-6210317D01*
X-10452076Y-624275D02*
X-10299725D01*
Y-548099D01*
X-10325117Y-522707D01*
X-10426684D01*
X-10452076Y-548099D01*
Y-624275D01*
X-10299725Y-370357D02*
Y-471924D01*
X-10401292Y-370357D01*
X-10426684D01*
X-10452076Y-395749D01*
Y-446532D01*
X-10426684Y-471924D01*
Y-319573D02*
X-10452076Y-294181D01*
Y-243398D01*
X-10426684Y-218006D01*
X-10325117D01*
X-10299725Y-243398D01*
Y-294181D01*
X-10325117Y-319573D01*
X-10426684D01*
X-2499360Y3162251D02*
Y3009900D01*
X-2423185D01*
X-2397793Y3035292D01*
Y3136859D01*
X-2423185Y3162251D01*
X-2499360D01*
X-2347009Y3009900D02*
X-2296226D01*
X-2321617D01*
Y3162251D01*
X-2347009Y3136859D01*
X-2220050Y3035292D02*
X-2194659Y3009900D01*
X-2143875D01*
X-2118483Y3035292D01*
Y3136859D01*
X-2143875Y3162251D01*
X-2194659D01*
X-2220050Y3136859D01*
Y3111467D01*
X-2194659Y3086075D01*
X-2118483D01*
X-4683760Y3162251D02*
Y3009900D01*
X-4607585D01*
X-4582193Y3035292D01*
Y3136859D01*
X-4607585Y3162251D01*
X-4683760D01*
X-4531409Y3009900D02*
X-4480626D01*
X-4506017D01*
Y3162251D01*
X-4531409Y3136859D01*
X-4404450Y3162251D02*
X-4302883D01*
Y3136859D01*
X-4404450Y3035292D01*
Y3009900D01*
X-5892825Y-5260662D02*
X-6045175D01*
Y-5336837D01*
X-6019783Y-5362229D01*
X-5918217D01*
X-5892825Y-5336837D01*
Y-5260662D01*
X-6045175Y-5413012D02*
Y-5463796D01*
Y-5438404D01*
X-5892825D01*
X-5918217Y-5413012D01*
X-5892825Y-5641538D02*
X-5918217Y-5590755D01*
X-5969000Y-5539971D01*
X-6019783D01*
X-6045175Y-5565363D01*
Y-5616147D01*
X-6019783Y-5641538D01*
X-5994392D01*
X-5969000Y-5616147D01*
Y-5539971D01*
X-6654800Y3124151D02*
Y2971800D01*
X-6578625D01*
X-6553233Y2997192D01*
Y3098759D01*
X-6578625Y3124151D01*
X-6654800D01*
X-6502449Y2971800D02*
X-6451666D01*
X-6477057D01*
Y3124151D01*
X-6502449Y3098759D01*
X-6273923Y3124151D02*
X-6375490D01*
Y3047975D01*
X-6324707Y3073367D01*
X-6299315D01*
X-6273923Y3047975D01*
Y2997192D01*
X-6299315Y2971800D01*
X-6350099D01*
X-6375490Y2997192D01*
X-8849360Y3098751D02*
Y2946400D01*
X-8773185D01*
X-8747793Y2971792D01*
Y3073359D01*
X-8773185Y3098751D01*
X-8849360D01*
X-8697009Y2946400D02*
X-8646226D01*
X-8671617D01*
Y3098751D01*
X-8697009Y3073359D01*
X-8493875Y2946400D02*
Y3098751D01*
X-8570050Y3022575D01*
X-8468483D01*
X-10855960Y3098751D02*
Y2946400D01*
X-10779785D01*
X-10754393Y2971792D01*
Y3073359D01*
X-10779785Y3098751D01*
X-10855960D01*
X-10703609Y2946400D02*
X-10652826D01*
X-10678217D01*
Y3098751D01*
X-10703609Y3073359D01*
X-10576650D02*
X-10551259Y3098751D01*
X-10500475D01*
X-10475083Y3073359D01*
Y3047967D01*
X-10500475Y3022575D01*
X-10525867D01*
X-10500475D01*
X-10475083Y2997183D01*
Y2971792D01*
X-10500475Y2946400D01*
X-10551259D01*
X-10576650Y2971792D01*
X4914900Y1369011D02*
Y1216660D01*
X4991075D01*
X5016467Y1242052D01*
Y1343619D01*
X4991075Y1369011D01*
X4914900D01*
X5067251Y1216660D02*
X5118034D01*
X5092643D01*
Y1369011D01*
X5067251Y1343619D01*
X5295777Y1216660D02*
X5194210D01*
X5295777Y1318227D01*
Y1343619D01*
X5270385Y1369011D01*
X5219601D01*
X5194210Y1343619D01*
X-13027660Y3111451D02*
Y2959100D01*
X-12951485D01*
X-12926093Y2984492D01*
Y3086059D01*
X-12951485Y3111451D01*
X-13027660D01*
X-12875310Y2959100D02*
X-12824525D01*
X-12849918D01*
Y3111451D01*
X-12875310Y3086059D01*
X-12748350Y2959100D02*
X-12697567D01*
X-12722959D01*
Y3111451D01*
X-12748350Y3086059D01*
X6286562Y2171675D02*
Y2019325D01*
X6362737D01*
X6388129Y2044717D01*
Y2146283D01*
X6362737Y2171675D01*
X6286562D01*
X6438912Y2019325D02*
X6489696D01*
X6464304D01*
Y2171675D01*
X6438912Y2146283D01*
X6565871D02*
X6591263Y2171675D01*
X6642047D01*
X6667439Y2146283D01*
Y2044717D01*
X6642047Y2019325D01*
X6591263D01*
X6565871Y2044717D01*
Y2146283D01*
X3683041Y2489175D02*
Y2336825D01*
X3759217D01*
X3784608Y2362217D01*
Y2463783D01*
X3759217Y2489175D01*
X3683041D01*
X3835392Y2362217D02*
X3860784Y2336825D01*
X3911567D01*
X3936959Y2362217D01*
Y2463783D01*
X3911567Y2489175D01*
X3860784D01*
X3835392Y2463783D01*
Y2438392D01*
X3860784Y2413000D01*
X3936959D01*
X-6654800Y2512011D02*
Y2359660D01*
X-6578625D01*
X-6553233Y2385052D01*
Y2486619D01*
X-6578625Y2512011D01*
X-6654800D01*
X-6502449Y2486619D02*
X-6477057Y2512011D01*
X-6426274D01*
X-6400882Y2486619D01*
Y2461227D01*
X-6426274Y2435835D01*
X-6400882Y2410443D01*
Y2385052D01*
X-6426274Y2359660D01*
X-6477057D01*
X-6502449Y2385052D01*
Y2410443D01*
X-6477057Y2435835D01*
X-6502449Y2461227D01*
Y2486619D01*
X-6477057Y2435835D02*
X-6426274D01*
X-4686300Y2537411D02*
Y2385060D01*
X-4610125D01*
X-4584733Y2410452D01*
Y2512019D01*
X-4610125Y2537411D01*
X-4686300D01*
X-4533949D02*
X-4432382D01*
Y2512019D01*
X-4533949Y2410452D01*
Y2385060D01*
X-2463800Y2537411D02*
Y2385060D01*
X-2387625D01*
X-2362233Y2410452D01*
Y2512019D01*
X-2387625Y2537411D01*
X-2463800D01*
X-2209882D02*
X-2260666Y2512019D01*
X-2311449Y2461235D01*
Y2410452D01*
X-2286057Y2385060D01*
X-2235274D01*
X-2209882Y2410452D01*
Y2435843D01*
X-2235274Y2461235D01*
X-2311449D01*
X1638300Y2600911D02*
Y2448560D01*
X1714475D01*
X1739867Y2473952D01*
Y2575519D01*
X1714475Y2600911D01*
X1638300D01*
X1892218D02*
X1790651D01*
Y2524735D01*
X1841434Y2550127D01*
X1866826D01*
X1892218Y2524735D01*
Y2473952D01*
X1866826Y2448560D01*
X1816043D01*
X1790651Y2473952D01*
X-10858500Y2486611D02*
Y2334260D01*
X-10782325D01*
X-10756933Y2359652D01*
Y2461219D01*
X-10782325Y2486611D01*
X-10858500D01*
X-10629974Y2334260D02*
Y2486611D01*
X-10706149Y2410435D01*
X-10604582D01*
X-508000Y2562811D02*
Y2410460D01*
X-431825D01*
X-406433Y2435852D01*
Y2537419D01*
X-431825Y2562811D01*
X-508000D01*
X-355649Y2537419D02*
X-330257Y2562811D01*
X-279474D01*
X-254082Y2537419D01*
Y2512027D01*
X-279474Y2486635D01*
X-304866D01*
X-279474D01*
X-254082Y2461243D01*
Y2435852D01*
X-279474Y2410460D01*
X-330257D01*
X-355649Y2435852D01*
X-13004800Y2473911D02*
Y2321560D01*
X-12928625D01*
X-12903233Y2346952D01*
Y2448519D01*
X-12928625Y2473911D01*
X-13004800D01*
X-12750882Y2321560D02*
X-12852449D01*
X-12750882Y2423127D01*
Y2448519D01*
X-12776274Y2473911D01*
X-12827057D01*
X-12852449Y2448519D01*
X-8851900Y2461211D02*
Y2308860D01*
X-8775725D01*
X-8750333Y2334252D01*
Y2435819D01*
X-8775725Y2461211D01*
X-8851900D01*
X-8699549Y2308860D02*
X-8648766D01*
X-8674157D01*
Y2461211D01*
X-8699549Y2435819D01*
X-5270483Y-6477017D02*
X-5168916Y-6578583D01*
X-5270483D02*
X-5168916Y-6477017D01*
X-5270483Y-6527800D02*
X-5168916D01*
X-5219700Y-6578583D02*
Y-6477017D01*
D81*
X-12459500Y519781D02*
Y319845D01*
Y419813D01*
X-12326210D01*
Y519781D01*
Y319845D01*
X-12259565D02*
Y353167D01*
X-12226242D01*
Y319845D01*
X-12259565D01*
X-12092952D02*
Y519781D01*
X-12026307Y453135D01*
X-11959661Y519781D01*
Y319845D01*
X-11893016D02*
Y353167D01*
X-11859694D01*
Y319845D01*
X-11893016D01*
X-11726403D02*
Y519781D01*
X-11626435D01*
X-11593113Y486458D01*
Y419813D01*
X-11626435Y386490D01*
X-11726403D01*
X-11659758D02*
X-11593113Y319845D01*
X-11326532Y519781D02*
Y319845D01*
X-11226564D01*
X-11193242Y353167D01*
Y486458D01*
X-11226564Y519781D01*
X-11326532D01*
X-11026629Y319845D02*
X-11093274D01*
X-11126596Y353167D01*
Y419813D01*
X-11093274Y453135D01*
X-11026629D01*
X-10993306Y419813D01*
Y386490D01*
X-11126596D01*
X-10926661Y319845D02*
X-10826693D01*
X-10793371Y353167D01*
X-10826693Y386490D01*
X-10893338D01*
X-10926661Y419813D01*
X-10893338Y453135D01*
X-10793371D01*
X-10726725Y319845D02*
X-10660080D01*
X-10693403D01*
Y453135D01*
X-10726725D01*
X-10493467Y253200D02*
X-10460145D01*
X-10426822Y286522D01*
Y453135D01*
X-10526790D01*
X-10560112Y419813D01*
Y353167D01*
X-10526790Y319845D01*
X-10426822D01*
X-10360177D02*
Y453135D01*
X-10260209D01*
X-10226887Y419813D01*
Y319845D01*
X-10160241D02*
X-10060274D01*
X-10026951Y353167D01*
X-10060274Y386490D01*
X-10126919D01*
X-10160241Y419813D01*
X-10126919Y453135D01*
X-10026951D01*
D82*
X2908400Y2146300D02*
D03*
X825600D02*
D03*
X-13753999D02*
D03*
X-11671199Y2146299D02*
D03*
X-1257200Y2146300D02*
D03*
X-3340000D02*
D03*
X-5422800D02*
D03*
X-7505600D02*
D03*
X-9588400D02*
D03*
X4991200D02*
D03*
%TF.MD5,d7c14b34af692138faa0f0f7cb8d7d84*%
M02*
