%TF.GenerationSoftware,Altium Limited,Altium Designer,22.1.2 (22)*%
G04 Layer_Physical_Order=1*
G04 Layer_Color=255*
%FSLAX45Y45*%
%MOMM*%
%TF.SameCoordinates,97720CCC-B93B-4F85-99AC-C394CD96EF65*%
%TF.FilePolarity,Positive*%
%TF.FileFunction,Copper,L1,Top,Signal*%
%TF.Part,Single*%
G01*
G75*
%TA.AperFunction,Conductor*%
%ADD10C,0.25400*%
%TA.AperFunction,SMDPad,CuDef*%
%ADD11R,2.00000X2.00000*%
%ADD12R,1.50000X1.50000*%
%ADD13R,2.60000X1.20000*%
%ADD14R,0.90000X0.70000*%
%ADD15R,0.70000X0.90000*%
%ADD16R,1.50000X1.50000*%
%ADD17R,2.30000X2.30000*%
%ADD18R,2.60000X1.10000*%
%TA.AperFunction,Conductor*%
%ADD19C,1.00000*%
%ADD20C,0.38100*%
%ADD21C,4.00000*%
%TA.AperFunction,ComponentPad*%
%ADD22C,1.98000*%
%ADD23C,1.93500*%
%ADD24R,1.98000X1.98000*%
%ADD25C,1.49800*%
%ADD26R,1.49800X1.49800*%
%ADD27C,8.00000*%
%ADD28C,1.40000*%
%ADD29R,1.50000X1.50000*%
%ADD30C,1.50000*%
%ADD31R,1.53000X1.53000*%
%ADD32C,1.53000*%
%ADD33R,1.50000X1.50000*%
%ADD34R,2.04000X2.04000*%
%ADD35C,2.04000*%
%ADD36R,1.65000X1.65000*%
%ADD37C,1.65000*%
%ADD38C,1.30800*%
%ADD39R,1.30800X1.30800*%
%ADD40R,1.65000X1.65000*%
%ADD41C,6.00000*%
%ADD42R,6.00000X6.00000*%
%ADD43R,1.40000X1.40000*%
%ADD44R,6.00000X6.00000*%
%ADD45R,1.56000X1.56000*%
%ADD46C,1.56000*%
%ADD47R,1.30800X1.30800*%
%TA.AperFunction,ViaPad*%
%ADD48C,1.27000*%
G36*
X-3556457Y2246700D02*
X-3630400D01*
Y2114213D01*
X-3642133Y2109353D01*
X-3733949Y2201169D01*
Y2209800D01*
X-3736541Y2229483D01*
X-3739600Y2236869D01*
Y2258700D01*
X-3740613D01*
X-3740791Y2258751D01*
X-3742174Y2260819D01*
X-3736006Y2274441D01*
X-3732970Y2274841D01*
X-3714628Y2282438D01*
X-3698878Y2294524D01*
X-3662381Y2331021D01*
X-3556457D01*
Y2246700D01*
D02*
G37*
G36*
X622449D02*
X535200D01*
Y2114213D01*
X523467Y2109353D01*
X482451Y2150369D01*
Y2197100D01*
X479859Y2216783D01*
X476800Y2224169D01*
Y2258700D01*
X449980D01*
X444425Y2262962D01*
X437509Y2265827D01*
Y2279573D01*
X444426Y2282438D01*
X451544Y2287900D01*
X476800D01*
Y2311148D01*
X502602Y2336949D01*
X622449D01*
Y2246700D01*
D02*
G37*
G36*
X4800749Y2253401D02*
X4794048Y2246700D01*
X4700800D01*
Y2114213D01*
X4689067Y2109353D01*
X4646233Y2152187D01*
X4642400Y2163300D01*
X4642400D01*
Y2284100D01*
X4607597D01*
X4600656Y2290609D01*
X4602397Y2304678D01*
X4610026Y2307838D01*
X4617144Y2313300D01*
X4642400D01*
Y2336548D01*
X4646401Y2340549D01*
X4800749D01*
Y2253401D01*
D02*
G37*
G36*
X2743349Y2317999D02*
Y2278801D01*
X2711248Y2246700D01*
X2618000D01*
Y2114213D01*
X2606267Y2109353D01*
X2546900Y2168720D01*
Y2284100D01*
X2512097D01*
X2505156Y2290609D01*
X2506897Y2304678D01*
X2514526Y2307838D01*
X2521644Y2313300D01*
X2546900D01*
Y2324249D01*
X2737099D01*
X2743349Y2317999D01*
D02*
G37*
G36*
X-13957684Y2336340D02*
X-13957150Y2336032D01*
Y2246700D01*
X-14044400D01*
Y2114213D01*
X-14056133Y2109353D01*
X-14122549Y2175769D01*
Y2235200D01*
X-14125140Y2254883D01*
X-14132738Y2273225D01*
X-14140900Y2283862D01*
Y2284100D01*
X-14141083D01*
X-14144824Y2288976D01*
X-14159973Y2300600D01*
X-14160069Y2301899D01*
X-14155138Y2313300D01*
X-14140900D01*
Y2336548D01*
X-14136899Y2340549D01*
X-13961893D01*
X-13957684Y2336340D01*
D02*
G37*
G36*
X7149603Y1460500D02*
X5910731D01*
X5905870Y1472233D01*
X6007691Y1574053D01*
X6334300D01*
Y1532500D01*
X6645100D01*
Y1693300D01*
X6334300D01*
Y1651747D01*
X5991600D01*
X5976734Y1648789D01*
X5964131Y1640369D01*
X5784263Y1460500D01*
X5067798D01*
Y1502249D01*
X5067300Y1504751D01*
Y1507302D01*
X5066877Y1509429D01*
X5065901Y1511786D01*
X5065826Y1512160D01*
X5065614Y1512477D01*
X5063010Y1518765D01*
X5055865Y1525910D01*
X5049578Y1528514D01*
X5049260Y1528726D01*
X5048886Y1528801D01*
X5046529Y1529777D01*
X5044402Y1530200D01*
X5042400D01*
Y1640655D01*
X5054133Y1645515D01*
X5111600Y1588048D01*
Y1587640D01*
X5118102Y1563377D01*
X5130661Y1541623D01*
X5148423Y1523861D01*
X5170177Y1511302D01*
X5194440Y1504800D01*
X5219560D01*
X5243823Y1511302D01*
X5265577Y1523861D01*
X5283339Y1541623D01*
X5295898Y1563377D01*
X5302400Y1587640D01*
Y1612760D01*
X5295898Y1637023D01*
X5283339Y1658777D01*
X5265577Y1676539D01*
X5243823Y1689098D01*
X5219560Y1695600D01*
X5219152D01*
X4991265Y1923487D01*
X4975515Y1935573D01*
X4957173Y1943170D01*
X4937489Y1945761D01*
X4852658D01*
X4764253Y2034167D01*
X4769113Y2045900D01*
X4901600D01*
Y2139148D01*
X4930576Y2168124D01*
X4942662Y2183875D01*
X4950259Y2202217D01*
X4952851Y2221900D01*
Y2360716D01*
X4962763Y2377886D01*
X4969599Y2403395D01*
Y2429805D01*
X4962763Y2455314D01*
X4949559Y2478186D01*
X4930884Y2496860D01*
X4908013Y2510065D01*
X4882503Y2516900D01*
X4856094D01*
X4830584Y2510065D01*
X4807713Y2496860D01*
X4803504Y2492651D01*
X4614900D01*
X4595217Y2490059D01*
X4576875Y2482462D01*
X4561124Y2470376D01*
X4524848Y2434100D01*
X4501600D01*
Y2400769D01*
X4498541Y2393383D01*
X4495950Y2373700D01*
X4498541Y2354017D01*
X4501600Y2346630D01*
Y2313300D01*
X4526857D01*
X4533975Y2307838D01*
X4534541Y2307603D01*
X4534541Y2293857D01*
X4521275Y2288362D01*
X4515720Y2284100D01*
X4501600D01*
Y2271162D01*
X4493438Y2260525D01*
X4485841Y2242183D01*
X4483249Y2222500D01*
Y2131568D01*
X4485841Y2111885D01*
X4493438Y2093543D01*
X4505524Y2077792D01*
X4767381Y1815935D01*
X4783132Y1803849D01*
X4801474Y1796251D01*
X4821157Y1793660D01*
X4905988D01*
X4992315Y1707333D01*
X4987455Y1695600D01*
X4876030D01*
X4876024Y1695614D01*
X4875526Y1698115D01*
X4874110Y1700236D01*
X4873133Y1702592D01*
X4872835Y1703039D01*
X4872834Y1703040D01*
X4871030Y1704844D01*
X4869913Y1706517D01*
X4868240Y1707634D01*
X4865689Y1710185D01*
X4862356Y1711566D01*
X4861511Y1712131D01*
X4860514Y1712329D01*
X4859172Y1712885D01*
X4858960Y1713026D01*
X4858710Y1713076D01*
X4856354Y1714052D01*
X4854102Y1714500D01*
X4851551D01*
X4849050Y1714998D01*
X4790451D01*
X4787949Y1714500D01*
X4785399D01*
X4783271Y1714077D01*
X4780914Y1713101D01*
X4780540Y1713026D01*
X4780223Y1712814D01*
X4773935Y1710210D01*
X4766790Y1703065D01*
X4764186Y1696778D01*
X4763974Y1696460D01*
X4763899Y1696086D01*
X4762923Y1693729D01*
X4762500Y1691602D01*
Y1689051D01*
X4762002Y1686550D01*
Y1460500D01*
X3486189D01*
X3484517Y1473200D01*
X3484523Y1473202D01*
X3506277Y1485761D01*
X3524039Y1503523D01*
X3536598Y1525277D01*
X3543100Y1549540D01*
Y1549948D01*
X3700967Y1707815D01*
X3712700Y1702955D01*
Y1694900D01*
X3760399D01*
Y1765299D01*
Y1835700D01*
X3738750D01*
Y1860299D01*
X3911652Y2033200D01*
X4004900D01*
Y2234000D01*
X3987700D01*
Y2602800D01*
X4059200D01*
Y2883600D01*
X3994851D01*
Y3157800D01*
X3992259Y3177484D01*
X3987809Y3188228D01*
X3984662Y3195825D01*
X3972576Y3211576D01*
X3658001Y3526151D01*
X3658100Y3526522D01*
Y3559278D01*
X3649622Y3590917D01*
X3633245Y3619283D01*
X3610083Y3642445D01*
X3581717Y3658822D01*
X3550078Y3667300D01*
X3517322D01*
X3485683Y3658822D01*
X3457317Y3642445D01*
X3434155Y3619283D01*
X3417778Y3590917D01*
X3409300Y3559278D01*
Y3526522D01*
X3417778Y3494883D01*
X3434155Y3466517D01*
X3457317Y3443355D01*
X3485683Y3426978D01*
X3517322Y3418500D01*
X3550078D01*
X3550449Y3418599D01*
X3842749Y3126299D01*
Y2883600D01*
X3778400D01*
Y2602800D01*
X3835599D01*
Y2234000D01*
X3804100D01*
Y2140752D01*
X3608924Y1945575D01*
X3596838Y1929825D01*
X3589240Y1911483D01*
X3586649Y1891800D01*
Y1808601D01*
X3435548Y1657500D01*
X3435140D01*
X3410877Y1650998D01*
X3389123Y1638439D01*
X3371361Y1620677D01*
X3358802Y1598923D01*
X3352300Y1574660D01*
Y1549540D01*
X3358802Y1525277D01*
X3371361Y1503523D01*
X3389123Y1485761D01*
X3410877Y1473202D01*
X3410883Y1473200D01*
X3409211Y1460500D01*
X3310507D01*
X3305647Y1472233D01*
X3323269Y1489855D01*
X3331690Y1502458D01*
X3334647Y1517324D01*
Y1997609D01*
X3389751Y2052714D01*
X3415182Y2045900D01*
X3441618D01*
X3467153Y2052742D01*
X3490047Y2065960D01*
X3508740Y2084653D01*
X3521958Y2107547D01*
X3528800Y2133082D01*
Y2159518D01*
X3521958Y2185053D01*
X3508740Y2207947D01*
X3490047Y2226640D01*
X3467153Y2239858D01*
X3441618Y2246700D01*
X3415182D01*
X3389647Y2239858D01*
X3366753Y2226640D01*
X3348060Y2207947D01*
X3334842Y2185053D01*
X3328000Y2159518D01*
Y2133082D01*
X3334814Y2107651D01*
X3268332Y2041169D01*
X3259911Y2028566D01*
X3256954Y2013700D01*
Y1643799D01*
X3244254Y1639607D01*
X3224523Y1650998D01*
X3200260Y1657500D01*
X3199852D01*
X2946565Y1910787D01*
X2930815Y1922873D01*
X2912473Y1930470D01*
X2892789Y1933061D01*
X2782558D01*
X2681453Y2034167D01*
X2686313Y2045900D01*
X2818800D01*
Y2139148D01*
X2873176Y2193524D01*
X2885262Y2209275D01*
X2888409Y2216872D01*
X2892859Y2227617D01*
X2895451Y2247300D01*
Y2349500D01*
X2892859Y2369183D01*
X2888409Y2379928D01*
X2885262Y2387525D01*
X2881586Y2392316D01*
X2884555Y2403395D01*
Y2429805D01*
X2877719Y2455314D01*
X2864514Y2478186D01*
X2845840Y2496860D01*
X2822969Y2510065D01*
X2797459Y2516900D01*
X2771050D01*
X2745540Y2510065D01*
X2722669Y2496860D01*
X2703995Y2478186D01*
X2702935Y2476351D01*
X2503100D01*
X2483417Y2473759D01*
X2465075Y2466162D01*
X2449325Y2454076D01*
X2429348Y2434100D01*
X2406100D01*
Y2400769D01*
X2403041Y2393383D01*
X2400450Y2373700D01*
X2403041Y2354017D01*
X2406100Y2346630D01*
Y2313300D01*
X2431357D01*
X2438475Y2307838D01*
X2439041Y2307603D01*
X2439041Y2293857D01*
X2425775Y2288362D01*
X2420220Y2284100D01*
X2406100D01*
Y2271162D01*
X2397938Y2260525D01*
X2390341Y2242183D01*
X2387749Y2222500D01*
Y2144268D01*
X2390341Y2124585D01*
X2397938Y2106243D01*
X2410024Y2090492D01*
X2697281Y1803235D01*
X2713032Y1791149D01*
X2720629Y1788002D01*
X2731374Y1783551D01*
X2751057Y1780960D01*
X2861288D01*
X2973015Y1669233D01*
X2968155Y1657500D01*
X2832300D01*
Y1466700D01*
X2822168Y1460500D01*
X1276389D01*
X1274717Y1473200D01*
X1274723Y1473202D01*
X1296477Y1485761D01*
X1314239Y1503523D01*
X1326798Y1525277D01*
X1333300Y1549540D01*
Y1549948D01*
X1567367Y1784015D01*
X1579100Y1779155D01*
Y1739899D01*
X1626799D01*
Y1797600D01*
X1597545D01*
X1592685Y1809333D01*
X1796876Y2013524D01*
X1808962Y2029275D01*
X1816559Y2047616D01*
X1819151Y2067300D01*
Y2147500D01*
X1868500D01*
Y2348300D01*
X1850901D01*
Y2691700D01*
X1922000D01*
Y2972500D01*
X1857651D01*
Y3263000D01*
X1855059Y3282684D01*
X1850609Y3293428D01*
X1847462Y3301025D01*
X1835376Y3316776D01*
X1626001Y3526151D01*
X1626100Y3526522D01*
Y3559278D01*
X1617622Y3590917D01*
X1601245Y3619283D01*
X1578083Y3642445D01*
X1549717Y3658822D01*
X1518078Y3667300D01*
X1485322D01*
X1453683Y3658822D01*
X1425317Y3642445D01*
X1402155Y3619283D01*
X1385778Y3590917D01*
X1377300Y3559278D01*
Y3526522D01*
X1385778Y3494883D01*
X1402155Y3466517D01*
X1425317Y3443355D01*
X1453683Y3426978D01*
X1485322Y3418500D01*
X1518078D01*
X1518449Y3418599D01*
X1705549Y3231499D01*
Y2972500D01*
X1641200D01*
Y2691700D01*
X1698799D01*
Y2348300D01*
X1667700D01*
Y2230643D01*
X1667049Y2225700D01*
Y2098801D01*
X1225748Y1657500D01*
X1225340D01*
X1201077Y1650998D01*
X1181346Y1639607D01*
X1168646Y1643799D01*
Y1914409D01*
X1306951Y2052714D01*
X1332382Y2045900D01*
X1358818D01*
X1384353Y2052742D01*
X1407247Y2065960D01*
X1425940Y2084653D01*
X1439158Y2107547D01*
X1446000Y2133082D01*
Y2159518D01*
X1439158Y2185053D01*
X1425940Y2207947D01*
X1407247Y2226640D01*
X1384353Y2239858D01*
X1358818Y2246700D01*
X1332382D01*
X1306847Y2239858D01*
X1283953Y2226640D01*
X1265260Y2207947D01*
X1252042Y2185053D01*
X1245200Y2159518D01*
Y2133082D01*
X1252014Y2107651D01*
X1102331Y1957968D01*
X1093910Y1945366D01*
X1090953Y1930500D01*
Y1529070D01*
X1073680Y1511796D01*
X1063518Y1519594D01*
X1066798Y1525277D01*
X1073300Y1549540D01*
Y1574660D01*
X1066798Y1598923D01*
X1054239Y1620677D01*
X1036477Y1638439D01*
X1014723Y1650998D01*
X990460Y1657500D01*
X990052D01*
X749465Y1898087D01*
X733715Y1910173D01*
X715373Y1917770D01*
X715001Y1917819D01*
X598653Y2034167D01*
X603513Y2045900D01*
X736000D01*
Y2139148D01*
X752276Y2155424D01*
X764362Y2171175D01*
X767509Y2178772D01*
X771959Y2189517D01*
X774551Y2209200D01*
Y2350095D01*
X779470Y2355014D01*
X792675Y2377886D01*
X799510Y2403395D01*
Y2429805D01*
X792675Y2455314D01*
X779470Y2478186D01*
X760796Y2496860D01*
X737925Y2510065D01*
X712415Y2516900D01*
X686006D01*
X660496Y2510065D01*
X637625Y2496860D01*
X629816Y2489051D01*
X471100D01*
X451417Y2486459D01*
X433075Y2478862D01*
X417325Y2466776D01*
X359248Y2408700D01*
X336000D01*
Y2375369D01*
X332941Y2367983D01*
X330350Y2348300D01*
X332941Y2328617D01*
X336000Y2321230D01*
Y2287900D01*
X361257D01*
X368375Y2282438D01*
X375291Y2279573D01*
Y2265827D01*
X368375Y2262962D01*
X362820Y2258700D01*
X336000D01*
Y2224170D01*
X332941Y2216783D01*
X330349Y2197100D01*
Y2118868D01*
X332941Y2099185D01*
X340538Y2080843D01*
X352624Y2065092D01*
X627181Y1790535D01*
X642932Y1778449D01*
X661274Y1770851D01*
X661646Y1770802D01*
X763215Y1669233D01*
X758355Y1657500D01*
X622500D01*
Y1473947D01*
X622500Y1466700D01*
X612059Y1461247D01*
X-101600D01*
X-105353Y1460500D01*
X-994793D01*
X-999653Y1472233D01*
X-917736Y1554150D01*
X-901865Y1552061D01*
X-895839Y1541623D01*
X-878077Y1523861D01*
X-856323Y1511302D01*
X-832060Y1504800D01*
X-806940D01*
X-782677Y1511302D01*
X-760923Y1523861D01*
X-743161Y1541623D01*
X-730602Y1563377D01*
X-724100Y1587640D01*
Y1588980D01*
X-578933Y1734147D01*
X-567200Y1729287D01*
Y1656800D01*
X-519500D01*
Y1727200D01*
X-506800D01*
Y1739900D01*
X-446400D01*
Y1797600D01*
X-498887D01*
X-503747Y1809333D01*
X-314524Y1998556D01*
X-302438Y2014307D01*
X-294841Y2032648D01*
X-292249Y2052332D01*
Y2109400D01*
X-277800D01*
Y2310200D01*
X-308099D01*
Y2615500D01*
X-249700D01*
Y2896300D01*
X-314049D01*
Y3376181D01*
X-316641Y3395865D01*
X-324238Y3414207D01*
X-336324Y3429958D01*
X-411603Y3505237D01*
X-405900Y3526522D01*
Y3559278D01*
X-414378Y3590917D01*
X-430755Y3619283D01*
X-453917Y3642445D01*
X-482283Y3658822D01*
X-513922Y3667300D01*
X-546678D01*
X-578317Y3658822D01*
X-606683Y3642445D01*
X-629845Y3619283D01*
X-646222Y3590917D01*
X-654700Y3559278D01*
Y3526522D01*
X-646222Y3494883D01*
X-629845Y3466517D01*
X-606683Y3443355D01*
X-578317Y3426978D01*
X-546678Y3418500D01*
X-539970D01*
X-466151Y3344680D01*
Y2896300D01*
X-530500D01*
Y2615500D01*
X-460201D01*
Y2310200D01*
X-478600D01*
Y2109400D01*
X-444351D01*
Y2083833D01*
X-832776Y1695408D01*
X-856323Y1689098D01*
X-876054Y1677707D01*
X-888754Y1681899D01*
Y1939809D01*
X-775849Y2052714D01*
X-750418Y2045900D01*
X-723982D01*
X-698447Y2052742D01*
X-675553Y2065960D01*
X-656860Y2084653D01*
X-643642Y2107547D01*
X-636800Y2133082D01*
Y2159518D01*
X-643642Y2185053D01*
X-656860Y2207947D01*
X-675553Y2226640D01*
X-698447Y2239858D01*
X-723982Y2246700D01*
X-750418D01*
X-775953Y2239858D01*
X-798847Y2226640D01*
X-817540Y2207947D01*
X-830758Y2185053D01*
X-837600Y2159518D01*
Y2133082D01*
X-830786Y2107651D01*
X-955069Y1983368D01*
X-963490Y1970766D01*
X-966447Y1955900D01*
Y1619646D01*
X-972892Y1614849D01*
X-986045Y1620019D01*
X-990602Y1637023D01*
X-1003161Y1658777D01*
X-1020923Y1676539D01*
X-1042677Y1689098D01*
X-1066940Y1695600D01*
X-1067348D01*
X-1249485Y1877737D01*
X-1265236Y1889823D01*
X-1283578Y1897420D01*
X-1303261Y1900012D01*
X-1349992D01*
X-1484147Y2034167D01*
X-1479287Y2045900D01*
X-1346800D01*
Y2139148D01*
X-1317824Y2168124D01*
X-1305738Y2183875D01*
X-1298141Y2202217D01*
X-1295549Y2221900D01*
Y2247900D01*
X-1298141Y2267583D01*
X-1300254Y2272687D01*
Y2364228D01*
X-1292369Y2377886D01*
X-1285534Y2403395D01*
Y2429805D01*
X-1292369Y2455314D01*
X-1305574Y2478186D01*
X-1324248Y2496860D01*
X-1347119Y2510065D01*
X-1372629Y2516900D01*
X-1399038D01*
X-1424548Y2510065D01*
X-1447419Y2496860D01*
X-1461157Y2483122D01*
X-1608838D01*
X-1628522Y2480531D01*
X-1641511Y2475150D01*
X-1651000D01*
X-1670683Y2472559D01*
X-1689025Y2464962D01*
X-1696143Y2459500D01*
X-1721400D01*
Y2426169D01*
X-1724459Y2418783D01*
X-1727050Y2399100D01*
X-1724459Y2379416D01*
X-1721400Y2372031D01*
Y2338700D01*
X-1696143D01*
X-1689025Y2333238D01*
X-1688459Y2333003D01*
Y2319257D01*
X-1701725Y2313762D01*
X-1707280Y2309500D01*
X-1721400D01*
Y2296562D01*
X-1729562Y2285925D01*
X-1737159Y2267583D01*
X-1739751Y2247900D01*
Y2106168D01*
X-1737159Y2086485D01*
X-1729562Y2068143D01*
X-1717476Y2052392D01*
X-1435269Y1770185D01*
X-1419518Y1758099D01*
X-1401177Y1750502D01*
X-1381493Y1747910D01*
X-1334762D01*
X-1294185Y1707333D01*
X-1299045Y1695600D01*
X-1434900D01*
Y1504800D01*
X-1244100D01*
Y1640655D01*
X-1232367Y1645515D01*
X-1174900Y1588048D01*
Y1587640D01*
X-1168398Y1563377D01*
X-1155839Y1541623D01*
X-1138077Y1523861D01*
X-1116323Y1511302D01*
X-1094316Y1505405D01*
X-1088300Y1493461D01*
X-1121261Y1460500D01*
X-3115693D01*
X-3120553Y1472233D01*
X-3045931Y1546855D01*
X-3037511Y1559458D01*
X-3034553Y1574323D01*
Y1594017D01*
X-3021853Y1595689D01*
X-3016598Y1576077D01*
X-3004039Y1554323D01*
X-2986277Y1536561D01*
X-2964523Y1524002D01*
X-2940260Y1517500D01*
X-2915140D01*
X-2890877Y1524002D01*
X-2869123Y1536561D01*
X-2851361Y1554323D01*
X-2838802Y1576077D01*
X-2832300Y1600340D01*
Y1600748D01*
X-2349048Y2084000D01*
X-2233600D01*
Y2284800D01*
X-2270249D01*
Y2628200D01*
X-2218200D01*
Y2909000D01*
X-2282549D01*
Y3339200D01*
X-2285141Y3358884D01*
X-2289591Y3369628D01*
X-2292738Y3377225D01*
X-2304824Y3392976D01*
X-2437999Y3526151D01*
X-2437900Y3526522D01*
Y3559278D01*
X-2446378Y3590917D01*
X-2462755Y3619283D01*
X-2485917Y3642445D01*
X-2514283Y3658822D01*
X-2545922Y3667300D01*
X-2578678D01*
X-2610317Y3658822D01*
X-2638683Y3642445D01*
X-2661845Y3619283D01*
X-2678222Y3590917D01*
X-2686700Y3559278D01*
Y3526522D01*
X-2678222Y3494883D01*
X-2661845Y3466517D01*
X-2638683Y3443355D01*
X-2610317Y3426978D01*
X-2578678Y3418500D01*
X-2545922D01*
X-2545551Y3418599D01*
X-2434651Y3307699D01*
Y2909000D01*
X-2499000D01*
Y2628200D01*
X-2422351D01*
Y2284800D01*
X-2434400D01*
Y2213618D01*
X-2434976Y2213176D01*
X-2939852Y1708300D01*
X-2940260D01*
X-2964523Y1701798D01*
X-2986277Y1689239D01*
X-3004039Y1671477D01*
X-3016598Y1649723D01*
X-3021853Y1630111D01*
X-3034553Y1631783D01*
Y1876809D01*
X-2858648Y2052714D01*
X-2833218Y2045900D01*
X-2806782D01*
X-2781247Y2052742D01*
X-2758353Y2065960D01*
X-2739660Y2084653D01*
X-2726442Y2107547D01*
X-2719600Y2133082D01*
Y2159518D01*
X-2726442Y2185053D01*
X-2739660Y2207947D01*
X-2758353Y2226640D01*
X-2781247Y2239858D01*
X-2806782Y2246700D01*
X-2833218D01*
X-2858753Y2239858D01*
X-2881647Y2226640D01*
X-2900340Y2207947D01*
X-2913558Y2185053D01*
X-2920400Y2159518D01*
Y2133082D01*
X-2913586Y2107652D01*
X-3100869Y1920369D01*
X-3109289Y1907766D01*
X-3112247Y1892900D01*
Y1688956D01*
X-3123980Y1684096D01*
X-3129123Y1689239D01*
X-3150877Y1701798D01*
X-3175140Y1708300D01*
X-3175548D01*
X-3416135Y1948887D01*
X-3431885Y1960973D01*
X-3450227Y1968570D01*
X-3469911Y1971161D01*
X-3503941D01*
X-3566947Y2034167D01*
X-3562087Y2045900D01*
X-3429600D01*
Y2139148D01*
X-3426630Y2142118D01*
X-3414544Y2157868D01*
X-3406947Y2176210D01*
X-3404356Y2195894D01*
Y2341276D01*
X-3390618Y2355014D01*
X-3377413Y2377886D01*
X-3370578Y2403395D01*
Y2429805D01*
X-3377413Y2455314D01*
X-3390618Y2478186D01*
X-3409292Y2496860D01*
X-3432163Y2510065D01*
X-3457673Y2516900D01*
X-3484082D01*
X-3509592Y2510065D01*
X-3532463Y2496860D01*
X-3546201Y2483122D01*
X-3693882D01*
X-3713566Y2480531D01*
X-3731907Y2472933D01*
X-3747658Y2460847D01*
X-3784155Y2424350D01*
X-3810000D01*
X-3829683Y2421759D01*
X-3848025Y2414162D01*
X-3855143Y2408700D01*
X-3880400D01*
Y2375369D01*
X-3883459Y2367983D01*
X-3886050Y2348300D01*
X-3883459Y2328616D01*
X-3880400Y2321231D01*
Y2287900D01*
X-3865114D01*
X-3859243Y2282029D01*
X-3860307Y2266238D01*
X-3863776Y2263576D01*
X-3867517Y2258700D01*
X-3880400D01*
Y2236870D01*
X-3883459Y2229483D01*
X-3886051Y2209800D01*
Y2169668D01*
X-3883459Y2149985D01*
X-3880400Y2142598D01*
Y2137900D01*
X-3878454D01*
X-3875862Y2131643D01*
X-3863776Y2115892D01*
X-3589219Y1841335D01*
X-3573468Y1829249D01*
X-3555126Y1821651D01*
X-3535443Y1819060D01*
X-3501412D01*
X-3402385Y1720033D01*
X-3407245Y1708300D01*
X-3543100D01*
Y1517500D01*
X-3352300D01*
Y1653355D01*
X-3340567Y1658215D01*
X-3283100Y1600748D01*
Y1600340D01*
X-3276598Y1576077D01*
X-3264039Y1554323D01*
X-3246277Y1536561D01*
X-3224523Y1524002D01*
X-3202516Y1518105D01*
X-3196500Y1506161D01*
X-3241414Y1461247D01*
X-4178300D01*
X-4182053Y1460500D01*
X-5028454D01*
Y1517849D01*
X-5015753Y1522404D01*
X-4996523Y1511302D01*
X-4972260Y1504800D01*
X-4947140D01*
X-4922877Y1511302D01*
X-4901123Y1523861D01*
X-4883361Y1541623D01*
X-4870802Y1563377D01*
X-4864300Y1587640D01*
Y1588048D01*
X-4744533Y1707815D01*
X-4732800Y1702955D01*
Y1701800D01*
X-4672400D01*
X-4612000D01*
Y1759500D01*
X-4676255D01*
X-4681115Y1771233D01*
X-4527724Y1924624D01*
X-4515638Y1940375D01*
X-4512491Y1947972D01*
X-4508041Y1958716D01*
X-4505449Y1978400D01*
Y2084000D01*
X-4456100D01*
Y2284800D01*
X-4473699D01*
Y2628200D01*
X-4402600D01*
Y2909000D01*
X-4466949D01*
Y3465081D01*
X-4469541Y3484765D01*
X-4476553Y3501694D01*
X-4469900Y3526522D01*
Y3559278D01*
X-4478378Y3590917D01*
X-4494755Y3619283D01*
X-4517917Y3642445D01*
X-4546283Y3658822D01*
X-4577922Y3667300D01*
X-4610678D01*
X-4642317Y3658822D01*
X-4670683Y3642445D01*
X-4693845Y3619283D01*
X-4710222Y3590917D01*
X-4718700Y3559278D01*
Y3526522D01*
X-4710222Y3494883D01*
X-4693845Y3466517D01*
X-4670683Y3443355D01*
X-4642317Y3426978D01*
X-4619051Y3420743D01*
Y2909000D01*
X-4683400D01*
Y2628200D01*
X-4625801D01*
Y2284800D01*
X-4656900D01*
Y2164343D01*
X-4657551Y2159400D01*
Y2009901D01*
X-4971852Y1695600D01*
X-4972260D01*
X-4996523Y1689098D01*
X-5004295Y1684611D01*
X-5012093Y1694774D01*
X-4973786Y1733081D01*
X-4973783Y1733083D01*
X-4874731Y1832135D01*
X-4866311Y1844737D01*
X-4863353Y1859603D01*
Y1892300D01*
X-4863953Y1895316D01*
Y2052796D01*
X-4841153Y2065960D01*
X-4822460Y2084653D01*
X-4809242Y2107547D01*
X-4802400Y2133082D01*
Y2159518D01*
X-4809242Y2185053D01*
X-4822460Y2207947D01*
X-4841153Y2226640D01*
X-4864047Y2239858D01*
X-4889582Y2246700D01*
X-4916018D01*
X-4941553Y2239858D01*
X-4964447Y2226640D01*
X-4983140Y2207947D01*
X-4996358Y2185053D01*
X-5003200Y2159518D01*
Y2133082D01*
X-4996358Y2107547D01*
X-4983140Y2084653D01*
X-4964447Y2065960D01*
X-4941646Y2052796D01*
Y1892300D01*
X-4941047Y1889284D01*
Y1875694D01*
X-5028719Y1788022D01*
X-5028721Y1788020D01*
X-5094769Y1721972D01*
X-5103190Y1709370D01*
X-5106147Y1694504D01*
Y1610584D01*
X-5105935Y1609519D01*
X-5107162Y1600200D01*
X-5105935Y1590881D01*
X-5106147Y1589816D01*
Y1460500D01*
X-5710863D01*
X-5827231Y1576869D01*
X-5839834Y1585289D01*
X-5854700Y1588247D01*
X-6778409D01*
X-6946753Y1756591D01*
Y2052796D01*
X-6923953Y2065960D01*
X-6905260Y2084653D01*
X-6892042Y2107547D01*
X-6885200Y2133082D01*
Y2159518D01*
X-6892042Y2185053D01*
X-6905260Y2207947D01*
X-6923953Y2226640D01*
X-6946847Y2239858D01*
X-6972382Y2246700D01*
X-6998818D01*
X-7024353Y2239858D01*
X-7047247Y2226640D01*
X-7053482Y2220405D01*
X-7065215Y2225265D01*
Y2332410D01*
X-7053482Y2337271D01*
X-7052551Y2336340D01*
X-7029680Y2323135D01*
X-7004170Y2316300D01*
X-6977761D01*
X-6952251Y2323135D01*
X-6929380Y2336340D01*
X-6910706Y2355014D01*
X-6897501Y2377886D01*
X-6890666Y2403395D01*
Y2429805D01*
X-6893423Y2440095D01*
X-6889794Y2445004D01*
X-6883001Y2450271D01*
X-6865961Y2448028D01*
X-6721521D01*
X-6701838Y2450619D01*
X-6683496Y2458217D01*
X-6667746Y2470303D01*
X-6607834Y2530214D01*
X-6596101Y2525354D01*
Y2259400D01*
X-6625400D01*
Y2058600D01*
X-6424600D01*
Y2259400D01*
X-6443999D01*
Y2590100D01*
X-6374700D01*
Y2870900D01*
X-6439049D01*
Y3405181D01*
X-6441641Y3424865D01*
X-6446091Y3435609D01*
X-6449238Y3443207D01*
X-6461324Y3458957D01*
X-6507603Y3505237D01*
X-6501900Y3526522D01*
Y3559278D01*
X-6510378Y3590917D01*
X-6526755Y3619283D01*
X-6549917Y3642445D01*
X-6578283Y3658822D01*
X-6609922Y3667300D01*
X-6642678D01*
X-6674317Y3658822D01*
X-6702683Y3642445D01*
X-6725845Y3619283D01*
X-6742222Y3590917D01*
X-6750700Y3559278D01*
Y3526522D01*
X-6742222Y3494883D01*
X-6725845Y3466517D01*
X-6702683Y3443355D01*
X-6674317Y3426978D01*
X-6642678Y3418500D01*
X-6635970D01*
X-6591151Y3373680D01*
Y2870900D01*
X-6655500D01*
Y2697652D01*
X-6753023Y2600129D01*
X-6834460D01*
X-6855007Y2620676D01*
X-6870757Y2632762D01*
X-6889099Y2640359D01*
X-6908783Y2642951D01*
X-7053222D01*
X-7072905Y2640359D01*
X-7091247Y2632762D01*
X-7106998Y2620676D01*
X-7195042Y2532632D01*
X-7207128Y2516881D01*
X-7214725Y2498540D01*
X-7217317Y2478856D01*
Y1680266D01*
X-7214725Y1660582D01*
X-7207128Y1642241D01*
X-7195042Y1626490D01*
X-7178476Y1609924D01*
X-7176000Y1608024D01*
Y1600340D01*
X-7169498Y1576077D01*
X-7156939Y1554323D01*
X-7139177Y1536561D01*
X-7117423Y1524002D01*
X-7093160Y1517500D01*
X-7068040D01*
X-7043777Y1524002D01*
X-7022023Y1536561D01*
X-7004261Y1554323D01*
X-6991702Y1576077D01*
X-6985200Y1600340D01*
Y1625460D01*
X-6991702Y1649723D01*
X-7004261Y1671477D01*
X-7022023Y1689239D01*
X-7043777Y1701798D01*
X-7062807Y1706898D01*
X-7065215Y1710036D01*
Y2067335D01*
X-7053482Y2072195D01*
X-7047247Y2065960D01*
X-7024446Y2052796D01*
Y1740500D01*
X-7021489Y1725634D01*
X-7013069Y1713031D01*
X-6821969Y1521931D01*
X-6809366Y1513511D01*
X-6794500Y1510553D01*
X-5870791D01*
X-5832470Y1472233D01*
X-5837331Y1460500D01*
X-9121639D01*
X-9154600Y1493461D01*
X-9148584Y1505405D01*
X-9126577Y1511302D01*
X-9104823Y1523861D01*
X-9087061Y1541623D01*
X-9074502Y1563377D01*
X-9068000Y1587640D01*
Y1588048D01*
X-8693324Y1962724D01*
X-8681238Y1978475D01*
X-8678091Y1986072D01*
X-8673641Y1996816D01*
X-8672195Y2007800D01*
X-8621700D01*
Y2208600D01*
X-8639299D01*
Y2564700D01*
X-8568200D01*
Y2845500D01*
X-8632549D01*
Y3421011D01*
X-8610283Y3426978D01*
X-8581917Y3443355D01*
X-8558755Y3466517D01*
X-8542378Y3494883D01*
X-8533900Y3526522D01*
Y3559278D01*
X-8542378Y3590917D01*
X-8558755Y3619283D01*
X-8581917Y3642445D01*
X-8610283Y3658822D01*
X-8641922Y3667300D01*
X-8674678D01*
X-8706317Y3658822D01*
X-8734683Y3642445D01*
X-8757845Y3619283D01*
X-8774222Y3590917D01*
X-8782700Y3559278D01*
Y3526522D01*
X-8775817Y3500835D01*
X-8782059Y3485765D01*
X-8784651Y3466081D01*
Y2845500D01*
X-8849000D01*
Y2564700D01*
X-8791401D01*
Y2208600D01*
X-8822500D01*
Y2088143D01*
X-8823151Y2083200D01*
Y2048001D01*
X-9175552Y1695600D01*
X-9175960D01*
X-9200223Y1689098D01*
X-9221977Y1676539D01*
X-9239739Y1658777D01*
X-9244853Y1649918D01*
X-9257553Y1653321D01*
Y1902209D01*
X-9107049Y2052714D01*
X-9081618Y2045900D01*
X-9055182D01*
X-9029647Y2052742D01*
X-9006753Y2065960D01*
X-8988060Y2084653D01*
X-8974842Y2107547D01*
X-8968000Y2133082D01*
Y2159518D01*
X-8974842Y2185053D01*
X-8988060Y2207947D01*
X-9006753Y2226640D01*
X-9029647Y2239858D01*
X-9055182Y2246700D01*
X-9081618D01*
X-9107153Y2239858D01*
X-9130047Y2226640D01*
X-9148740Y2207947D01*
X-9161958Y2185053D01*
X-9168800Y2159518D01*
Y2133082D01*
X-9161986Y2107651D01*
X-9323869Y1945769D01*
X-9332289Y1933166D01*
X-9335247Y1918300D01*
Y1661943D01*
X-9341317Y1660316D01*
X-9347947Y1659662D01*
X-9364823Y1676539D01*
X-9386577Y1689098D01*
X-9410840Y1695600D01*
X-9411248D01*
X-9572824Y1857176D01*
X-9588575Y1869262D01*
X-9606917Y1876859D01*
X-9626600Y1879451D01*
X-9930220D01*
X-9944249Y1893480D01*
Y1905000D01*
X-9946841Y1924683D01*
X-9949900Y1932069D01*
Y1979300D01*
X-10007001D01*
X-10016460Y1980545D01*
Y1993354D01*
X-10011700Y1993982D01*
X-10000617Y1995441D01*
X-9982274Y2003038D01*
X-9975156Y2008500D01*
X-9949900D01*
Y2031748D01*
X-9924098Y2057549D01*
X-9878800D01*
Y2045900D01*
X-9678000D01*
Y2139519D01*
X-9667138Y2153675D01*
X-9659541Y2172016D01*
X-9656949Y2191700D01*
Y2343815D01*
X-9645750Y2355014D01*
X-9632545Y2377886D01*
X-9625710Y2403395D01*
Y2429805D01*
X-9632545Y2455314D01*
X-9645750Y2478186D01*
X-9664424Y2496860D01*
X-9687296Y2510065D01*
X-9712805Y2516900D01*
X-9739215D01*
X-9764724Y2510065D01*
X-9787596Y2496860D01*
X-9806270Y2478186D01*
X-9819475Y2455314D01*
X-9826310Y2429805D01*
Y2403395D01*
X-9819475Y2377886D01*
X-9809051Y2359831D01*
Y2246700D01*
X-9878800D01*
Y2209651D01*
X-9955600D01*
X-9975283Y2207059D01*
X-9993625Y2199462D01*
X-10009375Y2187376D01*
X-10067452Y2129300D01*
X-10090700D01*
Y2095969D01*
X-10093759Y2088583D01*
X-10096350Y2068900D01*
X-10093759Y2049217D01*
X-10090700Y2041830D01*
Y2008500D01*
X-10065443D01*
X-10058325Y2003038D01*
X-10039983Y1995441D01*
X-10028900Y1993982D01*
X-10024140Y1993354D01*
Y1980545D01*
X-10033599Y1979300D01*
X-10090700D01*
Y1932070D01*
X-10093759Y1924683D01*
X-10096351Y1905000D01*
Y1861979D01*
X-10093759Y1842295D01*
X-10086162Y1823953D01*
X-10074076Y1808203D01*
X-10015497Y1749624D01*
X-9999747Y1737538D01*
X-9992149Y1734391D01*
X-9981405Y1729941D01*
X-9961721Y1727349D01*
X-9658101D01*
X-9638085Y1707333D01*
X-9642945Y1695600D01*
X-9778800D01*
Y1504800D01*
X-9588000D01*
Y1640655D01*
X-9576267Y1645515D01*
X-9518800Y1588048D01*
Y1587640D01*
X-9512298Y1563377D01*
X-9499739Y1541623D01*
X-9481977Y1523861D01*
X-9460223Y1511302D01*
X-9435960Y1504800D01*
X-9410840D01*
X-9386577Y1511302D01*
X-9364823Y1523861D01*
X-9347061Y1541623D01*
X-9339912Y1554006D01*
X-9324965Y1554495D01*
X-9323869Y1552855D01*
X-9243247Y1472233D01*
X-9248107Y1460500D01*
X-11167314D01*
X-11212000Y1505186D01*
X-11205984Y1517130D01*
X-11183977Y1523027D01*
X-11162223Y1535586D01*
X-11144461Y1553348D01*
X-11131902Y1575102D01*
X-11125400Y1599366D01*
Y1599773D01*
X-10699924Y2025249D01*
X-10693823Y2033200D01*
X-10628300D01*
Y2234000D01*
X-10645899D01*
Y2564700D01*
X-10574800D01*
Y2845500D01*
X-10626699D01*
Y3435975D01*
X-10613917Y3443355D01*
X-10590755Y3466517D01*
X-10574378Y3494883D01*
X-10565900Y3526522D01*
Y3559278D01*
X-10574378Y3590917D01*
X-10590755Y3619283D01*
X-10613917Y3642445D01*
X-10642283Y3658822D01*
X-10673922Y3667300D01*
X-10706678D01*
X-10738317Y3658822D01*
X-10766683Y3642445D01*
X-10789845Y3619283D01*
X-10806222Y3590917D01*
X-10814700Y3559278D01*
Y3526522D01*
X-10806222Y3494883D01*
X-10789845Y3466517D01*
X-10778801Y3455472D01*
Y2845500D01*
X-10855600D01*
Y2564700D01*
X-10798001D01*
Y2234000D01*
X-10829100D01*
Y2113543D01*
X-10829459Y2110818D01*
X-11232952Y1707325D01*
X-11233360D01*
X-11257623Y1700824D01*
X-11277354Y1689432D01*
X-11290054Y1693624D01*
Y1952509D01*
X-11189849Y2052714D01*
X-11164418Y2045900D01*
X-11137982D01*
X-11112447Y2052742D01*
X-11089553Y2065960D01*
X-11070860Y2084653D01*
X-11057642Y2107547D01*
X-11050800Y2133082D01*
Y2159518D01*
X-11057642Y2185053D01*
X-11070860Y2207947D01*
X-11089553Y2226640D01*
X-11112447Y2239858D01*
X-11137982Y2246700D01*
X-11164418D01*
X-11189953Y2239858D01*
X-11212847Y2226640D01*
X-11231540Y2207947D01*
X-11244758Y2185053D01*
X-11251600Y2159518D01*
Y2133082D01*
X-11244786Y2107651D01*
X-11356369Y1996068D01*
X-11364790Y1983466D01*
X-11367747Y1968600D01*
Y1567149D01*
X-11364790Y1552283D01*
X-11356369Y1539680D01*
X-11288922Y1472233D01*
X-11293782Y1460500D01*
X-13290511D01*
X-13292183Y1473200D01*
X-13292177Y1473202D01*
X-13270422Y1485761D01*
X-13252661Y1503523D01*
X-13240102Y1525277D01*
X-13233600Y1549540D01*
Y1549948D01*
X-13065199Y1718348D01*
X-13052499Y1713088D01*
Y1663700D01*
X-13004800D01*
Y1721400D01*
X-13044188D01*
X-13049448Y1734100D01*
X-12811324Y1972224D01*
X-12799238Y1987975D01*
X-12791641Y2006317D01*
X-12789774Y2020500D01*
X-12774600D01*
Y2221300D01*
X-12804900D01*
Y2577400D01*
X-12746500D01*
Y2858200D01*
X-12810849D01*
Y3323860D01*
X-12716210Y3418500D01*
X-12705922D01*
X-12674283Y3426978D01*
X-12645917Y3443355D01*
X-12622755Y3466517D01*
X-12606378Y3494883D01*
X-12597900Y3526522D01*
Y3559278D01*
X-12606378Y3590917D01*
X-12622755Y3619283D01*
X-12645917Y3642445D01*
X-12674283Y3658822D01*
X-12705922Y3667300D01*
X-12738678D01*
X-12770317Y3658822D01*
X-12798683Y3642445D01*
X-12821844Y3619283D01*
X-12838222Y3590917D01*
X-12846700Y3559278D01*
Y3526522D01*
X-12841753Y3508060D01*
X-12940675Y3409137D01*
X-12952762Y3393386D01*
X-12960359Y3375045D01*
X-12962952Y3355361D01*
Y2858200D01*
X-13027299D01*
Y2577400D01*
X-12957001D01*
Y2221300D01*
X-12975400D01*
Y2023252D01*
X-13341151Y1657500D01*
X-13341560D01*
X-13365823Y1650998D01*
X-13385555Y1639607D01*
X-13398254Y1643799D01*
Y1927109D01*
X-13272649Y2052714D01*
X-13247218Y2045900D01*
X-13220782D01*
X-13195247Y2052742D01*
X-13172353Y2065960D01*
X-13153661Y2084653D01*
X-13140442Y2107547D01*
X-13133600Y2133082D01*
Y2159518D01*
X-13140442Y2185053D01*
X-13153661Y2207947D01*
X-13172353Y2226640D01*
X-13195247Y2239858D01*
X-13220782Y2246700D01*
X-13247218D01*
X-13272752Y2239858D01*
X-13295647Y2226640D01*
X-13314340Y2207947D01*
X-13327557Y2185053D01*
X-13334399Y2159518D01*
Y2133082D01*
X-13327586Y2107651D01*
X-13464569Y1970668D01*
X-13472990Y1958066D01*
X-13475948Y1943200D01*
Y1460500D01*
X-13550511D01*
X-13552184Y1473200D01*
X-13552177Y1473202D01*
X-13530423Y1485761D01*
X-13512662Y1503523D01*
X-13500102Y1525277D01*
X-13493600Y1549540D01*
Y1574660D01*
X-13500102Y1598923D01*
X-13512662Y1620677D01*
X-13530423Y1638439D01*
X-13552177Y1650998D01*
X-13576440Y1657500D01*
X-13576848D01*
X-13830135Y1910787D01*
X-13845885Y1922873D01*
X-13864227Y1930470D01*
X-13879225Y1932444D01*
X-13980946Y2034167D01*
X-13976086Y2045900D01*
X-13843600D01*
Y2139148D01*
X-13827324Y2155424D01*
X-13815237Y2171175D01*
X-13812091Y2178772D01*
X-13807642Y2189517D01*
X-13805049Y2209200D01*
Y2373701D01*
X-13802634Y2377886D01*
X-13795798Y2403395D01*
Y2429805D01*
X-13802634Y2455314D01*
X-13815839Y2478186D01*
X-13834512Y2496860D01*
X-13857384Y2510065D01*
X-13882893Y2516900D01*
X-13909303D01*
X-13934813Y2510065D01*
X-13957684Y2496860D01*
X-13961893Y2492651D01*
X-14168401D01*
X-14188083Y2490059D01*
X-14206425Y2482462D01*
X-14222176Y2470376D01*
X-14258452Y2434100D01*
X-14281700D01*
Y2400769D01*
X-14284760Y2393383D01*
X-14287350Y2373700D01*
X-14284760Y2354017D01*
X-14281700Y2346630D01*
Y2313300D01*
X-14256442D01*
X-14249326Y2307838D01*
X-14248891Y2307658D01*
X-14246977Y2293119D01*
X-14252376Y2288976D01*
X-14256117Y2284100D01*
X-14281700D01*
Y2163300D01*
X-14274651D01*
Y2144268D01*
X-14272060Y2124585D01*
X-14264462Y2106243D01*
X-14252376Y2090492D01*
X-13965118Y1803235D01*
X-13949368Y1791149D01*
X-13941771Y1788002D01*
X-13931026Y1783551D01*
X-13916029Y1781577D01*
X-13803685Y1669233D01*
X-13808545Y1657500D01*
X-13944400D01*
Y1473200D01*
X-13944400Y1466700D01*
X-13954532Y1460500D01*
X-15049500D01*
Y1149300D01*
X-15055800D01*
Y933500D01*
X-15049500D01*
Y571118D01*
X-15055800Y547605D01*
Y519195D01*
X-15049500Y495682D01*
Y-3556000D01*
X-13957300D01*
Y-4889500D01*
X-15442703D01*
Y4102100D01*
X7149603D01*
Y1460500D01*
D02*
G37*
G36*
X4851301Y1688652D02*
X4851600Y1688204D01*
Y1612900D01*
X4947000D01*
Y1600200D01*
X4959700D01*
Y1504800D01*
X5039350D01*
X5041477Y1504377D01*
X5041900Y1502249D01*
Y1460500D01*
Y1168400D01*
X5245100D01*
Y876300D01*
X7149603D01*
Y-927100D01*
X1257300D01*
Y876300D01*
X4787900D01*
Y1686550D01*
X4788323Y1688677D01*
X4790451Y1689100D01*
X4849050D01*
X4851301Y1688652D01*
D02*
G37*
G36*
X-9182100Y-5435600D02*
X-8066335D01*
X-8065216Y-5435900D01*
X-8038384D01*
X-8037265Y-5435600D01*
X-7937998D01*
Y-5569936D01*
X-7950698Y-5571608D01*
X-7956844Y-5548668D01*
X-7970260Y-5525432D01*
X-7989232Y-5506460D01*
X-8012468Y-5493044D01*
X-8038384Y-5486100D01*
X-8039100D01*
Y-5588000D01*
X-8051800D01*
Y-5600700D01*
X-8153700D01*
Y-5601416D01*
X-8146756Y-5627332D01*
X-8133340Y-5650568D01*
X-8120206Y-5663702D01*
X-8125467Y-5676402D01*
X-8420100D01*
X-8430011Y-5678374D01*
X-8438412Y-5683988D01*
X-8444026Y-5692389D01*
X-8445998Y-5702300D01*
X-8890001Y-5702301D01*
Y-5702300D01*
X-8890001Y-5702301D01*
X-8890001D01*
X-8890000Y-6733632D01*
X-8896669Y-6738088D01*
X-8908313Y-6749731D01*
X-8913927Y-6758133D01*
X-8915898Y-6768044D01*
X-8915898Y-8950949D01*
X-8915400Y-8953451D01*
Y-8956001D01*
X-8914977Y-8958129D01*
X-8914001Y-8960486D01*
X-8913926Y-8960860D01*
X-8913714Y-8961177D01*
X-8911110Y-8967465D01*
X-8903965Y-8974610D01*
X-8897678Y-8977214D01*
X-8897360Y-8977426D01*
X-8896986Y-8977501D01*
X-8894629Y-8978477D01*
X-8892502Y-8978900D01*
X-8889951D01*
X-8887450Y-8979398D01*
X-6911351D01*
X-6908849Y-8978900D01*
X-4330700D01*
Y-8279008D01*
X-4330202Y-8276506D01*
Y-7899400D01*
X-3581400D01*
Y-8597900D01*
X-3898900D01*
Y-8978900D01*
Y-9334002D01*
Y-9359900D01*
X-3124200D01*
Y-8587750D01*
X-3123988Y-8587434D01*
X-3123396Y-8586004D01*
X-3121967Y-8585412D01*
X-3121650Y-8585200D01*
X-3121649Y-8585200D01*
X-2375398D01*
Y-9753104D01*
X-9448303Y-9753105D01*
D01*
D01*
X-9461002Y-9740405D01*
D01*
Y-8978900D01*
Y-8765551D01*
X-9461500Y-8763050D01*
X-9461500Y-8760500D01*
X-9462007Y-8757949D01*
X-9462983Y-8755591D01*
X-9463481Y-8753089D01*
X-9464897Y-8750970D01*
X-9465278Y-8750051D01*
X-9464898Y-8749134D01*
X-9463481Y-8747013D01*
X-9462983Y-8744511D01*
X-9462007Y-8742154D01*
X-9461500Y-8739604D01*
Y-8737054D01*
X-9461002Y-8734552D01*
Y-6343744D01*
X-9461500Y-6341243D01*
Y-6338692D01*
X-9461948Y-6336441D01*
X-9461948Y-6336440D01*
Y-6336439D01*
X-9462924Y-6334083D01*
X-9462974Y-6333834D01*
X-9463115Y-6333622D01*
X-9465814Y-6327105D01*
X-9465815Y-6327105D01*
X-9465815Y-6327104D01*
X-9470802Y-6322118D01*
X-9470943Y-6321906D01*
X-9471156Y-6321764D01*
X-9472959Y-6319960D01*
X-9472960Y-6319960D01*
X-9474869Y-6318684D01*
X-9477225Y-6317708D01*
X-9479345Y-6316292D01*
X-9486367Y-6313383D01*
X-9486900Y-6313277D01*
Y-6146800D01*
X-11049000D01*
Y-1927246D01*
X-10357700D01*
Y-2213800D01*
X-10032300D01*
X-9706900D01*
Y-1927246D01*
X-9182100D01*
Y-5435600D01*
D02*
G37*
G36*
X-5372100Y-6083300D02*
X-5651500D01*
Y-5575300D01*
X-5612200D01*
Y-5661400D01*
X-5511800D01*
X-5411400D01*
Y-5575300D01*
X-5372100D01*
Y-6083300D01*
D02*
G37*
G36*
X-4191000Y-5943600D02*
X-5194300D01*
Y-5486400D01*
X-5651500D01*
Y-5003800D01*
X-4191000D01*
Y-5943600D01*
D02*
G37*
G36*
X-7721600Y-5994400D02*
Y-6057402D01*
X-7924800D01*
X-7927302Y-6057900D01*
X-7937500D01*
Y-6061238D01*
X-7943112Y-6064988D01*
X-7948726Y-6073389D01*
X-7950698Y-6083300D01*
Y-7137400D01*
X-8420100D01*
Y-7085400D01*
X-8351025D01*
Y-6985000D01*
Y-6884600D01*
X-8420100D01*
Y-5740400D01*
Y-5702300D01*
X-7912100D01*
Y-4229100D01*
Y-4216400D01*
Y-4203700D01*
X-8178800D01*
Y-3657600D01*
X-7721600D01*
Y-5994400D01*
D02*
G37*
G36*
X-4356100Y-7632700D02*
X-4331198D01*
X-4329226Y-7642611D01*
X-4323612Y-7651012D01*
X-4315211Y-7656626D01*
X-4305300Y-7658598D01*
X-3124200D01*
X-3124200Y-8559800D01*
X-3126701D01*
X-3128829Y-8560223D01*
X-3131186Y-8561199D01*
X-3131560Y-8561274D01*
X-3131877Y-8561486D01*
X-3138165Y-8564090D01*
X-3145310Y-8571235D01*
X-3147914Y-8577522D01*
X-3148126Y-8577840D01*
X-3148201Y-8578214D01*
X-3149177Y-8580571D01*
X-3149600Y-8582698D01*
Y-8585249D01*
X-3150098Y-8587750D01*
Y-8937752D01*
X-3162798Y-8938751D01*
X-3166813Y-8913402D01*
X-3182640Y-8864690D01*
X-3205893Y-8819053D01*
X-3235999Y-8777616D01*
X-3272216Y-8741399D01*
X-3313653Y-8711293D01*
X-3359290Y-8688040D01*
X-3408002Y-8672213D01*
X-3458590Y-8664200D01*
X-3471501D01*
Y-8989600D01*
Y-9315000D01*
X-3458590D01*
X-3408002Y-9306987D01*
X-3359290Y-9291160D01*
X-3313653Y-9267907D01*
X-3272216Y-9237801D01*
X-3235999Y-9201584D01*
X-3205893Y-9160147D01*
X-3182640Y-9114510D01*
X-3166813Y-9065798D01*
X-3162798Y-9040449D01*
X-3150098Y-9041448D01*
Y-9334002D01*
X-3873002D01*
Y-8978900D01*
Y-8623798D01*
X-3581400D01*
X-3571489Y-8621826D01*
X-3563088Y-8616212D01*
X-3557474Y-8607811D01*
X-3555502Y-8597900D01*
Y-7899400D01*
X-3557474Y-7889489D01*
X-3563088Y-7881088D01*
X-3571489Y-7875474D01*
X-3581400Y-7873502D01*
X-4330202D01*
X-4340113Y-7875474D01*
X-4348515Y-7881088D01*
X-4354129Y-7889489D01*
X-4356100Y-7899400D01*
Y-8276506D01*
D01*
X-4356598Y-8279008D01*
Y-8280400D01*
X-4365500D01*
X-4367833Y-8281367D01*
X-4368800Y-8280400D01*
X-5080000D01*
Y-7632700D01*
Y-6388100D01*
X-5080967Y-6387133D01*
X-5076106Y-6375400D01*
X-4356100D01*
Y-7632700D01*
D02*
G37*
G36*
X-8509000Y-8547100D02*
X-6908800D01*
Y-8950950D01*
X-6909223Y-8953077D01*
X-6911351Y-8953500D01*
X-8887450D01*
X-8889577Y-8953077D01*
X-8890000Y-8950949D01*
X-8890000Y-6768044D01*
X-8878357Y-6756400D01*
X-8509000D01*
Y-8547100D01*
D02*
G37*
G36*
X-9498824Y-6336803D02*
X-9496278Y-6337309D01*
X-9489256Y-6340218D01*
X-9487348Y-6341493D01*
X-9486900Y-6343744D01*
Y-8734552D01*
X-9487407Y-8737102D01*
X-11389349D01*
X-11391851Y-8737600D01*
X-11394401D01*
X-11396529Y-8738023D01*
X-11398886Y-8738999D01*
X-11399260Y-8739074D01*
X-11399577Y-8739286D01*
X-11405865Y-8741890D01*
X-11413010Y-8749035D01*
X-11415614Y-8755322D01*
X-11415826Y-8755640D01*
X-11415901Y-8756014D01*
X-11416877Y-8758371D01*
X-11417300Y-8760498D01*
Y-8763049D01*
X-11417798Y-8765550D01*
Y-9435602D01*
X-11848602D01*
Y-6337300D01*
X-9499600D01*
X-9499103Y-6336803D01*
X-9498824D01*
D02*
G37*
G36*
X850900Y152400D02*
Y-9753104D01*
X-2349500Y-9753104D01*
Y-7632700D01*
X-4305300D01*
Y-7048500D01*
Y-6286500D01*
X-5168900D01*
Y-7200900D01*
X-7924800D01*
Y-6085850D01*
X-7924352Y-6083599D01*
X-7923904Y-6083300D01*
X-5677398D01*
X-5675426Y-6093211D01*
X-5669812Y-6101612D01*
X-5661411Y-6107226D01*
X-5651500Y-6109198D01*
X-5582200D01*
Y-6144400D01*
X-5511800D01*
X-5441400D01*
Y-6109198D01*
X-5372100D01*
X-5362189Y-6107226D01*
X-5353788Y-6101612D01*
X-5348174Y-6093211D01*
X-5346202Y-6083300D01*
X-3606800D01*
X-3597776Y-6426200D01*
X-3594100D01*
Y-6565900D01*
X-3581640Y-7039402D01*
X-3590501Y-7048500D01*
X-3594100D01*
Y-7353300D01*
X-2082800D01*
Y-9525000D01*
X609600D01*
Y152400D01*
X112603D01*
X100400Y153600D01*
X100400Y165100D01*
Y241300D01*
X0D01*
X-100400D01*
X-100400Y153600D01*
X-112912Y153147D01*
X-254000D01*
Y381000D01*
X850900D01*
Y152400D01*
D02*
G37*
G36*
X-11874500Y-9435602D02*
Y-9461500D01*
X-11391900D01*
Y-8765550D01*
X-11391477Y-8763423D01*
X-11389349Y-8763000D01*
X-9487407D01*
X-9486900Y-8765551D01*
Y-9753104D01*
X-13309599D01*
Y-9702800D01*
Y-6337300D01*
X-11874500D01*
Y-9435602D01*
D02*
G37*
%LPC*%
G36*
X4490100Y3667300D02*
X4378399D01*
Y3555600D01*
X4490100D01*
Y3667300D01*
D02*
G37*
G36*
X2458100D02*
X2346399D01*
Y3555600D01*
X2458100D01*
Y3667300D01*
D02*
G37*
G36*
X4352999D02*
X4241300D01*
Y3555600D01*
X4352999D01*
Y3667300D01*
D02*
G37*
G36*
X2320999D02*
X2209300D01*
Y3555600D01*
X2320999D01*
Y3667300D01*
D02*
G37*
G36*
X-11765900D02*
X-11877600D01*
Y3555600D01*
X-11765900D01*
Y3667300D01*
D02*
G37*
G36*
X-13797900D02*
X-13909599D01*
Y3555600D01*
X-13797900D01*
Y3667300D01*
D02*
G37*
G36*
X-11903000D02*
X-12014700D01*
Y3555600D01*
X-11903000D01*
Y3667300D01*
D02*
G37*
G36*
X-13935001D02*
X-14046700D01*
Y3555600D01*
X-13935001D01*
Y3667300D01*
D02*
G37*
G36*
X426100D02*
X314400D01*
Y3555599D01*
X426100D01*
Y3667300D01*
D02*
G37*
G36*
X-1605900D02*
X-1717600D01*
Y3555599D01*
X-1605900D01*
Y3667300D01*
D02*
G37*
G36*
X-3637900D02*
X-3749600D01*
Y3555599D01*
X-3637900D01*
Y3667300D01*
D02*
G37*
G36*
X-5669900D02*
X-5781600D01*
Y3555599D01*
X-5669900D01*
Y3667300D01*
D02*
G37*
G36*
X-7701900D02*
X-7813600D01*
Y3555599D01*
X-7701900D01*
Y3667300D01*
D02*
G37*
G36*
X-9733900D02*
X-9845600D01*
Y3555599D01*
X-9733900D01*
Y3667300D01*
D02*
G37*
G36*
X289000D02*
X177300D01*
Y3555599D01*
X289000D01*
Y3667300D01*
D02*
G37*
G36*
X-1743000D02*
X-1854700D01*
Y3555599D01*
X-1743000D01*
Y3667300D01*
D02*
G37*
G36*
X-3775000D02*
X-3886700D01*
Y3555599D01*
X-3775000D01*
Y3667300D01*
D02*
G37*
G36*
X-5807000D02*
X-5918700D01*
Y3555599D01*
X-5807000D01*
Y3667300D01*
D02*
G37*
G36*
X-7839000D02*
X-7950700D01*
Y3555599D01*
X-7839000D01*
Y3667300D01*
D02*
G37*
G36*
X-9871000D02*
X-9982700D01*
Y3555599D01*
X-9871000D01*
Y3667300D01*
D02*
G37*
G36*
X4490100Y3530200D02*
X4378399D01*
Y3418500D01*
X4490100D01*
Y3530200D01*
D02*
G37*
G36*
X4352999D02*
X4241300D01*
Y3418500D01*
X4352999D01*
Y3530200D01*
D02*
G37*
G36*
X2458100D02*
X2346399D01*
Y3418500D01*
X2458100D01*
Y3530200D01*
D02*
G37*
G36*
X2320999D02*
X2209300D01*
Y3418500D01*
X2320999D01*
Y3530200D01*
D02*
G37*
G36*
X426100Y3530199D02*
X314400D01*
Y3418500D01*
X426100D01*
Y3530199D01*
D02*
G37*
G36*
X289000D02*
X177300D01*
Y3418500D01*
X289000D01*
Y3530199D01*
D02*
G37*
G36*
X-1605900D02*
X-1717600D01*
Y3418500D01*
X-1605900D01*
Y3530199D01*
D02*
G37*
G36*
X-1743000D02*
X-1854700D01*
Y3418500D01*
X-1743000D01*
Y3530199D01*
D02*
G37*
G36*
X-3637900D02*
X-3749600D01*
Y3418500D01*
X-3637900D01*
Y3530199D01*
D02*
G37*
G36*
X-3775000D02*
X-3886700D01*
Y3418500D01*
X-3775000D01*
Y3530199D01*
D02*
G37*
G36*
X-5669900D02*
X-5781600D01*
Y3418500D01*
X-5669900D01*
Y3530199D01*
D02*
G37*
G36*
X-5807000D02*
X-5918700D01*
Y3418500D01*
X-5807000D01*
Y3530199D01*
D02*
G37*
G36*
X-7701900D02*
X-7813600D01*
Y3418500D01*
X-7701900D01*
Y3530199D01*
D02*
G37*
G36*
X-7839000D02*
X-7950700D01*
Y3418500D01*
X-7839000D01*
Y3530199D01*
D02*
G37*
G36*
X-9733900D02*
X-9845600D01*
Y3418500D01*
X-9733900D01*
Y3530199D01*
D02*
G37*
G36*
X-9871000D02*
X-9982700D01*
Y3418500D01*
X-9871000D01*
Y3530199D01*
D02*
G37*
G36*
X-11765900Y3530200D02*
X-11877600D01*
Y3418500D01*
X-11765900D01*
Y3530200D01*
D02*
G37*
G36*
X-11903000D02*
X-12014700D01*
Y3418500D01*
X-11903000D01*
Y3530200D01*
D02*
G37*
G36*
X-13797900D02*
X-13909599D01*
Y3418500D01*
X-13797900D01*
Y3530200D01*
D02*
G37*
G36*
X-13935001D02*
X-14046700D01*
Y3418500D01*
X-13935001D01*
Y3530200D01*
D02*
G37*
G36*
X4981781Y3465050D02*
X4978400D01*
Y3355600D01*
X5087850D01*
Y3358981D01*
X5079526Y3390048D01*
X5063444Y3417902D01*
X5040702Y3440644D01*
X5012848Y3456726D01*
X4981781Y3465050D01*
D02*
G37*
G36*
X2949781D02*
X2946400D01*
Y3355600D01*
X3055850D01*
Y3358981D01*
X3047526Y3390048D01*
X3031444Y3417902D01*
X3008702Y3440644D01*
X2980848Y3456726D01*
X2949781Y3465050D01*
D02*
G37*
G36*
X917781D02*
X914400D01*
Y3355600D01*
X1023850D01*
Y3358981D01*
X1015526Y3390048D01*
X999444Y3417902D01*
X976702Y3440644D01*
X948848Y3456726D01*
X917781Y3465050D01*
D02*
G37*
G36*
X-1114219D02*
X-1117600D01*
Y3355600D01*
X-1008150D01*
Y3358981D01*
X-1016474Y3390048D01*
X-1032556Y3417902D01*
X-1055298Y3440644D01*
X-1083152Y3456726D01*
X-1114219Y3465050D01*
D02*
G37*
G36*
X-3146219D02*
X-3149600D01*
Y3355600D01*
X-3040150D01*
Y3358981D01*
X-3048474Y3390048D01*
X-3064556Y3417902D01*
X-3087298Y3440644D01*
X-3115152Y3456726D01*
X-3146219Y3465050D01*
D02*
G37*
G36*
X-5178219D02*
X-5181600D01*
Y3355600D01*
X-5072150D01*
Y3358981D01*
X-5080474Y3390048D01*
X-5096556Y3417902D01*
X-5119298Y3440644D01*
X-5147152Y3456726D01*
X-5178219Y3465050D01*
D02*
G37*
G36*
X-7210219D02*
X-7213600D01*
Y3355600D01*
X-7104150D01*
Y3358981D01*
X-7112474Y3390048D01*
X-7128556Y3417902D01*
X-7151298Y3440644D01*
X-7179152Y3456726D01*
X-7210219Y3465050D01*
D02*
G37*
G36*
X-9242219D02*
X-9245600D01*
Y3355600D01*
X-9136150D01*
Y3358981D01*
X-9144474Y3390048D01*
X-9160556Y3417902D01*
X-9183298Y3440644D01*
X-9211152Y3456726D01*
X-9242219Y3465050D01*
D02*
G37*
G36*
X-11274219D02*
X-11277600D01*
Y3355600D01*
X-11168150D01*
Y3358981D01*
X-11176474Y3390048D01*
X-11192556Y3417902D01*
X-11215298Y3440644D01*
X-11243152Y3456726D01*
X-11274219Y3465050D01*
D02*
G37*
G36*
X-13306219D02*
X-13309599D01*
Y3355600D01*
X-13200150D01*
Y3358981D01*
X-13208475Y3390048D01*
X-13224556Y3417902D01*
X-13247298Y3440644D01*
X-13275153Y3456726D01*
X-13306219Y3465050D01*
D02*
G37*
G36*
X889000D02*
X885619D01*
X854552Y3456726D01*
X826698Y3440644D01*
X803956Y3417902D01*
X787874Y3390048D01*
X779550Y3358981D01*
Y3355600D01*
X889000D01*
Y3465050D01*
D02*
G37*
G36*
X-1143000D02*
X-1146381D01*
X-1177448Y3456726D01*
X-1205302Y3440644D01*
X-1228044Y3417902D01*
X-1244126Y3390048D01*
X-1252450Y3358981D01*
Y3355600D01*
X-1143000D01*
Y3465050D01*
D02*
G37*
G36*
X-3175000D02*
X-3178381D01*
X-3209448Y3456726D01*
X-3237302Y3440644D01*
X-3260044Y3417902D01*
X-3276126Y3390048D01*
X-3284450Y3358981D01*
Y3355600D01*
X-3175000D01*
Y3465050D01*
D02*
G37*
G36*
X-5207000D02*
X-5210381D01*
X-5241448Y3456726D01*
X-5269302Y3440644D01*
X-5292044Y3417902D01*
X-5308126Y3390048D01*
X-5316450Y3358981D01*
Y3355600D01*
X-5207000D01*
Y3465050D01*
D02*
G37*
G36*
X-7239000D02*
X-7242381D01*
X-7273448Y3456726D01*
X-7301302Y3440644D01*
X-7324044Y3417902D01*
X-7340126Y3390048D01*
X-7348450Y3358981D01*
Y3355600D01*
X-7239000D01*
Y3465050D01*
D02*
G37*
G36*
X-9271000D02*
X-9274381D01*
X-9305448Y3456726D01*
X-9333302Y3440644D01*
X-9356044Y3417902D01*
X-9372126Y3390048D01*
X-9380450Y3358981D01*
Y3355600D01*
X-9271000D01*
Y3465050D01*
D02*
G37*
G36*
X4953000D02*
X4949619D01*
X4918552Y3456726D01*
X4890698Y3440644D01*
X4867956Y3417902D01*
X4851874Y3390048D01*
X4843550Y3358981D01*
Y3355600D01*
X4953000D01*
Y3465050D01*
D02*
G37*
G36*
X2921000D02*
X2917619D01*
X2886552Y3456726D01*
X2858698Y3440644D01*
X2835956Y3417902D01*
X2819874Y3390048D01*
X2811550Y3358981D01*
Y3355600D01*
X2921000D01*
Y3465050D01*
D02*
G37*
G36*
X-11303000D02*
X-11306381D01*
X-11337448Y3456726D01*
X-11365302Y3440644D01*
X-11388044Y3417902D01*
X-11404126Y3390048D01*
X-11412450Y3358981D01*
Y3355600D01*
X-11303000D01*
Y3465050D01*
D02*
G37*
G36*
X-13335001D02*
X-13338380D01*
X-13369447Y3456726D01*
X-13397302Y3440644D01*
X-13420044Y3417902D01*
X-13436127Y3390048D01*
X-13444450Y3358981D01*
Y3355600D01*
X-13335001D01*
Y3465050D01*
D02*
G37*
G36*
X5087850Y3330200D02*
X4978400D01*
Y3220750D01*
X4981781D01*
X5012848Y3229075D01*
X5040702Y3245156D01*
X5063444Y3267898D01*
X5079526Y3295752D01*
X5087850Y3326819D01*
Y3330200D01*
D02*
G37*
G36*
X4953000D02*
X4843550D01*
Y3326819D01*
X4851874Y3295752D01*
X4867956Y3267898D01*
X4890698Y3245156D01*
X4918552Y3229075D01*
X4949619Y3220750D01*
X4953000D01*
Y3330200D01*
D02*
G37*
G36*
X3055850D02*
X2946400D01*
Y3220750D01*
X2949781D01*
X2980848Y3229075D01*
X3008702Y3245156D01*
X3031444Y3267898D01*
X3047526Y3295752D01*
X3055850Y3326819D01*
Y3330200D01*
D02*
G37*
G36*
X2921000D02*
X2811550D01*
Y3326819D01*
X2819874Y3295752D01*
X2835956Y3267898D01*
X2858698Y3245156D01*
X2886552Y3229075D01*
X2917619Y3220750D01*
X2921000D01*
Y3330200D01*
D02*
G37*
G36*
X1023850D02*
X914400D01*
Y3220750D01*
X917781D01*
X948848Y3229075D01*
X976702Y3245156D01*
X999444Y3267898D01*
X1015526Y3295752D01*
X1023850Y3326819D01*
Y3330200D01*
D02*
G37*
G36*
X889000D02*
X779550D01*
Y3326819D01*
X787874Y3295752D01*
X803956Y3267898D01*
X826698Y3245156D01*
X854552Y3229075D01*
X885619Y3220750D01*
X889000D01*
Y3330200D01*
D02*
G37*
G36*
X-1008150D02*
X-1117600D01*
Y3220750D01*
X-1114219D01*
X-1083152Y3229075D01*
X-1055298Y3245156D01*
X-1032556Y3267898D01*
X-1016474Y3295752D01*
X-1008150Y3326819D01*
Y3330200D01*
D02*
G37*
G36*
X-1143000D02*
X-1252450D01*
Y3326819D01*
X-1244126Y3295752D01*
X-1228044Y3267898D01*
X-1205302Y3245156D01*
X-1177448Y3229075D01*
X-1146381Y3220750D01*
X-1143000D01*
Y3330200D01*
D02*
G37*
G36*
X-3040150D02*
X-3149600D01*
Y3220750D01*
X-3146219D01*
X-3115152Y3229075D01*
X-3087298Y3245156D01*
X-3064556Y3267898D01*
X-3048474Y3295752D01*
X-3040150Y3326819D01*
Y3330200D01*
D02*
G37*
G36*
X-3175000D02*
X-3284450D01*
Y3326819D01*
X-3276126Y3295752D01*
X-3260044Y3267898D01*
X-3237302Y3245156D01*
X-3209448Y3229075D01*
X-3178381Y3220750D01*
X-3175000D01*
Y3330200D01*
D02*
G37*
G36*
X-5072150D02*
X-5181600D01*
Y3220750D01*
X-5178219D01*
X-5147152Y3229075D01*
X-5119298Y3245156D01*
X-5096556Y3267898D01*
X-5080474Y3295752D01*
X-5072150Y3326819D01*
Y3330200D01*
D02*
G37*
G36*
X-5207000D02*
X-5316450D01*
Y3326819D01*
X-5308126Y3295752D01*
X-5292044Y3267898D01*
X-5269302Y3245156D01*
X-5241448Y3229075D01*
X-5210381Y3220750D01*
X-5207000D01*
Y3330200D01*
D02*
G37*
G36*
X-7104150D02*
X-7213600D01*
Y3220750D01*
X-7210219D01*
X-7179152Y3229075D01*
X-7151298Y3245156D01*
X-7128556Y3267898D01*
X-7112474Y3295752D01*
X-7104150Y3326819D01*
Y3330200D01*
D02*
G37*
G36*
X-7239000D02*
X-7348450D01*
Y3326819D01*
X-7340126Y3295752D01*
X-7324044Y3267898D01*
X-7301302Y3245156D01*
X-7273448Y3229075D01*
X-7242381Y3220750D01*
X-7239000D01*
Y3330200D01*
D02*
G37*
G36*
X-9136150D02*
X-9245600D01*
Y3220750D01*
X-9242219D01*
X-9211152Y3229075D01*
X-9183298Y3245156D01*
X-9160556Y3267898D01*
X-9144474Y3295752D01*
X-9136150Y3326819D01*
Y3330200D01*
D02*
G37*
G36*
X-9271000D02*
X-9380450D01*
Y3326819D01*
X-9372126Y3295752D01*
X-9356044Y3267898D01*
X-9333302Y3245156D01*
X-9305448Y3229075D01*
X-9274381Y3220750D01*
X-9271000D01*
Y3330200D01*
D02*
G37*
G36*
X-11168150D02*
X-11277600D01*
Y3220750D01*
X-11274219D01*
X-11243152Y3229075D01*
X-11215298Y3245156D01*
X-11192556Y3267898D01*
X-11176474Y3295752D01*
X-11168150Y3326819D01*
Y3330200D01*
D02*
G37*
G36*
X-11303000D02*
X-11412450D01*
Y3326819D01*
X-11404126Y3295752D01*
X-11388044Y3267898D01*
X-11365302Y3245156D01*
X-11337448Y3229075D01*
X-11306381Y3220750D01*
X-11303000D01*
Y3330200D01*
D02*
G37*
G36*
X-13200150D02*
X-13309599D01*
Y3220750D01*
X-13306219D01*
X-13275153Y3229075D01*
X-13247298Y3245156D01*
X-13224556Y3267898D01*
X-13208475Y3295752D01*
X-13200150Y3326819D01*
Y3330200D01*
D02*
G37*
G36*
X-13335001D02*
X-13444450D01*
Y3326819D01*
X-13436127Y3295752D01*
X-13420044Y3267898D01*
X-13397302Y3245156D01*
X-13369447Y3229075D01*
X-13338380Y3220750D01*
X-13335001D01*
Y3330200D01*
D02*
G37*
G36*
X5532504Y2966900D02*
X5531999D01*
Y2879300D01*
X5619599D01*
Y2879805D01*
X5612763Y2905314D01*
X5599559Y2928186D01*
X5580884Y2946860D01*
X5558013Y2960065D01*
X5532504Y2966900D01*
D02*
G37*
G36*
X5506599D02*
X5506094D01*
X5480584Y2960065D01*
X5457713Y2946860D01*
X5439039Y2928186D01*
X5425834Y2905314D01*
X5418999Y2879805D01*
Y2879300D01*
X5506599D01*
Y2966900D01*
D02*
G37*
G36*
X4969599D02*
X4881999D01*
Y2879300D01*
X4969599D01*
Y2966900D01*
D02*
G37*
G36*
X4856599D02*
X4768999D01*
Y2879300D01*
X4856599D01*
Y2966900D01*
D02*
G37*
G36*
X3447459D02*
X3446955D01*
Y2879300D01*
X3534555D01*
Y2879805D01*
X3527719Y2905314D01*
X3514515Y2928186D01*
X3495840Y2946860D01*
X3472969Y2960065D01*
X3447459Y2966900D01*
D02*
G37*
G36*
X3421555D02*
X3421050D01*
X3395540Y2960065D01*
X3372669Y2946860D01*
X3353995Y2928186D01*
X3340790Y2905314D01*
X3333955Y2879805D01*
Y2879300D01*
X3421555D01*
Y2966900D01*
D02*
G37*
G36*
X2884555D02*
X2796955D01*
Y2879300D01*
X2884555D01*
Y2966900D01*
D02*
G37*
G36*
X2771555D02*
X2683955D01*
Y2879300D01*
X2771555D01*
Y2966900D01*
D02*
G37*
G36*
X1362415D02*
X1361911D01*
Y2879300D01*
X1449511D01*
Y2879805D01*
X1442675Y2905314D01*
X1429471Y2928186D01*
X1410796Y2946860D01*
X1387925Y2960065D01*
X1362415Y2966900D01*
D02*
G37*
G36*
X1336511D02*
X1336006D01*
X1310496Y2960065D01*
X1287625Y2946860D01*
X1268951Y2928186D01*
X1255746Y2905314D01*
X1248911Y2879805D01*
Y2879300D01*
X1336511D01*
Y2966900D01*
D02*
G37*
G36*
X799510D02*
X711910D01*
Y2879300D01*
X799510D01*
Y2966900D01*
D02*
G37*
G36*
X686510D02*
X598910D01*
Y2879300D01*
X686510D01*
Y2966900D01*
D02*
G37*
G36*
X-722629D02*
X-723133D01*
Y2879300D01*
X-635533D01*
Y2879805D01*
X-642369Y2905314D01*
X-655573Y2928186D01*
X-674248Y2946860D01*
X-697119Y2960065D01*
X-722629Y2966900D01*
D02*
G37*
G36*
X-748533D02*
X-749038D01*
X-774548Y2960065D01*
X-797419Y2946860D01*
X-816093Y2928186D01*
X-829298Y2905314D01*
X-836133Y2879805D01*
Y2879300D01*
X-748533D01*
Y2966900D01*
D02*
G37*
G36*
X-1285534D02*
X-1373134D01*
Y2879300D01*
X-1285534D01*
Y2966900D01*
D02*
G37*
G36*
X-1398534D02*
X-1486134D01*
Y2879300D01*
X-1398534D01*
Y2966900D01*
D02*
G37*
G36*
X-2807673D02*
X-2808178D01*
Y2879300D01*
X-2720577D01*
Y2879805D01*
X-2727413Y2905314D01*
X-2740618Y2928186D01*
X-2759292Y2946860D01*
X-2782163Y2960065D01*
X-2807673Y2966900D01*
D02*
G37*
G36*
X-2833578D02*
X-2834082D01*
X-2859592Y2960065D01*
X-2882463Y2946860D01*
X-2901137Y2928186D01*
X-2914342Y2905314D01*
X-2921178Y2879805D01*
Y2879300D01*
X-2833578D01*
Y2966900D01*
D02*
G37*
G36*
X-3370578D02*
X-3458178D01*
Y2879300D01*
X-3370578D01*
Y2966900D01*
D02*
G37*
G36*
X-3483578D02*
X-3571178D01*
Y2879300D01*
X-3483578D01*
Y2966900D01*
D02*
G37*
G36*
X-4892717D02*
X-4893222D01*
Y2879300D01*
X-4805622D01*
Y2879805D01*
X-4812457Y2905314D01*
X-4825662Y2928186D01*
X-4844336Y2946860D01*
X-4867207Y2960065D01*
X-4892717Y2966900D01*
D02*
G37*
G36*
X-4918622D02*
X-4919126D01*
X-4944636Y2960065D01*
X-4967507Y2946860D01*
X-4986182Y2928186D01*
X-4999386Y2905314D01*
X-5006222Y2879805D01*
Y2879300D01*
X-4918622D01*
Y2966900D01*
D02*
G37*
G36*
X-5455622D02*
X-5543222D01*
Y2879300D01*
X-5455622D01*
Y2966900D01*
D02*
G37*
G36*
X-5568622D02*
X-5656222D01*
Y2879300D01*
X-5568622D01*
Y2966900D01*
D02*
G37*
G36*
X-6977761D02*
X-6978266D01*
Y2879300D01*
X-6890666D01*
Y2879805D01*
X-6897501Y2905314D01*
X-6910706Y2928186D01*
X-6929380Y2946860D01*
X-6952251Y2960065D01*
X-6977761Y2966900D01*
D02*
G37*
G36*
X-7003666D02*
X-7004170D01*
X-7029680Y2960065D01*
X-7052551Y2946860D01*
X-7071226Y2928186D01*
X-7084430Y2905314D01*
X-7091266Y2879805D01*
Y2879300D01*
X-7003666D01*
Y2966900D01*
D02*
G37*
G36*
X-7540666D02*
X-7628266D01*
Y2879300D01*
X-7540666D01*
Y2966900D01*
D02*
G37*
G36*
X-7653666D02*
X-7741266D01*
Y2879300D01*
X-7653666D01*
Y2966900D01*
D02*
G37*
G36*
X-9062805D02*
X-9063310D01*
Y2879300D01*
X-8975710D01*
Y2879805D01*
X-8982545Y2905314D01*
X-8995750Y2928186D01*
X-9014424Y2946860D01*
X-9037295Y2960065D01*
X-9062805Y2966900D01*
D02*
G37*
G36*
X-9088710D02*
X-9089214D01*
X-9114724Y2960065D01*
X-9137595Y2946860D01*
X-9156270Y2928186D01*
X-9169474Y2905314D01*
X-9176310Y2879805D01*
Y2879300D01*
X-9088710D01*
Y2966900D01*
D02*
G37*
G36*
X-9625710D02*
X-9713310D01*
Y2879300D01*
X-9625710D01*
Y2966900D01*
D02*
G37*
G36*
X-9738710D02*
X-9826310D01*
Y2879300D01*
X-9738710D01*
Y2966900D01*
D02*
G37*
G36*
X-11147849D02*
X-11148354D01*
Y2879300D01*
X-11060754D01*
Y2879805D01*
X-11067589Y2905314D01*
X-11080794Y2928186D01*
X-11099468Y2946860D01*
X-11122339Y2960065D01*
X-11147849Y2966900D01*
D02*
G37*
G36*
X-11173754D02*
X-11174259D01*
X-11199768Y2960065D01*
X-11222639Y2946860D01*
X-11241314Y2928186D01*
X-11254519Y2905314D01*
X-11261354Y2879805D01*
Y2879300D01*
X-11173754D01*
Y2966900D01*
D02*
G37*
G36*
X-11710754D02*
X-11798354D01*
Y2879300D01*
X-11710754D01*
Y2966900D01*
D02*
G37*
G36*
X-11823754D02*
X-11911354D01*
Y2879300D01*
X-11823754D01*
Y2966900D01*
D02*
G37*
G36*
X-13232893D02*
X-13233398D01*
Y2879300D01*
X-13145798D01*
Y2879805D01*
X-13152634Y2905314D01*
X-13165839Y2928186D01*
X-13184512Y2946860D01*
X-13207384Y2960065D01*
X-13232893Y2966900D01*
D02*
G37*
G36*
X-13258798D02*
X-13259303D01*
X-13284811Y2960065D01*
X-13307684Y2946860D01*
X-13326358Y2928186D01*
X-13339563Y2905314D01*
X-13346397Y2879805D01*
Y2879300D01*
X-13258798D01*
Y2966900D01*
D02*
G37*
G36*
X-13795798D02*
X-13883398D01*
Y2879300D01*
X-13795798D01*
Y2966900D01*
D02*
G37*
G36*
X-13908798D02*
X-13996397D01*
Y2879300D01*
X-13908798D01*
Y2966900D01*
D02*
G37*
G36*
X2372000Y2972500D02*
X2244300D01*
Y2844800D01*
X2372000D01*
Y2972500D01*
D02*
G37*
G36*
X2218900D02*
X2091200D01*
Y2844800D01*
X2218900D01*
Y2972500D01*
D02*
G37*
G36*
X6563000Y2921700D02*
X6435300D01*
Y2794000D01*
X6563000D01*
Y2921700D01*
D02*
G37*
G36*
X6409900D02*
X6282200D01*
Y2794000D01*
X6409900D01*
Y2921700D01*
D02*
G37*
G36*
X-1768200Y2909000D02*
X-1895900D01*
Y2781300D01*
X-1768200D01*
Y2909000D01*
D02*
G37*
G36*
X-1921300D02*
X-2049000D01*
Y2781300D01*
X-1921300D01*
Y2909000D01*
D02*
G37*
G36*
X-3952600D02*
X-4080300D01*
Y2781300D01*
X-3952600D01*
Y2909000D01*
D02*
G37*
G36*
X-4105700D02*
X-4233400D01*
Y2781300D01*
X-4105700D01*
Y2909000D01*
D02*
G37*
G36*
X200300Y2896300D02*
X72600D01*
Y2768600D01*
X200300D01*
Y2896300D01*
D02*
G37*
G36*
X47200D02*
X-80500D01*
Y2768600D01*
X47200D01*
Y2896300D01*
D02*
G37*
G36*
X5619599Y2853900D02*
X5531999D01*
Y2766300D01*
X5532504D01*
X5558013Y2773135D01*
X5580884Y2786340D01*
X5599559Y2805014D01*
X5612763Y2827886D01*
X5619599Y2853395D01*
Y2853900D01*
D02*
G37*
G36*
X5506599D02*
X5418999D01*
Y2853395D01*
X5425834Y2827886D01*
X5439039Y2805014D01*
X5457713Y2786340D01*
X5480584Y2773135D01*
X5506094Y2766300D01*
X5506599D01*
Y2853900D01*
D02*
G37*
G36*
X4969599D02*
X4881999D01*
Y2766300D01*
X4969599D01*
Y2853900D01*
D02*
G37*
G36*
X4856599D02*
X4768999D01*
Y2766300D01*
X4856599D01*
Y2853900D01*
D02*
G37*
G36*
X3534555D02*
X3446955D01*
Y2766300D01*
X3447459D01*
X3472969Y2773135D01*
X3495840Y2786340D01*
X3514515Y2805014D01*
X3527719Y2827886D01*
X3534555Y2853395D01*
Y2853900D01*
D02*
G37*
G36*
X3421555D02*
X3333955D01*
Y2853395D01*
X3340790Y2827886D01*
X3353995Y2805014D01*
X3372669Y2786340D01*
X3395540Y2773135D01*
X3421050Y2766300D01*
X3421555D01*
Y2853900D01*
D02*
G37*
G36*
X2884555D02*
X2796955D01*
Y2766300D01*
X2884555D01*
Y2853900D01*
D02*
G37*
G36*
X2771555D02*
X2683955D01*
Y2766300D01*
X2771555D01*
Y2853900D01*
D02*
G37*
G36*
X1449511D02*
X1361911D01*
Y2766300D01*
X1362415D01*
X1387925Y2773135D01*
X1410796Y2786340D01*
X1429471Y2805014D01*
X1442675Y2827886D01*
X1449511Y2853395D01*
Y2853900D01*
D02*
G37*
G36*
X1336511D02*
X1248911D01*
Y2853395D01*
X1255746Y2827886D01*
X1268951Y2805014D01*
X1287625Y2786340D01*
X1310496Y2773135D01*
X1336006Y2766300D01*
X1336511D01*
Y2853900D01*
D02*
G37*
G36*
X799510D02*
X711910D01*
Y2766300D01*
X799510D01*
Y2853900D01*
D02*
G37*
G36*
X686510D02*
X598910D01*
Y2766300D01*
X686510D01*
Y2853900D01*
D02*
G37*
G36*
X-635533D02*
X-723133D01*
Y2766300D01*
X-722629D01*
X-697119Y2773135D01*
X-674248Y2786340D01*
X-655573Y2805014D01*
X-642369Y2827886D01*
X-635533Y2853395D01*
Y2853900D01*
D02*
G37*
G36*
X-748533D02*
X-836133D01*
Y2853395D01*
X-829298Y2827886D01*
X-816093Y2805014D01*
X-797419Y2786340D01*
X-774548Y2773135D01*
X-749038Y2766300D01*
X-748533D01*
Y2853900D01*
D02*
G37*
G36*
X-1285534D02*
X-1373134D01*
Y2766300D01*
X-1285534D01*
Y2853900D01*
D02*
G37*
G36*
X-1398534D02*
X-1486134D01*
Y2766300D01*
X-1398534D01*
Y2853900D01*
D02*
G37*
G36*
X-2720577D02*
X-2808178D01*
Y2766300D01*
X-2807673D01*
X-2782163Y2773135D01*
X-2759292Y2786340D01*
X-2740618Y2805014D01*
X-2727413Y2827886D01*
X-2720577Y2853395D01*
Y2853900D01*
D02*
G37*
G36*
X-2833578D02*
X-2921178D01*
Y2853395D01*
X-2914342Y2827886D01*
X-2901137Y2805014D01*
X-2882463Y2786340D01*
X-2859592Y2773135D01*
X-2834082Y2766300D01*
X-2833578D01*
Y2853900D01*
D02*
G37*
G36*
X-3370578D02*
X-3458178D01*
Y2766300D01*
X-3370578D01*
Y2853900D01*
D02*
G37*
G36*
X-3483578D02*
X-3571178D01*
Y2766300D01*
X-3483578D01*
Y2853900D01*
D02*
G37*
G36*
X-4805622D02*
X-4893222D01*
Y2766300D01*
X-4892717D01*
X-4867207Y2773135D01*
X-4844336Y2786340D01*
X-4825662Y2805014D01*
X-4812457Y2827886D01*
X-4805622Y2853395D01*
Y2853900D01*
D02*
G37*
G36*
X-4918622D02*
X-5006222D01*
Y2853395D01*
X-4999386Y2827886D01*
X-4986182Y2805014D01*
X-4967507Y2786340D01*
X-4944636Y2773135D01*
X-4919126Y2766300D01*
X-4918622D01*
Y2853900D01*
D02*
G37*
G36*
X-5455622D02*
X-5543222D01*
Y2766300D01*
X-5455622D01*
Y2853900D01*
D02*
G37*
G36*
X-5568622D02*
X-5656222D01*
Y2766300D01*
X-5568622D01*
Y2853900D01*
D02*
G37*
G36*
X-6890666D02*
X-6978266D01*
Y2766300D01*
X-6977761D01*
X-6952251Y2773135D01*
X-6929380Y2786340D01*
X-6910706Y2805014D01*
X-6897501Y2827886D01*
X-6890666Y2853395D01*
Y2853900D01*
D02*
G37*
G36*
X-7003666D02*
X-7091266D01*
Y2853395D01*
X-7084430Y2827886D01*
X-7071226Y2805014D01*
X-7052551Y2786340D01*
X-7029680Y2773135D01*
X-7004170Y2766300D01*
X-7003666D01*
Y2853900D01*
D02*
G37*
G36*
X-7540666D02*
X-7628266D01*
Y2766300D01*
X-7540666D01*
Y2853900D01*
D02*
G37*
G36*
X-7653666D02*
X-7741266D01*
Y2766300D01*
X-7653666D01*
Y2853900D01*
D02*
G37*
G36*
X-8975710D02*
X-9063310D01*
Y2766300D01*
X-9062805D01*
X-9037295Y2773135D01*
X-9014424Y2786340D01*
X-8995750Y2805014D01*
X-8982545Y2827886D01*
X-8975710Y2853395D01*
Y2853900D01*
D02*
G37*
G36*
X-9088710D02*
X-9176310D01*
Y2853395D01*
X-9169474Y2827886D01*
X-9156270Y2805014D01*
X-9137595Y2786340D01*
X-9114724Y2773135D01*
X-9089214Y2766300D01*
X-9088710D01*
Y2853900D01*
D02*
G37*
G36*
X-9625710D02*
X-9713310D01*
Y2766300D01*
X-9625710D01*
Y2853900D01*
D02*
G37*
G36*
X-9738710D02*
X-9826310D01*
Y2766300D01*
X-9738710D01*
Y2853900D01*
D02*
G37*
G36*
X-11060754D02*
X-11148354D01*
Y2766300D01*
X-11147849D01*
X-11122339Y2773135D01*
X-11099468Y2786340D01*
X-11080794Y2805014D01*
X-11067589Y2827886D01*
X-11060754Y2853395D01*
Y2853900D01*
D02*
G37*
G36*
X-11173754D02*
X-11261354D01*
Y2853395D01*
X-11254519Y2827886D01*
X-11241314Y2805014D01*
X-11222639Y2786340D01*
X-11199768Y2773135D01*
X-11174259Y2766300D01*
X-11173754D01*
Y2853900D01*
D02*
G37*
G36*
X-11710754D02*
X-11798354D01*
Y2766300D01*
X-11710754D01*
Y2853900D01*
D02*
G37*
G36*
X-11823754D02*
X-11911354D01*
Y2766300D01*
X-11823754D01*
Y2853900D01*
D02*
G37*
G36*
X-13145798D02*
X-13233398D01*
Y2766300D01*
X-13232893D01*
X-13207384Y2773135D01*
X-13184512Y2786340D01*
X-13165839Y2805014D01*
X-13152634Y2827886D01*
X-13145798Y2853395D01*
Y2853900D01*
D02*
G37*
G36*
X-13258798D02*
X-13346397D01*
Y2853395D01*
X-13339563Y2827886D01*
X-13326358Y2805014D01*
X-13307684Y2786340D01*
X-13284811Y2773135D01*
X-13259303Y2766300D01*
X-13258798D01*
Y2853900D01*
D02*
G37*
G36*
X-13795798D02*
X-13883398D01*
Y2766300D01*
X-13795798D01*
Y2853900D01*
D02*
G37*
G36*
X-13908798D02*
X-13996397D01*
Y2766300D01*
X-13908798D01*
Y2853900D01*
D02*
G37*
G36*
X4509200Y2883600D02*
X4381500D01*
Y2755900D01*
X4509200D01*
Y2883600D01*
D02*
G37*
G36*
X4356100D02*
X4228400D01*
Y2755900D01*
X4356100D01*
Y2883600D01*
D02*
G37*
G36*
X-5924700Y2870900D02*
X-6052400D01*
Y2743200D01*
X-5924700D01*
Y2870900D01*
D02*
G37*
G36*
X-6077800D02*
X-6205500D01*
Y2743200D01*
X-6077800D01*
Y2870900D01*
D02*
G37*
G36*
X-12296500Y2858200D02*
X-12424200D01*
Y2730500D01*
X-12296500D01*
Y2858200D01*
D02*
G37*
G36*
X-12449600D02*
X-12577300D01*
Y2730500D01*
X-12449600D01*
Y2858200D01*
D02*
G37*
G36*
X-8118200Y2845500D02*
X-8245900D01*
Y2717800D01*
X-8118200D01*
Y2845500D01*
D02*
G37*
G36*
X-8271300D02*
X-8399000D01*
Y2717800D01*
X-8271300D01*
Y2845500D01*
D02*
G37*
G36*
X-10124800D02*
X-10252500D01*
Y2717800D01*
X-10124800D01*
Y2845500D01*
D02*
G37*
G36*
X-10277900D02*
X-10405600D01*
Y2717800D01*
X-10277900D01*
Y2845500D01*
D02*
G37*
G36*
X2372000Y2819400D02*
X2244300D01*
Y2691700D01*
X2372000D01*
Y2819400D01*
D02*
G37*
G36*
X2218900D02*
X2091200D01*
Y2691700D01*
X2218900D01*
Y2819400D01*
D02*
G37*
G36*
X6563000Y2768600D02*
X6435300D01*
Y2640900D01*
X6563000D01*
Y2768600D01*
D02*
G37*
G36*
X6409900D02*
X6282200D01*
Y2640900D01*
X6409900D01*
Y2768600D01*
D02*
G37*
G36*
X-1768200Y2755900D02*
X-1895900D01*
Y2628200D01*
X-1768200D01*
Y2755900D01*
D02*
G37*
G36*
X-1921300D02*
X-2049000D01*
Y2628200D01*
X-1921300D01*
Y2755900D01*
D02*
G37*
G36*
X-3952600D02*
X-4080300D01*
Y2628200D01*
X-3952600D01*
Y2755900D01*
D02*
G37*
G36*
X-4105700D02*
X-4233400D01*
Y2628200D01*
X-4105700D01*
Y2755900D01*
D02*
G37*
G36*
X200300Y2743200D02*
X72600D01*
Y2615500D01*
X200300D01*
Y2743200D01*
D02*
G37*
G36*
X47200D02*
X-80500D01*
Y2615500D01*
X47200D01*
Y2743200D01*
D02*
G37*
G36*
X4509200Y2730500D02*
X4381500D01*
Y2602800D01*
X4509200D01*
Y2730500D01*
D02*
G37*
G36*
X4356100D02*
X4228400D01*
Y2602800D01*
X4356100D01*
Y2730500D01*
D02*
G37*
G36*
X-5924700Y2717800D02*
X-6052400D01*
Y2590100D01*
X-5924700D01*
Y2717800D01*
D02*
G37*
G36*
X-6077800D02*
X-6205500D01*
Y2590100D01*
X-6077800D01*
Y2717800D01*
D02*
G37*
G36*
X-12296500Y2705100D02*
X-12424200D01*
Y2577400D01*
X-12296500D01*
Y2705100D01*
D02*
G37*
G36*
X-12449600D02*
X-12577300D01*
Y2577400D01*
X-12449600D01*
Y2705100D01*
D02*
G37*
G36*
X-8118200Y2692400D02*
X-8245900D01*
Y2564700D01*
X-8118200D01*
Y2692400D01*
D02*
G37*
G36*
X-8271300D02*
X-8399000D01*
Y2564700D01*
X-8271300D01*
Y2692400D01*
D02*
G37*
G36*
X-10124800D02*
X-10252500D01*
Y2564700D01*
X-10124800D01*
Y2692400D01*
D02*
G37*
G36*
X-10277900D02*
X-10405600D01*
Y2564700D01*
X-10277900D01*
Y2692400D01*
D02*
G37*
G36*
X-11147849Y2516900D02*
X-11174259D01*
X-11199768Y2510065D01*
X-11222639Y2496860D01*
X-11226849Y2492651D01*
X-11745259D01*
X-11749468Y2496860D01*
X-11772340Y2510065D01*
X-11797849Y2516900D01*
X-11824259D01*
X-11849769Y2510065D01*
X-11872640Y2496860D01*
X-11886378Y2483122D01*
X-12034058D01*
X-12053742Y2480531D01*
X-12072084Y2472933D01*
X-12087834Y2460847D01*
X-12117150Y2431532D01*
X-12128425Y2426862D01*
X-12135543Y2421400D01*
X-12160800D01*
Y2388069D01*
X-12163859Y2380683D01*
X-12166450Y2361000D01*
X-12163859Y2341316D01*
X-12160800Y2333931D01*
Y2300600D01*
X-12135543D01*
X-12128425Y2295138D01*
X-12122957Y2292873D01*
Y2279127D01*
X-12128425Y2276862D01*
X-12135543Y2271400D01*
X-12160800D01*
Y2238069D01*
X-12163859Y2230683D01*
X-12166450Y2211000D01*
Y2118868D01*
X-12163859Y2099184D01*
X-12156262Y2080842D01*
X-12144176Y2065092D01*
X-11894531Y1815447D01*
X-11878780Y1803361D01*
X-11871183Y1800214D01*
X-11860439Y1795764D01*
X-11840755Y1793172D01*
X-11769599D01*
X-11695485Y1719058D01*
X-11700345Y1707325D01*
X-11836200D01*
Y1516525D01*
X-11645400D01*
Y1652380D01*
X-11633667Y1657240D01*
X-11576200Y1599773D01*
Y1599366D01*
X-11569698Y1575102D01*
X-11557139Y1553348D01*
X-11539377Y1535586D01*
X-11517623Y1523027D01*
X-11493360Y1516525D01*
X-11468240D01*
X-11443977Y1523027D01*
X-11422223Y1535586D01*
X-11404461Y1553348D01*
X-11391902Y1575102D01*
X-11385400Y1599366D01*
Y1624485D01*
X-11391902Y1648748D01*
X-11404461Y1670502D01*
X-11422223Y1688264D01*
X-11443977Y1700824D01*
X-11468240Y1707325D01*
X-11468648D01*
X-11684322Y1922999D01*
X-11700073Y1935085D01*
X-11718414Y1942682D01*
X-11738098Y1945274D01*
X-11809254D01*
X-11898147Y2034167D01*
X-11893287Y2045900D01*
X-11760800D01*
Y2139519D01*
X-11749938Y2153675D01*
X-11746791Y2161272D01*
X-11742341Y2172016D01*
X-11739749Y2191700D01*
Y2340549D01*
X-11226849D01*
X-11222639Y2336340D01*
X-11199768Y2323135D01*
X-11174259Y2316300D01*
X-11147849D01*
X-11122339Y2323135D01*
X-11099468Y2336340D01*
X-11080794Y2355014D01*
X-11067589Y2377886D01*
X-11060754Y2403395D01*
Y2429805D01*
X-11067589Y2455314D01*
X-11080794Y2478186D01*
X-11099468Y2496860D01*
X-11122339Y2510065D01*
X-11147849Y2516900D01*
D02*
G37*
G36*
X6988000Y2515200D02*
X6677200D01*
Y2468646D01*
X6440200D01*
X6425334Y2465689D01*
X6420710Y2462600D01*
X6272200D01*
Y2261800D01*
X6473000D01*
Y2390953D01*
X6677200D01*
Y2344400D01*
X6988000D01*
Y2515200D01*
D02*
G37*
G36*
X5532504Y2516900D02*
X5506094D01*
X5480584Y2510065D01*
X5457713Y2496860D01*
X5439039Y2478186D01*
X5425834Y2455314D01*
X5418999Y2429805D01*
Y2403395D01*
X5425834Y2377886D01*
X5439039Y2355014D01*
X5457713Y2336340D01*
X5480584Y2323135D01*
X5506094Y2316300D01*
X5532504D01*
X5558013Y2323135D01*
X5580884Y2336340D01*
X5599559Y2355014D01*
X5612763Y2377886D01*
X5619599Y2403395D01*
Y2429805D01*
X5612763Y2455314D01*
X5599559Y2478186D01*
X5580884Y2496860D01*
X5558013Y2510065D01*
X5532504Y2516900D01*
D02*
G37*
G36*
X3447459D02*
X3421050D01*
X3395540Y2510065D01*
X3372669Y2496860D01*
X3353995Y2478186D01*
X3340790Y2455314D01*
X3333955Y2429805D01*
Y2403395D01*
X3340790Y2377886D01*
X3353995Y2355014D01*
X3372669Y2336340D01*
X3395540Y2323135D01*
X3421050Y2316300D01*
X3447459D01*
X3472969Y2323135D01*
X3495840Y2336340D01*
X3514515Y2355014D01*
X3527719Y2377886D01*
X3534555Y2403395D01*
Y2429805D01*
X3527719Y2455314D01*
X3514515Y2478186D01*
X3495840Y2496860D01*
X3472969Y2510065D01*
X3447459Y2516900D01*
D02*
G37*
G36*
X1362415D02*
X1336006D01*
X1310496Y2510065D01*
X1287625Y2496860D01*
X1268951Y2478186D01*
X1255746Y2455314D01*
X1248911Y2429805D01*
Y2403395D01*
X1255746Y2377886D01*
X1268951Y2355014D01*
X1287625Y2336340D01*
X1310496Y2323135D01*
X1336006Y2316300D01*
X1362415D01*
X1387925Y2323135D01*
X1410796Y2336340D01*
X1429471Y2355014D01*
X1442675Y2377886D01*
X1449511Y2403395D01*
Y2429805D01*
X1442675Y2455314D01*
X1429471Y2478186D01*
X1410796Y2496860D01*
X1387925Y2510065D01*
X1362415Y2516900D01*
D02*
G37*
G36*
X-722629D02*
X-749038D01*
X-774548Y2510065D01*
X-797419Y2496860D01*
X-816093Y2478186D01*
X-829298Y2455314D01*
X-836133Y2429805D01*
Y2403395D01*
X-829298Y2377886D01*
X-816093Y2355014D01*
X-797419Y2336340D01*
X-774548Y2323135D01*
X-749038Y2316300D01*
X-722629D01*
X-697119Y2323135D01*
X-674248Y2336340D01*
X-655573Y2355014D01*
X-642369Y2377886D01*
X-635533Y2403395D01*
Y2429805D01*
X-642369Y2455314D01*
X-655573Y2478186D01*
X-674248Y2496860D01*
X-697119Y2510065D01*
X-722629Y2516900D01*
D02*
G37*
G36*
X-2807673D02*
X-2834082D01*
X-2859592Y2510065D01*
X-2882463Y2496860D01*
X-2901137Y2478186D01*
X-2914342Y2455314D01*
X-2921178Y2429805D01*
Y2403395D01*
X-2914342Y2377886D01*
X-2901137Y2355014D01*
X-2882463Y2336340D01*
X-2859592Y2323135D01*
X-2834082Y2316300D01*
X-2807673D01*
X-2782163Y2323135D01*
X-2759292Y2336340D01*
X-2740618Y2355014D01*
X-2727413Y2377886D01*
X-2720577Y2403395D01*
Y2429805D01*
X-2727413Y2455314D01*
X-2740618Y2478186D01*
X-2759292Y2496860D01*
X-2782163Y2510065D01*
X-2807673Y2516900D01*
D02*
G37*
G36*
X-4892717D02*
X-4919126D01*
X-4944636Y2510065D01*
X-4967507Y2496860D01*
X-4986182Y2478186D01*
X-4999386Y2455314D01*
X-5006222Y2429805D01*
Y2403395D01*
X-4999386Y2377886D01*
X-4986182Y2355014D01*
X-4967507Y2336340D01*
X-4944636Y2323135D01*
X-4919126Y2316300D01*
X-4892717D01*
X-4867207Y2323135D01*
X-4844336Y2336340D01*
X-4825662Y2355014D01*
X-4812457Y2377886D01*
X-4805622Y2403395D01*
Y2429805D01*
X-4812457Y2455314D01*
X-4825662Y2478186D01*
X-4844336Y2496860D01*
X-4867207Y2510065D01*
X-4892717Y2516900D01*
D02*
G37*
G36*
X-9062805D02*
X-9089214D01*
X-9114724Y2510065D01*
X-9137595Y2496860D01*
X-9156270Y2478186D01*
X-9169474Y2455314D01*
X-9176310Y2429805D01*
Y2403395D01*
X-9169474Y2377886D01*
X-9156270Y2355014D01*
X-9137595Y2336340D01*
X-9114724Y2323135D01*
X-9089214Y2316300D01*
X-9062805D01*
X-9037295Y2323135D01*
X-9014424Y2336340D01*
X-8995750Y2355014D01*
X-8982545Y2377886D01*
X-8975710Y2403395D01*
Y2429805D01*
X-8982545Y2455314D01*
X-8995750Y2478186D01*
X-9014424Y2496860D01*
X-9037295Y2510065D01*
X-9062805Y2516900D01*
D02*
G37*
G36*
X-13232893D02*
X-13259303D01*
X-13284811Y2510065D01*
X-13307684Y2496860D01*
X-13326358Y2478186D01*
X-13339563Y2455314D01*
X-13346397Y2429805D01*
Y2403395D01*
X-13339563Y2377886D01*
X-13326358Y2355014D01*
X-13307684Y2336340D01*
X-13284811Y2323135D01*
X-13259303Y2316300D01*
X-13232893D01*
X-13207384Y2323135D01*
X-13184512Y2336340D01*
X-13165839Y2355014D01*
X-13152634Y2377886D01*
X-13145798Y2403395D01*
Y2429805D01*
X-13152634Y2455314D01*
X-13165839Y2478186D01*
X-13184512Y2496860D01*
X-13207384Y2510065D01*
X-13232893Y2516900D01*
D02*
G37*
G36*
X-5542717D02*
X-5569127D01*
X-5594636Y2510065D01*
X-5617507Y2496860D01*
X-5636182Y2478186D01*
X-5649386Y2455314D01*
X-5656222Y2429805D01*
Y2403395D01*
X-5649386Y2377886D01*
X-5641501Y2364228D01*
Y2246700D01*
X-5656218D01*
X-5664200Y2247751D01*
X-5854700D01*
X-5874383Y2245159D01*
X-5892725Y2237562D01*
X-5899843Y2232100D01*
X-5925100D01*
Y2198769D01*
X-5928159Y2191383D01*
X-5930751Y2171700D01*
X-5928159Y2152017D01*
X-5925100Y2144631D01*
Y2111300D01*
X-5899843D01*
X-5892725Y2105838D01*
X-5874383Y2098241D01*
X-5854700Y2095649D01*
X-5713200D01*
Y2045900D01*
X-5512400D01*
Y2139148D01*
X-5511675Y2139874D01*
X-5499588Y2155624D01*
X-5491991Y2173966D01*
X-5489400Y2193650D01*
Y2341276D01*
X-5475662Y2355014D01*
X-5462457Y2377886D01*
X-5455622Y2403395D01*
Y2429805D01*
X-5462457Y2455314D01*
X-5475662Y2478186D01*
X-5494336Y2496860D01*
X-5517207Y2510065D01*
X-5542717Y2516900D01*
D02*
G37*
G36*
X5524418Y2246700D02*
X5497982D01*
X5472447Y2239858D01*
X5449553Y2226640D01*
X5430860Y2207947D01*
X5417642Y2185053D01*
X5410800Y2159518D01*
Y2133082D01*
X5417642Y2107547D01*
X5430860Y2084653D01*
X5449553Y2065960D01*
X5472447Y2052742D01*
X5497982Y2045900D01*
X5524418D01*
X5549953Y2052742D01*
X5572847Y2065960D01*
X5591540Y2084653D01*
X5604758Y2107547D01*
X5611600Y2133082D01*
Y2159518D01*
X5604758Y2185053D01*
X5591540Y2207947D01*
X5572847Y2226640D01*
X5549953Y2239858D01*
X5524418Y2246700D01*
D02*
G37*
G36*
X-7627761Y2516900D02*
X-7654171D01*
X-7679680Y2510065D01*
X-7702552Y2496860D01*
X-7721226Y2478186D01*
X-7734431Y2455314D01*
X-7741266Y2429805D01*
Y2403395D01*
X-7741204Y2403164D01*
X-7746249Y2390984D01*
X-7748841Y2371300D01*
Y2246700D01*
X-7796000D01*
Y2222351D01*
X-7987100D01*
X-8006783Y2219759D01*
X-8025125Y2212162D01*
X-8040875Y2200076D01*
X-8048152Y2192800D01*
X-8071400D01*
Y2159469D01*
X-8074459Y2152083D01*
X-8077050Y2132400D01*
X-8074459Y2112717D01*
X-8071400Y2105330D01*
Y2072000D01*
X-8046143D01*
X-8039025Y2066538D01*
X-8020683Y2058941D01*
X-8009600Y2057482D01*
X-8004840Y2056854D01*
Y2044045D01*
X-8014299Y2042800D01*
X-8071400D01*
Y1995570D01*
X-8074459Y1988183D01*
X-8077051Y1968500D01*
Y1866900D01*
X-8074459Y1847217D01*
X-8066862Y1828875D01*
X-8054776Y1813124D01*
X-7965876Y1724224D01*
X-7950125Y1712138D01*
X-7931783Y1704541D01*
X-7912100Y1701949D01*
X-7696000D01*
Y1517500D01*
X-7505200D01*
Y1653355D01*
X-7493467Y1658215D01*
X-7436000Y1600748D01*
Y1600340D01*
X-7429498Y1576077D01*
X-7416939Y1554323D01*
X-7399177Y1536561D01*
X-7377423Y1524002D01*
X-7353160Y1517500D01*
X-7328040D01*
X-7303777Y1524002D01*
X-7282023Y1536561D01*
X-7264261Y1554323D01*
X-7251702Y1576077D01*
X-7245200Y1600340D01*
Y1625460D01*
X-7251702Y1649723D01*
X-7264261Y1671477D01*
X-7282023Y1689239D01*
X-7303777Y1701798D01*
X-7328040Y1708300D01*
X-7328448D01*
X-7451924Y1831776D01*
X-7467675Y1843862D01*
X-7486017Y1851459D01*
X-7505700Y1854051D01*
X-7880599D01*
X-7924949Y1898401D01*
Y1968500D01*
X-7927541Y1988183D01*
X-7930600Y1995569D01*
Y2042800D01*
X-7987701D01*
X-7997160Y2044045D01*
Y2056854D01*
X-7992400Y2057482D01*
X-7981317Y2058941D01*
X-7962974Y2066538D01*
X-7958138Y2070249D01*
X-7796000D01*
Y2045900D01*
X-7595200D01*
Y2246700D01*
X-7596739D01*
Y2326318D01*
X-7579380Y2336340D01*
X-7560706Y2355014D01*
X-7547501Y2377886D01*
X-7540666Y2403395D01*
Y2429805D01*
X-7547501Y2455314D01*
X-7560706Y2478186D01*
X-7579380Y2496860D01*
X-7602251Y2510065D01*
X-7627761Y2516900D01*
D02*
G37*
G36*
X6988000Y2075200D02*
X6845300D01*
Y2002500D01*
X6988000D01*
Y2075200D01*
D02*
G37*
G36*
X6819900D02*
X6677200D01*
Y2002500D01*
X6819900D01*
Y2075200D01*
D02*
G37*
G36*
X6988000Y1977100D02*
X6845300D01*
Y1904400D01*
X6988000D01*
Y1977100D01*
D02*
G37*
G36*
X6477000Y1963300D02*
X6334300D01*
Y1895600D01*
X6477000D01*
Y1963300D01*
D02*
G37*
G36*
X6819900Y1977100D02*
X6677200D01*
Y1964047D01*
X6532000D01*
X6528246Y1963300D01*
X6502400D01*
Y1882900D01*
Y1802500D01*
X6645100D01*
Y1886354D01*
X6698001D01*
X6712866Y1889311D01*
X6725469Y1897732D01*
X6732138Y1904400D01*
X6819900D01*
Y1977100D01*
D02*
G37*
G36*
X6477000Y1870200D02*
X6334300D01*
Y1802500D01*
X6477000D01*
Y1870200D01*
D02*
G37*
G36*
X3833500Y1835700D02*
X3785799D01*
Y1777999D01*
X3833500D01*
Y1835700D01*
D02*
G37*
G36*
X1699900Y1797600D02*
X1652199D01*
Y1739899D01*
X1699900D01*
Y1797600D01*
D02*
G37*
G36*
X-2440300Y1772200D02*
X-2488000D01*
Y1714500D01*
X-2440300D01*
Y1772200D01*
D02*
G37*
G36*
X-6618600D02*
X-6666300D01*
Y1714500D01*
X-6618600D01*
Y1772200D01*
D02*
G37*
G36*
X-2513400D02*
X-2561100D01*
Y1714500D01*
X-2513400D01*
Y1772200D01*
D02*
G37*
G36*
X-6691700D02*
X-6739400D01*
Y1714500D01*
X-6691700D01*
Y1772200D01*
D02*
G37*
G36*
X4354900Y2234000D02*
X4154100D01*
Y2075054D01*
X4153353Y2071300D01*
Y2060490D01*
X3928563Y1835700D01*
X3862700D01*
Y1694900D01*
X3983500D01*
Y1780763D01*
X4219668Y2016931D01*
X4228089Y2029534D01*
X4228819Y2033200D01*
X4354900D01*
Y2234000D01*
D02*
G37*
G36*
X3833500Y1752599D02*
X3785799D01*
Y1694900D01*
X3833500D01*
Y1752599D01*
D02*
G37*
G36*
X-10848900Y1734100D02*
X-10896600D01*
Y1676400D01*
X-10848900D01*
Y1734100D01*
D02*
G37*
G36*
X-10922000D02*
X-10969700D01*
Y1676400D01*
X-10922000D01*
Y1734100D01*
D02*
G37*
G36*
X-12931700Y1721400D02*
X-12979401D01*
Y1663700D01*
X-12931700D01*
Y1721400D01*
D02*
G37*
G36*
X-8739500Y1721400D02*
X-8787200D01*
Y1663700D01*
X-8739500D01*
Y1721400D01*
D02*
G37*
G36*
X-8812600D02*
X-8860300D01*
Y1663700D01*
X-8812600D01*
Y1721400D01*
D02*
G37*
G36*
X2218500Y2348300D02*
X2017700D01*
Y2147500D01*
X2079253D01*
Y2081890D01*
X1794963Y1797600D01*
X1729100D01*
Y1656800D01*
X1849900D01*
Y1742663D01*
X2145568Y2038331D01*
X2153989Y2050934D01*
X2156946Y2065800D01*
Y2147500D01*
X2218500D01*
Y2348300D01*
D02*
G37*
G36*
X1699900Y1714499D02*
X1652199D01*
Y1656800D01*
X1699900D01*
Y1714499D01*
D02*
G37*
G36*
X1626799D02*
X1579100D01*
Y1656800D01*
X1626799D01*
Y1714499D01*
D02*
G37*
G36*
X72200Y2310200D02*
X-128600D01*
Y2109400D01*
X-64247D01*
Y2084691D01*
X-351337Y1797600D01*
X-417200D01*
Y1656800D01*
X-296400D01*
Y1742663D01*
X2069Y2041131D01*
X10489Y2053734D01*
X13447Y2068600D01*
Y2109400D01*
X72200D01*
Y2310200D01*
D02*
G37*
G36*
X-446400Y1714500D02*
X-494100D01*
Y1656800D01*
X-446400D01*
Y1714500D01*
D02*
G37*
G36*
X-1883600Y2284800D02*
X-2084400D01*
Y2084000D01*
X-2050030D01*
X-2045170Y2072267D01*
X-2345237Y1772200D01*
X-2411100D01*
Y1631400D01*
X-2290300D01*
Y1717263D01*
X-1956532Y2051031D01*
X-1948111Y2063634D01*
X-1945154Y2078500D01*
Y2084000D01*
X-1883600D01*
Y2284800D01*
D02*
G37*
G36*
X-2440300Y1689100D02*
X-2488000D01*
Y1631400D01*
X-2440300D01*
Y1689100D01*
D02*
G37*
G36*
X-2513400D02*
X-2561100D01*
Y1631400D01*
X-2513400D01*
Y1689100D01*
D02*
G37*
G36*
X-6074600Y2259400D02*
X-6275400D01*
Y2058600D01*
X-6213847D01*
Y1930991D01*
X-6371891Y1772946D01*
X-6506700D01*
X-6510454Y1772200D01*
X-6589400D01*
Y1631400D01*
X-6468600D01*
Y1695253D01*
X-6355800D01*
X-6340934Y1698210D01*
X-6328332Y1706631D01*
X-6147532Y1887431D01*
X-6139111Y1900034D01*
X-6136154Y1914900D01*
Y2058600D01*
X-6074600D01*
Y2259400D01*
D02*
G37*
G36*
X-6618600Y1689100D02*
X-6666300D01*
Y1631400D01*
X-6618600D01*
Y1689100D01*
D02*
G37*
G36*
X-6691700D02*
X-6739400D01*
Y1631400D01*
X-6691700D01*
Y1689100D01*
D02*
G37*
G36*
X-4106100Y2284800D02*
X-4306900D01*
Y2084000D01*
X-4245347D01*
Y2031090D01*
X-4516937Y1759500D01*
X-4582800D01*
Y1618700D01*
X-4462000D01*
Y1704563D01*
X-4179032Y1987531D01*
X-4170611Y2000134D01*
X-4167654Y2015000D01*
Y2084000D01*
X-4106100D01*
Y2284800D01*
D02*
G37*
G36*
X-4612000Y1676400D02*
X-4659700D01*
Y1618700D01*
X-4612000D01*
Y1676400D01*
D02*
G37*
G36*
X-4685100D02*
X-4732800D01*
Y1618700D01*
X-4685100D01*
Y1676400D01*
D02*
G37*
G36*
X-10278300Y2234000D02*
X-10479100D01*
Y2033200D01*
X-10427447D01*
Y2020047D01*
X-10441800D01*
X-10456666Y2017089D01*
X-10469269Y2008669D01*
X-10743837Y1734100D01*
X-10819700D01*
Y1593300D01*
X-10698900D01*
Y1669163D01*
X-10425709Y1942353D01*
X-10403479D01*
X-10388613Y1945311D01*
X-10376010Y1953731D01*
X-10361131Y1968610D01*
X-10352711Y1981213D01*
X-10349753Y1996079D01*
Y2033200D01*
X-10278300D01*
Y2234000D01*
D02*
G37*
G36*
X-10848900Y1651000D02*
X-10896600D01*
Y1593300D01*
X-10848900D01*
Y1651000D01*
D02*
G37*
G36*
X-10922000D02*
X-10969700D01*
Y1593300D01*
X-10922000D01*
Y1651000D01*
D02*
G37*
G36*
X-12424600Y2221300D02*
X-12625400D01*
Y2020500D01*
X-12561047D01*
Y1996991D01*
X-12836636Y1721400D01*
X-12902499D01*
Y1580600D01*
X-12781700D01*
Y1666463D01*
X-12494731Y1953431D01*
X-12486311Y1966034D01*
X-12483353Y1980900D01*
Y2020500D01*
X-12424600D01*
Y2221300D01*
D02*
G37*
G36*
X-12931700Y1638300D02*
X-12979401D01*
Y1580600D01*
X-12931700D01*
Y1638300D01*
D02*
G37*
G36*
X-13004800D02*
X-13052499D01*
Y1580600D01*
X-13004800D01*
Y1638300D01*
D02*
G37*
G36*
X-8271700Y2208600D02*
X-8472500D01*
Y2007800D01*
X-8408147D01*
Y1957691D01*
X-8644437Y1721400D01*
X-8710300D01*
Y1580600D01*
X-8589500D01*
Y1666463D01*
X-8341831Y1914131D01*
X-8333411Y1926734D01*
X-8330453Y1941600D01*
Y2007800D01*
X-8271700D01*
Y2208600D01*
D02*
G37*
G36*
X-8739500Y1638300D02*
X-8787200D01*
Y1580600D01*
X-8739500D01*
Y1638300D01*
D02*
G37*
G36*
X-8812600D02*
X-8860300D01*
Y1580600D01*
X-8812600D01*
Y1638300D01*
D02*
G37*
G36*
X5582078Y3667300D02*
X5549322D01*
X5517683Y3658822D01*
X5489317Y3642445D01*
X5466155Y3619283D01*
X5449778Y3590917D01*
X5441300Y3559278D01*
Y3526522D01*
X5449778Y3494883D01*
X5466155Y3466517D01*
X5489317Y3443355D01*
X5489649Y3443163D01*
Y3188200D01*
X5492241Y3168516D01*
X5499838Y3150175D01*
X5511924Y3134424D01*
X5832200Y2814148D01*
Y2640900D01*
X5921549D01*
Y2387200D01*
X5922200Y2382257D01*
Y2261800D01*
X5927949D01*
Y2168701D01*
X5454848Y1695600D01*
X5454440D01*
X5430177Y1689098D01*
X5408423Y1676539D01*
X5390661Y1658777D01*
X5378102Y1637023D01*
X5371600Y1612760D01*
Y1587640D01*
X5378102Y1563377D01*
X5390661Y1541623D01*
X5408423Y1523861D01*
X5430177Y1511302D01*
X5454440Y1504800D01*
X5479560D01*
X5503823Y1511302D01*
X5525577Y1523861D01*
X5543339Y1541623D01*
X5555898Y1563377D01*
X5562400Y1587640D01*
Y1588048D01*
X6057776Y2083424D01*
X6069862Y2099175D01*
X6073009Y2106772D01*
X6077459Y2117516D01*
X6080051Y2137200D01*
Y2261800D01*
X6123000D01*
Y2462600D01*
X6073651D01*
Y2640900D01*
X6113000D01*
Y2921700D01*
X5939752D01*
X5641751Y3219701D01*
Y3443163D01*
X5642083Y3443355D01*
X5665245Y3466517D01*
X5681622Y3494883D01*
X5690100Y3526522D01*
Y3559278D01*
X5681622Y3590917D01*
X5665245Y3619283D01*
X5642083Y3642445D01*
X5613717Y3658822D01*
X5582078Y3667300D01*
D02*
G37*
G36*
X-5854700Y2082651D02*
X-5858883Y2082100D01*
X-5925100D01*
Y2033669D01*
X-5928159Y2026283D01*
X-5930751Y2006600D01*
Y1950879D01*
X-5928159Y1931195D01*
X-5920562Y1912853D01*
X-5908476Y1897103D01*
X-5849897Y1838524D01*
X-5834147Y1826438D01*
X-5826549Y1823291D01*
X-5815805Y1818841D01*
X-5796121Y1816249D01*
X-5543301D01*
X-5434385Y1707333D01*
X-5439245Y1695600D01*
X-5575100D01*
Y1504800D01*
X-5384300D01*
Y1640655D01*
X-5372567Y1645515D01*
X-5315100Y1588048D01*
Y1587640D01*
X-5308598Y1563377D01*
X-5296039Y1541623D01*
X-5278277Y1523861D01*
X-5256523Y1511302D01*
X-5232260Y1504800D01*
X-5207140D01*
X-5182877Y1511302D01*
X-5161123Y1523861D01*
X-5143361Y1541623D01*
X-5130802Y1563377D01*
X-5124300Y1587640D01*
Y1612760D01*
X-5130802Y1637023D01*
X-5143361Y1658777D01*
X-5161123Y1676539D01*
X-5182877Y1689098D01*
X-5207140Y1695600D01*
X-5207548D01*
X-5458024Y1946076D01*
X-5473775Y1958162D01*
X-5492117Y1965759D01*
X-5511800Y1968351D01*
X-5764620D01*
X-5778649Y1982380D01*
Y2006600D01*
X-5781241Y2026283D01*
X-5784300Y2033669D01*
Y2082100D01*
X-5850517D01*
X-5854700Y2082651D01*
D02*
G37*
G36*
X-14192599Y-3621400D02*
X-14505299D01*
Y-3934100D01*
X-14192599D01*
Y-3621400D01*
D02*
G37*
G36*
X-14530701D02*
X-14843401D01*
Y-3934100D01*
X-14530701D01*
Y-3621400D01*
D02*
G37*
G36*
X-14192599Y-3959500D02*
X-14505299D01*
Y-4272200D01*
X-14192599D01*
Y-3959500D01*
D02*
G37*
G36*
X-14530701D02*
X-14843401D01*
Y-4272200D01*
X-14530701D01*
Y-3959500D01*
D02*
G37*
%LPD*%
G36*
X-11891851Y2246700D02*
X-11961600D01*
Y2114213D01*
X-11973333Y2109353D01*
X-12014349Y2150369D01*
Y2211000D01*
X-12016940Y2230683D01*
X-12020000Y2238069D01*
Y2271400D01*
X-12045257D01*
X-12052374Y2276862D01*
X-12052708Y2277000D01*
X-12054018Y2284066D01*
X-12052708Y2290746D01*
X-12042105Y2295138D01*
X-12034987Y2300600D01*
X-12020000D01*
Y2313578D01*
X-12002557Y2331021D01*
X-11891851D01*
Y2246700D01*
D02*
G37*
%LPC*%
G36*
X4934300Y1587500D02*
X4851600D01*
Y1504800D01*
X4934300D01*
Y1587500D01*
D02*
G37*
G36*
X5145100Y1116400D02*
X5057400D01*
Y1028700D01*
X5145100D01*
Y1116400D01*
D02*
G37*
G36*
X5032000D02*
X4944300D01*
Y1028700D01*
X5032000D01*
Y1116400D01*
D02*
G37*
G36*
X5145100Y1003300D02*
X5057400D01*
Y915600D01*
X5145100D01*
Y1003300D01*
D02*
G37*
G36*
X5032000D02*
X4944300D01*
Y915600D01*
X5032000D01*
Y1003300D01*
D02*
G37*
G36*
X7035800Y749033D02*
Y673100D01*
X7111733D01*
X7105942Y694714D01*
X7094238Y714986D01*
X7077686Y731538D01*
X7057414Y743242D01*
X7035800Y749033D01*
D02*
G37*
G36*
X7010400D02*
X6988786Y743242D01*
X6968514Y731538D01*
X6951962Y714986D01*
X6940258Y694714D01*
X6934467Y673100D01*
X7010400D01*
Y749033D01*
D02*
G37*
G36*
X6354761D02*
Y673100D01*
X6430694D01*
X6424902Y694714D01*
X6413199Y714986D01*
X6396647Y731538D01*
X6376375Y743242D01*
X6354761Y749033D01*
D02*
G37*
G36*
X6329361D02*
X6307747Y743242D01*
X6287475Y731538D01*
X6270923Y714986D01*
X6259219Y694714D01*
X6253428Y673100D01*
X6329361D01*
Y749033D01*
D02*
G37*
G36*
X5686423D02*
Y673100D01*
X5762357D01*
X5756565Y694714D01*
X5744861Y714986D01*
X5728309Y731538D01*
X5708038Y743242D01*
X5686423Y749033D01*
D02*
G37*
G36*
X5661023D02*
X5639409Y743242D01*
X5619138Y731538D01*
X5602586Y714986D01*
X5590882Y694714D01*
X5585090Y673100D01*
X5661023D01*
Y749033D01*
D02*
G37*
G36*
X5018086D02*
Y673100D01*
X5094019D01*
X5088228Y694714D01*
X5076524Y714986D01*
X5059972Y731538D01*
X5039700Y743242D01*
X5018086Y749033D01*
D02*
G37*
G36*
X4992686D02*
X4971072Y743242D01*
X4950800Y731538D01*
X4934248Y714986D01*
X4922545Y694714D01*
X4916753Y673100D01*
X4992686D01*
Y749033D01*
D02*
G37*
G36*
X4349749D02*
Y673100D01*
X4425682D01*
X4419891Y694714D01*
X4408187Y714986D01*
X4391635Y731538D01*
X4371363Y743242D01*
X4349749Y749033D01*
D02*
G37*
G36*
X4324349D02*
X4302735Y743242D01*
X4282463Y731538D01*
X4265911Y714986D01*
X4254207Y694714D01*
X4248416Y673100D01*
X4324349D01*
Y749033D01*
D02*
G37*
G36*
X3681412D02*
Y673100D01*
X3757345D01*
X3751553Y694714D01*
X3739850Y714986D01*
X3723298Y731538D01*
X3703026Y743242D01*
X3681412Y749033D01*
D02*
G37*
G36*
X3656012D02*
X3634398Y743242D01*
X3614126Y731538D01*
X3597574Y714986D01*
X3585870Y694714D01*
X3580079Y673100D01*
X3656012D01*
Y749033D01*
D02*
G37*
G36*
X2344737D02*
Y673100D01*
X2420670D01*
X2414879Y694714D01*
X2403175Y714986D01*
X2386623Y731538D01*
X2366351Y743242D01*
X2344737Y749033D01*
D02*
G37*
G36*
X2319337D02*
X2297723Y743242D01*
X2277451Y731538D01*
X2260899Y714986D01*
X2249196Y694714D01*
X2243404Y673100D01*
X2319337D01*
Y749033D01*
D02*
G37*
G36*
X1676400D02*
Y673100D01*
X1752333D01*
X1746542Y694714D01*
X1734838Y714986D01*
X1718286Y731538D01*
X1698014Y743242D01*
X1676400Y749033D01*
D02*
G37*
G36*
X1651000D02*
X1629386Y743242D01*
X1609114Y731538D01*
X1592562Y714986D01*
X1580858Y694714D01*
X1575067Y673100D01*
X1651000D01*
Y749033D01*
D02*
G37*
G36*
X7111733Y647700D02*
X7035800D01*
Y571767D01*
X7057414Y577558D01*
X7077686Y589262D01*
X7094238Y605814D01*
X7105942Y626086D01*
X7111733Y647700D01*
D02*
G37*
G36*
X7010400D02*
X6934467D01*
X6940258Y626086D01*
X6951962Y605814D01*
X6968514Y589262D01*
X6988786Y577558D01*
X7010400Y571767D01*
Y647700D01*
D02*
G37*
G36*
X6430694D02*
X6354761D01*
Y571767D01*
X6376375Y577558D01*
X6396647Y589262D01*
X6413199Y605814D01*
X6424902Y626086D01*
X6430694Y647700D01*
D02*
G37*
G36*
X6329361D02*
X6253428D01*
X6259219Y626086D01*
X6270923Y605814D01*
X6287475Y589262D01*
X6307747Y577558D01*
X6329361Y571767D01*
Y647700D01*
D02*
G37*
G36*
X5762357D02*
X5686423D01*
Y571767D01*
X5708038Y577558D01*
X5728309Y589262D01*
X5744861Y605814D01*
X5756565Y626086D01*
X5762357Y647700D01*
D02*
G37*
G36*
X5661023D02*
X5585090D01*
X5590882Y626086D01*
X5602586Y605814D01*
X5619138Y589262D01*
X5639409Y577558D01*
X5661023Y571767D01*
Y647700D01*
D02*
G37*
G36*
X5094019D02*
X5018086D01*
Y571767D01*
X5039700Y577558D01*
X5059972Y589262D01*
X5076524Y605814D01*
X5088228Y626086D01*
X5094019Y647700D01*
D02*
G37*
G36*
X4992686D02*
X4916753D01*
X4922545Y626086D01*
X4934248Y605814D01*
X4950800Y589262D01*
X4971072Y577558D01*
X4992686Y571767D01*
Y647700D01*
D02*
G37*
G36*
X4425682D02*
X4349749D01*
Y571767D01*
X4371363Y577558D01*
X4391635Y589262D01*
X4408187Y605814D01*
X4419891Y626086D01*
X4425682Y647700D01*
D02*
G37*
G36*
X4324349D02*
X4248416D01*
X4254207Y626086D01*
X4265911Y605814D01*
X4282463Y589262D01*
X4302735Y577558D01*
X4324349Y571767D01*
Y647700D01*
D02*
G37*
G36*
X3757345D02*
X3681412D01*
Y571767D01*
X3703026Y577558D01*
X3723298Y589262D01*
X3739850Y605814D01*
X3751553Y626086D01*
X3757345Y647700D01*
D02*
G37*
G36*
X3656012D02*
X3580079D01*
X3585870Y626086D01*
X3597574Y605814D01*
X3614126Y589262D01*
X3634398Y577558D01*
X3656012Y571767D01*
Y647700D01*
D02*
G37*
G36*
X2420670D02*
X2344737D01*
Y571767D01*
X2366351Y577558D01*
X2386623Y589262D01*
X2403175Y605814D01*
X2414879Y626086D01*
X2420670Y647700D01*
D02*
G37*
G36*
X2319337D02*
X2243404D01*
X2249196Y626086D01*
X2260899Y605814D01*
X2277451Y589262D01*
X2297723Y577558D01*
X2319337Y571767D01*
Y647700D01*
D02*
G37*
G36*
X1752333D02*
X1676400D01*
Y571767D01*
X1698014Y577558D01*
X1718286Y589262D01*
X1734838Y605814D01*
X1746542Y626086D01*
X1752333Y647700D01*
D02*
G37*
G36*
X1651000D02*
X1575067D01*
X1580858Y626086D01*
X1592562Y605814D01*
X1609114Y589262D01*
X1629386Y577558D01*
X1651000Y571767D01*
Y647700D01*
D02*
G37*
G36*
X7035800Y25133D02*
Y-50800D01*
X7111733D01*
X7105942Y-29186D01*
X7094238Y-8914D01*
X7077686Y7638D01*
X7057414Y19342D01*
X7035800Y25133D01*
D02*
G37*
G36*
X7010400D02*
X6988786Y19342D01*
X6968514Y7638D01*
X6951962Y-8914D01*
X6940258Y-29186D01*
X6934467Y-50800D01*
X7010400D01*
Y25133D01*
D02*
G37*
G36*
X7111733Y-76200D02*
X7035800D01*
Y-152133D01*
X7057414Y-146342D01*
X7077686Y-134638D01*
X7094238Y-118086D01*
X7105942Y-97814D01*
X7111733Y-76200D01*
D02*
G37*
G36*
X7010400D02*
X6934467D01*
X6940258Y-97814D01*
X6951962Y-118086D01*
X6968514Y-134638D01*
X6988786Y-146342D01*
X7010400Y-152133D01*
Y-76200D01*
D02*
G37*
G36*
X1498460Y273200D02*
X1473340D01*
X1449077Y266698D01*
X1427323Y254139D01*
X1409561Y236377D01*
X1397002Y214623D01*
X1390500Y190360D01*
Y165240D01*
X1397002Y140977D01*
X1409561Y119223D01*
X1427323Y101461D01*
X1440579Y93808D01*
Y-149132D01*
X1444029Y-166475D01*
X1453853Y-181178D01*
X1475875Y-203200D01*
X1453853Y-225222D01*
X1444029Y-239925D01*
X1440579Y-257268D01*
Y-500208D01*
X1427323Y-507861D01*
X1409561Y-525623D01*
X1397002Y-547377D01*
X1390500Y-571640D01*
Y-596760D01*
X1397002Y-621023D01*
X1409561Y-642777D01*
X1427323Y-660539D01*
X1449077Y-673098D01*
X1473340Y-679600D01*
X1498460D01*
X1522723Y-673098D01*
X1544477Y-660539D01*
X1562239Y-642777D01*
X1574798Y-621023D01*
X1581300Y-596760D01*
Y-571640D01*
X1574798Y-547377D01*
X1562239Y-525623D01*
X1544477Y-507861D01*
X1531221Y-500208D01*
Y-280271D01*
X1849402D01*
X1866746Y-276821D01*
X1881449Y-266997D01*
X1944375Y-204071D01*
X2200194D01*
X2203532Y-209851D01*
X2206034Y-216771D01*
X2199600Y-240782D01*
Y-267218D01*
X2206442Y-292753D01*
X2219660Y-315647D01*
X2238353Y-334340D01*
X2261247Y-347558D01*
X2286782Y-354400D01*
X2313218D01*
X2338753Y-347558D01*
X2361647Y-334340D01*
X2380340Y-315647D01*
X2393558Y-292753D01*
X2400400Y-267218D01*
Y-240782D01*
X2393966Y-216771D01*
X2396468Y-209851D01*
X2399805Y-204071D01*
X4383052D01*
X4400396Y-200621D01*
X4415099Y-190797D01*
X4490725Y-115171D01*
X6434236D01*
X6443981Y-127871D01*
X6438500Y-148327D01*
Y-181873D01*
X6447182Y-214275D01*
X6463955Y-243325D01*
X6487675Y-267045D01*
X6508380Y-279000D01*
X6504977Y-291700D01*
X6438500D01*
Y-406400D01*
X6565900D01*
X6693300D01*
Y-291700D01*
X6626823D01*
X6623420Y-279000D01*
X6644125Y-267045D01*
X6667845Y-243325D01*
X6684618Y-214275D01*
X6693300Y-181873D01*
Y-148327D01*
X6684618Y-115925D01*
X6667845Y-86875D01*
X6644125Y-63155D01*
X6615075Y-46382D01*
X6607864Y-44450D01*
Y-31750D01*
X6615075Y-29818D01*
X6644125Y-13045D01*
X6667845Y10675D01*
X6684618Y39725D01*
X6693300Y72127D01*
Y105673D01*
X6684618Y138075D01*
X6667845Y167125D01*
X6644125Y190845D01*
X6615075Y207618D01*
X6582673Y216300D01*
X6549127D01*
X6516725Y207618D01*
X6487675Y190845D01*
X6463955Y167125D01*
X6447182Y138075D01*
X6438500Y105673D01*
Y72127D01*
X6443981Y51671D01*
X6434236Y38971D01*
X4445651D01*
X4445650Y38971D01*
X4428306Y35521D01*
X4413603Y25697D01*
X4413603Y25696D01*
X4337977Y-49929D01*
X2400400D01*
Y100400D01*
X2199600D01*
Y-49929D01*
X1899300D01*
X1881956Y-53379D01*
X1867253Y-63203D01*
X1804327Y-126129D01*
X1531221D01*
Y93808D01*
X1544477Y101461D01*
X1562239Y119223D01*
X1574798Y140977D01*
X1581300Y165240D01*
Y190360D01*
X1574798Y214623D01*
X1562239Y236377D01*
X1544477Y254139D01*
X1522723Y266698D01*
X1498460Y273200D01*
D02*
G37*
G36*
X6693300Y-431800D02*
X6578600D01*
Y-546500D01*
X6693300D01*
Y-431800D01*
D02*
G37*
G36*
X6553200D02*
X6438500D01*
Y-546500D01*
X6553200D01*
Y-431800D01*
D02*
G37*
G36*
X7035800Y-698767D02*
Y-774700D01*
X7111733D01*
X7105942Y-753086D01*
X7094238Y-732814D01*
X7077686Y-716262D01*
X7057414Y-704558D01*
X7035800Y-698767D01*
D02*
G37*
G36*
X7010400D02*
X6988786Y-704558D01*
X6968514Y-716262D01*
X6951962Y-732814D01*
X6940258Y-753086D01*
X6934467Y-774700D01*
X7010400D01*
Y-698767D01*
D02*
G37*
G36*
X6299198D02*
Y-774700D01*
X6375131D01*
X6369340Y-753086D01*
X6357636Y-732814D01*
X6341084Y-716262D01*
X6320812Y-704558D01*
X6299198Y-698767D01*
D02*
G37*
G36*
X6273798D02*
X6252184Y-704558D01*
X6231912Y-716262D01*
X6215360Y-732814D01*
X6203657Y-753086D01*
X6197865Y-774700D01*
X6273798D01*
Y-698767D01*
D02*
G37*
G36*
X5638798D02*
Y-774700D01*
X5714732D01*
X5708940Y-753086D01*
X5697236Y-732814D01*
X5680684Y-716262D01*
X5660413Y-704558D01*
X5638798Y-698767D01*
D02*
G37*
G36*
X5613398D02*
X5591784Y-704558D01*
X5571513Y-716262D01*
X5554961Y-732814D01*
X5543257Y-753086D01*
X5537465Y-774700D01*
X5613398D01*
Y-698767D01*
D02*
G37*
G36*
X4978399D02*
Y-774700D01*
X5054332D01*
X5048540Y-753086D01*
X5036837Y-732814D01*
X5020285Y-716262D01*
X5000013Y-704558D01*
X4978399Y-698767D01*
D02*
G37*
G36*
X4952999D02*
X4931385Y-704558D01*
X4911113Y-716262D01*
X4894561Y-732814D01*
X4882857Y-753086D01*
X4877066Y-774700D01*
X4952999D01*
Y-698767D01*
D02*
G37*
G36*
X4317999D02*
Y-774700D01*
X4393932D01*
X4388141Y-753086D01*
X4376437Y-732814D01*
X4359885Y-716262D01*
X4339613Y-704558D01*
X4317999Y-698767D01*
D02*
G37*
G36*
X4292599D02*
X4270985Y-704558D01*
X4250713Y-716262D01*
X4234161Y-732814D01*
X4222457Y-753086D01*
X4216666Y-774700D01*
X4292599D01*
Y-698767D01*
D02*
G37*
G36*
X3657599D02*
Y-774700D01*
X3733532D01*
X3727741Y-753086D01*
X3716037Y-732814D01*
X3699485Y-716262D01*
X3679213Y-704558D01*
X3657599Y-698767D01*
D02*
G37*
G36*
X3632199D02*
X3610585Y-704558D01*
X3590313Y-716262D01*
X3573761Y-732814D01*
X3562058Y-753086D01*
X3556266Y-774700D01*
X3632199D01*
Y-698767D01*
D02*
G37*
G36*
X2997199D02*
Y-774700D01*
X3073133D01*
X3067341Y-753086D01*
X3055637Y-732814D01*
X3039085Y-716262D01*
X3018814Y-704558D01*
X2997199Y-698767D01*
D02*
G37*
G36*
X2971799D02*
X2950185Y-704558D01*
X2929914Y-716262D01*
X2913362Y-732814D01*
X2901658Y-753086D01*
X2895866Y-774700D01*
X2971799D01*
Y-698767D01*
D02*
G37*
G36*
X2336800D02*
Y-774700D01*
X2412733D01*
X2406941Y-753086D01*
X2395238Y-732814D01*
X2378686Y-716262D01*
X2358414Y-704558D01*
X2336800Y-698767D01*
D02*
G37*
G36*
X2311400D02*
X2289786Y-704558D01*
X2269514Y-716262D01*
X2252962Y-732814D01*
X2241258Y-753086D01*
X2235467Y-774700D01*
X2311400D01*
Y-698767D01*
D02*
G37*
G36*
X7111733Y-800100D02*
X7035800D01*
Y-876033D01*
X7057414Y-870242D01*
X7077686Y-858538D01*
X7094238Y-841986D01*
X7105942Y-821714D01*
X7111733Y-800100D01*
D02*
G37*
G36*
X7010400D02*
X6934467D01*
X6940258Y-821714D01*
X6951962Y-841986D01*
X6968514Y-858538D01*
X6988786Y-870242D01*
X7010400Y-876033D01*
Y-800100D01*
D02*
G37*
G36*
X6375131D02*
X6299198D01*
Y-876033D01*
X6320812Y-870242D01*
X6341084Y-858538D01*
X6357636Y-841986D01*
X6369340Y-821714D01*
X6375131Y-800100D01*
D02*
G37*
G36*
X6273798D02*
X6197865D01*
X6203657Y-821714D01*
X6215360Y-841986D01*
X6231912Y-858538D01*
X6252184Y-870242D01*
X6273798Y-876033D01*
Y-800100D01*
D02*
G37*
G36*
X5714732D02*
X5638798D01*
Y-876033D01*
X5660413Y-870242D01*
X5680684Y-858538D01*
X5697236Y-841986D01*
X5708940Y-821714D01*
X5714732Y-800100D01*
D02*
G37*
G36*
X5613398D02*
X5537465D01*
X5543257Y-821714D01*
X5554961Y-841986D01*
X5571513Y-858538D01*
X5591784Y-870242D01*
X5613398Y-876033D01*
Y-800100D01*
D02*
G37*
G36*
X5054332D02*
X4978399D01*
Y-876033D01*
X5000013Y-870242D01*
X5020285Y-858538D01*
X5036837Y-841986D01*
X5048540Y-821714D01*
X5054332Y-800100D01*
D02*
G37*
G36*
X4952999D02*
X4877066D01*
X4882857Y-821714D01*
X4894561Y-841986D01*
X4911113Y-858538D01*
X4931385Y-870242D01*
X4952999Y-876033D01*
Y-800100D01*
D02*
G37*
G36*
X4393932D02*
X4317999D01*
Y-876033D01*
X4339613Y-870242D01*
X4359885Y-858538D01*
X4376437Y-841986D01*
X4388141Y-821714D01*
X4393932Y-800100D01*
D02*
G37*
G36*
X4292599D02*
X4216666D01*
X4222457Y-821714D01*
X4234161Y-841986D01*
X4250713Y-858538D01*
X4270985Y-870242D01*
X4292599Y-876033D01*
Y-800100D01*
D02*
G37*
G36*
X3733532D02*
X3657599D01*
Y-876033D01*
X3679213Y-870242D01*
X3699485Y-858538D01*
X3716037Y-841986D01*
X3727741Y-821714D01*
X3733532Y-800100D01*
D02*
G37*
G36*
X3632199D02*
X3556266D01*
X3562058Y-821714D01*
X3573761Y-841986D01*
X3590313Y-858538D01*
X3610585Y-870242D01*
X3632199Y-876033D01*
Y-800100D01*
D02*
G37*
G36*
X3073133D02*
X2997199D01*
Y-876033D01*
X3018814Y-870242D01*
X3039085Y-858538D01*
X3055637Y-841986D01*
X3067341Y-821714D01*
X3073133Y-800100D01*
D02*
G37*
G36*
X2971799D02*
X2895866D01*
X2901658Y-821714D01*
X2913362Y-841986D01*
X2929914Y-858538D01*
X2950185Y-870242D01*
X2971799Y-876033D01*
Y-800100D01*
D02*
G37*
G36*
X2412733D02*
X2336800D01*
Y-876033D01*
X2358414Y-870242D01*
X2378686Y-858538D01*
X2395238Y-841986D01*
X2406941Y-821714D01*
X2412733Y-800100D01*
D02*
G37*
G36*
X2311400D02*
X2235467D01*
X2241258Y-821714D01*
X2252962Y-841986D01*
X2269514Y-858538D01*
X2289786Y-870242D01*
X2311400Y-876033D01*
Y-800100D01*
D02*
G37*
G36*
X-9706900Y-2239200D02*
X-10019600D01*
Y-2551900D01*
X-9706900D01*
Y-2239200D01*
D02*
G37*
G36*
X-10045000D02*
X-10357700D01*
Y-2551900D01*
X-10045000D01*
Y-2239200D01*
D02*
G37*
G36*
X-8064500Y-5486100D02*
X-8065216D01*
X-8091132Y-5493044D01*
X-8114368Y-5506460D01*
X-8133340Y-5525432D01*
X-8146756Y-5548668D01*
X-8153700Y-5574584D01*
Y-5575300D01*
X-8064500D01*
Y-5486100D01*
D02*
G37*
G36*
X-3755300Y-7927500D02*
X-3867999D01*
Y-8040200D01*
X-3755300D01*
Y-7927500D01*
D02*
G37*
G36*
X-3893399D02*
X-4006100D01*
Y-8040200D01*
X-3893399D01*
Y-7927500D01*
D02*
G37*
G36*
X-3755300Y-8065600D02*
X-3867999D01*
Y-8178300D01*
X-3755300D01*
Y-8065600D01*
D02*
G37*
G36*
X-3893399D02*
X-4006100D01*
Y-8178300D01*
X-3893399D01*
Y-8065600D01*
D02*
G37*
G36*
X-2438800Y-8664200D02*
X-2751499D01*
Y-8976900D01*
X-2438800D01*
Y-8664200D01*
D02*
G37*
G36*
X-2776899D02*
X-3089600D01*
Y-8976900D01*
X-2776899D01*
Y-8664200D01*
D02*
G37*
G36*
X-2438800Y-9002300D02*
X-2751499D01*
Y-9315000D01*
X-2438800D01*
Y-9002300D01*
D02*
G37*
G36*
X-2776899D02*
X-3089600D01*
Y-9315000D01*
X-2776899D01*
Y-9002300D01*
D02*
G37*
G36*
X-5411400Y-5686800D02*
X-5499100D01*
Y-5774500D01*
X-5411400D01*
Y-5686800D01*
D02*
G37*
G36*
X-5524500D02*
X-5612200D01*
Y-5774500D01*
X-5524500D01*
Y-5686800D01*
D02*
G37*
G36*
X-5441400Y-5946700D02*
X-5499100D01*
Y-5994400D01*
X-5441400D01*
Y-5946700D01*
D02*
G37*
G36*
X-5524500D02*
X-5582200D01*
Y-5994400D01*
X-5524500D01*
Y-5946700D01*
D02*
G37*
G36*
X-5441400Y-6019800D02*
X-5499100D01*
Y-6067500D01*
X-5441400D01*
Y-6019800D01*
D02*
G37*
G36*
X-5524500D02*
X-5582200D01*
Y-6067500D01*
X-5524500D01*
Y-6019800D01*
D02*
G37*
G36*
X-5411400Y-5223700D02*
X-5499100D01*
Y-5311400D01*
X-5411400D01*
Y-5223700D01*
D02*
G37*
G36*
X-5524500D02*
X-5612200D01*
Y-5311400D01*
X-5524500D01*
Y-5223700D01*
D02*
G37*
G36*
X-5411400Y-5336800D02*
X-5499100D01*
Y-5424500D01*
X-5411400D01*
Y-5336800D01*
D02*
G37*
G36*
X-5524500D02*
X-5612200D01*
Y-5424500D01*
X-5524500D01*
Y-5336800D01*
D02*
G37*
G36*
X-4561900Y-5679300D02*
X-4673600D01*
Y-5791000D01*
X-4561900D01*
Y-5679300D01*
D02*
G37*
G36*
X-4699000D02*
X-4810700D01*
Y-5791000D01*
X-4699000D01*
Y-5679300D01*
D02*
G37*
G36*
X-4561900Y-5816400D02*
X-4673600D01*
Y-5928100D01*
X-4561900D01*
Y-5816400D01*
D02*
G37*
G36*
X-4699000D02*
X-4810700D01*
Y-5928100D01*
X-4699000D01*
Y-5816400D01*
D02*
G37*
G36*
X-8038384Y-3708100D02*
X-8065216D01*
X-8091132Y-3715044D01*
X-8114368Y-3728460D01*
X-8133340Y-3747432D01*
X-8146756Y-3770668D01*
X-8153700Y-3796584D01*
Y-3823416D01*
X-8146756Y-3849332D01*
X-8133340Y-3872568D01*
X-8114368Y-3891540D01*
X-8091132Y-3904956D01*
X-8065216Y-3911900D01*
X-8038384D01*
X-8012468Y-3904956D01*
X-7989232Y-3891540D01*
X-7970260Y-3872568D01*
X-7956844Y-3849332D01*
X-7949900Y-3823416D01*
Y-3796584D01*
X-7956844Y-3770668D01*
X-7970260Y-3747432D01*
X-7989232Y-3728460D01*
X-8012468Y-3715044D01*
X-8038384Y-3708100D01*
D02*
G37*
G36*
Y-3962100D02*
X-8039100D01*
Y-4051300D01*
X-7949900D01*
Y-4050584D01*
X-7956844Y-4024668D01*
X-7970260Y-4001432D01*
X-7989232Y-3982460D01*
X-8012468Y-3969044D01*
X-8038384Y-3962100D01*
D02*
G37*
G36*
X-8064500D02*
X-8065216D01*
X-8091132Y-3969044D01*
X-8114368Y-3982460D01*
X-8133340Y-4001432D01*
X-8146756Y-4024668D01*
X-8153700Y-4050584D01*
Y-4051300D01*
X-8064500D01*
Y-3962100D01*
D02*
G37*
G36*
X-7949900Y-4076700D02*
X-8039100D01*
Y-4165900D01*
X-8038384D01*
X-8012468Y-4158956D01*
X-7989232Y-4145540D01*
X-7970260Y-4126568D01*
X-7956844Y-4103332D01*
X-7949900Y-4077416D01*
Y-4076700D01*
D02*
G37*
G36*
X-8064500D02*
X-8153700D01*
Y-4077416D01*
X-8146756Y-4103332D01*
X-8133340Y-4126568D01*
X-8114368Y-4145540D01*
X-8091132Y-4158956D01*
X-8065216Y-4165900D01*
X-8064500D01*
Y-4076700D01*
D02*
G37*
G36*
X-8237926Y-6884600D02*
X-8325625D01*
Y-6972300D01*
X-8237926D01*
Y-6884600D01*
D02*
G37*
G36*
Y-6997700D02*
X-8325625D01*
Y-7085400D01*
X-8237926D01*
Y-6997700D01*
D02*
G37*
G36*
X-4655300Y-6477500D02*
X-4768001D01*
Y-6590200D01*
X-4655300D01*
Y-6477500D01*
D02*
G37*
G36*
X-4793401D02*
X-4906100D01*
Y-6590200D01*
X-4793401D01*
Y-6477500D01*
D02*
G37*
G36*
X-4655300Y-6615600D02*
X-4768001D01*
Y-6728300D01*
X-4655300D01*
Y-6615600D01*
D02*
G37*
G36*
X-4793401D02*
X-4906100D01*
Y-6728300D01*
X-4793401D01*
Y-6615600D01*
D02*
G37*
G36*
X-4655300Y-7927500D02*
X-4768001D01*
Y-8040200D01*
X-4655300D01*
Y-7927500D01*
D02*
G37*
G36*
X-4793401D02*
X-4906100D01*
Y-8040200D01*
X-4793401D01*
Y-7927500D01*
D02*
G37*
G36*
X-4655300Y-8065600D02*
X-4768001D01*
Y-8178300D01*
X-4655300D01*
Y-8065600D01*
D02*
G37*
G36*
X-4793401D02*
X-4906100D01*
Y-8178300D01*
X-4793401D01*
Y-8065600D01*
D02*
G37*
G36*
X-3496901Y-8664200D02*
X-3509810D01*
X-3560398Y-8672213D01*
X-3609110Y-8688040D01*
X-3654747Y-8711293D01*
X-3696184Y-8741399D01*
X-3732401Y-8777616D01*
X-3762507Y-8819053D01*
X-3785760Y-8864690D01*
X-3801588Y-8913402D01*
X-3809600Y-8963990D01*
Y-8976900D01*
X-3496901D01*
Y-8664200D01*
D02*
G37*
G36*
Y-9002300D02*
X-3809600D01*
Y-9015210D01*
X-3801588Y-9065798D01*
X-3785760Y-9114510D01*
X-3762507Y-9160147D01*
X-3732401Y-9201584D01*
X-3696184Y-9237801D01*
X-3654747Y-9267907D01*
X-3609110Y-9291160D01*
X-3560398Y-9306987D01*
X-3509810Y-9315000D01*
X-3496901D01*
Y-9002300D01*
D02*
G37*
G36*
X-8587926Y-6884600D02*
X-8675626D01*
Y-6972300D01*
X-8587926D01*
Y-6884600D01*
D02*
G37*
G36*
X-8701026D02*
X-8788725D01*
Y-6972300D01*
X-8701026D01*
Y-6884600D01*
D02*
G37*
G36*
X-8587926Y-6997700D02*
X-8675626D01*
Y-7085400D01*
X-8587926D01*
Y-6997700D01*
D02*
G37*
G36*
X-8701026D02*
X-8788725D01*
Y-7085400D01*
X-8701026D01*
Y-6997700D01*
D02*
G37*
G36*
X-7279700Y-8613000D02*
X-7391400D01*
Y-8724700D01*
X-7279700D01*
Y-8613000D01*
D02*
G37*
G36*
X-7416800D02*
X-7528500D01*
Y-8724700D01*
X-7416800D01*
Y-8613000D01*
D02*
G37*
G36*
X-7279700Y-8750100D02*
X-7391400D01*
Y-8861800D01*
X-7279700D01*
Y-8750100D01*
D02*
G37*
G36*
X-7416800D02*
X-7528500D01*
Y-8861800D01*
X-7416800D01*
Y-8750100D01*
D02*
G37*
G36*
X-9706900Y-7481100D02*
X-10019600D01*
Y-7793800D01*
X-9706900D01*
Y-7481100D01*
D02*
G37*
G36*
X-10045000D02*
X-10357700D01*
Y-7793800D01*
X-10045000D01*
Y-7481100D01*
D02*
G37*
G36*
X-9706900Y-7819200D02*
X-10019600D01*
Y-8131900D01*
X-9706900D01*
Y-7819200D01*
D02*
G37*
G36*
X-10045000D02*
X-10357700D01*
Y-8131900D01*
X-10045000D01*
Y-7819200D01*
D02*
G37*
G36*
X-11525300Y-9048800D02*
X-11620500D01*
Y-9144000D01*
X-11525300D01*
Y-9048800D01*
D02*
G37*
G36*
X-11645900D02*
X-11741100D01*
Y-9144000D01*
X-11645900D01*
Y-9048800D01*
D02*
G37*
G36*
X-11525300Y-9169400D02*
X-11620500D01*
Y-9264600D01*
X-11525300D01*
Y-9169400D01*
D02*
G37*
G36*
X-11645900D02*
X-11741100D01*
Y-9264600D01*
X-11645900D01*
Y-9169400D01*
D02*
G37*
G36*
X100400Y354400D02*
X12700D01*
Y266700D01*
X100400D01*
Y354400D01*
D02*
G37*
G36*
X-12700D02*
X-100400D01*
Y266700D01*
X-12700D01*
Y354400D01*
D02*
G37*
G36*
X-5441400Y-6169800D02*
X-5499100D01*
Y-6217500D01*
X-5441400D01*
Y-6169800D01*
D02*
G37*
G36*
X-5524500D02*
X-5582200D01*
Y-6217500D01*
X-5524500D01*
Y-6169800D01*
D02*
G37*
G36*
X-7387722Y-6429000D02*
X-7391400D01*
Y-6540700D01*
X-7279700D01*
Y-6537022D01*
X-7288178Y-6505383D01*
X-7304555Y-6477017D01*
X-7327717Y-6453855D01*
X-7356083Y-6437478D01*
X-7387722Y-6429000D01*
D02*
G37*
G36*
X-7416800D02*
X-7420478D01*
X-7452117Y-6437478D01*
X-7480483Y-6453855D01*
X-7503645Y-6477017D01*
X-7520022Y-6505383D01*
X-7528500Y-6537022D01*
Y-6540700D01*
X-7416800D01*
Y-6429000D01*
D02*
G37*
G36*
X-3755300Y-6477500D02*
X-3867999D01*
Y-6590200D01*
X-3755300D01*
Y-6477500D01*
D02*
G37*
G36*
X-3893399D02*
X-4006100D01*
Y-6590200D01*
X-3893399D01*
Y-6477500D01*
D02*
G37*
G36*
X-7279700Y-6566100D02*
X-7391400D01*
Y-6677800D01*
X-7387722D01*
X-7356083Y-6669322D01*
X-7327717Y-6652945D01*
X-7304555Y-6629783D01*
X-7288178Y-6601417D01*
X-7279700Y-6569778D01*
Y-6566100D01*
D02*
G37*
G36*
X-7416800D02*
X-7528500D01*
Y-6569778D01*
X-7520022Y-6601417D01*
X-7503645Y-6629783D01*
X-7480483Y-6652945D01*
X-7452117Y-6669322D01*
X-7420478Y-6677800D01*
X-7416800D01*
Y-6566100D01*
D02*
G37*
G36*
X-3893399Y-6615600D02*
X-4006100D01*
Y-6728300D01*
X-3893399D01*
Y-6615600D01*
D02*
G37*
G36*
X-3755300D02*
X-3867999D01*
Y-6728300D01*
X-3797153D01*
X-3793400Y-6729046D01*
X-3789647Y-6728300D01*
X-3755300D01*
Y-6693953D01*
X-3754553Y-6690200D01*
X-3755300Y-6686447D01*
D01*
Y-6615600D01*
D02*
G37*
G36*
X-12476900Y-7481100D02*
X-12789600D01*
Y-7793800D01*
X-12476900D01*
Y-7481100D01*
D02*
G37*
G36*
X-12814999D02*
X-13127699D01*
Y-7793800D01*
X-12814999D01*
Y-7481100D01*
D02*
G37*
G36*
X-12476900Y-7819200D02*
X-12789600D01*
Y-8131900D01*
X-12476900D01*
Y-7819200D01*
D02*
G37*
G36*
X-12814999D02*
X-13127699D01*
Y-8131900D01*
X-12814999D01*
Y-7819200D01*
D02*
G37*
G36*
X-11110995Y-9048800D02*
X-11112500D01*
Y-9144000D01*
X-11017300D01*
Y-9142495D01*
X-11024653Y-9115052D01*
X-11038859Y-9090448D01*
X-11058948Y-9070359D01*
X-11083552Y-9056153D01*
X-11110995Y-9048800D01*
D02*
G37*
G36*
X-11137900D02*
X-11139405D01*
X-11166848Y-9056153D01*
X-11191452Y-9070359D01*
X-11211541Y-9090448D01*
X-11225747Y-9115052D01*
X-11233100Y-9142495D01*
Y-9144000D01*
X-11137900D01*
Y-9048800D01*
D02*
G37*
G36*
X-11017300Y-9169400D02*
X-11112500D01*
Y-9264600D01*
X-11110995D01*
X-11083552Y-9257247D01*
X-11058948Y-9243041D01*
X-11038859Y-9222952D01*
X-11024653Y-9198348D01*
X-11017300Y-9170905D01*
Y-9169400D01*
D02*
G37*
G36*
X-11137900D02*
X-11233100D01*
Y-9170905D01*
X-11225747Y-9198348D01*
X-11211541Y-9222952D01*
X-11191452Y-9243041D01*
X-11166848Y-9257247D01*
X-11139405Y-9264600D01*
X-11137900D01*
Y-9169400D01*
D02*
G37*
%LPD*%
D10*
X-5067300Y1610584D02*
G03*
X-5067300Y1589816I107600J-10384D01*
G01*
X-3779400Y99421D02*
X-3764521Y114300D01*
X76200D02*
X431800Y-241300D01*
X-3779400Y-114300D02*
Y99421D01*
X-3764521Y114300D02*
X76200D01*
X1790700Y1738400D02*
X2118100Y2065800D01*
Y2247900D01*
X1790700Y1727200D02*
Y1738400D01*
X-14947900Y1041400D02*
X-12319000Y-1587500D01*
X-6551171Y-2616200D02*
X-6540500D01*
X-13842999Y-139700D02*
X-12094300Y-1888400D01*
X-14922501Y-139700D02*
X-13842999D01*
X-12319000Y-1587500D02*
X-6908800D01*
X-12094300Y-1888400D02*
X-8923700D01*
X-5067300Y1589816D02*
X-5067300Y711200D01*
X-5049400Y571500D02*
Y693300D01*
X-5067300Y711200D02*
X-5049400Y693300D01*
Y571500D02*
X-5003800D01*
X-5049400Y-114300D02*
Y571500D01*
X-5067300Y1610584D02*
Y1694504D01*
X-5001252Y1760551D02*
X-4902200Y1859603D01*
X-5067300Y1694504D02*
X-5001253Y1760551D01*
X-4902800Y1892300D02*
Y2120300D01*
X-5001253Y1760551D02*
X-5001252D01*
X-4902200Y1859603D02*
Y1892300D01*
X-4279900Y596900D02*
Y711200D01*
Y-106800D02*
Y596900D01*
X-4249347D02*
X-4185847Y660400D01*
X-4279900Y596900D02*
X-4249347D01*
X-4185847Y660400D02*
X-4152900D01*
X-4541400Y-114300D02*
Y741800D01*
X-4490647Y584200D02*
X-4414447Y660400D01*
X-4533900Y584200D02*
X-4490647D01*
X-4414447Y660400D02*
X-4406900D01*
X-4795400Y-114300D02*
Y805300D01*
X-4744647Y736600D02*
X-4668447Y660400D01*
X-4660900D01*
X-4787900Y736600D02*
X-4744647D01*
X-5003800Y571500D02*
X-4914900Y660400D01*
X-5303400Y-114300D02*
Y998100D01*
X-5295900Y596900D02*
X-5265347D01*
X-5201847Y660400D02*
X-5168900D01*
X-5265347Y596900D02*
X-5201847Y660400D01*
X-5557400Y-114300D02*
Y934600D01*
X-5549900Y660400D02*
X-5422900D01*
X-5811400Y-114300D02*
Y744100D01*
X-5803900Y736600D02*
X-5760647D01*
X-5684447Y660400D02*
X-5676900D01*
X-5760647Y736600D02*
X-5684447Y660400D01*
X-6324600Y495300D02*
X-6319400Y490100D01*
X-6642100Y812800D02*
X-6324600Y495300D01*
X-6096000D01*
X-5930900Y660400D01*
X-3797300Y927100D02*
X2705577D01*
X-4033400Y-114300D02*
Y691000D01*
X-3797300Y927100D01*
X-13437100Y1050242D02*
X-13199658Y812800D01*
X-6642100D01*
X-11328900Y1567149D02*
X-10853951Y1092200D01*
X-6159500D01*
X-5811400Y744100D01*
X-9296400Y1580323D02*
X-9011477Y1295400D01*
X-5918200D01*
X-5557400Y934600D01*
X-6319400Y-114300D02*
Y490100D01*
X-3898900Y1092200D02*
X-431800D01*
X-4279900Y711200D02*
X-3898900Y1092200D01*
X-4000500Y1282700D02*
X-1244123D01*
X-4541400Y741800D02*
X-4000500Y1282700D01*
X-4178300Y1422400D02*
X-3225323D01*
X-4795400Y805300D02*
X-4178300Y1422400D01*
X431800Y-2286000D02*
Y-241300D01*
X-2057400Y-5830800D02*
Y-4775200D01*
X431800Y-2286000D01*
X-2374900Y-3746500D02*
X-1968500Y-4152900D01*
X-1866900D01*
X-2374900Y-3746500D02*
Y-2717800D01*
X-2057400Y-850900D02*
X-1206500Y0D01*
X0D01*
X-1790700Y-3881360D02*
Y-3860800D01*
X-1962460Y-7783218D02*
X-1929200Y-7749958D01*
X-1962460Y-7964782D02*
X-1929200Y-7998042D01*
Y-7749958D02*
Y-7443400D01*
X-1962460Y-7964782D02*
Y-7783218D01*
X-4033400Y-5339200D02*
X-1929200Y-7443400D01*
X-4033400Y-5339200D02*
Y-2654300D01*
X-1929200Y-8178800D02*
Y-7998042D01*
X-3848100Y-6635500D02*
Y-6553200D01*
Y-6635500D02*
X-3793400Y-6690200D01*
X-2057400Y-5830800D02*
X-1944600Y-5943600D01*
X-1943100D01*
X-6617850Y-3262750D02*
X-6319400Y-2964300D01*
X-8923700Y-1888400D02*
X-7549350Y-3262750D01*
X-6617850D01*
X-1790700Y-3881360D02*
X-1728400Y-3943660D01*
Y-4152900D02*
Y-3943660D01*
X-3009900Y-2082800D02*
X-2374900Y-2717800D01*
X-4597400Y-2082800D02*
X-3009900D01*
X-4795400Y-2280800D02*
X-4597400Y-2082800D01*
X-4795400Y-2654300D02*
Y-2280800D01*
X5448300Y990600D02*
Y1069600D01*
X5991600Y1612900D01*
X6489700D01*
X6443400Y1854200D02*
X6515100D01*
X6400800Y2349500D02*
Y2390400D01*
X6440200Y2429800D02*
X6832600D01*
X6400800Y2390400D02*
X6440200Y2429800D01*
X6741300Y1968500D02*
X6845300D01*
X6532000Y1925200D02*
X6698001D01*
X6741300Y1968500D01*
X6489700Y1882900D02*
X6532000Y1925200D01*
X4192200Y2071300D02*
X4254500Y2133600D01*
X3923100Y1765300D02*
Y1775300D01*
X4192200Y2044400D01*
Y2071300D01*
X-25400Y2068600D02*
Y2209800D01*
X-356800Y1727200D02*
Y1737200D01*
X-25400Y2068600D01*
X-6985600Y1740500D02*
X-6794500Y1549400D01*
X-6985600Y1740500D02*
Y2146300D01*
X-6794500Y1549400D02*
X-5854700D01*
X-12522200Y1980900D02*
Y2133600D01*
X-12534900Y2146300D02*
X-12522200Y2133600D01*
X-12842101Y1661000D02*
X-12522200Y1980900D01*
X-12842101Y1651000D02*
Y1661000D01*
X-13246100Y2134200D02*
Y2171700D01*
X-13437100Y1943200D02*
X-13246100Y2134200D01*
X-13437100Y1050242D02*
Y1943200D01*
X-10388600Y2120900D02*
X-10375900Y2133600D01*
X-10388600Y1996079D02*
Y2120900D01*
X-10441800Y1981200D02*
X-10403479D01*
X-10388600Y1996079D01*
X-10727000Y1696000D02*
X-10441800Y1981200D01*
X-10759300Y1663700D02*
Y1673700D01*
X-10737000Y1696000D01*
X-10727000D01*
X-8369300Y1941600D02*
Y2120900D01*
X-8649900Y1651000D02*
Y1661000D01*
X-8369300Y1941600D01*
X-6527800Y1689100D02*
Y1713000D01*
X-6506700Y1734100D01*
X-6355800D01*
X-6175000Y1914900D02*
Y2159000D01*
X-6355800Y1734100D02*
X-6175000Y1914900D01*
X-4508500Y1713000D02*
X-4206500Y2015000D01*
Y2184400D01*
X-4508500Y1701800D02*
Y1713000D01*
X-2348000Y1714500D02*
X-1984000Y2078500D01*
Y2184400D01*
X-2349500Y1714500D02*
X-2348000D01*
X-11151200Y2146300D02*
X-11150600Y2146900D01*
X-11328900Y1968600D02*
X-11151200Y2146300D01*
X-11163300Y2159000D02*
X-11151200Y2146900D01*
X-11328900Y1567149D02*
Y1968600D01*
X-11150600Y2146900D02*
Y2159000D01*
X-8699500Y-7010400D02*
X-8686800Y-7023100D01*
X-1753800Y-2101540D02*
Y-1917700D01*
X-1816100Y-2163840D02*
X-1753800Y-2101540D01*
X-1816100Y-2184400D02*
Y-2163840D01*
X-1473960Y-2550550D02*
Y-2171700D01*
X-1641210Y-2717800D02*
X-1473960Y-2550550D01*
X-1651000Y-2717800D02*
X-1641210D01*
X3378200Y2146300D02*
X3387701Y2136799D01*
X2705577Y927100D02*
X3295800Y1517324D01*
Y2013700D01*
X3387701Y2105601D01*
Y2136799D01*
X-1625600Y-2946210D02*
Y-2921000D01*
Y-2946210D02*
X-1448560Y-3123250D01*
Y-3873500D02*
Y-3123250D01*
X-1917700Y-1941600D02*
Y-1905000D01*
X-4731300Y-1950000D02*
X-1926100D01*
X-1917700Y-1941600D01*
X-5049400Y-2268100D02*
X-4731300Y-1950000D01*
X-5049400Y-2654300D02*
Y-2268100D01*
X-1787060Y-8157040D02*
X-1765300Y-8178800D01*
X-1849360Y-7874000D02*
X-1787060Y-7936300D01*
Y-8157040D02*
Y-7936300D01*
X-1512060Y-7861300D02*
X-1473200D01*
X-1561660Y-7811700D02*
Y-7086850D01*
Y-7811700D02*
X-1512060Y-7861300D01*
X-1673010Y-6975500D02*
X-1561660Y-7086850D01*
X-1638300Y-6819900D02*
Y-6740790D01*
X-1499360Y-6601850D02*
Y-6273800D01*
X-1638300Y-6740790D02*
X-1499360Y-6601850D01*
X-1841500Y-6286500D02*
Y-6265940D01*
X-1779200Y-6203640D01*
Y-5969000D01*
X-6908800Y-1587500D02*
X-6573400Y-1922900D01*
X-6319400Y-2964300D02*
Y-2654300D01*
X-6573400Y-2593971D02*
Y-1922900D01*
Y-2593971D02*
X-6551171Y-2616200D01*
X-6070600Y-2603500D02*
X-6045200Y-2628900D01*
X-6070600Y-2603500D02*
Y-1803400D01*
X-6667500Y-1206500D02*
X-6070600Y-1803400D01*
X-8645850Y-1206500D02*
X-6667500D01*
X-10071100Y-775900D02*
X-9076450D01*
X-8645850Y-1206500D01*
X-5557400Y-2654300D02*
Y-1709300D01*
X-4699000Y-850900D01*
X-2057400D01*
X-5303400Y-1874400D02*
X-4584700Y-1155700D01*
X-5303400Y-2654300D02*
Y-1874400D01*
X-12700Y-254000D02*
X0Y-266700D01*
X-4584700Y-1155700D02*
X-1917700D01*
X-6654800Y-838200D02*
X-5811400Y-1681600D01*
X-9156700Y-190500D02*
X-8509000Y-838200D01*
X-6654800D01*
X-12128500Y-190500D02*
X-9156700D01*
X-10388600Y-855740D02*
Y-850900D01*
X-10318440Y-925900D02*
X-10071100D01*
X-10388600Y-855740D02*
X-10318440Y-925900D01*
X-10388600Y-1205740D02*
X-10350500Y-1243840D01*
X-10450900Y-1143440D02*
X-10388600Y-1205740D01*
X-11017050Y-1143440D02*
X-10450900D01*
X-10350500Y-1257300D02*
Y-1243840D01*
X-11128400Y-1032090D02*
X-11017050Y-1143440D01*
X-12420600Y-868440D02*
Y-850900D01*
X-12712700Y-925900D02*
X-12478060D01*
X-12420600Y-868440D01*
X-12687300Y-749300D02*
X-12128500Y-190500D01*
X-5811400Y-2654300D02*
Y-1681600D01*
X-1917700Y-1155700D02*
X-1016000Y-254000D01*
X-12700D01*
X-1244123Y1282700D02*
X-927600Y1599223D01*
X-431800Y1092200D02*
X-101600Y1422400D01*
X-2832700Y2133600D02*
X-2806700D01*
X-3073400Y1892900D02*
X-2832700Y2133600D01*
X-3073400Y1574323D02*
Y1892900D01*
X-3225323Y1422400D02*
X-3073400Y1574323D01*
X-774700Y2108800D02*
Y2146300D01*
X-927600Y1955900D02*
X-774700Y2108800D01*
X-927600Y1599223D02*
Y1955900D01*
X-11151200Y2146300D02*
Y2146900D01*
X-9068400Y2146300D02*
X-9067800Y2146900D01*
Y2159000D01*
X-4902800Y2120300D02*
X-4876800Y2146300D01*
X-6985600Y2158400D02*
X-6985000Y2159000D01*
X-6985600Y2146300D02*
Y2158400D01*
X-9296400Y1580323D02*
Y1918300D01*
X-9068400Y2146300D01*
X-5854700Y1549400D02*
X-5303400Y998100D01*
X-101600Y1422400D02*
X1039221D01*
X1358900Y2159600D02*
Y2171700D01*
X1039221Y1422400D02*
X1129800Y1512979D01*
X1345600Y2146300D02*
X1358900Y2159600D01*
X1129800Y1930500D02*
X1345600Y2146300D01*
X1129800Y1512979D02*
Y1930500D01*
X-4287400Y-114300D02*
X-4279900Y-106800D01*
X-737200Y2133000D02*
X-723900Y2146300D01*
D11*
X-3880700Y-6602900D02*
D03*
Y-8052900D02*
D03*
X-4780700D02*
D03*
Y-6602900D02*
D03*
D12*
X-1849360Y-7874000D02*
D03*
X-1499360D02*
D03*
X-1798560Y-3873500D02*
D03*
X-1448560D02*
D03*
X-1499360Y-6273800D02*
D03*
X-1849360D02*
D03*
X-1823960Y-2171700D02*
D03*
X-1473960D02*
D03*
X3904500Y2133600D02*
D03*
X4254500D02*
D03*
X-8338325Y-6985000D02*
D03*
X-8688326D02*
D03*
X6022600Y2362200D02*
D03*
X6372600D02*
D03*
X-12525000Y2120900D02*
D03*
X-12875000D02*
D03*
X-8372100Y2108200D02*
D03*
X-8722100D02*
D03*
X-28200Y2209800D02*
D03*
X-378200D02*
D03*
X-10378700Y2133600D02*
D03*
X-10728700D02*
D03*
X2118100Y2247900D02*
D03*
X1768100D02*
D03*
X-6175000Y2159000D02*
D03*
X-6525000D02*
D03*
X-4206500Y2184400D02*
D03*
X-4556500D02*
D03*
X-1984000D02*
D03*
X-2334000D02*
D03*
X5394700Y1016000D02*
D03*
X5044700D02*
D03*
D13*
X6832600Y2429800D02*
D03*
Y1989800D02*
D03*
D14*
X-10071100Y-925900D02*
D03*
Y-775900D02*
D03*
X-5511800Y-6007100D02*
D03*
Y-6157100D02*
D03*
X-8001000Y1982400D02*
D03*
Y2132400D02*
D03*
X-14211301Y2223700D02*
D03*
Y2373700D02*
D03*
X-10020300Y1918900D02*
D03*
Y2068900D02*
D03*
X-12090400Y2211000D02*
D03*
Y2361000D02*
D03*
X-1651000Y2249100D02*
D03*
Y2399100D02*
D03*
X-3810000Y2198300D02*
D03*
Y2348300D02*
D03*
X-5854700Y2021700D02*
D03*
Y2171700D02*
D03*
X-12712700Y-925900D02*
D03*
Y-775900D02*
D03*
X406400Y2198300D02*
D03*
Y2348300D02*
D03*
X4572000Y2223700D02*
D03*
Y2373700D02*
D03*
X2476500D02*
D03*
Y2223700D02*
D03*
D15*
X-1779200Y-5969000D02*
D03*
X-1929200D02*
D03*
X-1779200Y-8178800D02*
D03*
X-1929200D02*
D03*
X-1728400Y-4152900D02*
D03*
X-1878400D02*
D03*
X-1753800Y-1917700D02*
D03*
X-1903800D02*
D03*
X-12992101Y1651000D02*
D03*
X-12842101D02*
D03*
X-8799900Y1651000D02*
D03*
X-8649900D02*
D03*
X-2500700Y1701800D02*
D03*
X-2350700D02*
D03*
X-10909300Y1663700D02*
D03*
X-10759300D02*
D03*
X-506800Y1727200D02*
D03*
X-356800D02*
D03*
X-4672400Y1689100D02*
D03*
X-4522400D02*
D03*
X-6679000Y1701800D02*
D03*
X-6529000D02*
D03*
X3773100Y1765300D02*
D03*
X3923100D02*
D03*
X1789500Y1727200D02*
D03*
X1639500D02*
D03*
D16*
X-5511800Y-5324100D02*
D03*
Y-5674100D02*
D03*
X-12407900Y-1205740D02*
D03*
Y-855740D02*
D03*
X-10388600Y-1205740D02*
D03*
Y-855740D02*
D03*
D17*
X1781600Y2832100D02*
D03*
X2231600D02*
D03*
X-390100Y2755900D02*
D03*
X59900D02*
D03*
X5972600Y2781300D02*
D03*
X6422600D02*
D03*
X-12436900Y2717800D02*
D03*
X-12886900D02*
D03*
X-10265200Y2705100D02*
D03*
X-10715200D02*
D03*
X-8258600D02*
D03*
X-8708600D02*
D03*
X-6065100Y2730500D02*
D03*
X-6515100D02*
D03*
X-4093000Y2768600D02*
D03*
X-4543000D02*
D03*
X-1908600D02*
D03*
X-2358600D02*
D03*
X4368800Y2743200D02*
D03*
X3918800D02*
D03*
D18*
X6489700Y1882900D02*
D03*
Y1612900D02*
D03*
D19*
X-11334293Y-1037983D02*
X-11328400Y-1032090D01*
X-12407900Y-1206500D02*
X-11455400D01*
X-11334293Y-1085393D02*
Y-1037983D01*
X-11455400Y-1206500D02*
X-11334293Y-1085393D01*
X-9779000Y2146300D02*
X-9778400D01*
X-9733000Y2409610D02*
X-9726010Y2416600D01*
X-9733000Y2191700D02*
Y2409610D01*
X-9778400Y2146300D02*
X-9733000Y2191700D01*
X-9955600Y2133600D02*
X-9829800D01*
X-10020300Y2068900D02*
X-9955600Y2133600D01*
X-10020300Y1861979D02*
X-9961721Y1803400D01*
X-9626600D01*
X-10020300Y1861979D02*
Y1905000D01*
X-9626600Y1803400D02*
X-9423400Y1600200D01*
X-6520050Y2725550D02*
Y2748150D01*
Y2163950D02*
Y2725550D01*
X-6515100Y2730500D01*
X-6721521Y2524079D02*
X-6520050Y2725550D01*
X-7141266Y1680266D02*
X-7124700Y1663700D01*
X-7141266Y2478856D02*
X-7053222Y2566900D01*
X-6908783D01*
X-6865961Y2524079D01*
X-7141266Y1680266D02*
Y2478856D01*
X-6865961Y2524079D02*
X-6721521D01*
X-5562600Y2438400D02*
X-5546393Y2422193D01*
X-5600700Y2146300D02*
Y2158400D01*
X-5565450Y2193650D01*
Y2407071D02*
X-5555922Y2416600D01*
X-5565450Y2193650D02*
Y2407071D01*
X-5854700Y2171700D02*
X-5664200D01*
X-5854700Y1950879D02*
Y2006600D01*
Y1950879D02*
X-5796121Y1892300D01*
X-5511800D01*
X-5219700Y1600200D01*
X-13905974Y2413000D02*
X-13886571Y2393596D01*
X-14168401Y2416600D02*
X-13896098D01*
X-13886571Y2393070D02*
X-13881100Y2387600D01*
Y2209200D02*
Y2387600D01*
X-13906500Y2413000D02*
X-13905974D01*
X-13886571Y2393070D02*
Y2393596D01*
X-13944000Y2146300D02*
X-13881100Y2209200D01*
X-13896098Y2416600D02*
X-13884700D01*
X-13881100Y2413000D01*
X-14211301Y2373700D02*
X-14168401Y2416600D01*
X-14198599Y2144268D02*
Y2235200D01*
X-13911343Y1857011D02*
X-13883911D01*
X-13589000Y1562100D01*
X-14198599Y2144268D02*
X-13911343Y1857011D01*
X-12886900Y2726900D02*
X-12880949Y2720950D01*
X-12903200Y2743200D02*
X-12886900Y2726900D01*
X-12880949Y2126850D02*
Y2720950D01*
X-12886900Y2726900D02*
Y3355361D01*
Y2717800D02*
Y2726900D01*
Y3355361D02*
X-12725400Y3516861D01*
Y3530600D01*
X-12865100Y2026000D02*
Y2146300D01*
X-12880949Y2126850D02*
X-12875000Y2120900D01*
X-13328999Y1562100D02*
X-12865100Y2026000D01*
X-10721950Y2140350D02*
Y2740050D01*
X-10728700Y2133600D02*
X-10706100D01*
X-11220800Y1611925D02*
X-10753700Y2079025D01*
Y2108600D01*
X-10728700Y2133600D01*
X-7672790Y2371300D02*
X-7632700Y2411390D01*
Y2425700D01*
X-7695600Y2146300D02*
X-7672790Y2169110D01*
Y2371300D01*
X-7987100Y2146300D02*
X-7708900D01*
X-8001000Y2132400D02*
X-7987100Y2146300D01*
X-8001000Y1866900D02*
X-7912100Y1778000D01*
X-8001000Y1866900D02*
Y1968500D01*
X-7912100Y1778000D02*
X-7505700D01*
X-7340600Y1612900D01*
X5956300Y2794000D02*
X5997600Y2752700D01*
X5565700Y3188200D02*
Y3527500D01*
X5562600Y3530600D02*
X5565700Y3527500D01*
Y3188200D02*
X5972600Y2781300D01*
X6004000Y2346400D02*
X6032500Y2374900D01*
X6021200Y2363600D02*
X6022600Y2362200D01*
X5997600Y2387200D02*
X6021200Y2363600D01*
X5997600Y2387200D02*
Y2752700D01*
X5467000Y1600200D02*
X6004000Y2137200D01*
Y2346400D01*
X4846294Y2416600D02*
X4864100Y2434406D01*
Y2438400D01*
X4876800Y2221900D02*
Y2438400D01*
X4801200Y2146300D02*
X4876800Y2221900D01*
X4614900Y2416600D02*
X4846294D01*
X4572000Y2373700D02*
X4614900Y2416600D01*
X4821157Y1869711D02*
X4937489D01*
X4559300Y2131568D02*
X4821157Y1869711D01*
X4937489D02*
X5207000Y1600200D01*
X4559300Y2131568D02*
Y2222500D01*
X3911650Y2140750D02*
Y2768550D01*
X3556000Y3520600D02*
Y3581400D01*
X3918800Y2743200D02*
Y3157800D01*
X3556000Y3520600D02*
X3918800Y3157800D01*
X3911600Y2768600D02*
X3911650Y2768550D01*
X3904500Y2133600D02*
X3911650Y2140750D01*
X3662700Y1891800D02*
X3904500Y2133600D01*
X3447700Y1562100D02*
X3662700Y1777100D01*
Y1891800D01*
X2761829Y2407071D02*
X2768600Y2400300D01*
X2781300Y2387600D02*
X2819400Y2349500D01*
Y2247300D02*
Y2349500D01*
X2718400Y2146300D02*
X2819400Y2247300D01*
X2761250Y2407071D02*
X2761829D01*
X2476500Y2373700D02*
X2503100Y2400300D01*
X2754479D01*
X2761250Y2407071D01*
X2463800Y2144268D02*
X2751057Y1857011D01*
X2463800Y2144268D02*
Y2222500D01*
X2892789Y1857011D02*
X3187700Y1562100D01*
X2751057Y1857011D02*
X2892789D01*
X1774850Y2254650D02*
Y2847950D01*
X1485900Y3517900D02*
X1526700D01*
X1781600Y2832100D02*
Y3263000D01*
X1526700Y3517900D02*
X1781600Y3263000D01*
X1768100Y2247900D02*
X1774850Y2254650D01*
X1765300Y2857500D02*
X1774850Y2847950D01*
X1743100Y2225700D02*
X1765300Y2247900D01*
X1237900Y1562100D02*
X1743100Y2067300D01*
Y2225700D01*
X471100Y2413000D02*
X698500D01*
X635600Y2146300D02*
X698500Y2209200D01*
Y2413000D01*
X406400Y2348300D02*
X471100Y2413000D01*
X680957Y1844311D02*
X695689D01*
X406400Y2118868D02*
X680957Y1844311D01*
X695689D02*
X977900Y1562100D01*
X406400Y2118868D02*
Y2197100D01*
X-390100Y2765000D02*
X-384150Y2759050D01*
X-393700Y2768600D02*
X-390100Y2765000D01*
X-384150Y2215750D02*
Y2759050D01*
X-390100Y2765000D02*
Y3376181D01*
Y2755900D02*
Y2765000D01*
X-520700Y3506781D02*
Y3543300D01*
Y3506781D02*
X-390100Y3376181D01*
X-384150Y2215750D02*
X-378200Y2209800D01*
X-368300Y2052332D02*
Y2184400D01*
X-819500Y1600200D02*
Y1601132D01*
X-368300Y2052332D01*
X-1376305Y2252605D02*
Y2430405D01*
Y2252605D02*
X-1371600Y2247900D01*
X-1384300Y2438400D02*
X-1376305Y2430405D01*
X-1447200Y2146300D02*
X-1371600Y2221900D01*
Y2247900D01*
X-1616810Y2399100D02*
X-1608838Y2407071D01*
X-1391071D02*
X-1384300Y2400300D01*
X-1651000Y2399100D02*
X-1616810D01*
X-1608838Y2407071D02*
X-1391071D01*
X-1663700Y2106168D02*
Y2247900D01*
Y2106168D02*
X-1381493Y1823961D01*
X-1303261D01*
X-1079500Y1600200D01*
X-2374900Y2768600D02*
X-2346300Y2740000D01*
X-2565400Y3517900D02*
X-2537300D01*
X-2358600Y2768600D02*
Y3339200D01*
X-2537300Y3517900D02*
X-2358600Y3339200D01*
X-2336800Y2181600D02*
Y2184400D01*
X-2346300Y2196700D02*
X-2334000Y2184400D01*
X-2346300Y2196700D02*
Y2740000D01*
X-2359000Y2159400D02*
X-2336800Y2181600D01*
X-2927700Y1612900D02*
X-2381200Y2159400D01*
X-2359000D01*
X-3480406Y2407071D02*
X-3460329D01*
X-3693882D02*
X-3480406D01*
X-3530000Y2146300D02*
X-3480406Y2195894D01*
X-3543300Y2146300D02*
X-3530000D01*
X-3480406Y2407071D02*
X-3470878Y2416600D01*
X-3480406Y2195894D02*
Y2407071D01*
X-3810000Y2348300D02*
X-3752654D01*
X-3693882Y2407071D01*
X-3460329D02*
X-3454400Y2413000D01*
X-3810000Y2169668D02*
Y2209800D01*
X-3535443Y1895111D02*
X-3469911D01*
X-3187700Y1612900D01*
X-3810000Y2169668D02*
X-3535443Y1895111D01*
X-4549750Y2191150D02*
Y2778150D01*
X-4556500Y2184400D02*
X-4533900D01*
X-4959700Y1600200D02*
X-4581500Y1978400D01*
Y2159400D01*
X-4556500Y2184400D01*
X-4597400Y3519481D02*
Y3543300D01*
X-4543000Y2768600D02*
Y3465081D01*
X-4597400Y3519481D02*
X-4543000Y3465081D01*
X-4549750Y2778150D02*
X-4546600Y2781300D01*
X-4556500Y2184400D02*
X-4549750Y2191150D01*
X-6629400Y3519481D02*
Y3568700D01*
Y3519481D02*
X-6515100Y3405181D01*
Y2730500D02*
Y3405181D01*
X-6527800Y2755900D02*
X-6520050Y2748150D01*
X-6525000Y2159000D02*
X-6520050Y2163950D01*
X-8734800Y2095500D02*
X-8712200D01*
X-8715350Y2114950D02*
Y2727350D01*
X-8747100Y2016500D02*
Y2083200D01*
X-9163400Y1600200D02*
X-8747100Y2016500D01*
Y2083200D02*
X-8734800Y2095500D01*
X-8674100Y3500581D02*
Y3568700D01*
X-8708600Y2705100D02*
Y3466081D01*
X-8674100Y3500581D01*
X-8722100Y2108200D02*
X-8715350Y2114950D01*
Y2727350D02*
X-8712200Y2730500D01*
X-10702750Y2717550D02*
Y3533950D01*
X-10693400Y3543300D01*
X-10715200Y2705100D02*
X-10702750Y2717550D01*
X-10721950Y2740050D02*
X-10718800Y2743200D01*
X-10728700Y2133600D02*
X-10721950Y2140350D01*
X-11161054Y2416600D02*
X-11154200D01*
X-11811054D02*
X-11161054D01*
X-11154200D02*
X-11150600Y2413000D01*
X-11738098Y1869223D02*
X-11493866Y1624991D01*
X-11481409D01*
X-12090400Y2118868D02*
Y2211000D01*
Y2118868D02*
X-11840755Y1869223D01*
X-11738098D01*
X-11481409Y1624991D02*
X-11480800Y1625600D01*
X-12080130Y2361000D02*
X-12034058Y2407071D01*
X-11829629D01*
X-12090400Y2361000D02*
X-12080130D01*
X-11829629Y2407071D02*
X-11823700Y2413000D01*
X-11849100Y2146300D02*
Y2158400D01*
X-11815800Y2411854D02*
X-11811054Y2416600D01*
X-11815800Y2191700D02*
Y2411854D01*
X-11849100Y2158400D02*
X-11815800Y2191700D01*
D20*
X2262243Y-185963D02*
X2300000Y-223720D01*
X2239925Y-158750D02*
X2262243Y-181068D01*
Y-185963D02*
Y-181068D01*
X1849402Y-234950D02*
X1925602Y-158750D01*
X2239925D01*
X1485900Y-257268D02*
X1508218Y-234950D01*
X1849402D01*
X1485900Y-584200D02*
Y-257268D01*
X2244050Y-55950D02*
X2300000Y0D01*
X2244050Y-72932D02*
Y-55950D01*
X2221731Y-95250D02*
X2244050Y-72932D01*
X1899300Y-95250D02*
X2221731D01*
X1485900Y-149132D02*
Y177800D01*
X1823100Y-171450D02*
X1899300Y-95250D01*
X1508218Y-171450D02*
X1823100D01*
X1485900Y-149132D02*
X1508218Y-171450D01*
X6562891Y-165100D02*
X6565900D01*
X4471952Y-69850D02*
X6467641D01*
X6562891Y-165100D01*
X2360075Y-158750D02*
X4383052D01*
X2337757Y-181068D02*
X2360075Y-158750D01*
X2337757Y-185963D02*
Y-181068D01*
X2300000Y-223720D02*
X2337757Y-185963D01*
X2378269Y-95250D02*
X4356750D01*
X4445650Y-6350D01*
X4383052Y-158750D02*
X4471952Y-69850D01*
X4445650Y-6350D02*
X6467641D01*
X2300000Y0D02*
X2355950Y-55950D01*
Y-72932D02*
X2378269Y-95250D01*
X2355950Y-72932D02*
Y-55950D01*
X6562891Y88900D02*
X6565900D01*
X6467641Y-6350D02*
X6562891Y88900D01*
X2300000Y-254000D02*
Y-223720D01*
D21*
X-3517900Y5689600D02*
X-3406729D01*
X-3762300Y4762900D02*
Y5445200D01*
X-3517900Y5689600D01*
X-5794300Y5360211D02*
X-5464911Y5689600D01*
X-5794300Y4762900D02*
Y5360211D01*
X-2562300Y4762900D02*
Y5343600D01*
X-2895600Y5676900D02*
X-2562300Y5343600D01*
X-1730300Y5305500D02*
X-1346200Y5689600D01*
X-1730300Y4762900D02*
Y5305500D01*
X-530300Y4762900D02*
Y5381700D01*
X-838200Y5689600D02*
X-530300Y5381700D01*
X1206500Y5689600D02*
X1501700Y5394400D01*
Y4762900D02*
Y5394400D01*
X301700Y5280100D02*
X711200Y5689600D01*
X301700Y4762900D02*
Y5280100D01*
X3276600Y5676900D02*
X3533700Y5419800D01*
Y4762900D02*
Y5419800D01*
X2333700Y5254700D02*
X2768600Y5689600D01*
X2333700Y4762900D02*
Y5254700D01*
X5334000Y5676900D02*
X5565700Y5445200D01*
Y4762900D02*
Y5445200D01*
X4365700Y5229300D02*
X4826000Y5689600D01*
X4365700Y4762900D02*
Y5229300D01*
X-4594300Y4762900D02*
Y5330900D01*
X-4953000Y5689600D02*
X-4594300Y5330900D01*
X-7010400Y5689600D02*
X-6626300Y5305500D01*
Y4762900D02*
Y5305500D01*
X-7826300Y5381700D02*
X-7518400Y5689600D01*
X-7826300Y4762900D02*
Y5381700D01*
X-8658300Y4762900D02*
Y5280100D01*
X-9067800Y5689600D02*
X-8658300Y5280100D01*
X-9858300Y5407100D02*
X-9575800Y5689600D01*
X-9858300Y4762900D02*
Y5407100D01*
X-10693400Y4762500D02*
Y5251542D01*
X-11131458Y5689600D02*
X-10693400Y5251542D01*
X-11890300Y5445200D02*
X-11645900Y5689600D01*
X-11890300Y4762900D02*
Y5445200D01*
X-13182600Y5689600D02*
X-12722300Y5229300D01*
Y4762900D02*
Y5229300D01*
X-13922301Y5457900D02*
X-13690601Y5689600D01*
X-13922301Y4762900D02*
Y5457900D01*
D22*
X4365700Y4762900D02*
D03*
X5565700D02*
D03*
Y3542900D02*
D03*
X-3762300Y4762900D02*
D03*
X-2562300D02*
D03*
Y3542900D02*
D03*
X-5794300Y4762900D02*
D03*
X-4594300D02*
D03*
Y3542900D02*
D03*
X-10690300D02*
D03*
Y4762900D02*
D03*
X-11890300D02*
D03*
X-4686300Y-3619700D02*
D03*
X3533700Y3542900D02*
D03*
Y4762900D02*
D03*
X2333700D02*
D03*
X-530300Y3542900D02*
D03*
Y4762900D02*
D03*
X-1730300D02*
D03*
X1501700Y3542900D02*
D03*
Y4762900D02*
D03*
X301700D02*
D03*
X-13922301D02*
D03*
X-12722300D02*
D03*
Y3542900D02*
D03*
X-8658300D02*
D03*
Y4762900D02*
D03*
X-9858300D02*
D03*
X-6626300Y3542900D02*
D03*
Y4762900D02*
D03*
X-7826300D02*
D03*
X-7404100Y-6553400D02*
D03*
D23*
X4965700Y3342900D02*
D03*
X-3162300D02*
D03*
X-5194300D02*
D03*
X-11290300D02*
D03*
X2933700D02*
D03*
X-1130300D02*
D03*
X901700D02*
D03*
X-13322301D02*
D03*
X-9258300D02*
D03*
X-7226300D02*
D03*
D24*
X4365700Y3542900D02*
D03*
X-3762300D02*
D03*
X-5794300D02*
D03*
X-11890300D02*
D03*
X-4686300Y-5803700D02*
D03*
X2333700Y3542900D02*
D03*
X-1730300D02*
D03*
X301700D02*
D03*
X-13922301D02*
D03*
X-9858300D02*
D03*
X-7826300D02*
D03*
X-7404100Y-8737400D02*
D03*
D25*
X-6990966Y2866600D02*
D03*
Y2416600D02*
D03*
X-7640966D02*
D03*
X2784255D02*
D03*
X3434255D02*
D03*
Y2866600D02*
D03*
X699210Y2416600D02*
D03*
X1349211D02*
D03*
Y2866600D02*
D03*
X-1385834Y2416600D02*
D03*
X-735833D02*
D03*
Y2866600D02*
D03*
X-2820878D02*
D03*
Y2416600D02*
D03*
X-3470878D02*
D03*
X-4905922Y2866600D02*
D03*
Y2416600D02*
D03*
X-5555922D02*
D03*
X-9726010D02*
D03*
X-9076010D02*
D03*
Y2866600D02*
D03*
X-11161054D02*
D03*
Y2416600D02*
D03*
X-11811054D02*
D03*
X-13896098D02*
D03*
X-13246098D02*
D03*
Y2866600D02*
D03*
X5519299D02*
D03*
Y2416600D02*
D03*
X4869299D02*
D03*
D26*
X-7640966Y2866600D02*
D03*
X2784255D02*
D03*
X699210D02*
D03*
X-1385834D02*
D03*
X-3470878D02*
D03*
X-5555922D02*
D03*
X-9726010D02*
D03*
X-11811054D02*
D03*
X-13896098D02*
D03*
X4869299D02*
D03*
D27*
X-14968600Y-9279000D02*
D03*
Y5697600D02*
D03*
X6675500Y-9279000D02*
D03*
Y5697600D02*
D03*
D28*
X1485900Y-584200D02*
D03*
Y177800D02*
D03*
X-3187700Y1612900D02*
D03*
X-2927700D02*
D03*
X-13589000Y1562100D02*
D03*
X-13328999D02*
D03*
X-11480800Y1611925D02*
D03*
X-11220800D02*
D03*
X-9423400Y1600200D02*
D03*
X-9163400D02*
D03*
X-7340600Y1612900D02*
D03*
X-7080600D02*
D03*
X-1079500Y1600200D02*
D03*
X-819500D02*
D03*
X5207000D02*
D03*
X5467000D02*
D03*
X-5219700D02*
D03*
X-4959700D02*
D03*
X977900Y1562100D02*
D03*
X1237900D02*
D03*
X3187700D02*
D03*
X3447700D02*
D03*
D29*
X-6184900Y660400D02*
D03*
X2718400Y2146300D02*
D03*
X635600D02*
D03*
X-13944000D02*
D03*
X-11861200D02*
D03*
X-1447200D02*
D03*
X-3530000D02*
D03*
X-5612800D02*
D03*
X-7695600D02*
D03*
X-9778400D02*
D03*
X4801200D02*
D03*
D30*
X-5930900Y660400D02*
D03*
X-5676900D02*
D03*
X-5422900D02*
D03*
X-5168900D02*
D03*
X-4914900D02*
D03*
X-4660900D02*
D03*
X-4406900D02*
D03*
X-4152900D02*
D03*
X-3898900D02*
D03*
X2300000Y-254000D02*
D03*
X3428400Y2146300D02*
D03*
X1345600D02*
D03*
X-13234000D02*
D03*
X-11151200D02*
D03*
X-737200D02*
D03*
X-2820000D02*
D03*
X-4902800D02*
D03*
X-6985600D02*
D03*
X-9068400D02*
D03*
X5511200D02*
D03*
X0Y-508000D02*
D03*
Y-254000D02*
D03*
Y0D02*
D03*
X-15036800Y-6007100D02*
D03*
Y-5753100D02*
D03*
Y-5499100D02*
D03*
D31*
X-6781800Y-5588000D02*
D03*
D32*
Y-5334000D02*
D03*
Y-5080000D02*
D03*
Y-4826000D02*
D03*
Y-4572000D02*
D03*
Y-4318000D02*
D03*
Y-4064000D02*
D03*
Y-3810000D02*
D03*
X-8051800D02*
D03*
Y-4064000D02*
D03*
Y-4318000D02*
D03*
Y-4572000D02*
D03*
Y-4826000D02*
D03*
Y-5080000D02*
D03*
Y-5334000D02*
D03*
Y-5588000D02*
D03*
D33*
X2300000Y0D02*
D03*
X0Y254000D02*
D03*
X-15036800Y-5245100D02*
D03*
D34*
X6565900Y-419100D02*
D03*
D35*
Y-165100D02*
D03*
Y88900D02*
D03*
D36*
X5333999Y5689600D02*
D03*
X3275817D02*
D03*
X1217635D02*
D03*
X-11633200Y-9156700D02*
D03*
X-13189639Y5689600D02*
D03*
X-11131458D02*
D03*
X-9073275D02*
D03*
X-7015093D02*
D03*
X-4956911D02*
D03*
X-2898729D02*
D03*
X-840547D02*
D03*
D37*
X4825999D02*
D03*
X2767817D02*
D03*
X709635D02*
D03*
X-14935201Y-647700D02*
D03*
X-11125200Y-9156700D02*
D03*
X-13697639Y5689600D02*
D03*
X-11639458D02*
D03*
X-9581275D02*
D03*
X-7523093D02*
D03*
X-5464911D02*
D03*
X-3406729D02*
D03*
X-1348547D02*
D03*
X6527800Y-7289800D02*
D03*
X-14947900Y533400D02*
D03*
X6527800Y-3810000D02*
D03*
D38*
X-11728400Y-1032090D02*
D03*
X-11528400D02*
D03*
X-11328400D02*
D03*
X-1673010Y-6975500D02*
D03*
Y-7175500D02*
D03*
Y-7375500D02*
D03*
X-1647610Y-2924200D02*
D03*
Y-3124200D02*
D03*
Y-3324200D02*
D03*
D39*
X-11128400Y-1032090D02*
D03*
D40*
X-14935201Y-139700D02*
D03*
X6527800Y-7797800D02*
D03*
X-14947900Y1041400D02*
D03*
X6527800Y-4318000D02*
D03*
D41*
X-14517999Y-3226800D02*
D03*
X-3484200Y-8989600D02*
D03*
D42*
X-14517999Y-3946800D02*
D03*
X-427800Y-8560500D02*
D03*
Y-5790500D02*
D03*
X5152200Y-8560500D02*
D03*
Y-5790500D02*
D03*
X-427800Y-4433000D02*
D03*
Y-1663000D02*
D03*
X5152200Y-4433000D02*
D03*
Y-1663000D02*
D03*
D43*
X-3447700Y1612900D02*
D03*
X-13849001Y1562100D02*
D03*
X-11740800Y1611925D02*
D03*
X-9683400Y1600200D02*
D03*
X-7600600Y1612900D02*
D03*
X-1339500Y1600200D02*
D03*
X4947000D02*
D03*
X-5479700D02*
D03*
X717900Y1562100D02*
D03*
X2927700D02*
D03*
D44*
X-2764200Y-8989600D02*
D03*
X-12802299Y-2226500D02*
D03*
X-10032300D02*
D03*
X-12802299Y-7806500D02*
D03*
X-10032300D02*
D03*
D45*
X-7589400Y-2654300D02*
D03*
D46*
X-7335400D02*
D03*
X-3017400D02*
D03*
X-7081400D02*
D03*
X-6827400D02*
D03*
X-6573400D02*
D03*
X-6319400D02*
D03*
X-6065400D02*
D03*
X-5811400D02*
D03*
X-5557400D02*
D03*
X-5303400D02*
D03*
X-5049400D02*
D03*
X-4795400D02*
D03*
X-4541400D02*
D03*
X-4287400D02*
D03*
X-4033400D02*
D03*
X-3779400D02*
D03*
X-3525400D02*
D03*
X-3271400D02*
D03*
X-7589400Y-114300D02*
D03*
X-7335400D02*
D03*
X-7081400D02*
D03*
X-6827400D02*
D03*
X-6573400D02*
D03*
X-6319400D02*
D03*
X-6065400D02*
D03*
X-5811400D02*
D03*
X-5557400D02*
D03*
X-5303400D02*
D03*
X-5049400D02*
D03*
X-4795400D02*
D03*
X-4541400D02*
D03*
X-4287400D02*
D03*
X-4033400D02*
D03*
X-3779400D02*
D03*
X-3525400D02*
D03*
X-3271400D02*
D03*
X-3017400D02*
D03*
D47*
X-1673010Y-6775500D02*
D03*
X-1647610Y-2724200D02*
D03*
D48*
X3668712Y660400D02*
D03*
X7023100D02*
D03*
X4965699Y-787400D02*
D03*
X6286498D02*
D03*
X7023100Y-63500D02*
D03*
Y-787400D02*
D03*
X5626098D02*
D03*
X4305299D02*
D03*
X3644899D02*
D03*
X2984499D02*
D03*
X2324100D02*
D03*
X6342061Y660400D02*
D03*
X5673723D02*
D03*
X5005386D02*
D03*
X4337049D02*
D03*
X2332037D02*
D03*
X1663700D02*
D03*
%TF.MD5,aa6487c8f67a1b829e5e5a6ef252385c*%
M02*
