%TF.GenerationSoftware,Altium Limited,Altium Designer,22.1.2 (22)*%
G04 Layer_Color=0*
%FSLAX45Y45*%
%MOMM*%
%TF.SameCoordinates,97720CCC-B93B-4F85-99AC-C394CD96EF65*%
%TF.FilePolarity,Positive*%
%TF.FileFunction,Plated,1,2,PTH,Drill*%
%TF.Part,Single*%
G01*
G75*
%TA.AperFunction,ComponentDrill*%
%ADD96C,1.32000*%
%ADD97C,1.29000*%
%ADD98C,0.99000*%
%ADD99C,0.85000*%
%ADD100C,0.90000*%
%ADD101C,1.02000*%
%ADD102C,0.90000*%
%ADD103C,1.36000*%
%ADD104C,1.10000*%
%ADD105C,0.80000*%
%ADD106C,1.10000*%
%ADD107C,4.55000*%
%ADD108C,4.55000*%
%ADD109C,3.22000*%
%ADD110C,3.22000*%
%ADD111C,1.04000*%
%ADD112C,0.80000*%
%TA.AperFunction,ViaDrill,NotFilled*%
%ADD113C,0.71120*%
D96*
X4365700Y4762900D02*
D03*
X5565700D02*
D03*
Y3542900D02*
D03*
X4365700D02*
D03*
X-3762300Y4762900D02*
D03*
X-2562300D02*
D03*
Y3542900D02*
D03*
X-3762300D02*
D03*
X-5794300Y4762900D02*
D03*
X-4594300D02*
D03*
Y3542900D02*
D03*
X-5794300D02*
D03*
X-11890300D02*
D03*
X-10690300D02*
D03*
Y4762900D02*
D03*
X-11890300D02*
D03*
X-4686300Y-5803700D02*
D03*
Y-3619700D02*
D03*
X2333700Y3542900D02*
D03*
X3533700D02*
D03*
Y4762900D02*
D03*
X2333700D02*
D03*
X-1730300Y3542900D02*
D03*
X-530300D02*
D03*
Y4762900D02*
D03*
X-1730300D02*
D03*
X301700Y3542900D02*
D03*
X1501700D02*
D03*
Y4762900D02*
D03*
X301700D02*
D03*
X-13922301D02*
D03*
X-12722300D02*
D03*
Y3542900D02*
D03*
X-13922301D02*
D03*
X-9858300D02*
D03*
X-8658300D02*
D03*
Y4762900D02*
D03*
X-9858300D02*
D03*
X-7826300Y3542900D02*
D03*
X-6626300D02*
D03*
Y4762900D02*
D03*
X-7826300D02*
D03*
X-7404100Y-6553400D02*
D03*
Y-8737400D02*
D03*
D97*
X4965700Y3342900D02*
D03*
X-3162300D02*
D03*
X-5194300D02*
D03*
X-11290300D02*
D03*
X2933700D02*
D03*
X-1130300D02*
D03*
X901700D02*
D03*
X-13322301D02*
D03*
X-9258300D02*
D03*
X-7226300D02*
D03*
D98*
X-6990966Y2866600D02*
D03*
Y2416600D02*
D03*
X-7640966Y2866600D02*
D03*
Y2416600D02*
D03*
X2784255D02*
D03*
Y2866600D02*
D03*
X3434255Y2416600D02*
D03*
Y2866600D02*
D03*
X699210Y2416600D02*
D03*
Y2866600D02*
D03*
X1349211Y2416600D02*
D03*
Y2866600D02*
D03*
X-1385834Y2416600D02*
D03*
Y2866600D02*
D03*
X-735833Y2416600D02*
D03*
Y2866600D02*
D03*
X-2820878D02*
D03*
Y2416600D02*
D03*
X-3470878Y2866600D02*
D03*
Y2416600D02*
D03*
X-4905922Y2866600D02*
D03*
Y2416600D02*
D03*
X-5555922Y2866600D02*
D03*
Y2416600D02*
D03*
X-9726010D02*
D03*
Y2866600D02*
D03*
X-9076010Y2416600D02*
D03*
Y2866600D02*
D03*
X-11161054D02*
D03*
Y2416600D02*
D03*
X-11811054Y2866600D02*
D03*
Y2416600D02*
D03*
X-13896098D02*
D03*
Y2866600D02*
D03*
X-13246098Y2416600D02*
D03*
Y2866600D02*
D03*
X5519299D02*
D03*
Y2416600D02*
D03*
X4869299Y2866600D02*
D03*
Y2416600D02*
D03*
D99*
X1485900Y-584200D02*
D03*
Y177800D02*
D03*
D100*
X-6184900Y660400D02*
D03*
X-5930900D02*
D03*
X-5676900D02*
D03*
X-5422900D02*
D03*
X-5168900D02*
D03*
X-4914900D02*
D03*
X-4660900D02*
D03*
X-4406900D02*
D03*
X-4152900D02*
D03*
X-3898900D02*
D03*
X2718400Y2146300D02*
D03*
X3428400D02*
D03*
X635600D02*
D03*
X1345600D02*
D03*
X-13944000D02*
D03*
X-13234000D02*
D03*
X-3447700Y1612900D02*
D03*
X-3187700D02*
D03*
X-2927700D02*
D03*
X-11861200Y2146300D02*
D03*
X-11151200D02*
D03*
X-13849001Y1562100D02*
D03*
X-13589000D02*
D03*
X-13328999D02*
D03*
X-11740800Y1611925D02*
D03*
X-11480800D02*
D03*
X-11220800D02*
D03*
X-1447200Y2146300D02*
D03*
X-737200D02*
D03*
X-3530000D02*
D03*
X-2820000D02*
D03*
X-5612800D02*
D03*
X-4902800D02*
D03*
X-7695600D02*
D03*
X-6985600D02*
D03*
X-9683400Y1600200D02*
D03*
X-9423400D02*
D03*
X-9163400D02*
D03*
X-7600600Y1612900D02*
D03*
X-7340600D02*
D03*
X-7080600D02*
D03*
X-1339500Y1600200D02*
D03*
X-1079500D02*
D03*
X-819500D02*
D03*
X4947000D02*
D03*
X5207000D02*
D03*
X5467000D02*
D03*
X-5479700D02*
D03*
X-5219700D02*
D03*
X-4959700D02*
D03*
X717900Y1562100D02*
D03*
X977900D02*
D03*
X1237900D02*
D03*
X2927700D02*
D03*
X3187700D02*
D03*
X3447700D02*
D03*
X-9778400Y2146300D02*
D03*
X-9068400D02*
D03*
X4801200D02*
D03*
X5511200D02*
D03*
D101*
X-6781800Y-5588000D02*
D03*
Y-5334000D02*
D03*
Y-5080000D02*
D03*
Y-4826000D02*
D03*
Y-4572000D02*
D03*
Y-4318000D02*
D03*
Y-4064000D02*
D03*
Y-3810000D02*
D03*
X-8051800D02*
D03*
Y-4064000D02*
D03*
Y-4318000D02*
D03*
Y-4572000D02*
D03*
Y-4826000D02*
D03*
Y-5080000D02*
D03*
Y-5334000D02*
D03*
Y-5588000D02*
D03*
D102*
X2300000Y0D02*
D03*
Y-254000D02*
D03*
X0Y-508000D02*
D03*
Y-254000D02*
D03*
Y0D02*
D03*
Y254000D02*
D03*
X-15036800Y-6007100D02*
D03*
Y-5753100D02*
D03*
Y-5499100D02*
D03*
Y-5245100D02*
D03*
D103*
X6565900Y-419100D02*
D03*
Y-165100D02*
D03*
Y88900D02*
D03*
D104*
X5333999Y5689600D02*
D03*
X4825999D02*
D03*
X3275817D02*
D03*
X2767817D02*
D03*
X709635D02*
D03*
X1217635D02*
D03*
X-11125200Y-9156700D02*
D03*
X-11633200D02*
D03*
X-13189639Y5689600D02*
D03*
X-13697639D02*
D03*
X-11131458D02*
D03*
X-11639458D02*
D03*
X-9073275D02*
D03*
X-9581275D02*
D03*
X-7523093D02*
D03*
X-7015093D02*
D03*
X-4956911D02*
D03*
X-5464911D02*
D03*
X-2898729D02*
D03*
X-3406729D02*
D03*
X-840547D02*
D03*
X-1348547D02*
D03*
D105*
X-11728400Y-1032090D02*
D03*
X-11528400D02*
D03*
X-11328400D02*
D03*
X-11128400D02*
D03*
D106*
X-14935201Y-139700D02*
D03*
Y-647700D02*
D03*
X6527800Y-7797800D02*
D03*
Y-7289800D02*
D03*
X-14947900Y1041400D02*
D03*
Y533400D02*
D03*
X6527800Y-4318000D02*
D03*
Y-3810000D02*
D03*
D107*
X-14517999Y-3226800D02*
D03*
Y-3946800D02*
D03*
D108*
X-2764200Y-8989600D02*
D03*
X-3484200D02*
D03*
D109*
X-427800Y-8560500D02*
D03*
Y-5790500D02*
D03*
X5152200Y-8560500D02*
D03*
Y-5790500D02*
D03*
X-427800Y-4433000D02*
D03*
Y-1663000D02*
D03*
X5152200Y-4433000D02*
D03*
Y-1663000D02*
D03*
D110*
X-12802299Y-2226500D02*
D03*
X-10032300D02*
D03*
X-12802299Y-7806500D02*
D03*
X-10032300D02*
D03*
D111*
X-7589400Y-2654300D02*
D03*
X-7335400D02*
D03*
X-3017400D02*
D03*
X-7081400D02*
D03*
X-6827400D02*
D03*
X-6573400D02*
D03*
X-6319400D02*
D03*
X-6065400D02*
D03*
X-5811400D02*
D03*
X-5557400D02*
D03*
X-5303400D02*
D03*
X-5049400D02*
D03*
X-4795400D02*
D03*
X-4541400D02*
D03*
X-4287400D02*
D03*
X-4033400D02*
D03*
X-3779400D02*
D03*
X-3525400D02*
D03*
X-3271400D02*
D03*
X-7589400Y-114300D02*
D03*
X-7335400D02*
D03*
X-7081400D02*
D03*
X-6827400D02*
D03*
X-6573400D02*
D03*
X-6319400D02*
D03*
X-6065400D02*
D03*
X-5811400D02*
D03*
X-5557400D02*
D03*
X-5303400D02*
D03*
X-5049400D02*
D03*
X-4795400D02*
D03*
X-4541400D02*
D03*
X-4287400D02*
D03*
X-4033400D02*
D03*
X-3779400D02*
D03*
X-3525400D02*
D03*
X-3271400D02*
D03*
X-3017400D02*
D03*
D112*
X-1673010Y-6775500D02*
D03*
Y-6975500D02*
D03*
Y-7175500D02*
D03*
Y-7375500D02*
D03*
X-1647610Y-2724200D02*
D03*
Y-2924200D02*
D03*
Y-3124200D02*
D03*
Y-3324200D02*
D03*
D113*
X3668712Y660400D02*
D03*
X7023100D02*
D03*
X4965699Y-787400D02*
D03*
X6286498D02*
D03*
X7023100Y-63500D02*
D03*
Y-787400D02*
D03*
X5626098D02*
D03*
X4305299D02*
D03*
X3644899D02*
D03*
X2984499D02*
D03*
X2324100D02*
D03*
X6342061Y660400D02*
D03*
X5673723D02*
D03*
X5005386D02*
D03*
X4337049D02*
D03*
X2332037D02*
D03*
X1663700D02*
D03*
%TF.MD5,d3fa3ab51a1180e8b471b749748d8f7f*%
M02*
