%TF.GenerationSoftware,Altium Limited,Altium Designer,22.1.2 (22)*%
G04 Layer_Physical_Order=2*
G04 Layer_Color=16711680*
%FSLAX45Y45*%
%MOMM*%
%TF.SameCoordinates,97720CCC-B93B-4F85-99AC-C394CD96EF65*%
%TF.FilePolarity,Positive*%
%TF.FileFunction,Copper,L2,Bot,Signal*%
%TF.Part,Single*%
G01*
G75*
%TA.AperFunction,Conductor*%
%ADD10C,0.25400*%
%TA.AperFunction,ComponentPad*%
%ADD22C,1.98000*%
%ADD23C,1.93500*%
%ADD24R,1.98000X1.98000*%
%ADD25C,1.49800*%
%ADD26R,1.49800X1.49800*%
%ADD27C,8.00000*%
%ADD28C,1.40000*%
%ADD29R,1.50000X1.50000*%
%ADD30C,1.50000*%
%ADD31R,1.53000X1.53000*%
%ADD32C,1.53000*%
%ADD33R,1.50000X1.50000*%
%ADD34R,2.04000X2.04000*%
%ADD35C,2.04000*%
%ADD36R,1.65000X1.65000*%
%ADD37C,1.65000*%
%ADD38C,1.30800*%
%ADD39R,1.30800X1.30800*%
%ADD40R,1.65000X1.65000*%
%ADD41C,6.00000*%
%ADD42R,6.00000X6.00000*%
%ADD43R,1.40000X1.40000*%
%ADD44R,6.00000X6.00000*%
%ADD45R,1.56000X1.56000*%
%ADD46C,1.56000*%
%ADD47R,1.30800X1.30800*%
%TA.AperFunction,ViaPad*%
%ADD48C,1.27000*%
%TA.AperFunction,Conductor*%
%ADD49C,2.00000*%
G36*
X6667500Y6171703D02*
X6699098D01*
X6761756Y6163454D01*
X6822799Y6147098D01*
X6881187Y6122913D01*
X6935917Y6091314D01*
X6986054Y6052843D01*
X7030741Y6008156D01*
X7069214Y5958017D01*
X7100813Y5903286D01*
X7124997Y5844899D01*
X7141354Y5783855D01*
X7149603Y5721198D01*
X7149603Y5689600D01*
Y-888502D01*
X7038333D01*
X7036661Y-875802D01*
X7057414Y-870242D01*
X7077686Y-858538D01*
X7094238Y-841986D01*
X7105942Y-821714D01*
X7111733Y-800100D01*
X6934467D01*
X6940258Y-821714D01*
X6951962Y-841986D01*
X6968514Y-858538D01*
X6988786Y-870242D01*
X7009539Y-875802D01*
X7007867Y-888502D01*
X6301731D01*
X6300059Y-875802D01*
X6320812Y-870242D01*
X6341084Y-858538D01*
X6357636Y-841986D01*
X6369340Y-821714D01*
X6375131Y-800100D01*
X6197865D01*
X6203657Y-821714D01*
X6215360Y-841986D01*
X6231912Y-858538D01*
X6252184Y-870242D01*
X6272937Y-875802D01*
X6271265Y-888502D01*
X5641331D01*
X5639660Y-875802D01*
X5660413Y-870242D01*
X5680684Y-858538D01*
X5697236Y-841986D01*
X5708940Y-821714D01*
X5714732Y-800100D01*
X5537465D01*
X5543257Y-821714D01*
X5554961Y-841986D01*
X5571513Y-858538D01*
X5591784Y-870242D01*
X5612537Y-875802D01*
X5610866Y-888502D01*
X4980932D01*
X4979260Y-875802D01*
X5000013Y-870242D01*
X5020285Y-858538D01*
X5036837Y-841986D01*
X5048540Y-821714D01*
X5054332Y-800100D01*
X4877066D01*
X4882857Y-821714D01*
X4894561Y-841986D01*
X4911113Y-858538D01*
X4931385Y-870242D01*
X4952138Y-875802D01*
X4950466Y-888502D01*
X4325765D01*
X4320532Y-888502D01*
X4318860Y-875803D01*
X4324341Y-874334D01*
X4339613Y-870242D01*
X4359885Y-858538D01*
X4376437Y-841986D01*
X4388141Y-821714D01*
X4393932Y-800100D01*
X4216666D01*
X4222457Y-821714D01*
X4234161Y-841986D01*
X4250713Y-858538D01*
X4270985Y-870242D01*
X4293595Y-876300D01*
X4299484D01*
X4309429Y-886356D01*
X4310178Y-889000D01*
X4310082Y-889555D01*
X4309810Y-889748D01*
X4309136Y-890115D01*
X4309120Y-890123D01*
X4309118Y-890124D01*
X4308043Y-890338D01*
X4306268Y-890691D01*
X4305125Y-891455D01*
X4303813Y-891863D01*
X4301581Y-893721D01*
X4300853Y-894022D01*
X4299260Y-895087D01*
X4298393Y-895953D01*
X4297866Y-896305D01*
X4297554Y-896617D01*
X4296418Y-897285D01*
X4290961Y-902148D01*
X4290747Y-902237D01*
X4289387Y-903597D01*
X4287144Y-903151D01*
X4284788Y-902175D01*
X4282402Y-901700D01*
X4279851Y-901700D01*
X4277349Y-901202D01*
X1900828D01*
X1895968Y-889469D01*
X3623748Y838310D01*
X3632169Y850913D01*
X3635126Y865779D01*
Y1264430D01*
X4040149Y1669454D01*
X4851600D01*
Y1612900D01*
X5042400D01*
Y1669454D01*
X5073200D01*
X5088066Y1672411D01*
X5100669Y1680832D01*
X5472551Y2052714D01*
X5497982Y2045900D01*
X5524418D01*
X5549953Y2052742D01*
X5572847Y2065960D01*
X5591540Y2084653D01*
X5604758Y2107547D01*
X5611600Y2133082D01*
Y2159518D01*
X5604758Y2185053D01*
X5591540Y2207947D01*
X5572847Y2226640D01*
X5549953Y2239858D01*
X5524418Y2246700D01*
X5497982D01*
X5472447Y2239858D01*
X5449553Y2226640D01*
X5430860Y2207947D01*
X5417642Y2185053D01*
X5410800Y2159518D01*
Y2133082D01*
X5417614Y2107651D01*
X5057110Y1747147D01*
X4024058D01*
X4009192Y1744190D01*
X3996590Y1735769D01*
X3568810Y1307990D01*
X3560390Y1295387D01*
X3557433Y1280521D01*
Y881870D01*
X2413100Y-262463D01*
X2400400Y-257202D01*
Y-240782D01*
X2393558Y-215247D01*
X2380340Y-192353D01*
X2361647Y-173660D01*
X2338753Y-160442D01*
X2313218Y-153600D01*
X2286782D01*
X2261247Y-160442D01*
X2238353Y-173660D01*
X2219660Y-192353D01*
X2206442Y-215247D01*
X2199600Y-240782D01*
Y-267218D01*
X2206442Y-292753D01*
X2219660Y-315647D01*
X2238353Y-334340D01*
X2261247Y-347558D01*
X2286782Y-354400D01*
X2303202D01*
X2308463Y-367100D01*
X1685709Y-989853D01*
X-3860800D01*
X-3875666Y-992811D01*
X-3888269Y-1001231D01*
X-4568869Y-1681832D01*
X-4577290Y-1694434D01*
X-4580247Y-1709300D01*
Y-2557661D01*
X-4581311Y-2557947D01*
X-4604889Y-2571559D01*
X-4624141Y-2590811D01*
X-4637753Y-2614389D01*
X-4644800Y-2640687D01*
Y-2667913D01*
X-4637753Y-2694211D01*
X-4624141Y-2717789D01*
X-4604889Y-2737040D01*
X-4581311Y-2750653D01*
X-4555013Y-2757700D01*
X-4527787D01*
X-4501489Y-2750653D01*
X-4477911Y-2737040D01*
X-4458660Y-2717789D01*
X-4445047Y-2694211D01*
X-4438000Y-2667913D01*
Y-2640687D01*
X-4445047Y-2614389D01*
X-4458660Y-2590811D01*
X-4477911Y-2571559D01*
X-4501489Y-2557947D01*
X-4502554Y-2557661D01*
Y-1725391D01*
X-3844709Y-1067547D01*
X-965698D01*
Y-3013878D01*
X-967265Y-3016220D01*
X-968000Y-3017992D01*
X-968377Y-3019882D01*
X-968953Y-3020981D01*
X-969334Y-3022270D01*
X-969396Y-3022957D01*
X-969509Y-3023229D01*
X-969509Y-3023230D01*
X-969510Y-3023654D01*
X-969660Y-3024052D01*
X-969660Y-3024053D01*
X-969637Y-3024787D01*
X-969871Y-3025578D01*
X-969906Y-3025970D01*
X-970287Y-3027262D01*
X-970436Y-3028903D01*
X-970439Y-3028914D01*
X-970964Y-3034691D01*
X-970796Y-3036274D01*
X-971051Y-3037760D01*
X-971029Y-3038601D01*
X-970477Y-3041038D01*
X-970433Y-3042743D01*
X-970423Y-3042788D01*
X-970005Y-3043728D01*
X-969897Y-3044739D01*
X-969696Y-3045110D01*
X-969578Y-3046247D01*
X-969096Y-3047139D01*
X-968798Y-3048456D01*
X-968797Y-3048457D01*
X-968488Y-3049151D01*
X-966796Y-3051545D01*
X-966614Y-3052136D01*
X-966358Y-3052609D01*
X-965731Y-3053367D01*
X-964774Y-3055136D01*
X-963775Y-3056343D01*
X-962905Y-3057050D01*
X-962656Y-3057403D01*
X-962532Y-3057481D01*
X-961398Y-3059085D01*
X-956788Y-3063457D01*
X-956786Y-3063458D01*
X-955126Y-3065033D01*
X-953294Y-3066188D01*
X-953156Y-3066319D01*
X-952919Y-3066469D01*
X-952870Y-3066516D01*
X-952867Y-3066518D01*
X-952815Y-3066538D01*
X-951112Y-3068153D01*
X-949282Y-3069306D01*
X-947358Y-3070044D01*
X-945227Y-3071465D01*
X-945123Y-3071508D01*
X-944844Y-3071564D01*
X-944611Y-3071711D01*
X-942088Y-3072145D01*
X-940078Y-3072977D01*
X-937953Y-3073400D01*
X-935601D01*
X-935224Y-3073475D01*
X-935026D01*
X-932901Y-3073898D01*
X177302D01*
Y-5054600D01*
X166781Y-5066802D01*
X-928156D01*
X-928415Y-5066854D01*
X-928675Y-5066807D01*
X-933360Y-5067837D01*
X-938067Y-5068774D01*
X-938286Y-5068921D01*
X-938544Y-5068977D01*
X-950187Y-5074075D01*
X-951912Y-5075279D01*
X-953868Y-5076055D01*
X-955844Y-5077974D01*
X-958112Y-5079489D01*
X-958255Y-5079703D01*
X-958475Y-5079856D01*
X-959609Y-5081629D01*
X-961118Y-5083094D01*
X-962207Y-5085617D01*
X-963726Y-5087891D01*
X-963777Y-5088146D01*
X-963919Y-5088369D01*
X-964288Y-5090441D01*
X-965122Y-5092372D01*
X-965123Y-5092376D01*
X-965163Y-5095115D01*
X-965698Y-5097802D01*
Y-6808256D01*
X-965646Y-6808515D01*
X-965693Y-6808775D01*
X-964663Y-6813460D01*
X-963726Y-6818167D01*
X-963579Y-6818386D01*
X-963523Y-6818644D01*
X-958425Y-6830287D01*
X-957221Y-6832012D01*
X-956445Y-6833968D01*
X-954526Y-6835944D01*
X-953011Y-6838212D01*
X-952797Y-6838355D01*
X-952644Y-6838575D01*
X-950871Y-6839709D01*
X-949406Y-6841218D01*
X-946883Y-6842307D01*
X-944609Y-6843826D01*
X-944354Y-6843877D01*
X-944131Y-6844019D01*
X-942059Y-6844388D01*
X-940128Y-6845222D01*
X-940124Y-6845223D01*
X-937385Y-6845263D01*
X-934698Y-6845798D01*
X24902D01*
Y-9234873D01*
X1973Y-9257802D01*
X-2323602D01*
Y-8600450D01*
X-2323836Y-8599276D01*
X-2323836Y-8599274D01*
X-2323836Y-8597929D01*
X-2324101Y-8596600D01*
Y-8595396D01*
X-2324334Y-8594224D01*
X-2324445Y-8593038D01*
X-2324789Y-8591883D01*
X-2324916Y-8590532D01*
X-2325300Y-8589244D01*
X-2325301Y-8589243D01*
X-2325412Y-8588053D01*
X-2325757Y-8586897D01*
X-2325758Y-8586896D01*
X-2325758Y-8586894D01*
X-2327327Y-8581637D01*
X-2327696Y-8580939D01*
X-2327738Y-8580603D01*
X-2327738Y-8580602D01*
X-2328011Y-8580124D01*
X-2328196Y-8579181D01*
X-2328201Y-8579169D01*
X-2328386Y-8578891D01*
X-2328391Y-8578866D01*
X-2328796Y-8577888D01*
X-2330048Y-8576013D01*
X-2330621Y-8574632D01*
X-2330780Y-8574395D01*
X-2330801Y-8574374D01*
X-2330813Y-8574345D01*
X-2330824Y-8574329D01*
X-2331066Y-8574088D01*
X-2331511Y-8573014D01*
X-2332139Y-8572386D01*
X-2332629Y-8571460D01*
X-2332951Y-8571063D01*
X-2333857Y-8570313D01*
X-2334410Y-8569486D01*
X-2336307Y-8568218D01*
X-2336469Y-8568056D01*
X-2336623Y-8567825D01*
X-2337419Y-8567029D01*
X-2337634Y-8566886D01*
X-2337635Y-8566884D01*
X-2337652Y-8566873D01*
X-2338656Y-8565869D01*
X-2340541Y-8564609D01*
X-2341332Y-8563817D01*
X-2341542Y-8563676D01*
X-2343574Y-8562833D01*
X-2345213Y-8561676D01*
X-2345216Y-8561675D01*
X-2345542Y-8561601D01*
X-2345821Y-8561415D01*
X-2345824Y-8561415D01*
X-2346038Y-8561272D01*
X-2348530Y-8560777D01*
X-2350875Y-8559804D01*
X-2353436Y-8559802D01*
X-2354130Y-8559664D01*
X-2355073Y-8559451D01*
X-2355141Y-8559463D01*
X-2355949Y-8559303D01*
X-2358491Y-8559303D01*
X-2358495Y-8559302D01*
X-3112556D01*
X-3112815Y-8559354D01*
X-3113075Y-8559307D01*
X-3117760Y-8560337D01*
X-3122467Y-8561274D01*
X-3122686Y-8561421D01*
X-3122944Y-8561477D01*
X-3134587Y-8566575D01*
X-3136312Y-8567779D01*
X-3138268Y-8568555D01*
X-3140244Y-8570474D01*
X-3142512Y-8571989D01*
X-3142655Y-8572203D01*
X-3142875Y-8572356D01*
X-3144009Y-8574129D01*
X-3145518Y-8575594D01*
X-3146607Y-8578117D01*
X-3148126Y-8580391D01*
X-3148177Y-8580646D01*
X-3148319Y-8580869D01*
X-3148688Y-8582941D01*
X-3149522Y-8584872D01*
X-3149523Y-8584876D01*
X-3149563Y-8587615D01*
X-3150098Y-8590302D01*
Y-8937752D01*
X-3162798Y-8938751D01*
X-3166813Y-8913402D01*
X-3182640Y-8864690D01*
X-3205893Y-8819053D01*
X-3235999Y-8777616D01*
X-3272216Y-8741399D01*
X-3313653Y-8711293D01*
X-3359290Y-8688040D01*
X-3408002Y-8672213D01*
X-3458590Y-8664200D01*
X-3471501D01*
Y-8989600D01*
Y-9315000D01*
X-3458590D01*
X-3408002Y-9306987D01*
X-3359290Y-9291160D01*
X-3313653Y-9267907D01*
X-3272216Y-9237801D01*
X-3235999Y-9201584D01*
X-3205893Y-9160147D01*
X-3182640Y-9114510D01*
X-3166813Y-9065798D01*
X-3162798Y-9040449D01*
X-3150098Y-9041448D01*
Y-9753104D01*
X-3162798Y-9753104D01*
X-14968600Y-9753105D01*
X-14999673D01*
X-15061292Y-9744993D01*
X-15121323Y-9728908D01*
X-15178741Y-9705124D01*
X-15232562Y-9674050D01*
X-15281870Y-9636216D01*
X-15325816Y-9592269D01*
X-15363649Y-9542964D01*
X-15394724Y-9489141D01*
X-15418507Y-9431723D01*
X-15434592Y-9371692D01*
X-15442703Y-9310074D01*
X-15442703Y-9279000D01*
X-15442703Y5702300D01*
Y5733066D01*
X-15434673Y5794073D01*
X-15418745Y5853508D01*
X-15395200Y5910357D01*
X-15364433Y5963645D01*
X-15326974Y6012463D01*
X-15283464Y6055973D01*
X-15234647Y6093432D01*
X-15181358Y6124198D01*
X-15124509Y6147746D01*
X-15065073Y6163671D01*
X-15004066Y6171703D01*
X-14973300Y6171704D01*
X6667500Y6171703D01*
D02*
G37*
G36*
X4279735Y-927575D02*
Y-928822D01*
X4279900Y-929651D01*
Y-3365002D01*
Y-3390900D01*
X6639550D01*
X6641677Y-3391323D01*
X6642100Y-3393451D01*
Y-3758075D01*
X6639134Y-3760576D01*
X6632929Y-3761370D01*
X6622410Y-3758069D01*
X6614141Y-3743748D01*
X6594052Y-3723659D01*
X6569448Y-3709453D01*
X6542005Y-3702100D01*
X6540500D01*
Y-3810000D01*
Y-3917900D01*
X6542005D01*
X6569448Y-3910547D01*
X6594052Y-3896341D01*
X6614141Y-3876252D01*
X6622410Y-3861932D01*
X6632930Y-3858630D01*
X6639134Y-3859424D01*
X6642100Y-3861925D01*
Y-4010650D01*
X6641677Y-4012777D01*
X6639549Y-4013200D01*
X5537200D01*
Y-5142993D01*
X5534649Y-5143500D01*
X1511807D01*
X1511300Y-5140949D01*
Y-1067547D01*
X1701800D01*
X1716666Y-1064589D01*
X1729269Y-1056169D01*
X1858337Y-927100D01*
X4277349D01*
X4279735Y-927575D01*
D02*
G37*
G36*
X7149604Y-5143500D02*
X5565648D01*
X5563098Y-5142993D01*
Y-4039098D01*
X6642100D01*
X6652011Y-4037126D01*
X6660412Y-4031512D01*
X6666026Y-4023111D01*
X6667998Y-4013200D01*
Y-3849390D01*
X6667337Y-3846067D01*
X6667115Y-3842687D01*
X6666360Y-3841155D01*
X6666026Y-3839479D01*
X6664144Y-3836662D01*
X6662646Y-3833625D01*
X6661362Y-3832498D01*
X6660412Y-3831077D01*
X6657596Y-3829195D01*
X6655049Y-3826962D01*
X6653431Y-3826413D01*
X6652011Y-3825464D01*
X6648689Y-3824803D01*
X6645480Y-3823714D01*
X6642100Y-3823269D01*
Y-3796731D01*
X6645480Y-3796286D01*
X6648689Y-3795197D01*
X6652011Y-3794536D01*
X6653431Y-3793587D01*
X6655049Y-3793038D01*
X6657596Y-3790805D01*
X6660412Y-3788923D01*
X6661362Y-3787502D01*
X6662646Y-3786375D01*
X6664144Y-3783338D01*
X6666026Y-3780521D01*
X6666360Y-3778845D01*
X6667115Y-3777313D01*
X6667337Y-3773933D01*
X6667998Y-3770610D01*
Y-3390900D01*
X6666026Y-3380989D01*
X6660412Y-3372588D01*
X6652011Y-3366974D01*
X6642100Y-3365002D01*
X4305798D01*
Y-927100D01*
X4305135Y-923770D01*
X4305479Y-923426D01*
X4307040Y-922508D01*
X4313648Y-916619D01*
X4315241Y-915555D01*
X4316178Y-914618D01*
X4317498Y-914478D01*
X4317751Y-914400D01*
X7149604D01*
Y-5143500D01*
D02*
G37*
G36*
X3949202Y-7010400D02*
X3951174Y-7020311D01*
X3956788Y-7028712D01*
X3965189Y-7034326D01*
X3975100Y-7036298D01*
X6628902D01*
Y-7223714D01*
X6616202Y-7227117D01*
X6614141Y-7223548D01*
X6594052Y-7203459D01*
X6569448Y-7189253D01*
X6542005Y-7181900D01*
X6540500D01*
Y-7289800D01*
Y-7397700D01*
X6542005D01*
X6569448Y-7390347D01*
X6594052Y-7376141D01*
X6614141Y-7356052D01*
X6616202Y-7352483D01*
X6628902Y-7355886D01*
Y-7644902D01*
X5575300D01*
X5565389Y-7646874D01*
X5556988Y-7652488D01*
X5551374Y-7660889D01*
X5549402Y-7670800D01*
Y-9105900D01*
X1524000D01*
X1523033Y-9106867D01*
X1511300Y-9102006D01*
Y-5169398D01*
X3949202D01*
Y-7010400D01*
D02*
G37*
G36*
X5553187Y-5167426D02*
X5563098Y-5169398D01*
X7149604D01*
Y-9105900D01*
X7064250D01*
X7057848Y-9090447D01*
X7029966Y-9042153D01*
X6996019Y-8997912D01*
X6956588Y-8958481D01*
X6912347Y-8924534D01*
X6864053Y-8896651D01*
X6812534Y-8875311D01*
X6758669Y-8860879D01*
X6703382Y-8853600D01*
X6647618D01*
X6592330Y-8860879D01*
X6538466Y-8875311D01*
X6486947Y-8896651D01*
X6438653Y-8924534D01*
X6394412Y-8958481D01*
X6354981Y-8997912D01*
X6321034Y-9042153D01*
X6293151Y-9090447D01*
X6286750Y-9105900D01*
X5577850D01*
X5577801Y-9105890D01*
X5577801D01*
X5576514Y-9105634D01*
X5575349Y-9105402D01*
X5575349D01*
X5575301Y-9105393D01*
X5575300Y-9105393D01*
Y-7673350D01*
X5575723Y-7671223D01*
X5577851Y-7670800D01*
X6654800D01*
Y-7010400D01*
X3977650D01*
X3975523Y-7009977D01*
X3975100Y-7007849D01*
Y-5169398D01*
X5537200D01*
X5547111Y-5167426D01*
X5550149Y-5165396D01*
X5553187Y-5167426D01*
D02*
G37*
G36*
X1485402Y-5140949D02*
X1485900Y-5143450D01*
X1485900Y-5146000D01*
X1486407Y-5148551D01*
X1487383Y-5150909D01*
X1487881Y-5153411D01*
X1489297Y-5155530D01*
X1489573Y-5156196D01*
X1487374Y-5159487D01*
X1485402Y-5169398D01*
Y-9102006D01*
X1487374Y-9111917D01*
X1492987Y-9120319D01*
X1501389Y-9125933D01*
X1501390Y-9125933D01*
X1513122Y-9130793D01*
X1513123Y-9130793D01*
X1523033Y-9132764D01*
X1527894Y-9131798D01*
X5549402D01*
X5559313Y-9129826D01*
X5562598Y-9127631D01*
X5563291Y-9127916D01*
X5565389Y-9129319D01*
X5565437Y-9129328D01*
X5565438Y-9129329D01*
X5567904Y-9129819D01*
X5570275Y-9130798D01*
X5570287D01*
X5570298Y-9130803D01*
X5572748Y-9131290D01*
X5572873D01*
X5575323Y-9131295D01*
X5577850Y-9131798D01*
X6264824D01*
X6271133Y-9144498D01*
X6257379Y-9195830D01*
X6250100Y-9251118D01*
Y-9306882D01*
X6257379Y-9362169D01*
X6271811Y-9416034D01*
X6293151Y-9467553D01*
X6321034Y-9515847D01*
X6354981Y-9560088D01*
X6394412Y-9599519D01*
X6438653Y-9633466D01*
X6486947Y-9661348D01*
X6538466Y-9682689D01*
X6592330Y-9697121D01*
X6647618Y-9704400D01*
X6703382D01*
X6758669Y-9697121D01*
X6812534Y-9682689D01*
X6864053Y-9661348D01*
X6912347Y-9633466D01*
X6956588Y-9599519D01*
X6996019Y-9560088D01*
X7029966Y-9515847D01*
X7057848Y-9467553D01*
X7079189Y-9416034D01*
X7093621Y-9362169D01*
X7100900Y-9306882D01*
Y-9251118D01*
X7093621Y-9195830D01*
X7079867Y-9144498D01*
X7086176Y-9131798D01*
X7149604D01*
Y-9271000D01*
Y-9302598D01*
X7141355Y-9365256D01*
X7124998Y-9426300D01*
X7100813Y-9484688D01*
X7069215Y-9539416D01*
X7030743Y-9589555D01*
X6986056Y-9634242D01*
X6935916Y-9672715D01*
X6881187Y-9704313D01*
X6822800Y-9728498D01*
X6761756Y-9744855D01*
X6699098Y-9753104D01*
X6667501Y-9753103D01*
X-3124200Y-9753104D01*
Y-8590302D01*
X-3124199Y-8590298D01*
X-3112556Y-8585200D01*
X-2358495D01*
X-2358491Y-8585201D01*
X-2355943Y-8585200D01*
X-2355734Y-8585340D01*
X-2355732Y-8585341D01*
X-2354936Y-8586138D01*
X-2353045Y-8587401D01*
X-2352722Y-8587798D01*
X-2352317Y-8588776D01*
X-2352307Y-8588791D01*
X-2352307Y-8588792D01*
X-2352148Y-8589029D01*
X-2352143Y-8589042D01*
X-2350574Y-8594299D01*
Y-8594300D01*
X-2350229Y-8595457D01*
X-2350118Y-8596645D01*
X-2349733Y-8597934D01*
X-2349733Y-8599279D01*
X-2349500Y-8600450D01*
Y-9257802D01*
Y-9283700D01*
X12700D01*
X50800Y-9245600D01*
Y-6819900D01*
X-934698D01*
X-934702Y-6819899D01*
X-939800Y-6808256D01*
Y-5097802D01*
X-939799Y-5097798D01*
X-928156Y-5092700D01*
X241300D01*
X203200Y-5054600D01*
Y-3048000D01*
X-932901D01*
X-935026Y-3047577D01*
X-935224D01*
X-935329Y-3047534D01*
X-935473Y-3047397D01*
X-937303Y-3046244D01*
X-938963Y-3044669D01*
X-938966Y-3044667D01*
X-943576Y-3040295D01*
X-943831Y-3039822D01*
X-944831Y-3038615D01*
X-945140Y-3037921D01*
X-945162Y-3037080D01*
X-945172Y-3037035D01*
X-944647Y-3031258D01*
X-944644Y-3031247D01*
X-944495Y-3029599D01*
X-944115Y-3028311D01*
X-944114Y-3028309D01*
X-944114Y-3028308D01*
X-944079Y-3027915D01*
X-943344Y-3026144D01*
X-939800Y-3022600D01*
Y-1067547D01*
X1485402D01*
Y-5140949D01*
D02*
G37*
%LPC*%
G36*
X5441899Y5797500D02*
X5226099D01*
Y5581700D01*
X5441899D01*
Y5797500D01*
D02*
G37*
G36*
X4840204D02*
X4811794D01*
X4784351Y5790147D01*
X4759747Y5775941D01*
X4739658Y5755852D01*
X4725452Y5731248D01*
X4718099Y5703805D01*
Y5675395D01*
X4725452Y5647952D01*
X4739658Y5623348D01*
X4759747Y5603259D01*
X4784351Y5589053D01*
X4811794Y5581700D01*
X4840204D01*
X4867647Y5589053D01*
X4892251Y5603259D01*
X4912340Y5623348D01*
X4926546Y5647952D01*
X4933899Y5675395D01*
Y5703805D01*
X4926546Y5731248D01*
X4912340Y5755852D01*
X4892251Y5775941D01*
X4867647Y5790147D01*
X4840204Y5797500D01*
D02*
G37*
G36*
X3383717D02*
X3167917D01*
Y5581700D01*
X3383717D01*
Y5797500D01*
D02*
G37*
G36*
X2782022D02*
X2753612D01*
X2726169Y5790147D01*
X2701565Y5775941D01*
X2681475Y5755852D01*
X2667270Y5731248D01*
X2659917Y5703805D01*
Y5675395D01*
X2667270Y5647952D01*
X2681475Y5623348D01*
X2701565Y5603259D01*
X2726169Y5589053D01*
X2753612Y5581700D01*
X2782022D01*
X2809465Y5589053D01*
X2834069Y5603259D01*
X2854158Y5623348D01*
X2868364Y5647952D01*
X2875717Y5675395D01*
Y5703805D01*
X2868364Y5731248D01*
X2854158Y5755852D01*
X2834069Y5775941D01*
X2809465Y5790147D01*
X2782022Y5797500D01*
D02*
G37*
G36*
X1325535D02*
X1109735D01*
Y5581700D01*
X1325535D01*
Y5797500D01*
D02*
G37*
G36*
X723840D02*
X695430D01*
X667987Y5790147D01*
X643383Y5775941D01*
X623293Y5755852D01*
X609088Y5731248D01*
X601735Y5703805D01*
Y5675395D01*
X609088Y5647952D01*
X623293Y5623348D01*
X643383Y5603259D01*
X667987Y5589053D01*
X695430Y5581700D01*
X723840D01*
X751283Y5589053D01*
X775887Y5603259D01*
X795976Y5623348D01*
X810182Y5647952D01*
X817535Y5675395D01*
Y5703805D01*
X810182Y5731248D01*
X795976Y5755852D01*
X775887Y5775941D01*
X751283Y5790147D01*
X723840Y5797500D01*
D02*
G37*
G36*
X-732647D02*
X-948447D01*
Y5581700D01*
X-732647D01*
Y5797500D01*
D02*
G37*
G36*
X-1334342D02*
X-1362752D01*
X-1390195Y5790147D01*
X-1414799Y5775941D01*
X-1434889Y5755852D01*
X-1449094Y5731248D01*
X-1456447Y5703805D01*
Y5675395D01*
X-1449094Y5647952D01*
X-1434889Y5623348D01*
X-1414799Y5603259D01*
X-1390195Y5589053D01*
X-1362752Y5581700D01*
X-1334342D01*
X-1306899Y5589053D01*
X-1282295Y5603259D01*
X-1262206Y5623348D01*
X-1248000Y5647952D01*
X-1240647Y5675395D01*
Y5703805D01*
X-1248000Y5731248D01*
X-1262206Y5755852D01*
X-1282295Y5775941D01*
X-1306899Y5790147D01*
X-1334342Y5797500D01*
D02*
G37*
G36*
X-2790829D02*
X-3006629D01*
Y5581700D01*
X-2790829D01*
Y5797500D01*
D02*
G37*
G36*
X-3392524D02*
X-3420934D01*
X-3448377Y5790147D01*
X-3472981Y5775941D01*
X-3493071Y5755852D01*
X-3507276Y5731248D01*
X-3514629Y5703805D01*
Y5675395D01*
X-3507276Y5647952D01*
X-3493071Y5623348D01*
X-3472981Y5603259D01*
X-3448377Y5589053D01*
X-3420934Y5581700D01*
X-3392524D01*
X-3365081Y5589053D01*
X-3340477Y5603259D01*
X-3320388Y5623348D01*
X-3306182Y5647952D01*
X-3298829Y5675395D01*
Y5703805D01*
X-3306182Y5731248D01*
X-3320388Y5755852D01*
X-3340477Y5775941D01*
X-3365081Y5790147D01*
X-3392524Y5797500D01*
D02*
G37*
G36*
X-4849011D02*
X-5064811D01*
Y5581700D01*
X-4849011D01*
Y5797500D01*
D02*
G37*
G36*
X-5450706D02*
X-5479117D01*
X-5506559Y5790147D01*
X-5531163Y5775941D01*
X-5551253Y5755852D01*
X-5565458Y5731248D01*
X-5572811Y5703805D01*
Y5675395D01*
X-5565458Y5647952D01*
X-5551253Y5623348D01*
X-5531163Y5603259D01*
X-5506559Y5589053D01*
X-5479117Y5581700D01*
X-5450706D01*
X-5423263Y5589053D01*
X-5398659Y5603259D01*
X-5378570Y5623348D01*
X-5364364Y5647952D01*
X-5357011Y5675395D01*
Y5703805D01*
X-5364364Y5731248D01*
X-5378570Y5755852D01*
X-5398659Y5775941D01*
X-5423263Y5790147D01*
X-5450706Y5797500D01*
D02*
G37*
G36*
X-6907193D02*
X-7122993D01*
Y5581700D01*
X-6907193D01*
Y5797500D01*
D02*
G37*
G36*
X-7508888D02*
X-7537299D01*
X-7564741Y5790147D01*
X-7589346Y5775941D01*
X-7609435Y5755852D01*
X-7623640Y5731248D01*
X-7630993Y5703805D01*
Y5675395D01*
X-7623640Y5647952D01*
X-7609435Y5623348D01*
X-7589346Y5603259D01*
X-7564741Y5589053D01*
X-7537299Y5581700D01*
X-7508888D01*
X-7481446Y5589053D01*
X-7456841Y5603259D01*
X-7436752Y5623348D01*
X-7422546Y5647952D01*
X-7415193Y5675395D01*
Y5703805D01*
X-7422546Y5731248D01*
X-7436752Y5755852D01*
X-7456841Y5775941D01*
X-7481446Y5790147D01*
X-7508888Y5797500D01*
D02*
G37*
G36*
X-8965376D02*
X-9181175D01*
Y5581700D01*
X-8965376D01*
Y5797500D01*
D02*
G37*
G36*
X-9567070D02*
X-9595481D01*
X-9622923Y5790147D01*
X-9647528Y5775941D01*
X-9667617Y5755852D01*
X-9681822Y5731248D01*
X-9689175Y5703805D01*
Y5675395D01*
X-9681822Y5647952D01*
X-9667617Y5623348D01*
X-9647528Y5603259D01*
X-9622923Y5589053D01*
X-9595481Y5581700D01*
X-9567070D01*
X-9539628Y5589053D01*
X-9515023Y5603259D01*
X-9494934Y5623348D01*
X-9480729Y5647952D01*
X-9473376Y5675395D01*
Y5703805D01*
X-9480729Y5731248D01*
X-9494934Y5755852D01*
X-9515023Y5775941D01*
X-9539628Y5790147D01*
X-9567070Y5797500D01*
D02*
G37*
G36*
X-11023558D02*
X-11239358D01*
Y5581700D01*
X-11023558D01*
Y5797500D01*
D02*
G37*
G36*
X-11625252D02*
X-11653663D01*
X-11681105Y5790147D01*
X-11705710Y5775941D01*
X-11725799Y5755852D01*
X-11740004Y5731248D01*
X-11747358Y5703805D01*
Y5675395D01*
X-11740004Y5647952D01*
X-11725799Y5623348D01*
X-11705710Y5603259D01*
X-11681105Y5589053D01*
X-11653663Y5581700D01*
X-11625252D01*
X-11597810Y5589053D01*
X-11573205Y5603259D01*
X-11553116Y5623348D01*
X-11538911Y5647952D01*
X-11531558Y5675395D01*
Y5703805D01*
X-11538911Y5731248D01*
X-11553116Y5755852D01*
X-11573205Y5775941D01*
X-11597810Y5790147D01*
X-11625252Y5797500D01*
D02*
G37*
G36*
X-13081740D02*
X-13297540D01*
Y5581700D01*
X-13081740D01*
Y5797500D01*
D02*
G37*
G36*
X-13683434D02*
X-13711845D01*
X-13739287Y5790147D01*
X-13763892Y5775941D01*
X-13783981Y5755852D01*
X-13798187Y5731248D01*
X-13805540Y5703805D01*
Y5675395D01*
X-13798187Y5647952D01*
X-13783981Y5623348D01*
X-13763892Y5603259D01*
X-13739287Y5589053D01*
X-13711845Y5581700D01*
X-13683434D01*
X-13655992Y5589053D01*
X-13631387Y5603259D01*
X-13611298Y5623348D01*
X-13597093Y5647952D01*
X-13589740Y5675395D01*
Y5703805D01*
X-13597093Y5731248D01*
X-13611298Y5755852D01*
X-13631387Y5775941D01*
X-13655992Y5790147D01*
X-13683434Y5797500D01*
D02*
G37*
G36*
X6703382Y6123000D02*
X6647618D01*
X6592330Y6115721D01*
X6538466Y6101289D01*
X6486947Y6079948D01*
X6438653Y6052066D01*
X6394412Y6018119D01*
X6354981Y5978688D01*
X6321034Y5934447D01*
X6293151Y5886153D01*
X6271811Y5834634D01*
X6257379Y5780769D01*
X6250100Y5725482D01*
Y5669718D01*
X6257379Y5614430D01*
X6271811Y5560566D01*
X6293151Y5509047D01*
X6321034Y5460753D01*
X6354981Y5416512D01*
X6394412Y5377081D01*
X6438653Y5343134D01*
X6486947Y5315251D01*
X6538466Y5293911D01*
X6592330Y5279479D01*
X6647618Y5272200D01*
X6703382D01*
X6758669Y5279479D01*
X6812534Y5293911D01*
X6864053Y5315251D01*
X6912347Y5343134D01*
X6956588Y5377081D01*
X6996019Y5416512D01*
X7029966Y5460753D01*
X7057848Y5509047D01*
X7079189Y5560566D01*
X7093621Y5614430D01*
X7100900Y5669718D01*
Y5725482D01*
X7093621Y5780769D01*
X7079189Y5834634D01*
X7057848Y5886153D01*
X7029966Y5934447D01*
X6996019Y5978688D01*
X6956588Y6018119D01*
X6912347Y6052066D01*
X6864053Y6079948D01*
X6812534Y6101289D01*
X6758669Y6115721D01*
X6703382Y6123000D01*
D02*
G37*
G36*
X-14940718D02*
X-14996481D01*
X-15051768Y6115721D01*
X-15105634Y6101289D01*
X-15157153Y6079948D01*
X-15205447Y6052066D01*
X-15249689Y6018119D01*
X-15289119Y5978688D01*
X-15323067Y5934447D01*
X-15350948Y5886153D01*
X-15372289Y5834634D01*
X-15386720Y5780769D01*
X-15394000Y5725482D01*
Y5669718D01*
X-15386720Y5614430D01*
X-15372289Y5560566D01*
X-15350948Y5509047D01*
X-15323067Y5460753D01*
X-15289119Y5416512D01*
X-15249689Y5377081D01*
X-15205447Y5343134D01*
X-15157153Y5315251D01*
X-15105634Y5293911D01*
X-15051768Y5279479D01*
X-14996481Y5272200D01*
X-14940718D01*
X-14885429Y5279479D01*
X-14831566Y5293911D01*
X-14780048Y5315251D01*
X-14731754Y5343134D01*
X-14687512Y5377081D01*
X-14648080Y5416512D01*
X-14614134Y5460753D01*
X-14586250Y5509047D01*
X-14564911Y5560566D01*
X-14550479Y5614430D01*
X-14543201Y5669718D01*
Y5725482D01*
X-14550479Y5780769D01*
X-14564911Y5834634D01*
X-14586250Y5886153D01*
X-14614134Y5934447D01*
X-14648080Y5978688D01*
X-14687512Y6018119D01*
X-14731754Y6052066D01*
X-14780048Y6079948D01*
X-14831566Y6101289D01*
X-14885429Y6115721D01*
X-14940718Y6123000D01*
D02*
G37*
G36*
X5582078Y4887300D02*
X5549322D01*
X5517683Y4878822D01*
X5489317Y4862445D01*
X5466155Y4839283D01*
X5449778Y4810917D01*
X5441300Y4779278D01*
Y4746522D01*
X5449778Y4714883D01*
X5466155Y4686517D01*
X5489317Y4663355D01*
X5517683Y4646978D01*
X5549322Y4638500D01*
X5582078D01*
X5613717Y4646978D01*
X5642083Y4663355D01*
X5665245Y4686517D01*
X5681622Y4714883D01*
X5690100Y4746522D01*
Y4779278D01*
X5681622Y4810917D01*
X5665245Y4839283D01*
X5642083Y4862445D01*
X5613717Y4878822D01*
X5582078Y4887300D01*
D02*
G37*
G36*
X4382078D02*
X4349322D01*
X4317683Y4878822D01*
X4289317Y4862445D01*
X4266155Y4839283D01*
X4249778Y4810917D01*
X4241300Y4779278D01*
Y4746522D01*
X4249778Y4714883D01*
X4266155Y4686517D01*
X4289317Y4663355D01*
X4317683Y4646978D01*
X4349322Y4638500D01*
X4382078D01*
X4413717Y4646978D01*
X4442083Y4663355D01*
X4465245Y4686517D01*
X4481622Y4714883D01*
X4490100Y4746522D01*
Y4779278D01*
X4481622Y4810917D01*
X4465245Y4839283D01*
X4442083Y4862445D01*
X4413717Y4878822D01*
X4382078Y4887300D01*
D02*
G37*
G36*
X3550078D02*
X3517322D01*
X3485683Y4878822D01*
X3457317Y4862445D01*
X3434155Y4839283D01*
X3417778Y4810917D01*
X3409300Y4779278D01*
Y4746522D01*
X3417778Y4714883D01*
X3434155Y4686517D01*
X3457317Y4663355D01*
X3485683Y4646978D01*
X3517322Y4638500D01*
X3550078D01*
X3581717Y4646978D01*
X3610083Y4663355D01*
X3633245Y4686517D01*
X3649622Y4714883D01*
X3658100Y4746522D01*
Y4779278D01*
X3649622Y4810917D01*
X3633245Y4839283D01*
X3610083Y4862445D01*
X3581717Y4878822D01*
X3550078Y4887300D01*
D02*
G37*
G36*
X2350078D02*
X2317322D01*
X2285683Y4878822D01*
X2257317Y4862445D01*
X2234155Y4839283D01*
X2217778Y4810917D01*
X2209300Y4779278D01*
Y4746522D01*
X2217778Y4714883D01*
X2234155Y4686517D01*
X2257317Y4663355D01*
X2285683Y4646978D01*
X2317322Y4638500D01*
X2350078D01*
X2381717Y4646978D01*
X2410083Y4663355D01*
X2433245Y4686517D01*
X2449622Y4714883D01*
X2458100Y4746522D01*
Y4779278D01*
X2449622Y4810917D01*
X2433245Y4839283D01*
X2410083Y4862445D01*
X2381717Y4878822D01*
X2350078Y4887300D01*
D02*
G37*
G36*
X1518078D02*
X1485322D01*
X1453683Y4878822D01*
X1425317Y4862445D01*
X1402155Y4839283D01*
X1385778Y4810917D01*
X1377300Y4779278D01*
Y4746522D01*
X1385778Y4714883D01*
X1402155Y4686517D01*
X1425317Y4663355D01*
X1453683Y4646978D01*
X1485322Y4638500D01*
X1518078D01*
X1549717Y4646978D01*
X1578083Y4663355D01*
X1601245Y4686517D01*
X1617622Y4714883D01*
X1626100Y4746522D01*
Y4779278D01*
X1617622Y4810917D01*
X1601245Y4839283D01*
X1578083Y4862445D01*
X1549717Y4878822D01*
X1518078Y4887300D01*
D02*
G37*
G36*
X318078D02*
X285322D01*
X253683Y4878822D01*
X225317Y4862445D01*
X202155Y4839283D01*
X185778Y4810917D01*
X177300Y4779278D01*
Y4746522D01*
X185778Y4714883D01*
X202155Y4686517D01*
X225317Y4663355D01*
X253683Y4646978D01*
X285322Y4638500D01*
X318078D01*
X349717Y4646978D01*
X378083Y4663355D01*
X401245Y4686517D01*
X417622Y4714883D01*
X426100Y4746522D01*
Y4779278D01*
X417622Y4810917D01*
X401245Y4839283D01*
X378083Y4862445D01*
X349717Y4878822D01*
X318078Y4887300D01*
D02*
G37*
G36*
X-513922D02*
X-546678D01*
X-578317Y4878822D01*
X-606683Y4862445D01*
X-629845Y4839283D01*
X-646222Y4810917D01*
X-654700Y4779278D01*
Y4746522D01*
X-646222Y4714883D01*
X-629845Y4686517D01*
X-606683Y4663355D01*
X-578317Y4646978D01*
X-546678Y4638500D01*
X-513922D01*
X-482283Y4646978D01*
X-453917Y4663355D01*
X-430755Y4686517D01*
X-414378Y4714883D01*
X-405900Y4746522D01*
Y4779278D01*
X-414378Y4810917D01*
X-430755Y4839283D01*
X-453917Y4862445D01*
X-482283Y4878822D01*
X-513922Y4887300D01*
D02*
G37*
G36*
X-1713922D02*
X-1746678D01*
X-1778317Y4878822D01*
X-1806683Y4862445D01*
X-1829845Y4839283D01*
X-1846222Y4810917D01*
X-1854700Y4779278D01*
Y4746522D01*
X-1846222Y4714883D01*
X-1829845Y4686517D01*
X-1806683Y4663355D01*
X-1778317Y4646978D01*
X-1746678Y4638500D01*
X-1713922D01*
X-1682283Y4646978D01*
X-1653917Y4663355D01*
X-1630755Y4686517D01*
X-1614378Y4714883D01*
X-1605900Y4746522D01*
Y4779278D01*
X-1614378Y4810917D01*
X-1630755Y4839283D01*
X-1653917Y4862445D01*
X-1682283Y4878822D01*
X-1713922Y4887300D01*
D02*
G37*
G36*
X-2545922D02*
X-2578678D01*
X-2610317Y4878822D01*
X-2638683Y4862445D01*
X-2661845Y4839283D01*
X-2678222Y4810917D01*
X-2686700Y4779278D01*
Y4746522D01*
X-2678222Y4714883D01*
X-2661845Y4686517D01*
X-2638683Y4663355D01*
X-2610317Y4646978D01*
X-2578678Y4638500D01*
X-2545922D01*
X-2514283Y4646978D01*
X-2485917Y4663355D01*
X-2462755Y4686517D01*
X-2446378Y4714883D01*
X-2437900Y4746522D01*
Y4779278D01*
X-2446378Y4810917D01*
X-2462755Y4839283D01*
X-2485917Y4862445D01*
X-2514283Y4878822D01*
X-2545922Y4887300D01*
D02*
G37*
G36*
X-3745922D02*
X-3778678D01*
X-3810317Y4878822D01*
X-3838683Y4862445D01*
X-3861845Y4839283D01*
X-3878222Y4810917D01*
X-3886700Y4779278D01*
Y4746522D01*
X-3878222Y4714883D01*
X-3861845Y4686517D01*
X-3838683Y4663355D01*
X-3810317Y4646978D01*
X-3778678Y4638500D01*
X-3745922D01*
X-3714283Y4646978D01*
X-3685917Y4663355D01*
X-3662755Y4686517D01*
X-3646378Y4714883D01*
X-3637900Y4746522D01*
Y4779278D01*
X-3646378Y4810917D01*
X-3662755Y4839283D01*
X-3685917Y4862445D01*
X-3714283Y4878822D01*
X-3745922Y4887300D01*
D02*
G37*
G36*
X-4577922D02*
X-4610678D01*
X-4642317Y4878822D01*
X-4670683Y4862445D01*
X-4693845Y4839283D01*
X-4710222Y4810917D01*
X-4718700Y4779278D01*
Y4746522D01*
X-4710222Y4714883D01*
X-4693845Y4686517D01*
X-4670683Y4663355D01*
X-4642317Y4646978D01*
X-4610678Y4638500D01*
X-4577922D01*
X-4546283Y4646978D01*
X-4517917Y4663355D01*
X-4494755Y4686517D01*
X-4478378Y4714883D01*
X-4469900Y4746522D01*
Y4779278D01*
X-4478378Y4810917D01*
X-4494755Y4839283D01*
X-4517917Y4862445D01*
X-4546283Y4878822D01*
X-4577922Y4887300D01*
D02*
G37*
G36*
X-5777922D02*
X-5810678D01*
X-5842317Y4878822D01*
X-5870683Y4862445D01*
X-5893845Y4839283D01*
X-5910222Y4810917D01*
X-5918700Y4779278D01*
Y4746522D01*
X-5910222Y4714883D01*
X-5893845Y4686517D01*
X-5870683Y4663355D01*
X-5842317Y4646978D01*
X-5810678Y4638500D01*
X-5777922D01*
X-5746283Y4646978D01*
X-5717917Y4663355D01*
X-5694755Y4686517D01*
X-5678378Y4714883D01*
X-5669900Y4746522D01*
Y4779278D01*
X-5678378Y4810917D01*
X-5694755Y4839283D01*
X-5717917Y4862445D01*
X-5746283Y4878822D01*
X-5777922Y4887300D01*
D02*
G37*
G36*
X-6609922D02*
X-6642678D01*
X-6674317Y4878822D01*
X-6702683Y4862445D01*
X-6725845Y4839283D01*
X-6742222Y4810917D01*
X-6750700Y4779278D01*
Y4746522D01*
X-6742222Y4714883D01*
X-6725845Y4686517D01*
X-6702683Y4663355D01*
X-6674317Y4646978D01*
X-6642678Y4638500D01*
X-6609922D01*
X-6578283Y4646978D01*
X-6549917Y4663355D01*
X-6526755Y4686517D01*
X-6510378Y4714883D01*
X-6501900Y4746522D01*
Y4779278D01*
X-6510378Y4810917D01*
X-6526755Y4839283D01*
X-6549917Y4862445D01*
X-6578283Y4878822D01*
X-6609922Y4887300D01*
D02*
G37*
G36*
X-7809922D02*
X-7842678D01*
X-7874317Y4878822D01*
X-7902683Y4862445D01*
X-7925845Y4839283D01*
X-7942222Y4810917D01*
X-7950700Y4779278D01*
Y4746522D01*
X-7942222Y4714883D01*
X-7925845Y4686517D01*
X-7902683Y4663355D01*
X-7874317Y4646978D01*
X-7842678Y4638500D01*
X-7809922D01*
X-7778283Y4646978D01*
X-7749917Y4663355D01*
X-7726755Y4686517D01*
X-7710378Y4714883D01*
X-7701900Y4746522D01*
Y4779278D01*
X-7710378Y4810917D01*
X-7726755Y4839283D01*
X-7749917Y4862445D01*
X-7778283Y4878822D01*
X-7809922Y4887300D01*
D02*
G37*
G36*
X-8641922D02*
X-8674678D01*
X-8706317Y4878822D01*
X-8734683Y4862445D01*
X-8757845Y4839283D01*
X-8774222Y4810917D01*
X-8782700Y4779278D01*
Y4746522D01*
X-8774222Y4714883D01*
X-8757845Y4686517D01*
X-8734683Y4663355D01*
X-8706317Y4646978D01*
X-8674678Y4638500D01*
X-8641922D01*
X-8610283Y4646978D01*
X-8581917Y4663355D01*
X-8558755Y4686517D01*
X-8542378Y4714883D01*
X-8533900Y4746522D01*
Y4779278D01*
X-8542378Y4810917D01*
X-8558755Y4839283D01*
X-8581917Y4862445D01*
X-8610283Y4878822D01*
X-8641922Y4887300D01*
D02*
G37*
G36*
X-9841922D02*
X-9874678D01*
X-9906317Y4878822D01*
X-9934683Y4862445D01*
X-9957845Y4839283D01*
X-9974222Y4810917D01*
X-9982700Y4779278D01*
Y4746522D01*
X-9974222Y4714883D01*
X-9957845Y4686517D01*
X-9934683Y4663355D01*
X-9906317Y4646978D01*
X-9874678Y4638500D01*
X-9841922D01*
X-9810283Y4646978D01*
X-9781917Y4663355D01*
X-9758755Y4686517D01*
X-9742378Y4714883D01*
X-9733900Y4746522D01*
Y4779278D01*
X-9742378Y4810917D01*
X-9758755Y4839283D01*
X-9781917Y4862445D01*
X-9810283Y4878822D01*
X-9841922Y4887300D01*
D02*
G37*
G36*
X-10673922D02*
X-10706678D01*
X-10738317Y4878822D01*
X-10766683Y4862445D01*
X-10789845Y4839283D01*
X-10806222Y4810917D01*
X-10814700Y4779278D01*
Y4746522D01*
X-10806222Y4714883D01*
X-10789845Y4686517D01*
X-10766683Y4663355D01*
X-10738317Y4646978D01*
X-10706678Y4638500D01*
X-10673922D01*
X-10642283Y4646978D01*
X-10613917Y4663355D01*
X-10590755Y4686517D01*
X-10574378Y4714883D01*
X-10565900Y4746522D01*
Y4779278D01*
X-10574378Y4810917D01*
X-10590755Y4839283D01*
X-10613917Y4862445D01*
X-10642283Y4878822D01*
X-10673922Y4887300D01*
D02*
G37*
G36*
X-11873922D02*
X-11906678D01*
X-11938317Y4878822D01*
X-11966683Y4862445D01*
X-11989845Y4839283D01*
X-12006222Y4810917D01*
X-12014700Y4779278D01*
Y4746522D01*
X-12006222Y4714883D01*
X-11989845Y4686517D01*
X-11966683Y4663355D01*
X-11938317Y4646978D01*
X-11906678Y4638500D01*
X-11873922D01*
X-11842283Y4646978D01*
X-11813917Y4663355D01*
X-11790755Y4686517D01*
X-11774378Y4714883D01*
X-11765900Y4746522D01*
Y4779278D01*
X-11774378Y4810917D01*
X-11790755Y4839283D01*
X-11813917Y4862445D01*
X-11842283Y4878822D01*
X-11873922Y4887300D01*
D02*
G37*
G36*
X-12705922D02*
X-12738678D01*
X-12770317Y4878822D01*
X-12798683Y4862445D01*
X-12821844Y4839283D01*
X-12838222Y4810917D01*
X-12846700Y4779278D01*
Y4746522D01*
X-12838222Y4714883D01*
X-12821844Y4686517D01*
X-12798683Y4663355D01*
X-12770317Y4646978D01*
X-12738678Y4638500D01*
X-12705922D01*
X-12674283Y4646978D01*
X-12645917Y4663355D01*
X-12622755Y4686517D01*
X-12606378Y4714883D01*
X-12597900Y4746522D01*
Y4779278D01*
X-12606378Y4810917D01*
X-12622755Y4839283D01*
X-12645917Y4862445D01*
X-12674283Y4878822D01*
X-12705922Y4887300D01*
D02*
G37*
G36*
X-13905922D02*
X-13938678D01*
X-13970317Y4878822D01*
X-13998683Y4862445D01*
X-14021844Y4839283D01*
X-14038222Y4810917D01*
X-14046700Y4779278D01*
Y4746522D01*
X-14038222Y4714883D01*
X-14021844Y4686517D01*
X-13998683Y4663355D01*
X-13970317Y4646978D01*
X-13938678Y4638500D01*
X-13905922D01*
X-13874283Y4646978D01*
X-13845917Y4663355D01*
X-13822755Y4686517D01*
X-13806378Y4714883D01*
X-13797900Y4746522D01*
Y4779278D01*
X-13806378Y4810917D01*
X-13822755Y4839283D01*
X-13845917Y4862445D01*
X-13874283Y4878822D01*
X-13905922Y4887300D01*
D02*
G37*
G36*
X5582078Y3667300D02*
X5549322D01*
X5517683Y3658822D01*
X5489317Y3642445D01*
X5466155Y3619283D01*
X5449778Y3590917D01*
X5441300Y3559278D01*
Y3526522D01*
X5449778Y3494883D01*
X5466155Y3466517D01*
X5489317Y3443355D01*
X5517683Y3426978D01*
X5549322Y3418500D01*
X5582078D01*
X5613717Y3426978D01*
X5642083Y3443355D01*
X5665245Y3466517D01*
X5681622Y3494883D01*
X5690100Y3526522D01*
Y3559278D01*
X5681622Y3590917D01*
X5665245Y3619283D01*
X5642083Y3642445D01*
X5613717Y3658822D01*
X5582078Y3667300D01*
D02*
G37*
G36*
X4490100D02*
X4241300D01*
Y3418500D01*
X4490100D01*
Y3667300D01*
D02*
G37*
G36*
X3550078D02*
X3517322D01*
X3485683Y3658822D01*
X3457317Y3642445D01*
X3434155Y3619283D01*
X3417778Y3590917D01*
X3409300Y3559278D01*
Y3526522D01*
X3417778Y3494883D01*
X3434155Y3466517D01*
X3457317Y3443355D01*
X3485683Y3426978D01*
X3517322Y3418500D01*
X3550078D01*
X3581717Y3426978D01*
X3610083Y3443355D01*
X3633245Y3466517D01*
X3649622Y3494883D01*
X3658100Y3526522D01*
Y3559278D01*
X3649622Y3590917D01*
X3633245Y3619283D01*
X3610083Y3642445D01*
X3581717Y3658822D01*
X3550078Y3667300D01*
D02*
G37*
G36*
X2458100D02*
X2209300D01*
Y3418500D01*
X2458100D01*
Y3667300D01*
D02*
G37*
G36*
X1518078D02*
X1485322D01*
X1453683Y3658822D01*
X1425317Y3642445D01*
X1402155Y3619283D01*
X1385778Y3590917D01*
X1377300Y3559278D01*
Y3526522D01*
X1385778Y3494883D01*
X1402155Y3466517D01*
X1425317Y3443355D01*
X1453683Y3426978D01*
X1485322Y3418500D01*
X1518078D01*
X1549717Y3426978D01*
X1578083Y3443355D01*
X1601245Y3466517D01*
X1617622Y3494883D01*
X1626100Y3526522D01*
Y3559278D01*
X1617622Y3590917D01*
X1601245Y3619283D01*
X1578083Y3642445D01*
X1549717Y3658822D01*
X1518078Y3667300D01*
D02*
G37*
G36*
X426100D02*
X177300D01*
Y3418500D01*
X426100D01*
Y3667300D01*
D02*
G37*
G36*
X-513922D02*
X-546678D01*
X-578317Y3658822D01*
X-606683Y3642445D01*
X-629845Y3619283D01*
X-646222Y3590917D01*
X-654700Y3559278D01*
Y3526522D01*
X-646222Y3494883D01*
X-629845Y3466517D01*
X-606683Y3443355D01*
X-578317Y3426978D01*
X-546678Y3418500D01*
X-513922D01*
X-482283Y3426978D01*
X-453917Y3443355D01*
X-430755Y3466517D01*
X-414378Y3494883D01*
X-405900Y3526522D01*
Y3559278D01*
X-414378Y3590917D01*
X-430755Y3619283D01*
X-453917Y3642445D01*
X-482283Y3658822D01*
X-513922Y3667300D01*
D02*
G37*
G36*
X-1605900D02*
X-1854700D01*
Y3418500D01*
X-1605900D01*
Y3667300D01*
D02*
G37*
G36*
X-2545922D02*
X-2578678D01*
X-2610317Y3658822D01*
X-2638683Y3642445D01*
X-2661845Y3619283D01*
X-2678222Y3590917D01*
X-2686700Y3559278D01*
Y3526522D01*
X-2678222Y3494883D01*
X-2661845Y3466517D01*
X-2638683Y3443355D01*
X-2610317Y3426978D01*
X-2578678Y3418500D01*
X-2545922D01*
X-2514283Y3426978D01*
X-2485917Y3443355D01*
X-2462755Y3466517D01*
X-2446378Y3494883D01*
X-2437900Y3526522D01*
Y3559278D01*
X-2446378Y3590917D01*
X-2462755Y3619283D01*
X-2485917Y3642445D01*
X-2514283Y3658822D01*
X-2545922Y3667300D01*
D02*
G37*
G36*
X-3637900D02*
X-3886700D01*
Y3418500D01*
X-3637900D01*
Y3667300D01*
D02*
G37*
G36*
X-4577922D02*
X-4610678D01*
X-4642317Y3658822D01*
X-4670683Y3642445D01*
X-4693845Y3619283D01*
X-4710222Y3590917D01*
X-4718700Y3559278D01*
Y3526522D01*
X-4710222Y3494883D01*
X-4693845Y3466517D01*
X-4670683Y3443355D01*
X-4642317Y3426978D01*
X-4610678Y3418500D01*
X-4577922D01*
X-4546283Y3426978D01*
X-4517917Y3443355D01*
X-4494755Y3466517D01*
X-4478378Y3494883D01*
X-4469900Y3526522D01*
Y3559278D01*
X-4478378Y3590917D01*
X-4494755Y3619283D01*
X-4517917Y3642445D01*
X-4546283Y3658822D01*
X-4577922Y3667300D01*
D02*
G37*
G36*
X-5669900D02*
X-5918700D01*
Y3418500D01*
X-5669900D01*
Y3667300D01*
D02*
G37*
G36*
X-6609922D02*
X-6642678D01*
X-6674317Y3658822D01*
X-6702683Y3642445D01*
X-6725845Y3619283D01*
X-6742222Y3590917D01*
X-6750700Y3559278D01*
Y3526522D01*
X-6742222Y3494883D01*
X-6725845Y3466517D01*
X-6702683Y3443355D01*
X-6674317Y3426978D01*
X-6642678Y3418500D01*
X-6609922D01*
X-6578283Y3426978D01*
X-6549917Y3443355D01*
X-6526755Y3466517D01*
X-6510378Y3494883D01*
X-6501900Y3526522D01*
Y3559278D01*
X-6510378Y3590917D01*
X-6526755Y3619283D01*
X-6549917Y3642445D01*
X-6578283Y3658822D01*
X-6609922Y3667300D01*
D02*
G37*
G36*
X-7701900D02*
X-7950700D01*
Y3418500D01*
X-7701900D01*
Y3667300D01*
D02*
G37*
G36*
X-8641922D02*
X-8674678D01*
X-8706317Y3658822D01*
X-8734683Y3642445D01*
X-8757845Y3619283D01*
X-8774222Y3590917D01*
X-8782700Y3559278D01*
Y3526522D01*
X-8774222Y3494883D01*
X-8757845Y3466517D01*
X-8734683Y3443355D01*
X-8706317Y3426978D01*
X-8674678Y3418500D01*
X-8641922D01*
X-8610283Y3426978D01*
X-8581917Y3443355D01*
X-8558755Y3466517D01*
X-8542378Y3494883D01*
X-8533900Y3526522D01*
Y3559278D01*
X-8542378Y3590917D01*
X-8558755Y3619283D01*
X-8581917Y3642445D01*
X-8610283Y3658822D01*
X-8641922Y3667300D01*
D02*
G37*
G36*
X-9733900D02*
X-9982700D01*
Y3418500D01*
X-9733900D01*
Y3667300D01*
D02*
G37*
G36*
X-10673922D02*
X-10706678D01*
X-10738317Y3658822D01*
X-10766683Y3642445D01*
X-10789845Y3619283D01*
X-10806222Y3590917D01*
X-10814700Y3559278D01*
Y3526522D01*
X-10806222Y3494883D01*
X-10789845Y3466517D01*
X-10766683Y3443355D01*
X-10738317Y3426978D01*
X-10706678Y3418500D01*
X-10673922D01*
X-10642283Y3426978D01*
X-10613917Y3443355D01*
X-10590755Y3466517D01*
X-10574378Y3494883D01*
X-10565900Y3526522D01*
Y3559278D01*
X-10574378Y3590917D01*
X-10590755Y3619283D01*
X-10613917Y3642445D01*
X-10642283Y3658822D01*
X-10673922Y3667300D01*
D02*
G37*
G36*
X-11765900D02*
X-12014700D01*
Y3418500D01*
X-11765900D01*
Y3667300D01*
D02*
G37*
G36*
X-12705922D02*
X-12738678D01*
X-12770317Y3658822D01*
X-12798683Y3642445D01*
X-12821844Y3619283D01*
X-12838222Y3590917D01*
X-12846700Y3559278D01*
Y3526522D01*
X-12838222Y3494883D01*
X-12821844Y3466517D01*
X-12798683Y3443355D01*
X-12770317Y3426978D01*
X-12738678Y3418500D01*
X-12705922D01*
X-12674283Y3426978D01*
X-12645917Y3443355D01*
X-12622755Y3466517D01*
X-12606378Y3494883D01*
X-12597900Y3526522D01*
Y3559278D01*
X-12606378Y3590917D01*
X-12622755Y3619283D01*
X-12645917Y3642445D01*
X-12674283Y3658822D01*
X-12705922Y3667300D01*
D02*
G37*
G36*
X-13797900D02*
X-14046700D01*
Y3418500D01*
X-13797900D01*
Y3667300D01*
D02*
G37*
G36*
X4981781Y3465050D02*
X4949619D01*
X4918552Y3456726D01*
X4890698Y3440644D01*
X4867956Y3417902D01*
X4851874Y3390048D01*
X4843550Y3358981D01*
Y3326819D01*
X4851874Y3295752D01*
X4867956Y3267898D01*
X4890698Y3245156D01*
X4918552Y3229075D01*
X4949619Y3220750D01*
X4981781D01*
X5012848Y3229075D01*
X5040702Y3245156D01*
X5063444Y3267898D01*
X5079526Y3295752D01*
X5087850Y3326819D01*
Y3358981D01*
X5079526Y3390048D01*
X5063444Y3417902D01*
X5040702Y3440644D01*
X5012848Y3456726D01*
X4981781Y3465050D01*
D02*
G37*
G36*
X2949781D02*
X2917619D01*
X2886552Y3456726D01*
X2858698Y3440644D01*
X2835956Y3417902D01*
X2819874Y3390048D01*
X2811550Y3358981D01*
Y3326819D01*
X2819874Y3295752D01*
X2835956Y3267898D01*
X2858698Y3245156D01*
X2886552Y3229075D01*
X2917619Y3220750D01*
X2949781D01*
X2980848Y3229075D01*
X3008702Y3245156D01*
X3031444Y3267898D01*
X3047526Y3295752D01*
X3055850Y3326819D01*
Y3358981D01*
X3047526Y3390048D01*
X3031444Y3417902D01*
X3008702Y3440644D01*
X2980848Y3456726D01*
X2949781Y3465050D01*
D02*
G37*
G36*
X917781D02*
X885619D01*
X854552Y3456726D01*
X826698Y3440644D01*
X803956Y3417902D01*
X787874Y3390048D01*
X779550Y3358981D01*
Y3326819D01*
X787874Y3295752D01*
X803956Y3267898D01*
X826698Y3245156D01*
X854552Y3229075D01*
X885619Y3220750D01*
X917781D01*
X948848Y3229075D01*
X976702Y3245156D01*
X999444Y3267898D01*
X1015526Y3295752D01*
X1023850Y3326819D01*
Y3358981D01*
X1015526Y3390048D01*
X999444Y3417902D01*
X976702Y3440644D01*
X948848Y3456726D01*
X917781Y3465050D01*
D02*
G37*
G36*
X-1114219D02*
X-1146381D01*
X-1177448Y3456726D01*
X-1205302Y3440644D01*
X-1228044Y3417902D01*
X-1244126Y3390048D01*
X-1252450Y3358981D01*
Y3326819D01*
X-1244126Y3295752D01*
X-1228044Y3267898D01*
X-1205302Y3245156D01*
X-1177448Y3229075D01*
X-1146381Y3220750D01*
X-1114219D01*
X-1083152Y3229075D01*
X-1055298Y3245156D01*
X-1032556Y3267898D01*
X-1016474Y3295752D01*
X-1008150Y3326819D01*
Y3358981D01*
X-1016474Y3390048D01*
X-1032556Y3417902D01*
X-1055298Y3440644D01*
X-1083152Y3456726D01*
X-1114219Y3465050D01*
D02*
G37*
G36*
X-3146219D02*
X-3178381D01*
X-3209448Y3456726D01*
X-3237302Y3440644D01*
X-3260044Y3417902D01*
X-3276126Y3390048D01*
X-3284450Y3358981D01*
Y3326819D01*
X-3276126Y3295752D01*
X-3260044Y3267898D01*
X-3237302Y3245156D01*
X-3209448Y3229075D01*
X-3178381Y3220750D01*
X-3146219D01*
X-3115152Y3229075D01*
X-3087298Y3245156D01*
X-3064556Y3267898D01*
X-3048474Y3295752D01*
X-3040150Y3326819D01*
Y3358981D01*
X-3048474Y3390048D01*
X-3064556Y3417902D01*
X-3087298Y3440644D01*
X-3115152Y3456726D01*
X-3146219Y3465050D01*
D02*
G37*
G36*
X-5178219D02*
X-5210381D01*
X-5241448Y3456726D01*
X-5269302Y3440644D01*
X-5292044Y3417902D01*
X-5308126Y3390048D01*
X-5316450Y3358981D01*
Y3326819D01*
X-5308126Y3295752D01*
X-5292044Y3267898D01*
X-5269302Y3245156D01*
X-5241448Y3229075D01*
X-5210381Y3220750D01*
X-5178219D01*
X-5147152Y3229075D01*
X-5119298Y3245156D01*
X-5096556Y3267898D01*
X-5080474Y3295752D01*
X-5072150Y3326819D01*
Y3358981D01*
X-5080474Y3390048D01*
X-5096556Y3417902D01*
X-5119298Y3440644D01*
X-5147152Y3456726D01*
X-5178219Y3465050D01*
D02*
G37*
G36*
X-7210219D02*
X-7242381D01*
X-7273448Y3456726D01*
X-7301302Y3440644D01*
X-7324044Y3417902D01*
X-7340126Y3390048D01*
X-7348450Y3358981D01*
Y3326819D01*
X-7340126Y3295752D01*
X-7324044Y3267898D01*
X-7301302Y3245156D01*
X-7273448Y3229075D01*
X-7242381Y3220750D01*
X-7210219D01*
X-7179152Y3229075D01*
X-7151298Y3245156D01*
X-7128556Y3267898D01*
X-7112474Y3295752D01*
X-7104150Y3326819D01*
Y3358981D01*
X-7112474Y3390048D01*
X-7128556Y3417902D01*
X-7151298Y3440644D01*
X-7179152Y3456726D01*
X-7210219Y3465050D01*
D02*
G37*
G36*
X-9242219D02*
X-9274381D01*
X-9305448Y3456726D01*
X-9333302Y3440644D01*
X-9356044Y3417902D01*
X-9372126Y3390048D01*
X-9380450Y3358981D01*
Y3326819D01*
X-9372126Y3295752D01*
X-9356044Y3267898D01*
X-9333302Y3245156D01*
X-9305448Y3229075D01*
X-9274381Y3220750D01*
X-9242219D01*
X-9211152Y3229075D01*
X-9183298Y3245156D01*
X-9160556Y3267898D01*
X-9144474Y3295752D01*
X-9136150Y3326819D01*
Y3358981D01*
X-9144474Y3390048D01*
X-9160556Y3417902D01*
X-9183298Y3440644D01*
X-9211152Y3456726D01*
X-9242219Y3465050D01*
D02*
G37*
G36*
X-11274219D02*
X-11306381D01*
X-11337448Y3456726D01*
X-11365302Y3440644D01*
X-11388044Y3417902D01*
X-11404126Y3390048D01*
X-11412450Y3358981D01*
Y3326819D01*
X-11404126Y3295752D01*
X-11388044Y3267898D01*
X-11365302Y3245156D01*
X-11337448Y3229075D01*
X-11306381Y3220750D01*
X-11274219D01*
X-11243152Y3229075D01*
X-11215298Y3245156D01*
X-11192556Y3267898D01*
X-11176474Y3295752D01*
X-11168150Y3326819D01*
Y3358981D01*
X-11176474Y3390048D01*
X-11192556Y3417902D01*
X-11215298Y3440644D01*
X-11243152Y3456726D01*
X-11274219Y3465050D01*
D02*
G37*
G36*
X-13306219D02*
X-13338380D01*
X-13369447Y3456726D01*
X-13397302Y3440644D01*
X-13420044Y3417902D01*
X-13436127Y3390048D01*
X-13444450Y3358981D01*
Y3326819D01*
X-13436127Y3295752D01*
X-13420044Y3267898D01*
X-13397302Y3245156D01*
X-13369447Y3229075D01*
X-13338380Y3220750D01*
X-13306219D01*
X-13275153Y3229075D01*
X-13247298Y3245156D01*
X-13224556Y3267898D01*
X-13208475Y3295752D01*
X-13200150Y3326819D01*
Y3358981D01*
X-13208475Y3390048D01*
X-13224556Y3417902D01*
X-13247298Y3440644D01*
X-13275153Y3456726D01*
X-13306219Y3465050D01*
D02*
G37*
G36*
X5532504Y2966900D02*
X5506094D01*
X5480584Y2960065D01*
X5457713Y2946860D01*
X5439039Y2928186D01*
X5425834Y2905314D01*
X5418999Y2879805D01*
Y2853395D01*
X5425834Y2827886D01*
X5439039Y2805014D01*
X5457713Y2786340D01*
X5480584Y2773135D01*
X5506094Y2766300D01*
X5532504D01*
X5558013Y2773135D01*
X5580884Y2786340D01*
X5599559Y2805014D01*
X5612763Y2827886D01*
X5619599Y2853395D01*
Y2879805D01*
X5612763Y2905314D01*
X5599559Y2928186D01*
X5580884Y2946860D01*
X5558013Y2960065D01*
X5532504Y2966900D01*
D02*
G37*
G36*
X4969599D02*
X4768999D01*
Y2766300D01*
X4969599D01*
Y2966900D01*
D02*
G37*
G36*
X3447459D02*
X3421050D01*
X3395540Y2960065D01*
X3372669Y2946860D01*
X3353995Y2928186D01*
X3340790Y2905314D01*
X3333955Y2879805D01*
Y2853395D01*
X3340790Y2827886D01*
X3353995Y2805014D01*
X3372669Y2786340D01*
X3395540Y2773135D01*
X3421050Y2766300D01*
X3447459D01*
X3472969Y2773135D01*
X3495840Y2786340D01*
X3514515Y2805014D01*
X3527719Y2827886D01*
X3534555Y2853395D01*
Y2879805D01*
X3527719Y2905314D01*
X3514515Y2928186D01*
X3495840Y2946860D01*
X3472969Y2960065D01*
X3447459Y2966900D01*
D02*
G37*
G36*
X2884555D02*
X2683955D01*
Y2766300D01*
X2884555D01*
Y2966900D01*
D02*
G37*
G36*
X1362415D02*
X1336006D01*
X1310496Y2960065D01*
X1287625Y2946860D01*
X1268951Y2928186D01*
X1255746Y2905314D01*
X1248911Y2879805D01*
Y2853395D01*
X1255746Y2827886D01*
X1268951Y2805014D01*
X1287625Y2786340D01*
X1310496Y2773135D01*
X1336006Y2766300D01*
X1362415D01*
X1387925Y2773135D01*
X1410796Y2786340D01*
X1429471Y2805014D01*
X1442675Y2827886D01*
X1449511Y2853395D01*
Y2879805D01*
X1442675Y2905314D01*
X1429471Y2928186D01*
X1410796Y2946860D01*
X1387925Y2960065D01*
X1362415Y2966900D01*
D02*
G37*
G36*
X799510D02*
X598910D01*
Y2766300D01*
X799510D01*
Y2966900D01*
D02*
G37*
G36*
X-722629D02*
X-749038D01*
X-774548Y2960065D01*
X-797419Y2946860D01*
X-816093Y2928186D01*
X-829298Y2905314D01*
X-836133Y2879805D01*
Y2853395D01*
X-829298Y2827886D01*
X-816093Y2805014D01*
X-797419Y2786340D01*
X-774548Y2773135D01*
X-749038Y2766300D01*
X-722629D01*
X-697119Y2773135D01*
X-674248Y2786340D01*
X-655573Y2805014D01*
X-642369Y2827886D01*
X-635533Y2853395D01*
Y2879805D01*
X-642369Y2905314D01*
X-655573Y2928186D01*
X-674248Y2946860D01*
X-697119Y2960065D01*
X-722629Y2966900D01*
D02*
G37*
G36*
X-1285534D02*
X-1486134D01*
Y2766300D01*
X-1285534D01*
Y2966900D01*
D02*
G37*
G36*
X-2807673D02*
X-2834082D01*
X-2859592Y2960065D01*
X-2882463Y2946860D01*
X-2901137Y2928186D01*
X-2914342Y2905314D01*
X-2921178Y2879805D01*
Y2853395D01*
X-2914342Y2827886D01*
X-2901137Y2805014D01*
X-2882463Y2786340D01*
X-2859592Y2773135D01*
X-2834082Y2766300D01*
X-2807673D01*
X-2782163Y2773135D01*
X-2759292Y2786340D01*
X-2740618Y2805014D01*
X-2727413Y2827886D01*
X-2720577Y2853395D01*
Y2879805D01*
X-2727413Y2905314D01*
X-2740618Y2928186D01*
X-2759292Y2946860D01*
X-2782163Y2960065D01*
X-2807673Y2966900D01*
D02*
G37*
G36*
X-4892717D02*
X-4919126D01*
X-4944636Y2960065D01*
X-4967507Y2946860D01*
X-4986182Y2928186D01*
X-4999386Y2905314D01*
X-5006222Y2879805D01*
Y2853395D01*
X-4999386Y2827886D01*
X-4986182Y2805014D01*
X-4967507Y2786340D01*
X-4944636Y2773135D01*
X-4919126Y2766300D01*
X-4892717D01*
X-4867207Y2773135D01*
X-4844336Y2786340D01*
X-4825662Y2805014D01*
X-4812457Y2827886D01*
X-4805622Y2853395D01*
Y2879805D01*
X-4812457Y2905314D01*
X-4825662Y2928186D01*
X-4844336Y2946860D01*
X-4867207Y2960065D01*
X-4892717Y2966900D01*
D02*
G37*
G36*
X-5455622D02*
X-5656222D01*
Y2766300D01*
X-5455622D01*
Y2966900D01*
D02*
G37*
G36*
X-6977761D02*
X-7004170D01*
X-7029680Y2960065D01*
X-7052551Y2946860D01*
X-7071226Y2928186D01*
X-7084430Y2905314D01*
X-7091266Y2879805D01*
Y2853395D01*
X-7084430Y2827886D01*
X-7071226Y2805014D01*
X-7052551Y2786340D01*
X-7029680Y2773135D01*
X-7004170Y2766300D01*
X-6977761D01*
X-6952251Y2773135D01*
X-6929380Y2786340D01*
X-6910706Y2805014D01*
X-6897501Y2827886D01*
X-6890666Y2853395D01*
Y2879805D01*
X-6897501Y2905314D01*
X-6910706Y2928186D01*
X-6929380Y2946860D01*
X-6952251Y2960065D01*
X-6977761Y2966900D01*
D02*
G37*
G36*
X-7540666D02*
X-7741266D01*
Y2766300D01*
X-7540666D01*
Y2966900D01*
D02*
G37*
G36*
X-9062805D02*
X-9089214D01*
X-9114724Y2960065D01*
X-9137595Y2946860D01*
X-9156270Y2928186D01*
X-9169474Y2905314D01*
X-9176310Y2879805D01*
Y2853395D01*
X-9169474Y2827886D01*
X-9156270Y2805014D01*
X-9137595Y2786340D01*
X-9114724Y2773135D01*
X-9089214Y2766300D01*
X-9062805D01*
X-9037295Y2773135D01*
X-9014424Y2786340D01*
X-8995750Y2805014D01*
X-8982545Y2827886D01*
X-8975710Y2853395D01*
Y2879805D01*
X-8982545Y2905314D01*
X-8995750Y2928186D01*
X-9014424Y2946860D01*
X-9037295Y2960065D01*
X-9062805Y2966900D01*
D02*
G37*
G36*
X-9625710D02*
X-9826310D01*
Y2766300D01*
X-9625710D01*
Y2966900D01*
D02*
G37*
G36*
X-11147849D02*
X-11174259D01*
X-11199768Y2960065D01*
X-11222639Y2946860D01*
X-11241314Y2928186D01*
X-11254519Y2905314D01*
X-11261354Y2879805D01*
Y2853395D01*
X-11254519Y2827886D01*
X-11241314Y2805014D01*
X-11222639Y2786340D01*
X-11199768Y2773135D01*
X-11174259Y2766300D01*
X-11147849D01*
X-11122339Y2773135D01*
X-11099468Y2786340D01*
X-11080794Y2805014D01*
X-11067589Y2827886D01*
X-11060754Y2853395D01*
Y2879805D01*
X-11067589Y2905314D01*
X-11080794Y2928186D01*
X-11099468Y2946860D01*
X-11122339Y2960065D01*
X-11147849Y2966900D01*
D02*
G37*
G36*
X-11710754D02*
X-11911354D01*
Y2766300D01*
X-11710754D01*
Y2966900D01*
D02*
G37*
G36*
X-13232893D02*
X-13259303D01*
X-13284811Y2960065D01*
X-13307684Y2946860D01*
X-13326358Y2928186D01*
X-13339563Y2905314D01*
X-13346397Y2879805D01*
Y2853395D01*
X-13339563Y2827886D01*
X-13326358Y2805014D01*
X-13307684Y2786340D01*
X-13284811Y2773135D01*
X-13259303Y2766300D01*
X-13232893D01*
X-13207384Y2773135D01*
X-13184512Y2786340D01*
X-13165839Y2805014D01*
X-13152634Y2827886D01*
X-13145798Y2853395D01*
Y2879805D01*
X-13152634Y2905314D01*
X-13165839Y2928186D01*
X-13184512Y2946860D01*
X-13207384Y2960065D01*
X-13232893Y2966900D01*
D02*
G37*
G36*
X-13795798D02*
X-13996397D01*
Y2766300D01*
X-13795798D01*
Y2966900D01*
D02*
G37*
G36*
X5532504Y2516900D02*
X5506094D01*
X5480584Y2510065D01*
X5457713Y2496860D01*
X5439039Y2478186D01*
X5425834Y2455314D01*
X5418999Y2429805D01*
Y2403395D01*
X5425834Y2377886D01*
X5439039Y2355014D01*
X5457713Y2336340D01*
X5480584Y2323135D01*
X5506094Y2316300D01*
X5532504D01*
X5558013Y2323135D01*
X5580884Y2336340D01*
X5599559Y2355014D01*
X5612763Y2377886D01*
X5619599Y2403395D01*
Y2429805D01*
X5612763Y2455314D01*
X5599559Y2478186D01*
X5580884Y2496860D01*
X5558013Y2510065D01*
X5532504Y2516900D01*
D02*
G37*
G36*
X4882503D02*
X4856094D01*
X4830584Y2510065D01*
X4807713Y2496860D01*
X4789039Y2478186D01*
X4775834Y2455314D01*
X4768999Y2429805D01*
Y2403395D01*
X4775834Y2377886D01*
X4789039Y2355014D01*
X4807713Y2336340D01*
X4830584Y2323135D01*
X4856094Y2316300D01*
X4882503D01*
X4908013Y2323135D01*
X4930884Y2336340D01*
X4949559Y2355014D01*
X4962763Y2377886D01*
X4969599Y2403395D01*
Y2429805D01*
X4962763Y2455314D01*
X4949559Y2478186D01*
X4930884Y2496860D01*
X4908013Y2510065D01*
X4882503Y2516900D01*
D02*
G37*
G36*
X3447459D02*
X3421050D01*
X3395540Y2510065D01*
X3372669Y2496860D01*
X3353995Y2478186D01*
X3340790Y2455314D01*
X3333955Y2429805D01*
Y2403395D01*
X3340790Y2377886D01*
X3353995Y2355014D01*
X3372669Y2336340D01*
X3395540Y2323135D01*
X3421050Y2316300D01*
X3447459D01*
X3472969Y2323135D01*
X3495840Y2336340D01*
X3514515Y2355014D01*
X3527719Y2377886D01*
X3534555Y2403395D01*
Y2429805D01*
X3527719Y2455314D01*
X3514515Y2478186D01*
X3495840Y2496860D01*
X3472969Y2510065D01*
X3447459Y2516900D01*
D02*
G37*
G36*
X2797459D02*
X2771050D01*
X2745540Y2510065D01*
X2722669Y2496860D01*
X2703995Y2478186D01*
X2690790Y2455314D01*
X2683955Y2429805D01*
Y2403395D01*
X2690790Y2377886D01*
X2703995Y2355014D01*
X2722669Y2336340D01*
X2745540Y2323135D01*
X2771050Y2316300D01*
X2797459D01*
X2822969Y2323135D01*
X2845840Y2336340D01*
X2864514Y2355014D01*
X2877719Y2377886D01*
X2884555Y2403395D01*
Y2429805D01*
X2877719Y2455314D01*
X2864514Y2478186D01*
X2845840Y2496860D01*
X2822969Y2510065D01*
X2797459Y2516900D01*
D02*
G37*
G36*
X1362415D02*
X1336006D01*
X1310496Y2510065D01*
X1287625Y2496860D01*
X1268951Y2478186D01*
X1255746Y2455314D01*
X1248911Y2429805D01*
Y2403395D01*
X1255746Y2377886D01*
X1268951Y2355014D01*
X1287625Y2336340D01*
X1310496Y2323135D01*
X1336006Y2316300D01*
X1362415D01*
X1387925Y2323135D01*
X1410796Y2336340D01*
X1429471Y2355014D01*
X1442675Y2377886D01*
X1449511Y2403395D01*
Y2429805D01*
X1442675Y2455314D01*
X1429471Y2478186D01*
X1410796Y2496860D01*
X1387925Y2510065D01*
X1362415Y2516900D01*
D02*
G37*
G36*
X712415D02*
X686006D01*
X660496Y2510065D01*
X637625Y2496860D01*
X618951Y2478186D01*
X605746Y2455314D01*
X598910Y2429805D01*
Y2403395D01*
X605746Y2377886D01*
X618951Y2355014D01*
X637625Y2336340D01*
X660496Y2323135D01*
X686006Y2316300D01*
X712415D01*
X737925Y2323135D01*
X760796Y2336340D01*
X779470Y2355014D01*
X792675Y2377886D01*
X799510Y2403395D01*
Y2429805D01*
X792675Y2455314D01*
X779470Y2478186D01*
X760796Y2496860D01*
X737925Y2510065D01*
X712415Y2516900D01*
D02*
G37*
G36*
X-722629D02*
X-749038D01*
X-774548Y2510065D01*
X-797419Y2496860D01*
X-816093Y2478186D01*
X-829298Y2455314D01*
X-836133Y2429805D01*
Y2403395D01*
X-829298Y2377886D01*
X-816093Y2355014D01*
X-797419Y2336340D01*
X-774548Y2323135D01*
X-749038Y2316300D01*
X-722629D01*
X-697119Y2323135D01*
X-674248Y2336340D01*
X-655573Y2355014D01*
X-642369Y2377886D01*
X-635533Y2403395D01*
Y2429805D01*
X-642369Y2455314D01*
X-655573Y2478186D01*
X-674248Y2496860D01*
X-697119Y2510065D01*
X-722629Y2516900D01*
D02*
G37*
G36*
X-1372629D02*
X-1399038D01*
X-1424548Y2510065D01*
X-1447419Y2496860D01*
X-1466094Y2478186D01*
X-1479298Y2455314D01*
X-1486134Y2429805D01*
Y2403395D01*
X-1479298Y2377886D01*
X-1466094Y2355014D01*
X-1447419Y2336340D01*
X-1424548Y2323135D01*
X-1399038Y2316300D01*
X-1372629D01*
X-1347119Y2323135D01*
X-1324248Y2336340D01*
X-1305574Y2355014D01*
X-1292369Y2377886D01*
X-1285534Y2403395D01*
Y2429805D01*
X-1292369Y2455314D01*
X-1305574Y2478186D01*
X-1324248Y2496860D01*
X-1347119Y2510065D01*
X-1372629Y2516900D01*
D02*
G37*
G36*
X-2807673D02*
X-2834082D01*
X-2859592Y2510065D01*
X-2882463Y2496860D01*
X-2901137Y2478186D01*
X-2914342Y2455314D01*
X-2921178Y2429805D01*
Y2403395D01*
X-2914342Y2377886D01*
X-2901137Y2355014D01*
X-2882463Y2336340D01*
X-2859592Y2323135D01*
X-2834082Y2316300D01*
X-2807673D01*
X-2782163Y2323135D01*
X-2759292Y2336340D01*
X-2740618Y2355014D01*
X-2727413Y2377886D01*
X-2720577Y2403395D01*
Y2429805D01*
X-2727413Y2455314D01*
X-2740618Y2478186D01*
X-2759292Y2496860D01*
X-2782163Y2510065D01*
X-2807673Y2516900D01*
D02*
G37*
G36*
X-3457673D02*
X-3484082D01*
X-3509592Y2510065D01*
X-3532463Y2496860D01*
X-3551138Y2478186D01*
X-3564342Y2455314D01*
X-3571178Y2429805D01*
Y2403395D01*
X-3564342Y2377886D01*
X-3551138Y2355014D01*
X-3532463Y2336340D01*
X-3509592Y2323135D01*
X-3484082Y2316300D01*
X-3457673D01*
X-3432163Y2323135D01*
X-3409292Y2336340D01*
X-3390618Y2355014D01*
X-3377413Y2377886D01*
X-3370578Y2403395D01*
Y2429805D01*
X-3377413Y2455314D01*
X-3390618Y2478186D01*
X-3409292Y2496860D01*
X-3432163Y2510065D01*
X-3457673Y2516900D01*
D02*
G37*
G36*
X-4892717D02*
X-4919126D01*
X-4944636Y2510065D01*
X-4967507Y2496860D01*
X-4986182Y2478186D01*
X-4999386Y2455314D01*
X-5006222Y2429805D01*
Y2403395D01*
X-4999386Y2377886D01*
X-4986182Y2355014D01*
X-4967507Y2336340D01*
X-4944636Y2323135D01*
X-4919126Y2316300D01*
X-4892717D01*
X-4867207Y2323135D01*
X-4844336Y2336340D01*
X-4825662Y2355014D01*
X-4812457Y2377886D01*
X-4805622Y2403395D01*
Y2429805D01*
X-4812457Y2455314D01*
X-4825662Y2478186D01*
X-4844336Y2496860D01*
X-4867207Y2510065D01*
X-4892717Y2516900D01*
D02*
G37*
G36*
X-5542717D02*
X-5569127D01*
X-5594636Y2510065D01*
X-5617507Y2496860D01*
X-5636182Y2478186D01*
X-5649386Y2455314D01*
X-5656222Y2429805D01*
Y2403395D01*
X-5649386Y2377886D01*
X-5636182Y2355014D01*
X-5617507Y2336340D01*
X-5594636Y2323135D01*
X-5569127Y2316300D01*
X-5542717D01*
X-5517207Y2323135D01*
X-5494336Y2336340D01*
X-5475662Y2355014D01*
X-5462457Y2377886D01*
X-5455622Y2403395D01*
Y2429805D01*
X-5462457Y2455314D01*
X-5475662Y2478186D01*
X-5494336Y2496860D01*
X-5517207Y2510065D01*
X-5542717Y2516900D01*
D02*
G37*
G36*
X-6977761D02*
X-7004170D01*
X-7029680Y2510065D01*
X-7052551Y2496860D01*
X-7071226Y2478186D01*
X-7084430Y2455314D01*
X-7091266Y2429805D01*
Y2403395D01*
X-7084430Y2377886D01*
X-7071226Y2355014D01*
X-7052551Y2336340D01*
X-7029680Y2323135D01*
X-7004170Y2316300D01*
X-6977761D01*
X-6952251Y2323135D01*
X-6929380Y2336340D01*
X-6910706Y2355014D01*
X-6897501Y2377886D01*
X-6890666Y2403395D01*
Y2429805D01*
X-6897501Y2455314D01*
X-6910706Y2478186D01*
X-6929380Y2496860D01*
X-6952251Y2510065D01*
X-6977761Y2516900D01*
D02*
G37*
G36*
X-7627761D02*
X-7654171D01*
X-7679680Y2510065D01*
X-7702552Y2496860D01*
X-7721226Y2478186D01*
X-7734431Y2455314D01*
X-7741266Y2429805D01*
Y2403395D01*
X-7734431Y2377886D01*
X-7721226Y2355014D01*
X-7702552Y2336340D01*
X-7679680Y2323135D01*
X-7654171Y2316300D01*
X-7627761D01*
X-7602251Y2323135D01*
X-7579380Y2336340D01*
X-7560706Y2355014D01*
X-7547501Y2377886D01*
X-7540666Y2403395D01*
Y2429805D01*
X-7547501Y2455314D01*
X-7560706Y2478186D01*
X-7579380Y2496860D01*
X-7602251Y2510065D01*
X-7627761Y2516900D01*
D02*
G37*
G36*
X-9062805D02*
X-9089214D01*
X-9114724Y2510065D01*
X-9137595Y2496860D01*
X-9156270Y2478186D01*
X-9169474Y2455314D01*
X-9176310Y2429805D01*
Y2403395D01*
X-9169474Y2377886D01*
X-9156270Y2355014D01*
X-9137595Y2336340D01*
X-9114724Y2323135D01*
X-9089214Y2316300D01*
X-9062805D01*
X-9037295Y2323135D01*
X-9014424Y2336340D01*
X-8995750Y2355014D01*
X-8982545Y2377886D01*
X-8975710Y2403395D01*
Y2429805D01*
X-8982545Y2455314D01*
X-8995750Y2478186D01*
X-9014424Y2496860D01*
X-9037295Y2510065D01*
X-9062805Y2516900D01*
D02*
G37*
G36*
X-9712805D02*
X-9739215D01*
X-9764724Y2510065D01*
X-9787596Y2496860D01*
X-9806270Y2478186D01*
X-9819475Y2455314D01*
X-9826310Y2429805D01*
Y2403395D01*
X-9819475Y2377886D01*
X-9806270Y2355014D01*
X-9787596Y2336340D01*
X-9764724Y2323135D01*
X-9739215Y2316300D01*
X-9712805D01*
X-9687296Y2323135D01*
X-9664424Y2336340D01*
X-9645750Y2355014D01*
X-9632545Y2377886D01*
X-9625710Y2403395D01*
Y2429805D01*
X-9632545Y2455314D01*
X-9645750Y2478186D01*
X-9664424Y2496860D01*
X-9687296Y2510065D01*
X-9712805Y2516900D01*
D02*
G37*
G36*
X-11147849D02*
X-11174259D01*
X-11199768Y2510065D01*
X-11222639Y2496860D01*
X-11241314Y2478186D01*
X-11254519Y2455314D01*
X-11261354Y2429805D01*
Y2403395D01*
X-11254519Y2377886D01*
X-11241314Y2355014D01*
X-11222639Y2336340D01*
X-11199768Y2323135D01*
X-11174259Y2316300D01*
X-11147849D01*
X-11122339Y2323135D01*
X-11099468Y2336340D01*
X-11080794Y2355014D01*
X-11067589Y2377886D01*
X-11060754Y2403395D01*
Y2429805D01*
X-11067589Y2455314D01*
X-11080794Y2478186D01*
X-11099468Y2496860D01*
X-11122339Y2510065D01*
X-11147849Y2516900D01*
D02*
G37*
G36*
X-11797849D02*
X-11824259D01*
X-11849769Y2510065D01*
X-11872640Y2496860D01*
X-11891314Y2478186D01*
X-11904519Y2455314D01*
X-11911354Y2429805D01*
Y2403395D01*
X-11904519Y2377886D01*
X-11891314Y2355014D01*
X-11872640Y2336340D01*
X-11849769Y2323135D01*
X-11824259Y2316300D01*
X-11797849D01*
X-11772340Y2323135D01*
X-11749468Y2336340D01*
X-11730794Y2355014D01*
X-11717589Y2377886D01*
X-11710754Y2403395D01*
Y2429805D01*
X-11717589Y2455314D01*
X-11730794Y2478186D01*
X-11749468Y2496860D01*
X-11772340Y2510065D01*
X-11797849Y2516900D01*
D02*
G37*
G36*
X-13232893D02*
X-13259303D01*
X-13284811Y2510065D01*
X-13307684Y2496860D01*
X-13326358Y2478186D01*
X-13339563Y2455314D01*
X-13346397Y2429805D01*
Y2403395D01*
X-13339563Y2377886D01*
X-13326358Y2355014D01*
X-13307684Y2336340D01*
X-13284811Y2323135D01*
X-13259303Y2316300D01*
X-13232893D01*
X-13207384Y2323135D01*
X-13184512Y2336340D01*
X-13165839Y2355014D01*
X-13152634Y2377886D01*
X-13145798Y2403395D01*
Y2429805D01*
X-13152634Y2455314D01*
X-13165839Y2478186D01*
X-13184512Y2496860D01*
X-13207384Y2510065D01*
X-13232893Y2516900D01*
D02*
G37*
G36*
X-13882893D02*
X-13909303D01*
X-13934813Y2510065D01*
X-13957684Y2496860D01*
X-13976358Y2478186D01*
X-13989563Y2455314D01*
X-13996397Y2429805D01*
Y2403395D01*
X-13989563Y2377886D01*
X-13976358Y2355014D01*
X-13957684Y2336340D01*
X-13934813Y2323135D01*
X-13909303Y2316300D01*
X-13882893D01*
X-13857384Y2323135D01*
X-13834512Y2336340D01*
X-13815839Y2355014D01*
X-13802634Y2377886D01*
X-13795798Y2403395D01*
Y2429805D01*
X-13802634Y2455314D01*
X-13815839Y2478186D01*
X-13834512Y2496860D01*
X-13857384Y2510065D01*
X-13882893Y2516900D01*
D02*
G37*
G36*
X4901600Y2246700D02*
X4700800D01*
Y2045900D01*
X4901600D01*
Y2246700D01*
D02*
G37*
G36*
X3441618D02*
X3415182D01*
X3389647Y2239858D01*
X3366753Y2226640D01*
X3348060Y2207947D01*
X3334842Y2185053D01*
X3328000Y2159518D01*
Y2133082D01*
X3334842Y2107547D01*
X3348060Y2084653D01*
X3366753Y2065960D01*
X3389647Y2052742D01*
X3415182Y2045900D01*
X3441618D01*
X3467153Y2052742D01*
X3490047Y2065960D01*
X3508740Y2084653D01*
X3521958Y2107547D01*
X3528800Y2133082D01*
Y2159518D01*
X3521958Y2185053D01*
X3508740Y2207947D01*
X3490047Y2226640D01*
X3467153Y2239858D01*
X3441618Y2246700D01*
D02*
G37*
G36*
X2818800D02*
X2618000D01*
Y2045900D01*
X2818800D01*
Y2246700D01*
D02*
G37*
G36*
X1358818D02*
X1332382D01*
X1306847Y2239858D01*
X1283953Y2226640D01*
X1265260Y2207947D01*
X1252042Y2185053D01*
X1245200Y2159518D01*
Y2133082D01*
X1252042Y2107547D01*
X1265260Y2084653D01*
X1283953Y2065960D01*
X1306847Y2052742D01*
X1332382Y2045900D01*
X1358818D01*
X1384353Y2052742D01*
X1407247Y2065960D01*
X1425940Y2084653D01*
X1439158Y2107547D01*
X1446000Y2133082D01*
Y2159518D01*
X1439158Y2185053D01*
X1425940Y2207947D01*
X1407247Y2226640D01*
X1384353Y2239858D01*
X1358818Y2246700D01*
D02*
G37*
G36*
X736000D02*
X535200D01*
Y2045900D01*
X736000D01*
Y2246700D01*
D02*
G37*
G36*
X-723982D02*
X-750418D01*
X-775953Y2239858D01*
X-798847Y2226640D01*
X-817540Y2207947D01*
X-830758Y2185053D01*
X-837600Y2159518D01*
Y2133082D01*
X-830758Y2107547D01*
X-817540Y2084653D01*
X-798847Y2065960D01*
X-775953Y2052742D01*
X-750418Y2045900D01*
X-723982D01*
X-698447Y2052742D01*
X-675553Y2065960D01*
X-656860Y2084653D01*
X-643642Y2107547D01*
X-636800Y2133082D01*
Y2159518D01*
X-643642Y2185053D01*
X-656860Y2207947D01*
X-675553Y2226640D01*
X-698447Y2239858D01*
X-723982Y2246700D01*
D02*
G37*
G36*
X-1346800D02*
X-1547600D01*
Y2045900D01*
X-1346800D01*
Y2246700D01*
D02*
G37*
G36*
X-2806782D02*
X-2833218D01*
X-2858753Y2239858D01*
X-2881647Y2226640D01*
X-2900340Y2207947D01*
X-2913558Y2185053D01*
X-2920400Y2159518D01*
Y2133082D01*
X-2913558Y2107547D01*
X-2900340Y2084653D01*
X-2881647Y2065960D01*
X-2858753Y2052742D01*
X-2833218Y2045900D01*
X-2806782D01*
X-2781247Y2052742D01*
X-2758353Y2065960D01*
X-2739660Y2084653D01*
X-2726442Y2107547D01*
X-2719600Y2133082D01*
Y2159518D01*
X-2726442Y2185053D01*
X-2739660Y2207947D01*
X-2758353Y2226640D01*
X-2781247Y2239858D01*
X-2806782Y2246700D01*
D02*
G37*
G36*
X-4889582D02*
X-4916018D01*
X-4941553Y2239858D01*
X-4964447Y2226640D01*
X-4983140Y2207947D01*
X-4996358Y2185053D01*
X-5003200Y2159518D01*
Y2133082D01*
X-4996358Y2107547D01*
X-4983140Y2084653D01*
X-4964447Y2065960D01*
X-4941553Y2052742D01*
X-4916018Y2045900D01*
X-4889582D01*
X-4864047Y2052742D01*
X-4841153Y2065960D01*
X-4822460Y2084653D01*
X-4809242Y2107547D01*
X-4802400Y2133082D01*
Y2159518D01*
X-4809242Y2185053D01*
X-4822460Y2207947D01*
X-4841153Y2226640D01*
X-4864047Y2239858D01*
X-4889582Y2246700D01*
D02*
G37*
G36*
X-5512400D02*
X-5713200D01*
Y2045900D01*
X-5512400D01*
Y2246700D01*
D02*
G37*
G36*
X-6972382D02*
X-6998818D01*
X-7024353Y2239858D01*
X-7047247Y2226640D01*
X-7065940Y2207947D01*
X-7079158Y2185053D01*
X-7086000Y2159518D01*
Y2133082D01*
X-7079158Y2107547D01*
X-7065940Y2084653D01*
X-7047247Y2065960D01*
X-7024353Y2052742D01*
X-6998818Y2045900D01*
X-6972382D01*
X-6946847Y2052742D01*
X-6923953Y2065960D01*
X-6905260Y2084653D01*
X-6892042Y2107547D01*
X-6885200Y2133082D01*
Y2159518D01*
X-6892042Y2185053D01*
X-6905260Y2207947D01*
X-6923953Y2226640D01*
X-6946847Y2239858D01*
X-6972382Y2246700D01*
D02*
G37*
G36*
X-7595200D02*
X-7796000D01*
Y2045900D01*
X-7595200D01*
Y2246700D01*
D02*
G37*
G36*
X-9055182D02*
X-9081618D01*
X-9107153Y2239858D01*
X-9130047Y2226640D01*
X-9148740Y2207947D01*
X-9161958Y2185053D01*
X-9168800Y2159518D01*
Y2133082D01*
X-9161958Y2107547D01*
X-9148740Y2084653D01*
X-9130047Y2065960D01*
X-9107153Y2052742D01*
X-9081618Y2045900D01*
X-9055182D01*
X-9029647Y2052742D01*
X-9006753Y2065960D01*
X-8988060Y2084653D01*
X-8974842Y2107547D01*
X-8968000Y2133082D01*
Y2159518D01*
X-8974842Y2185053D01*
X-8988060Y2207947D01*
X-9006753Y2226640D01*
X-9029647Y2239858D01*
X-9055182Y2246700D01*
D02*
G37*
G36*
X-9678000D02*
X-9878800D01*
Y2045900D01*
X-9678000D01*
Y2246700D01*
D02*
G37*
G36*
X-11137982D02*
X-11164418D01*
X-11189953Y2239858D01*
X-11212847Y2226640D01*
X-11231540Y2207947D01*
X-11244758Y2185053D01*
X-11251600Y2159518D01*
Y2133082D01*
X-11244758Y2107547D01*
X-11231540Y2084653D01*
X-11212847Y2065960D01*
X-11189953Y2052742D01*
X-11164418Y2045900D01*
X-11137982D01*
X-11112447Y2052742D01*
X-11089553Y2065960D01*
X-11070860Y2084653D01*
X-11057642Y2107547D01*
X-11050800Y2133082D01*
Y2159518D01*
X-11057642Y2185053D01*
X-11070860Y2207947D01*
X-11089553Y2226640D01*
X-11112447Y2239858D01*
X-11137982Y2246700D01*
D02*
G37*
G36*
X-11760800D02*
X-11961600D01*
Y2045900D01*
X-11760800D01*
Y2246700D01*
D02*
G37*
G36*
X-13220782D02*
X-13247218D01*
X-13272752Y2239858D01*
X-13295647Y2226640D01*
X-13314340Y2207947D01*
X-13327557Y2185053D01*
X-13334399Y2159518D01*
Y2133082D01*
X-13327557Y2107547D01*
X-13314340Y2084653D01*
X-13295647Y2065960D01*
X-13272752Y2052742D01*
X-13247218Y2045900D01*
X-13220782D01*
X-13195247Y2052742D01*
X-13172353Y2065960D01*
X-13153661Y2084653D01*
X-13140442Y2107547D01*
X-13133600Y2133082D01*
Y2159518D01*
X-13140442Y2185053D01*
X-13153661Y2207947D01*
X-13172353Y2226640D01*
X-13195247Y2239858D01*
X-13220782Y2246700D01*
D02*
G37*
G36*
X-13843600D02*
X-14044400D01*
Y2045900D01*
X-13843600D01*
Y2246700D01*
D02*
G37*
G36*
X-3352300Y1708300D02*
X-3435000D01*
Y1625600D01*
X-3352300D01*
Y1708300D01*
D02*
G37*
G36*
X-3460400D02*
X-3543100D01*
Y1625600D01*
X-3460400D01*
Y1708300D01*
D02*
G37*
G36*
X-7505200D02*
X-7587900D01*
Y1625600D01*
X-7505200D01*
Y1708300D01*
D02*
G37*
G36*
X-7613300D02*
X-7696000D01*
Y1625600D01*
X-7613300D01*
Y1708300D01*
D02*
G37*
G36*
X-11645400Y1707325D02*
X-11728100D01*
Y1624625D01*
X-11645400D01*
Y1707325D01*
D02*
G37*
G36*
X-11753500D02*
X-11836200D01*
Y1624625D01*
X-11753500D01*
Y1707325D01*
D02*
G37*
G36*
X-1244100Y1695600D02*
X-1326800D01*
Y1612900D01*
X-1244100D01*
Y1695600D01*
D02*
G37*
G36*
X-1352200D02*
X-1434900D01*
Y1612900D01*
X-1352200D01*
Y1695600D01*
D02*
G37*
G36*
X-5384300D02*
X-5467000D01*
Y1612900D01*
X-5384300D01*
Y1695600D01*
D02*
G37*
G36*
X-5492400D02*
X-5575100D01*
Y1612900D01*
X-5492400D01*
Y1695600D01*
D02*
G37*
G36*
X-9588000D02*
X-9670700D01*
Y1612900D01*
X-9588000D01*
Y1695600D01*
D02*
G37*
G36*
X-9696100D02*
X-9778800D01*
Y1612900D01*
X-9696100D01*
Y1695600D01*
D02*
G37*
G36*
X3023100Y1657500D02*
X2940400D01*
Y1574800D01*
X3023100D01*
Y1657500D01*
D02*
G37*
G36*
X2915000D02*
X2832300D01*
Y1574800D01*
X2915000D01*
Y1657500D01*
D02*
G37*
G36*
X813300D02*
X730600D01*
Y1574800D01*
X813300D01*
Y1657500D01*
D02*
G37*
G36*
X705200D02*
X622500D01*
Y1574800D01*
X705200D01*
Y1657500D01*
D02*
G37*
G36*
X-13753600D02*
X-13836301D01*
Y1574800D01*
X-13753600D01*
Y1657500D01*
D02*
G37*
G36*
X-13861700D02*
X-13944400D01*
Y1574800D01*
X-13861700D01*
Y1657500D01*
D02*
G37*
G36*
X-2915140Y1708300D02*
X-2940260D01*
X-2964523Y1701798D01*
X-2986277Y1689239D01*
X-3004039Y1671477D01*
X-3016598Y1649723D01*
X-3023100Y1625460D01*
Y1600340D01*
X-3016598Y1576077D01*
X-3004039Y1554323D01*
X-2986277Y1536561D01*
X-2964523Y1524002D01*
X-2940260Y1517500D01*
X-2915140D01*
X-2890877Y1524002D01*
X-2869123Y1536561D01*
X-2851361Y1554323D01*
X-2838802Y1576077D01*
X-2832300Y1600340D01*
Y1625460D01*
X-2838802Y1649723D01*
X-2851361Y1671477D01*
X-2869123Y1689239D01*
X-2890877Y1701798D01*
X-2915140Y1708300D01*
D02*
G37*
G36*
X-3175140D02*
X-3200260D01*
X-3224523Y1701798D01*
X-3246277Y1689239D01*
X-3264039Y1671477D01*
X-3276598Y1649723D01*
X-3283100Y1625460D01*
Y1600340D01*
X-3276598Y1576077D01*
X-3264039Y1554323D01*
X-3246277Y1536561D01*
X-3224523Y1524002D01*
X-3200260Y1517500D01*
X-3175140D01*
X-3150877Y1524002D01*
X-3129123Y1536561D01*
X-3111361Y1554323D01*
X-3098802Y1576077D01*
X-3092300Y1600340D01*
Y1625460D01*
X-3098802Y1649723D01*
X-3111361Y1671477D01*
X-3129123Y1689239D01*
X-3150877Y1701798D01*
X-3175140Y1708300D01*
D02*
G37*
G36*
X-3352300Y1600200D02*
X-3435000D01*
Y1517500D01*
X-3352300D01*
Y1600200D01*
D02*
G37*
G36*
X-3460400D02*
X-3543100D01*
Y1517500D01*
X-3460400D01*
Y1600200D01*
D02*
G37*
G36*
X-7068040Y1708300D02*
X-7093160D01*
X-7117423Y1701798D01*
X-7139177Y1689239D01*
X-7156939Y1671477D01*
X-7169498Y1649723D01*
X-7176000Y1625460D01*
Y1600340D01*
X-7169498Y1576077D01*
X-7156939Y1554323D01*
X-7139177Y1536561D01*
X-7117423Y1524002D01*
X-7093160Y1517500D01*
X-7068040D01*
X-7043777Y1524002D01*
X-7022023Y1536561D01*
X-7004261Y1554323D01*
X-6991702Y1576077D01*
X-6985200Y1600340D01*
Y1625460D01*
X-6991702Y1649723D01*
X-7004261Y1671477D01*
X-7022023Y1689239D01*
X-7043777Y1701798D01*
X-7068040Y1708300D01*
D02*
G37*
G36*
X-7328040D02*
X-7353160D01*
X-7377423Y1701798D01*
X-7399177Y1689239D01*
X-7416939Y1671477D01*
X-7429498Y1649723D01*
X-7436000Y1625460D01*
Y1600340D01*
X-7429498Y1576077D01*
X-7416939Y1554323D01*
X-7399177Y1536561D01*
X-7377423Y1524002D01*
X-7353160Y1517500D01*
X-7328040D01*
X-7303777Y1524002D01*
X-7282023Y1536561D01*
X-7264261Y1554323D01*
X-7251702Y1576077D01*
X-7245200Y1600340D01*
Y1625460D01*
X-7251702Y1649723D01*
X-7264261Y1671477D01*
X-7282023Y1689239D01*
X-7303777Y1701798D01*
X-7328040Y1708300D01*
D02*
G37*
G36*
X-7505200Y1600200D02*
X-7587900D01*
Y1517500D01*
X-7505200D01*
Y1600200D01*
D02*
G37*
G36*
X-7613300D02*
X-7696000D01*
Y1517500D01*
X-7613300D01*
Y1600200D01*
D02*
G37*
G36*
X-11208240Y1707325D02*
X-11233360D01*
X-11257623Y1700824D01*
X-11279377Y1688264D01*
X-11297139Y1670502D01*
X-11309698Y1648748D01*
X-11316200Y1624485D01*
Y1599366D01*
X-11309698Y1575102D01*
X-11297139Y1553348D01*
X-11279377Y1535586D01*
X-11257623Y1523027D01*
X-11233360Y1516525D01*
X-11208240D01*
X-11183977Y1523027D01*
X-11162223Y1535586D01*
X-11144461Y1553348D01*
X-11131902Y1575102D01*
X-11125400Y1599366D01*
Y1624485D01*
X-11131902Y1648748D01*
X-11144461Y1670502D01*
X-11162223Y1688264D01*
X-11183977Y1700824D01*
X-11208240Y1707325D01*
D02*
G37*
G36*
X-11468240D02*
X-11493360D01*
X-11517623Y1700824D01*
X-11539377Y1688264D01*
X-11557139Y1670502D01*
X-11569698Y1648748D01*
X-11576200Y1624485D01*
Y1599366D01*
X-11569698Y1575102D01*
X-11557139Y1553348D01*
X-11539377Y1535586D01*
X-11517623Y1523027D01*
X-11493360Y1516525D01*
X-11468240D01*
X-11443977Y1523027D01*
X-11422223Y1535586D01*
X-11404461Y1553348D01*
X-11391902Y1575102D01*
X-11385400Y1599366D01*
Y1624485D01*
X-11391902Y1648748D01*
X-11404461Y1670502D01*
X-11422223Y1688264D01*
X-11443977Y1700824D01*
X-11468240Y1707325D01*
D02*
G37*
G36*
X-11645400Y1599225D02*
X-11728100D01*
Y1516525D01*
X-11645400D01*
Y1599225D01*
D02*
G37*
G36*
X-11753500D02*
X-11836200D01*
Y1516525D01*
X-11753500D01*
Y1599225D01*
D02*
G37*
G36*
X5479560Y1695600D02*
X5454440D01*
X5430177Y1689098D01*
X5408423Y1676539D01*
X5390661Y1658777D01*
X5378102Y1637023D01*
X5371600Y1612760D01*
Y1587640D01*
X5378102Y1563377D01*
X5390661Y1541623D01*
X5408423Y1523861D01*
X5430177Y1511302D01*
X5454440Y1504800D01*
X5479560D01*
X5503823Y1511302D01*
X5525577Y1523861D01*
X5543339Y1541623D01*
X5555898Y1563377D01*
X5562400Y1587640D01*
Y1612760D01*
X5555898Y1637023D01*
X5543339Y1658777D01*
X5525577Y1676539D01*
X5503823Y1689098D01*
X5479560Y1695600D01*
D02*
G37*
G36*
X5219560D02*
X5194440D01*
X5170177Y1689098D01*
X5148423Y1676539D01*
X5130661Y1658777D01*
X5118102Y1637023D01*
X5111600Y1612760D01*
Y1587640D01*
X5118102Y1563377D01*
X5130661Y1541623D01*
X5148423Y1523861D01*
X5170177Y1511302D01*
X5194440Y1504800D01*
X5219560D01*
X5243823Y1511302D01*
X5265577Y1523861D01*
X5283339Y1541623D01*
X5295898Y1563377D01*
X5302400Y1587640D01*
Y1612760D01*
X5295898Y1637023D01*
X5283339Y1658777D01*
X5265577Y1676539D01*
X5243823Y1689098D01*
X5219560Y1695600D01*
D02*
G37*
G36*
X5042400Y1587500D02*
X4959700D01*
Y1504800D01*
X5042400D01*
Y1587500D01*
D02*
G37*
G36*
X4934300D02*
X4851600D01*
Y1504800D01*
X4934300D01*
Y1587500D01*
D02*
G37*
G36*
X-806940Y1695600D02*
X-832060D01*
X-856323Y1689098D01*
X-878077Y1676539D01*
X-895839Y1658777D01*
X-908398Y1637023D01*
X-914900Y1612760D01*
Y1587640D01*
X-908398Y1563377D01*
X-895839Y1541623D01*
X-878077Y1523861D01*
X-856323Y1511302D01*
X-832060Y1504800D01*
X-806940D01*
X-782677Y1511302D01*
X-760923Y1523861D01*
X-743161Y1541623D01*
X-730602Y1563377D01*
X-724100Y1587640D01*
Y1612760D01*
X-730602Y1637023D01*
X-743161Y1658777D01*
X-760923Y1676539D01*
X-782677Y1689098D01*
X-806940Y1695600D01*
D02*
G37*
G36*
X-1066940D02*
X-1092060D01*
X-1116323Y1689098D01*
X-1138077Y1676539D01*
X-1155839Y1658777D01*
X-1168398Y1637023D01*
X-1174900Y1612760D01*
Y1587640D01*
X-1168398Y1563377D01*
X-1155839Y1541623D01*
X-1138077Y1523861D01*
X-1116323Y1511302D01*
X-1092060Y1504800D01*
X-1066940D01*
X-1042677Y1511302D01*
X-1020923Y1523861D01*
X-1003161Y1541623D01*
X-990602Y1563377D01*
X-984100Y1587640D01*
Y1612760D01*
X-990602Y1637023D01*
X-1003161Y1658777D01*
X-1020923Y1676539D01*
X-1042677Y1689098D01*
X-1066940Y1695600D01*
D02*
G37*
G36*
X-1244100Y1587500D02*
X-1326800D01*
Y1504800D01*
X-1244100D01*
Y1587500D01*
D02*
G37*
G36*
X-1352200D02*
X-1434900D01*
Y1504800D01*
X-1352200D01*
Y1587500D01*
D02*
G37*
G36*
X-4947140Y1695600D02*
X-4972260D01*
X-4996523Y1689098D01*
X-5018277Y1676539D01*
X-5036039Y1658777D01*
X-5048598Y1637023D01*
X-5055100Y1612760D01*
Y1587640D01*
X-5048598Y1563377D01*
X-5036039Y1541623D01*
X-5018277Y1523861D01*
X-4996523Y1511302D01*
X-4972260Y1504800D01*
X-4947140D01*
X-4922877Y1511302D01*
X-4901123Y1523861D01*
X-4883361Y1541623D01*
X-4870802Y1563377D01*
X-4864300Y1587640D01*
Y1612760D01*
X-4870802Y1637023D01*
X-4883361Y1658777D01*
X-4901123Y1676539D01*
X-4922877Y1689098D01*
X-4947140Y1695600D01*
D02*
G37*
G36*
X-5207140D02*
X-5232260D01*
X-5256523Y1689098D01*
X-5278277Y1676539D01*
X-5296039Y1658777D01*
X-5308598Y1637023D01*
X-5315100Y1612760D01*
Y1587640D01*
X-5308598Y1563377D01*
X-5296039Y1541623D01*
X-5278277Y1523861D01*
X-5256523Y1511302D01*
X-5232260Y1504800D01*
X-5207140D01*
X-5182877Y1511302D01*
X-5161123Y1523861D01*
X-5143361Y1541623D01*
X-5130802Y1563377D01*
X-5124300Y1587640D01*
Y1612760D01*
X-5130802Y1637023D01*
X-5143361Y1658777D01*
X-5161123Y1676539D01*
X-5182877Y1689098D01*
X-5207140Y1695600D01*
D02*
G37*
G36*
X-5384300Y1587500D02*
X-5467000D01*
Y1504800D01*
X-5384300D01*
Y1587500D01*
D02*
G37*
G36*
X-5492400D02*
X-5575100D01*
Y1504800D01*
X-5492400D01*
Y1587500D01*
D02*
G37*
G36*
X-9150840Y1695600D02*
X-9175960D01*
X-9200223Y1689098D01*
X-9221977Y1676539D01*
X-9239739Y1658777D01*
X-9252298Y1637023D01*
X-9258800Y1612760D01*
Y1587640D01*
X-9252298Y1563377D01*
X-9239739Y1541623D01*
X-9221977Y1523861D01*
X-9200223Y1511302D01*
X-9175960Y1504800D01*
X-9150840D01*
X-9126577Y1511302D01*
X-9104823Y1523861D01*
X-9087061Y1541623D01*
X-9074502Y1563377D01*
X-9068000Y1587640D01*
Y1612760D01*
X-9074502Y1637023D01*
X-9087061Y1658777D01*
X-9104823Y1676539D01*
X-9126577Y1689098D01*
X-9150840Y1695600D01*
D02*
G37*
G36*
X-9410840D02*
X-9435960D01*
X-9460223Y1689098D01*
X-9481977Y1676539D01*
X-9499739Y1658777D01*
X-9512298Y1637023D01*
X-9518800Y1612760D01*
Y1587640D01*
X-9512298Y1563377D01*
X-9499739Y1541623D01*
X-9481977Y1523861D01*
X-9460223Y1511302D01*
X-9435960Y1504800D01*
X-9410840D01*
X-9386577Y1511302D01*
X-9364823Y1523861D01*
X-9347061Y1541623D01*
X-9334502Y1563377D01*
X-9328000Y1587640D01*
Y1612760D01*
X-9334502Y1637023D01*
X-9347061Y1658777D01*
X-9364823Y1676539D01*
X-9386577Y1689098D01*
X-9410840Y1695600D01*
D02*
G37*
G36*
X-9588000Y1587500D02*
X-9670700D01*
Y1504800D01*
X-9588000D01*
Y1587500D01*
D02*
G37*
G36*
X-9696100D02*
X-9778800D01*
Y1504800D01*
X-9696100D01*
Y1587500D01*
D02*
G37*
G36*
X3460260Y1657500D02*
X3435140D01*
X3410877Y1650998D01*
X3389123Y1638439D01*
X3371361Y1620677D01*
X3358802Y1598923D01*
X3352300Y1574660D01*
Y1549540D01*
X3358802Y1525277D01*
X3371361Y1503523D01*
X3389123Y1485761D01*
X3410877Y1473202D01*
X3435140Y1466700D01*
X3460260D01*
X3484523Y1473202D01*
X3506277Y1485761D01*
X3524039Y1503523D01*
X3536598Y1525277D01*
X3543100Y1549540D01*
Y1574660D01*
X3536598Y1598923D01*
X3524039Y1620677D01*
X3506277Y1638439D01*
X3484523Y1650998D01*
X3460260Y1657500D01*
D02*
G37*
G36*
X3200260D02*
X3175140D01*
X3150877Y1650998D01*
X3129123Y1638439D01*
X3111361Y1620677D01*
X3098802Y1598923D01*
X3092300Y1574660D01*
Y1549540D01*
X3098802Y1525277D01*
X3111361Y1503523D01*
X3129123Y1485761D01*
X3150877Y1473202D01*
X3175140Y1466700D01*
X3200260D01*
X3224523Y1473202D01*
X3246277Y1485761D01*
X3264039Y1503523D01*
X3276598Y1525277D01*
X3283100Y1549540D01*
Y1574660D01*
X3276598Y1598923D01*
X3264039Y1620677D01*
X3246277Y1638439D01*
X3224523Y1650998D01*
X3200260Y1657500D01*
D02*
G37*
G36*
X3023100Y1549400D02*
X2940400D01*
Y1466700D01*
X3023100D01*
Y1549400D01*
D02*
G37*
G36*
X2915000D02*
X2832300D01*
Y1466700D01*
X2915000D01*
Y1549400D01*
D02*
G37*
G36*
X1250460Y1657500D02*
X1225340D01*
X1201077Y1650998D01*
X1179323Y1638439D01*
X1161561Y1620677D01*
X1149002Y1598923D01*
X1142500Y1574660D01*
Y1549540D01*
X1149002Y1525277D01*
X1161561Y1503523D01*
X1179323Y1485761D01*
X1201077Y1473202D01*
X1225340Y1466700D01*
X1250460D01*
X1274723Y1473202D01*
X1296477Y1485761D01*
X1314239Y1503523D01*
X1326798Y1525277D01*
X1333300Y1549540D01*
Y1574660D01*
X1326798Y1598923D01*
X1314239Y1620677D01*
X1296477Y1638439D01*
X1274723Y1650998D01*
X1250460Y1657500D01*
D02*
G37*
G36*
X990460D02*
X965340D01*
X941077Y1650998D01*
X919323Y1638439D01*
X901561Y1620677D01*
X889002Y1598923D01*
X882500Y1574660D01*
Y1549540D01*
X889002Y1525277D01*
X901561Y1503523D01*
X919323Y1485761D01*
X941077Y1473202D01*
X965340Y1466700D01*
X990460D01*
X1014723Y1473202D01*
X1036477Y1485761D01*
X1054239Y1503523D01*
X1066798Y1525277D01*
X1073300Y1549540D01*
Y1574660D01*
X1066798Y1598923D01*
X1054239Y1620677D01*
X1036477Y1638439D01*
X1014723Y1650998D01*
X990460Y1657500D01*
D02*
G37*
G36*
X813300Y1549400D02*
X730600D01*
Y1466700D01*
X813300D01*
Y1549400D01*
D02*
G37*
G36*
X705200D02*
X622500D01*
Y1466700D01*
X705200D01*
Y1549400D01*
D02*
G37*
G36*
X-13316440Y1657500D02*
X-13341560D01*
X-13365823Y1650998D01*
X-13387576Y1638439D01*
X-13405339Y1620677D01*
X-13417899Y1598923D01*
X-13424400Y1574660D01*
Y1549540D01*
X-13417899Y1525277D01*
X-13405339Y1503523D01*
X-13387576Y1485761D01*
X-13365823Y1473202D01*
X-13341560Y1466700D01*
X-13316440D01*
X-13292177Y1473202D01*
X-13270422Y1485761D01*
X-13252661Y1503523D01*
X-13240102Y1525277D01*
X-13233600Y1549540D01*
Y1574660D01*
X-13240102Y1598923D01*
X-13252661Y1620677D01*
X-13270422Y1638439D01*
X-13292177Y1650998D01*
X-13316440Y1657500D01*
D02*
G37*
G36*
X-13576440D02*
X-13601559D01*
X-13625822Y1650998D01*
X-13647577Y1638439D01*
X-13665340Y1620677D01*
X-13677898Y1598923D01*
X-13684399Y1574660D01*
Y1549540D01*
X-13677898Y1525277D01*
X-13665340Y1503523D01*
X-13647577Y1485761D01*
X-13625822Y1473202D01*
X-13601559Y1466700D01*
X-13576440D01*
X-13552177Y1473202D01*
X-13530423Y1485761D01*
X-13512662Y1503523D01*
X-13500102Y1525277D01*
X-13493600Y1549540D01*
Y1574660D01*
X-13500102Y1598923D01*
X-13512662Y1620677D01*
X-13530423Y1638439D01*
X-13552177Y1650998D01*
X-13576440Y1657500D01*
D02*
G37*
G36*
X-13753600Y1549400D02*
X-13836301D01*
Y1466700D01*
X-13753600D01*
Y1549400D01*
D02*
G37*
G36*
X-13861700D02*
X-13944400D01*
Y1466700D01*
X-13861700D01*
Y1549400D01*
D02*
G37*
G36*
X-14839999Y1149300D02*
X-15055800D01*
Y933500D01*
X-14839999D01*
Y1149300D01*
D02*
G37*
G36*
X7035800Y749033D02*
Y673100D01*
X7111733D01*
X7105942Y694714D01*
X7094238Y714986D01*
X7077686Y731538D01*
X7057414Y743242D01*
X7035800Y749033D01*
D02*
G37*
G36*
X7010400D02*
X6988786Y743242D01*
X6968514Y731538D01*
X6951962Y714986D01*
X6940258Y694714D01*
X6934467Y673100D01*
X7010400D01*
Y749033D01*
D02*
G37*
G36*
X6354761D02*
Y673100D01*
X6430694D01*
X6424902Y694714D01*
X6413199Y714986D01*
X6396647Y731538D01*
X6376375Y743242D01*
X6354761Y749033D01*
D02*
G37*
G36*
X6329361D02*
X6307747Y743242D01*
X6287475Y731538D01*
X6270923Y714986D01*
X6259219Y694714D01*
X6253428Y673100D01*
X6329361D01*
Y749033D01*
D02*
G37*
G36*
X5686423D02*
Y673100D01*
X5762357D01*
X5756565Y694714D01*
X5744861Y714986D01*
X5728309Y731538D01*
X5708038Y743242D01*
X5686423Y749033D01*
D02*
G37*
G36*
X5661023D02*
X5639409Y743242D01*
X5619138Y731538D01*
X5602586Y714986D01*
X5590882Y694714D01*
X5585090Y673100D01*
X5661023D01*
Y749033D01*
D02*
G37*
G36*
X5018086D02*
Y673100D01*
X5094019D01*
X5088228Y694714D01*
X5076524Y714986D01*
X5059972Y731538D01*
X5039700Y743242D01*
X5018086Y749033D01*
D02*
G37*
G36*
X4992686D02*
X4971072Y743242D01*
X4950800Y731538D01*
X4934248Y714986D01*
X4922545Y694714D01*
X4916753Y673100D01*
X4992686D01*
Y749033D01*
D02*
G37*
G36*
X4349749D02*
Y673100D01*
X4425682D01*
X4419891Y694714D01*
X4408187Y714986D01*
X4391635Y731538D01*
X4371363Y743242D01*
X4349749Y749033D01*
D02*
G37*
G36*
X4324349D02*
X4302735Y743242D01*
X4282463Y731538D01*
X4265911Y714986D01*
X4254207Y694714D01*
X4248416Y673100D01*
X4324349D01*
Y749033D01*
D02*
G37*
G36*
X3681412D02*
Y673100D01*
X3757345D01*
X3751553Y694714D01*
X3739850Y714986D01*
X3723298Y731538D01*
X3703026Y743242D01*
X3681412Y749033D01*
D02*
G37*
G36*
X3656012D02*
X3634398Y743242D01*
X3614126Y731538D01*
X3597574Y714986D01*
X3585870Y694714D01*
X3580079Y673100D01*
X3656012D01*
Y749033D01*
D02*
G37*
G36*
X2344737D02*
Y673100D01*
X2420670D01*
X2414879Y694714D01*
X2403175Y714986D01*
X2386623Y731538D01*
X2366351Y743242D01*
X2344737Y749033D01*
D02*
G37*
G36*
X2319337D02*
X2297723Y743242D01*
X2277451Y731538D01*
X2260899Y714986D01*
X2249196Y694714D01*
X2243404Y673100D01*
X2319337D01*
Y749033D01*
D02*
G37*
G36*
X1676400D02*
Y673100D01*
X1752333D01*
X1746542Y694714D01*
X1734838Y714986D01*
X1718286Y731538D01*
X1698014Y743242D01*
X1676400Y749033D01*
D02*
G37*
G36*
X1651000D02*
X1629386Y743242D01*
X1609114Y731538D01*
X1592562Y714986D01*
X1580858Y694714D01*
X1575067Y673100D01*
X1651000D01*
Y749033D01*
D02*
G37*
G36*
X-6084500Y760800D02*
X-6172200D01*
Y673100D01*
X-6084500D01*
Y760800D01*
D02*
G37*
G36*
X-6197600D02*
X-6285300D01*
Y673100D01*
X-6197600D01*
Y760800D01*
D02*
G37*
G36*
X7111733Y647700D02*
X7035800D01*
Y571767D01*
X7057414Y577558D01*
X7077686Y589262D01*
X7094238Y605814D01*
X7105942Y626086D01*
X7111733Y647700D01*
D02*
G37*
G36*
X7010400D02*
X6934467D01*
X6940258Y626086D01*
X6951962Y605814D01*
X6968514Y589262D01*
X6988786Y577558D01*
X7010400Y571767D01*
Y647700D01*
D02*
G37*
G36*
X6430694D02*
X6354761D01*
Y571767D01*
X6376375Y577558D01*
X6396647Y589262D01*
X6413199Y605814D01*
X6424902Y626086D01*
X6430694Y647700D01*
D02*
G37*
G36*
X6329361D02*
X6253428D01*
X6259219Y626086D01*
X6270923Y605814D01*
X6287475Y589262D01*
X6307747Y577558D01*
X6329361Y571767D01*
Y647700D01*
D02*
G37*
G36*
X5762357D02*
X5686423D01*
Y571767D01*
X5708038Y577558D01*
X5728309Y589262D01*
X5744861Y605814D01*
X5756565Y626086D01*
X5762357Y647700D01*
D02*
G37*
G36*
X5661023D02*
X5585090D01*
X5590882Y626086D01*
X5602586Y605814D01*
X5619138Y589262D01*
X5639409Y577558D01*
X5661023Y571767D01*
Y647700D01*
D02*
G37*
G36*
X5094019D02*
X5018086D01*
Y571767D01*
X5039700Y577558D01*
X5059972Y589262D01*
X5076524Y605814D01*
X5088228Y626086D01*
X5094019Y647700D01*
D02*
G37*
G36*
X4992686D02*
X4916753D01*
X4922545Y626086D01*
X4934248Y605814D01*
X4950800Y589262D01*
X4971072Y577558D01*
X4992686Y571767D01*
Y647700D01*
D02*
G37*
G36*
X4425682D02*
X4349749D01*
Y571767D01*
X4371363Y577558D01*
X4391635Y589262D01*
X4408187Y605814D01*
X4419891Y626086D01*
X4425682Y647700D01*
D02*
G37*
G36*
X4324349D02*
X4248416D01*
X4254207Y626086D01*
X4265911Y605814D01*
X4282463Y589262D01*
X4302735Y577558D01*
X4324349Y571767D01*
Y647700D01*
D02*
G37*
G36*
X3757345D02*
X3681412D01*
Y571767D01*
X3703026Y577558D01*
X3723298Y589262D01*
X3739850Y605814D01*
X3751553Y626086D01*
X3757345Y647700D01*
D02*
G37*
G36*
X3656012D02*
X3580079D01*
X3585870Y626086D01*
X3597574Y605814D01*
X3614126Y589262D01*
X3634398Y577558D01*
X3656012Y571767D01*
Y647700D01*
D02*
G37*
G36*
X2420670D02*
X2344737D01*
Y571767D01*
X2366351Y577558D01*
X2386623Y589262D01*
X2403175Y605814D01*
X2414879Y626086D01*
X2420670Y647700D01*
D02*
G37*
G36*
X2319337D02*
X2243404D01*
X2249196Y626086D01*
X2260899Y605814D01*
X2277451Y589262D01*
X2297723Y577558D01*
X2319337Y571767D01*
Y647700D01*
D02*
G37*
G36*
X1752333D02*
X1676400D01*
Y571767D01*
X1698014Y577558D01*
X1718286Y589262D01*
X1734838Y605814D01*
X1746542Y626086D01*
X1752333Y647700D01*
D02*
G37*
G36*
X1651000D02*
X1575067D01*
X1580858Y626086D01*
X1592562Y605814D01*
X1609114Y589262D01*
X1629386Y577558D01*
X1651000Y571767D01*
Y647700D01*
D02*
G37*
G36*
X-4139682Y760800D02*
X-4166118D01*
X-4191653Y753958D01*
X-4214547Y740740D01*
X-4233240Y722047D01*
X-4246458Y699153D01*
X-4253300Y673618D01*
Y647182D01*
X-4246458Y621647D01*
X-4233240Y598753D01*
X-4214547Y580060D01*
X-4191653Y566842D01*
X-4166118Y560000D01*
X-4139682D01*
X-4114147Y566842D01*
X-4091253Y580060D01*
X-4072560Y598753D01*
X-4059342Y621647D01*
X-4052500Y647182D01*
Y673618D01*
X-4059342Y699153D01*
X-4072560Y722047D01*
X-4091253Y740740D01*
X-4114147Y753958D01*
X-4139682Y760800D01*
D02*
G37*
G36*
X-4393682D02*
X-4420118D01*
X-4445653Y753958D01*
X-4468547Y740740D01*
X-4487240Y722047D01*
X-4500458Y699153D01*
X-4507300Y673618D01*
Y647182D01*
X-4500458Y621647D01*
X-4487240Y598753D01*
X-4468547Y580060D01*
X-4445653Y566842D01*
X-4420118Y560000D01*
X-4393682D01*
X-4368147Y566842D01*
X-4345253Y580060D01*
X-4326560Y598753D01*
X-4313342Y621647D01*
X-4306500Y647182D01*
Y673618D01*
X-4313342Y699153D01*
X-4326560Y722047D01*
X-4345253Y740740D01*
X-4368147Y753958D01*
X-4393682Y760800D01*
D02*
G37*
G36*
X-4647682D02*
X-4674118D01*
X-4699653Y753958D01*
X-4722547Y740740D01*
X-4741240Y722047D01*
X-4754458Y699153D01*
X-4761300Y673618D01*
Y647182D01*
X-4754458Y621647D01*
X-4741240Y598753D01*
X-4722547Y580060D01*
X-4699653Y566842D01*
X-4674118Y560000D01*
X-4647682D01*
X-4622147Y566842D01*
X-4599253Y580060D01*
X-4580560Y598753D01*
X-4567342Y621647D01*
X-4560500Y647182D01*
Y673618D01*
X-4567342Y699153D01*
X-4580560Y722047D01*
X-4599253Y740740D01*
X-4622147Y753958D01*
X-4647682Y760800D01*
D02*
G37*
G36*
X-4901682D02*
X-4928118D01*
X-4953653Y753958D01*
X-4976547Y740740D01*
X-4995240Y722047D01*
X-5008458Y699153D01*
X-5015300Y673618D01*
Y647182D01*
X-5008458Y621647D01*
X-4995240Y598753D01*
X-4976547Y580060D01*
X-4953653Y566842D01*
X-4928118Y560000D01*
X-4901682D01*
X-4876147Y566842D01*
X-4853253Y580060D01*
X-4834560Y598753D01*
X-4821342Y621647D01*
X-4814500Y647182D01*
Y673618D01*
X-4821342Y699153D01*
X-4834560Y722047D01*
X-4853253Y740740D01*
X-4876147Y753958D01*
X-4901682Y760800D01*
D02*
G37*
G36*
X-5155682D02*
X-5182118D01*
X-5207653Y753958D01*
X-5230547Y740740D01*
X-5249240Y722047D01*
X-5262458Y699153D01*
X-5269300Y673618D01*
Y647182D01*
X-5262458Y621647D01*
X-5249240Y598753D01*
X-5230547Y580060D01*
X-5207653Y566842D01*
X-5182118Y560000D01*
X-5155682D01*
X-5130147Y566842D01*
X-5107253Y580060D01*
X-5088560Y598753D01*
X-5075342Y621647D01*
X-5068500Y647182D01*
Y673618D01*
X-5075342Y699153D01*
X-5088560Y722047D01*
X-5107253Y740740D01*
X-5130147Y753958D01*
X-5155682Y760800D01*
D02*
G37*
G36*
X-5409682D02*
X-5436118D01*
X-5461653Y753958D01*
X-5484547Y740740D01*
X-5503240Y722047D01*
X-5516458Y699153D01*
X-5523300Y673618D01*
Y647182D01*
X-5516458Y621647D01*
X-5503240Y598753D01*
X-5484547Y580060D01*
X-5461653Y566842D01*
X-5436118Y560000D01*
X-5409682D01*
X-5384147Y566842D01*
X-5361253Y580060D01*
X-5342560Y598753D01*
X-5329342Y621647D01*
X-5322500Y647182D01*
Y673618D01*
X-5329342Y699153D01*
X-5342560Y722047D01*
X-5361253Y740740D01*
X-5384147Y753958D01*
X-5409682Y760800D01*
D02*
G37*
G36*
X-5663682D02*
X-5690118D01*
X-5715653Y753958D01*
X-5738547Y740740D01*
X-5757240Y722047D01*
X-5770458Y699153D01*
X-5777300Y673618D01*
Y647182D01*
X-5770458Y621647D01*
X-5757240Y598753D01*
X-5738547Y580060D01*
X-5715653Y566842D01*
X-5690118Y560000D01*
X-5663682D01*
X-5638147Y566842D01*
X-5615253Y580060D01*
X-5596560Y598753D01*
X-5583342Y621647D01*
X-5576500Y647182D01*
Y673618D01*
X-5583342Y699153D01*
X-5596560Y722047D01*
X-5615253Y740740D01*
X-5638147Y753958D01*
X-5663682Y760800D01*
D02*
G37*
G36*
X-5917682D02*
X-5944118D01*
X-5969653Y753958D01*
X-5992547Y740740D01*
X-6011240Y722047D01*
X-6024458Y699153D01*
X-6031300Y673618D01*
Y647182D01*
X-6024458Y621647D01*
X-6011240Y598753D01*
X-5992547Y580060D01*
X-5969653Y566842D01*
X-5944118Y560000D01*
X-5917682D01*
X-5892147Y566842D01*
X-5869253Y580060D01*
X-5850560Y598753D01*
X-5837342Y621647D01*
X-5830500Y647182D01*
Y673618D01*
X-5837342Y699153D01*
X-5850560Y722047D01*
X-5869253Y740740D01*
X-5892147Y753958D01*
X-5917682Y760800D01*
D02*
G37*
G36*
X-6084500Y647700D02*
X-6172200D01*
Y560000D01*
X-6084500D01*
Y647700D01*
D02*
G37*
G36*
X-6197600D02*
X-6285300D01*
Y560000D01*
X-6197600D01*
Y647700D01*
D02*
G37*
G36*
X-14933694Y641300D02*
X-14935201D01*
Y546100D01*
X-14839999D01*
Y547605D01*
X-14847353Y575048D01*
X-14861559Y599652D01*
X-14881648Y619741D01*
X-14906252Y633947D01*
X-14933694Y641300D01*
D02*
G37*
G36*
X-14960600D02*
X-14962105D01*
X-14989548Y633947D01*
X-15014153Y619741D01*
X-15034241Y599652D01*
X-15048447Y575048D01*
X-15055800Y547605D01*
Y546100D01*
X-14960600D01*
Y641300D01*
D02*
G37*
G36*
X-3581848Y2997698D02*
X-4013200D01*
X-4023111Y2995726D01*
X-4031512Y2990112D01*
X-4037126Y2981711D01*
X-4039098Y2971800D01*
Y558800D01*
X-4037126Y548889D01*
X-4031512Y540488D01*
X-4023111Y534874D01*
X-4013200Y532902D01*
X-3949124D01*
X-3947448Y533236D01*
X-3945743Y533124D01*
X-3942535Y534213D01*
X-3939213Y534874D01*
X-3937793Y535823D01*
X-3936175Y536372D01*
X-3933628Y538605D01*
X-3930811Y540488D01*
X-3929862Y541908D01*
X-3928578Y543035D01*
X-3927080Y546073D01*
X-3925197Y548889D01*
X-3924864Y550565D01*
X-3924108Y552097D01*
X-3921330Y562469D01*
X-3912118Y560000D01*
X-3885682D01*
X-3876470Y562469D01*
X-3873692Y552097D01*
X-3872936Y550565D01*
X-3872603Y548889D01*
X-3870720Y546073D01*
X-3869222Y543035D01*
X-3867938Y541908D01*
X-3866989Y540488D01*
X-3864172Y538605D01*
X-3861625Y536372D01*
X-3860007Y535823D01*
X-3858587Y534874D01*
X-3855265Y534213D01*
X-3852057Y533124D01*
X-3850352Y533236D01*
X-3848676Y532902D01*
X-3619500D01*
X-3609589Y534874D01*
X-3601188Y540488D01*
X-3595574Y548889D01*
X-3593602Y558800D01*
Y2045900D01*
X-3429600D01*
Y2246700D01*
X-3593602D01*
Y2730002D01*
X-3576730D01*
X-3572992Y2730746D01*
X-3569201Y2731121D01*
X-3568074Y2731724D01*
X-3566820Y2731974D01*
X-3563651Y2734091D01*
X-3560291Y2735889D01*
X-3559481Y2736877D01*
X-3558418Y2737588D01*
X-3556301Y2740757D01*
X-3553885Y2743703D01*
X-3548333Y2754103D01*
X-3547962Y2755325D01*
X-3547253Y2756387D01*
X-3546509Y2760126D01*
X-3545404Y2763774D01*
X-3532894Y2766300D01*
X-3370578D01*
Y2966900D01*
X-3545280D01*
X-3546173Y2971387D01*
X-3546894Y2975899D01*
X-3547155Y2976323D01*
X-3547252Y2976811D01*
X-3549793Y2980613D01*
X-3552186Y2984507D01*
X-3552590Y2984799D01*
X-3552866Y2985213D01*
X-3556666Y2987751D01*
X-3560370Y2990434D01*
X-3571040Y2995335D01*
X-3571524Y2995450D01*
X-3571938Y2995726D01*
X-3576422Y2996618D01*
X-3580869Y2997679D01*
X-3581360Y2997601D01*
X-3581848Y2997698D01*
D02*
G37*
G36*
X-14839999Y520700D02*
X-14935201D01*
Y425500D01*
X-14933694D01*
X-14906252Y432853D01*
X-14881648Y447059D01*
X-14861559Y467148D01*
X-14847353Y491752D01*
X-14839999Y519195D01*
Y520700D01*
D02*
G37*
G36*
X-14960600D02*
X-15055800D01*
Y519195D01*
X-15048447Y491752D01*
X-15034241Y467148D01*
X-15014153Y447059D01*
X-14989548Y432853D01*
X-14962105Y425500D01*
X-14960600D01*
Y520700D01*
D02*
G37*
G36*
X100400Y354400D02*
X-100400D01*
Y153600D01*
X100400D01*
Y354400D01*
D02*
G37*
G36*
X1498460Y273200D02*
X1473340D01*
X1449077Y266698D01*
X1427323Y254139D01*
X1409561Y236377D01*
X1397002Y214623D01*
X1390500Y190360D01*
Y165240D01*
X1397002Y140977D01*
X1409561Y119223D01*
X1427323Y101461D01*
X1449077Y88902D01*
X1473340Y82400D01*
X1498460D01*
X1522723Y88902D01*
X1544477Y101461D01*
X1562239Y119223D01*
X1574798Y140977D01*
X1581300Y165240D01*
Y190360D01*
X1574798Y214623D01*
X1562239Y236377D01*
X1544477Y254139D01*
X1522723Y266698D01*
X1498460Y273200D01*
D02*
G37*
G36*
X7035800Y25133D02*
Y-50800D01*
X7111733D01*
X7105942Y-29186D01*
X7094238Y-8914D01*
X7077686Y7638D01*
X7057414Y19342D01*
X7035800Y25133D01*
D02*
G37*
G36*
X7010400D02*
X6988786Y19342D01*
X6968514Y7638D01*
X6951962Y-8914D01*
X6940258Y-29186D01*
X6934467Y-50800D01*
X7010400D01*
Y25133D01*
D02*
G37*
G36*
X2400400Y100400D02*
X2199600D01*
Y-100400D01*
X2400400D01*
Y100400D01*
D02*
G37*
G36*
X13218D02*
X-13218D01*
X-38753Y93558D01*
X-61647Y80340D01*
X-80340Y61647D01*
X-93558Y38753D01*
X-100400Y13218D01*
Y-13218D01*
X-93558Y-38753D01*
X-80340Y-61647D01*
X-61647Y-80340D01*
X-38753Y-93558D01*
X-13218Y-100400D01*
X13218D01*
X38753Y-93558D01*
X61647Y-80340D01*
X80340Y-61647D01*
X93558Y-38753D01*
X100400Y-13218D01*
Y13218D01*
X93558Y38753D01*
X80340Y61647D01*
X61647Y80340D01*
X38753Y93558D01*
X13218Y100400D01*
D02*
G37*
G36*
X-7575787Y-10900D02*
X-7576700D01*
Y-101600D01*
X-7486000D01*
Y-100687D01*
X-7493047Y-74389D01*
X-7506660Y-50811D01*
X-7525911Y-31559D01*
X-7549489Y-17947D01*
X-7575787Y-10900D01*
D02*
G37*
G36*
X-7602100D02*
X-7603013D01*
X-7629311Y-17947D01*
X-7652889Y-31559D01*
X-7672141Y-50811D01*
X-7685753Y-74389D01*
X-7692800Y-100687D01*
Y-101600D01*
X-7602100D01*
Y-10900D01*
D02*
G37*
G36*
X7111733Y-76200D02*
X7035800D01*
Y-152133D01*
X7057414Y-146342D01*
X7077686Y-134638D01*
X7094238Y-118086D01*
X7105942Y-97814D01*
X7111733Y-76200D01*
D02*
G37*
G36*
X7010400D02*
X6934467D01*
X6940258Y-97814D01*
X6951962Y-118086D01*
X6968514Y-134638D01*
X6988786Y-146342D01*
X7010400Y-152133D01*
Y-76200D01*
D02*
G37*
G36*
X-3003787Y-10900D02*
X-3031013D01*
X-3057311Y-17947D01*
X-3080889Y-31559D01*
X-3100141Y-50811D01*
X-3113753Y-74389D01*
X-3120800Y-100687D01*
Y-127913D01*
X-3113753Y-154211D01*
X-3100141Y-177789D01*
X-3080889Y-197040D01*
X-3057311Y-210653D01*
X-3031013Y-217700D01*
X-3003787D01*
X-2977489Y-210653D01*
X-2953911Y-197040D01*
X-2934660Y-177789D01*
X-2921047Y-154211D01*
X-2914000Y-127913D01*
Y-100687D01*
X-2921047Y-74389D01*
X-2934660Y-50811D01*
X-2953911Y-31559D01*
X-2977489Y-17947D01*
X-3003787Y-10900D01*
D02*
G37*
G36*
X-3257787D02*
X-3285013D01*
X-3311311Y-17947D01*
X-3334889Y-31559D01*
X-3354141Y-50811D01*
X-3367753Y-74389D01*
X-3374800Y-100687D01*
Y-127913D01*
X-3367753Y-154211D01*
X-3354141Y-177789D01*
X-3334889Y-197040D01*
X-3311311Y-210653D01*
X-3285013Y-217700D01*
X-3257787D01*
X-3231489Y-210653D01*
X-3207911Y-197040D01*
X-3188660Y-177789D01*
X-3175047Y-154211D01*
X-3168000Y-127913D01*
Y-100687D01*
X-3175047Y-74389D01*
X-3188660Y-50811D01*
X-3207911Y-31559D01*
X-3231489Y-17947D01*
X-3257787Y-10900D01*
D02*
G37*
G36*
X-3511787D02*
X-3539013D01*
X-3565311Y-17947D01*
X-3588889Y-31559D01*
X-3608141Y-50811D01*
X-3621753Y-74389D01*
X-3628800Y-100687D01*
Y-127913D01*
X-3621753Y-154211D01*
X-3608141Y-177789D01*
X-3588889Y-197040D01*
X-3565311Y-210653D01*
X-3539013Y-217700D01*
X-3511787D01*
X-3485489Y-210653D01*
X-3461911Y-197040D01*
X-3442660Y-177789D01*
X-3429047Y-154211D01*
X-3422000Y-127913D01*
Y-100687D01*
X-3429047Y-74389D01*
X-3442660Y-50811D01*
X-3461911Y-31559D01*
X-3485489Y-17947D01*
X-3511787Y-10900D01*
D02*
G37*
G36*
X-3765787D02*
X-3793013D01*
X-3819311Y-17947D01*
X-3842889Y-31559D01*
X-3862141Y-50811D01*
X-3875753Y-74389D01*
X-3882800Y-100687D01*
Y-127913D01*
X-3875753Y-154211D01*
X-3862141Y-177789D01*
X-3842889Y-197040D01*
X-3819311Y-210653D01*
X-3793013Y-217700D01*
X-3765787D01*
X-3739489Y-210653D01*
X-3715911Y-197040D01*
X-3696660Y-177789D01*
X-3683047Y-154211D01*
X-3676000Y-127913D01*
Y-100687D01*
X-3683047Y-74389D01*
X-3696660Y-50811D01*
X-3715911Y-31559D01*
X-3739489Y-17947D01*
X-3765787Y-10900D01*
D02*
G37*
G36*
X-4019787D02*
X-4047013D01*
X-4073311Y-17947D01*
X-4096889Y-31559D01*
X-4116141Y-50811D01*
X-4129753Y-74389D01*
X-4136800Y-100687D01*
Y-127913D01*
X-4129753Y-154211D01*
X-4116141Y-177789D01*
X-4096889Y-197040D01*
X-4073311Y-210653D01*
X-4047013Y-217700D01*
X-4019787D01*
X-3993489Y-210653D01*
X-3969911Y-197040D01*
X-3950660Y-177789D01*
X-3937047Y-154211D01*
X-3930000Y-127913D01*
Y-100687D01*
X-3937047Y-74389D01*
X-3950660Y-50811D01*
X-3969911Y-31559D01*
X-3993489Y-17947D01*
X-4019787Y-10900D01*
D02*
G37*
G36*
X-4273787D02*
X-4301013D01*
X-4327311Y-17947D01*
X-4350889Y-31559D01*
X-4370141Y-50811D01*
X-4383753Y-74389D01*
X-4390800Y-100687D01*
Y-127913D01*
X-4383753Y-154211D01*
X-4370141Y-177789D01*
X-4350889Y-197040D01*
X-4327311Y-210653D01*
X-4301013Y-217700D01*
X-4273787D01*
X-4247489Y-210653D01*
X-4223911Y-197040D01*
X-4204660Y-177789D01*
X-4191047Y-154211D01*
X-4184000Y-127913D01*
Y-100687D01*
X-4191047Y-74389D01*
X-4204660Y-50811D01*
X-4223911Y-31559D01*
X-4247489Y-17947D01*
X-4273787Y-10900D01*
D02*
G37*
G36*
X-4527787D02*
X-4555013D01*
X-4581311Y-17947D01*
X-4604889Y-31559D01*
X-4624141Y-50811D01*
X-4637753Y-74389D01*
X-4644800Y-100687D01*
Y-127913D01*
X-4637753Y-154211D01*
X-4624141Y-177789D01*
X-4604889Y-197040D01*
X-4581311Y-210653D01*
X-4555013Y-217700D01*
X-4527787D01*
X-4501489Y-210653D01*
X-4477911Y-197040D01*
X-4458660Y-177789D01*
X-4445047Y-154211D01*
X-4438000Y-127913D01*
Y-100687D01*
X-4445047Y-74389D01*
X-4458660Y-50811D01*
X-4477911Y-31559D01*
X-4501489Y-17947D01*
X-4527787Y-10900D01*
D02*
G37*
G36*
X-4781787D02*
X-4809013D01*
X-4835311Y-17947D01*
X-4858889Y-31559D01*
X-4878141Y-50811D01*
X-4891753Y-74389D01*
X-4898800Y-100687D01*
Y-127913D01*
X-4891753Y-154211D01*
X-4878141Y-177789D01*
X-4858889Y-197040D01*
X-4835311Y-210653D01*
X-4809013Y-217700D01*
X-4781787D01*
X-4755489Y-210653D01*
X-4731911Y-197040D01*
X-4712660Y-177789D01*
X-4699047Y-154211D01*
X-4692000Y-127913D01*
Y-100687D01*
X-4699047Y-74389D01*
X-4712660Y-50811D01*
X-4731911Y-31559D01*
X-4755489Y-17947D01*
X-4781787Y-10900D01*
D02*
G37*
G36*
X-5035787D02*
X-5063013D01*
X-5089311Y-17947D01*
X-5112889Y-31559D01*
X-5132141Y-50811D01*
X-5145753Y-74389D01*
X-5152800Y-100687D01*
Y-127913D01*
X-5145753Y-154211D01*
X-5132141Y-177789D01*
X-5112889Y-197040D01*
X-5089311Y-210653D01*
X-5063013Y-217700D01*
X-5035787D01*
X-5009489Y-210653D01*
X-4985911Y-197040D01*
X-4966660Y-177789D01*
X-4953047Y-154211D01*
X-4946000Y-127913D01*
Y-100687D01*
X-4953047Y-74389D01*
X-4966660Y-50811D01*
X-4985911Y-31559D01*
X-5009489Y-17947D01*
X-5035787Y-10900D01*
D02*
G37*
G36*
X-5289787D02*
X-5317013D01*
X-5343311Y-17947D01*
X-5366889Y-31559D01*
X-5386141Y-50811D01*
X-5399753Y-74389D01*
X-5406800Y-100687D01*
Y-127913D01*
X-5399753Y-154211D01*
X-5386141Y-177789D01*
X-5366889Y-197040D01*
X-5343311Y-210653D01*
X-5317013Y-217700D01*
X-5289787D01*
X-5263489Y-210653D01*
X-5239911Y-197040D01*
X-5220660Y-177789D01*
X-5207047Y-154211D01*
X-5200000Y-127913D01*
Y-100687D01*
X-5207047Y-74389D01*
X-5220660Y-50811D01*
X-5239911Y-31559D01*
X-5263489Y-17947D01*
X-5289787Y-10900D01*
D02*
G37*
G36*
X-5543787D02*
X-5571013D01*
X-5597311Y-17947D01*
X-5620889Y-31559D01*
X-5640141Y-50811D01*
X-5653753Y-74389D01*
X-5660800Y-100687D01*
Y-127913D01*
X-5653753Y-154211D01*
X-5640141Y-177789D01*
X-5620889Y-197040D01*
X-5597311Y-210653D01*
X-5571013Y-217700D01*
X-5543787D01*
X-5517489Y-210653D01*
X-5493911Y-197040D01*
X-5474660Y-177789D01*
X-5461047Y-154211D01*
X-5454000Y-127913D01*
Y-100687D01*
X-5461047Y-74389D01*
X-5474660Y-50811D01*
X-5493911Y-31559D01*
X-5517489Y-17947D01*
X-5543787Y-10900D01*
D02*
G37*
G36*
X-5797787D02*
X-5825013D01*
X-5851311Y-17947D01*
X-5874889Y-31559D01*
X-5894141Y-50811D01*
X-5907753Y-74389D01*
X-5914800Y-100687D01*
Y-127913D01*
X-5907753Y-154211D01*
X-5894141Y-177789D01*
X-5874889Y-197040D01*
X-5851311Y-210653D01*
X-5825013Y-217700D01*
X-5797787D01*
X-5771489Y-210653D01*
X-5747911Y-197040D01*
X-5728660Y-177789D01*
X-5715047Y-154211D01*
X-5708000Y-127913D01*
Y-100687D01*
X-5715047Y-74389D01*
X-5728660Y-50811D01*
X-5747911Y-31559D01*
X-5771489Y-17947D01*
X-5797787Y-10900D01*
D02*
G37*
G36*
X-6051787D02*
X-6079013D01*
X-6105311Y-17947D01*
X-6128889Y-31559D01*
X-6148141Y-50811D01*
X-6161753Y-74389D01*
X-6168800Y-100687D01*
Y-127913D01*
X-6161753Y-154211D01*
X-6148141Y-177789D01*
X-6128889Y-197040D01*
X-6105311Y-210653D01*
X-6079013Y-217700D01*
X-6051787D01*
X-6025489Y-210653D01*
X-6001911Y-197040D01*
X-5982660Y-177789D01*
X-5969047Y-154211D01*
X-5962000Y-127913D01*
Y-100687D01*
X-5969047Y-74389D01*
X-5982660Y-50811D01*
X-6001911Y-31559D01*
X-6025489Y-17947D01*
X-6051787Y-10900D01*
D02*
G37*
G36*
X-6305787D02*
X-6333013D01*
X-6359311Y-17947D01*
X-6382889Y-31559D01*
X-6402141Y-50811D01*
X-6415753Y-74389D01*
X-6422800Y-100687D01*
Y-127913D01*
X-6415753Y-154211D01*
X-6402141Y-177789D01*
X-6382889Y-197040D01*
X-6359311Y-210653D01*
X-6333013Y-217700D01*
X-6305787D01*
X-6279489Y-210653D01*
X-6255911Y-197040D01*
X-6236660Y-177789D01*
X-6223047Y-154211D01*
X-6216000Y-127913D01*
Y-100687D01*
X-6223047Y-74389D01*
X-6236660Y-50811D01*
X-6255911Y-31559D01*
X-6279489Y-17947D01*
X-6305787Y-10900D01*
D02*
G37*
G36*
X-6559787D02*
X-6587013D01*
X-6613311Y-17947D01*
X-6636889Y-31559D01*
X-6656141Y-50811D01*
X-6669753Y-74389D01*
X-6676800Y-100687D01*
Y-127913D01*
X-6669753Y-154211D01*
X-6656141Y-177789D01*
X-6636889Y-197040D01*
X-6613311Y-210653D01*
X-6587013Y-217700D01*
X-6559787D01*
X-6533489Y-210653D01*
X-6509911Y-197040D01*
X-6490660Y-177789D01*
X-6477047Y-154211D01*
X-6470000Y-127913D01*
Y-100687D01*
X-6477047Y-74389D01*
X-6490660Y-50811D01*
X-6509911Y-31559D01*
X-6533489Y-17947D01*
X-6559787Y-10900D01*
D02*
G37*
G36*
X-6813787D02*
X-6841013D01*
X-6867311Y-17947D01*
X-6890889Y-31559D01*
X-6910141Y-50811D01*
X-6923753Y-74389D01*
X-6930800Y-100687D01*
Y-127913D01*
X-6923753Y-154211D01*
X-6910141Y-177789D01*
X-6890889Y-197040D01*
X-6867311Y-210653D01*
X-6841013Y-217700D01*
X-6813787D01*
X-6787489Y-210653D01*
X-6763911Y-197040D01*
X-6744660Y-177789D01*
X-6731047Y-154211D01*
X-6724000Y-127913D01*
Y-100687D01*
X-6731047Y-74389D01*
X-6744660Y-50811D01*
X-6763911Y-31559D01*
X-6787489Y-17947D01*
X-6813787Y-10900D01*
D02*
G37*
G36*
X-7486000Y-127000D02*
X-7576700D01*
Y-217700D01*
X-7575787D01*
X-7549489Y-210653D01*
X-7525911Y-197040D01*
X-7506660Y-177789D01*
X-7493047Y-154211D01*
X-7486000Y-127913D01*
Y-127000D01*
D02*
G37*
G36*
X-7602100D02*
X-7692800D01*
Y-127913D01*
X-7685753Y-154211D01*
X-7672141Y-177789D01*
X-7652889Y-197040D01*
X-7629311Y-210653D01*
X-7603013Y-217700D01*
X-7602100D01*
Y-127000D01*
D02*
G37*
G36*
X-14827299Y-31800D02*
X-15043100D01*
Y-247600D01*
X-14827299D01*
Y-31800D01*
D02*
G37*
G36*
X13218Y-153600D02*
X-13218D01*
X-38753Y-160442D01*
X-61647Y-173660D01*
X-80340Y-192353D01*
X-93558Y-215247D01*
X-100400Y-240782D01*
Y-267218D01*
X-93558Y-292753D01*
X-80340Y-315647D01*
X-61647Y-334340D01*
X-38753Y-347558D01*
X-13218Y-354400D01*
X13218D01*
X38753Y-347558D01*
X61647Y-334340D01*
X80340Y-315647D01*
X93558Y-292753D01*
X100400Y-267218D01*
Y-240782D01*
X93558Y-215247D01*
X80340Y-192353D01*
X61647Y-173660D01*
X38753Y-160442D01*
X13218Y-153600D01*
D02*
G37*
G36*
X6582673Y216300D02*
X6549127D01*
X6516725Y207618D01*
X6487675Y190845D01*
X6463955Y167125D01*
X6447182Y138075D01*
X6438500Y105673D01*
Y72127D01*
X6447182Y39725D01*
X6463955Y10675D01*
X6487675Y-13045D01*
X6516725Y-29818D01*
X6523936Y-31750D01*
Y-44450D01*
X6516725Y-46382D01*
X6487675Y-63155D01*
X6463955Y-86875D01*
X6447182Y-115925D01*
X6438500Y-148327D01*
Y-181873D01*
X6447182Y-214275D01*
X6463955Y-243325D01*
X6487675Y-267045D01*
X6508380Y-279000D01*
X6504977Y-291700D01*
X6438500D01*
Y-406400D01*
X6565900D01*
X6693300D01*
Y-291700D01*
X6626823D01*
X6623420Y-279000D01*
X6644125Y-267045D01*
X6667845Y-243325D01*
X6684618Y-214275D01*
X6693300Y-181873D01*
Y-148327D01*
X6684618Y-115925D01*
X6667845Y-86875D01*
X6644125Y-63155D01*
X6615075Y-46382D01*
X6607864Y-44450D01*
Y-31750D01*
X6615075Y-29818D01*
X6644125Y-13045D01*
X6667845Y10675D01*
X6684618Y39725D01*
X6693300Y72127D01*
Y105673D01*
X6684618Y138075D01*
X6667845Y167125D01*
X6644125Y190845D01*
X6615075Y207618D01*
X6582673Y216300D01*
D02*
G37*
G36*
X13218Y-407600D02*
X12700D01*
Y-495300D01*
X100400D01*
Y-494782D01*
X93558Y-469247D01*
X80340Y-446353D01*
X61647Y-427660D01*
X38753Y-414442D01*
X13218Y-407600D01*
D02*
G37*
G36*
X-12700D02*
X-13218D01*
X-38753Y-414442D01*
X-61647Y-427660D01*
X-80340Y-446353D01*
X-93558Y-469247D01*
X-100400Y-494782D01*
Y-495300D01*
X-12700D01*
Y-407600D01*
D02*
G37*
G36*
X6693300Y-431800D02*
X6578600D01*
Y-546500D01*
X6693300D01*
Y-431800D01*
D02*
G37*
G36*
X6553200D02*
X6438500D01*
Y-546500D01*
X6553200D01*
Y-431800D01*
D02*
G37*
G36*
X100400Y-520700D02*
X12700D01*
Y-608400D01*
X13218D01*
X38753Y-601558D01*
X61647Y-588340D01*
X80340Y-569647D01*
X93558Y-546753D01*
X100400Y-521218D01*
Y-520700D01*
D02*
G37*
G36*
X-12700D02*
X-100400D01*
Y-521218D01*
X-93558Y-546753D01*
X-80340Y-569647D01*
X-61647Y-588340D01*
X-38753Y-601558D01*
X-13218Y-608400D01*
X-12700D01*
Y-520700D01*
D02*
G37*
G36*
X-14920995Y-539800D02*
X-14922501D01*
Y-635000D01*
X-14827299D01*
Y-633495D01*
X-14834653Y-606052D01*
X-14848859Y-581448D01*
X-14868948Y-561359D01*
X-14893552Y-547153D01*
X-14920995Y-539800D01*
D02*
G37*
G36*
X-14947900D02*
X-14949405D01*
X-14976848Y-547153D01*
X-15001453Y-561359D01*
X-15021541Y-581448D01*
X-15035747Y-606052D01*
X-15043100Y-633495D01*
Y-635000D01*
X-14947900D01*
Y-539800D01*
D02*
G37*
G36*
X1498460Y-488800D02*
X1473340D01*
X1449077Y-495302D01*
X1427323Y-507861D01*
X1409561Y-525623D01*
X1397002Y-547377D01*
X1390500Y-571640D01*
Y-596760D01*
X1397002Y-621023D01*
X1409561Y-642777D01*
X1427323Y-660539D01*
X1449077Y-673098D01*
X1473340Y-679600D01*
X1498460D01*
X1522723Y-673098D01*
X1544477Y-660539D01*
X1562239Y-642777D01*
X1574798Y-621023D01*
X1581300Y-596760D01*
Y-571640D01*
X1574798Y-547377D01*
X1562239Y-525623D01*
X1544477Y-507861D01*
X1522723Y-495302D01*
X1498460Y-488800D01*
D02*
G37*
G36*
X-14827299Y-660400D02*
X-14922501D01*
Y-755600D01*
X-14920995D01*
X-14893552Y-748247D01*
X-14868948Y-734041D01*
X-14848859Y-713952D01*
X-14834653Y-689348D01*
X-14827299Y-661905D01*
Y-660400D01*
D02*
G37*
G36*
X-14947900D02*
X-15043100D01*
Y-661905D01*
X-15035747Y-689348D01*
X-15021541Y-713952D01*
X-15001453Y-734041D01*
X-14976848Y-748247D01*
X-14949405Y-755600D01*
X-14947900D01*
Y-660400D01*
D02*
G37*
G36*
X7035800Y-698767D02*
Y-774700D01*
X7111733D01*
X7105942Y-753086D01*
X7094238Y-732814D01*
X7077686Y-716262D01*
X7057414Y-704558D01*
X7035800Y-698767D01*
D02*
G37*
G36*
X7010400D02*
X6988786Y-704558D01*
X6968514Y-716262D01*
X6951962Y-732814D01*
X6940258Y-753086D01*
X6934467Y-774700D01*
X7010400D01*
Y-698767D01*
D02*
G37*
G36*
X6299198D02*
Y-774700D01*
X6375131D01*
X6369340Y-753086D01*
X6357636Y-732814D01*
X6341084Y-716262D01*
X6320812Y-704558D01*
X6299198Y-698767D01*
D02*
G37*
G36*
X6273798D02*
X6252184Y-704558D01*
X6231912Y-716262D01*
X6215360Y-732814D01*
X6203657Y-753086D01*
X6197865Y-774700D01*
X6273798D01*
Y-698767D01*
D02*
G37*
G36*
X5638798D02*
Y-774700D01*
X5714732D01*
X5708940Y-753086D01*
X5697236Y-732814D01*
X5680684Y-716262D01*
X5660413Y-704558D01*
X5638798Y-698767D01*
D02*
G37*
G36*
X5613398D02*
X5591784Y-704558D01*
X5571513Y-716262D01*
X5554961Y-732814D01*
X5543257Y-753086D01*
X5537465Y-774700D01*
X5613398D01*
Y-698767D01*
D02*
G37*
G36*
X4978399D02*
Y-774700D01*
X5054332D01*
X5048540Y-753086D01*
X5036837Y-732814D01*
X5020285Y-716262D01*
X5000013Y-704558D01*
X4978399Y-698767D01*
D02*
G37*
G36*
X4952999D02*
X4931385Y-704558D01*
X4911113Y-716262D01*
X4894561Y-732814D01*
X4882857Y-753086D01*
X4877066Y-774700D01*
X4952999D01*
Y-698767D01*
D02*
G37*
G36*
X4317999D02*
Y-774700D01*
X4393932D01*
X4388141Y-753086D01*
X4376437Y-732814D01*
X4359885Y-716262D01*
X4339613Y-704558D01*
X4317999Y-698767D01*
D02*
G37*
G36*
X4292599D02*
X4270985Y-704558D01*
X4250713Y-716262D01*
X4234161Y-732814D01*
X4222457Y-753086D01*
X4216666Y-774700D01*
X4292599D01*
Y-698767D01*
D02*
G37*
G36*
X3657599D02*
Y-774700D01*
X3733532D01*
X3727741Y-753086D01*
X3716037Y-732814D01*
X3699485Y-716262D01*
X3679213Y-704558D01*
X3657599Y-698767D01*
D02*
G37*
G36*
X3632199D02*
X3610585Y-704558D01*
X3590313Y-716262D01*
X3573761Y-732814D01*
X3562058Y-753086D01*
X3556266Y-774700D01*
X3632199D01*
Y-698767D01*
D02*
G37*
G36*
X2997199D02*
Y-774700D01*
X3073133D01*
X3067341Y-753086D01*
X3055637Y-732814D01*
X3039085Y-716262D01*
X3018814Y-704558D01*
X2997199Y-698767D01*
D02*
G37*
G36*
X2971799D02*
X2950185Y-704558D01*
X2929914Y-716262D01*
X2913362Y-732814D01*
X2901658Y-753086D01*
X2895866Y-774700D01*
X2971799D01*
Y-698767D01*
D02*
G37*
G36*
X2336800D02*
Y-774700D01*
X2412733D01*
X2406941Y-753086D01*
X2395238Y-732814D01*
X2378686Y-716262D01*
X2358414Y-704558D01*
X2336800Y-698767D01*
D02*
G37*
G36*
X2311400D02*
X2289786Y-704558D01*
X2269514Y-716262D01*
X2252962Y-732814D01*
X2241258Y-753086D01*
X2235467Y-774700D01*
X2311400D01*
Y-698767D01*
D02*
G37*
G36*
X3733532Y-800100D02*
X3657599D01*
Y-876033D01*
X3679213Y-870242D01*
X3699485Y-858538D01*
X3716037Y-841986D01*
X3727741Y-821714D01*
X3733532Y-800100D01*
D02*
G37*
G36*
X3632199D02*
X3556266D01*
X3562058Y-821714D01*
X3573761Y-841986D01*
X3590313Y-858538D01*
X3610585Y-870242D01*
X3632199Y-876033D01*
Y-800100D01*
D02*
G37*
G36*
X3073133D02*
X2997199D01*
Y-876033D01*
X3018814Y-870242D01*
X3039085Y-858538D01*
X3055637Y-841986D01*
X3067341Y-821714D01*
X3073133Y-800100D01*
D02*
G37*
G36*
X2971799D02*
X2895866D01*
X2901658Y-821714D01*
X2913362Y-841986D01*
X2929914Y-858538D01*
X2950185Y-870242D01*
X2971799Y-876033D01*
Y-800100D01*
D02*
G37*
G36*
X2412733D02*
X2336800D01*
Y-876033D01*
X2358414Y-870242D01*
X2378686Y-858538D01*
X2395238Y-841986D01*
X2406941Y-821714D01*
X2412733Y-800100D01*
D02*
G37*
G36*
X2311400D02*
X2235467D01*
X2241258Y-821714D01*
X2252962Y-841986D01*
X2269514Y-858538D01*
X2289786Y-870242D01*
X2311400Y-876033D01*
Y-800100D01*
D02*
G37*
G36*
X-11715700Y-941490D02*
Y-1019391D01*
X-11637800D01*
X-11643788Y-997043D01*
X-11655742Y-976338D01*
X-11672647Y-959432D01*
X-11693353Y-947478D01*
X-11715700Y-941490D01*
D02*
G37*
G36*
X-11741100D02*
X-11763447Y-947478D01*
X-11784152Y-959432D01*
X-11801058Y-976338D01*
X-11813012Y-997043D01*
X-11819000Y-1019391D01*
X-11741100D01*
Y-941490D01*
D02*
G37*
G36*
X-11637800Y-1044791D02*
X-11715700D01*
Y-1122690D01*
X-11693353Y-1116702D01*
X-11672647Y-1104748D01*
X-11655742Y-1087843D01*
X-11643788Y-1067138D01*
X-11637800Y-1044791D01*
D02*
G37*
G36*
X-11741100D02*
X-11819000D01*
X-11813012Y-1067138D01*
X-11801058Y-1087843D01*
X-11784152Y-1104748D01*
X-11763447Y-1116702D01*
X-11741100Y-1122690D01*
Y-1044791D01*
D02*
G37*
G36*
X-11037600Y-941290D02*
X-11219200D01*
Y-1122890D01*
X-11037600D01*
Y-941290D01*
D02*
G37*
G36*
X-11316446D02*
X-11340354D01*
X-11363447Y-947478D01*
X-11384152Y-959432D01*
X-11401058Y-976338D01*
X-11413012Y-997043D01*
X-11419200Y-1020136D01*
Y-1044044D01*
X-11413012Y-1067138D01*
X-11401058Y-1087843D01*
X-11384152Y-1104748D01*
X-11363447Y-1116702D01*
X-11340354Y-1122890D01*
X-11316446D01*
X-11293353Y-1116702D01*
X-11272648Y-1104748D01*
X-11255742Y-1087843D01*
X-11243788Y-1067138D01*
X-11237600Y-1044044D01*
Y-1020136D01*
X-11243788Y-997043D01*
X-11255742Y-976338D01*
X-11272648Y-959432D01*
X-11293353Y-947478D01*
X-11316446Y-941290D01*
D02*
G37*
G36*
X-11516446D02*
X-11540354D01*
X-11563448Y-947478D01*
X-11584153Y-959432D01*
X-11601058Y-976338D01*
X-11613012Y-997043D01*
X-11619200Y-1020136D01*
Y-1044044D01*
X-11613012Y-1067138D01*
X-11601058Y-1087843D01*
X-11584153Y-1104748D01*
X-11563448Y-1116702D01*
X-11540354Y-1122890D01*
X-11516446D01*
X-11493353Y-1116702D01*
X-11472648Y-1104748D01*
X-11455742Y-1087843D01*
X-11443788Y-1067138D01*
X-11437600Y-1044044D01*
Y-1020136D01*
X-11443788Y-997043D01*
X-11455742Y-976338D01*
X-11472648Y-959432D01*
X-11493353Y-947478D01*
X-11516446Y-941290D01*
D02*
G37*
G36*
X-12476900Y-1901100D02*
X-12789600D01*
Y-2213800D01*
X-12476900D01*
Y-1901100D01*
D02*
G37*
G36*
X-12814999D02*
X-13127699D01*
Y-2213800D01*
X-12814999D01*
Y-1901100D01*
D02*
G37*
G36*
X-9706900D02*
X-10357700D01*
Y-2551900D01*
X-9706900D01*
Y-1901100D01*
D02*
G37*
G36*
X-12476900Y-2239200D02*
X-12789600D01*
Y-2551900D01*
X-12476900D01*
Y-2239200D01*
D02*
G37*
G36*
X-12814999D02*
X-13127699D01*
Y-2551900D01*
X-12814999D01*
Y-2239200D01*
D02*
G37*
G36*
X-2870200Y-2476002D02*
X-3162300D01*
X-3172211Y-2477974D01*
X-3180612Y-2483588D01*
X-3186226Y-2491989D01*
X-3188198Y-2501900D01*
Y-2573312D01*
X-3200898Y-2578573D01*
X-3207911Y-2571559D01*
X-3231489Y-2557947D01*
X-3257787Y-2550900D01*
X-3285013D01*
X-3311311Y-2557947D01*
X-3334889Y-2571559D01*
X-3354141Y-2590811D01*
X-3367753Y-2614389D01*
X-3374800Y-2640687D01*
Y-2667913D01*
X-3367753Y-2694211D01*
X-3354141Y-2717789D01*
X-3334889Y-2737040D01*
X-3311311Y-2750653D01*
X-3285013Y-2757700D01*
X-3257787D01*
X-3231489Y-2750653D01*
X-3207911Y-2737040D01*
X-3200898Y-2730027D01*
X-3188198Y-2735288D01*
Y-3466602D01*
X-4633707D01*
X-4633800Y-3466621D01*
X-4633894Y-3466603D01*
X-4638769Y-3467610D01*
X-4643617Y-3468574D01*
X-4643696Y-3468627D01*
X-4643790Y-3468646D01*
X-4647908Y-3471441D01*
X-4652019Y-3474188D01*
X-4652072Y-3474267D01*
X-4652151Y-3474321D01*
X-4654878Y-3478467D01*
X-4655744Y-3479762D01*
X-4656566Y-3480686D01*
X-4656789Y-3481326D01*
X-4657633Y-3482589D01*
X-4657652Y-3482683D01*
X-4657704Y-3482763D01*
X-4658231Y-3484062D01*
X-4658453Y-3485225D01*
X-4664179Y-3493077D01*
X-4668220Y-3495756D01*
X-4669922Y-3495300D01*
X-4702678D01*
X-4704380Y-3495756D01*
X-4708422Y-3493077D01*
X-4714147Y-3485225D01*
X-4714369Y-3484062D01*
X-4714896Y-3482763D01*
X-4714948Y-3482683D01*
X-4714967Y-3482589D01*
X-4715811Y-3481326D01*
X-4716034Y-3480686D01*
X-4716857Y-3479761D01*
X-4717722Y-3478467D01*
X-4720449Y-3474321D01*
X-4720528Y-3474267D01*
X-4720581Y-3474188D01*
X-4724692Y-3471441D01*
X-4728810Y-3468646D01*
X-4728904Y-3468627D01*
X-4728983Y-3468574D01*
X-4733848Y-3467606D01*
X-4738706Y-3466603D01*
X-4738800Y-3466621D01*
X-4738893Y-3466602D01*
X-5194300D01*
X-5204211Y-3468574D01*
X-5212612Y-3474188D01*
X-5218226Y-3482589D01*
X-5220198Y-3492500D01*
Y-3505200D01*
Y-4114800D01*
X-5218226Y-4124711D01*
X-5212612Y-4133112D01*
X-5204211Y-4138726D01*
X-5194300Y-4140698D01*
X-2870200D01*
X-2860290Y-4138726D01*
X-2851888Y-4133112D01*
X-2846274Y-4124711D01*
X-2844303Y-4114800D01*
X-2844302Y-2501900D01*
X-2846274Y-2491989D01*
X-2851888Y-2483588D01*
X-2860289Y-2477974D01*
X-2870200Y-2476002D01*
D02*
G37*
G36*
X-7067787Y-10900D02*
X-7095013D01*
X-7121311Y-17947D01*
X-7144889Y-31559D01*
X-7164141Y-50811D01*
X-7177753Y-74389D01*
X-7184800Y-100687D01*
Y-127913D01*
X-7177753Y-154211D01*
X-7164141Y-177789D01*
X-7144889Y-197040D01*
X-7121311Y-210653D01*
X-7120247Y-210939D01*
Y-437000D01*
X-7117290Y-451866D01*
X-7108869Y-464468D01*
X-5969747Y-1603591D01*
Y-2588643D01*
X-5982014Y-2591930D01*
X-5982660Y-2590811D01*
X-6001911Y-2571559D01*
X-6025489Y-2557947D01*
X-6051787Y-2550900D01*
X-6079013D01*
X-6105311Y-2557947D01*
X-6128889Y-2571559D01*
X-6148141Y-2590811D01*
X-6161753Y-2614389D01*
X-6168800Y-2640687D01*
Y-2667913D01*
X-6161753Y-2694211D01*
X-6148141Y-2717789D01*
X-6128889Y-2737040D01*
X-6105311Y-2750653D01*
X-6079013Y-2757700D01*
X-6051787D01*
X-6025489Y-2750653D01*
X-6001911Y-2737040D01*
X-5982660Y-2717789D01*
X-5982014Y-2716670D01*
X-5969747Y-2719957D01*
Y-3285909D01*
X-6454991Y-3771153D01*
X-6686714D01*
X-6686844Y-3770668D01*
X-6700260Y-3747432D01*
X-6719232Y-3728460D01*
X-6742468Y-3715044D01*
X-6768384Y-3708100D01*
X-6795216D01*
X-6821132Y-3715044D01*
X-6844368Y-3728460D01*
X-6863340Y-3747432D01*
X-6876756Y-3770668D01*
X-6883700Y-3796584D01*
Y-3823416D01*
X-6876756Y-3849332D01*
X-6863340Y-3872568D01*
X-6844368Y-3891540D01*
X-6821132Y-3904956D01*
X-6795216Y-3911900D01*
X-6768384D01*
X-6742468Y-3904956D01*
X-6719232Y-3891540D01*
X-6700260Y-3872568D01*
X-6686844Y-3849332D01*
X-6686714Y-3848847D01*
X-6438900D01*
X-6424034Y-3845889D01*
X-6411431Y-3837469D01*
X-5903431Y-3329469D01*
X-5895011Y-3316866D01*
X-5892053Y-3302000D01*
Y-2736470D01*
X-5880320Y-2731609D01*
X-5874889Y-2737040D01*
X-5851311Y-2750653D01*
X-5825013Y-2757700D01*
X-5797787D01*
X-5771489Y-2750653D01*
X-5747911Y-2737040D01*
X-5728660Y-2717789D01*
X-5715047Y-2694211D01*
X-5708000Y-2667913D01*
Y-2640687D01*
X-5715047Y-2614389D01*
X-5728660Y-2590811D01*
X-5747911Y-2571559D01*
X-5771489Y-2557947D01*
X-5797787Y-2550900D01*
X-5825013D01*
X-5851311Y-2557947D01*
X-5874889Y-2571559D01*
X-5880320Y-2576991D01*
X-5892053Y-2572130D01*
Y-1587500D01*
X-5895011Y-1572634D01*
X-5903431Y-1560031D01*
X-7042554Y-420909D01*
Y-210939D01*
X-7041489Y-210653D01*
X-7017911Y-197040D01*
X-6998660Y-177789D01*
X-6985047Y-154211D01*
X-6978000Y-127913D01*
Y-100687D01*
X-6985047Y-74389D01*
X-6998660Y-50811D01*
X-7017911Y-31559D01*
X-7041489Y-17947D01*
X-7067787Y-10900D01*
D02*
G37*
G36*
X-3511787Y-2550900D02*
X-3539013D01*
X-3565311Y-2557947D01*
X-3588889Y-2571559D01*
X-3608141Y-2590811D01*
X-3621753Y-2614389D01*
X-3628800Y-2640687D01*
Y-2667913D01*
X-3621753Y-2694211D01*
X-3608141Y-2717789D01*
X-3588889Y-2737040D01*
X-3565311Y-2750653D01*
X-3539013Y-2757700D01*
X-3511787D01*
X-3485489Y-2750653D01*
X-3461911Y-2737040D01*
X-3442660Y-2717789D01*
X-3429047Y-2694211D01*
X-3422000Y-2667913D01*
Y-2640687D01*
X-3429047Y-2614389D01*
X-3442660Y-2590811D01*
X-3461911Y-2571559D01*
X-3485489Y-2557947D01*
X-3511787Y-2550900D01*
D02*
G37*
G36*
X-3765787D02*
X-3793013D01*
X-3819311Y-2557947D01*
X-3842889Y-2571559D01*
X-3862141Y-2590811D01*
X-3875753Y-2614389D01*
X-3882800Y-2640687D01*
Y-2667913D01*
X-3875753Y-2694211D01*
X-3862141Y-2717789D01*
X-3842889Y-2737040D01*
X-3819311Y-2750653D01*
X-3793013Y-2757700D01*
X-3765787D01*
X-3739489Y-2750653D01*
X-3715911Y-2737040D01*
X-3696660Y-2717789D01*
X-3683047Y-2694211D01*
X-3676000Y-2667913D01*
Y-2640687D01*
X-3683047Y-2614389D01*
X-3696660Y-2590811D01*
X-3715911Y-2571559D01*
X-3739489Y-2557947D01*
X-3765787Y-2550900D01*
D02*
G37*
G36*
X-4019787D02*
X-4047013D01*
X-4073311Y-2557947D01*
X-4096889Y-2571559D01*
X-4116141Y-2590811D01*
X-4129753Y-2614389D01*
X-4136800Y-2640687D01*
Y-2667913D01*
X-4129753Y-2694211D01*
X-4116141Y-2717789D01*
X-4096889Y-2737040D01*
X-4073311Y-2750653D01*
X-4047013Y-2757700D01*
X-4019787D01*
X-3993489Y-2750653D01*
X-3969911Y-2737040D01*
X-3950660Y-2717789D01*
X-3937047Y-2694211D01*
X-3930000Y-2667913D01*
Y-2640687D01*
X-3937047Y-2614389D01*
X-3950660Y-2590811D01*
X-3969911Y-2571559D01*
X-3993489Y-2557947D01*
X-4019787Y-2550900D01*
D02*
G37*
G36*
X-4273787D02*
X-4301013D01*
X-4327311Y-2557947D01*
X-4350889Y-2571559D01*
X-4370141Y-2590811D01*
X-4383753Y-2614389D01*
X-4390800Y-2640687D01*
Y-2667913D01*
X-4383753Y-2694211D01*
X-4370141Y-2717789D01*
X-4350889Y-2737040D01*
X-4327311Y-2750653D01*
X-4301013Y-2757700D01*
X-4273787D01*
X-4247489Y-2750653D01*
X-4223911Y-2737040D01*
X-4204660Y-2717789D01*
X-4191047Y-2694211D01*
X-4184000Y-2667913D01*
Y-2640687D01*
X-4191047Y-2614389D01*
X-4204660Y-2590811D01*
X-4223911Y-2571559D01*
X-4247489Y-2557947D01*
X-4273787Y-2550900D01*
D02*
G37*
G36*
X-4781787D02*
X-4809013D01*
X-4835311Y-2557947D01*
X-4858889Y-2571559D01*
X-4878141Y-2590811D01*
X-4891753Y-2614389D01*
X-4898800Y-2640687D01*
Y-2667913D01*
X-4891753Y-2694211D01*
X-4878141Y-2717789D01*
X-4858889Y-2737040D01*
X-4835311Y-2750653D01*
X-4809013Y-2757700D01*
X-4781787D01*
X-4755489Y-2750653D01*
X-4731911Y-2737040D01*
X-4712660Y-2717789D01*
X-4699047Y-2694211D01*
X-4692000Y-2667913D01*
Y-2640687D01*
X-4699047Y-2614389D01*
X-4712660Y-2590811D01*
X-4731911Y-2571559D01*
X-4755489Y-2557947D01*
X-4781787Y-2550900D01*
D02*
G37*
G36*
X-5035787D02*
X-5063013D01*
X-5089311Y-2557947D01*
X-5112889Y-2571559D01*
X-5132141Y-2590811D01*
X-5145753Y-2614389D01*
X-5152800Y-2640687D01*
Y-2667913D01*
X-5145753Y-2694211D01*
X-5132141Y-2717789D01*
X-5112889Y-2737040D01*
X-5089311Y-2750653D01*
X-5063013Y-2757700D01*
X-5035787D01*
X-5009489Y-2750653D01*
X-4985911Y-2737040D01*
X-4966660Y-2717789D01*
X-4953047Y-2694211D01*
X-4946000Y-2667913D01*
Y-2640687D01*
X-4953047Y-2614389D01*
X-4966660Y-2590811D01*
X-4985911Y-2571559D01*
X-5009489Y-2557947D01*
X-5035787Y-2550900D01*
D02*
G37*
G36*
X-5289787D02*
X-5317013D01*
X-5343311Y-2557947D01*
X-5366889Y-2571559D01*
X-5386141Y-2590811D01*
X-5399753Y-2614389D01*
X-5406800Y-2640687D01*
Y-2667913D01*
X-5399753Y-2694211D01*
X-5386141Y-2717789D01*
X-5366889Y-2737040D01*
X-5343311Y-2750653D01*
X-5317013Y-2757700D01*
X-5289787D01*
X-5263489Y-2750653D01*
X-5239911Y-2737040D01*
X-5220660Y-2717789D01*
X-5207047Y-2694211D01*
X-5200000Y-2667913D01*
Y-2640687D01*
X-5207047Y-2614389D01*
X-5220660Y-2590811D01*
X-5239911Y-2571559D01*
X-5263489Y-2557947D01*
X-5289787Y-2550900D01*
D02*
G37*
G36*
X-5543787D02*
X-5571013D01*
X-5597311Y-2557947D01*
X-5620889Y-2571559D01*
X-5640141Y-2590811D01*
X-5653753Y-2614389D01*
X-5660800Y-2640687D01*
Y-2667913D01*
X-5653753Y-2694211D01*
X-5640141Y-2717789D01*
X-5620889Y-2737040D01*
X-5597311Y-2750653D01*
X-5571013Y-2757700D01*
X-5543787D01*
X-5517489Y-2750653D01*
X-5493911Y-2737040D01*
X-5474660Y-2717789D01*
X-5461047Y-2694211D01*
X-5454000Y-2667913D01*
Y-2640687D01*
X-5461047Y-2614389D01*
X-5474660Y-2590811D01*
X-5493911Y-2571559D01*
X-5517489Y-2557947D01*
X-5543787Y-2550900D01*
D02*
G37*
G36*
X-6305787D02*
X-6333013D01*
X-6359311Y-2557947D01*
X-6382889Y-2571559D01*
X-6402141Y-2590811D01*
X-6415753Y-2614389D01*
X-6422800Y-2640687D01*
Y-2667913D01*
X-6415753Y-2694211D01*
X-6402141Y-2717789D01*
X-6382889Y-2737040D01*
X-6359311Y-2750653D01*
X-6333013Y-2757700D01*
X-6305787D01*
X-6279489Y-2750653D01*
X-6255911Y-2737040D01*
X-6236660Y-2717789D01*
X-6223047Y-2694211D01*
X-6216000Y-2667913D01*
Y-2640687D01*
X-6223047Y-2614389D01*
X-6236660Y-2590811D01*
X-6255911Y-2571559D01*
X-6279489Y-2557947D01*
X-6305787Y-2550900D01*
D02*
G37*
G36*
X-6559787D02*
X-6587013D01*
X-6613311Y-2557947D01*
X-6636889Y-2571559D01*
X-6656141Y-2590811D01*
X-6669753Y-2614389D01*
X-6676800Y-2640687D01*
Y-2667913D01*
X-6669753Y-2694211D01*
X-6656141Y-2717789D01*
X-6636889Y-2737040D01*
X-6613311Y-2750653D01*
X-6587013Y-2757700D01*
X-6559787D01*
X-6533489Y-2750653D01*
X-6509911Y-2737040D01*
X-6490660Y-2717789D01*
X-6477047Y-2694211D01*
X-6470000Y-2667913D01*
Y-2640687D01*
X-6477047Y-2614389D01*
X-6490660Y-2590811D01*
X-6509911Y-2571559D01*
X-6533489Y-2557947D01*
X-6559787Y-2550900D01*
D02*
G37*
G36*
X-6813787D02*
X-6841013D01*
X-6867311Y-2557947D01*
X-6890889Y-2571559D01*
X-6910141Y-2590811D01*
X-6923753Y-2614389D01*
X-6930800Y-2640687D01*
Y-2667913D01*
X-6923753Y-2694211D01*
X-6910141Y-2717789D01*
X-6890889Y-2737040D01*
X-6867311Y-2750653D01*
X-6841013Y-2757700D01*
X-6813787D01*
X-6787489Y-2750653D01*
X-6763911Y-2737040D01*
X-6744660Y-2717789D01*
X-6731047Y-2694211D01*
X-6724000Y-2667913D01*
Y-2640687D01*
X-6731047Y-2614389D01*
X-6744660Y-2590811D01*
X-6763911Y-2571559D01*
X-6787489Y-2557947D01*
X-6813787Y-2550900D01*
D02*
G37*
G36*
X-7067787D02*
X-7095013D01*
X-7121311Y-2557947D01*
X-7144889Y-2571559D01*
X-7164141Y-2590811D01*
X-7177753Y-2614389D01*
X-7184800Y-2640687D01*
Y-2667913D01*
X-7177753Y-2694211D01*
X-7164141Y-2717789D01*
X-7144889Y-2737040D01*
X-7121311Y-2750653D01*
X-7095013Y-2757700D01*
X-7067787D01*
X-7041489Y-2750653D01*
X-7017911Y-2737040D01*
X-6998660Y-2717789D01*
X-6985047Y-2694211D01*
X-6978000Y-2667913D01*
Y-2640687D01*
X-6985047Y-2614389D01*
X-6998660Y-2590811D01*
X-7017911Y-2571559D01*
X-7041489Y-2557947D01*
X-7067787Y-2550900D01*
D02*
G37*
G36*
X-7321787Y-10900D02*
X-7349013D01*
X-7375311Y-17947D01*
X-7398889Y-31559D01*
X-7418141Y-50811D01*
X-7431753Y-74389D01*
X-7438800Y-100687D01*
Y-127913D01*
X-7431753Y-154211D01*
X-7418141Y-177789D01*
X-7398889Y-197040D01*
X-7375311Y-210653D01*
X-7374247Y-210939D01*
Y-789209D01*
X-7495069Y-910031D01*
X-7503489Y-922634D01*
X-7506447Y-937500D01*
Y-2550900D01*
X-7692800D01*
Y-2757700D01*
X-7506447D01*
Y-3695700D01*
X-7503489Y-3710566D01*
X-7495069Y-3723169D01*
X-7137290Y-4080948D01*
X-7124687Y-4089369D01*
X-7109821Y-4092326D01*
X-6879705D01*
X-6876756Y-4103332D01*
X-6863340Y-4126568D01*
X-6844368Y-4145540D01*
X-6821132Y-4158956D01*
X-6802885Y-4163845D01*
X-6798193Y-4165103D01*
X-6799795Y-4177271D01*
X-6803720Y-4177802D01*
X-6946900D01*
X-6956811Y-4179774D01*
X-6965212Y-4185388D01*
X-6970826Y-4193789D01*
X-6972798Y-4203700D01*
Y-4737100D01*
X-6970826Y-4747011D01*
X-6965212Y-4755412D01*
X-6956811Y-4761026D01*
X-6946900Y-4762998D01*
X-6877754D01*
X-6870422Y-4775698D01*
X-6876756Y-4786668D01*
X-6883700Y-4812584D01*
Y-4839416D01*
X-6876756Y-4865332D01*
X-6863340Y-4888568D01*
X-6844368Y-4907540D01*
X-6821132Y-4920956D01*
X-6795216Y-4927900D01*
X-6768384D01*
X-6742468Y-4920956D01*
X-6719232Y-4907540D01*
X-6700260Y-4888568D01*
X-6686844Y-4865332D01*
X-6679900Y-4839416D01*
Y-4812584D01*
X-6686844Y-4786668D01*
X-6693178Y-4775698D01*
X-6685846Y-4762998D01*
X-6553200D01*
X-6543289Y-4761026D01*
X-6534888Y-4755412D01*
X-6529274Y-4747011D01*
X-6527302Y-4737100D01*
Y-4203700D01*
X-6529274Y-4193789D01*
X-6534888Y-4185388D01*
X-6543289Y-4179774D01*
X-6553200Y-4177802D01*
X-6759880D01*
X-6763805Y-4177271D01*
X-6765266Y-4166174D01*
X-6763079Y-4164479D01*
X-6760715Y-4163845D01*
X-6742468Y-4158956D01*
X-6719232Y-4145540D01*
X-6700260Y-4126568D01*
X-6686844Y-4103332D01*
X-6679900Y-4077416D01*
Y-4050584D01*
X-6686844Y-4024668D01*
X-6700260Y-4001432D01*
X-6719232Y-3982460D01*
X-6742468Y-3969044D01*
X-6768384Y-3962100D01*
X-6795216D01*
X-6821132Y-3969044D01*
X-6844368Y-3982460D01*
X-6863340Y-4001432D01*
X-6870962Y-4014633D01*
X-7093730D01*
X-7428753Y-3679609D01*
Y-2722828D01*
X-7416053Y-2719876D01*
X-7398889Y-2737040D01*
X-7375311Y-2750653D01*
X-7349013Y-2757700D01*
X-7321787D01*
X-7295489Y-2750653D01*
X-7271911Y-2737040D01*
X-7252660Y-2717789D01*
X-7239047Y-2694211D01*
X-7232000Y-2667913D01*
Y-2640687D01*
X-7239047Y-2614389D01*
X-7252660Y-2590811D01*
X-7271911Y-2571559D01*
X-7295489Y-2557947D01*
X-7321787Y-2550900D01*
X-7349013D01*
X-7375311Y-2557947D01*
X-7398889Y-2571559D01*
X-7416053Y-2588724D01*
X-7428753Y-2585772D01*
Y-953590D01*
X-7307931Y-832768D01*
X-7299511Y-820166D01*
X-7296554Y-805300D01*
Y-210939D01*
X-7295489Y-210653D01*
X-7271911Y-197040D01*
X-7252660Y-177789D01*
X-7239047Y-154211D01*
X-7232000Y-127913D01*
Y-100687D01*
X-7239047Y-74389D01*
X-7252660Y-50811D01*
X-7271911Y-31559D01*
X-7295489Y-17947D01*
X-7321787Y-10900D01*
D02*
G37*
G36*
X-1556810Y-2633400D02*
X-1738410D01*
Y-2815000D01*
X-1556810D01*
Y-2633400D01*
D02*
G37*
G36*
X-1635656Y-2833400D02*
X-1659564D01*
X-1682657Y-2839588D01*
X-1703362Y-2851542D01*
X-1720268Y-2868447D01*
X-1732222Y-2889152D01*
X-1738410Y-2912246D01*
Y-2936154D01*
X-1732222Y-2959247D01*
X-1720268Y-2979952D01*
X-1703362Y-2996858D01*
X-1682657Y-3008812D01*
X-1659564Y-3015000D01*
X-1635656D01*
X-1612562Y-3008812D01*
X-1591857Y-2996858D01*
X-1574952Y-2979952D01*
X-1562998Y-2959247D01*
X-1556810Y-2936154D01*
Y-2912246D01*
X-1562998Y-2889152D01*
X-1574952Y-2868447D01*
X-1591857Y-2851542D01*
X-1612562Y-2839588D01*
X-1635656Y-2833400D01*
D02*
G37*
G36*
X-14492390Y-2901400D02*
X-14505299D01*
Y-3214100D01*
X-14192599D01*
Y-3201190D01*
X-14200612Y-3150602D01*
X-14216440Y-3101890D01*
X-14239693Y-3056253D01*
X-14269798Y-3014816D01*
X-14306017Y-2978599D01*
X-14347453Y-2948493D01*
X-14393089Y-2925240D01*
X-14441801Y-2909413D01*
X-14492390Y-2901400D01*
D02*
G37*
G36*
X-14530701D02*
X-14543610D01*
X-14594199Y-2909413D01*
X-14642909Y-2925240D01*
X-14688547Y-2948493D01*
X-14729984Y-2978599D01*
X-14766200Y-3014816D01*
X-14796307Y-3056253D01*
X-14819560Y-3101890D01*
X-14835387Y-3150602D01*
X-14843401Y-3201190D01*
Y-3214100D01*
X-14530701D01*
Y-2901400D01*
D02*
G37*
G36*
X-1635656Y-3033400D02*
X-1659564D01*
X-1682657Y-3039588D01*
X-1703362Y-3051542D01*
X-1720268Y-3068448D01*
X-1732222Y-3089153D01*
X-1738410Y-3112246D01*
Y-3136154D01*
X-1732222Y-3159247D01*
X-1720268Y-3179952D01*
X-1703362Y-3196858D01*
X-1682657Y-3208812D01*
X-1659564Y-3215000D01*
X-1635656D01*
X-1612562Y-3208812D01*
X-1591857Y-3196858D01*
X-1574952Y-3179952D01*
X-1562998Y-3159247D01*
X-1556810Y-3136154D01*
Y-3112246D01*
X-1562998Y-3089153D01*
X-1574952Y-3068448D01*
X-1591857Y-3051542D01*
X-1612562Y-3039588D01*
X-1635656Y-3033400D01*
D02*
G37*
G36*
X-1634910Y-3233600D02*
Y-3311499D01*
X-1557010D01*
X-1562998Y-3289152D01*
X-1574952Y-3268447D01*
X-1591857Y-3251542D01*
X-1612562Y-3239588D01*
X-1634910Y-3233600D01*
D02*
G37*
G36*
X-1660310D02*
X-1682657Y-3239588D01*
X-1703362Y-3251542D01*
X-1720268Y-3268447D01*
X-1732222Y-3289152D01*
X-1738210Y-3311499D01*
X-1660310D01*
Y-3233600D01*
D02*
G37*
G36*
X-1557010Y-3336899D02*
X-1634910D01*
Y-3414800D01*
X-1612562Y-3408812D01*
X-1591857Y-3396858D01*
X-1574952Y-3379952D01*
X-1562998Y-3359247D01*
X-1557010Y-3336899D01*
D02*
G37*
G36*
X-1660310D02*
X-1738210D01*
X-1732222Y-3359247D01*
X-1720268Y-3379952D01*
X-1703362Y-3396858D01*
X-1682657Y-3408812D01*
X-1660310Y-3414800D01*
Y-3336899D01*
D02*
G37*
G36*
X-14192599Y-3239500D02*
X-14505299D01*
Y-3552200D01*
X-14492390D01*
X-14441801Y-3544187D01*
X-14393089Y-3528360D01*
X-14347453Y-3505107D01*
X-14306017Y-3475001D01*
X-14269798Y-3438784D01*
X-14239693Y-3397347D01*
X-14216440Y-3351710D01*
X-14200612Y-3302998D01*
X-14192599Y-3252410D01*
Y-3239500D01*
D02*
G37*
G36*
X-14530701D02*
X-14843401D01*
Y-3252410D01*
X-14835387Y-3302998D01*
X-14819560Y-3351710D01*
X-14796307Y-3397347D01*
X-14766200Y-3438784D01*
X-14729984Y-3475001D01*
X-14688547Y-3505107D01*
X-14642909Y-3528360D01*
X-14594199Y-3544187D01*
X-14543610Y-3552200D01*
X-14530701D01*
Y-3239500D01*
D02*
G37*
G36*
X-8038384Y-3708100D02*
X-8039100D01*
Y-3797300D01*
X-7949900D01*
Y-3796584D01*
X-7956844Y-3770668D01*
X-7970260Y-3747432D01*
X-7989232Y-3728460D01*
X-8012468Y-3715044D01*
X-8038384Y-3708100D01*
D02*
G37*
G36*
X-8064500D02*
X-8065216D01*
X-8091132Y-3715044D01*
X-8114368Y-3728460D01*
X-8133340Y-3747432D01*
X-8146756Y-3770668D01*
X-8153700Y-3796584D01*
Y-3797300D01*
X-8064500D01*
Y-3708100D01*
D02*
G37*
G36*
X-7949900Y-3822700D02*
X-8039100D01*
Y-3911900D01*
X-8038384D01*
X-8012468Y-3904956D01*
X-7989232Y-3891540D01*
X-7970260Y-3872568D01*
X-7956844Y-3849332D01*
X-7949900Y-3823416D01*
Y-3822700D01*
D02*
G37*
G36*
X-8064500D02*
X-8153700D01*
Y-3823416D01*
X-8146756Y-3849332D01*
X-8133340Y-3872568D01*
X-8114368Y-3891540D01*
X-8091132Y-3904956D01*
X-8065216Y-3911900D01*
X-8064500D01*
Y-3822700D01*
D02*
G37*
G36*
X-8038384Y-3962100D02*
X-8065216D01*
X-8091132Y-3969044D01*
X-8114368Y-3982460D01*
X-8133340Y-4001432D01*
X-8146756Y-4024668D01*
X-8153700Y-4050584D01*
Y-4077416D01*
X-8146756Y-4103332D01*
X-8133340Y-4126568D01*
X-8114368Y-4145540D01*
X-8091132Y-4158956D01*
X-8065216Y-4165900D01*
X-8038384D01*
X-8012468Y-4158956D01*
X-7989232Y-4145540D01*
X-7970260Y-4126568D01*
X-7956844Y-4103332D01*
X-7949900Y-4077416D01*
Y-4050584D01*
X-7956844Y-4024668D01*
X-7970260Y-4001432D01*
X-7989232Y-3982460D01*
X-8012468Y-3969044D01*
X-8038384Y-3962100D01*
D02*
G37*
G36*
X-14192599Y-3621400D02*
X-14843401D01*
Y-4272200D01*
X-14192599D01*
Y-3621400D01*
D02*
G37*
G36*
X-102400Y-4107600D02*
X-415100D01*
Y-4420300D01*
X-102400D01*
Y-4107600D01*
D02*
G37*
G36*
X-440500D02*
X-753200D01*
Y-4420300D01*
X-440500D01*
Y-4107600D01*
D02*
G37*
G36*
X-102400Y-4445700D02*
X-415100D01*
Y-4758400D01*
X-102400D01*
Y-4445700D01*
D02*
G37*
G36*
X-440500D02*
X-753200D01*
Y-4758400D01*
X-440500D01*
Y-4445700D01*
D02*
G37*
G36*
X-6768384Y-4978100D02*
X-6795216D01*
X-6821132Y-4985044D01*
X-6844368Y-4998460D01*
X-6863340Y-5017432D01*
X-6876756Y-5040668D01*
X-6883700Y-5066584D01*
Y-5093416D01*
X-6876756Y-5119332D01*
X-6863340Y-5142568D01*
X-6844368Y-5161540D01*
X-6821132Y-5174956D01*
X-6795216Y-5181900D01*
X-6768384D01*
X-6742468Y-5174956D01*
X-6719232Y-5161540D01*
X-6700260Y-5142568D01*
X-6686844Y-5119332D01*
X-6679900Y-5093416D01*
Y-5066584D01*
X-6686844Y-5040668D01*
X-6700260Y-5017432D01*
X-6719232Y-4998460D01*
X-6742468Y-4985044D01*
X-6768384Y-4978100D01*
D02*
G37*
G36*
X-8038384Y-5232100D02*
X-8039100D01*
Y-5321300D01*
X-7949900D01*
Y-5320584D01*
X-7956844Y-5294668D01*
X-7970260Y-5271432D01*
X-7989232Y-5252460D01*
X-8012468Y-5239044D01*
X-8038384Y-5232100D01*
D02*
G37*
G36*
X-8064500D02*
X-8065216D01*
X-8091132Y-5239044D01*
X-8114368Y-5252460D01*
X-8133340Y-5271432D01*
X-8146756Y-5294668D01*
X-8153700Y-5320584D01*
Y-5321300D01*
X-8064500D01*
Y-5232100D01*
D02*
G37*
G36*
X-6768384D02*
X-6795216D01*
X-6821132Y-5239044D01*
X-6844368Y-5252460D01*
X-6863340Y-5271432D01*
X-6876756Y-5294668D01*
X-6883700Y-5320584D01*
Y-5347416D01*
X-6876756Y-5373332D01*
X-6863340Y-5396568D01*
X-6844368Y-5415540D01*
X-6821132Y-5428956D01*
X-6795216Y-5435900D01*
X-6768384D01*
X-6742468Y-5428956D01*
X-6719232Y-5415540D01*
X-6700260Y-5396568D01*
X-6686844Y-5373332D01*
X-6679900Y-5347416D01*
Y-5320584D01*
X-6686844Y-5294668D01*
X-6700260Y-5271432D01*
X-6719232Y-5252460D01*
X-6742468Y-5239044D01*
X-6768384Y-5232100D01*
D02*
G37*
G36*
X-7949900Y-5346700D02*
X-8039100D01*
Y-5435900D01*
X-8038384D01*
X-8012468Y-5428956D01*
X-7989232Y-5415540D01*
X-7970260Y-5396568D01*
X-7956844Y-5373332D01*
X-7949900Y-5347416D01*
Y-5346700D01*
D02*
G37*
G36*
X-8064500D02*
X-8153700D01*
Y-5347416D01*
X-8146756Y-5373332D01*
X-8133340Y-5396568D01*
X-8114368Y-5415540D01*
X-8091132Y-5428956D01*
X-8065216Y-5435900D01*
X-8064500D01*
Y-5346700D01*
D02*
G37*
G36*
X-6679900Y-5486100D02*
X-6883700D01*
Y-5689900D01*
X-6679900D01*
Y-5486100D01*
D02*
G37*
G36*
X-8038384D02*
X-8065216D01*
X-8091132Y-5493044D01*
X-8114368Y-5506460D01*
X-8133340Y-5525432D01*
X-8146756Y-5548668D01*
X-8153700Y-5574584D01*
Y-5601416D01*
X-8146756Y-5627332D01*
X-8133340Y-5650568D01*
X-8114368Y-5669540D01*
X-8091132Y-5682956D01*
X-8065216Y-5689900D01*
X-8038384D01*
X-8012468Y-5682956D01*
X-7989232Y-5669540D01*
X-7970260Y-5650568D01*
X-7956844Y-5627332D01*
X-7949900Y-5601416D01*
Y-5574584D01*
X-7956844Y-5548668D01*
X-7970260Y-5525432D01*
X-7989232Y-5506460D01*
X-8012468Y-5493044D01*
X-8038384Y-5486100D01*
D02*
G37*
G36*
X-4561900Y-5679300D02*
X-4810700D01*
Y-5928100D01*
X-4561900D01*
Y-5679300D01*
D02*
G37*
G36*
X-9702800Y-4191518D02*
X-9735536Y-4195828D01*
X-9766041Y-4208463D01*
X-9792236Y-4228564D01*
X-9792237Y-4228565D01*
X-10682291Y-5118618D01*
X-15049500D01*
X-15082236Y-5122928D01*
X-15112741Y-5135563D01*
X-15124648Y-5144700D01*
X-15137199D01*
Y-5154331D01*
X-15138936Y-5155664D01*
X-15159036Y-5181859D01*
X-15171672Y-5212364D01*
X-15175983Y-5245100D01*
X-15171672Y-5277836D01*
X-15159036Y-5308341D01*
X-15138936Y-5334536D01*
X-15137199Y-5335869D01*
Y-5345500D01*
X-15124649D01*
X-15112741Y-5354637D01*
X-15082236Y-5367272D01*
X-15080093Y-5367554D01*
X-15078377Y-5380590D01*
X-15100041Y-5389563D01*
X-15126236Y-5409664D01*
X-15146336Y-5435859D01*
X-15158972Y-5466364D01*
X-15163281Y-5499100D01*
X-15158972Y-5531836D01*
X-15146336Y-5562341D01*
X-15126236Y-5588536D01*
X-15100041Y-5608637D01*
X-15078377Y-5617610D01*
X-15080093Y-5630646D01*
X-15082236Y-5630928D01*
X-15112741Y-5643563D01*
X-15138936Y-5663664D01*
X-15159036Y-5689859D01*
X-15171672Y-5720364D01*
X-15175983Y-5753100D01*
X-15171672Y-5785836D01*
X-15159036Y-5816341D01*
X-15138936Y-5842536D01*
X-15112741Y-5862637D01*
X-15108855Y-5864247D01*
Y-5877993D01*
X-15125441Y-5884863D01*
X-15151636Y-5904964D01*
X-15171738Y-5931159D01*
X-15184372Y-5961664D01*
X-15188683Y-5994400D01*
X-15184372Y-6027136D01*
X-15171738Y-6057641D01*
X-15151636Y-6083836D01*
X-15144450Y-6089351D01*
X-15138936Y-6096536D01*
X-15112741Y-6116637D01*
X-15082236Y-6129272D01*
X-15049500Y-6133582D01*
X-15036800D01*
X-15004063Y-6129272D01*
X-14983807Y-6120882D01*
X-10422911D01*
X-10422909Y-6120882D01*
X-10390173Y-6116572D01*
X-10359668Y-6103937D01*
X-10333473Y-6083836D01*
X-9456119Y-5206482D01*
X-8051800D01*
X-8019064Y-5202172D01*
X-7988559Y-5189537D01*
X-7962364Y-5169436D01*
X-7942263Y-5143241D01*
X-7929628Y-5112736D01*
X-7925318Y-5080000D01*
X-7929628Y-5047264D01*
X-7942263Y-5016759D01*
X-7962364Y-4990564D01*
X-7988559Y-4970463D01*
X-8014126Y-4959873D01*
Y-4946127D01*
X-7988559Y-4935537D01*
X-7962364Y-4915436D01*
X-7942263Y-4889241D01*
X-7929628Y-4858736D01*
X-7925318Y-4826000D01*
X-7929628Y-4793264D01*
X-7942263Y-4762759D01*
X-7962364Y-4736564D01*
X-7988559Y-4716463D01*
X-8014126Y-4705873D01*
Y-4692127D01*
X-7988559Y-4681537D01*
X-7962364Y-4661436D01*
X-7942263Y-4635241D01*
X-7929628Y-4604736D01*
X-7925318Y-4572000D01*
X-7929628Y-4539264D01*
X-7942263Y-4508759D01*
X-7962364Y-4482564D01*
X-7988559Y-4462463D01*
X-8014126Y-4451873D01*
Y-4438127D01*
X-7988559Y-4427537D01*
X-7962364Y-4407436D01*
X-7942263Y-4381241D01*
X-7929628Y-4350736D01*
X-7925318Y-4318000D01*
X-7929628Y-4285264D01*
X-7942263Y-4254759D01*
X-7962364Y-4228564D01*
X-7988559Y-4208463D01*
X-8019064Y-4195828D01*
X-8051800Y-4191518D01*
X-9702798D01*
X-9702800Y-4191518D01*
D02*
G37*
G36*
X-7387722Y-6429000D02*
X-7420478D01*
X-7452117Y-6437478D01*
X-7480483Y-6453855D01*
X-7503645Y-6477017D01*
X-7520022Y-6505383D01*
X-7528500Y-6537022D01*
Y-6569778D01*
X-7520022Y-6601417D01*
X-7503645Y-6629783D01*
X-7480483Y-6652945D01*
X-7452117Y-6669322D01*
X-7420478Y-6677800D01*
X-7387722D01*
X-7356083Y-6669322D01*
X-7327717Y-6652945D01*
X-7304555Y-6629783D01*
X-7288178Y-6601417D01*
X-7279700Y-6569778D01*
Y-6537022D01*
X-7288178Y-6505383D01*
X-7304555Y-6477017D01*
X-7327717Y-6453855D01*
X-7356083Y-6437478D01*
X-7387722Y-6429000D01*
D02*
G37*
G36*
X-1582210Y-6684700D02*
X-1763810D01*
Y-6866300D01*
X-1582210D01*
Y-6684700D01*
D02*
G37*
G36*
X-1661056Y-6884700D02*
X-1684964D01*
X-1708057Y-6890888D01*
X-1728762Y-6902842D01*
X-1745668Y-6919747D01*
X-1757622Y-6940452D01*
X-1763810Y-6963546D01*
Y-6987454D01*
X-1757622Y-7010547D01*
X-1745668Y-7031252D01*
X-1728762Y-7048158D01*
X-1708057Y-7060112D01*
X-1684964Y-7066300D01*
X-1661056D01*
X-1637962Y-7060112D01*
X-1617257Y-7048158D01*
X-1600352Y-7031252D01*
X-1588398Y-7010547D01*
X-1582210Y-6987454D01*
Y-6963546D01*
X-1588398Y-6940452D01*
X-1600352Y-6919747D01*
X-1617257Y-6902842D01*
X-1637962Y-6890888D01*
X-1661056Y-6884700D01*
D02*
G37*
G36*
Y-7084700D02*
X-1684964D01*
X-1708057Y-7090888D01*
X-1728762Y-7102842D01*
X-1745668Y-7119748D01*
X-1757622Y-7140453D01*
X-1763810Y-7163546D01*
Y-7187454D01*
X-1757622Y-7210547D01*
X-1745668Y-7231252D01*
X-1728762Y-7248158D01*
X-1708057Y-7260112D01*
X-1684964Y-7266300D01*
X-1661056D01*
X-1637962Y-7260112D01*
X-1617257Y-7248158D01*
X-1600352Y-7231252D01*
X-1588398Y-7210547D01*
X-1582210Y-7187454D01*
Y-7163546D01*
X-1588398Y-7140453D01*
X-1600352Y-7119748D01*
X-1617257Y-7102842D01*
X-1637962Y-7090888D01*
X-1661056Y-7084700D01*
D02*
G37*
G36*
X-1660310Y-7284900D02*
Y-7362800D01*
X-1582410D01*
X-1588398Y-7340452D01*
X-1600352Y-7319747D01*
X-1617257Y-7302842D01*
X-1637962Y-7290888D01*
X-1660310Y-7284900D01*
D02*
G37*
G36*
X-1685710D02*
X-1708057Y-7290888D01*
X-1728762Y-7302842D01*
X-1745668Y-7319747D01*
X-1757622Y-7340452D01*
X-1763610Y-7362800D01*
X-1685710D01*
Y-7284900D01*
D02*
G37*
G36*
X-1582410Y-7388200D02*
X-1660310D01*
Y-7466100D01*
X-1637962Y-7460112D01*
X-1617257Y-7448158D01*
X-1600352Y-7431252D01*
X-1588398Y-7410547D01*
X-1582410Y-7388200D01*
D02*
G37*
G36*
X-1685710D02*
X-1763610D01*
X-1757622Y-7410547D01*
X-1745668Y-7431252D01*
X-1728762Y-7448158D01*
X-1708057Y-7460112D01*
X-1685710Y-7466100D01*
Y-7388200D01*
D02*
G37*
G36*
X-9706900Y-7481100D02*
X-10357700D01*
Y-8131900D01*
X-9706900D01*
Y-7481100D01*
D02*
G37*
G36*
X-12476900D02*
X-13127699D01*
Y-8131900D01*
X-12476900D01*
Y-7481100D01*
D02*
G37*
G36*
X-102400Y-8235100D02*
X-415100D01*
Y-8547800D01*
X-102400D01*
Y-8235100D01*
D02*
G37*
G36*
X-440500D02*
X-753200D01*
Y-8547800D01*
X-440500D01*
Y-8235100D01*
D02*
G37*
G36*
X-7279700Y-8613000D02*
X-7528500D01*
Y-8861800D01*
X-7279700D01*
Y-8613000D01*
D02*
G37*
G36*
X-102400Y-8573200D02*
X-415100D01*
Y-8885900D01*
X-102400D01*
Y-8573200D01*
D02*
G37*
G36*
X-440500D02*
X-753200D01*
Y-8885900D01*
X-440500D01*
Y-8573200D01*
D02*
G37*
G36*
X-3496901Y-8664200D02*
X-3509810D01*
X-3560398Y-8672213D01*
X-3609110Y-8688040D01*
X-3654747Y-8711293D01*
X-3696184Y-8741399D01*
X-3732401Y-8777616D01*
X-3762507Y-8819053D01*
X-3785760Y-8864690D01*
X-3801588Y-8913402D01*
X-3809600Y-8963990D01*
Y-8976900D01*
X-3496901D01*
Y-8664200D01*
D02*
G37*
G36*
X-11110995Y-9048800D02*
X-11139405D01*
X-11166848Y-9056153D01*
X-11191452Y-9070359D01*
X-11211541Y-9090448D01*
X-11225747Y-9115052D01*
X-11233100Y-9142495D01*
Y-9170905D01*
X-11225747Y-9198348D01*
X-11211541Y-9222952D01*
X-11191452Y-9243041D01*
X-11166848Y-9257247D01*
X-11139405Y-9264600D01*
X-11110995D01*
X-11083552Y-9257247D01*
X-11058948Y-9243041D01*
X-11038859Y-9222952D01*
X-11024653Y-9198348D01*
X-11017300Y-9170905D01*
Y-9142495D01*
X-11024653Y-9115052D01*
X-11038859Y-9090448D01*
X-11058948Y-9070359D01*
X-11083552Y-9056153D01*
X-11110995Y-9048800D01*
D02*
G37*
G36*
X-11525300D02*
X-11741100D01*
Y-9264600D01*
X-11525300D01*
Y-9048800D01*
D02*
G37*
G36*
X-3496901Y-9002300D02*
X-3809600D01*
Y-9015210D01*
X-3801588Y-9065798D01*
X-3785760Y-9114510D01*
X-3762507Y-9160147D01*
X-3732401Y-9201584D01*
X-3696184Y-9237801D01*
X-3654747Y-9267907D01*
X-3609110Y-9291160D01*
X-3560398Y-9306987D01*
X-3509810Y-9315000D01*
X-3496901D01*
Y-9002300D01*
D02*
G37*
G36*
X-14940718Y-8853600D02*
X-14996481D01*
X-15051768Y-8860879D01*
X-15105634Y-8875311D01*
X-15157153Y-8896651D01*
X-15205447Y-8924534D01*
X-15249689Y-8958481D01*
X-15289119Y-8997912D01*
X-15323067Y-9042153D01*
X-15350948Y-9090447D01*
X-15372289Y-9141966D01*
X-15386720Y-9195830D01*
X-15394000Y-9251118D01*
Y-9306882D01*
X-15386720Y-9362169D01*
X-15372289Y-9416034D01*
X-15350948Y-9467553D01*
X-15323067Y-9515847D01*
X-15289119Y-9560088D01*
X-15249689Y-9599519D01*
X-15205447Y-9633466D01*
X-15157153Y-9661348D01*
X-15105634Y-9682689D01*
X-15051768Y-9697121D01*
X-14996481Y-9704400D01*
X-14940718D01*
X-14885429Y-9697121D01*
X-14831566Y-9682689D01*
X-14780048Y-9661348D01*
X-14731754Y-9633466D01*
X-14687512Y-9599519D01*
X-14648080Y-9560088D01*
X-14614134Y-9515847D01*
X-14586250Y-9467553D01*
X-14564911Y-9416034D01*
X-14550479Y-9362169D01*
X-14543201Y-9306882D01*
Y-9251118D01*
X-14550479Y-9195830D01*
X-14564911Y-9141966D01*
X-14586250Y-9090447D01*
X-14614134Y-9042153D01*
X-14648080Y-8997912D01*
X-14687512Y-8958481D01*
X-14731754Y-8924534D01*
X-14780048Y-8896651D01*
X-14831566Y-8875311D01*
X-14885429Y-8860879D01*
X-14940718Y-8853600D01*
D02*
G37*
%LPD*%
G36*
X-3571178Y2966900D02*
X-3571178Y2959100D01*
Y2879300D01*
X-3470878D01*
Y2853900D01*
X-3571178D01*
Y2768600D01*
X-3571178Y2766300D01*
X-3576730Y2755900D01*
X-3619500D01*
Y2246700D01*
X-3630400D01*
Y2045900D01*
X-3619500D01*
Y558800D01*
X-3848676D01*
X-3852079Y571500D01*
X-3837253Y580060D01*
X-3818560Y598753D01*
X-3805342Y621647D01*
X-3798500Y647182D01*
Y647700D01*
X-3999300D01*
Y647182D01*
X-3992458Y621647D01*
X-3979240Y598753D01*
X-3960547Y580060D01*
X-3945721Y571500D01*
X-3949124Y558800D01*
X-4013200D01*
Y2971800D01*
X-3581848D01*
X-3571178Y2966900D01*
D02*
G37*
%LPC*%
G36*
X-3885682Y760800D02*
X-3886200D01*
Y673100D01*
X-3798500D01*
Y673618D01*
X-3805342Y699153D01*
X-3818560Y722047D01*
X-3837253Y740740D01*
X-3860147Y753958D01*
X-3885682Y760800D01*
D02*
G37*
G36*
X-3911600D02*
X-3912118D01*
X-3937653Y753958D01*
X-3960547Y740740D01*
X-3979240Y722047D01*
X-3992458Y699153D01*
X-3999300Y673618D01*
Y673100D01*
X-3911600D01*
Y760800D01*
D02*
G37*
%LPD*%
G36*
X-2870200Y-4114800D02*
X-5194300D01*
Y-3505200D01*
Y-3492500D01*
X-4738893D01*
X-4738366Y-3493799D01*
X-4736780Y-3505200D01*
X-4762683Y-3520155D01*
X-4785845Y-3543317D01*
X-4802222Y-3571683D01*
X-4810700Y-3603322D01*
Y-3607000D01*
X-4686300D01*
X-4561900D01*
Y-3603322D01*
X-4570378Y-3571683D01*
X-4586755Y-3543317D01*
X-4609917Y-3520155D01*
X-4635820Y-3505200D01*
X-4634234Y-3493799D01*
X-4633707Y-3492500D01*
X-3162300D01*
Y-2501900D01*
X-2870200D01*
X-2870200Y-4114800D01*
D02*
G37*
%LPC*%
G36*
X-3003787Y-2550900D02*
X-3004700D01*
Y-2641600D01*
X-2914000D01*
Y-2640687D01*
X-2921047Y-2614389D01*
X-2934660Y-2590811D01*
X-2953911Y-2571559D01*
X-2977489Y-2557947D01*
X-3003787Y-2550900D01*
D02*
G37*
G36*
X-3030100D02*
X-3031013D01*
X-3057311Y-2557947D01*
X-3080889Y-2571559D01*
X-3100141Y-2590811D01*
X-3113753Y-2614389D01*
X-3120800Y-2640687D01*
Y-2641600D01*
X-3030100D01*
Y-2550900D01*
D02*
G37*
G36*
X-2914000Y-2667000D02*
X-3004700D01*
Y-2757700D01*
X-3003787D01*
X-2977489Y-2750653D01*
X-2953911Y-2737040D01*
X-2934660Y-2717789D01*
X-2921047Y-2694211D01*
X-2914000Y-2667913D01*
Y-2667000D01*
D02*
G37*
G36*
X-3030100D02*
X-3120800D01*
Y-2667913D01*
X-3113753Y-2694211D01*
X-3100141Y-2717789D01*
X-3080889Y-2737040D01*
X-3057311Y-2750653D01*
X-3031013Y-2757700D01*
X-3030100D01*
Y-2667000D01*
D02*
G37*
G36*
X-4561900Y-3632400D02*
X-4673600D01*
Y-3744100D01*
X-4669922D01*
X-4638283Y-3735622D01*
X-4609917Y-3719245D01*
X-4586755Y-3696083D01*
X-4570378Y-3667717D01*
X-4561900Y-3636078D01*
Y-3632400D01*
D02*
G37*
G36*
X-4699000D02*
X-4810700D01*
Y-3636078D01*
X-4802222Y-3667717D01*
X-4785845Y-3696083D01*
X-4762683Y-3719245D01*
X-4734317Y-3735622D01*
X-4702678Y-3744100D01*
X-4699000D01*
Y-3632400D01*
D02*
G37*
%LPD*%
G36*
X-6553200Y-4737100D02*
X-6731979D01*
X-6742468Y-4731044D01*
X-6768384Y-4724100D01*
X-6795216D01*
X-6821132Y-4731044D01*
X-6831621Y-4737100D01*
X-6946900D01*
Y-4203700D01*
X-6795940D01*
X-6795216Y-4216100D01*
X-6821132Y-4223044D01*
X-6844368Y-4236460D01*
X-6863340Y-4255432D01*
X-6876756Y-4278668D01*
X-6883700Y-4304584D01*
Y-4305300D01*
X-6781800D01*
X-6679900D01*
Y-4304584D01*
X-6686844Y-4278668D01*
X-6700260Y-4255432D01*
X-6719232Y-4236460D01*
X-6742468Y-4223044D01*
X-6768384Y-4216100D01*
X-6767660Y-4203700D01*
X-6553200D01*
Y-4737100D01*
D02*
G37*
%LPC*%
G36*
X-6679900Y-4330700D02*
X-6781800D01*
X-6883700D01*
Y-4331416D01*
X-6876756Y-4357332D01*
X-6863340Y-4380568D01*
X-6844368Y-4399540D01*
X-6821132Y-4412956D01*
X-6820647Y-4413086D01*
Y-4476914D01*
X-6821132Y-4477044D01*
X-6844368Y-4490460D01*
X-6863340Y-4509432D01*
X-6876756Y-4532668D01*
X-6883700Y-4558584D01*
Y-4559300D01*
X-6781800D01*
X-6679900D01*
Y-4558584D01*
X-6686844Y-4532668D01*
X-6700260Y-4509432D01*
X-6719232Y-4490460D01*
X-6742468Y-4477044D01*
X-6742953Y-4476914D01*
Y-4413086D01*
X-6742468Y-4412956D01*
X-6719232Y-4399540D01*
X-6700260Y-4380568D01*
X-6686844Y-4357332D01*
X-6679900Y-4331416D01*
Y-4330700D01*
D02*
G37*
G36*
Y-4584700D02*
X-6769100D01*
Y-4673900D01*
X-6768384D01*
X-6742468Y-4666956D01*
X-6719232Y-4653540D01*
X-6700260Y-4634568D01*
X-6686844Y-4611332D01*
X-6679900Y-4585416D01*
Y-4584700D01*
D02*
G37*
G36*
X-6794500D02*
X-6883700D01*
Y-4585416D01*
X-6876756Y-4611332D01*
X-6863340Y-4634568D01*
X-6844368Y-4653540D01*
X-6821132Y-4666956D01*
X-6795216Y-4673900D01*
X-6794500D01*
Y-4584700D01*
D02*
G37*
G36*
X6515100Y-3702100D02*
X6513595D01*
X6486152Y-3709453D01*
X6461548Y-3723659D01*
X6441459Y-3743748D01*
X6427253Y-3768352D01*
X6419900Y-3795795D01*
Y-3797300D01*
X6515100D01*
Y-3702100D01*
D02*
G37*
G36*
Y-3822700D02*
X6419900D01*
Y-3824205D01*
X6427253Y-3851648D01*
X6441459Y-3876252D01*
X6461548Y-3896341D01*
X6486152Y-3910547D01*
X6513595Y-3917900D01*
X6515100D01*
Y-3822700D01*
D02*
G37*
G36*
X5477600Y-4107600D02*
X5164901D01*
Y-4420299D01*
X5477600D01*
Y-4107600D01*
D02*
G37*
G36*
X5139501D02*
X4826800D01*
Y-4420299D01*
X5139501D01*
Y-4107600D01*
D02*
G37*
G36*
X5477600Y-4445699D02*
X5164901D01*
Y-4758400D01*
X5477600D01*
Y-4445699D01*
D02*
G37*
G36*
X5139501D02*
X4826800D01*
Y-4758400D01*
X5139501D01*
Y-4445699D01*
D02*
G37*
G36*
X5477600Y-1337600D02*
X5164901D01*
Y-1650299D01*
X5477600D01*
Y-1337600D01*
D02*
G37*
G36*
X5139501D02*
X4826800D01*
Y-1650299D01*
X5139501D01*
Y-1337600D01*
D02*
G37*
G36*
X5477600Y-1675699D02*
X5164901D01*
Y-1988400D01*
X5477600D01*
Y-1675699D01*
D02*
G37*
G36*
X5139501D02*
X4826800D01*
Y-1988400D01*
X5139501D01*
Y-1675699D01*
D02*
G37*
G36*
X6635700Y-4210100D02*
X6540500D01*
Y-4305300D01*
X6635700D01*
Y-4210100D01*
D02*
G37*
G36*
X6515100D02*
X6419900D01*
Y-4305300D01*
X6515100D01*
Y-4210100D01*
D02*
G37*
G36*
X6635700Y-4330700D02*
X6540500D01*
Y-4425900D01*
X6635700D01*
Y-4330700D01*
D02*
G37*
G36*
X6515100D02*
X6419900D01*
Y-4425900D01*
X6515100D01*
Y-4330700D01*
D02*
G37*
G36*
Y-7181900D02*
X6513595D01*
X6486152Y-7189253D01*
X6461548Y-7203459D01*
X6441459Y-7223548D01*
X6427253Y-7248152D01*
X6419900Y-7275595D01*
Y-7277100D01*
X6515100D01*
Y-7181900D01*
D02*
G37*
G36*
Y-7302500D02*
X6419900D01*
Y-7304005D01*
X6427253Y-7331448D01*
X6441459Y-7356052D01*
X6461548Y-7376141D01*
X6486152Y-7390347D01*
X6513595Y-7397700D01*
X6515100D01*
Y-7302500D01*
D02*
G37*
G36*
X5477600Y-8235100D02*
X5164901D01*
Y-8547799D01*
X5477600D01*
Y-8235100D01*
D02*
G37*
G36*
X5139501D02*
X4826800D01*
Y-8547799D01*
X5139501D01*
Y-8235100D01*
D02*
G37*
G36*
X5477600Y-8573199D02*
X5164901D01*
Y-8885900D01*
X5477600D01*
Y-8573199D01*
D02*
G37*
G36*
X5139501D02*
X4826800D01*
Y-8885900D01*
X5139501D01*
Y-8573199D01*
D02*
G37*
G36*
X5477600Y-5465100D02*
X5164901D01*
Y-5777799D01*
X5477600D01*
Y-5465100D01*
D02*
G37*
G36*
X5139501D02*
X4826800D01*
Y-5777799D01*
X5139501D01*
Y-5465100D01*
D02*
G37*
G36*
X5477600Y-5803199D02*
X5164901D01*
Y-6115900D01*
X5477600D01*
Y-5803199D01*
D02*
G37*
G36*
X5139501D02*
X4826800D01*
Y-6115900D01*
X5139501D01*
Y-5803199D01*
D02*
G37*
G36*
X6635700Y-7689900D02*
X6540500D01*
Y-7785100D01*
X6635700D01*
Y-7689900D01*
D02*
G37*
G36*
X6515100D02*
X6419900D01*
Y-7785100D01*
X6515100D01*
Y-7689900D01*
D02*
G37*
G36*
X6635700Y-7810500D02*
X6540500D01*
Y-7905700D01*
X6635700D01*
Y-7810500D01*
D02*
G37*
G36*
X6515100D02*
X6419900D01*
Y-7905700D01*
X6515100D01*
Y-7810500D01*
D02*
G37*
G36*
X-102400Y-1337600D02*
X-415100D01*
Y-1650300D01*
X-102400D01*
Y-1337600D01*
D02*
G37*
G36*
X-440500D02*
X-753200D01*
Y-1650300D01*
X-440500D01*
Y-1337600D01*
D02*
G37*
G36*
X-102400Y-1675700D02*
X-415100D01*
Y-1988400D01*
X-102400D01*
Y-1675700D01*
D02*
G37*
G36*
X-440500D02*
X-753200D01*
Y-1988400D01*
X-440500D01*
Y-1675700D01*
D02*
G37*
G36*
X-102400Y-5465100D02*
X-415100D01*
Y-5777800D01*
X-102400D01*
Y-5465100D01*
D02*
G37*
G36*
X-440500D02*
X-753200D01*
Y-5777800D01*
X-440500D01*
Y-5465100D01*
D02*
G37*
G36*
X-102400Y-5803200D02*
X-415100D01*
Y-6115900D01*
X-102400D01*
Y-5803200D01*
D02*
G37*
G36*
X-440500D02*
X-753200D01*
Y-6115900D01*
X-440500D01*
Y-5803200D01*
D02*
G37*
G36*
X-2438800Y-8664200D02*
X-2751499D01*
Y-8976900D01*
X-2438800D01*
Y-8664200D01*
D02*
G37*
G36*
X-2776899D02*
X-3089600D01*
Y-8976900D01*
X-2776899D01*
Y-8664200D01*
D02*
G37*
G36*
X-2438800Y-9002300D02*
X-2751499D01*
Y-9315000D01*
X-2438800D01*
Y-9002300D01*
D02*
G37*
G36*
X-2776899D02*
X-3089600D01*
Y-9315000D01*
X-2776899D01*
Y-9002300D01*
D02*
G37*
%LPD*%
D10*
X-3860800Y-1028700D02*
X1701800D01*
X3596279Y865779D02*
Y1280521D01*
X1701800Y-1028700D02*
X3596279Y865779D01*
Y1280521D02*
X4024058Y1708300D01*
X5073200D01*
X-6781800Y-4559300D02*
X-6769100Y-4572000D01*
X-6781800Y-4559300D02*
Y-4318000D01*
X-7467600Y-937500D02*
X-7335400Y-805300D01*
X-7467600Y-3695700D02*
X-7109821Y-4053479D01*
X-7467600Y-3695700D02*
Y-937500D01*
X-7109821Y-4053479D02*
X-6783979D01*
X-6781800Y-3810000D02*
X-6438900D01*
X-5930900Y-3302000D01*
Y-1587500D01*
X-6769100Y-4076700D02*
X-6756400Y-4064000D01*
X-7335400Y-805300D02*
Y-114300D01*
X-7081400Y-437000D02*
X-5930900Y-1587500D01*
X-7081400Y-437000D02*
Y-114300D01*
X5073200Y1708300D02*
X5485800Y2120900D01*
X5499100D01*
X-4541400Y-1709300D02*
X-3860800Y-1028700D01*
X-4541400Y-2654300D02*
Y-1709300D01*
D22*
X4365700Y4762900D02*
D03*
X5565700D02*
D03*
Y3542900D02*
D03*
X-3762300Y4762900D02*
D03*
X-2562300D02*
D03*
Y3542900D02*
D03*
X-5794300Y4762900D02*
D03*
X-4594300D02*
D03*
Y3542900D02*
D03*
X-10690300D02*
D03*
Y4762900D02*
D03*
X-11890300D02*
D03*
X-4686300Y-3619700D02*
D03*
X3533700Y3542900D02*
D03*
Y4762900D02*
D03*
X2333700D02*
D03*
X-530300Y3542900D02*
D03*
Y4762900D02*
D03*
X-1730300D02*
D03*
X1501700Y3542900D02*
D03*
Y4762900D02*
D03*
X301700D02*
D03*
X-13922301D02*
D03*
X-12722300D02*
D03*
Y3542900D02*
D03*
X-8658300D02*
D03*
Y4762900D02*
D03*
X-9858300D02*
D03*
X-6626300Y3542900D02*
D03*
Y4762900D02*
D03*
X-7826300D02*
D03*
X-7404100Y-6553400D02*
D03*
D23*
X4965700Y3342900D02*
D03*
X-3162300D02*
D03*
X-5194300D02*
D03*
X-11290300D02*
D03*
X2933700D02*
D03*
X-1130300D02*
D03*
X901700D02*
D03*
X-13322301D02*
D03*
X-9258300D02*
D03*
X-7226300D02*
D03*
D24*
X4365700Y3542900D02*
D03*
X-3762300D02*
D03*
X-5794300D02*
D03*
X-11890300D02*
D03*
X-4686300Y-5803700D02*
D03*
X2333700Y3542900D02*
D03*
X-1730300D02*
D03*
X301700D02*
D03*
X-13922301D02*
D03*
X-9858300D02*
D03*
X-7826300D02*
D03*
X-7404100Y-8737400D02*
D03*
D25*
X-6990966Y2866600D02*
D03*
Y2416600D02*
D03*
X-7640966D02*
D03*
X2784255D02*
D03*
X3434255D02*
D03*
Y2866600D02*
D03*
X699210Y2416600D02*
D03*
X1349211D02*
D03*
Y2866600D02*
D03*
X-1385834Y2416600D02*
D03*
X-735833D02*
D03*
Y2866600D02*
D03*
X-2820878D02*
D03*
Y2416600D02*
D03*
X-3470878D02*
D03*
X-4905922Y2866600D02*
D03*
Y2416600D02*
D03*
X-5555922D02*
D03*
X-9726010D02*
D03*
X-9076010D02*
D03*
Y2866600D02*
D03*
X-11161054D02*
D03*
Y2416600D02*
D03*
X-11811054D02*
D03*
X-13896098D02*
D03*
X-13246098D02*
D03*
Y2866600D02*
D03*
X5519299D02*
D03*
Y2416600D02*
D03*
X4869299D02*
D03*
D26*
X-7640966Y2866600D02*
D03*
X2784255D02*
D03*
X699210D02*
D03*
X-1385834D02*
D03*
X-3470878D02*
D03*
X-5555922D02*
D03*
X-9726010D02*
D03*
X-11811054D02*
D03*
X-13896098D02*
D03*
X4869299D02*
D03*
D27*
X-14968600Y-9279000D02*
D03*
Y5697600D02*
D03*
X6675500Y-9279000D02*
D03*
Y5697600D02*
D03*
D28*
X1485900Y-584200D02*
D03*
Y177800D02*
D03*
X-3187700Y1612900D02*
D03*
X-2927700D02*
D03*
X-13589000Y1562100D02*
D03*
X-13328999D02*
D03*
X-11480800Y1611925D02*
D03*
X-11220800D02*
D03*
X-9423400Y1600200D02*
D03*
X-9163400D02*
D03*
X-7340600Y1612900D02*
D03*
X-7080600D02*
D03*
X-1079500Y1600200D02*
D03*
X-819500D02*
D03*
X5207000D02*
D03*
X5467000D02*
D03*
X-5219700D02*
D03*
X-4959700D02*
D03*
X977900Y1562100D02*
D03*
X1237900D02*
D03*
X3187700D02*
D03*
X3447700D02*
D03*
D29*
X-6184900Y660400D02*
D03*
X2718400Y2146300D02*
D03*
X635600D02*
D03*
X-13944000D02*
D03*
X-11861200D02*
D03*
X-1447200D02*
D03*
X-3530000D02*
D03*
X-5612800D02*
D03*
X-7695600D02*
D03*
X-9778400D02*
D03*
X4801200D02*
D03*
D30*
X-5930900Y660400D02*
D03*
X-5676900D02*
D03*
X-5422900D02*
D03*
X-5168900D02*
D03*
X-4914900D02*
D03*
X-4660900D02*
D03*
X-4406900D02*
D03*
X-4152900D02*
D03*
X-3898900D02*
D03*
X2300000Y-254000D02*
D03*
X3428400Y2146300D02*
D03*
X1345600D02*
D03*
X-13234000D02*
D03*
X-11151200D02*
D03*
X-737200D02*
D03*
X-2820000D02*
D03*
X-4902800D02*
D03*
X-6985600D02*
D03*
X-9068400D02*
D03*
X5511200D02*
D03*
X0Y-508000D02*
D03*
Y-254000D02*
D03*
Y0D02*
D03*
X-15036800Y-6007100D02*
D03*
Y-5753100D02*
D03*
Y-5499100D02*
D03*
D31*
X-6781800Y-5588000D02*
D03*
D32*
Y-5334000D02*
D03*
Y-5080000D02*
D03*
Y-4826000D02*
D03*
Y-4572000D02*
D03*
Y-4318000D02*
D03*
Y-4064000D02*
D03*
Y-3810000D02*
D03*
X-8051800D02*
D03*
Y-4064000D02*
D03*
Y-4318000D02*
D03*
Y-4572000D02*
D03*
Y-4826000D02*
D03*
Y-5080000D02*
D03*
Y-5334000D02*
D03*
Y-5588000D02*
D03*
D33*
X2300000Y0D02*
D03*
X0Y254000D02*
D03*
X-15036800Y-5245100D02*
D03*
D34*
X6565900Y-419100D02*
D03*
D35*
Y-165100D02*
D03*
Y88900D02*
D03*
D36*
X5333999Y5689600D02*
D03*
X3275817D02*
D03*
X1217635D02*
D03*
X-11633200Y-9156700D02*
D03*
X-13189639Y5689600D02*
D03*
X-11131458D02*
D03*
X-9073275D02*
D03*
X-7015093D02*
D03*
X-4956911D02*
D03*
X-2898729D02*
D03*
X-840547D02*
D03*
D37*
X4825999D02*
D03*
X2767817D02*
D03*
X709635D02*
D03*
X-14935201Y-647700D02*
D03*
X-11125200Y-9156700D02*
D03*
X-13697639Y5689600D02*
D03*
X-11639458D02*
D03*
X-9581275D02*
D03*
X-7523093D02*
D03*
X-5464911D02*
D03*
X-3406729D02*
D03*
X-1348547D02*
D03*
X6527800Y-7289800D02*
D03*
X-14947900Y533400D02*
D03*
X6527800Y-3810000D02*
D03*
D38*
X-11728400Y-1032090D02*
D03*
X-11528400D02*
D03*
X-11328400D02*
D03*
X-1673010Y-6975500D02*
D03*
Y-7175500D02*
D03*
Y-7375500D02*
D03*
X-1647610Y-2924200D02*
D03*
Y-3124200D02*
D03*
Y-3324200D02*
D03*
D39*
X-11128400Y-1032090D02*
D03*
D40*
X-14935201Y-139700D02*
D03*
X6527800Y-7797800D02*
D03*
X-14947900Y1041400D02*
D03*
X6527800Y-4318000D02*
D03*
D41*
X-14517999Y-3226800D02*
D03*
X-3484200Y-8989600D02*
D03*
D42*
X-14517999Y-3946800D02*
D03*
X-427800Y-8560500D02*
D03*
Y-5790500D02*
D03*
X5152200Y-8560500D02*
D03*
Y-5790500D02*
D03*
X-427800Y-4433000D02*
D03*
Y-1663000D02*
D03*
X5152200Y-4433000D02*
D03*
Y-1663000D02*
D03*
D43*
X-3447700Y1612900D02*
D03*
X-13849001Y1562100D02*
D03*
X-11740800Y1611925D02*
D03*
X-9683400Y1600200D02*
D03*
X-7600600Y1612900D02*
D03*
X-1339500Y1600200D02*
D03*
X4947000D02*
D03*
X-5479700D02*
D03*
X717900Y1562100D02*
D03*
X2927700D02*
D03*
D44*
X-2764200Y-8989600D02*
D03*
X-12802299Y-2226500D02*
D03*
X-10032300D02*
D03*
X-12802299Y-7806500D02*
D03*
X-10032300D02*
D03*
D45*
X-7589400Y-2654300D02*
D03*
D46*
X-7335400D02*
D03*
X-3017400D02*
D03*
X-7081400D02*
D03*
X-6827400D02*
D03*
X-6573400D02*
D03*
X-6319400D02*
D03*
X-6065400D02*
D03*
X-5811400D02*
D03*
X-5557400D02*
D03*
X-5303400D02*
D03*
X-5049400D02*
D03*
X-4795400D02*
D03*
X-4541400D02*
D03*
X-4287400D02*
D03*
X-4033400D02*
D03*
X-3779400D02*
D03*
X-3525400D02*
D03*
X-3271400D02*
D03*
X-7589400Y-114300D02*
D03*
X-7335400D02*
D03*
X-7081400D02*
D03*
X-6827400D02*
D03*
X-6573400D02*
D03*
X-6319400D02*
D03*
X-6065400D02*
D03*
X-5811400D02*
D03*
X-5557400D02*
D03*
X-5303400D02*
D03*
X-5049400D02*
D03*
X-4795400D02*
D03*
X-4541400D02*
D03*
X-4287400D02*
D03*
X-4033400D02*
D03*
X-3779400D02*
D03*
X-3525400D02*
D03*
X-3271400D02*
D03*
X-3017400D02*
D03*
D47*
X-1673010Y-6775500D02*
D03*
X-1647610Y-2724200D02*
D03*
D48*
X3668712Y660400D02*
D03*
X7023100D02*
D03*
X4965699Y-787400D02*
D03*
X6286498D02*
D03*
X7023100Y-63500D02*
D03*
Y-787400D02*
D03*
X5626098D02*
D03*
X4305299D02*
D03*
X3644899D02*
D03*
X2984499D02*
D03*
X2324100D02*
D03*
X6342061Y660400D02*
D03*
X5673723D02*
D03*
X5005386D02*
D03*
X4337049D02*
D03*
X2332037D02*
D03*
X1663700D02*
D03*
D49*
X-15062199Y-5994400D02*
X-10422909D01*
X-9508509Y-5080000D01*
X-8051800D01*
X-15036800Y-5753100D02*
X-10500373D01*
X-9573273Y-4826000D01*
X-8051800D01*
X-15049500Y-6007100D02*
X-15036800D01*
X-15049500Y-5753100D02*
X-15036800D01*
Y-5499100D02*
X-10565136D01*
X-9638036Y-4572000D01*
X-15036800Y-5245100D02*
X-10629900D01*
X-15049500D02*
X-15036800D01*
X-10629900D02*
X-9702800Y-4318000D01*
X-8051800D01*
X-9638036Y-4572000D02*
X-8051800D01*
%TF.MD5,1cb9f51f4735e94c59d3363b5738b495*%
M02*
