%TF.GenerationSoftware,Altium Limited,Altium Designer,22.1.2 (22)*%
G04 Layer_Color=16711935*
%FSLAX45Y45*%
%MOMM*%
%TF.SameCoordinates,97720CCC-B93B-4F85-99AC-C394CD96EF65*%
%TF.FilePolarity,Positive*%
%TF.FileFunction,Other,Mechanical_1*%
%TF.Part,Single*%
G01*
G75*
%TA.AperFunction,NonConductor*%
%ADD92C,0.10000*%
D92*
X-1674360Y-7894000D02*
Y-7854000D01*
X-1694360Y-7874000D02*
X-1654360D01*
X-1623560Y-3893500D02*
Y-3853500D01*
X-1643560Y-3873500D02*
X-1603560D01*
X-1694360Y-6273800D02*
X-1654360D01*
X-1674360Y-6293800D02*
Y-6253800D01*
X-5511800Y-5519100D02*
Y-5479100D01*
X-5531800Y-5499100D02*
X-5491800D01*
X-1648960Y-2191700D02*
Y-2151700D01*
X-1668960Y-2171700D02*
X-1628960D01*
X-12407900Y-1050740D02*
Y-1010740D01*
X-12427900Y-1030740D02*
X-12387900D01*
X-10388600Y-1050740D02*
Y-1010740D01*
X-10408600Y-1030740D02*
X-10368600D01*
X1986600Y2832100D02*
X2026600D01*
X2006600Y2812100D02*
Y2852100D01*
X-185100Y2755900D02*
X-145100D01*
X-165100Y2735900D02*
Y2775900D01*
X4059500Y2133600D02*
X4099500D01*
X4079500Y2113600D02*
Y2153600D01*
X-8533326Y-6985000D02*
X-8493326D01*
X-8513326Y-7005000D02*
Y-6965000D01*
X6177600Y2362200D02*
X6217600D01*
X6197600Y2342200D02*
Y2382200D01*
X6177600Y2781300D02*
X6217600D01*
X6197600Y2761300D02*
Y2801300D01*
X-12700000Y2100900D02*
Y2140900D01*
X-12720000Y2120900D02*
X-12680000D01*
X-8547100Y2088200D02*
Y2128200D01*
X-8567100Y2108200D02*
X-8527100D01*
X-203200Y2189800D02*
Y2229800D01*
X-223200Y2209800D02*
X-183200D01*
X-10553700Y2113600D02*
Y2153600D01*
X-10573700Y2133600D02*
X-10533700D01*
X1943100Y2227900D02*
Y2267900D01*
X1923100Y2247900D02*
X1963100D01*
X-6350000Y2139000D02*
Y2179000D01*
X-6370000Y2159000D02*
X-6330000D01*
X-4381500Y2164400D02*
Y2204400D01*
X-4401500Y2184400D02*
X-4361500D01*
X-2159000Y2164400D02*
Y2204400D01*
X-2179000Y2184400D02*
X-2139000D01*
X-12661900Y2697800D02*
Y2737800D01*
X-12681900Y2717800D02*
X-12641900D01*
X5219700Y996000D02*
Y1036000D01*
X5199700Y1016000D02*
X5239700D01*
X-10490200Y2685100D02*
Y2725100D01*
X-10510200Y2705100D02*
X-10470200D01*
X-8483600Y2685100D02*
Y2725100D01*
X-8503600Y2705100D02*
X-8463600D01*
X-6290100Y2710500D02*
Y2750500D01*
X-6310100Y2730500D02*
X-6270100D01*
X-4318000Y2748600D02*
Y2788600D01*
X-4338000Y2768600D02*
X-4298000D01*
X-2133600Y2748600D02*
Y2788600D01*
X-2153600Y2768600D02*
X-2113600D01*
X4143800Y2723200D02*
Y2763200D01*
X4123800Y2743200D02*
X4163800D01*
%TF.MD5,d3f9ccdff611accedefd4af8327cd125*%
M02*
