G04*
G04 #@! TF.GenerationSoftware,Altium Limited,Altium Designer,22.1.2 (22)*
G04*
G04 Layer_Color=16711935*
%FSLAX44Y44*%
%MOMM*%
G71*
G04*
G04 #@! TF.SameCoordinates,E17F41A4-0C7A-49D5-8B51-7FD3D5A7BB14*
G04*
G04*
G04 #@! TF.FilePolarity,Negative*
G04*
G01*
G75*
%ADD11C,0.2000*%
%ADD12C,0.1270*%
%ADD13C,0.2540*%
%ADD16C,0.1000*%
%ADD17C,0.2800*%
%ADD18C,0.0500*%
%ADD28R,1.7032X1.7032*%
%ADD32R,1.7032X1.7032*%
%ADD35C,2.1832*%
%ADD36C,2.1382*%
%ADD37R,2.1832X2.1832*%
%ADD38C,1.7012*%
%ADD39R,1.7012X1.7012*%
%ADD40C,8.2032*%
%ADD41C,1.6032*%
%ADD42C,1.7032*%
%ADD43R,1.7332X1.7332*%
%ADD44C,1.7332*%
%ADD45R,2.2432X2.2432*%
%ADD46C,2.2432*%
%ADD47R,1.8532X1.8532*%
%ADD48C,1.8532*%
%ADD49C,1.5112*%
%ADD50R,1.5112X1.5112*%
%ADD51R,1.8532X1.8532*%
%ADD52C,6.2032*%
%ADD53R,6.2032X6.2032*%
%ADD54R,1.6032X1.6032*%
%ADD55R,6.2032X6.2032*%
%ADD56R,1.7632X1.7632*%
%ADD57C,1.7632*%
%ADD58R,1.5112X1.5112*%
%ADD59C,1.4732*%
D11*
X890180Y413500D02*
G03*
X890180Y413500I-1000J0D01*
G01*
X2204450Y915670D02*
G03*
X2204450Y915670I-1000J0D01*
G01*
X2081260Y1559560D02*
G03*
X2081260Y1559560I-1000J0D01*
G01*
X1875442D02*
G03*
X1875442Y1559560I-1000J0D01*
G01*
X1669624D02*
G03*
X1669624Y1559560I-1000J0D01*
G01*
X463020Y874691D02*
G03*
X463020Y874691I-1000J0D01*
G01*
X41640Y963930D02*
G03*
X41640Y963930I-1000J0D01*
G01*
X384540Y49530D02*
G03*
X384540Y49530I-1000J0D01*
G01*
X228896Y1559560D02*
G03*
X228896Y1559560I-1000J0D01*
G01*
X434714D02*
G03*
X434714Y1559560I-1000J0D01*
G01*
X640533D02*
G03*
X640533Y1559560I-1000J0D01*
G01*
X846351D02*
G03*
X846351Y1559560I-1000J0D01*
G01*
X1052169D02*
G03*
X1052169Y1559560I-1000J0D01*
G01*
X1257987D02*
G03*
X1257987Y1559560I-1000J0D01*
G01*
X1463805D02*
G03*
X1463805Y1559560I-1000J0D01*
G01*
X2213340Y198120D02*
G03*
X2213340Y198120I-1000J0D01*
G01*
X40370Y1082040D02*
G03*
X40370Y1082040I-1000J0D01*
G01*
X2213340Y546100D02*
G03*
X2213340Y546100I-1000J0D01*
G01*
X1380559Y328350D02*
G03*
X1380559Y328350I-1000J0D01*
G01*
X1383099Y733480D02*
G03*
X1383099Y733480I-1000J0D01*
G01*
D12*
X832813Y1242060D02*
G03*
X832813Y1242060I-17550J0D01*
G01*
X1875336D02*
G03*
X1875336Y1242060I-17550J0D01*
G01*
X1666831D02*
G03*
X1666831Y1242060I-17550J0D01*
G01*
X1458327D02*
G03*
X1458327Y1242060I-17550J0D01*
G01*
X1249822D02*
G03*
X1249822Y1242060I-17550J0D01*
G01*
X1041318D02*
G03*
X1041318Y1242060I-17550J0D01*
G01*
X624309D02*
G03*
X624309Y1242060I-17550J0D01*
G01*
X415805D02*
G03*
X415805Y1242060I-17550J0D01*
G01*
X207300D02*
G03*
X207300Y1242060I-17550J0D01*
G01*
X1203946Y1139253D02*
G03*
X1210827Y1126034I39104J11955D01*
G01*
X1245353D02*
G03*
X1252234Y1139253I-32222J25175D01*
G01*
X1252206Y1139128D02*
G03*
X1203974Y1139128I-24116J3389D01*
G01*
X163816Y1134173D02*
G03*
X170697Y1120954I39104J11955D01*
G01*
X205223D02*
G03*
X212104Y1134173I-32222J25175D01*
G01*
X212076Y1134048D02*
G03*
X163844Y1134048I-24116J3389D01*
G01*
X374636Y1139156D02*
G03*
X381517Y1125936I39104J11955D01*
G01*
X416043D02*
G03*
X422924Y1139156I-32222J25175D01*
G01*
X422896Y1139031D02*
G03*
X374664Y1139031I-24116J3389D01*
G01*
X580376Y1137983D02*
G03*
X587257Y1124764I39104J11955D01*
G01*
X621783D02*
G03*
X628664Y1137983I-32222J25175D01*
G01*
X628636Y1137858D02*
G03*
X580404Y1137858I-24116J3389D01*
G01*
X788656Y1139253D02*
G03*
X795537Y1126034I39104J11955D01*
G01*
X830063D02*
G03*
X836944Y1139253I-32222J25175D01*
G01*
X836916Y1139128D02*
G03*
X788684Y1139128I-24116J3389D01*
G01*
X1414766Y1137983D02*
G03*
X1421647Y1124764I39104J11955D01*
G01*
X1456173D02*
G03*
X1463054Y1137983I-32222J25175D01*
G01*
X1463026Y1137858D02*
G03*
X1414794Y1137858I-24116J3389D01*
G01*
X2043416Y1137983D02*
G03*
X2050297Y1124764I39104J11955D01*
G01*
X2084823D02*
G03*
X2091704Y1137983I-32222J25175D01*
G01*
X2091676Y1137858D02*
G03*
X2043444Y1137858I-24116J3389D01*
G01*
X1000746Y1137983D02*
G03*
X1007627Y1124764I39104J11955D01*
G01*
X1042153D02*
G03*
X1049034Y1137983I-32222J25175D01*
G01*
X1049006Y1137858D02*
G03*
X1000774Y1137858I-24116J3389D01*
G01*
X1620506Y1134173D02*
G03*
X1627387Y1120954I39104J11955D01*
G01*
X1661913D02*
G03*
X1668794Y1134173I-32222J25175D01*
G01*
X1668766Y1134048D02*
G03*
X1620534Y1134048I-24116J3389D01*
G01*
X1841486Y1134173D02*
G03*
X1848367Y1120954I39104J11955D01*
G01*
X1882893D02*
G03*
X1889774Y1134173I-32222J25175D01*
G01*
X1889746Y1134048D02*
G03*
X1841514Y1134048I-24116J3389D01*
G01*
X2083840Y1242060D02*
G03*
X2083840Y1242060I-17550J0D01*
G01*
X2120930Y1297690D02*
Y1488690D01*
X1965930D02*
X2120930D01*
X1965930Y1297690D02*
Y1488690D01*
Y1297690D02*
X2120930D01*
X785313Y1272010D02*
X845213D01*
Y1212110D02*
Y1272010D01*
X785313Y1212110D02*
X845213D01*
X785313D02*
Y1272010D01*
X1308130Y1297690D02*
Y1488690D01*
X1153130D02*
X1308130D01*
X1153130Y1297690D02*
Y1488690D01*
Y1297690D02*
X1308130D01*
X1104930D02*
Y1488690D01*
X949930D02*
X1104930D01*
X949930Y1297690D02*
Y1488690D01*
Y1297690D02*
X1104930D01*
X340330D02*
X495330D01*
X340330D02*
Y1488690D01*
X495330D01*
Y1297690D02*
Y1488690D01*
X728980Y406400D02*
X881380D01*
X728980D02*
Y609600D01*
X881380D01*
Y406400D02*
Y609600D01*
X2170950Y920990D02*
Y1001790D01*
X2235950D01*
Y920990D02*
Y1001790D01*
X2170950Y920990D02*
X2235950D01*
X2004060Y1505860D02*
X2105660D01*
X2004060D02*
Y1587860D01*
X2105660D01*
Y1505860D02*
Y1587860D01*
X1798242Y1505860D02*
X1899842D01*
X1798242D02*
Y1587860D01*
X1899842D01*
Y1505860D02*
Y1587860D01*
X1694023Y1505860D02*
Y1587860D01*
X1592424D02*
X1694023D01*
X1592424Y1505860D02*
Y1587860D01*
Y1505860D02*
X1694023D01*
X454020Y853191D02*
Y904191D01*
X354020D02*
X454020D01*
X354020Y853191D02*
Y904191D01*
Y853191D02*
X454020D01*
X1029730Y385930D02*
X1126730D01*
X1029730D02*
Y627530D01*
X1126730D01*
Y385930D02*
Y627530D01*
X94340Y887730D02*
Y989330D01*
X12340Y887730D02*
X94340D01*
X12340D02*
Y989330D01*
X94340D01*
X358140Y21230D02*
Y103230D01*
Y21230D02*
X459740D01*
Y103230D01*
X358140D02*
X459740D01*
X90060Y529220D02*
X100060D01*
X95060Y524220D02*
Y534220D01*
Y704220D02*
Y714220D01*
X54560Y668720D02*
X79060Y696720D01*
X111060D02*
X135560Y668720D01*
X54560Y541720D02*
X135560D01*
Y668720D01*
X79060Y696720D02*
X111060D01*
X54560Y541720D02*
Y668720D01*
X151696Y1505860D02*
X253296D01*
X151696D02*
Y1587860D01*
X253296D01*
Y1505860D02*
Y1587860D01*
X357514Y1505860D02*
X459114D01*
X357514D02*
Y1587860D01*
X459114D01*
Y1505860D02*
Y1587860D01*
X563332Y1505860D02*
X664932D01*
X563332D02*
Y1587860D01*
X664932D01*
Y1505860D02*
Y1587860D01*
X870751Y1505860D02*
Y1587860D01*
X769151D02*
X870751D01*
X769151Y1505860D02*
Y1587860D01*
Y1505860D02*
X870751D01*
X974969D02*
X1076569D01*
X974969D02*
Y1587860D01*
X1076569D01*
Y1505860D02*
Y1587860D01*
X1180787Y1505860D02*
X1282387D01*
X1180787D02*
Y1587860D01*
X1282387D01*
Y1505860D02*
Y1587860D01*
X1386605Y1505860D02*
X1488205D01*
X1386605D02*
Y1587860D01*
X1488205D01*
Y1505860D02*
Y1587860D01*
X1827836Y1212110D02*
Y1272010D01*
Y1212110D02*
X1887735D01*
Y1272010D01*
X1827836D02*
X1887735D01*
X1762730Y1297690D02*
X1917730D01*
X1762730D02*
Y1488690D01*
X1917730D01*
Y1297690D02*
Y1488690D01*
X1619331Y1212110D02*
Y1272010D01*
Y1212110D02*
X1679231D01*
Y1272010D01*
X1619331D02*
X1679231D01*
X1410827Y1212110D02*
Y1272010D01*
Y1212110D02*
X1470727D01*
Y1272010D01*
X1410827D02*
X1470727D01*
X1202322D02*
X1262222D01*
Y1212110D02*
Y1272010D01*
X1202322Y1212110D02*
X1262222D01*
X1202322D02*
Y1272010D01*
X993818D02*
X1053718D01*
Y1212110D02*
Y1272010D01*
X993818Y1212110D02*
X1053718D01*
X993818D02*
Y1272010D01*
X576809Y1212110D02*
Y1272010D01*
Y1212110D02*
X636709D01*
Y1272010D01*
X576809D02*
X636709D01*
X368305D02*
X428205D01*
Y1212110D02*
Y1272010D01*
X368305Y1212110D02*
X428205D01*
X368305D02*
Y1272010D01*
X159800Y1212110D02*
Y1272010D01*
Y1212110D02*
X219700D01*
Y1272010D01*
X159800D02*
X219700D01*
X1210940Y1125890D02*
X1245240D01*
X170810Y1120810D02*
X205110D01*
X381630Y1125792D02*
X415930D01*
X587370Y1124620D02*
X621670D01*
X795650Y1125890D02*
X829950D01*
X1421760Y1124620D02*
X1456060D01*
X2050410D02*
X2084710D01*
X1007740D02*
X1042040D01*
X1627500Y1120810D02*
X1661800D01*
X1848480D02*
X1882780D01*
X2036340Y1272010D02*
X2096240D01*
Y1212110D02*
Y1272010D01*
X2036340Y1212110D02*
X2096240D01*
X2036340D02*
Y1272010D01*
X1184940Y38440D02*
X1311940D01*
X1156940Y62940D02*
Y94940D01*
X1184940Y119440D02*
X1311940D01*
Y38440D02*
Y119440D01*
X1156940Y94940D02*
X1184940Y119440D01*
X1156940Y62940D02*
X1184940Y38440D01*
X1139440Y78940D02*
X1149440D01*
X1319440D02*
X1329440D01*
X1324440Y73940D02*
Y83940D01*
X1356330Y1297690D02*
X1511330D01*
X1356330D02*
Y1488690D01*
X1511330D01*
Y1297690D02*
Y1488690D01*
X1559530Y1297690D02*
X1714530D01*
X1559530D02*
Y1488690D01*
X1714530D01*
Y1297690D02*
Y1488690D01*
X292130Y1297690D02*
Y1488690D01*
X137130D02*
X292130D01*
X137130Y1297690D02*
Y1488690D01*
Y1297690D02*
X292130D01*
X543530D02*
X698530D01*
X543530D02*
Y1488690D01*
X698530D01*
Y1297690D02*
Y1488690D01*
X746730Y1297690D02*
X901730D01*
X746730D02*
Y1488690D01*
X901730D01*
Y1297690D02*
Y1488690D01*
X854950Y92560D02*
Y334160D01*
X757950D02*
X854950D01*
X757950Y92560D02*
Y334160D01*
Y92560D02*
X854950D01*
X2158640Y172720D02*
Y274320D01*
X2240640D01*
Y172720D02*
Y274320D01*
X2158640Y172720D02*
X2240640D01*
X93070Y1005840D02*
Y1107440D01*
X11070Y1005840D02*
X93070D01*
X11070D02*
Y1107440D01*
X93070D01*
X2158640Y520700D02*
Y622300D01*
X2240640D01*
Y520700D02*
Y622300D01*
X2158640Y520700D02*
X2240640D01*
X714020Y699970D02*
Y978970D01*
X1258020D01*
Y699970D02*
Y978970D01*
X714020Y699970D02*
X1258020D01*
X1401059Y220350D02*
Y320350D01*
X1350059Y220350D02*
X1401059D01*
X1350059D02*
Y320350D01*
X1401059D01*
X1403599Y625480D02*
Y725480D01*
X1352599Y625480D02*
X1403599D01*
X1352599D02*
Y725480D01*
X1403599D01*
D13*
X49530Y1597660D02*
G03*
X0Y1548130I0J-49530D01*
G01*
X2264410Y1546860D02*
G03*
X2213610Y1597660I-50800J0D01*
G01*
X2213610Y0D02*
G03*
X2264410Y50800I0J50800D01*
G01*
X0Y50000D02*
G03*
X50000Y0I50000J0D01*
G01*
X2264410Y1546860D02*
X2264410Y50800D01*
X49530Y1597660D02*
X2213610Y1597660D01*
X50000Y-0D02*
X2213610Y0D01*
X0Y50000D02*
Y1549400D01*
X2508060Y1593660D02*
X2508060D01*
X2508060D02*
Y1593910D01*
D16*
X1379424Y188500D02*
Y192500D01*
X1377424Y190500D02*
X1381424D01*
X1384504Y588550D02*
Y592550D01*
X1382504Y590550D02*
X1386504D01*
X1377424Y350520D02*
X1381424D01*
X1379424Y348520D02*
Y352520D01*
X995680Y425990D02*
Y429990D01*
X993680Y427990D02*
X997680D01*
X1381964Y758730D02*
Y762730D01*
X1379964Y760730D02*
X1383964D01*
X306070Y872826D02*
Y876826D01*
X304070Y874826D02*
X308070D01*
X508000Y872826D02*
Y876826D01*
X506000Y874826D02*
X510000D01*
X1745520Y1261110D02*
X1749520D01*
X1747520Y1259110D02*
Y1263110D01*
X1528350Y1253490D02*
X1532350D01*
X1530350Y1251490D02*
Y1255490D01*
X1952810Y1191260D02*
X1956810D01*
X1954810Y1189260D02*
Y1193260D01*
X693527Y279400D02*
X697527D01*
X695527Y277400D02*
Y281400D01*
X2164620Y1214120D02*
X2168620D01*
X2166620Y1212120D02*
Y1216120D01*
X2164620Y1256030D02*
X2168620D01*
X2166620Y1254030D02*
Y1258030D01*
X276860Y1187990D02*
Y1191990D01*
X274860Y1189990D02*
X278860D01*
X692150Y1186720D02*
Y1190720D01*
X690150Y1188720D02*
X694150D01*
X1526540Y1196880D02*
Y1200880D01*
X1524540Y1198880D02*
X1528540D01*
X491490Y1189260D02*
Y1193260D01*
X489490Y1191260D02*
X493490D01*
X1741170Y1200690D02*
Y1204690D01*
X1739170Y1202690D02*
X1743170D01*
X911860Y1191800D02*
Y1195800D01*
X909860Y1193800D02*
X913860D01*
X1108710Y1194340D02*
Y1198340D01*
X1106710Y1196340D02*
X1110710D01*
X1330960Y1194340D02*
Y1198340D01*
X1328960Y1196340D02*
X1332960D01*
X280670Y1247680D02*
Y1251680D01*
X278670Y1249680D02*
X282670D01*
X2068830Y1077500D02*
Y1081500D01*
X2066830Y1079500D02*
X2070830D01*
X497840Y1246410D02*
Y1250410D01*
X495840Y1248410D02*
X499840D01*
X698500Y1246410D02*
Y1250410D01*
X696500Y1248410D02*
X700500D01*
X917850Y1248950D02*
Y1252950D01*
X915850Y1250950D02*
X919850D01*
X1115060Y1252760D02*
Y1256760D01*
X1113060Y1254760D02*
X1117060D01*
X1333500Y1252760D02*
Y1256760D01*
X1331500Y1254760D02*
X1335500D01*
X1961240Y1250220D02*
Y1254220D01*
X1959240Y1252220D02*
X1963240D01*
X2216870Y1224630D02*
X2243370D01*
X2216870Y1173130D02*
X2243370D01*
Y1224630D01*
X2216870Y1173130D02*
Y1224630D01*
X535000Y884310D02*
Y901310D01*
X544500Y884310D02*
Y901310D01*
X535000Y884310D02*
X544500D01*
X535000Y901310D02*
X544500D01*
X1000430Y361190D02*
Y378190D01*
X990930Y361190D02*
Y378190D01*
X1000430D01*
X990930Y361190D02*
X1000430D01*
X1352940Y376250D02*
X1369940D01*
X1352940Y385750D02*
X1369940D01*
Y376250D02*
Y385750D01*
X1352940Y376250D02*
Y385750D01*
Y155270D02*
X1369940D01*
X1352940Y164770D02*
X1369940D01*
Y155270D02*
Y164770D01*
X1352940Y155270D02*
Y164770D01*
X1358020Y557860D02*
X1375020D01*
X1358020Y567360D02*
X1375020D01*
Y557860D02*
Y567360D01*
X1358020Y557860D02*
Y567360D01*
X1355480Y781380D02*
X1372480D01*
X1355480Y790880D02*
X1372480D01*
Y781380D02*
Y790880D01*
X1355480Y781380D02*
Y790880D01*
X742010Y1175140D02*
Y1192140D01*
X751510Y1175140D02*
Y1192140D01*
X742010Y1175140D02*
X751510D01*
X742010Y1192140D02*
X751510D01*
X120980Y1199270D02*
Y1216270D01*
X130480Y1199270D02*
Y1216270D01*
X120980Y1199270D02*
X130480D01*
X120980Y1216270D02*
X130480D01*
X540080Y1168790D02*
Y1185790D01*
X549580Y1168790D02*
Y1185790D01*
X540080Y1168790D02*
X549580D01*
X540080Y1185790D02*
X549580D01*
X333070Y1198000D02*
Y1215000D01*
X342570Y1198000D02*
Y1215000D01*
X333070Y1198000D02*
X342570D01*
X333070Y1215000D02*
X342570D01*
X246650Y1147750D02*
X263650D01*
X246650Y1138250D02*
X263650D01*
X246650D02*
Y1147750D01*
X263650Y1138250D02*
Y1147750D01*
X665870Y1147750D02*
X682870D01*
X665870Y1138250D02*
X682870D01*
X665870D02*
Y1147750D01*
X682870Y1138250D02*
Y1147750D01*
X2209030Y1135940D02*
Y1169440D01*
X2182630Y1135940D02*
Y1169440D01*
X2209030D01*
X2182630Y1135940D02*
X2209030D01*
X1295790Y1152830D02*
X1312790D01*
X1295790Y1143330D02*
X1312790D01*
X1295790D02*
Y1152830D01*
X1312790Y1143330D02*
Y1152830D01*
X454930Y1149020D02*
X471930D01*
X454930Y1139520D02*
X471930D01*
X454930D02*
Y1149020D01*
X471930Y1139520D02*
Y1149020D01*
X1495180Y1155370D02*
X1512180D01*
X1495180Y1145870D02*
X1512180D01*
X1495180D02*
Y1155370D01*
X1512180Y1145870D02*
Y1155370D01*
X1078620Y1151560D02*
X1095620D01*
X1078620Y1142060D02*
X1095620D01*
X1078620D02*
Y1151560D01*
X1095620Y1142060D02*
Y1151560D01*
X877960Y1152830D02*
X894960D01*
X877960Y1143330D02*
X894960D01*
X877960D02*
Y1152830D01*
X894960Y1143330D02*
Y1152830D01*
X1923170Y1159180D02*
X1940170D01*
X1923170Y1149680D02*
X1940170D01*
X1923170D02*
Y1159180D01*
X1940170Y1149680D02*
Y1159180D01*
X1377010Y1201810D02*
Y1218810D01*
X1386510Y1201810D02*
Y1218810D01*
X1377010Y1201810D02*
X1386510D01*
X1377010Y1218810D02*
X1386510D01*
X1161110Y1196730D02*
Y1213730D01*
X1170610Y1196730D02*
Y1213730D01*
X1161110Y1196730D02*
X1170610D01*
X1161110Y1213730D02*
X1170610D01*
X956640Y1179070D02*
Y1196070D01*
X966140Y1179070D02*
Y1196070D01*
X956640Y1179070D02*
X966140D01*
X956640Y1196070D02*
X966140D01*
X270840Y884310D02*
Y901310D01*
X280340Y884310D02*
Y901310D01*
X270840Y884310D02*
X280340D01*
X270840Y901310D02*
X280340D01*
X1582750Y1196730D02*
Y1213730D01*
X1592250Y1196730D02*
Y1213730D01*
X1582750Y1196730D02*
X1592250D01*
X1582750Y1213730D02*
X1592250D01*
X1999310Y1199270D02*
Y1216270D01*
X2008810Y1199270D02*
Y1216270D01*
X1999310Y1199270D02*
X2008810D01*
X1999310Y1216270D02*
X2008810D01*
X1726810Y1145870D02*
Y1155370D01*
X1709810Y1145870D02*
Y1155370D01*
Y1145870D02*
X1726810D01*
X1709810Y1155370D02*
X1726810D01*
X1789760Y1216270D02*
X1799260D01*
X1789760Y1199270D02*
X1799260D01*
Y1216270D01*
X1789760Y1199270D02*
Y1216270D01*
X2216120Y1227880D02*
X2244120D01*
X2216120Y1169880D02*
X2244120D01*
Y1227880D01*
X2216120Y1169880D02*
Y1227880D01*
X2230120Y1193880D02*
Y1203880D01*
X2225120Y1198880D02*
X2235120D01*
X535000Y892810D02*
X544500D01*
X539750Y888060D02*
Y897560D01*
X534250Y880810D02*
Y904810D01*
X545250Y880810D02*
Y904810D01*
X534250Y880810D02*
X545250D01*
X534250Y904810D02*
X545250D01*
X990930Y369690D02*
X1000430D01*
X995680Y364940D02*
Y374440D01*
X1001180Y357690D02*
Y381690D01*
X990180Y357690D02*
Y381690D01*
X1001180D01*
X990180Y357690D02*
X1001180D01*
X1361440Y376250D02*
Y385750D01*
X1356690Y381000D02*
X1366190D01*
X1349440Y375500D02*
X1373440D01*
X1349440Y386500D02*
X1373440D01*
Y375500D02*
Y386500D01*
X1349440Y375500D02*
Y386500D01*
X1361440Y155270D02*
Y164770D01*
X1356690Y160020D02*
X1366190D01*
X1349440Y154520D02*
X1373440D01*
X1349440Y165520D02*
X1373440D01*
Y154520D02*
Y165520D01*
X1349440Y154520D02*
Y165520D01*
X1366520Y557860D02*
Y567360D01*
X1361770Y562610D02*
X1371270D01*
X1354520Y557110D02*
X1378520D01*
X1354520Y568110D02*
X1378520D01*
Y557110D02*
Y568110D01*
X1354520Y557110D02*
Y568110D01*
X1363980Y781380D02*
Y790880D01*
X1359230Y786130D02*
X1368730D01*
X1351980Y780630D02*
X1375980D01*
X1351980Y791630D02*
X1375980D01*
Y780630D02*
Y791630D01*
X1351980Y780630D02*
Y791630D01*
X742010Y1183640D02*
X751510D01*
X746760Y1178890D02*
Y1188390D01*
X741260Y1171640D02*
Y1195640D01*
X752260Y1171640D02*
Y1195640D01*
X741260Y1171640D02*
X752260D01*
X741260Y1195640D02*
X752260D01*
X120980Y1207770D02*
X130480D01*
X125730Y1203020D02*
Y1212520D01*
X120230Y1195770D02*
Y1219770D01*
X131230Y1195770D02*
Y1219770D01*
X120230Y1195770D02*
X131230D01*
X120230Y1219770D02*
X131230D01*
X540080Y1177290D02*
X549580D01*
X544830Y1172540D02*
Y1182040D01*
X539330Y1165290D02*
Y1189290D01*
X550330Y1165290D02*
Y1189290D01*
X539330Y1165290D02*
X550330D01*
X539330Y1189290D02*
X550330D01*
X333070Y1206500D02*
X342570D01*
X337820Y1201750D02*
Y1211250D01*
X332320Y1194500D02*
Y1218500D01*
X343320Y1194500D02*
Y1218500D01*
X332320Y1194500D02*
X343320D01*
X332320Y1218500D02*
X343320D01*
X255150Y1138250D02*
Y1147750D01*
X250400Y1143000D02*
X259900D01*
X243150Y1148500D02*
X267150D01*
X243150Y1137500D02*
X267150D01*
X243150D02*
Y1148500D01*
X267150Y1137500D02*
Y1148500D01*
X674370Y1138250D02*
Y1147750D01*
X669620Y1143000D02*
X679120D01*
X662370Y1148500D02*
X686370D01*
X662370Y1137500D02*
X686370D01*
X662370D02*
Y1148500D01*
X686370Y1137500D02*
Y1148500D01*
X2190830Y1152690D02*
X2200830D01*
X2195830Y1147690D02*
Y1157690D01*
X2209830Y1132690D02*
Y1172690D01*
X2181830Y1132690D02*
Y1172690D01*
X2209830D01*
X2181830Y1132690D02*
X2209830D01*
X1304290Y1143330D02*
Y1152830D01*
X1299540Y1148080D02*
X1309040D01*
X1292290Y1153580D02*
X1316290D01*
X1292290Y1142580D02*
X1316290D01*
X1292290D02*
Y1153580D01*
X1316290Y1142580D02*
Y1153580D01*
X463430Y1139520D02*
Y1149020D01*
X458680Y1144270D02*
X468180D01*
X451430Y1149770D02*
X475430D01*
X451430Y1138770D02*
X475430D01*
X451430D02*
Y1149770D01*
X475430Y1138770D02*
Y1149770D01*
X1503680Y1145870D02*
Y1155370D01*
X1498930Y1150620D02*
X1508430D01*
X1491680Y1156120D02*
X1515680D01*
X1491680Y1145120D02*
X1515680D01*
X1491680D02*
Y1156120D01*
X1515680Y1145120D02*
Y1156120D01*
X1087120Y1142060D02*
Y1151560D01*
X1082370Y1146810D02*
X1091870D01*
X1075120Y1152310D02*
X1099120D01*
X1075120Y1141310D02*
X1099120D01*
X1075120D02*
Y1152310D01*
X1099120Y1141310D02*
Y1152310D01*
X886460Y1143330D02*
Y1152830D01*
X881710Y1148080D02*
X891210D01*
X874460Y1153580D02*
X898460D01*
X874460Y1142580D02*
X898460D01*
X874460D02*
Y1153580D01*
X898460Y1142580D02*
Y1153580D01*
X1931670Y1149680D02*
Y1159180D01*
X1926920Y1154430D02*
X1936420D01*
X1919670Y1159930D02*
X1943670D01*
X1919670Y1148930D02*
X1943670D01*
X1919670D02*
Y1159930D01*
X1943670Y1148930D02*
Y1159930D01*
X1377010Y1210310D02*
X1386510D01*
X1381760Y1205560D02*
Y1215060D01*
X1376260Y1198310D02*
Y1222310D01*
X1387260Y1198310D02*
Y1222310D01*
X1376260Y1198310D02*
X1387260D01*
X1376260Y1222310D02*
X1387260D01*
X1161110Y1205230D02*
X1170610D01*
X1165860Y1200480D02*
Y1209980D01*
X1160360Y1193230D02*
Y1217230D01*
X1171360Y1193230D02*
Y1217230D01*
X1160360Y1193230D02*
X1171360D01*
X1160360Y1217230D02*
X1171360D01*
X956640Y1187570D02*
X966140D01*
X961390Y1182820D02*
Y1192320D01*
X955890Y1175570D02*
Y1199570D01*
X966890Y1175570D02*
Y1199570D01*
X955890Y1175570D02*
X966890D01*
X955890Y1199570D02*
X966890D01*
X270840Y892810D02*
X280340D01*
X275590Y888060D02*
Y897560D01*
X270090Y880810D02*
Y904810D01*
X281090Y880810D02*
Y904810D01*
X270090Y880810D02*
X281090D01*
X270090Y904810D02*
X281090D01*
X1582750Y1205230D02*
X1592250D01*
X1587500Y1200480D02*
Y1209980D01*
X1582000Y1193230D02*
Y1217230D01*
X1593000Y1193230D02*
Y1217230D01*
X1582000Y1193230D02*
X1593000D01*
X1582000Y1217230D02*
X1593000D01*
X1999310Y1207770D02*
X2008810D01*
X2004060Y1203020D02*
Y1212520D01*
X1998560Y1195770D02*
Y1219770D01*
X2009560Y1195770D02*
Y1219770D01*
X1998560Y1195770D02*
X2009560D01*
X1998560Y1219770D02*
X2009560D01*
X1730310Y1145120D02*
Y1156120D01*
X1706310Y1145120D02*
Y1156120D01*
Y1145120D02*
X1730310D01*
X1706310Y1156120D02*
X1730310D01*
X1713560Y1150620D02*
X1723060D01*
X1718310Y1145870D02*
Y1155370D01*
X1789010Y1219770D02*
X1800010D01*
X1789010Y1195770D02*
X1800010D01*
Y1219770D01*
X1789010Y1195770D02*
Y1219770D01*
X1794510Y1203020D02*
Y1212520D01*
X1789760Y1207770D02*
X1799260D01*
D17*
X787920Y693470D02*
G03*
X787920Y693470I-1400J0D01*
G01*
D18*
X2123430Y1295190D02*
Y1491190D01*
X1963430D02*
X2123430D01*
X1963430Y1295190D02*
Y1491190D01*
Y1295190D02*
X2123430D01*
X772763Y1274560D02*
X857763D01*
Y1209560D02*
Y1274560D01*
X772763Y1209560D02*
X857763D01*
X772763D02*
Y1274560D01*
X1310630Y1295190D02*
Y1491190D01*
X1150630D02*
X1310630D01*
X1150630Y1295190D02*
Y1491190D01*
Y1295190D02*
X1310630D01*
X1107430D02*
Y1491190D01*
X947430D02*
X1107430D01*
X947430Y1295190D02*
Y1491190D01*
Y1295190D02*
X1107430D01*
X337830D02*
X497830D01*
X337830D02*
Y1491190D01*
X497830D01*
Y1295190D02*
Y1491190D01*
X883880Y403900D02*
Y612100D01*
X726480D02*
X883880D01*
X726480Y403900D02*
Y612100D01*
Y403900D02*
X883880D01*
X2168450Y918490D02*
Y1004290D01*
X2238450D01*
Y918490D02*
Y1004290D01*
X2168450Y918490D02*
X2238450D01*
X2001560Y1503360D02*
X2108160D01*
X2001560D02*
Y1590360D01*
X2108160D01*
Y1503360D02*
Y1590360D01*
X1795742Y1503360D02*
X1902342D01*
X1795742D02*
Y1590360D01*
X1902342D01*
Y1503360D02*
Y1590360D01*
X1696523Y1503360D02*
Y1590360D01*
X1589924D02*
X1696523D01*
X1589924Y1503360D02*
Y1590360D01*
Y1503360D02*
X1696523D01*
X456520Y850691D02*
Y906691D01*
X351520D02*
X456520D01*
X351520Y850691D02*
Y906691D01*
Y850691D02*
X456520D01*
X1027230Y383430D02*
X1129230D01*
X1027230D02*
Y630030D01*
X1129230D01*
Y383430D02*
Y630030D01*
X96840Y885230D02*
Y991830D01*
X9840Y885230D02*
X96840D01*
X9840D02*
Y991830D01*
X96840D01*
X355640Y18730D02*
Y105730D01*
Y18730D02*
X462240D01*
Y105730D01*
X355640D02*
X462240D01*
X52060Y539220D02*
Y699220D01*
X138060D01*
Y539220D02*
Y699220D01*
X52060Y539220D02*
X138060D01*
X149196Y1503360D02*
X255796D01*
X149196D02*
Y1590360D01*
X255796D01*
Y1503360D02*
Y1590360D01*
X355014Y1503360D02*
X461614D01*
X355014D02*
Y1590360D01*
X461614D01*
Y1503360D02*
Y1590360D01*
X560832Y1503360D02*
X667432D01*
X560832D02*
Y1590360D01*
X667432D01*
Y1503360D02*
Y1590360D01*
X873251Y1503360D02*
Y1590360D01*
X766651D02*
X873251D01*
X766651Y1503360D02*
Y1590360D01*
Y1503360D02*
X873251D01*
X972469D02*
X1079069D01*
X972469D02*
Y1590360D01*
X1079069D01*
Y1503360D02*
Y1590360D01*
X1178287Y1503360D02*
X1284887D01*
X1178287D02*
Y1590360D01*
X1284887D01*
Y1503360D02*
Y1590360D01*
X1384105Y1503360D02*
X1490705D01*
X1384105D02*
Y1590360D01*
X1490705D01*
Y1503360D02*
Y1590360D01*
X1815285Y1209560D02*
Y1274560D01*
Y1209560D02*
X1900285D01*
Y1274560D01*
X1815285D02*
X1900285D01*
X1760230Y1295190D02*
X1920230D01*
X1760230D02*
Y1491190D01*
X1920230D01*
Y1295190D02*
Y1491190D01*
X1606781Y1209560D02*
Y1274560D01*
Y1209560D02*
X1691781D01*
Y1274560D01*
X1606781D02*
X1691781D01*
X1398277Y1209560D02*
Y1274560D01*
Y1209560D02*
X1483277D01*
Y1274560D01*
X1398277D02*
X1483277D01*
X1189772D02*
X1274772D01*
Y1209560D02*
Y1274560D01*
X1189772Y1209560D02*
X1274772D01*
X1189772D02*
Y1274560D01*
X981268D02*
X1066268D01*
Y1209560D02*
Y1274560D01*
X981268Y1209560D02*
X1066268D01*
X981268D02*
Y1274560D01*
X564259Y1209560D02*
Y1274560D01*
Y1209560D02*
X649259D01*
Y1274560D01*
X564259D02*
X649259D01*
X355755D02*
X440755D01*
Y1209560D02*
Y1274560D01*
X355755Y1209560D02*
X440755D01*
X355755D02*
Y1274560D01*
X147250Y1209560D02*
Y1274560D01*
Y1209560D02*
X232250D01*
Y1274560D01*
X147250D02*
X232250D01*
X1192590Y1122690D02*
Y1169990D01*
Y1122690D02*
X1263590D01*
Y1169990D01*
X1192590D02*
X1263590D01*
X152460Y1117610D02*
Y1164910D01*
Y1117610D02*
X223460D01*
Y1164910D01*
X152460D02*
X223460D01*
X363280Y1122592D02*
Y1169893D01*
Y1122592D02*
X434280D01*
Y1169893D01*
X363280D02*
X434280D01*
X569020Y1121420D02*
Y1168720D01*
Y1121420D02*
X640020D01*
Y1168720D01*
X569020D02*
X640020D01*
X777300Y1122690D02*
Y1169990D01*
Y1122690D02*
X848300D01*
Y1169990D01*
X777300D02*
X848300D01*
X1403410Y1121420D02*
Y1168720D01*
Y1121420D02*
X1474410D01*
Y1168720D01*
X1403410D02*
X1474410D01*
X2032060Y1121420D02*
Y1168720D01*
Y1121420D02*
X2103060D01*
Y1168720D01*
X2032060D02*
X2103060D01*
X989390Y1121420D02*
Y1168720D01*
Y1121420D02*
X1060390D01*
Y1168720D01*
X989390D02*
X1060390D01*
X1609150Y1117610D02*
Y1164910D01*
Y1117610D02*
X1680150D01*
Y1164910D01*
X1609150D02*
X1680150D01*
X1830130Y1117610D02*
Y1164910D01*
Y1117610D02*
X1901130D01*
Y1164910D01*
X1830130D02*
X1901130D01*
X2023790Y1274560D02*
X2108790D01*
Y1209560D02*
Y1274560D01*
X2023790Y1209560D02*
X2108790D01*
X2023790D02*
Y1274560D01*
X1314440Y35940D02*
Y121940D01*
X1154440D02*
X1314440D01*
X1154440Y35940D02*
Y121940D01*
Y35940D02*
X1314440D01*
X1353830Y1295190D02*
X1513830D01*
X1353830D02*
Y1491190D01*
X1513830D01*
Y1295190D02*
Y1491190D01*
X1557030Y1295190D02*
X1717030D01*
X1557030D02*
Y1491190D01*
X1717030D01*
Y1295190D02*
Y1491190D01*
X294630Y1295190D02*
Y1491190D01*
X134630D02*
X294630D01*
X134630Y1295190D02*
Y1491190D01*
Y1295190D02*
X294630D01*
X541030D02*
X701030D01*
X541030D02*
Y1491190D01*
X701030D01*
Y1295190D02*
Y1491190D01*
X744230Y1295190D02*
X904230D01*
X744230D02*
Y1491190D01*
X904230D01*
Y1295190D02*
Y1491190D01*
X857450Y90060D02*
Y336660D01*
X755450D02*
X857450D01*
X755450Y90060D02*
Y336660D01*
Y90060D02*
X857450D01*
X2156140Y170220D02*
Y276820D01*
X2243140D01*
Y170220D02*
Y276820D01*
X2156140Y170220D02*
X2243140D01*
X95570Y1003340D02*
Y1109940D01*
X8570Y1003340D02*
X95570D01*
X8570D02*
Y1109940D01*
X95570D01*
X2156140Y518200D02*
Y624800D01*
X2243140D01*
Y518200D02*
Y624800D01*
X2156140Y518200D02*
X2243140D01*
X711520Y697470D02*
Y981470D01*
X1260520D01*
Y697470D02*
Y981470D01*
X711520Y697470D02*
X1260520D01*
X1403559Y217850D02*
Y322850D01*
X1347559Y217850D02*
X1403559D01*
X1347559D02*
Y322850D01*
X1403559D01*
X1406099Y622980D02*
Y727980D01*
X1350099Y622980D02*
X1406099D01*
X1350099D02*
Y727980D01*
X1406099D01*
D28*
X928370Y1043940D02*
D03*
X1818700Y1192530D02*
D03*
X1610420D02*
D03*
X152460D02*
D03*
X360740D02*
D03*
X1402140D02*
D03*
X1193860D02*
D03*
X985580D02*
D03*
X777300D02*
D03*
X569020D02*
D03*
X2026980D02*
D03*
D32*
X1776860Y977900D02*
D03*
X1546860Y1003300D02*
D03*
X43180Y453390D02*
D03*
D35*
X1983430Y1454190D02*
D03*
X2103430D02*
D03*
Y1332190D02*
D03*
X1170630Y1454190D02*
D03*
X1290630D02*
D03*
Y1332190D02*
D03*
X967430Y1454190D02*
D03*
X1087430D02*
D03*
Y1332190D02*
D03*
X477830D02*
D03*
Y1454190D02*
D03*
X357830D02*
D03*
X1078230Y615930D02*
D03*
X1900230Y1332190D02*
D03*
Y1454190D02*
D03*
X1780230D02*
D03*
X1493830Y1332190D02*
D03*
Y1454190D02*
D03*
X1373830D02*
D03*
X1697030Y1332190D02*
D03*
Y1454190D02*
D03*
X1577030D02*
D03*
X154630D02*
D03*
X274630D02*
D03*
Y1332190D02*
D03*
X681030D02*
D03*
Y1454190D02*
D03*
X561030D02*
D03*
X884230Y1332190D02*
D03*
Y1454190D02*
D03*
X764230D02*
D03*
X806450Y322560D02*
D03*
D36*
X2043430Y1312190D02*
D03*
X1230630D02*
D03*
X1027430D02*
D03*
X417830D02*
D03*
X1840230D02*
D03*
X1433830D02*
D03*
X1637030D02*
D03*
X214630D02*
D03*
X621030D02*
D03*
X824230D02*
D03*
D37*
X1983430Y1332190D02*
D03*
X1170630D02*
D03*
X967430D02*
D03*
X357830D02*
D03*
X1078230Y397530D02*
D03*
X1780230Y1332190D02*
D03*
X1373830D02*
D03*
X1577030D02*
D03*
X154630D02*
D03*
X561030D02*
D03*
X764230D02*
D03*
X806450Y104160D02*
D03*
D38*
X847763Y1264560D02*
D03*
Y1219560D02*
D03*
X782763D02*
D03*
X1825285D02*
D03*
X1890285D02*
D03*
Y1264560D02*
D03*
X1616781Y1219560D02*
D03*
X1681781D02*
D03*
Y1264560D02*
D03*
X1408277Y1219560D02*
D03*
X1473277D02*
D03*
Y1264560D02*
D03*
X1264772D02*
D03*
Y1219560D02*
D03*
X1199772D02*
D03*
X1056268Y1264560D02*
D03*
Y1219560D02*
D03*
X991268D02*
D03*
X574259D02*
D03*
X639259D02*
D03*
Y1264560D02*
D03*
X430755D02*
D03*
Y1219560D02*
D03*
X365755D02*
D03*
X157250D02*
D03*
X222250D02*
D03*
Y1264560D02*
D03*
X2098790D02*
D03*
Y1219560D02*
D03*
X2033790D02*
D03*
D39*
X782763Y1264560D02*
D03*
X1825285D02*
D03*
X1616781D02*
D03*
X1408277D02*
D03*
X1199772D02*
D03*
X991268D02*
D03*
X574259D02*
D03*
X365755D02*
D03*
X157250D02*
D03*
X2033790D02*
D03*
D40*
X50000Y50000D02*
D03*
Y1547660D02*
D03*
X2214410Y50000D02*
D03*
Y1547660D02*
D03*
D41*
X1695450Y919480D02*
D03*
Y995680D02*
D03*
X1228090Y1139190D02*
D03*
X1254090D02*
D03*
X187960Y1134110D02*
D03*
X213960D02*
D03*
X398780Y1139092D02*
D03*
X424780D02*
D03*
X604520Y1137920D02*
D03*
X630520D02*
D03*
X812800Y1139190D02*
D03*
X838800D02*
D03*
X1438910Y1137920D02*
D03*
X1464910D02*
D03*
X2067560D02*
D03*
X2093560D02*
D03*
X1024890D02*
D03*
X1050890D02*
D03*
X1644650Y1134110D02*
D03*
X1670650D02*
D03*
X1865630D02*
D03*
X1891630D02*
D03*
D42*
X953770Y1043940D02*
D03*
X979170D02*
D03*
X1004570D02*
D03*
X1029970D02*
D03*
X1055370D02*
D03*
X1080770D02*
D03*
X1106170D02*
D03*
X1131570D02*
D03*
X1156970D02*
D03*
X1776860Y952500D02*
D03*
X1889700Y1192530D02*
D03*
X1681420D02*
D03*
X223460D02*
D03*
X431740D02*
D03*
X1473140D02*
D03*
X1264860D02*
D03*
X1056580D02*
D03*
X848300D02*
D03*
X640020D02*
D03*
X2097980D02*
D03*
X1546860Y927100D02*
D03*
Y952500D02*
D03*
Y977900D02*
D03*
X43180Y377190D02*
D03*
Y402590D02*
D03*
Y427990D02*
D03*
D43*
X868680Y419100D02*
D03*
D44*
Y444500D02*
D03*
Y469900D02*
D03*
Y495300D02*
D03*
Y520700D02*
D03*
Y546100D02*
D03*
Y571500D02*
D03*
Y596900D02*
D03*
X741680D02*
D03*
Y571500D02*
D03*
Y546100D02*
D03*
Y520700D02*
D03*
Y495300D02*
D03*
Y469900D02*
D03*
Y444500D02*
D03*
Y419100D02*
D03*
D45*
X2203450Y935990D02*
D03*
D46*
Y961390D02*
D03*
Y986790D02*
D03*
D47*
X2080260Y1546860D02*
D03*
X1874442D02*
D03*
X1668624D02*
D03*
X383540Y62230D02*
D03*
X227896Y1546860D02*
D03*
X433714D02*
D03*
X639533D02*
D03*
X845351D02*
D03*
X1051169D02*
D03*
X1256987D02*
D03*
X1462805D02*
D03*
D48*
X2029460D02*
D03*
X1823642D02*
D03*
X1617823D02*
D03*
X53340Y913130D02*
D03*
X434340Y62230D02*
D03*
X177096Y1546860D02*
D03*
X382914D02*
D03*
X588732D02*
D03*
X794551D02*
D03*
X1000369D02*
D03*
X1206187D02*
D03*
X1412005D02*
D03*
X2199640Y248920D02*
D03*
X52070Y1031240D02*
D03*
X2199640Y596900D02*
D03*
D49*
X374020Y874691D02*
D03*
X394020D02*
D03*
X414020D02*
D03*
X1379559Y280350D02*
D03*
Y260350D02*
D03*
Y240350D02*
D03*
X1382099Y685480D02*
D03*
Y665480D02*
D03*
Y645480D02*
D03*
D50*
X434020Y874691D02*
D03*
D51*
X53340Y963930D02*
D03*
X2199640Y198120D02*
D03*
X52070Y1082040D02*
D03*
X2199640Y546100D02*
D03*
D52*
X95060Y655220D02*
D03*
X1198440Y78940D02*
D03*
D53*
X95060Y583220D02*
D03*
X1504080Y121850D02*
D03*
Y398850D02*
D03*
X2062080Y121850D02*
D03*
Y398850D02*
D03*
X1504080Y534600D02*
D03*
Y811600D02*
D03*
X2062080Y534600D02*
D03*
Y811600D02*
D03*
D54*
X1202090Y1139190D02*
D03*
X161960Y1134110D02*
D03*
X372780Y1139092D02*
D03*
X578520Y1137920D02*
D03*
X786800Y1139190D02*
D03*
X1412910Y1137920D02*
D03*
X2041560D02*
D03*
X998890D02*
D03*
X1618650Y1134110D02*
D03*
X1839630D02*
D03*
D55*
X1270440Y78940D02*
D03*
X266630Y755250D02*
D03*
X543630D02*
D03*
X266630Y197250D02*
D03*
X543630D02*
D03*
D56*
X787920Y712470D02*
D03*
D57*
X813320D02*
D03*
X1245120D02*
D03*
X838720D02*
D03*
X864120D02*
D03*
X889520D02*
D03*
X914920D02*
D03*
X940320D02*
D03*
X965720D02*
D03*
X991120D02*
D03*
X1016520D02*
D03*
X1041920D02*
D03*
X1067320D02*
D03*
X1092720D02*
D03*
X1118120D02*
D03*
X1143520D02*
D03*
X1168920D02*
D03*
X1194320D02*
D03*
X1219720D02*
D03*
X787920Y966470D02*
D03*
X813320D02*
D03*
X838720D02*
D03*
X864120D02*
D03*
X889520D02*
D03*
X914920D02*
D03*
X940320D02*
D03*
X965720D02*
D03*
X991120D02*
D03*
X1016520D02*
D03*
X1041920D02*
D03*
X1067320D02*
D03*
X1092720D02*
D03*
X1118120D02*
D03*
X1143520D02*
D03*
X1168920D02*
D03*
X1194320D02*
D03*
X1219720D02*
D03*
X1245120D02*
D03*
D58*
X1379559Y300350D02*
D03*
X1382099Y705480D02*
D03*
D59*
X1913731Y1043940D02*
D03*
X2249170D02*
D03*
X2043430Y899160D02*
D03*
X2175510D02*
D03*
X2249170Y971550D02*
D03*
Y899160D02*
D03*
X2109470D02*
D03*
X1977390D02*
D03*
X1911350D02*
D03*
X1845310D02*
D03*
X1779270D02*
D03*
X2181066Y1043940D02*
D03*
X2114232D02*
D03*
X2047399D02*
D03*
X1980565D02*
D03*
X1780064D02*
D03*
X1713230D02*
D03*
M02*
