%TF.GenerationSoftware,Altium Limited,Altium Designer,22.1.2 (22)*%
G04 Layer_Color=16711935*
%FSLAX45Y45*%
%MOMM*%
%TF.SameCoordinates,97720CCC-B93B-4F85-99AC-C394CD96EF65*%
%TF.FilePolarity,Positive*%
%TF.FileFunction,Other,Mechanical_13*%
%TF.Part,Single*%
G01*
G75*
%TA.AperFunction,NonConductor*%
%ADD78C,0.20000*%
%ADD79C,0.12700*%
%ADD80C,0.25400*%
%ADD91C,0.28000*%
%ADD92C,0.10000*%
D78*
X-6566800Y-5644000D02*
G03*
X-6566800Y-5644000I-10000J0D01*
G01*
X6575900Y-622300D02*
G03*
X6575900Y-622300I-10000J0D01*
G01*
X5343999Y5816600D02*
G03*
X5343999Y5816600I-10000J0D01*
G01*
X3285817D02*
G03*
X3285817Y5816600I-10000J0D01*
G01*
X1227635D02*
G03*
X1227635Y5816600I-10000J0D01*
G01*
X-10838400Y-1032090D02*
G03*
X-10838400Y-1032090I-10000J0D01*
G01*
X-15052200Y-139700D02*
G03*
X-15052200Y-139700I-10000J0D01*
G01*
X-11623200Y-9283700D02*
G03*
X-11623200Y-9283700I-10000J0D01*
G01*
X-13179640Y5816600D02*
G03*
X-13179640Y5816600I-10000J0D01*
G01*
X-11121458D02*
G03*
X-11121458Y5816600I-10000J0D01*
G01*
X-9063275D02*
G03*
X-9063275Y5816600I-10000J0D01*
G01*
X-7005093D02*
G03*
X-7005093Y5816600I-10000J0D01*
G01*
X-4946911D02*
G03*
X-4946911Y5816600I-10000J0D01*
G01*
X-2888729D02*
G03*
X-2888729Y5816600I-10000J0D01*
G01*
X-830547D02*
G03*
X-830547Y5816600I-10000J0D01*
G01*
X6664800Y-7797800D02*
G03*
X6664800Y-7797800I-10000J0D01*
G01*
X-15064900Y1041400D02*
G03*
X-15064900Y1041400I-10000J0D01*
G01*
X6664800Y-4318000D02*
G03*
X6664800Y-4318000I-10000J0D01*
G01*
X-1663010Y-6495500D02*
G03*
X-1663010Y-6495500I-10000J0D01*
G01*
X-1637610Y-2444200D02*
G03*
X-1637610Y-2444200I-10000J0D01*
G01*
D79*
X-7140466Y2641600D02*
G03*
X-7140466Y2641600I-175500J0D01*
G01*
X3284755D02*
G03*
X3284755Y2641600I-175500J0D01*
G01*
X1199711D02*
G03*
X1199711Y2641600I-175500J0D01*
G01*
X-885334D02*
G03*
X-885334Y2641600I-175500J0D01*
G01*
X-2970378D02*
G03*
X-2970378Y2641600I-175500J0D01*
G01*
X-5055422D02*
G03*
X-5055422Y2641600I-175500J0D01*
G01*
X-9225510D02*
G03*
X-9225510Y2641600I-175500J0D01*
G01*
X-11310554D02*
G03*
X-11310554Y2641600I-175500J0D01*
G01*
X-13395598D02*
G03*
X-13395598Y2641600I-175500J0D01*
G01*
X-3429144Y1613531D02*
G03*
X-3360327Y1481336I391039J119552D01*
G01*
X-3015073D02*
G03*
X-2946256Y1613531I-322222J251748D01*
G01*
X-2946536Y1612283D02*
G03*
X-3428864Y1612283I-241164J33894D01*
G01*
X-13830444Y1562731D02*
G03*
X-13761627Y1430536I391039J119552D01*
G01*
X-13416373D02*
G03*
X-13347556Y1562731I-322222J251748D01*
G01*
X-13347836Y1561483D02*
G03*
X-13830164Y1561483I-241164J33894D01*
G01*
X-11722244Y1612556D02*
G03*
X-11653427Y1480361I391039J119552D01*
G01*
X-11308173D02*
G03*
X-11239356Y1612556I-322222J251748D01*
G01*
X-11239636Y1611308D02*
G03*
X-11721964Y1611308I-241164J33894D01*
G01*
X-9664844Y1600831D02*
G03*
X-9596027Y1468636I391039J119552D01*
G01*
X-9250773D02*
G03*
X-9181956Y1600831I-322222J251748D01*
G01*
X-9182236Y1599583D02*
G03*
X-9664564Y1599583I-241164J33894D01*
G01*
X-7582044Y1613531D02*
G03*
X-7513227Y1481336I391039J119552D01*
G01*
X-7167973D02*
G03*
X-7099156Y1613531I-322222J251748D01*
G01*
X-7099436Y1612283D02*
G03*
X-7581764Y1612283I-241164J33894D01*
G01*
X-1320944Y1600831D02*
G03*
X-1252127Y1468636I391039J119552D01*
G01*
X-906873D02*
G03*
X-838056Y1600831I-322222J251748D01*
G01*
X-838336Y1599583D02*
G03*
X-1320664Y1599583I-241164J33894D01*
G01*
X4965556Y1600831D02*
G03*
X5034373Y1468636I391039J119552D01*
G01*
X5379627D02*
G03*
X5448444Y1600831I-322222J251748D01*
G01*
X5448164Y1599583D02*
G03*
X4965836Y1599583I-241164J33894D01*
G01*
X-5461144Y1600831D02*
G03*
X-5392327Y1468636I391039J119552D01*
G01*
X-5047073D02*
G03*
X-4978256Y1600831I-322222J251748D01*
G01*
X-4978536Y1599583D02*
G03*
X-5460864Y1599583I-241164J33894D01*
G01*
X736456Y1562731D02*
G03*
X805273Y1430536I391039J119552D01*
G01*
X1150527D02*
G03*
X1219344Y1562731I-322222J251748D01*
G01*
X1219064Y1561483D02*
G03*
X736736Y1561483I-241164J33894D01*
G01*
X2946256Y1562731D02*
G03*
X3015073Y1430536I391039J119552D01*
G01*
X3360327D02*
G03*
X3429144Y1562731I-322222J251748D01*
G01*
X3428864Y1561483D02*
G03*
X2946536Y1561483I-241164J33894D01*
G01*
X5369799Y2641600D02*
G03*
X5369799Y2641600I-175500J0D01*
G01*
X5740700Y3197900D02*
Y5107900D01*
X4190700D02*
X5740700D01*
X4190700Y3197900D02*
Y5107900D01*
Y3197900D02*
X5740700D01*
X-7615466Y2941100D02*
X-7016466D01*
Y2342100D02*
Y2941100D01*
X-7615466Y2342100D02*
X-7016466D01*
X-7615466D02*
Y2941100D01*
X-2387300Y3197900D02*
Y5107900D01*
X-3937300D02*
X-2387300D01*
X-3937300Y3197900D02*
Y5107900D01*
Y3197900D02*
X-2387300D01*
X-4419300D02*
Y5107900D01*
X-5969300D02*
X-4419300D01*
X-5969300Y3197900D02*
Y5107900D01*
Y3197900D02*
X-4419300D01*
X-12065300D02*
X-10515300D01*
X-12065300D02*
Y5107900D01*
X-10515300D01*
Y3197900D02*
Y5107900D01*
X-8178800Y-5715000D02*
X-6654800D01*
X-8178800D02*
Y-3683000D01*
X-6654800D01*
Y-5715000D02*
Y-3683000D01*
X6240900Y-569100D02*
Y238900D01*
X6890900D01*
Y-569100D02*
Y238900D01*
X6240900Y-569100D02*
X6890900D01*
X4571999Y5279600D02*
X5587999D01*
X4571999D02*
Y6099600D01*
X5587999D01*
Y5279600D02*
Y6099600D01*
X2513817Y5279600D02*
X3529817D01*
X2513817D02*
Y6099600D01*
X3529817D01*
Y5279600D02*
Y6099600D01*
X1471635Y5279600D02*
Y6099600D01*
X455635D02*
X1471635D01*
X455635Y5279600D02*
Y6099600D01*
Y5279600D02*
X1471635D01*
X-10928400Y-1247090D02*
Y-737090D01*
X-11928400D02*
X-10928400D01*
X-11928400Y-1247090D02*
Y-737090D01*
Y-1247090D02*
X-10928400D01*
X-5171300Y-5919700D02*
X-4201300D01*
X-5171300D02*
Y-3503700D01*
X-4201300D01*
Y-5919700D02*
Y-3503700D01*
X-14525200Y-901700D02*
Y114300D01*
X-15345200Y-901700D02*
X-14525200D01*
X-15345200D02*
Y114300D01*
X-14525200D01*
X-11887200Y-9566700D02*
Y-8746700D01*
Y-9566700D02*
X-10871200D01*
Y-8746700D01*
X-11887200D02*
X-10871200D01*
X-14567999Y-4486800D02*
X-14467999D01*
X-14517999Y-4536800D02*
Y-4436800D01*
Y-2736800D02*
Y-2636800D01*
X-14923000Y-3091800D02*
X-14678000Y-2811800D01*
X-14358000D02*
X-14113000Y-3091800D01*
X-14923000Y-4361800D02*
X-14113000D01*
Y-3091800D01*
X-14678000Y-2811800D02*
X-14358000D01*
X-14923000Y-4361800D02*
Y-3091800D01*
X-13951640Y5279600D02*
X-12935640D01*
X-13951640D02*
Y6099600D01*
X-12935640D01*
Y5279600D02*
Y6099600D01*
X-11893458Y5279600D02*
X-10877458D01*
X-11893458D02*
Y6099600D01*
X-10877458D01*
Y5279600D02*
Y6099600D01*
X-9835275Y5279600D02*
X-8819275D01*
X-9835275D02*
Y6099600D01*
X-8819275D01*
Y5279600D02*
Y6099600D01*
X-6761093Y5279600D02*
Y6099600D01*
X-7777093D02*
X-6761093D01*
X-7777093Y5279600D02*
Y6099600D01*
Y5279600D02*
X-6761093D01*
X-5718911D02*
X-4702911D01*
X-5718911D02*
Y6099600D01*
X-4702911D01*
Y5279600D02*
Y6099600D01*
X-3660729Y5279600D02*
X-2644729D01*
X-3660729D02*
Y6099600D01*
X-2644729D01*
Y5279600D02*
Y6099600D01*
X-1602547Y5279600D02*
X-586547D01*
X-1602547D02*
Y6099600D01*
X-586547D01*
Y5279600D02*
Y6099600D01*
X2809755Y2342100D02*
Y2941100D01*
Y2342100D02*
X3408755D01*
Y2941100D01*
X2809755D02*
X3408755D01*
X2158700Y3197900D02*
X3708700D01*
X2158700D02*
Y5107900D01*
X3708700D01*
Y3197900D02*
Y5107900D01*
X724711Y2342100D02*
Y2941100D01*
Y2342100D02*
X1323711D01*
Y2941100D01*
X724711D02*
X1323711D01*
X-1360334Y2342100D02*
Y2941100D01*
Y2342100D02*
X-761334D01*
Y2941100D01*
X-1360334D02*
X-761334D01*
X-3445378D02*
X-2846378D01*
Y2342100D02*
Y2941100D01*
X-3445378Y2342100D02*
X-2846378D01*
X-3445378D02*
Y2941100D01*
X-5530422D02*
X-4931422D01*
Y2342100D02*
Y2941100D01*
X-5530422Y2342100D02*
X-4931422D01*
X-5530422D02*
Y2941100D01*
X-9700510Y2342100D02*
Y2941100D01*
Y2342100D02*
X-9101510D01*
Y2941100D01*
X-9700510D02*
X-9101510D01*
X-11785554D02*
X-11186554D01*
Y2342100D02*
Y2941100D01*
X-11785554Y2342100D02*
X-11186554D01*
X-11785554D02*
Y2941100D01*
X-13870598Y2342100D02*
Y2941100D01*
Y2342100D02*
X-13271597D01*
Y2941100D01*
X-13870598D02*
X-13271597D01*
X-3359200Y1479900D02*
X-3016200D01*
X-13760500Y1429100D02*
X-13417500D01*
X-11652300Y1478925D02*
X-11309300D01*
X-9594900Y1467200D02*
X-9251900D01*
X-7512100Y1479900D02*
X-7169100D01*
X-1251000Y1467200D02*
X-908000D01*
X5035500D02*
X5378500D01*
X-5391200D02*
X-5048200D01*
X806400Y1429100D02*
X1149400D01*
X3016200D02*
X3359200D01*
X4894799Y2941100D02*
X5493799D01*
Y2342100D02*
Y2941100D01*
X4894799Y2342100D02*
X5493799D01*
X4894799D02*
Y2941100D01*
X-3619200Y-9394600D02*
X-2349200D01*
X-3899200Y-9149600D02*
Y-8829600D01*
X-3619200Y-8584600D02*
X-2349200D01*
Y-9394600D02*
Y-8584600D01*
X-3899200Y-8829600D02*
X-3619200Y-8584600D01*
X-3899200Y-9149600D02*
X-3619200Y-9394600D01*
X-4074200Y-8989600D02*
X-3974200D01*
X-2274200D02*
X-2174200D01*
X-2224200Y-9039600D02*
Y-8939600D01*
X-1905300Y3197900D02*
X-355300D01*
X-1905300D02*
Y5107900D01*
X-355300D01*
Y3197900D02*
Y5107900D01*
X126700Y3197900D02*
X1676700D01*
X126700D02*
Y5107900D01*
X1676700D01*
Y3197900D02*
Y5107900D01*
X-12547300Y3197900D02*
Y5107900D01*
X-14097301D02*
X-12547300D01*
X-14097301Y3197900D02*
Y5107900D01*
Y3197900D02*
X-12547300D01*
X-10033300D02*
X-8483300D01*
X-10033300D02*
Y5107900D01*
X-8483300D01*
Y3197900D02*
Y5107900D01*
X-8001300Y3197900D02*
X-6451300D01*
X-8001300D02*
Y5107900D01*
X-6451300D01*
Y3197900D02*
Y5107900D01*
X-6919100Y-8853400D02*
Y-6437400D01*
X-7889100D02*
X-6919100D01*
X-7889100Y-8853400D02*
Y-6437400D01*
Y-8853400D02*
X-6919100D01*
X6117800Y-8051800D02*
Y-7035800D01*
X6937800D01*
Y-8051800D02*
Y-7035800D01*
X6117800Y-8051800D02*
X6937800D01*
X-14537900Y279400D02*
Y1295400D01*
X-15357899Y279400D02*
X-14537900D01*
X-15357899D02*
Y1295400D01*
X-14537900D01*
X6117800Y-4572000D02*
Y-3556000D01*
X6937800D01*
Y-4572000D02*
Y-3556000D01*
X6117800Y-4572000D02*
X6937800D01*
X-8328400Y-2779300D02*
Y10700D01*
X-2888400D01*
Y-2779300D02*
Y10700D01*
X-8328400Y-2779300D02*
X-2888400D01*
X-1458010Y-7575500D02*
Y-6575500D01*
X-1968010Y-7575500D02*
X-1458010D01*
X-1968010D02*
Y-6575500D01*
X-1458010D01*
X-1432610Y-3524200D02*
Y-2524200D01*
X-1942610Y-3524200D02*
X-1432610D01*
X-1942610D02*
Y-2524200D01*
X-1432610D01*
D80*
X-14973300Y6197600D02*
G03*
X-15468600Y5702300I0J-495300D01*
G01*
X7175500Y5689600D02*
G03*
X6667500Y6197600I-508000J0D01*
G01*
X6667500Y-9779000D02*
G03*
X7175500Y-9271000I0J508000D01*
G01*
X-15468600Y-9279000D02*
G03*
X-14968600Y-9779000I500000J0D01*
G01*
X7175499Y5689600D02*
X7175500Y-9271000D01*
X-14973300Y6197598D02*
X6667500Y6197600D01*
X-14968600Y-9779002D02*
X6667500Y-9779000D01*
X-15468600Y-9279000D02*
Y5715000D01*
D91*
X-7589400Y-2844300D02*
G03*
X-7589400Y-2844300I-14000J0D01*
G01*
D92*
X6700100Y2467300D02*
X6965100D01*
X6700100Y1952300D02*
X6965100D01*
Y2467300D01*
X6700100Y1952300D02*
Y2467300D01*
X-10118600Y-935900D02*
Y-765900D01*
X-10023600Y-935900D02*
Y-765900D01*
X-10118600Y-935900D02*
X-10023600D01*
X-10118600Y-765900D02*
X-10023600D01*
X-5464300Y-6167100D02*
Y-5997100D01*
X-5559300Y-6167100D02*
Y-5997100D01*
X-5464300D01*
X-5559300Y-6167100D02*
X-5464300D01*
X-1939200Y-6016500D02*
X-1769200D01*
X-1939200Y-5921500D02*
X-1769200D01*
Y-6016500D02*
Y-5921500D01*
X-1939200Y-6016500D02*
Y-5921500D01*
Y-8226300D02*
X-1769200D01*
X-1939200Y-8131300D02*
X-1769200D01*
Y-8226300D02*
Y-8131300D01*
X-1939200Y-8226300D02*
Y-8131300D01*
X-1888400Y-4200400D02*
X-1718400D01*
X-1888400Y-4105400D02*
X-1718400D01*
Y-4200400D02*
Y-4105400D01*
X-1888400Y-4200400D02*
Y-4105400D01*
X-1913800Y-1965200D02*
X-1743800D01*
X-1913800Y-1870200D02*
X-1743800D01*
Y-1965200D02*
Y-1870200D01*
X-1913800Y-1965200D02*
Y-1870200D01*
X-8048500Y1972400D02*
Y2142400D01*
X-7953500Y1972400D02*
Y2142400D01*
X-8048500Y1972400D02*
X-7953500D01*
X-8048500Y2142400D02*
X-7953500D01*
X-14258800Y2213700D02*
Y2383700D01*
X-14163800Y2213700D02*
Y2383700D01*
X-14258800Y2213700D02*
X-14163800D01*
X-14258800Y2383700D02*
X-14163800D01*
X-10067800Y1908900D02*
Y2078900D01*
X-9972800Y1908900D02*
Y2078900D01*
X-10067800Y1908900D02*
X-9972800D01*
X-10067800Y2078900D02*
X-9972800D01*
X-12137900Y2201000D02*
Y2371000D01*
X-12042900Y2201000D02*
Y2371000D01*
X-12137900Y2201000D02*
X-12042900D01*
X-12137900Y2371000D02*
X-12042900D01*
X-13002100Y1698500D02*
X-12832100D01*
X-13002100Y1603500D02*
X-12832100D01*
X-13002100D02*
Y1698500D01*
X-12832100Y1603500D02*
Y1698500D01*
X-8809900Y1698500D02*
X-8639900D01*
X-8809900Y1603500D02*
X-8639900D01*
X-8809900D02*
Y1698500D01*
X-8639900Y1603500D02*
Y1698500D01*
X6621700Y1580400D02*
Y1915400D01*
X6357700Y1580400D02*
Y1915400D01*
X6621700D01*
X6357700Y1580400D02*
X6621700D01*
X-2510700Y1749300D02*
X-2340700D01*
X-2510700Y1654300D02*
X-2340700D01*
X-2510700D02*
Y1749300D01*
X-2340700Y1654300D02*
Y1749300D01*
X-10919300Y1711200D02*
X-10749300D01*
X-10919300Y1616200D02*
X-10749300D01*
X-10919300D02*
Y1711200D01*
X-10749300Y1616200D02*
Y1711200D01*
X-516800Y1774700D02*
X-346800D01*
X-516800Y1679700D02*
X-346800D01*
X-516800D02*
Y1774700D01*
X-346800Y1679700D02*
Y1774700D01*
X-4682400Y1736600D02*
X-4512400D01*
X-4682400Y1641600D02*
X-4512400D01*
X-4682400D02*
Y1736600D01*
X-4512400Y1641600D02*
Y1736600D01*
X-6689000Y1749300D02*
X-6519000D01*
X-6689000Y1654300D02*
X-6519000D01*
X-6689000D02*
Y1749300D01*
X-6519000Y1654300D02*
Y1749300D01*
X3763100Y1812800D02*
X3933100D01*
X3763100Y1717800D02*
X3933100D01*
X3763100D02*
Y1812800D01*
X3933100Y1717800D02*
Y1812800D01*
X-1698500Y2239100D02*
Y2409100D01*
X-1603500Y2239100D02*
Y2409100D01*
X-1698500Y2239100D02*
X-1603500D01*
X-1698500Y2409100D02*
X-1603500D01*
X-3857500Y2188300D02*
Y2358300D01*
X-3762500Y2188300D02*
Y2358300D01*
X-3857500Y2188300D02*
X-3762500D01*
X-3857500Y2358300D02*
X-3762500D01*
X-5902200Y2011700D02*
Y2181700D01*
X-5807200Y2011700D02*
Y2181700D01*
X-5902200Y2011700D02*
X-5807200D01*
X-5902200Y2181700D02*
X-5807200D01*
X-12760200Y-935900D02*
Y-765900D01*
X-12665200Y-935900D02*
Y-765900D01*
X-12760200Y-935900D02*
X-12665200D01*
X-12760200Y-765900D02*
X-12665200D01*
X358900Y2188300D02*
Y2358300D01*
X453900Y2188300D02*
Y2358300D01*
X358900Y2188300D02*
X453900D01*
X358900Y2358300D02*
X453900D01*
X4524500Y2213700D02*
Y2383700D01*
X4619500Y2213700D02*
Y2383700D01*
X4524500Y2213700D02*
X4619500D01*
X4524500Y2383700D02*
X4619500D01*
X1799500Y1679700D02*
Y1774700D01*
X1629500Y1679700D02*
Y1774700D01*
Y1679700D02*
X1799500D01*
X1629500Y1774700D02*
X1799500D01*
X2429000Y2383700D02*
X2524000D01*
X2429000Y2213700D02*
X2524000D01*
Y2383700D01*
X2429000Y2213700D02*
Y2383700D01*
%TF.MD5,6fb35069b73a75b47ef264de4125ca2f*%
M02*
