G04*
G04 #@! TF.GenerationSoftware,Altium Limited,Altium Designer,22.1.2 (22)*
G04*
G04 Layer_Physical_Order=2*
G04 Layer_Color=16711680*
%FSLAX44Y44*%
%MOMM*%
G71*
G04*
G04 #@! TF.SameCoordinates,E17F41A4-0C7A-49D5-8B51-7FD3D5A7BB14*
G04*
G04*
G04 #@! TF.FilePolarity,Positive*
G04*
G01*
G75*
%ADD11C,0.2000*%
%ADD12C,0.1270*%
%ADD13C,0.2540*%
%ADD16C,0.1000*%
%ADD17C,0.2800*%
%ADD18C,0.0500*%
%ADD20R,1.5000X1.5000*%
%ADD24R,1.5000X1.5000*%
%ADD63C,1.9800*%
%ADD64C,1.9350*%
%ADD65R,1.9800X1.9800*%
%ADD66C,1.4980*%
%ADD67R,1.4980X1.4980*%
%ADD68C,8.0000*%
%ADD69C,1.4000*%
%ADD70C,1.5000*%
%ADD71R,1.5300X1.5300*%
%ADD72C,1.5300*%
%ADD73R,2.0400X2.0400*%
%ADD74C,2.0400*%
%ADD75R,1.6500X1.6500*%
%ADD76C,1.6500*%
%ADD77C,1.3080*%
%ADD78R,1.3080X1.3080*%
%ADD79R,1.6500X1.6500*%
%ADD80C,6.0000*%
%ADD81R,6.0000X6.0000*%
%ADD82R,1.4000X1.4000*%
%ADD83R,6.0000X6.0000*%
%ADD84R,1.5600X1.5600*%
%ADD85C,1.5600*%
%ADD86R,1.3080X1.3080*%
%ADD87C,1.2700*%
%ADD88C,2.0000*%
G36*
X2213610Y1595070D02*
X2216770D01*
X2223036Y1594245D01*
X2229140Y1592610D01*
X2234979Y1590191D01*
X2240452Y1587031D01*
X2245465Y1583184D01*
X2249934Y1578716D01*
X2253781Y1573702D01*
X2256941Y1568229D01*
X2259360Y1562390D01*
X2260995Y1556286D01*
X2261820Y1550020D01*
X2261820Y1546860D01*
Y889050D01*
X2250693D01*
X2250526Y890320D01*
X2252601Y890876D01*
X2254629Y892046D01*
X2256284Y893701D01*
X2257454Y895729D01*
X2258033Y897890D01*
X2240307D01*
X2240886Y895729D01*
X2242056Y893701D01*
X2243711Y892046D01*
X2245739Y890876D01*
X2247814Y890320D01*
X2247647Y889050D01*
X2177033D01*
X2176866Y890320D01*
X2178941Y890876D01*
X2180968Y892046D01*
X2182624Y893701D01*
X2183794Y895729D01*
X2184373Y897890D01*
X2166647D01*
X2167226Y895729D01*
X2168396Y893701D01*
X2170051Y892046D01*
X2172078Y890876D01*
X2174154Y890320D01*
X2173987Y889050D01*
X2110993D01*
X2110826Y890320D01*
X2112901Y890876D01*
X2114928Y892046D01*
X2116584Y893701D01*
X2117754Y895729D01*
X2118333Y897890D01*
X2100607D01*
X2101186Y895729D01*
X2102356Y893701D01*
X2104011Y892046D01*
X2106038Y890876D01*
X2108114Y890320D01*
X2107947Y889050D01*
X2044953D01*
X2044786Y890320D01*
X2046861Y890876D01*
X2048889Y892046D01*
X2050544Y893701D01*
X2051714Y895729D01*
X2052293Y897890D01*
X2034567D01*
X2035146Y895729D01*
X2036316Y893701D01*
X2037971Y892046D01*
X2039998Y890876D01*
X2042074Y890320D01*
X2041907Y889050D01*
X1979436D01*
X1978913Y889050D01*
X1978746Y890320D01*
X1979294Y890467D01*
X1980821Y890876D01*
X1982849Y892046D01*
X1984504Y893701D01*
X1985674Y895729D01*
X1986253Y897890D01*
X1968527D01*
X1969106Y895729D01*
X1970276Y893701D01*
X1971931Y892046D01*
X1973958Y890876D01*
X1976219Y890270D01*
X1976808D01*
X1977803Y889264D01*
X1977878Y889000D01*
X1977868Y888944D01*
X1977841Y888925D01*
X1977774Y888888D01*
X1977772Y888888D01*
X1977772Y888888D01*
X1977664Y888866D01*
X1977487Y888831D01*
X1977372Y888755D01*
X1977241Y888714D01*
X1977018Y888528D01*
X1976945Y888498D01*
X1976786Y888391D01*
X1976699Y888305D01*
X1976647Y888270D01*
X1976615Y888238D01*
X1976502Y888171D01*
X1975956Y887685D01*
X1975935Y887676D01*
X1975799Y887540D01*
X1975574Y887585D01*
X1975339Y887682D01*
X1975100Y887730D01*
X1974845Y887730D01*
X1974595Y887780D01*
X1736943D01*
X1736457Y888953D01*
X1909235Y1061731D01*
X1910077Y1062991D01*
X1910373Y1064478D01*
Y1104343D01*
X1950875Y1144845D01*
X2032020D01*
Y1139190D01*
X2051100D01*
Y1144845D01*
X2054180D01*
X2055667Y1145141D01*
X2056927Y1145983D01*
X2094115Y1183171D01*
X2096658Y1182490D01*
X2099302D01*
X2101855Y1183174D01*
X2104145Y1184496D01*
X2106014Y1186365D01*
X2107336Y1188655D01*
X2108020Y1191208D01*
Y1193852D01*
X2107336Y1196405D01*
X2106014Y1198695D01*
X2104145Y1200564D01*
X2101855Y1201886D01*
X2099302Y1202570D01*
X2096658D01*
X2094105Y1201886D01*
X2091815Y1200564D01*
X2089946Y1198695D01*
X2088624Y1196405D01*
X2087940Y1193852D01*
Y1191208D01*
X2088621Y1188665D01*
X2052571Y1152615D01*
X1949266D01*
X1947779Y1152319D01*
X1946519Y1151477D01*
X1903741Y1108699D01*
X1902899Y1107439D01*
X1902603Y1105952D01*
Y1066087D01*
X1788170Y951654D01*
X1786900Y952180D01*
Y953822D01*
X1786216Y956375D01*
X1784894Y958665D01*
X1783025Y960534D01*
X1780735Y961856D01*
X1778182Y962540D01*
X1775538D01*
X1772985Y961856D01*
X1770695Y960534D01*
X1768826Y958665D01*
X1767504Y956375D01*
X1766820Y953822D01*
Y951178D01*
X1767504Y948625D01*
X1768826Y946335D01*
X1770695Y944466D01*
X1772985Y943144D01*
X1775538Y942460D01*
X1777180D01*
X1777706Y941190D01*
X1715431Y878915D01*
X1160780D01*
X1159293Y878619D01*
X1158033Y877777D01*
X1089973Y809717D01*
X1089131Y808457D01*
X1088835Y806970D01*
Y722134D01*
X1088729Y722105D01*
X1086371Y720744D01*
X1084446Y718819D01*
X1083085Y716461D01*
X1082380Y713831D01*
Y711109D01*
X1083085Y708479D01*
X1084446Y706121D01*
X1086371Y704196D01*
X1088729Y702835D01*
X1091359Y702130D01*
X1094081D01*
X1096711Y702835D01*
X1099069Y704196D01*
X1100994Y706121D01*
X1102355Y708479D01*
X1103060Y711109D01*
Y713831D01*
X1102355Y716461D01*
X1100994Y718819D01*
X1099069Y720744D01*
X1096711Y722105D01*
X1096605Y722134D01*
Y805361D01*
X1162389Y871145D01*
X1450290D01*
Y676512D01*
X1450134Y676278D01*
X1450060Y676101D01*
X1450022Y675912D01*
X1449965Y675802D01*
X1449927Y675673D01*
X1449920Y675604D01*
X1449909Y675577D01*
X1449909Y675577D01*
X1449909Y675535D01*
X1449894Y675495D01*
X1449894Y675495D01*
X1449896Y675421D01*
X1449873Y675342D01*
X1449869Y675303D01*
X1449831Y675174D01*
X1449816Y675010D01*
X1449816Y675009D01*
X1449764Y674431D01*
X1449780Y674273D01*
X1449755Y674124D01*
X1449757Y674040D01*
X1449812Y673796D01*
X1449817Y673626D01*
X1449818Y673621D01*
X1449859Y673527D01*
X1449870Y673426D01*
X1449890Y673389D01*
X1449902Y673275D01*
X1449950Y673186D01*
X1449980Y673054D01*
X1449980Y673054D01*
X1450011Y672985D01*
X1450180Y672746D01*
X1450199Y672686D01*
X1450224Y672639D01*
X1450287Y672563D01*
X1450383Y672386D01*
X1450482Y672266D01*
X1450569Y672195D01*
X1450594Y672160D01*
X1450607Y672152D01*
X1450720Y671992D01*
X1451181Y671554D01*
X1451181Y671554D01*
X1451347Y671397D01*
X1451531Y671281D01*
X1451544Y671268D01*
X1451568Y671253D01*
X1451573Y671248D01*
X1451573Y671248D01*
X1451579Y671246D01*
X1451749Y671085D01*
X1451932Y670969D01*
X1452124Y670896D01*
X1452337Y670753D01*
X1452348Y670749D01*
X1452376Y670744D01*
X1452399Y670729D01*
X1452651Y670686D01*
X1452852Y670602D01*
X1453065Y670560D01*
X1453300D01*
X1453338Y670553D01*
X1453357D01*
X1453570Y670510D01*
X1564590D01*
Y472440D01*
X1563538Y471220D01*
X1454044D01*
X1454019Y471215D01*
X1453992Y471219D01*
X1453524Y471116D01*
X1453053Y471023D01*
X1453031Y471008D01*
X1453006Y471002D01*
X1451841Y470493D01*
X1451669Y470372D01*
X1451473Y470294D01*
X1451276Y470103D01*
X1451049Y469951D01*
X1451035Y469930D01*
X1451013Y469914D01*
X1450899Y469737D01*
X1450748Y469591D01*
X1450639Y469338D01*
X1450487Y469111D01*
X1450482Y469085D01*
X1450468Y469063D01*
X1450431Y468856D01*
X1450348Y468663D01*
X1450348Y468662D01*
X1450344Y468388D01*
X1450290Y468120D01*
Y297074D01*
X1450295Y297048D01*
X1450291Y297022D01*
X1450394Y296554D01*
X1450487Y296083D01*
X1450502Y296061D01*
X1450508Y296036D01*
X1451017Y294871D01*
X1451138Y294699D01*
X1451216Y294503D01*
X1451407Y294306D01*
X1451559Y294079D01*
X1451580Y294065D01*
X1451596Y294042D01*
X1451773Y293929D01*
X1451919Y293778D01*
X1452172Y293669D01*
X1452399Y293517D01*
X1452425Y293512D01*
X1452447Y293498D01*
X1452654Y293461D01*
X1452847Y293378D01*
X1452848Y293378D01*
X1453121Y293374D01*
X1453390Y293320D01*
X1549350D01*
Y54413D01*
X1547057Y52120D01*
X1314500D01*
Y117855D01*
X1314476Y117972D01*
X1314476Y117973D01*
X1314476Y118107D01*
X1314450Y118240D01*
Y118360D01*
X1314427Y118478D01*
X1314415Y118596D01*
X1314381Y118712D01*
X1314368Y118847D01*
X1314330Y118976D01*
X1314330Y118976D01*
X1314319Y119095D01*
X1314284Y119210D01*
X1314284Y119210D01*
X1314284Y119211D01*
X1314127Y119736D01*
X1314090Y119806D01*
X1314086Y119840D01*
X1314086Y119840D01*
X1314059Y119888D01*
X1314040Y119982D01*
X1314040Y119983D01*
X1314021Y120011D01*
X1314021Y120013D01*
X1313980Y120111D01*
X1313855Y120299D01*
X1313798Y120437D01*
X1313782Y120461D01*
X1313780Y120463D01*
X1313779Y120465D01*
X1313778Y120467D01*
X1313753Y120491D01*
X1313709Y120599D01*
X1313646Y120661D01*
X1313597Y120754D01*
X1313565Y120794D01*
X1313474Y120869D01*
X1313419Y120951D01*
X1313229Y121078D01*
X1313213Y121094D01*
X1313198Y121117D01*
X1313118Y121197D01*
X1313097Y121211D01*
X1313096Y121212D01*
X1313095Y121213D01*
X1312994Y121313D01*
X1312806Y121439D01*
X1312727Y121518D01*
X1312706Y121532D01*
X1312503Y121617D01*
X1312339Y121732D01*
X1312338Y121733D01*
X1312306Y121740D01*
X1312278Y121758D01*
X1312278Y121758D01*
X1312256Y121773D01*
X1312007Y121822D01*
X1311772Y121920D01*
X1311516Y121920D01*
X1311447Y121934D01*
X1311353Y121955D01*
X1311346Y121954D01*
X1311265Y121970D01*
X1311011Y121970D01*
X1311010Y121970D01*
X1235604D01*
X1235579Y121965D01*
X1235553Y121969D01*
X1235084Y121866D01*
X1234613Y121773D01*
X1234591Y121758D01*
X1234566Y121752D01*
X1233401Y121243D01*
X1233229Y121122D01*
X1233033Y121045D01*
X1232836Y120853D01*
X1232609Y120701D01*
X1232595Y120680D01*
X1232572Y120664D01*
X1232459Y120487D01*
X1232308Y120341D01*
X1232199Y120088D01*
X1232047Y119861D01*
X1232042Y119835D01*
X1232028Y119813D01*
X1231991Y119606D01*
X1231908Y119413D01*
X1231908Y119412D01*
X1231904Y119138D01*
X1231850Y118870D01*
Y84125D01*
X1230580Y84025D01*
X1230179Y86560D01*
X1228596Y91431D01*
X1226271Y95995D01*
X1223260Y100138D01*
X1219638Y103760D01*
X1215495Y106771D01*
X1210931Y109096D01*
X1206060Y110679D01*
X1201001Y111480D01*
X1199710D01*
Y78940D01*
Y46400D01*
X1201001D01*
X1206060Y47201D01*
X1210931Y48784D01*
X1215495Y51109D01*
X1219638Y54120D01*
X1223260Y57742D01*
X1226271Y61885D01*
X1228596Y66449D01*
X1230179Y71320D01*
X1230580Y73855D01*
X1231850Y73755D01*
Y2590D01*
X1230580Y2590D01*
X50000Y2589D01*
X46893D01*
X40731Y3401D01*
X34728Y5009D01*
X28986Y7388D01*
X23604Y10495D01*
X18673Y14278D01*
X14278Y18673D01*
X10495Y23604D01*
X7388Y28986D01*
X5009Y34728D01*
X3401Y40731D01*
X2590Y46893D01*
X2590Y50000D01*
X2590Y1548130D01*
Y1551207D01*
X3393Y1557307D01*
X4985Y1563251D01*
X7340Y1568936D01*
X10417Y1574265D01*
X14163Y1579146D01*
X18514Y1583497D01*
X23395Y1587243D01*
X28724Y1590320D01*
X34409Y1592675D01*
X40353Y1594267D01*
X46453Y1595070D01*
X49530Y1595070D01*
X2213610Y1595070D01*
D02*
G37*
G36*
X1974834Y885143D02*
Y885018D01*
X1974850Y884935D01*
Y641400D01*
Y638810D01*
X2210815D01*
X2211028Y638768D01*
X2211070Y638555D01*
Y602093D01*
X2210773Y601842D01*
X2210153Y601763D01*
X2209101Y602093D01*
X2208274Y603525D01*
X2206265Y605534D01*
X2203805Y606955D01*
X2201060Y607690D01*
X2200910D01*
Y596900D01*
Y586110D01*
X2201060D01*
X2203805Y586845D01*
X2206265Y588266D01*
X2208274Y590275D01*
X2209101Y591707D01*
X2210153Y592037D01*
X2210773Y591958D01*
X2211070Y591707D01*
Y576835D01*
X2211028Y576622D01*
X2210815Y576580D01*
X2100580D01*
Y463601D01*
X2100325Y463550D01*
X1698041D01*
X1697990Y463805D01*
Y871145D01*
X1717040D01*
X1718527Y871441D01*
X1719787Y872283D01*
X1732694Y885190D01*
X1974595D01*
X1974834Y885143D01*
D02*
G37*
G36*
X2261820Y463550D02*
X2103425D01*
X2103170Y463601D01*
Y573990D01*
X2211070D01*
X2212061Y574187D01*
X2212901Y574749D01*
X2213463Y575589D01*
X2213660Y576580D01*
Y592961D01*
X2213594Y593293D01*
X2213571Y593631D01*
X2213496Y593784D01*
X2213463Y593952D01*
X2213274Y594234D01*
X2213125Y594538D01*
X2212996Y594650D01*
X2212901Y594792D01*
X2212620Y594981D01*
X2212365Y595204D01*
X2212203Y595259D01*
X2212061Y595354D01*
X2211729Y595420D01*
X2211408Y595529D01*
X2211070Y595573D01*
Y598227D01*
X2211408Y598271D01*
X2211729Y598380D01*
X2212061Y598446D01*
X2212203Y598541D01*
X2212365Y598596D01*
X2212620Y598820D01*
X2212901Y599008D01*
X2212996Y599150D01*
X2213125Y599263D01*
X2213274Y599566D01*
X2213463Y599848D01*
X2213496Y600015D01*
X2213571Y600169D01*
X2213594Y600507D01*
X2213660Y600839D01*
Y638810D01*
X2213463Y639801D01*
X2212901Y640641D01*
X2212061Y641203D01*
X2211070Y641400D01*
X1977440D01*
Y885190D01*
X1977374Y885523D01*
X1977408Y885557D01*
X1977564Y885649D01*
X1978225Y886238D01*
X1978384Y886345D01*
X1978478Y886438D01*
X1978610Y886452D01*
X1978635Y886460D01*
X2261820D01*
Y463550D01*
D02*
G37*
G36*
X1941780Y276860D02*
X1941977Y275869D01*
X1942539Y275029D01*
X1943379Y274467D01*
X1944370Y274270D01*
X2209750D01*
Y255529D01*
X2208480Y255188D01*
X2208274Y255545D01*
X2206265Y257554D01*
X2203805Y258975D01*
X2201060Y259710D01*
X2200910D01*
Y248920D01*
Y238130D01*
X2201060D01*
X2203805Y238865D01*
X2206265Y240286D01*
X2208274Y242295D01*
X2208480Y242652D01*
X2209750Y242311D01*
Y213410D01*
X2104390D01*
X2103399Y213213D01*
X2102559Y212651D01*
X2101997Y211811D01*
X2101800Y210820D01*
Y67310D01*
X1699260D01*
X1699163Y67213D01*
X1697990Y67699D01*
Y460960D01*
X1941780D01*
Y276860D01*
D02*
G37*
G36*
X2102179Y461157D02*
X2103170Y460960D01*
X2261820D01*
Y67310D01*
X2253285D01*
X2252645Y68855D01*
X2249857Y73685D01*
X2246462Y78109D01*
X2242519Y82052D01*
X2238095Y85447D01*
X2233265Y88235D01*
X2228113Y90369D01*
X2222727Y91812D01*
X2217198Y92540D01*
X2211622D01*
X2206093Y91812D01*
X2200707Y90369D01*
X2195555Y88235D01*
X2190725Y85447D01*
X2186301Y82052D01*
X2182358Y78109D01*
X2178963Y73685D01*
X2176175Y68855D01*
X2175535Y67310D01*
X2104645D01*
X2104640Y67311D01*
X2104640D01*
X2104511Y67337D01*
X2104395Y67360D01*
X2104395D01*
X2104390Y67361D01*
X2104390Y67361D01*
Y210565D01*
X2104432Y210778D01*
X2104645Y210820D01*
X2212340D01*
Y276860D01*
X1944625D01*
X1944412Y276902D01*
X1944370Y277115D01*
Y460960D01*
X2100580D01*
X2101571Y461157D01*
X2101875Y461360D01*
X2102179Y461157D01*
D02*
G37*
G36*
X1695400Y463805D02*
X1695450Y463555D01*
X1695450Y463300D01*
X1695501Y463045D01*
X1695598Y462809D01*
X1695648Y462559D01*
X1695790Y462347D01*
X1695817Y462280D01*
X1695597Y461951D01*
X1695400Y460960D01*
Y67699D01*
X1695597Y66708D01*
X1696159Y65868D01*
X1696999Y65307D01*
X1696999Y65307D01*
X1698172Y64821D01*
X1698172Y64821D01*
X1699163Y64624D01*
X1699649Y64720D01*
X2101800D01*
X2102791Y64917D01*
X2103120Y65137D01*
X2103189Y65108D01*
X2103399Y64968D01*
X2103404Y64967D01*
X2103404Y64967D01*
X2103650Y64918D01*
X2103887Y64820D01*
X2103889D01*
X2103890Y64820D01*
X2104135Y64771D01*
X2104147D01*
X2104392Y64770D01*
X2104645Y64720D01*
X2173342D01*
X2173973Y63450D01*
X2172598Y58317D01*
X2171870Y52788D01*
Y47212D01*
X2172598Y41683D01*
X2174041Y36297D01*
X2176175Y31145D01*
X2178963Y26315D01*
X2182358Y21891D01*
X2186301Y17948D01*
X2190725Y14553D01*
X2195555Y11765D01*
X2200707Y9631D01*
X2206093Y8188D01*
X2211622Y7460D01*
X2217198D01*
X2222727Y8188D01*
X2228113Y9631D01*
X2233265Y11765D01*
X2238095Y14553D01*
X2242519Y17948D01*
X2246462Y21891D01*
X2249857Y26315D01*
X2252645Y31145D01*
X2254779Y36297D01*
X2256222Y41683D01*
X2256950Y47212D01*
Y52788D01*
X2256222Y58317D01*
X2254847Y63450D01*
X2255478Y64720D01*
X2261820D01*
Y50800D01*
Y47640D01*
X2260995Y41374D01*
X2259360Y35270D01*
X2256941Y29431D01*
X2253781Y23958D01*
X2249934Y18944D01*
X2245466Y14476D01*
X2240452Y10628D01*
X2234979Y7469D01*
X2229140Y5050D01*
X2223036Y3415D01*
X2216770Y2590D01*
X2213610Y2590D01*
X1234440Y2590D01*
Y118870D01*
X1234440Y118870D01*
X1235604Y119380D01*
X1311010D01*
X1311011Y119380D01*
X1311266Y119380D01*
X1311287Y119366D01*
X1311287Y119366D01*
X1311366Y119286D01*
X1311555Y119160D01*
X1311588Y119120D01*
X1311628Y119022D01*
X1311629Y119021D01*
X1311629Y119021D01*
X1311645Y118997D01*
X1311646Y118996D01*
X1311803Y118470D01*
Y118470D01*
X1311837Y118354D01*
X1311848Y118236D01*
X1311887Y118107D01*
X1311887Y117972D01*
X1311910Y117855D01*
Y52120D01*
Y49530D01*
X1548130D01*
X1551940Y53340D01*
Y295910D01*
X1453390D01*
X1453390Y295910D01*
X1452880Y297074D01*
Y468120D01*
X1452880Y468120D01*
X1454044Y468630D01*
X1570990D01*
X1567180Y472440D01*
Y673100D01*
X1453570D01*
X1453357Y673142D01*
X1453338D01*
X1453327Y673147D01*
X1453313Y673160D01*
X1453130Y673276D01*
X1452964Y673433D01*
X1452963Y673433D01*
X1452502Y673870D01*
X1452477Y673918D01*
X1452377Y674038D01*
X1452346Y674108D01*
X1452344Y674192D01*
X1452343Y674196D01*
X1452395Y674774D01*
X1452396Y674775D01*
X1452410Y674940D01*
X1452448Y675069D01*
X1452449Y675069D01*
X1452449Y675069D01*
X1452452Y675108D01*
X1452526Y675286D01*
X1452880Y675640D01*
Y871145D01*
X1695400D01*
Y463805D01*
D02*
G37*
%LPC*%
G36*
X2091050Y1557650D02*
X2069470D01*
Y1536070D01*
X2091050D01*
Y1557650D01*
D02*
G37*
G36*
X2030880D02*
X2028039D01*
X2025295Y1556915D01*
X2022835Y1555494D01*
X2020826Y1553485D01*
X2019405Y1551025D01*
X2018670Y1548280D01*
Y1545439D01*
X2019405Y1542695D01*
X2020826Y1540235D01*
X2022835Y1538226D01*
X2025295Y1536805D01*
X2028039Y1536070D01*
X2030880D01*
X2033625Y1536805D01*
X2036085Y1538226D01*
X2038094Y1540235D01*
X2039515Y1542695D01*
X2040250Y1545439D01*
Y1548280D01*
X2039515Y1551025D01*
X2038094Y1553485D01*
X2036085Y1555494D01*
X2033625Y1556915D01*
X2030880Y1557650D01*
D02*
G37*
G36*
X1885232D02*
X1863652D01*
Y1536070D01*
X1885232D01*
Y1557650D01*
D02*
G37*
G36*
X1825062D02*
X1822221D01*
X1819477Y1556915D01*
X1817016Y1555494D01*
X1815007Y1553485D01*
X1813587Y1551025D01*
X1812852Y1548280D01*
Y1545439D01*
X1813587Y1542695D01*
X1815007Y1540235D01*
X1817016Y1538226D01*
X1819477Y1536805D01*
X1822221Y1536070D01*
X1825062D01*
X1827807Y1536805D01*
X1830267Y1538226D01*
X1832276Y1540235D01*
X1833696Y1542695D01*
X1834432Y1545439D01*
Y1548280D01*
X1833696Y1551025D01*
X1832276Y1553485D01*
X1830267Y1555494D01*
X1827807Y1556915D01*
X1825062Y1557650D01*
D02*
G37*
G36*
X1679413D02*
X1657834D01*
Y1536070D01*
X1679413D01*
Y1557650D01*
D02*
G37*
G36*
X1619244D02*
X1616403D01*
X1613659Y1556915D01*
X1611198Y1555494D01*
X1609189Y1553485D01*
X1607769Y1551025D01*
X1607034Y1548280D01*
Y1545439D01*
X1607769Y1542695D01*
X1609189Y1540235D01*
X1611198Y1538226D01*
X1613659Y1536805D01*
X1616403Y1536070D01*
X1619244D01*
X1621988Y1536805D01*
X1624449Y1538226D01*
X1626458Y1540235D01*
X1627878Y1542695D01*
X1628613Y1545439D01*
Y1548280D01*
X1627878Y1551025D01*
X1626458Y1553485D01*
X1624449Y1555494D01*
X1621988Y1556915D01*
X1619244Y1557650D01*
D02*
G37*
G36*
X1473595D02*
X1452015D01*
Y1536070D01*
X1473595D01*
Y1557650D01*
D02*
G37*
G36*
X1413426D02*
X1410585D01*
X1407841Y1556915D01*
X1405380Y1555494D01*
X1403371Y1553485D01*
X1401951Y1551025D01*
X1401215Y1548280D01*
Y1545439D01*
X1401951Y1542695D01*
X1403371Y1540235D01*
X1405380Y1538226D01*
X1407841Y1536805D01*
X1410585Y1536070D01*
X1413426D01*
X1416170Y1536805D01*
X1418631Y1538226D01*
X1420639Y1540235D01*
X1422060Y1542695D01*
X1422795Y1545439D01*
Y1548280D01*
X1422060Y1551025D01*
X1420639Y1553485D01*
X1418631Y1555494D01*
X1416170Y1556915D01*
X1413426Y1557650D01*
D02*
G37*
G36*
X1267777D02*
X1246197D01*
Y1536070D01*
X1267777D01*
Y1557650D01*
D02*
G37*
G36*
X1207608D02*
X1204767D01*
X1202022Y1556915D01*
X1199562Y1555494D01*
X1197553Y1553485D01*
X1196132Y1551025D01*
X1195397Y1548280D01*
Y1545439D01*
X1196132Y1542695D01*
X1197553Y1540235D01*
X1199562Y1538226D01*
X1202022Y1536805D01*
X1204767Y1536070D01*
X1207608D01*
X1210352Y1536805D01*
X1212812Y1538226D01*
X1214821Y1540235D01*
X1216242Y1542695D01*
X1216977Y1545439D01*
Y1548280D01*
X1216242Y1551025D01*
X1214821Y1553485D01*
X1212812Y1555494D01*
X1210352Y1556915D01*
X1207608Y1557650D01*
D02*
G37*
G36*
X1061959D02*
X1040379D01*
Y1536070D01*
X1061959D01*
Y1557650D01*
D02*
G37*
G36*
X1001789D02*
X998948D01*
X996204Y1556915D01*
X993744Y1555494D01*
X991735Y1553485D01*
X990314Y1551025D01*
X989579Y1548280D01*
Y1545439D01*
X990314Y1542695D01*
X991735Y1540235D01*
X993744Y1538226D01*
X996204Y1536805D01*
X998948Y1536070D01*
X1001789D01*
X1004534Y1536805D01*
X1006994Y1538226D01*
X1009003Y1540235D01*
X1010424Y1542695D01*
X1011159Y1545439D01*
Y1548280D01*
X1010424Y1551025D01*
X1009003Y1553485D01*
X1006994Y1555494D01*
X1004534Y1556915D01*
X1001789Y1557650D01*
D02*
G37*
G36*
X856141D02*
X834561D01*
Y1536070D01*
X856141D01*
Y1557650D01*
D02*
G37*
G36*
X795971D02*
X793130D01*
X790386Y1556915D01*
X787925Y1555494D01*
X785917Y1553485D01*
X784496Y1551025D01*
X783761Y1548280D01*
Y1545439D01*
X784496Y1542695D01*
X785917Y1540235D01*
X787925Y1538226D01*
X790386Y1536805D01*
X793130Y1536070D01*
X795971D01*
X798715Y1536805D01*
X801176Y1538226D01*
X803185Y1540235D01*
X804605Y1542695D01*
X805341Y1545439D01*
Y1548280D01*
X804605Y1551025D01*
X803185Y1553485D01*
X801176Y1555494D01*
X798715Y1556915D01*
X795971Y1557650D01*
D02*
G37*
G36*
X650322D02*
X628742D01*
Y1536070D01*
X650322D01*
Y1557650D01*
D02*
G37*
G36*
X590153D02*
X587312D01*
X584568Y1556915D01*
X582107Y1555494D01*
X580098Y1553485D01*
X578678Y1551025D01*
X577943Y1548280D01*
Y1545439D01*
X578678Y1542695D01*
X580098Y1540235D01*
X582107Y1538226D01*
X584568Y1536805D01*
X587312Y1536070D01*
X590153D01*
X592897Y1536805D01*
X595358Y1538226D01*
X597367Y1540235D01*
X598787Y1542695D01*
X599522Y1545439D01*
Y1548280D01*
X598787Y1551025D01*
X597367Y1553485D01*
X595358Y1555494D01*
X592897Y1556915D01*
X590153Y1557650D01*
D02*
G37*
G36*
X444504D02*
X422924D01*
Y1536070D01*
X444504D01*
Y1557650D01*
D02*
G37*
G36*
X384335D02*
X381494D01*
X378750Y1556915D01*
X376289Y1555494D01*
X374280Y1553485D01*
X372860Y1551025D01*
X372124Y1548280D01*
Y1545439D01*
X372860Y1542695D01*
X374280Y1540235D01*
X376289Y1538226D01*
X378750Y1536805D01*
X381494Y1536070D01*
X384335D01*
X387079Y1536805D01*
X389539Y1538226D01*
X391548Y1540235D01*
X392969Y1542695D01*
X393704Y1545439D01*
Y1548280D01*
X392969Y1551025D01*
X391548Y1553485D01*
X389539Y1555494D01*
X387079Y1556915D01*
X384335Y1557650D01*
D02*
G37*
G36*
X238686D02*
X217106D01*
Y1536070D01*
X238686D01*
Y1557650D01*
D02*
G37*
G36*
X178517D02*
X175676D01*
X172931Y1556915D01*
X170471Y1555494D01*
X168462Y1553485D01*
X167041Y1551025D01*
X166306Y1548280D01*
Y1545439D01*
X167041Y1542695D01*
X168462Y1540235D01*
X170471Y1538226D01*
X172931Y1536805D01*
X175676Y1536070D01*
X178517D01*
X181261Y1536805D01*
X183721Y1538226D01*
X185730Y1540235D01*
X187151Y1542695D01*
X187886Y1545439D01*
Y1548280D01*
X187151Y1551025D01*
X185730Y1553485D01*
X183721Y1555494D01*
X181261Y1556915D01*
X178517Y1557650D01*
D02*
G37*
G36*
X2217198Y1590200D02*
X2211622D01*
X2206093Y1589472D01*
X2200707Y1588029D01*
X2195555Y1585895D01*
X2190725Y1583107D01*
X2186301Y1579712D01*
X2182358Y1575769D01*
X2178963Y1571345D01*
X2176175Y1566515D01*
X2174041Y1561363D01*
X2172598Y1555977D01*
X2171870Y1550448D01*
Y1544872D01*
X2172598Y1539343D01*
X2174041Y1533957D01*
X2176175Y1528805D01*
X2178963Y1523975D01*
X2182358Y1519551D01*
X2186301Y1515608D01*
X2190725Y1512213D01*
X2195555Y1509425D01*
X2200707Y1507291D01*
X2206093Y1505848D01*
X2211622Y1505120D01*
X2217198D01*
X2222727Y1505848D01*
X2228113Y1507291D01*
X2233265Y1509425D01*
X2238095Y1512213D01*
X2242519Y1515608D01*
X2246462Y1519551D01*
X2249857Y1523975D01*
X2252645Y1528805D01*
X2254779Y1533957D01*
X2256222Y1539343D01*
X2256950Y1544872D01*
Y1550448D01*
X2256222Y1555977D01*
X2254779Y1561363D01*
X2252645Y1566515D01*
X2249857Y1571345D01*
X2246462Y1575769D01*
X2242519Y1579712D01*
X2238095Y1583107D01*
X2233265Y1585895D01*
X2228113Y1588029D01*
X2222727Y1589472D01*
X2217198Y1590200D01*
D02*
G37*
G36*
X52788D02*
X47212D01*
X41683Y1589472D01*
X36297Y1588029D01*
X31145Y1585895D01*
X26315Y1583107D01*
X21891Y1579712D01*
X17948Y1575769D01*
X14553Y1571345D01*
X11765Y1566515D01*
X9631Y1561363D01*
X8188Y1555977D01*
X7460Y1550448D01*
Y1544872D01*
X8188Y1539343D01*
X9631Y1533957D01*
X11765Y1528805D01*
X14553Y1523975D01*
X17948Y1519551D01*
X21891Y1515608D01*
X26315Y1512213D01*
X31145Y1509425D01*
X36297Y1507291D01*
X41683Y1505848D01*
X47212Y1505120D01*
X52788D01*
X58317Y1505848D01*
X63703Y1507291D01*
X68855Y1509425D01*
X73685Y1512213D01*
X78109Y1515608D01*
X82052Y1519551D01*
X85447Y1523975D01*
X88235Y1528805D01*
X90369Y1533957D01*
X91812Y1539343D01*
X92540Y1544872D01*
Y1550448D01*
X91812Y1555977D01*
X90369Y1561363D01*
X88235Y1566515D01*
X85447Y1571345D01*
X82052Y1575769D01*
X78109Y1579712D01*
X73685Y1583107D01*
X68855Y1585895D01*
X63703Y1588029D01*
X58317Y1589472D01*
X52788Y1590200D01*
D02*
G37*
G36*
X2105068Y1466630D02*
X2101792D01*
X2098628Y1465782D01*
X2095792Y1464144D01*
X2093475Y1461828D01*
X2091838Y1458992D01*
X2090990Y1455828D01*
Y1452552D01*
X2091838Y1449388D01*
X2093475Y1446552D01*
X2095792Y1444236D01*
X2098628Y1442598D01*
X2101792Y1441750D01*
X2105068D01*
X2108232Y1442598D01*
X2111068Y1444236D01*
X2113385Y1446552D01*
X2115022Y1449388D01*
X2115870Y1452552D01*
Y1455828D01*
X2115022Y1458992D01*
X2113385Y1461828D01*
X2111068Y1464144D01*
X2108232Y1465782D01*
X2105068Y1466630D01*
D02*
G37*
G36*
X1985068D02*
X1981792D01*
X1978628Y1465782D01*
X1975792Y1464144D01*
X1973475Y1461828D01*
X1971838Y1458992D01*
X1970990Y1455828D01*
Y1452552D01*
X1971838Y1449388D01*
X1973475Y1446552D01*
X1975792Y1444236D01*
X1978628Y1442598D01*
X1981792Y1441750D01*
X1985068D01*
X1988232Y1442598D01*
X1991068Y1444236D01*
X1993385Y1446552D01*
X1995022Y1449388D01*
X1995870Y1452552D01*
Y1455828D01*
X1995022Y1458992D01*
X1993385Y1461828D01*
X1991068Y1464144D01*
X1988232Y1465782D01*
X1985068Y1466630D01*
D02*
G37*
G36*
X1901868D02*
X1898592D01*
X1895428Y1465782D01*
X1892592Y1464144D01*
X1890276Y1461828D01*
X1888638Y1458992D01*
X1887790Y1455828D01*
Y1452552D01*
X1888638Y1449388D01*
X1890276Y1446552D01*
X1892592Y1444236D01*
X1895428Y1442598D01*
X1898592Y1441750D01*
X1901868D01*
X1905032Y1442598D01*
X1907868Y1444236D01*
X1910184Y1446552D01*
X1911822Y1449388D01*
X1912670Y1452552D01*
Y1455828D01*
X1911822Y1458992D01*
X1910184Y1461828D01*
X1907868Y1464144D01*
X1905032Y1465782D01*
X1901868Y1466630D01*
D02*
G37*
G36*
X1781868D02*
X1778592D01*
X1775428Y1465782D01*
X1772592Y1464144D01*
X1770276Y1461828D01*
X1768638Y1458992D01*
X1767790Y1455828D01*
Y1452552D01*
X1768638Y1449388D01*
X1770276Y1446552D01*
X1772592Y1444236D01*
X1775428Y1442598D01*
X1778592Y1441750D01*
X1781868D01*
X1785032Y1442598D01*
X1787868Y1444236D01*
X1790184Y1446552D01*
X1791822Y1449388D01*
X1792670Y1452552D01*
Y1455828D01*
X1791822Y1458992D01*
X1790184Y1461828D01*
X1787868Y1464144D01*
X1785032Y1465782D01*
X1781868Y1466630D01*
D02*
G37*
G36*
X1698668D02*
X1695392D01*
X1692228Y1465782D01*
X1689392Y1464144D01*
X1687076Y1461828D01*
X1685438Y1458992D01*
X1684590Y1455828D01*
Y1452552D01*
X1685438Y1449388D01*
X1687076Y1446552D01*
X1689392Y1444236D01*
X1692228Y1442598D01*
X1695392Y1441750D01*
X1698668D01*
X1701832Y1442598D01*
X1704668Y1444236D01*
X1706985Y1446552D01*
X1708622Y1449388D01*
X1709470Y1452552D01*
Y1455828D01*
X1708622Y1458992D01*
X1706985Y1461828D01*
X1704668Y1464144D01*
X1701832Y1465782D01*
X1698668Y1466630D01*
D02*
G37*
G36*
X1578668D02*
X1575392D01*
X1572228Y1465782D01*
X1569392Y1464144D01*
X1567076Y1461828D01*
X1565438Y1458992D01*
X1564590Y1455828D01*
Y1452552D01*
X1565438Y1449388D01*
X1567076Y1446552D01*
X1569392Y1444236D01*
X1572228Y1442598D01*
X1575392Y1441750D01*
X1578668D01*
X1581832Y1442598D01*
X1584668Y1444236D01*
X1586985Y1446552D01*
X1588622Y1449388D01*
X1589470Y1452552D01*
Y1455828D01*
X1588622Y1458992D01*
X1586985Y1461828D01*
X1584668Y1464144D01*
X1581832Y1465782D01*
X1578668Y1466630D01*
D02*
G37*
G36*
X1495468D02*
X1492192D01*
X1489028Y1465782D01*
X1486192Y1464144D01*
X1483875Y1461828D01*
X1482238Y1458992D01*
X1481390Y1455828D01*
Y1452552D01*
X1482238Y1449388D01*
X1483875Y1446552D01*
X1486192Y1444236D01*
X1489028Y1442598D01*
X1492192Y1441750D01*
X1495468D01*
X1498632Y1442598D01*
X1501468Y1444236D01*
X1503784Y1446552D01*
X1505422Y1449388D01*
X1506270Y1452552D01*
Y1455828D01*
X1505422Y1458992D01*
X1503784Y1461828D01*
X1501468Y1464144D01*
X1498632Y1465782D01*
X1495468Y1466630D01*
D02*
G37*
G36*
X1375468D02*
X1372192D01*
X1369028Y1465782D01*
X1366192Y1464144D01*
X1363875Y1461828D01*
X1362238Y1458992D01*
X1361390Y1455828D01*
Y1452552D01*
X1362238Y1449388D01*
X1363875Y1446552D01*
X1366192Y1444236D01*
X1369028Y1442598D01*
X1372192Y1441750D01*
X1375468D01*
X1378632Y1442598D01*
X1381468Y1444236D01*
X1383784Y1446552D01*
X1385422Y1449388D01*
X1386270Y1452552D01*
Y1455828D01*
X1385422Y1458992D01*
X1383784Y1461828D01*
X1381468Y1464144D01*
X1378632Y1465782D01*
X1375468Y1466630D01*
D02*
G37*
G36*
X1292268D02*
X1288992D01*
X1285828Y1465782D01*
X1282992Y1464144D01*
X1280676Y1461828D01*
X1279038Y1458992D01*
X1278190Y1455828D01*
Y1452552D01*
X1279038Y1449388D01*
X1280676Y1446552D01*
X1282992Y1444236D01*
X1285828Y1442598D01*
X1288992Y1441750D01*
X1292268D01*
X1295432Y1442598D01*
X1298268Y1444236D01*
X1300585Y1446552D01*
X1302222Y1449388D01*
X1303070Y1452552D01*
Y1455828D01*
X1302222Y1458992D01*
X1300585Y1461828D01*
X1298268Y1464144D01*
X1295432Y1465782D01*
X1292268Y1466630D01*
D02*
G37*
G36*
X1172268D02*
X1168992D01*
X1165828Y1465782D01*
X1162992Y1464144D01*
X1160676Y1461828D01*
X1159038Y1458992D01*
X1158190Y1455828D01*
Y1452552D01*
X1159038Y1449388D01*
X1160676Y1446552D01*
X1162992Y1444236D01*
X1165828Y1442598D01*
X1168992Y1441750D01*
X1172268D01*
X1175432Y1442598D01*
X1178268Y1444236D01*
X1180584Y1446552D01*
X1182222Y1449388D01*
X1183070Y1452552D01*
Y1455828D01*
X1182222Y1458992D01*
X1180584Y1461828D01*
X1178268Y1464144D01*
X1175432Y1465782D01*
X1172268Y1466630D01*
D02*
G37*
G36*
X1089068D02*
X1085792D01*
X1082628Y1465782D01*
X1079792Y1464144D01*
X1077476Y1461828D01*
X1075838Y1458992D01*
X1074990Y1455828D01*
Y1452552D01*
X1075838Y1449388D01*
X1077476Y1446552D01*
X1079792Y1444236D01*
X1082628Y1442598D01*
X1085792Y1441750D01*
X1089068D01*
X1092232Y1442598D01*
X1095068Y1444236D01*
X1097384Y1446552D01*
X1099022Y1449388D01*
X1099870Y1452552D01*
Y1455828D01*
X1099022Y1458992D01*
X1097384Y1461828D01*
X1095068Y1464144D01*
X1092232Y1465782D01*
X1089068Y1466630D01*
D02*
G37*
G36*
X969068D02*
X965792D01*
X962628Y1465782D01*
X959792Y1464144D01*
X957476Y1461828D01*
X955838Y1458992D01*
X954990Y1455828D01*
Y1452552D01*
X955838Y1449388D01*
X957476Y1446552D01*
X959792Y1444236D01*
X962628Y1442598D01*
X965792Y1441750D01*
X969068D01*
X972232Y1442598D01*
X975068Y1444236D01*
X977384Y1446552D01*
X979022Y1449388D01*
X979870Y1452552D01*
Y1455828D01*
X979022Y1458992D01*
X977384Y1461828D01*
X975068Y1464144D01*
X972232Y1465782D01*
X969068Y1466630D01*
D02*
G37*
G36*
X885868D02*
X882592D01*
X879428Y1465782D01*
X876592Y1464144D01*
X874276Y1461828D01*
X872638Y1458992D01*
X871790Y1455828D01*
Y1452552D01*
X872638Y1449388D01*
X874276Y1446552D01*
X876592Y1444236D01*
X879428Y1442598D01*
X882592Y1441750D01*
X885868D01*
X889032Y1442598D01*
X891868Y1444236D01*
X894184Y1446552D01*
X895822Y1449388D01*
X896670Y1452552D01*
Y1455828D01*
X895822Y1458992D01*
X894184Y1461828D01*
X891868Y1464144D01*
X889032Y1465782D01*
X885868Y1466630D01*
D02*
G37*
G36*
X765868D02*
X762592D01*
X759428Y1465782D01*
X756592Y1464144D01*
X754276Y1461828D01*
X752638Y1458992D01*
X751790Y1455828D01*
Y1452552D01*
X752638Y1449388D01*
X754276Y1446552D01*
X756592Y1444236D01*
X759428Y1442598D01*
X762592Y1441750D01*
X765868D01*
X769032Y1442598D01*
X771868Y1444236D01*
X774184Y1446552D01*
X775822Y1449388D01*
X776670Y1452552D01*
Y1455828D01*
X775822Y1458992D01*
X774184Y1461828D01*
X771868Y1464144D01*
X769032Y1465782D01*
X765868Y1466630D01*
D02*
G37*
G36*
X682668D02*
X679392D01*
X676228Y1465782D01*
X673392Y1464144D01*
X671076Y1461828D01*
X669438Y1458992D01*
X668590Y1455828D01*
Y1452552D01*
X669438Y1449388D01*
X671076Y1446552D01*
X673392Y1444236D01*
X676228Y1442598D01*
X679392Y1441750D01*
X682668D01*
X685832Y1442598D01*
X688668Y1444236D01*
X690984Y1446552D01*
X692622Y1449388D01*
X693470Y1452552D01*
Y1455828D01*
X692622Y1458992D01*
X690984Y1461828D01*
X688668Y1464144D01*
X685832Y1465782D01*
X682668Y1466630D01*
D02*
G37*
G36*
X562668D02*
X559392D01*
X556228Y1465782D01*
X553392Y1464144D01*
X551076Y1461828D01*
X549438Y1458992D01*
X548590Y1455828D01*
Y1452552D01*
X549438Y1449388D01*
X551076Y1446552D01*
X553392Y1444236D01*
X556228Y1442598D01*
X559392Y1441750D01*
X562668D01*
X565832Y1442598D01*
X568668Y1444236D01*
X570984Y1446552D01*
X572622Y1449388D01*
X573470Y1452552D01*
Y1455828D01*
X572622Y1458992D01*
X570984Y1461828D01*
X568668Y1464144D01*
X565832Y1465782D01*
X562668Y1466630D01*
D02*
G37*
G36*
X479468D02*
X476192D01*
X473028Y1465782D01*
X470192Y1464144D01*
X467876Y1461828D01*
X466238Y1458992D01*
X465390Y1455828D01*
Y1452552D01*
X466238Y1449388D01*
X467876Y1446552D01*
X470192Y1444236D01*
X473028Y1442598D01*
X476192Y1441750D01*
X479468D01*
X482632Y1442598D01*
X485468Y1444236D01*
X487785Y1446552D01*
X489422Y1449388D01*
X490270Y1452552D01*
Y1455828D01*
X489422Y1458992D01*
X487785Y1461828D01*
X485468Y1464144D01*
X482632Y1465782D01*
X479468Y1466630D01*
D02*
G37*
G36*
X359468D02*
X356192D01*
X353028Y1465782D01*
X350192Y1464144D01*
X347876Y1461828D01*
X346238Y1458992D01*
X345390Y1455828D01*
Y1452552D01*
X346238Y1449388D01*
X347876Y1446552D01*
X350192Y1444236D01*
X353028Y1442598D01*
X356192Y1441750D01*
X359468D01*
X362632Y1442598D01*
X365468Y1444236D01*
X367785Y1446552D01*
X369422Y1449388D01*
X370270Y1452552D01*
Y1455828D01*
X369422Y1458992D01*
X367785Y1461828D01*
X365468Y1464144D01*
X362632Y1465782D01*
X359468Y1466630D01*
D02*
G37*
G36*
X276268D02*
X272992D01*
X269828Y1465782D01*
X266992Y1464144D01*
X264676Y1461828D01*
X263038Y1458992D01*
X262190Y1455828D01*
Y1452552D01*
X263038Y1449388D01*
X264676Y1446552D01*
X266992Y1444236D01*
X269828Y1442598D01*
X272992Y1441750D01*
X276268D01*
X279432Y1442598D01*
X282268Y1444236D01*
X284585Y1446552D01*
X286222Y1449388D01*
X287070Y1452552D01*
Y1455828D01*
X286222Y1458992D01*
X284585Y1461828D01*
X282268Y1464144D01*
X279432Y1465782D01*
X276268Y1466630D01*
D02*
G37*
G36*
X156268D02*
X152992D01*
X149828Y1465782D01*
X146992Y1464144D01*
X144676Y1461828D01*
X143038Y1458992D01*
X142190Y1455828D01*
Y1452552D01*
X143038Y1449388D01*
X144676Y1446552D01*
X146992Y1444236D01*
X149828Y1442598D01*
X152992Y1441750D01*
X156268D01*
X159432Y1442598D01*
X162268Y1444236D01*
X164585Y1446552D01*
X166222Y1449388D01*
X167070Y1452552D01*
Y1455828D01*
X166222Y1458992D01*
X164585Y1461828D01*
X162268Y1464144D01*
X159432Y1465782D01*
X156268Y1466630D01*
D02*
G37*
G36*
X2105068Y1344630D02*
X2101792D01*
X2098628Y1343782D01*
X2095792Y1342144D01*
X2093475Y1339828D01*
X2091838Y1336992D01*
X2090990Y1333828D01*
Y1330552D01*
X2091838Y1327388D01*
X2093475Y1324552D01*
X2095792Y1322236D01*
X2098628Y1320598D01*
X2101792Y1319750D01*
X2105068D01*
X2108232Y1320598D01*
X2111068Y1322236D01*
X2113385Y1324552D01*
X2115022Y1327388D01*
X2115870Y1330552D01*
Y1333828D01*
X2115022Y1336992D01*
X2113385Y1339828D01*
X2111068Y1342144D01*
X2108232Y1343782D01*
X2105068Y1344630D01*
D02*
G37*
G36*
X1995870D02*
X1970990D01*
Y1319750D01*
X1995870D01*
Y1344630D01*
D02*
G37*
G36*
X1901868D02*
X1898592D01*
X1895428Y1343782D01*
X1892592Y1342144D01*
X1890276Y1339828D01*
X1888638Y1336992D01*
X1887790Y1333828D01*
Y1330552D01*
X1888638Y1327388D01*
X1890276Y1324552D01*
X1892592Y1322236D01*
X1895428Y1320598D01*
X1898592Y1319750D01*
X1901868D01*
X1905032Y1320598D01*
X1907868Y1322236D01*
X1910184Y1324552D01*
X1911822Y1327388D01*
X1912670Y1330552D01*
Y1333828D01*
X1911822Y1336992D01*
X1910184Y1339828D01*
X1907868Y1342144D01*
X1905032Y1343782D01*
X1901868Y1344630D01*
D02*
G37*
G36*
X1792670D02*
X1767790D01*
Y1319750D01*
X1792670D01*
Y1344630D01*
D02*
G37*
G36*
X1698668D02*
X1695392D01*
X1692228Y1343782D01*
X1689392Y1342144D01*
X1687076Y1339828D01*
X1685438Y1336992D01*
X1684590Y1333828D01*
Y1330552D01*
X1685438Y1327388D01*
X1687076Y1324552D01*
X1689392Y1322236D01*
X1692228Y1320598D01*
X1695392Y1319750D01*
X1698668D01*
X1701832Y1320598D01*
X1704668Y1322236D01*
X1706985Y1324552D01*
X1708622Y1327388D01*
X1709470Y1330552D01*
Y1333828D01*
X1708622Y1336992D01*
X1706985Y1339828D01*
X1704668Y1342144D01*
X1701832Y1343782D01*
X1698668Y1344630D01*
D02*
G37*
G36*
X1589470D02*
X1564590D01*
Y1319750D01*
X1589470D01*
Y1344630D01*
D02*
G37*
G36*
X1495468D02*
X1492192D01*
X1489028Y1343782D01*
X1486192Y1342144D01*
X1483875Y1339828D01*
X1482238Y1336992D01*
X1481390Y1333828D01*
Y1330552D01*
X1482238Y1327388D01*
X1483875Y1324552D01*
X1486192Y1322236D01*
X1489028Y1320598D01*
X1492192Y1319750D01*
X1495468D01*
X1498632Y1320598D01*
X1501468Y1322236D01*
X1503784Y1324552D01*
X1505422Y1327388D01*
X1506270Y1330552D01*
Y1333828D01*
X1505422Y1336992D01*
X1503784Y1339828D01*
X1501468Y1342144D01*
X1498632Y1343782D01*
X1495468Y1344630D01*
D02*
G37*
G36*
X1386270D02*
X1361390D01*
Y1319750D01*
X1386270D01*
Y1344630D01*
D02*
G37*
G36*
X1292268D02*
X1288992D01*
X1285828Y1343782D01*
X1282992Y1342144D01*
X1280676Y1339828D01*
X1279038Y1336992D01*
X1278190Y1333828D01*
Y1330552D01*
X1279038Y1327388D01*
X1280676Y1324552D01*
X1282992Y1322236D01*
X1285828Y1320598D01*
X1288992Y1319750D01*
X1292268D01*
X1295432Y1320598D01*
X1298268Y1322236D01*
X1300585Y1324552D01*
X1302222Y1327388D01*
X1303070Y1330552D01*
Y1333828D01*
X1302222Y1336992D01*
X1300585Y1339828D01*
X1298268Y1342144D01*
X1295432Y1343782D01*
X1292268Y1344630D01*
D02*
G37*
G36*
X1183070D02*
X1158190D01*
Y1319750D01*
X1183070D01*
Y1344630D01*
D02*
G37*
G36*
X1089068D02*
X1085792D01*
X1082628Y1343782D01*
X1079792Y1342144D01*
X1077476Y1339828D01*
X1075838Y1336992D01*
X1074990Y1333828D01*
Y1330552D01*
X1075838Y1327388D01*
X1077476Y1324552D01*
X1079792Y1322236D01*
X1082628Y1320598D01*
X1085792Y1319750D01*
X1089068D01*
X1092232Y1320598D01*
X1095068Y1322236D01*
X1097384Y1324552D01*
X1099022Y1327388D01*
X1099870Y1330552D01*
Y1333828D01*
X1099022Y1336992D01*
X1097384Y1339828D01*
X1095068Y1342144D01*
X1092232Y1343782D01*
X1089068Y1344630D01*
D02*
G37*
G36*
X979870D02*
X954990D01*
Y1319750D01*
X979870D01*
Y1344630D01*
D02*
G37*
G36*
X885868D02*
X882592D01*
X879428Y1343782D01*
X876592Y1342144D01*
X874276Y1339828D01*
X872638Y1336992D01*
X871790Y1333828D01*
Y1330552D01*
X872638Y1327388D01*
X874276Y1324552D01*
X876592Y1322236D01*
X879428Y1320598D01*
X882592Y1319750D01*
X885868D01*
X889032Y1320598D01*
X891868Y1322236D01*
X894184Y1324552D01*
X895822Y1327388D01*
X896670Y1330552D01*
Y1333828D01*
X895822Y1336992D01*
X894184Y1339828D01*
X891868Y1342144D01*
X889032Y1343782D01*
X885868Y1344630D01*
D02*
G37*
G36*
X776670D02*
X751790D01*
Y1319750D01*
X776670D01*
Y1344630D01*
D02*
G37*
G36*
X682668D02*
X679392D01*
X676228Y1343782D01*
X673392Y1342144D01*
X671076Y1339828D01*
X669438Y1336992D01*
X668590Y1333828D01*
Y1330552D01*
X669438Y1327388D01*
X671076Y1324552D01*
X673392Y1322236D01*
X676228Y1320598D01*
X679392Y1319750D01*
X682668D01*
X685832Y1320598D01*
X688668Y1322236D01*
X690984Y1324552D01*
X692622Y1327388D01*
X693470Y1330552D01*
Y1333828D01*
X692622Y1336992D01*
X690984Y1339828D01*
X688668Y1342144D01*
X685832Y1343782D01*
X682668Y1344630D01*
D02*
G37*
G36*
X573470D02*
X548590D01*
Y1319750D01*
X573470D01*
Y1344630D01*
D02*
G37*
G36*
X479468D02*
X476192D01*
X473028Y1343782D01*
X470192Y1342144D01*
X467876Y1339828D01*
X466238Y1336992D01*
X465390Y1333828D01*
Y1330552D01*
X466238Y1327388D01*
X467876Y1324552D01*
X470192Y1322236D01*
X473028Y1320598D01*
X476192Y1319750D01*
X479468D01*
X482632Y1320598D01*
X485468Y1322236D01*
X487785Y1324552D01*
X489422Y1327388D01*
X490270Y1330552D01*
Y1333828D01*
X489422Y1336992D01*
X487785Y1339828D01*
X485468Y1342144D01*
X482632Y1343782D01*
X479468Y1344630D01*
D02*
G37*
G36*
X370270D02*
X345390D01*
Y1319750D01*
X370270D01*
Y1344630D01*
D02*
G37*
G36*
X276268D02*
X272992D01*
X269828Y1343782D01*
X266992Y1342144D01*
X264676Y1339828D01*
X263038Y1336992D01*
X262190Y1333828D01*
Y1330552D01*
X263038Y1327388D01*
X264676Y1324552D01*
X266992Y1322236D01*
X269828Y1320598D01*
X272992Y1319750D01*
X276268D01*
X279432Y1320598D01*
X282268Y1322236D01*
X284585Y1324552D01*
X286222Y1327388D01*
X287070Y1330552D01*
Y1333828D01*
X286222Y1336992D01*
X284585Y1339828D01*
X282268Y1342144D01*
X279432Y1343782D01*
X276268Y1344630D01*
D02*
G37*
G36*
X167070D02*
X142190D01*
Y1319750D01*
X167070D01*
Y1344630D01*
D02*
G37*
G36*
X2045038Y1324405D02*
X2041822D01*
X2038715Y1323573D01*
X2035930Y1321964D01*
X2033656Y1319690D01*
X2032047Y1316905D01*
X2031215Y1313798D01*
Y1310582D01*
X2032047Y1307475D01*
X2033656Y1304690D01*
X2035930Y1302416D01*
X2038715Y1300807D01*
X2041822Y1299975D01*
X2045038D01*
X2048145Y1300807D01*
X2050930Y1302416D01*
X2053204Y1304690D01*
X2054813Y1307475D01*
X2055645Y1310582D01*
Y1313798D01*
X2054813Y1316905D01*
X2053204Y1319690D01*
X2050930Y1321964D01*
X2048145Y1323573D01*
X2045038Y1324405D01*
D02*
G37*
G36*
X1841838D02*
X1838622D01*
X1835515Y1323573D01*
X1832730Y1321964D01*
X1830456Y1319690D01*
X1828847Y1316905D01*
X1828015Y1313798D01*
Y1310582D01*
X1828847Y1307475D01*
X1830456Y1304690D01*
X1832730Y1302416D01*
X1835515Y1300807D01*
X1838622Y1299975D01*
X1841838D01*
X1844945Y1300807D01*
X1847730Y1302416D01*
X1850004Y1304690D01*
X1851613Y1307475D01*
X1852445Y1310582D01*
Y1313798D01*
X1851613Y1316905D01*
X1850004Y1319690D01*
X1847730Y1321964D01*
X1844945Y1323573D01*
X1841838Y1324405D01*
D02*
G37*
G36*
X1638638D02*
X1635422D01*
X1632315Y1323573D01*
X1629530Y1321964D01*
X1627256Y1319690D01*
X1625647Y1316905D01*
X1624815Y1313798D01*
Y1310582D01*
X1625647Y1307475D01*
X1627256Y1304690D01*
X1629530Y1302416D01*
X1632315Y1300807D01*
X1635422Y1299975D01*
X1638638D01*
X1641745Y1300807D01*
X1644530Y1302416D01*
X1646804Y1304690D01*
X1648413Y1307475D01*
X1649245Y1310582D01*
Y1313798D01*
X1648413Y1316905D01*
X1646804Y1319690D01*
X1644530Y1321964D01*
X1641745Y1323573D01*
X1638638Y1324405D01*
D02*
G37*
G36*
X1435438D02*
X1432222D01*
X1429115Y1323573D01*
X1426330Y1321964D01*
X1424056Y1319690D01*
X1422447Y1316905D01*
X1421615Y1313798D01*
Y1310582D01*
X1422447Y1307475D01*
X1424056Y1304690D01*
X1426330Y1302416D01*
X1429115Y1300807D01*
X1432222Y1299975D01*
X1435438D01*
X1438545Y1300807D01*
X1441330Y1302416D01*
X1443604Y1304690D01*
X1445213Y1307475D01*
X1446045Y1310582D01*
Y1313798D01*
X1445213Y1316905D01*
X1443604Y1319690D01*
X1441330Y1321964D01*
X1438545Y1323573D01*
X1435438Y1324405D01*
D02*
G37*
G36*
X1232238D02*
X1229022D01*
X1225915Y1323573D01*
X1223130Y1321964D01*
X1220856Y1319690D01*
X1219247Y1316905D01*
X1218415Y1313798D01*
Y1310582D01*
X1219247Y1307475D01*
X1220856Y1304690D01*
X1223130Y1302416D01*
X1225915Y1300807D01*
X1229022Y1299975D01*
X1232238D01*
X1235345Y1300807D01*
X1238130Y1302416D01*
X1240404Y1304690D01*
X1242013Y1307475D01*
X1242845Y1310582D01*
Y1313798D01*
X1242013Y1316905D01*
X1240404Y1319690D01*
X1238130Y1321964D01*
X1235345Y1323573D01*
X1232238Y1324405D01*
D02*
G37*
G36*
X1029038D02*
X1025822D01*
X1022715Y1323573D01*
X1019930Y1321964D01*
X1017656Y1319690D01*
X1016047Y1316905D01*
X1015215Y1313798D01*
Y1310582D01*
X1016047Y1307475D01*
X1017656Y1304690D01*
X1019930Y1302416D01*
X1022715Y1300807D01*
X1025822Y1299975D01*
X1029038D01*
X1032145Y1300807D01*
X1034930Y1302416D01*
X1037204Y1304690D01*
X1038813Y1307475D01*
X1039645Y1310582D01*
Y1313798D01*
X1038813Y1316905D01*
X1037204Y1319690D01*
X1034930Y1321964D01*
X1032145Y1323573D01*
X1029038Y1324405D01*
D02*
G37*
G36*
X825838D02*
X822622D01*
X819515Y1323573D01*
X816730Y1321964D01*
X814456Y1319690D01*
X812847Y1316905D01*
X812015Y1313798D01*
Y1310582D01*
X812847Y1307475D01*
X814456Y1304690D01*
X816730Y1302416D01*
X819515Y1300807D01*
X822622Y1299975D01*
X825838D01*
X828945Y1300807D01*
X831730Y1302416D01*
X834004Y1304690D01*
X835613Y1307475D01*
X836445Y1310582D01*
Y1313798D01*
X835613Y1316905D01*
X834004Y1319690D01*
X831730Y1321964D01*
X828945Y1323573D01*
X825838Y1324405D01*
D02*
G37*
G36*
X622638D02*
X619422D01*
X616315Y1323573D01*
X613530Y1321964D01*
X611256Y1319690D01*
X609647Y1316905D01*
X608815Y1313798D01*
Y1310582D01*
X609647Y1307475D01*
X611256Y1304690D01*
X613530Y1302416D01*
X616315Y1300807D01*
X619422Y1299975D01*
X622638D01*
X625745Y1300807D01*
X628530Y1302416D01*
X630804Y1304690D01*
X632413Y1307475D01*
X633245Y1310582D01*
Y1313798D01*
X632413Y1316905D01*
X630804Y1319690D01*
X628530Y1321964D01*
X625745Y1323573D01*
X622638Y1324405D01*
D02*
G37*
G36*
X419438D02*
X416222D01*
X413115Y1323573D01*
X410330Y1321964D01*
X408056Y1319690D01*
X406447Y1316905D01*
X405615Y1313798D01*
Y1310582D01*
X406447Y1307475D01*
X408056Y1304690D01*
X410330Y1302416D01*
X413115Y1300807D01*
X416222Y1299975D01*
X419438D01*
X422545Y1300807D01*
X425330Y1302416D01*
X427604Y1304690D01*
X429213Y1307475D01*
X430045Y1310582D01*
Y1313798D01*
X429213Y1316905D01*
X427604Y1319690D01*
X425330Y1321964D01*
X422545Y1323573D01*
X419438Y1324405D01*
D02*
G37*
G36*
X216238D02*
X213022D01*
X209915Y1323573D01*
X207130Y1321964D01*
X204856Y1319690D01*
X203247Y1316905D01*
X202415Y1313798D01*
Y1310582D01*
X203247Y1307475D01*
X204856Y1304690D01*
X207130Y1302416D01*
X209915Y1300807D01*
X213022Y1299975D01*
X216238D01*
X219345Y1300807D01*
X222130Y1302416D01*
X224404Y1304690D01*
X226013Y1307475D01*
X226845Y1310582D01*
Y1313798D01*
X226013Y1316905D01*
X224404Y1319690D01*
X222130Y1321964D01*
X219345Y1323573D01*
X216238Y1324405D01*
D02*
G37*
G36*
X2100110Y1274590D02*
X2097469D01*
X2094918Y1273906D01*
X2092631Y1272586D01*
X2090764Y1270719D01*
X2089443Y1268431D01*
X2088760Y1265881D01*
Y1263240D01*
X2089443Y1260689D01*
X2090764Y1258401D01*
X2092631Y1256534D01*
X2094918Y1255213D01*
X2097469Y1254530D01*
X2100110D01*
X2102661Y1255213D01*
X2104948Y1256534D01*
X2106816Y1258401D01*
X2108136Y1260689D01*
X2108820Y1263240D01*
Y1265881D01*
X2108136Y1268431D01*
X2106816Y1270719D01*
X2104948Y1272586D01*
X2102661Y1273906D01*
X2100110Y1274590D01*
D02*
G37*
G36*
X2043820D02*
X2023760D01*
Y1254530D01*
X2043820D01*
Y1274590D01*
D02*
G37*
G36*
X1891606D02*
X1888965D01*
X1886414Y1273906D01*
X1884127Y1272586D01*
X1882260Y1270719D01*
X1880939Y1268431D01*
X1880255Y1265881D01*
Y1263240D01*
X1880939Y1260689D01*
X1882260Y1258401D01*
X1884127Y1256534D01*
X1886414Y1255213D01*
X1888965Y1254530D01*
X1891606D01*
X1894157Y1255213D01*
X1896444Y1256534D01*
X1898311Y1258401D01*
X1899632Y1260689D01*
X1900316Y1263240D01*
Y1265881D01*
X1899632Y1268431D01*
X1898311Y1270719D01*
X1896444Y1272586D01*
X1894157Y1273906D01*
X1891606Y1274590D01*
D02*
G37*
G36*
X1835316D02*
X1815255D01*
Y1254530D01*
X1835316D01*
Y1274590D01*
D02*
G37*
G36*
X1683102D02*
X1680461D01*
X1677910Y1273906D01*
X1675623Y1272586D01*
X1673755Y1270719D01*
X1672435Y1268431D01*
X1671751Y1265881D01*
Y1263240D01*
X1672435Y1260689D01*
X1673755Y1258401D01*
X1675623Y1256534D01*
X1677910Y1255213D01*
X1680461Y1254530D01*
X1683102D01*
X1685652Y1255213D01*
X1687940Y1256534D01*
X1689807Y1258401D01*
X1691127Y1260689D01*
X1691811Y1263240D01*
Y1265881D01*
X1691127Y1268431D01*
X1689807Y1270719D01*
X1687940Y1272586D01*
X1685652Y1273906D01*
X1683102Y1274590D01*
D02*
G37*
G36*
X1626811D02*
X1606751D01*
Y1254530D01*
X1626811D01*
Y1274590D01*
D02*
G37*
G36*
X1474597D02*
X1471956D01*
X1469405Y1273906D01*
X1467118Y1272586D01*
X1465251Y1270719D01*
X1463930Y1268431D01*
X1463247Y1265881D01*
Y1263240D01*
X1463930Y1260689D01*
X1465251Y1258401D01*
X1467118Y1256534D01*
X1469405Y1255213D01*
X1471956Y1254530D01*
X1474597D01*
X1477148Y1255213D01*
X1479435Y1256534D01*
X1481303Y1258401D01*
X1482623Y1260689D01*
X1483307Y1263240D01*
Y1265881D01*
X1482623Y1268431D01*
X1481303Y1270719D01*
X1479435Y1272586D01*
X1477148Y1273906D01*
X1474597Y1274590D01*
D02*
G37*
G36*
X1418307D02*
X1398247D01*
Y1254530D01*
X1418307D01*
Y1274590D01*
D02*
G37*
G36*
X1266093D02*
X1263452D01*
X1260901Y1273906D01*
X1258614Y1272586D01*
X1256746Y1270719D01*
X1255426Y1268431D01*
X1254742Y1265881D01*
Y1263240D01*
X1255426Y1260689D01*
X1256746Y1258401D01*
X1258614Y1256534D01*
X1260901Y1255213D01*
X1263452Y1254530D01*
X1266093D01*
X1268644Y1255213D01*
X1270931Y1256534D01*
X1272798Y1258401D01*
X1274119Y1260689D01*
X1274802Y1263240D01*
Y1265881D01*
X1274119Y1268431D01*
X1272798Y1270719D01*
X1270931Y1272586D01*
X1268644Y1273906D01*
X1266093Y1274590D01*
D02*
G37*
G36*
X1057588D02*
X1054947D01*
X1052396Y1273906D01*
X1050109Y1272586D01*
X1048242Y1270719D01*
X1046921Y1268431D01*
X1046238Y1265881D01*
Y1263240D01*
X1046921Y1260689D01*
X1048242Y1258401D01*
X1050109Y1256534D01*
X1052396Y1255213D01*
X1054947Y1254530D01*
X1057588D01*
X1060139Y1255213D01*
X1062426Y1256534D01*
X1064294Y1258401D01*
X1065614Y1260689D01*
X1066298Y1263240D01*
Y1265881D01*
X1065614Y1268431D01*
X1064294Y1270719D01*
X1062426Y1272586D01*
X1060139Y1273906D01*
X1057588Y1274590D01*
D02*
G37*
G36*
X1001298D02*
X981238D01*
Y1254530D01*
X1001298D01*
Y1274590D01*
D02*
G37*
G36*
X849084D02*
X846443D01*
X843892Y1273906D01*
X841605Y1272586D01*
X839737Y1270719D01*
X838417Y1268431D01*
X837733Y1265881D01*
Y1263240D01*
X838417Y1260689D01*
X839737Y1258401D01*
X841605Y1256534D01*
X843892Y1255213D01*
X846443Y1254530D01*
X849084D01*
X851635Y1255213D01*
X853922Y1256534D01*
X855789Y1258401D01*
X857110Y1260689D01*
X857793Y1263240D01*
Y1265881D01*
X857110Y1268431D01*
X855789Y1270719D01*
X853922Y1272586D01*
X851635Y1273906D01*
X849084Y1274590D01*
D02*
G37*
G36*
X792793D02*
X772733D01*
Y1254530D01*
X792793D01*
Y1274590D01*
D02*
G37*
G36*
X640580D02*
X637939D01*
X635388Y1273906D01*
X633101Y1272586D01*
X631233Y1270719D01*
X629913Y1268431D01*
X629229Y1265881D01*
Y1263240D01*
X629913Y1260689D01*
X631233Y1258401D01*
X633101Y1256534D01*
X635388Y1255213D01*
X637939Y1254530D01*
X640580D01*
X643130Y1255213D01*
X645418Y1256534D01*
X647285Y1258401D01*
X648605Y1260689D01*
X649289Y1263240D01*
Y1265881D01*
X648605Y1268431D01*
X647285Y1270719D01*
X645418Y1272586D01*
X643130Y1273906D01*
X640580Y1274590D01*
D02*
G37*
G36*
X584289D02*
X564229D01*
Y1254530D01*
X584289D01*
Y1274590D01*
D02*
G37*
G36*
X432075D02*
X429434D01*
X426883Y1273906D01*
X424596Y1272586D01*
X422729Y1270719D01*
X421408Y1268431D01*
X420725Y1265881D01*
Y1263240D01*
X421408Y1260689D01*
X422729Y1258401D01*
X424596Y1256534D01*
X426883Y1255213D01*
X429434Y1254530D01*
X432075D01*
X434626Y1255213D01*
X436913Y1256534D01*
X438781Y1258401D01*
X440101Y1260689D01*
X440785Y1263240D01*
Y1265881D01*
X440101Y1268431D01*
X438781Y1270719D01*
X436913Y1272586D01*
X434626Y1273906D01*
X432075Y1274590D01*
D02*
G37*
G36*
X375785D02*
X355725D01*
Y1254530D01*
X375785D01*
Y1274590D01*
D02*
G37*
G36*
X223571D02*
X220930D01*
X218379Y1273906D01*
X216092Y1272586D01*
X214224Y1270719D01*
X212904Y1268431D01*
X212220Y1265881D01*
Y1263240D01*
X212904Y1260689D01*
X214224Y1258401D01*
X216092Y1256534D01*
X218379Y1255213D01*
X220930Y1254530D01*
X223571D01*
X226122Y1255213D01*
X228409Y1256534D01*
X230276Y1258401D01*
X231597Y1260689D01*
X232280Y1263240D01*
Y1265881D01*
X231597Y1268431D01*
X230276Y1270719D01*
X228409Y1272586D01*
X226122Y1273906D01*
X223571Y1274590D01*
D02*
G37*
G36*
X167280D02*
X147220D01*
Y1254530D01*
X167280D01*
Y1274590D01*
D02*
G37*
G36*
X2100110Y1229590D02*
X2097469D01*
X2094918Y1228906D01*
X2092631Y1227586D01*
X2090764Y1225719D01*
X2089443Y1223431D01*
X2088760Y1220881D01*
Y1218240D01*
X2089443Y1215689D01*
X2090764Y1213401D01*
X2092631Y1211534D01*
X2094918Y1210213D01*
X2097469Y1209530D01*
X2100110D01*
X2102661Y1210213D01*
X2104948Y1211534D01*
X2106816Y1213401D01*
X2108136Y1215689D01*
X2108820Y1218240D01*
Y1220881D01*
X2108136Y1223431D01*
X2106816Y1225719D01*
X2104948Y1227586D01*
X2102661Y1228906D01*
X2100110Y1229590D01*
D02*
G37*
G36*
X2035110D02*
X2032469D01*
X2029918Y1228906D01*
X2027631Y1227586D01*
X2025764Y1225719D01*
X2024443Y1223431D01*
X2023760Y1220881D01*
Y1218240D01*
X2024443Y1215689D01*
X2025764Y1213401D01*
X2027631Y1211534D01*
X2029918Y1210213D01*
X2032469Y1209530D01*
X2035110D01*
X2037661Y1210213D01*
X2039948Y1211534D01*
X2041816Y1213401D01*
X2043136Y1215689D01*
X2043820Y1218240D01*
Y1220881D01*
X2043136Y1223431D01*
X2041816Y1225719D01*
X2039948Y1227586D01*
X2037661Y1228906D01*
X2035110Y1229590D01*
D02*
G37*
G36*
X1891606D02*
X1888965D01*
X1886414Y1228906D01*
X1884127Y1227586D01*
X1882260Y1225719D01*
X1880939Y1223431D01*
X1880255Y1220881D01*
Y1218240D01*
X1880939Y1215689D01*
X1882260Y1213401D01*
X1884127Y1211534D01*
X1886414Y1210213D01*
X1888965Y1209530D01*
X1891606D01*
X1894157Y1210213D01*
X1896444Y1211534D01*
X1898311Y1213401D01*
X1899632Y1215689D01*
X1900316Y1218240D01*
Y1220881D01*
X1899632Y1223431D01*
X1898311Y1225719D01*
X1896444Y1227586D01*
X1894157Y1228906D01*
X1891606Y1229590D01*
D02*
G37*
G36*
X1826606D02*
X1823965D01*
X1821414Y1228906D01*
X1819127Y1227586D01*
X1817260Y1225719D01*
X1815939Y1223431D01*
X1815255Y1220881D01*
Y1218240D01*
X1815939Y1215689D01*
X1817260Y1213401D01*
X1819127Y1211534D01*
X1821414Y1210213D01*
X1823965Y1209530D01*
X1826606D01*
X1829157Y1210213D01*
X1831444Y1211534D01*
X1833311Y1213401D01*
X1834632Y1215689D01*
X1835316Y1218240D01*
Y1220881D01*
X1834632Y1223431D01*
X1833311Y1225719D01*
X1831444Y1227586D01*
X1829157Y1228906D01*
X1826606Y1229590D01*
D02*
G37*
G36*
X1683102D02*
X1680461D01*
X1677910Y1228906D01*
X1675623Y1227586D01*
X1673755Y1225719D01*
X1672435Y1223431D01*
X1671751Y1220881D01*
Y1218240D01*
X1672435Y1215689D01*
X1673755Y1213401D01*
X1675623Y1211534D01*
X1677910Y1210213D01*
X1680461Y1209530D01*
X1683102D01*
X1685652Y1210213D01*
X1687940Y1211534D01*
X1689807Y1213401D01*
X1691127Y1215689D01*
X1691811Y1218240D01*
Y1220881D01*
X1691127Y1223431D01*
X1689807Y1225719D01*
X1687940Y1227586D01*
X1685652Y1228906D01*
X1683102Y1229590D01*
D02*
G37*
G36*
X1618102D02*
X1615461D01*
X1612910Y1228906D01*
X1610623Y1227586D01*
X1608755Y1225719D01*
X1607435Y1223431D01*
X1606751Y1220881D01*
Y1218240D01*
X1607435Y1215689D01*
X1608755Y1213401D01*
X1610623Y1211534D01*
X1612910Y1210213D01*
X1615461Y1209530D01*
X1618102D01*
X1620652Y1210213D01*
X1622940Y1211534D01*
X1624807Y1213401D01*
X1626127Y1215689D01*
X1626811Y1218240D01*
Y1220881D01*
X1626127Y1223431D01*
X1624807Y1225719D01*
X1622940Y1227586D01*
X1620652Y1228906D01*
X1618102Y1229590D01*
D02*
G37*
G36*
X1474597D02*
X1471956D01*
X1469405Y1228906D01*
X1467118Y1227586D01*
X1465251Y1225719D01*
X1463930Y1223431D01*
X1463247Y1220881D01*
Y1218240D01*
X1463930Y1215689D01*
X1465251Y1213401D01*
X1467118Y1211534D01*
X1469405Y1210213D01*
X1471956Y1209530D01*
X1474597D01*
X1477148Y1210213D01*
X1479435Y1211534D01*
X1481303Y1213401D01*
X1482623Y1215689D01*
X1483307Y1218240D01*
Y1220881D01*
X1482623Y1223431D01*
X1481303Y1225719D01*
X1479435Y1227586D01*
X1477148Y1228906D01*
X1474597Y1229590D01*
D02*
G37*
G36*
X1409597D02*
X1406956D01*
X1404405Y1228906D01*
X1402118Y1227586D01*
X1400251Y1225719D01*
X1398930Y1223431D01*
X1398247Y1220881D01*
Y1218240D01*
X1398930Y1215689D01*
X1400251Y1213401D01*
X1402118Y1211534D01*
X1404405Y1210213D01*
X1406956Y1209530D01*
X1409597D01*
X1412148Y1210213D01*
X1414435Y1211534D01*
X1416303Y1213401D01*
X1417623Y1215689D01*
X1418307Y1218240D01*
Y1220881D01*
X1417623Y1223431D01*
X1416303Y1225719D01*
X1414435Y1227586D01*
X1412148Y1228906D01*
X1409597Y1229590D01*
D02*
G37*
G36*
X1266093D02*
X1263452D01*
X1260901Y1228906D01*
X1258614Y1227586D01*
X1256746Y1225719D01*
X1255426Y1223431D01*
X1254742Y1220881D01*
Y1218240D01*
X1255426Y1215689D01*
X1256746Y1213401D01*
X1258614Y1211534D01*
X1260901Y1210213D01*
X1263452Y1209530D01*
X1266093D01*
X1268644Y1210213D01*
X1270931Y1211534D01*
X1272798Y1213401D01*
X1274119Y1215689D01*
X1274802Y1218240D01*
Y1220881D01*
X1274119Y1223431D01*
X1272798Y1225719D01*
X1270931Y1227586D01*
X1268644Y1228906D01*
X1266093Y1229590D01*
D02*
G37*
G36*
X1201093D02*
X1198452D01*
X1195901Y1228906D01*
X1193614Y1227586D01*
X1191746Y1225719D01*
X1190426Y1223431D01*
X1189742Y1220881D01*
Y1218240D01*
X1190426Y1215689D01*
X1191746Y1213401D01*
X1193614Y1211534D01*
X1195901Y1210213D01*
X1198452Y1209530D01*
X1201093D01*
X1203644Y1210213D01*
X1205931Y1211534D01*
X1207798Y1213401D01*
X1209119Y1215689D01*
X1209802Y1218240D01*
Y1220881D01*
X1209119Y1223431D01*
X1207798Y1225719D01*
X1205931Y1227586D01*
X1203644Y1228906D01*
X1201093Y1229590D01*
D02*
G37*
G36*
X1057588D02*
X1054947D01*
X1052396Y1228906D01*
X1050109Y1227586D01*
X1048242Y1225719D01*
X1046921Y1223431D01*
X1046238Y1220881D01*
Y1218240D01*
X1046921Y1215689D01*
X1048242Y1213401D01*
X1050109Y1211534D01*
X1052396Y1210213D01*
X1054947Y1209530D01*
X1057588D01*
X1060139Y1210213D01*
X1062426Y1211534D01*
X1064294Y1213401D01*
X1065614Y1215689D01*
X1066298Y1218240D01*
Y1220881D01*
X1065614Y1223431D01*
X1064294Y1225719D01*
X1062426Y1227586D01*
X1060139Y1228906D01*
X1057588Y1229590D01*
D02*
G37*
G36*
X992588D02*
X989947D01*
X987396Y1228906D01*
X985109Y1227586D01*
X983242Y1225719D01*
X981921Y1223431D01*
X981238Y1220881D01*
Y1218240D01*
X981921Y1215689D01*
X983242Y1213401D01*
X985109Y1211534D01*
X987396Y1210213D01*
X989947Y1209530D01*
X992588D01*
X995139Y1210213D01*
X997426Y1211534D01*
X999294Y1213401D01*
X1000614Y1215689D01*
X1001298Y1218240D01*
Y1220881D01*
X1000614Y1223431D01*
X999294Y1225719D01*
X997426Y1227586D01*
X995139Y1228906D01*
X992588Y1229590D01*
D02*
G37*
G36*
X849084D02*
X846443D01*
X843892Y1228906D01*
X841605Y1227586D01*
X839737Y1225719D01*
X838417Y1223431D01*
X837733Y1220881D01*
Y1218240D01*
X838417Y1215689D01*
X839737Y1213401D01*
X841605Y1211534D01*
X843892Y1210213D01*
X846443Y1209530D01*
X849084D01*
X851635Y1210213D01*
X853922Y1211534D01*
X855789Y1213401D01*
X857110Y1215689D01*
X857793Y1218240D01*
Y1220881D01*
X857110Y1223431D01*
X855789Y1225719D01*
X853922Y1227586D01*
X851635Y1228906D01*
X849084Y1229590D01*
D02*
G37*
G36*
X784084D02*
X781443D01*
X778892Y1228906D01*
X776605Y1227586D01*
X774737Y1225719D01*
X773417Y1223431D01*
X772733Y1220881D01*
Y1218240D01*
X773417Y1215689D01*
X774737Y1213401D01*
X776605Y1211534D01*
X778892Y1210213D01*
X781443Y1209530D01*
X784084D01*
X786635Y1210213D01*
X788922Y1211534D01*
X790789Y1213401D01*
X792110Y1215689D01*
X792793Y1218240D01*
Y1220881D01*
X792110Y1223431D01*
X790789Y1225719D01*
X788922Y1227586D01*
X786635Y1228906D01*
X784084Y1229590D01*
D02*
G37*
G36*
X640580D02*
X637939D01*
X635388Y1228906D01*
X633101Y1227586D01*
X631233Y1225719D01*
X629913Y1223431D01*
X629229Y1220881D01*
Y1218240D01*
X629913Y1215689D01*
X631233Y1213401D01*
X633101Y1211534D01*
X635388Y1210213D01*
X637939Y1209530D01*
X640580D01*
X643130Y1210213D01*
X645418Y1211534D01*
X647285Y1213401D01*
X648605Y1215689D01*
X649289Y1218240D01*
Y1220881D01*
X648605Y1223431D01*
X647285Y1225719D01*
X645418Y1227586D01*
X643130Y1228906D01*
X640580Y1229590D01*
D02*
G37*
G36*
X575579D02*
X572938D01*
X570388Y1228906D01*
X568100Y1227586D01*
X566233Y1225719D01*
X564912Y1223431D01*
X564229Y1220881D01*
Y1218240D01*
X564912Y1215689D01*
X566233Y1213401D01*
X568100Y1211534D01*
X570388Y1210213D01*
X572938Y1209530D01*
X575579D01*
X578130Y1210213D01*
X580418Y1211534D01*
X582285Y1213401D01*
X583605Y1215689D01*
X584289Y1218240D01*
Y1220881D01*
X583605Y1223431D01*
X582285Y1225719D01*
X580418Y1227586D01*
X578130Y1228906D01*
X575579Y1229590D01*
D02*
G37*
G36*
X432075D02*
X429434D01*
X426883Y1228906D01*
X424596Y1227586D01*
X422729Y1225719D01*
X421408Y1223431D01*
X420725Y1220881D01*
Y1218240D01*
X421408Y1215689D01*
X422729Y1213401D01*
X424596Y1211534D01*
X426883Y1210213D01*
X429434Y1209530D01*
X432075D01*
X434626Y1210213D01*
X436913Y1211534D01*
X438781Y1213401D01*
X440101Y1215689D01*
X440785Y1218240D01*
Y1220881D01*
X440101Y1223431D01*
X438781Y1225719D01*
X436913Y1227586D01*
X434626Y1228906D01*
X432075Y1229590D01*
D02*
G37*
G36*
X367075D02*
X364434D01*
X361883Y1228906D01*
X359596Y1227586D01*
X357729Y1225719D01*
X356408Y1223431D01*
X355725Y1220881D01*
Y1218240D01*
X356408Y1215689D01*
X357729Y1213401D01*
X359596Y1211534D01*
X361883Y1210213D01*
X364434Y1209530D01*
X367075D01*
X369626Y1210213D01*
X371913Y1211534D01*
X373781Y1213401D01*
X375101Y1215689D01*
X375785Y1218240D01*
Y1220881D01*
X375101Y1223431D01*
X373781Y1225719D01*
X371913Y1227586D01*
X369626Y1228906D01*
X367075Y1229590D01*
D02*
G37*
G36*
X223571D02*
X220930D01*
X218379Y1228906D01*
X216092Y1227586D01*
X214224Y1225719D01*
X212904Y1223431D01*
X212220Y1220881D01*
Y1218240D01*
X212904Y1215689D01*
X214224Y1213401D01*
X216092Y1211534D01*
X218379Y1210213D01*
X220930Y1209530D01*
X223571D01*
X226122Y1210213D01*
X228409Y1211534D01*
X230276Y1213401D01*
X231597Y1215689D01*
X232280Y1218240D01*
Y1220881D01*
X231597Y1223431D01*
X230276Y1225719D01*
X228409Y1227586D01*
X226122Y1228906D01*
X223571Y1229590D01*
D02*
G37*
G36*
X158571D02*
X155930D01*
X153379Y1228906D01*
X151092Y1227586D01*
X149224Y1225719D01*
X147904Y1223431D01*
X147220Y1220881D01*
Y1218240D01*
X147904Y1215689D01*
X149224Y1213401D01*
X151092Y1211534D01*
X153379Y1210213D01*
X155930Y1209530D01*
X158571D01*
X161122Y1210213D01*
X163409Y1211534D01*
X165276Y1213401D01*
X166597Y1215689D01*
X167280Y1218240D01*
Y1220881D01*
X166597Y1223431D01*
X165276Y1225719D01*
X163409Y1227586D01*
X161122Y1228906D01*
X158571Y1229590D01*
D02*
G37*
G36*
X2037020Y1202570D02*
X2016940D01*
Y1182490D01*
X2037020D01*
Y1202570D01*
D02*
G37*
G36*
X1891022D02*
X1888378D01*
X1885825Y1201886D01*
X1883535Y1200564D01*
X1881666Y1198695D01*
X1880344Y1196405D01*
X1879660Y1193852D01*
Y1191208D01*
X1880344Y1188655D01*
X1881666Y1186365D01*
X1883535Y1184496D01*
X1885825Y1183174D01*
X1888378Y1182490D01*
X1891022D01*
X1893575Y1183174D01*
X1895865Y1184496D01*
X1897734Y1186365D01*
X1899056Y1188655D01*
X1899740Y1191208D01*
Y1193852D01*
X1899056Y1196405D01*
X1897734Y1198695D01*
X1895865Y1200564D01*
X1893575Y1201886D01*
X1891022Y1202570D01*
D02*
G37*
G36*
X1828740D02*
X1808660D01*
Y1182490D01*
X1828740D01*
Y1202570D01*
D02*
G37*
G36*
X1682742D02*
X1680098D01*
X1677545Y1201886D01*
X1675255Y1200564D01*
X1673386Y1198695D01*
X1672064Y1196405D01*
X1671380Y1193852D01*
Y1191208D01*
X1672064Y1188655D01*
X1673386Y1186365D01*
X1675255Y1184496D01*
X1677545Y1183174D01*
X1680098Y1182490D01*
X1682742D01*
X1685295Y1183174D01*
X1687585Y1184496D01*
X1689454Y1186365D01*
X1690776Y1188655D01*
X1691460Y1191208D01*
Y1193852D01*
X1690776Y1196405D01*
X1689454Y1198695D01*
X1687585Y1200564D01*
X1685295Y1201886D01*
X1682742Y1202570D01*
D02*
G37*
G36*
X1620460D02*
X1600380D01*
Y1182490D01*
X1620460D01*
Y1202570D01*
D02*
G37*
G36*
X1474462D02*
X1471818D01*
X1469265Y1201886D01*
X1466975Y1200564D01*
X1465106Y1198695D01*
X1463784Y1196405D01*
X1463100Y1193852D01*
Y1191208D01*
X1463784Y1188655D01*
X1465106Y1186365D01*
X1466975Y1184496D01*
X1469265Y1183174D01*
X1471818Y1182490D01*
X1474462D01*
X1477015Y1183174D01*
X1479305Y1184496D01*
X1481174Y1186365D01*
X1482496Y1188655D01*
X1483180Y1191208D01*
Y1193852D01*
X1482496Y1196405D01*
X1481174Y1198695D01*
X1479305Y1200564D01*
X1477015Y1201886D01*
X1474462Y1202570D01*
D02*
G37*
G36*
X1412180D02*
X1392100D01*
Y1182490D01*
X1412180D01*
Y1202570D01*
D02*
G37*
G36*
X1266182D02*
X1263538D01*
X1260985Y1201886D01*
X1258695Y1200564D01*
X1256826Y1198695D01*
X1255504Y1196405D01*
X1254820Y1193852D01*
Y1191208D01*
X1255504Y1188655D01*
X1256826Y1186365D01*
X1258695Y1184496D01*
X1260985Y1183174D01*
X1263538Y1182490D01*
X1266182D01*
X1268735Y1183174D01*
X1271025Y1184496D01*
X1272894Y1186365D01*
X1274216Y1188655D01*
X1274900Y1191208D01*
Y1193852D01*
X1274216Y1196405D01*
X1272894Y1198695D01*
X1271025Y1200564D01*
X1268735Y1201886D01*
X1266182Y1202570D01*
D02*
G37*
G36*
X1057902D02*
X1055258D01*
X1052705Y1201886D01*
X1050415Y1200564D01*
X1048546Y1198695D01*
X1047224Y1196405D01*
X1046540Y1193852D01*
Y1191208D01*
X1047224Y1188655D01*
X1048546Y1186365D01*
X1050415Y1184496D01*
X1052705Y1183174D01*
X1055258Y1182490D01*
X1057902D01*
X1060455Y1183174D01*
X1062745Y1184496D01*
X1064614Y1186365D01*
X1065936Y1188655D01*
X1066620Y1191208D01*
Y1193852D01*
X1065936Y1196405D01*
X1064614Y1198695D01*
X1062745Y1200564D01*
X1060455Y1201886D01*
X1057902Y1202570D01*
D02*
G37*
G36*
X995620D02*
X975540D01*
Y1182490D01*
X995620D01*
Y1202570D01*
D02*
G37*
G36*
X849622D02*
X846978D01*
X844425Y1201886D01*
X842135Y1200564D01*
X840266Y1198695D01*
X838944Y1196405D01*
X838260Y1193852D01*
Y1191208D01*
X838944Y1188655D01*
X840266Y1186365D01*
X842135Y1184496D01*
X844425Y1183174D01*
X846978Y1182490D01*
X849622D01*
X852175Y1183174D01*
X854465Y1184496D01*
X856334Y1186365D01*
X857656Y1188655D01*
X858340Y1191208D01*
Y1193852D01*
X857656Y1196405D01*
X856334Y1198695D01*
X854465Y1200564D01*
X852175Y1201886D01*
X849622Y1202570D01*
D02*
G37*
G36*
X787340D02*
X767260D01*
Y1182490D01*
X787340D01*
Y1202570D01*
D02*
G37*
G36*
X641342D02*
X638698D01*
X636145Y1201886D01*
X633855Y1200564D01*
X631986Y1198695D01*
X630664Y1196405D01*
X629980Y1193852D01*
Y1191208D01*
X630664Y1188655D01*
X631986Y1186365D01*
X633855Y1184496D01*
X636145Y1183174D01*
X638698Y1182490D01*
X641342D01*
X643895Y1183174D01*
X646185Y1184496D01*
X648054Y1186365D01*
X649376Y1188655D01*
X650060Y1191208D01*
Y1193852D01*
X649376Y1196405D01*
X648054Y1198695D01*
X646185Y1200564D01*
X643895Y1201886D01*
X641342Y1202570D01*
D02*
G37*
G36*
X579060D02*
X558980D01*
Y1182490D01*
X579060D01*
Y1202570D01*
D02*
G37*
G36*
X433062D02*
X430418D01*
X427865Y1201886D01*
X425575Y1200564D01*
X423706Y1198695D01*
X422384Y1196405D01*
X421700Y1193852D01*
Y1191208D01*
X422384Y1188655D01*
X423706Y1186365D01*
X425575Y1184496D01*
X427865Y1183174D01*
X430418Y1182490D01*
X433062D01*
X435615Y1183174D01*
X437905Y1184496D01*
X439774Y1186365D01*
X441096Y1188655D01*
X441780Y1191208D01*
Y1193852D01*
X441096Y1196405D01*
X439774Y1198695D01*
X437905Y1200564D01*
X435615Y1201886D01*
X433062Y1202570D01*
D02*
G37*
G36*
X370780D02*
X350700D01*
Y1182490D01*
X370780D01*
Y1202570D01*
D02*
G37*
G36*
X224782D02*
X222138D01*
X219585Y1201886D01*
X217295Y1200564D01*
X215426Y1198695D01*
X214104Y1196405D01*
X213420Y1193852D01*
Y1191208D01*
X214104Y1188655D01*
X215426Y1186365D01*
X217295Y1184496D01*
X219585Y1183174D01*
X222138Y1182490D01*
X224782D01*
X227335Y1183174D01*
X229625Y1184496D01*
X231494Y1186365D01*
X232816Y1188655D01*
X233500Y1191208D01*
Y1193852D01*
X232816Y1196405D01*
X231494Y1198695D01*
X229625Y1200564D01*
X227335Y1201886D01*
X224782Y1202570D01*
D02*
G37*
G36*
X162500D02*
X142420D01*
Y1182490D01*
X162500D01*
Y1202570D01*
D02*
G37*
G36*
X1211630Y1148730D02*
X1203360D01*
Y1140460D01*
X1211630D01*
Y1148730D01*
D02*
G37*
G36*
X1200820D02*
X1192550D01*
Y1140460D01*
X1200820D01*
Y1148730D01*
D02*
G37*
G36*
X796340D02*
X788070D01*
Y1140460D01*
X796340D01*
Y1148730D01*
D02*
G37*
G36*
X785530D02*
X777260D01*
Y1140460D01*
X785530D01*
Y1148730D01*
D02*
G37*
G36*
X382320Y1148633D02*
X374050D01*
Y1140362D01*
X382320D01*
Y1148633D01*
D02*
G37*
G36*
X371510D02*
X363240D01*
Y1140362D01*
X371510D01*
Y1148633D01*
D02*
G37*
G36*
X1422450Y1147460D02*
X1414180D01*
Y1139190D01*
X1422450D01*
Y1147460D01*
D02*
G37*
G36*
X1411640D02*
X1403370D01*
Y1139190D01*
X1411640D01*
Y1147460D01*
D02*
G37*
G36*
X1008430D02*
X1000160D01*
Y1139190D01*
X1008430D01*
Y1147460D01*
D02*
G37*
G36*
X997620D02*
X989350D01*
Y1139190D01*
X997620D01*
Y1147460D01*
D02*
G37*
G36*
X588060D02*
X579790D01*
Y1139190D01*
X588060D01*
Y1147460D01*
D02*
G37*
G36*
X577250D02*
X568980D01*
Y1139190D01*
X577250D01*
Y1147460D01*
D02*
G37*
G36*
X1849170Y1143650D02*
X1840900D01*
Y1135380D01*
X1849170D01*
Y1143650D01*
D02*
G37*
G36*
X1838360D02*
X1830090D01*
Y1135380D01*
X1838360D01*
Y1143650D01*
D02*
G37*
G36*
X1628190D02*
X1619920D01*
Y1135380D01*
X1628190D01*
Y1143650D01*
D02*
G37*
G36*
X1617380D02*
X1609110D01*
Y1135380D01*
X1617380D01*
Y1143650D01*
D02*
G37*
G36*
X171500D02*
X163230D01*
Y1135380D01*
X171500D01*
Y1143650D01*
D02*
G37*
G36*
X160690D02*
X152420D01*
Y1135380D01*
X160690D01*
Y1143650D01*
D02*
G37*
G36*
X1255346Y1148730D02*
X1252834D01*
X1250408Y1148080D01*
X1248232Y1146824D01*
X1246456Y1145048D01*
X1245200Y1142872D01*
X1244550Y1140446D01*
Y1137934D01*
X1245200Y1135508D01*
X1246456Y1133332D01*
X1248232Y1131556D01*
X1250408Y1130300D01*
X1252834Y1129650D01*
X1255346D01*
X1257772Y1130300D01*
X1259948Y1131556D01*
X1261724Y1133332D01*
X1262980Y1135508D01*
X1263630Y1137934D01*
Y1140446D01*
X1262980Y1142872D01*
X1261724Y1145048D01*
X1259948Y1146824D01*
X1257772Y1148080D01*
X1255346Y1148730D01*
D02*
G37*
G36*
X1229346D02*
X1226834D01*
X1224408Y1148080D01*
X1222232Y1146824D01*
X1220456Y1145048D01*
X1219200Y1142872D01*
X1218550Y1140446D01*
Y1137934D01*
X1219200Y1135508D01*
X1220456Y1133332D01*
X1222232Y1131556D01*
X1224408Y1130300D01*
X1226834Y1129650D01*
X1229346D01*
X1231772Y1130300D01*
X1233948Y1131556D01*
X1235724Y1133332D01*
X1236980Y1135508D01*
X1237630Y1137934D01*
Y1140446D01*
X1236980Y1142872D01*
X1235724Y1145048D01*
X1233948Y1146824D01*
X1231772Y1148080D01*
X1229346Y1148730D01*
D02*
G37*
G36*
X1211630Y1137920D02*
X1203360D01*
Y1129650D01*
X1211630D01*
Y1137920D01*
D02*
G37*
G36*
X1200820D02*
X1192550D01*
Y1129650D01*
X1200820D01*
Y1137920D01*
D02*
G37*
G36*
X840056Y1148730D02*
X837544D01*
X835118Y1148080D01*
X832942Y1146824D01*
X831166Y1145048D01*
X829910Y1142872D01*
X829260Y1140446D01*
Y1137934D01*
X829910Y1135508D01*
X831166Y1133332D01*
X832942Y1131556D01*
X835118Y1130300D01*
X837544Y1129650D01*
X840056D01*
X842482Y1130300D01*
X844658Y1131556D01*
X846434Y1133332D01*
X847690Y1135508D01*
X848340Y1137934D01*
Y1140446D01*
X847690Y1142872D01*
X846434Y1145048D01*
X844658Y1146824D01*
X842482Y1148080D01*
X840056Y1148730D01*
D02*
G37*
G36*
X814056D02*
X811544D01*
X809118Y1148080D01*
X806942Y1146824D01*
X805166Y1145048D01*
X803910Y1142872D01*
X803260Y1140446D01*
Y1137934D01*
X803910Y1135508D01*
X805166Y1133332D01*
X806942Y1131556D01*
X809118Y1130300D01*
X811544Y1129650D01*
X814056D01*
X816482Y1130300D01*
X818658Y1131556D01*
X820434Y1133332D01*
X821690Y1135508D01*
X822340Y1137934D01*
Y1140446D01*
X821690Y1142872D01*
X820434Y1145048D01*
X818658Y1146824D01*
X816482Y1148080D01*
X814056Y1148730D01*
D02*
G37*
G36*
X796340Y1137920D02*
X788070D01*
Y1129650D01*
X796340D01*
Y1137920D01*
D02*
G37*
G36*
X785530D02*
X777260D01*
Y1129650D01*
X785530D01*
Y1137920D01*
D02*
G37*
G36*
X426036Y1148633D02*
X423524D01*
X421098Y1147982D01*
X418922Y1146726D01*
X417146Y1144950D01*
X415890Y1142775D01*
X415240Y1140349D01*
Y1137837D01*
X415890Y1135410D01*
X417146Y1133235D01*
X418922Y1131459D01*
X421098Y1130203D01*
X423524Y1129553D01*
X426036D01*
X428462Y1130203D01*
X430638Y1131459D01*
X432414Y1133235D01*
X433670Y1135410D01*
X434320Y1137837D01*
Y1140349D01*
X433670Y1142775D01*
X432414Y1144950D01*
X430638Y1146726D01*
X428462Y1147982D01*
X426036Y1148633D01*
D02*
G37*
G36*
X400036D02*
X397524D01*
X395098Y1147982D01*
X392922Y1146726D01*
X391146Y1144950D01*
X389890Y1142775D01*
X389240Y1140349D01*
Y1137837D01*
X389890Y1135410D01*
X391146Y1133235D01*
X392922Y1131459D01*
X395098Y1130203D01*
X397524Y1129553D01*
X400036D01*
X402462Y1130203D01*
X404638Y1131459D01*
X406414Y1133235D01*
X407670Y1135410D01*
X408320Y1137837D01*
Y1140349D01*
X407670Y1142775D01*
X406414Y1144950D01*
X404638Y1146726D01*
X402462Y1147982D01*
X400036Y1148633D01*
D02*
G37*
G36*
X382320Y1137822D02*
X374050D01*
Y1129553D01*
X382320D01*
Y1137822D01*
D02*
G37*
G36*
X371510D02*
X363240D01*
Y1129553D01*
X371510D01*
Y1137822D01*
D02*
G37*
G36*
X2094816Y1147460D02*
X2092304D01*
X2089878Y1146810D01*
X2087702Y1145554D01*
X2085926Y1143778D01*
X2084670Y1141602D01*
X2084020Y1139176D01*
Y1136664D01*
X2084670Y1134238D01*
X2085926Y1132062D01*
X2087702Y1130286D01*
X2089878Y1129030D01*
X2092304Y1128380D01*
X2094816D01*
X2097242Y1129030D01*
X2099418Y1130286D01*
X2101194Y1132062D01*
X2102450Y1134238D01*
X2103100Y1136664D01*
Y1139176D01*
X2102450Y1141602D01*
X2101194Y1143778D01*
X2099418Y1145554D01*
X2097242Y1146810D01*
X2094816Y1147460D01*
D02*
G37*
G36*
X2068816D02*
X2066304D01*
X2063878Y1146810D01*
X2061702Y1145554D01*
X2059926Y1143778D01*
X2058670Y1141602D01*
X2058020Y1139176D01*
Y1136664D01*
X2058670Y1134238D01*
X2059926Y1132062D01*
X2061702Y1130286D01*
X2063878Y1129030D01*
X2066304Y1128380D01*
X2068816D01*
X2071242Y1129030D01*
X2073418Y1130286D01*
X2075194Y1132062D01*
X2076450Y1134238D01*
X2077100Y1136664D01*
Y1139176D01*
X2076450Y1141602D01*
X2075194Y1143778D01*
X2073418Y1145554D01*
X2071242Y1146810D01*
X2068816Y1147460D01*
D02*
G37*
G36*
X2051100Y1136650D02*
X2042830D01*
Y1128380D01*
X2051100D01*
Y1136650D01*
D02*
G37*
G36*
X2040290D02*
X2032020D01*
Y1128380D01*
X2040290D01*
Y1136650D01*
D02*
G37*
G36*
X1466166Y1147460D02*
X1463654D01*
X1461228Y1146810D01*
X1459052Y1145554D01*
X1457276Y1143778D01*
X1456020Y1141602D01*
X1455370Y1139176D01*
Y1136664D01*
X1456020Y1134238D01*
X1457276Y1132062D01*
X1459052Y1130286D01*
X1461228Y1129030D01*
X1463654Y1128380D01*
X1466166D01*
X1468592Y1129030D01*
X1470768Y1130286D01*
X1472544Y1132062D01*
X1473800Y1134238D01*
X1474450Y1136664D01*
Y1139176D01*
X1473800Y1141602D01*
X1472544Y1143778D01*
X1470768Y1145554D01*
X1468592Y1146810D01*
X1466166Y1147460D01*
D02*
G37*
G36*
X1440166D02*
X1437654D01*
X1435228Y1146810D01*
X1433052Y1145554D01*
X1431276Y1143778D01*
X1430020Y1141602D01*
X1429370Y1139176D01*
Y1136664D01*
X1430020Y1134238D01*
X1431276Y1132062D01*
X1433052Y1130286D01*
X1435228Y1129030D01*
X1437654Y1128380D01*
X1440166D01*
X1442592Y1129030D01*
X1444768Y1130286D01*
X1446544Y1132062D01*
X1447800Y1134238D01*
X1448450Y1136664D01*
Y1139176D01*
X1447800Y1141602D01*
X1446544Y1143778D01*
X1444768Y1145554D01*
X1442592Y1146810D01*
X1440166Y1147460D01*
D02*
G37*
G36*
X1422450Y1136650D02*
X1414180D01*
Y1128380D01*
X1422450D01*
Y1136650D01*
D02*
G37*
G36*
X1411640D02*
X1403370D01*
Y1128380D01*
X1411640D01*
Y1136650D01*
D02*
G37*
G36*
X1052146Y1147460D02*
X1049634D01*
X1047208Y1146810D01*
X1045032Y1145554D01*
X1043256Y1143778D01*
X1042000Y1141602D01*
X1041350Y1139176D01*
Y1136664D01*
X1042000Y1134238D01*
X1043256Y1132062D01*
X1045032Y1130286D01*
X1047208Y1129030D01*
X1049634Y1128380D01*
X1052146D01*
X1054572Y1129030D01*
X1056748Y1130286D01*
X1058524Y1132062D01*
X1059780Y1134238D01*
X1060430Y1136664D01*
Y1139176D01*
X1059780Y1141602D01*
X1058524Y1143778D01*
X1056748Y1145554D01*
X1054572Y1146810D01*
X1052146Y1147460D01*
D02*
G37*
G36*
X1026146D02*
X1023634D01*
X1021208Y1146810D01*
X1019032Y1145554D01*
X1017256Y1143778D01*
X1016000Y1141602D01*
X1015350Y1139176D01*
Y1136664D01*
X1016000Y1134238D01*
X1017256Y1132062D01*
X1019032Y1130286D01*
X1021208Y1129030D01*
X1023634Y1128380D01*
X1026146D01*
X1028572Y1129030D01*
X1030748Y1130286D01*
X1032524Y1132062D01*
X1033780Y1134238D01*
X1034430Y1136664D01*
Y1139176D01*
X1033780Y1141602D01*
X1032524Y1143778D01*
X1030748Y1145554D01*
X1028572Y1146810D01*
X1026146Y1147460D01*
D02*
G37*
G36*
X1008430Y1136650D02*
X1000160D01*
Y1128380D01*
X1008430D01*
Y1136650D01*
D02*
G37*
G36*
X997620D02*
X989350D01*
Y1128380D01*
X997620D01*
Y1136650D01*
D02*
G37*
G36*
X631776Y1147460D02*
X629264D01*
X626838Y1146810D01*
X624662Y1145554D01*
X622886Y1143778D01*
X621630Y1141602D01*
X620980Y1139176D01*
Y1136664D01*
X621630Y1134238D01*
X622886Y1132062D01*
X624662Y1130286D01*
X626838Y1129030D01*
X629264Y1128380D01*
X631776D01*
X634202Y1129030D01*
X636378Y1130286D01*
X638154Y1132062D01*
X639410Y1134238D01*
X640060Y1136664D01*
Y1139176D01*
X639410Y1141602D01*
X638154Y1143778D01*
X636378Y1145554D01*
X634202Y1146810D01*
X631776Y1147460D01*
D02*
G37*
G36*
X605776D02*
X603264D01*
X600838Y1146810D01*
X598662Y1145554D01*
X596886Y1143778D01*
X595630Y1141602D01*
X594980Y1139176D01*
Y1136664D01*
X595630Y1134238D01*
X596886Y1132062D01*
X598662Y1130286D01*
X600838Y1129030D01*
X603264Y1128380D01*
X605776D01*
X608202Y1129030D01*
X610378Y1130286D01*
X612154Y1132062D01*
X613410Y1134238D01*
X614060Y1136664D01*
Y1139176D01*
X613410Y1141602D01*
X612154Y1143778D01*
X610378Y1145554D01*
X608202Y1146810D01*
X605776Y1147460D01*
D02*
G37*
G36*
X588060Y1136650D02*
X579790D01*
Y1128380D01*
X588060D01*
Y1136650D01*
D02*
G37*
G36*
X577250D02*
X568980D01*
Y1128380D01*
X577250D01*
Y1136650D01*
D02*
G37*
G36*
X1892886Y1143650D02*
X1890374D01*
X1887948Y1143000D01*
X1885772Y1141744D01*
X1883996Y1139968D01*
X1882740Y1137792D01*
X1882090Y1135366D01*
Y1132854D01*
X1882740Y1130428D01*
X1883996Y1128252D01*
X1885772Y1126476D01*
X1887948Y1125220D01*
X1890374Y1124570D01*
X1892886D01*
X1895312Y1125220D01*
X1897488Y1126476D01*
X1899264Y1128252D01*
X1900520Y1130428D01*
X1901170Y1132854D01*
Y1135366D01*
X1900520Y1137792D01*
X1899264Y1139968D01*
X1897488Y1141744D01*
X1895312Y1143000D01*
X1892886Y1143650D01*
D02*
G37*
G36*
X1866886D02*
X1864374D01*
X1861948Y1143000D01*
X1859772Y1141744D01*
X1857996Y1139968D01*
X1856740Y1137792D01*
X1856090Y1135366D01*
Y1132854D01*
X1856740Y1130428D01*
X1857996Y1128252D01*
X1859772Y1126476D01*
X1861948Y1125220D01*
X1864374Y1124570D01*
X1866886D01*
X1869312Y1125220D01*
X1871488Y1126476D01*
X1873264Y1128252D01*
X1874520Y1130428D01*
X1875170Y1132854D01*
Y1135366D01*
X1874520Y1137792D01*
X1873264Y1139968D01*
X1871488Y1141744D01*
X1869312Y1143000D01*
X1866886Y1143650D01*
D02*
G37*
G36*
X1849170Y1132840D02*
X1840900D01*
Y1124570D01*
X1849170D01*
Y1132840D01*
D02*
G37*
G36*
X1838360D02*
X1830090D01*
Y1124570D01*
X1838360D01*
Y1132840D01*
D02*
G37*
G36*
X1671906Y1143650D02*
X1669394D01*
X1666968Y1143000D01*
X1664792Y1141744D01*
X1663016Y1139968D01*
X1661760Y1137792D01*
X1661110Y1135366D01*
Y1132854D01*
X1661760Y1130428D01*
X1663016Y1128252D01*
X1664792Y1126476D01*
X1666968Y1125220D01*
X1669394Y1124570D01*
X1671906D01*
X1674332Y1125220D01*
X1676508Y1126476D01*
X1678284Y1128252D01*
X1679540Y1130428D01*
X1680190Y1132854D01*
Y1135366D01*
X1679540Y1137792D01*
X1678284Y1139968D01*
X1676508Y1141744D01*
X1674332Y1143000D01*
X1671906Y1143650D01*
D02*
G37*
G36*
X1645906D02*
X1643394D01*
X1640968Y1143000D01*
X1638792Y1141744D01*
X1637016Y1139968D01*
X1635760Y1137792D01*
X1635110Y1135366D01*
Y1132854D01*
X1635760Y1130428D01*
X1637016Y1128252D01*
X1638792Y1126476D01*
X1640968Y1125220D01*
X1643394Y1124570D01*
X1645906D01*
X1648332Y1125220D01*
X1650508Y1126476D01*
X1652284Y1128252D01*
X1653540Y1130428D01*
X1654190Y1132854D01*
Y1135366D01*
X1653540Y1137792D01*
X1652284Y1139968D01*
X1650508Y1141744D01*
X1648332Y1143000D01*
X1645906Y1143650D01*
D02*
G37*
G36*
X1628190Y1132840D02*
X1619920D01*
Y1124570D01*
X1628190D01*
Y1132840D01*
D02*
G37*
G36*
X1617380D02*
X1609110D01*
Y1124570D01*
X1617380D01*
Y1132840D01*
D02*
G37*
G36*
X215216Y1143650D02*
X212704D01*
X210278Y1143000D01*
X208102Y1141744D01*
X206326Y1139968D01*
X205070Y1137792D01*
X204420Y1135366D01*
Y1132854D01*
X205070Y1130428D01*
X206326Y1128252D01*
X208102Y1126476D01*
X210278Y1125220D01*
X212704Y1124570D01*
X215216D01*
X217642Y1125220D01*
X219818Y1126476D01*
X221594Y1128252D01*
X222850Y1130428D01*
X223500Y1132854D01*
Y1135366D01*
X222850Y1137792D01*
X221594Y1139968D01*
X219818Y1141744D01*
X217642Y1143000D01*
X215216Y1143650D01*
D02*
G37*
G36*
X189216D02*
X186704D01*
X184278Y1143000D01*
X182102Y1141744D01*
X180326Y1139968D01*
X179070Y1137792D01*
X178420Y1135366D01*
Y1132854D01*
X179070Y1130428D01*
X180326Y1128252D01*
X182102Y1126476D01*
X184278Y1125220D01*
X186704Y1124570D01*
X189216D01*
X191642Y1125220D01*
X193818Y1126476D01*
X195594Y1128252D01*
X196850Y1130428D01*
X197500Y1132854D01*
Y1135366D01*
X196850Y1137792D01*
X195594Y1139968D01*
X193818Y1141744D01*
X191642Y1143000D01*
X189216Y1143650D01*
D02*
G37*
G36*
X171500Y1132840D02*
X163230D01*
Y1124570D01*
X171500D01*
Y1132840D01*
D02*
G37*
G36*
X160690D02*
X152420D01*
Y1124570D01*
X160690D01*
Y1132840D01*
D02*
G37*
G36*
X62860Y1092830D02*
X41280D01*
Y1071250D01*
X62860D01*
Y1092830D01*
D02*
G37*
G36*
X2250440Y1052803D02*
Y1045210D01*
X2258033D01*
X2257454Y1047371D01*
X2256284Y1049399D01*
X2254629Y1051054D01*
X2252601Y1052224D01*
X2250440Y1052803D01*
D02*
G37*
G36*
X2247900D02*
X2245739Y1052224D01*
X2243711Y1051054D01*
X2242056Y1049399D01*
X2240886Y1047371D01*
X2240307Y1045210D01*
X2247900D01*
Y1052803D01*
D02*
G37*
G36*
X2182336D02*
Y1045210D01*
X2189929D01*
X2189350Y1047371D01*
X2188180Y1049399D01*
X2186525Y1051054D01*
X2184498Y1052224D01*
X2182336Y1052803D01*
D02*
G37*
G36*
X2179796D02*
X2177635Y1052224D01*
X2175607Y1051054D01*
X2173952Y1049399D01*
X2172782Y1047371D01*
X2172203Y1045210D01*
X2179796D01*
Y1052803D01*
D02*
G37*
G36*
X2115502D02*
Y1045210D01*
X2123096D01*
X2122516Y1047371D01*
X2121346Y1049399D01*
X2119691Y1051054D01*
X2117664Y1052224D01*
X2115502Y1052803D01*
D02*
G37*
G36*
X2112962D02*
X2110801Y1052224D01*
X2108774Y1051054D01*
X2107119Y1049399D01*
X2105948Y1047371D01*
X2105369Y1045210D01*
X2112962D01*
Y1052803D01*
D02*
G37*
G36*
X2048669D02*
Y1045210D01*
X2056262D01*
X2055683Y1047371D01*
X2054512Y1049399D01*
X2052857Y1051054D01*
X2050830Y1052224D01*
X2048669Y1052803D01*
D02*
G37*
G36*
X2046129D02*
X2043967Y1052224D01*
X2041940Y1051054D01*
X2040285Y1049399D01*
X2039115Y1047371D01*
X2038535Y1045210D01*
X2046129D01*
Y1052803D01*
D02*
G37*
G36*
X1981835D02*
Y1045210D01*
X1989428D01*
X1988849Y1047371D01*
X1987679Y1049399D01*
X1986024Y1051054D01*
X1983996Y1052224D01*
X1981835Y1052803D01*
D02*
G37*
G36*
X1979295D02*
X1977133Y1052224D01*
X1975106Y1051054D01*
X1973451Y1049399D01*
X1972281Y1047371D01*
X1971702Y1045210D01*
X1979295D01*
Y1052803D01*
D02*
G37*
G36*
X1915001D02*
Y1045210D01*
X1922594D01*
X1922015Y1047371D01*
X1920845Y1049399D01*
X1919190Y1051054D01*
X1917163Y1052224D01*
X1915001Y1052803D01*
D02*
G37*
G36*
X1912461D02*
X1910300Y1052224D01*
X1908273Y1051054D01*
X1906617Y1049399D01*
X1905447Y1047371D01*
X1904868Y1045210D01*
X1912461D01*
Y1052803D01*
D02*
G37*
G36*
X1781334D02*
Y1045210D01*
X1788927D01*
X1788348Y1047371D01*
X1787177Y1049399D01*
X1785522Y1051054D01*
X1783495Y1052224D01*
X1781334Y1052803D01*
D02*
G37*
G36*
X1778794D02*
X1776632Y1052224D01*
X1774605Y1051054D01*
X1772950Y1049399D01*
X1771780Y1047371D01*
X1771200Y1045210D01*
X1778794D01*
Y1052803D01*
D02*
G37*
G36*
X1714500D02*
Y1045210D01*
X1722093D01*
X1721514Y1047371D01*
X1720344Y1049399D01*
X1718689Y1051054D01*
X1716661Y1052224D01*
X1714500Y1052803D01*
D02*
G37*
G36*
X1711960D02*
X1709799Y1052224D01*
X1707771Y1051054D01*
X1706116Y1049399D01*
X1704946Y1047371D01*
X1704367Y1045210D01*
X1711960D01*
Y1052803D01*
D02*
G37*
G36*
X938410Y1053980D02*
X929640D01*
Y1045210D01*
X938410D01*
Y1053980D01*
D02*
G37*
G36*
X927100D02*
X918330D01*
Y1045210D01*
X927100D01*
Y1053980D01*
D02*
G37*
G36*
X2258033Y1042670D02*
X2250440D01*
Y1035077D01*
X2252601Y1035656D01*
X2254629Y1036826D01*
X2256284Y1038481D01*
X2257454Y1040509D01*
X2258033Y1042670D01*
D02*
G37*
G36*
X2247900D02*
X2240307D01*
X2240886Y1040509D01*
X2242056Y1038481D01*
X2243711Y1036826D01*
X2245739Y1035656D01*
X2247900Y1035077D01*
Y1042670D01*
D02*
G37*
G36*
X2189929D02*
X2182336D01*
Y1035077D01*
X2184498Y1035656D01*
X2186525Y1036826D01*
X2188180Y1038481D01*
X2189350Y1040509D01*
X2189929Y1042670D01*
D02*
G37*
G36*
X2179796D02*
X2172203D01*
X2172782Y1040509D01*
X2173952Y1038481D01*
X2175607Y1036826D01*
X2177635Y1035656D01*
X2179796Y1035077D01*
Y1042670D01*
D02*
G37*
G36*
X2123096D02*
X2115502D01*
Y1035077D01*
X2117664Y1035656D01*
X2119691Y1036826D01*
X2121346Y1038481D01*
X2122516Y1040509D01*
X2123096Y1042670D01*
D02*
G37*
G36*
X2112962D02*
X2105369D01*
X2105948Y1040509D01*
X2107119Y1038481D01*
X2108774Y1036826D01*
X2110801Y1035656D01*
X2112962Y1035077D01*
Y1042670D01*
D02*
G37*
G36*
X2056262D02*
X2048669D01*
Y1035077D01*
X2050830Y1035656D01*
X2052857Y1036826D01*
X2054512Y1038481D01*
X2055683Y1040509D01*
X2056262Y1042670D01*
D02*
G37*
G36*
X2046129D02*
X2038535D01*
X2039115Y1040509D01*
X2040285Y1038481D01*
X2041940Y1036826D01*
X2043967Y1035656D01*
X2046129Y1035077D01*
Y1042670D01*
D02*
G37*
G36*
X1989428D02*
X1981835D01*
Y1035077D01*
X1983996Y1035656D01*
X1986024Y1036826D01*
X1987679Y1038481D01*
X1988849Y1040509D01*
X1989428Y1042670D01*
D02*
G37*
G36*
X1979295D02*
X1971702D01*
X1972281Y1040509D01*
X1973451Y1038481D01*
X1975106Y1036826D01*
X1977133Y1035656D01*
X1979295Y1035077D01*
Y1042670D01*
D02*
G37*
G36*
X1922594D02*
X1915001D01*
Y1035077D01*
X1917163Y1035656D01*
X1919190Y1036826D01*
X1920845Y1038481D01*
X1922015Y1040509D01*
X1922594Y1042670D01*
D02*
G37*
G36*
X1912461D02*
X1904868D01*
X1905447Y1040509D01*
X1906617Y1038481D01*
X1908273Y1036826D01*
X1910300Y1035656D01*
X1912461Y1035077D01*
Y1042670D01*
D02*
G37*
G36*
X1788927D02*
X1781334D01*
Y1035077D01*
X1783495Y1035656D01*
X1785522Y1036826D01*
X1787177Y1038481D01*
X1788348Y1040509D01*
X1788927Y1042670D01*
D02*
G37*
G36*
X1778794D02*
X1771200D01*
X1771780Y1040509D01*
X1772950Y1038481D01*
X1774605Y1036826D01*
X1776632Y1035656D01*
X1778794Y1035077D01*
Y1042670D01*
D02*
G37*
G36*
X1722093D02*
X1714500D01*
Y1035077D01*
X1716661Y1035656D01*
X1718689Y1036826D01*
X1720344Y1038481D01*
X1721514Y1040509D01*
X1722093Y1042670D01*
D02*
G37*
G36*
X1711960D02*
X1704367D01*
X1704946Y1040509D01*
X1706116Y1038481D01*
X1707771Y1036826D01*
X1709799Y1035656D01*
X1711960Y1035077D01*
Y1042670D01*
D02*
G37*
G36*
X1132892Y1053980D02*
X1130248D01*
X1127695Y1053296D01*
X1125405Y1051974D01*
X1123536Y1050105D01*
X1122214Y1047815D01*
X1121530Y1045262D01*
Y1042618D01*
X1122214Y1040065D01*
X1123536Y1037775D01*
X1125405Y1035906D01*
X1127695Y1034584D01*
X1130248Y1033900D01*
X1132892D01*
X1135445Y1034584D01*
X1137735Y1035906D01*
X1139604Y1037775D01*
X1140926Y1040065D01*
X1141610Y1042618D01*
Y1045262D01*
X1140926Y1047815D01*
X1139604Y1050105D01*
X1137735Y1051974D01*
X1135445Y1053296D01*
X1132892Y1053980D01*
D02*
G37*
G36*
X1107492D02*
X1104848D01*
X1102295Y1053296D01*
X1100005Y1051974D01*
X1098136Y1050105D01*
X1096814Y1047815D01*
X1096130Y1045262D01*
Y1042618D01*
X1096814Y1040065D01*
X1098136Y1037775D01*
X1100005Y1035906D01*
X1102295Y1034584D01*
X1104848Y1033900D01*
X1107492D01*
X1110045Y1034584D01*
X1112335Y1035906D01*
X1114204Y1037775D01*
X1115526Y1040065D01*
X1116210Y1042618D01*
Y1045262D01*
X1115526Y1047815D01*
X1114204Y1050105D01*
X1112335Y1051974D01*
X1110045Y1053296D01*
X1107492Y1053980D01*
D02*
G37*
G36*
X1082092D02*
X1079448D01*
X1076895Y1053296D01*
X1074605Y1051974D01*
X1072736Y1050105D01*
X1071414Y1047815D01*
X1070730Y1045262D01*
Y1042618D01*
X1071414Y1040065D01*
X1072736Y1037775D01*
X1074605Y1035906D01*
X1076895Y1034584D01*
X1079448Y1033900D01*
X1082092D01*
X1084645Y1034584D01*
X1086935Y1035906D01*
X1088804Y1037775D01*
X1090126Y1040065D01*
X1090810Y1042618D01*
Y1045262D01*
X1090126Y1047815D01*
X1088804Y1050105D01*
X1086935Y1051974D01*
X1084645Y1053296D01*
X1082092Y1053980D01*
D02*
G37*
G36*
X1056692D02*
X1054048D01*
X1051495Y1053296D01*
X1049205Y1051974D01*
X1047336Y1050105D01*
X1046014Y1047815D01*
X1045330Y1045262D01*
Y1042618D01*
X1046014Y1040065D01*
X1047336Y1037775D01*
X1049205Y1035906D01*
X1051495Y1034584D01*
X1054048Y1033900D01*
X1056692D01*
X1059245Y1034584D01*
X1061535Y1035906D01*
X1063404Y1037775D01*
X1064726Y1040065D01*
X1065410Y1042618D01*
Y1045262D01*
X1064726Y1047815D01*
X1063404Y1050105D01*
X1061535Y1051974D01*
X1059245Y1053296D01*
X1056692Y1053980D01*
D02*
G37*
G36*
X1031292D02*
X1028648D01*
X1026095Y1053296D01*
X1023805Y1051974D01*
X1021936Y1050105D01*
X1020614Y1047815D01*
X1019930Y1045262D01*
Y1042618D01*
X1020614Y1040065D01*
X1021936Y1037775D01*
X1023805Y1035906D01*
X1026095Y1034584D01*
X1028648Y1033900D01*
X1031292D01*
X1033845Y1034584D01*
X1036135Y1035906D01*
X1038004Y1037775D01*
X1039326Y1040065D01*
X1040010Y1042618D01*
Y1045262D01*
X1039326Y1047815D01*
X1038004Y1050105D01*
X1036135Y1051974D01*
X1033845Y1053296D01*
X1031292Y1053980D01*
D02*
G37*
G36*
X1005892D02*
X1003248D01*
X1000695Y1053296D01*
X998405Y1051974D01*
X996536Y1050105D01*
X995214Y1047815D01*
X994530Y1045262D01*
Y1042618D01*
X995214Y1040065D01*
X996536Y1037775D01*
X998405Y1035906D01*
X1000695Y1034584D01*
X1003248Y1033900D01*
X1005892D01*
X1008445Y1034584D01*
X1010735Y1035906D01*
X1012604Y1037775D01*
X1013926Y1040065D01*
X1014610Y1042618D01*
Y1045262D01*
X1013926Y1047815D01*
X1012604Y1050105D01*
X1010735Y1051974D01*
X1008445Y1053296D01*
X1005892Y1053980D01*
D02*
G37*
G36*
X980492D02*
X977848D01*
X975295Y1053296D01*
X973005Y1051974D01*
X971136Y1050105D01*
X969814Y1047815D01*
X969130Y1045262D01*
Y1042618D01*
X969814Y1040065D01*
X971136Y1037775D01*
X973005Y1035906D01*
X975295Y1034584D01*
X977848Y1033900D01*
X980492D01*
X983045Y1034584D01*
X985335Y1035906D01*
X987204Y1037775D01*
X988526Y1040065D01*
X989210Y1042618D01*
Y1045262D01*
X988526Y1047815D01*
X987204Y1050105D01*
X985335Y1051974D01*
X983045Y1053296D01*
X980492Y1053980D01*
D02*
G37*
G36*
X955092D02*
X952448D01*
X949895Y1053296D01*
X947605Y1051974D01*
X945736Y1050105D01*
X944414Y1047815D01*
X943730Y1045262D01*
Y1042618D01*
X944414Y1040065D01*
X945736Y1037775D01*
X947605Y1035906D01*
X949895Y1034584D01*
X952448Y1033900D01*
X955092D01*
X957645Y1034584D01*
X959935Y1035906D01*
X961804Y1037775D01*
X963126Y1040065D01*
X963810Y1042618D01*
Y1045262D01*
X963126Y1047815D01*
X961804Y1050105D01*
X959935Y1051974D01*
X957645Y1053296D01*
X955092Y1053980D01*
D02*
G37*
G36*
X938410Y1042670D02*
X929640D01*
Y1033900D01*
X938410D01*
Y1042670D01*
D02*
G37*
G36*
X927100D02*
X918330D01*
Y1033900D01*
X927100D01*
Y1042670D01*
D02*
G37*
G36*
X53491Y1042030D02*
X53340D01*
Y1032510D01*
X62860D01*
Y1032661D01*
X62125Y1035405D01*
X60704Y1037865D01*
X58695Y1039874D01*
X56235Y1041295D01*
X53491Y1042030D01*
D02*
G37*
G36*
X50800D02*
X50649D01*
X47905Y1041295D01*
X45445Y1039874D01*
X43436Y1037865D01*
X42015Y1035405D01*
X41280Y1032661D01*
Y1032510D01*
X50800D01*
Y1042030D01*
D02*
G37*
G36*
X1188675Y1277670D02*
X1145540D01*
X1144549Y1277473D01*
X1143709Y1276911D01*
X1143147Y1276071D01*
X1142950Y1275080D01*
Y1033780D01*
X1143147Y1032789D01*
X1143709Y1031949D01*
X1144549Y1031387D01*
X1145540Y1031190D01*
X1151948D01*
X1152115Y1031224D01*
X1152286Y1031212D01*
X1152607Y1031321D01*
X1152939Y1031387D01*
X1153081Y1031482D01*
X1153242Y1031537D01*
X1153497Y1031760D01*
X1153779Y1031949D01*
X1153874Y1032091D01*
X1154002Y1032204D01*
X1154152Y1032507D01*
X1154340Y1032789D01*
X1154374Y1032956D01*
X1154449Y1033110D01*
X1154727Y1034147D01*
X1155648Y1033900D01*
X1158292D01*
X1159213Y1034147D01*
X1159491Y1033110D01*
X1159566Y1032956D01*
X1159600Y1032789D01*
X1159788Y1032507D01*
X1159938Y1032204D01*
X1160066Y1032091D01*
X1160161Y1031949D01*
X1160443Y1031760D01*
X1160697Y1031537D01*
X1160859Y1031482D01*
X1161001Y1031387D01*
X1161333Y1031321D01*
X1161654Y1031212D01*
X1161825Y1031224D01*
X1161992Y1031190D01*
X1184910D01*
X1185901Y1031387D01*
X1186741Y1031949D01*
X1187303Y1032789D01*
X1187500Y1033780D01*
Y1182490D01*
X1203900D01*
Y1202570D01*
X1187500D01*
Y1250900D01*
X1189187D01*
X1189561Y1250975D01*
X1189940Y1251012D01*
X1190053Y1251072D01*
X1190178Y1251097D01*
X1190495Y1251309D01*
X1190831Y1251489D01*
X1190912Y1251588D01*
X1191018Y1251659D01*
X1191230Y1251976D01*
X1191471Y1252270D01*
X1192027Y1253310D01*
X1192064Y1253432D01*
X1192135Y1253539D01*
X1192209Y1253913D01*
X1192320Y1254277D01*
X1193571Y1254530D01*
X1209802D01*
Y1274590D01*
X1192332D01*
X1192243Y1275039D01*
X1192171Y1275490D01*
X1192144Y1275532D01*
X1192135Y1275581D01*
X1191881Y1275961D01*
X1191641Y1276351D01*
X1191601Y1276380D01*
X1191573Y1276421D01*
X1191193Y1276675D01*
X1190823Y1276943D01*
X1189756Y1277433D01*
X1189708Y1277445D01*
X1189666Y1277473D01*
X1189218Y1277562D01*
X1188773Y1277668D01*
X1188724Y1277660D01*
X1188675Y1277670D01*
D02*
G37*
G36*
X62860Y1029970D02*
X53340D01*
Y1020450D01*
X53491D01*
X56235Y1021185D01*
X58695Y1022606D01*
X60704Y1024615D01*
X62125Y1027075D01*
X62860Y1029819D01*
Y1029970D01*
D02*
G37*
G36*
X50800D02*
X41280D01*
Y1029819D01*
X42015Y1027075D01*
X43436Y1024615D01*
X45445Y1022606D01*
X47905Y1021185D01*
X50649Y1020450D01*
X50800D01*
Y1029970D01*
D02*
G37*
G36*
X1556900Y1013340D02*
X1536820D01*
Y993260D01*
X1556900D01*
Y1013340D01*
D02*
G37*
G36*
X1696706Y1005220D02*
X1694194D01*
X1691768Y1004570D01*
X1689592Y1003314D01*
X1687816Y1001538D01*
X1686560Y999362D01*
X1685910Y996936D01*
Y994424D01*
X1686560Y991998D01*
X1687816Y989822D01*
X1689592Y988046D01*
X1691768Y986790D01*
X1694194Y986140D01*
X1696706D01*
X1699132Y986790D01*
X1701308Y988046D01*
X1703084Y989822D01*
X1704340Y991998D01*
X1704990Y994424D01*
Y996936D01*
X1704340Y999362D01*
X1703084Y1001538D01*
X1701308Y1003314D01*
X1699132Y1004570D01*
X1696706Y1005220D01*
D02*
G37*
G36*
X2250440Y980413D02*
Y972820D01*
X2258033D01*
X2257454Y974981D01*
X2256284Y977009D01*
X2254629Y978664D01*
X2252601Y979834D01*
X2250440Y980413D01*
D02*
G37*
G36*
X2247900D02*
X2245739Y979834D01*
X2243711Y978664D01*
X2242056Y977009D01*
X2240886Y974981D01*
X2240307Y972820D01*
X2247900D01*
Y980413D01*
D02*
G37*
G36*
X1786900Y987940D02*
X1766820D01*
Y967860D01*
X1786900D01*
Y987940D01*
D02*
G37*
G36*
X1548182D02*
X1545538D01*
X1542985Y987256D01*
X1540695Y985934D01*
X1538826Y984065D01*
X1537504Y981775D01*
X1536820Y979222D01*
Y976578D01*
X1537504Y974025D01*
X1538826Y971735D01*
X1540695Y969866D01*
X1542985Y968544D01*
X1545538Y967860D01*
X1548182D01*
X1550735Y968544D01*
X1553025Y969866D01*
X1554894Y971735D01*
X1556216Y974025D01*
X1556900Y976578D01*
Y979222D01*
X1556216Y981775D01*
X1554894Y984065D01*
X1553025Y985934D01*
X1550735Y987256D01*
X1548182Y987940D01*
D02*
G37*
G36*
X789281Y976810D02*
X789190D01*
Y967740D01*
X798260D01*
Y967831D01*
X797555Y970461D01*
X796194Y972819D01*
X794269Y974744D01*
X791911Y976105D01*
X789281Y976810D01*
D02*
G37*
G36*
X786650D02*
X786559D01*
X783929Y976105D01*
X781571Y974744D01*
X779646Y972819D01*
X778285Y970461D01*
X777580Y967831D01*
Y967740D01*
X786650D01*
Y976810D01*
D02*
G37*
G36*
X2258033Y970280D02*
X2250440D01*
Y962687D01*
X2252601Y963266D01*
X2254629Y964436D01*
X2256284Y966091D01*
X2257454Y968119D01*
X2258033Y970280D01*
D02*
G37*
G36*
X2247900D02*
X2240307D01*
X2240886Y968119D01*
X2242056Y966091D01*
X2243711Y964436D01*
X2245739Y963266D01*
X2247900Y962687D01*
Y970280D01*
D02*
G37*
G36*
X1246481Y976810D02*
X1243759D01*
X1241129Y976105D01*
X1238771Y974744D01*
X1236846Y972819D01*
X1235485Y970461D01*
X1234780Y967831D01*
Y965109D01*
X1235485Y962479D01*
X1236846Y960121D01*
X1238771Y958196D01*
X1241129Y956835D01*
X1243759Y956130D01*
X1246481D01*
X1249111Y956835D01*
X1251469Y958196D01*
X1253394Y960121D01*
X1254755Y962479D01*
X1255460Y965109D01*
Y967831D01*
X1254755Y970461D01*
X1253394Y972819D01*
X1251469Y974744D01*
X1249111Y976105D01*
X1246481Y976810D01*
D02*
G37*
G36*
X1221081D02*
X1218359D01*
X1215729Y976105D01*
X1213371Y974744D01*
X1211446Y972819D01*
X1210085Y970461D01*
X1209380Y967831D01*
Y965109D01*
X1210085Y962479D01*
X1211446Y960121D01*
X1213371Y958196D01*
X1215729Y956835D01*
X1218359Y956130D01*
X1221081D01*
X1223711Y956835D01*
X1226069Y958196D01*
X1227994Y960121D01*
X1229355Y962479D01*
X1230060Y965109D01*
Y967831D01*
X1229355Y970461D01*
X1227994Y972819D01*
X1226069Y974744D01*
X1223711Y976105D01*
X1221081Y976810D01*
D02*
G37*
G36*
X1195681D02*
X1192959D01*
X1190329Y976105D01*
X1187971Y974744D01*
X1186046Y972819D01*
X1184685Y970461D01*
X1183980Y967831D01*
Y965109D01*
X1184685Y962479D01*
X1186046Y960121D01*
X1187971Y958196D01*
X1190329Y956835D01*
X1192959Y956130D01*
X1195681D01*
X1198311Y956835D01*
X1200669Y958196D01*
X1202594Y960121D01*
X1203955Y962479D01*
X1204660Y965109D01*
Y967831D01*
X1203955Y970461D01*
X1202594Y972819D01*
X1200669Y974744D01*
X1198311Y976105D01*
X1195681Y976810D01*
D02*
G37*
G36*
X1170281D02*
X1167559D01*
X1164929Y976105D01*
X1162571Y974744D01*
X1160646Y972819D01*
X1159285Y970461D01*
X1158580Y967831D01*
Y965109D01*
X1159285Y962479D01*
X1160646Y960121D01*
X1162571Y958196D01*
X1164929Y956835D01*
X1167559Y956130D01*
X1170281D01*
X1172911Y956835D01*
X1175269Y958196D01*
X1177194Y960121D01*
X1178555Y962479D01*
X1179260Y965109D01*
Y967831D01*
X1178555Y970461D01*
X1177194Y972819D01*
X1175269Y974744D01*
X1172911Y976105D01*
X1170281Y976810D01*
D02*
G37*
G36*
X1144881D02*
X1142159D01*
X1139529Y976105D01*
X1137171Y974744D01*
X1135246Y972819D01*
X1133885Y970461D01*
X1133180Y967831D01*
Y965109D01*
X1133885Y962479D01*
X1135246Y960121D01*
X1137171Y958196D01*
X1139529Y956835D01*
X1142159Y956130D01*
X1144881D01*
X1147511Y956835D01*
X1149869Y958196D01*
X1151794Y960121D01*
X1153155Y962479D01*
X1153860Y965109D01*
Y967831D01*
X1153155Y970461D01*
X1151794Y972819D01*
X1149869Y974744D01*
X1147511Y976105D01*
X1144881Y976810D01*
D02*
G37*
G36*
X1119481D02*
X1116759D01*
X1114129Y976105D01*
X1111771Y974744D01*
X1109846Y972819D01*
X1108485Y970461D01*
X1107780Y967831D01*
Y965109D01*
X1108485Y962479D01*
X1109846Y960121D01*
X1111771Y958196D01*
X1114129Y956835D01*
X1116759Y956130D01*
X1119481D01*
X1122111Y956835D01*
X1124469Y958196D01*
X1126394Y960121D01*
X1127755Y962479D01*
X1128460Y965109D01*
Y967831D01*
X1127755Y970461D01*
X1126394Y972819D01*
X1124469Y974744D01*
X1122111Y976105D01*
X1119481Y976810D01*
D02*
G37*
G36*
X1094081D02*
X1091359D01*
X1088729Y976105D01*
X1086371Y974744D01*
X1084446Y972819D01*
X1083085Y970461D01*
X1082380Y967831D01*
Y965109D01*
X1083085Y962479D01*
X1084446Y960121D01*
X1086371Y958196D01*
X1088729Y956835D01*
X1091359Y956130D01*
X1094081D01*
X1096711Y956835D01*
X1099069Y958196D01*
X1100994Y960121D01*
X1102355Y962479D01*
X1103060Y965109D01*
Y967831D01*
X1102355Y970461D01*
X1100994Y972819D01*
X1099069Y974744D01*
X1096711Y976105D01*
X1094081Y976810D01*
D02*
G37*
G36*
X1068681D02*
X1065959D01*
X1063329Y976105D01*
X1060971Y974744D01*
X1059046Y972819D01*
X1057685Y970461D01*
X1056980Y967831D01*
Y965109D01*
X1057685Y962479D01*
X1059046Y960121D01*
X1060971Y958196D01*
X1063329Y956835D01*
X1065959Y956130D01*
X1068681D01*
X1071311Y956835D01*
X1073669Y958196D01*
X1075594Y960121D01*
X1076955Y962479D01*
X1077660Y965109D01*
Y967831D01*
X1076955Y970461D01*
X1075594Y972819D01*
X1073669Y974744D01*
X1071311Y976105D01*
X1068681Y976810D01*
D02*
G37*
G36*
X1043281D02*
X1040559D01*
X1037929Y976105D01*
X1035571Y974744D01*
X1033646Y972819D01*
X1032285Y970461D01*
X1031580Y967831D01*
Y965109D01*
X1032285Y962479D01*
X1033646Y960121D01*
X1035571Y958196D01*
X1037929Y956835D01*
X1040559Y956130D01*
X1043281D01*
X1045911Y956835D01*
X1048269Y958196D01*
X1050194Y960121D01*
X1051555Y962479D01*
X1052260Y965109D01*
Y967831D01*
X1051555Y970461D01*
X1050194Y972819D01*
X1048269Y974744D01*
X1045911Y976105D01*
X1043281Y976810D01*
D02*
G37*
G36*
X1017881D02*
X1015159D01*
X1012529Y976105D01*
X1010171Y974744D01*
X1008246Y972819D01*
X1006885Y970461D01*
X1006180Y967831D01*
Y965109D01*
X1006885Y962479D01*
X1008246Y960121D01*
X1010171Y958196D01*
X1012529Y956835D01*
X1015159Y956130D01*
X1017881D01*
X1020511Y956835D01*
X1022869Y958196D01*
X1024794Y960121D01*
X1026155Y962479D01*
X1026860Y965109D01*
Y967831D01*
X1026155Y970461D01*
X1024794Y972819D01*
X1022869Y974744D01*
X1020511Y976105D01*
X1017881Y976810D01*
D02*
G37*
G36*
X992481D02*
X989759D01*
X987129Y976105D01*
X984771Y974744D01*
X982846Y972819D01*
X981485Y970461D01*
X980780Y967831D01*
Y965109D01*
X981485Y962479D01*
X982846Y960121D01*
X984771Y958196D01*
X987129Y956835D01*
X989759Y956130D01*
X992481D01*
X995111Y956835D01*
X997469Y958196D01*
X999394Y960121D01*
X1000755Y962479D01*
X1001460Y965109D01*
Y967831D01*
X1000755Y970461D01*
X999394Y972819D01*
X997469Y974744D01*
X995111Y976105D01*
X992481Y976810D01*
D02*
G37*
G36*
X967081D02*
X964359D01*
X961729Y976105D01*
X959371Y974744D01*
X957446Y972819D01*
X956085Y970461D01*
X955380Y967831D01*
Y965109D01*
X956085Y962479D01*
X957446Y960121D01*
X959371Y958196D01*
X961729Y956835D01*
X964359Y956130D01*
X967081D01*
X969711Y956835D01*
X972069Y958196D01*
X973994Y960121D01*
X975355Y962479D01*
X976060Y965109D01*
Y967831D01*
X975355Y970461D01*
X973994Y972819D01*
X972069Y974744D01*
X969711Y976105D01*
X967081Y976810D01*
D02*
G37*
G36*
X941681D02*
X938959D01*
X936329Y976105D01*
X933971Y974744D01*
X932046Y972819D01*
X930685Y970461D01*
X929980Y967831D01*
Y965109D01*
X930685Y962479D01*
X932046Y960121D01*
X933971Y958196D01*
X936329Y956835D01*
X938959Y956130D01*
X941681D01*
X944311Y956835D01*
X946669Y958196D01*
X948594Y960121D01*
X949955Y962479D01*
X950660Y965109D01*
Y967831D01*
X949955Y970461D01*
X948594Y972819D01*
X946669Y974744D01*
X944311Y976105D01*
X941681Y976810D01*
D02*
G37*
G36*
X916281D02*
X913559D01*
X910929Y976105D01*
X908571Y974744D01*
X906646Y972819D01*
X905285Y970461D01*
X904580Y967831D01*
Y965109D01*
X905285Y962479D01*
X906646Y960121D01*
X908571Y958196D01*
X910929Y956835D01*
X913559Y956130D01*
X916281D01*
X918911Y956835D01*
X921269Y958196D01*
X923194Y960121D01*
X924555Y962479D01*
X925260Y965109D01*
Y967831D01*
X924555Y970461D01*
X923194Y972819D01*
X921269Y974744D01*
X918911Y976105D01*
X916281Y976810D01*
D02*
G37*
G36*
X890881D02*
X888159D01*
X885529Y976105D01*
X883171Y974744D01*
X881246Y972819D01*
X879885Y970461D01*
X879180Y967831D01*
Y965109D01*
X879885Y962479D01*
X881246Y960121D01*
X883171Y958196D01*
X885529Y956835D01*
X888159Y956130D01*
X890881D01*
X893511Y956835D01*
X895869Y958196D01*
X897794Y960121D01*
X899155Y962479D01*
X899860Y965109D01*
Y967831D01*
X899155Y970461D01*
X897794Y972819D01*
X895869Y974744D01*
X893511Y976105D01*
X890881Y976810D01*
D02*
G37*
G36*
X865481D02*
X862759D01*
X860129Y976105D01*
X857771Y974744D01*
X855846Y972819D01*
X854485Y970461D01*
X853780Y967831D01*
Y965109D01*
X854485Y962479D01*
X855846Y960121D01*
X857771Y958196D01*
X860129Y956835D01*
X862759Y956130D01*
X865481D01*
X868111Y956835D01*
X870469Y958196D01*
X872394Y960121D01*
X873755Y962479D01*
X874460Y965109D01*
Y967831D01*
X873755Y970461D01*
X872394Y972819D01*
X870469Y974744D01*
X868111Y976105D01*
X865481Y976810D01*
D02*
G37*
G36*
X798260Y965200D02*
X789190D01*
Y956130D01*
X789281D01*
X791911Y956835D01*
X794269Y958196D01*
X796194Y960121D01*
X797555Y962479D01*
X798260Y965109D01*
Y965200D01*
D02*
G37*
G36*
X786650D02*
X777580D01*
Y965109D01*
X778285Y962479D01*
X779646Y960121D01*
X781571Y958196D01*
X783929Y956835D01*
X786559Y956130D01*
X786650D01*
Y965200D01*
D02*
G37*
G36*
X64130Y974720D02*
X42550D01*
Y953140D01*
X64130D01*
Y974720D01*
D02*
G37*
G36*
X1548182Y962540D02*
X1545538D01*
X1542985Y961856D01*
X1540695Y960534D01*
X1538826Y958665D01*
X1537504Y956375D01*
X1536820Y953822D01*
Y951178D01*
X1537504Y948625D01*
X1538826Y946335D01*
X1540695Y944466D01*
X1542985Y943144D01*
X1545538Y942460D01*
X1548182D01*
X1550735Y943144D01*
X1553025Y944466D01*
X1554894Y946335D01*
X1556216Y948625D01*
X1556900Y951178D01*
Y953822D01*
X1556216Y956375D01*
X1554894Y958665D01*
X1553025Y960534D01*
X1550735Y961856D01*
X1548182Y962540D01*
D02*
G37*
G36*
X2205127Y999530D02*
X2201773D01*
X2198533Y998662D01*
X2195627Y996984D01*
X2193255Y994613D01*
X2191578Y991708D01*
X2190710Y988467D01*
Y985113D01*
X2191578Y981872D01*
X2193255Y978968D01*
X2195627Y976596D01*
X2198533Y974918D01*
X2199254Y974725D01*
Y973455D01*
X2198533Y973262D01*
X2195627Y971584D01*
X2193255Y969212D01*
X2191578Y966308D01*
X2190710Y963067D01*
Y959713D01*
X2191578Y956472D01*
X2193255Y953568D01*
X2195627Y951196D01*
X2197698Y950000D01*
X2197358Y948730D01*
X2190710D01*
Y937260D01*
X2203450D01*
X2216190D01*
Y948730D01*
X2209542D01*
X2209202Y950000D01*
X2211272Y951196D01*
X2213645Y953568D01*
X2215322Y956472D01*
X2216190Y959713D01*
Y963067D01*
X2215322Y966308D01*
X2213645Y969212D01*
X2211272Y971584D01*
X2208367Y973262D01*
X2207646Y973455D01*
Y974725D01*
X2208367Y974918D01*
X2211272Y976596D01*
X2213645Y978968D01*
X2215322Y981872D01*
X2216190Y985113D01*
Y988467D01*
X2215322Y991708D01*
X2213645Y994613D01*
X2211272Y996984D01*
X2208367Y998662D01*
X2205127Y999530D01*
D02*
G37*
G36*
X1548182Y937140D02*
X1548130D01*
Y928370D01*
X1556900D01*
Y928422D01*
X1556216Y930975D01*
X1554894Y933265D01*
X1553025Y935134D01*
X1550735Y936456D01*
X1548182Y937140D01*
D02*
G37*
G36*
X1545590D02*
X1545538D01*
X1542985Y936456D01*
X1540695Y935134D01*
X1538826Y933265D01*
X1537504Y930975D01*
X1536820Y928422D01*
Y928370D01*
X1545590D01*
Y937140D01*
D02*
G37*
G36*
X2216190Y934720D02*
X2204720D01*
Y923250D01*
X2216190D01*
Y934720D01*
D02*
G37*
G36*
X2202180D02*
X2190710D01*
Y923250D01*
X2202180D01*
Y934720D01*
D02*
G37*
G36*
X1556900Y925830D02*
X1548130D01*
Y917060D01*
X1548182D01*
X1550735Y917744D01*
X1553025Y919066D01*
X1554894Y920935D01*
X1556216Y923225D01*
X1556900Y925778D01*
Y925830D01*
D02*
G37*
G36*
X1545590D02*
X1536820D01*
Y925778D01*
X1537504Y923225D01*
X1538826Y920935D01*
X1540695Y919066D01*
X1542985Y917744D01*
X1545538Y917060D01*
X1545590D01*
Y925830D01*
D02*
G37*
G36*
X54760Y923920D02*
X54610D01*
Y914400D01*
X64130D01*
Y914550D01*
X63395Y917295D01*
X61974Y919755D01*
X59965Y921764D01*
X57505Y923185D01*
X54760Y923920D01*
D02*
G37*
G36*
X52070D02*
X51919D01*
X49175Y923185D01*
X46715Y921764D01*
X44706Y919755D01*
X43285Y917295D01*
X42550Y914550D01*
Y914400D01*
X52070D01*
Y923920D01*
D02*
G37*
G36*
X1696706Y929020D02*
X1694194D01*
X1691768Y928370D01*
X1689592Y927114D01*
X1687816Y925338D01*
X1686560Y923162D01*
X1685910Y920736D01*
Y918224D01*
X1686560Y915798D01*
X1687816Y913622D01*
X1689592Y911846D01*
X1691768Y910590D01*
X1694194Y909940D01*
X1696706D01*
X1699132Y910590D01*
X1701308Y911846D01*
X1703084Y913622D01*
X1704340Y915798D01*
X1704990Y918224D01*
Y920736D01*
X1704340Y923162D01*
X1703084Y925338D01*
X1701308Y927114D01*
X1699132Y928370D01*
X1696706Y929020D01*
D02*
G37*
G36*
X64130Y911860D02*
X54610D01*
Y902340D01*
X54760D01*
X57505Y903075D01*
X59965Y904496D01*
X61974Y906505D01*
X63395Y908965D01*
X64130Y911710D01*
Y911860D01*
D02*
G37*
G36*
X52070D02*
X42550D01*
Y911710D01*
X43285Y908965D01*
X44706Y906505D01*
X46715Y904496D01*
X49175Y903075D01*
X51919Y902340D01*
X52070D01*
Y911860D01*
D02*
G37*
G36*
X2250440Y908023D02*
Y900430D01*
X2258033D01*
X2257454Y902591D01*
X2256284Y904619D01*
X2254629Y906274D01*
X2252601Y907444D01*
X2250440Y908023D01*
D02*
G37*
G36*
X2247900D02*
X2245739Y907444D01*
X2243711Y906274D01*
X2242056Y904619D01*
X2240886Y902591D01*
X2240307Y900430D01*
X2247900D01*
Y908023D01*
D02*
G37*
G36*
X2176780D02*
Y900430D01*
X2184373D01*
X2183794Y902591D01*
X2182624Y904619D01*
X2180968Y906274D01*
X2178941Y907444D01*
X2176780Y908023D01*
D02*
G37*
G36*
X2174240D02*
X2172078Y907444D01*
X2170051Y906274D01*
X2168396Y904619D01*
X2167226Y902591D01*
X2166647Y900430D01*
X2174240D01*
Y908023D01*
D02*
G37*
G36*
X2110740D02*
Y900430D01*
X2118333D01*
X2117754Y902591D01*
X2116584Y904619D01*
X2114928Y906274D01*
X2112901Y907444D01*
X2110740Y908023D01*
D02*
G37*
G36*
X2108200D02*
X2106038Y907444D01*
X2104011Y906274D01*
X2102356Y904619D01*
X2101186Y902591D01*
X2100607Y900430D01*
X2108200D01*
Y908023D01*
D02*
G37*
G36*
X2044700D02*
Y900430D01*
X2052293D01*
X2051714Y902591D01*
X2050544Y904619D01*
X2048889Y906274D01*
X2046861Y907444D01*
X2044700Y908023D01*
D02*
G37*
G36*
X2042160D02*
X2039998Y907444D01*
X2037971Y906274D01*
X2036316Y904619D01*
X2035146Y902591D01*
X2034567Y900430D01*
X2042160D01*
Y908023D01*
D02*
G37*
G36*
X1978660D02*
Y900430D01*
X1986253D01*
X1985674Y902591D01*
X1984504Y904619D01*
X1982849Y906274D01*
X1980821Y907444D01*
X1978660Y908023D01*
D02*
G37*
G36*
X1976120D02*
X1973958Y907444D01*
X1971931Y906274D01*
X1970276Y904619D01*
X1969106Y902591D01*
X1968527Y900430D01*
X1976120D01*
Y908023D01*
D02*
G37*
G36*
X1912620D02*
Y900430D01*
X1920213D01*
X1919634Y902591D01*
X1918464Y904619D01*
X1916808Y906274D01*
X1914781Y907444D01*
X1912620Y908023D01*
D02*
G37*
G36*
X1910080D02*
X1907919Y907444D01*
X1905891Y906274D01*
X1904236Y904619D01*
X1903066Y902591D01*
X1902487Y900430D01*
X1910080D01*
Y908023D01*
D02*
G37*
G36*
X1846580D02*
Y900430D01*
X1854173D01*
X1853594Y902591D01*
X1852424Y904619D01*
X1850768Y906274D01*
X1848741Y907444D01*
X1846580Y908023D01*
D02*
G37*
G36*
X1844040D02*
X1841879Y907444D01*
X1839851Y906274D01*
X1838196Y904619D01*
X1837026Y902591D01*
X1836447Y900430D01*
X1844040D01*
Y908023D01*
D02*
G37*
G36*
X1780540D02*
Y900430D01*
X1788133D01*
X1787554Y902591D01*
X1786384Y904619D01*
X1784729Y906274D01*
X1782701Y907444D01*
X1780540Y908023D01*
D02*
G37*
G36*
X1778000D02*
X1775839Y907444D01*
X1773811Y906274D01*
X1772156Y904619D01*
X1770986Y902591D01*
X1770407Y900430D01*
X1778000D01*
Y908023D01*
D02*
G37*
G36*
X1920213Y897890D02*
X1912620D01*
Y890297D01*
X1914781Y890876D01*
X1916808Y892046D01*
X1918464Y893701D01*
X1919634Y895729D01*
X1920213Y897890D01*
D02*
G37*
G36*
X1910080D02*
X1902487D01*
X1903066Y895729D01*
X1904236Y893701D01*
X1905891Y892046D01*
X1907919Y890876D01*
X1910080Y890297D01*
Y897890D01*
D02*
G37*
G36*
X1854173D02*
X1846580D01*
Y890297D01*
X1848741Y890876D01*
X1850768Y892046D01*
X1852424Y893701D01*
X1853594Y895729D01*
X1854173Y897890D01*
D02*
G37*
G36*
X1844040D02*
X1836447D01*
X1837026Y895729D01*
X1838196Y893701D01*
X1839851Y892046D01*
X1841879Y890876D01*
X1844040Y890297D01*
Y897890D01*
D02*
G37*
G36*
X1788133D02*
X1780540D01*
Y890297D01*
X1782701Y890876D01*
X1784729Y892046D01*
X1786384Y893701D01*
X1787554Y895729D01*
X1788133Y897890D01*
D02*
G37*
G36*
X1778000D02*
X1770407D01*
X1770986Y895729D01*
X1772156Y893701D01*
X1773811Y892046D01*
X1775839Y890876D01*
X1778000Y890297D01*
Y897890D01*
D02*
G37*
G36*
X375290Y883751D02*
Y875961D01*
X383080D01*
X382481Y878196D01*
X381286Y880266D01*
X379595Y881957D01*
X377525Y883152D01*
X375290Y883751D01*
D02*
G37*
G36*
X372750D02*
X370515Y883152D01*
X368445Y881957D01*
X366754Y880266D01*
X365559Y878196D01*
X364960Y875961D01*
X372750D01*
Y883751D01*
D02*
G37*
G36*
X383080Y873421D02*
X375290D01*
Y865631D01*
X377525Y866230D01*
X379595Y867425D01*
X381286Y869116D01*
X382481Y871186D01*
X383080Y873421D01*
D02*
G37*
G36*
X372750D02*
X364960D01*
X365559Y871186D01*
X366754Y869116D01*
X368445Y867425D01*
X370515Y866230D01*
X372750Y865631D01*
Y873421D01*
D02*
G37*
G36*
X443100Y883771D02*
X424940D01*
Y865611D01*
X443100D01*
Y883771D01*
D02*
G37*
G36*
X415215D02*
X412825D01*
X410515Y883152D01*
X408445Y881957D01*
X406754Y880266D01*
X405559Y878196D01*
X404940Y875886D01*
Y873496D01*
X405559Y871186D01*
X406754Y869116D01*
X408445Y867425D01*
X410515Y866230D01*
X412825Y865611D01*
X415215D01*
X417525Y866230D01*
X419595Y867425D01*
X421286Y869116D01*
X422481Y871186D01*
X423100Y873496D01*
Y875886D01*
X422481Y878196D01*
X421286Y880266D01*
X419595Y881957D01*
X417525Y883152D01*
X415215Y883771D01*
D02*
G37*
G36*
X395215D02*
X392825D01*
X390515Y883152D01*
X388445Y881957D01*
X386754Y880266D01*
X385559Y878196D01*
X384940Y875886D01*
Y873496D01*
X385559Y871186D01*
X386754Y869116D01*
X388445Y867425D01*
X390515Y866230D01*
X392825Y865611D01*
X395215D01*
X397525Y866230D01*
X399595Y867425D01*
X401286Y869116D01*
X402481Y871186D01*
X403100Y873496D01*
Y875886D01*
X402481Y878196D01*
X401286Y880266D01*
X399595Y881957D01*
X397525Y883152D01*
X395215Y883771D01*
D02*
G37*
G36*
X299170Y787790D02*
X267900D01*
Y756520D01*
X299170D01*
Y787790D01*
D02*
G37*
G36*
X265360D02*
X234090D01*
Y756520D01*
X265360D01*
Y787790D01*
D02*
G37*
G36*
X576170D02*
X511090D01*
Y722710D01*
X576170D01*
Y787790D01*
D02*
G37*
G36*
X299170Y753980D02*
X267900D01*
Y722710D01*
X299170D01*
Y753980D01*
D02*
G37*
G36*
X265360D02*
X234090D01*
Y722710D01*
X265360D01*
Y753980D01*
D02*
G37*
G36*
X1259840Y730300D02*
X1230630D01*
X1229639Y730103D01*
X1228799Y729541D01*
X1228237Y728701D01*
X1228040Y727710D01*
Y720569D01*
X1226770Y720043D01*
X1226069Y720744D01*
X1223711Y722105D01*
X1221081Y722810D01*
X1218359D01*
X1215729Y722105D01*
X1213371Y720744D01*
X1211446Y718819D01*
X1210085Y716461D01*
X1209380Y713831D01*
Y711109D01*
X1210085Y708479D01*
X1211446Y706121D01*
X1213371Y704196D01*
X1215729Y702835D01*
X1218359Y702130D01*
X1221081D01*
X1223711Y702835D01*
X1226069Y704196D01*
X1226770Y704897D01*
X1228040Y704371D01*
Y631240D01*
X1083489D01*
X1083480Y631238D01*
X1083471Y631240D01*
X1082983Y631139D01*
X1082498Y631043D01*
X1082490Y631037D01*
X1082481Y631035D01*
X1082069Y630756D01*
X1081658Y630481D01*
X1081653Y630473D01*
X1081645Y630468D01*
X1081372Y630053D01*
X1081286Y629924D01*
X1081203Y629831D01*
X1081181Y629767D01*
X1081097Y629641D01*
X1081095Y629632D01*
X1081090Y629624D01*
X1081037Y629494D01*
X1081015Y629378D01*
X1080442Y628592D01*
X1080038Y628324D01*
X1079868Y628370D01*
X1076592D01*
X1076422Y628324D01*
X1076018Y628592D01*
X1075445Y629378D01*
X1075423Y629494D01*
X1075370Y629624D01*
X1075365Y629632D01*
X1075363Y629641D01*
X1075279Y629767D01*
X1075257Y629831D01*
X1075174Y629924D01*
X1075088Y630053D01*
X1074815Y630468D01*
X1074807Y630473D01*
X1074802Y630481D01*
X1074391Y630756D01*
X1073979Y631035D01*
X1073970Y631037D01*
X1073962Y631043D01*
X1073475Y631139D01*
X1072989Y631240D01*
X1072980Y631238D01*
X1072971Y631240D01*
X1027430D01*
X1026439Y631043D01*
X1025599Y630481D01*
X1025037Y629641D01*
X1024840Y628650D01*
Y627380D01*
Y566420D01*
X1025037Y565429D01*
X1025599Y564589D01*
X1026439Y564027D01*
X1027430Y563830D01*
X1259840D01*
X1260831Y564027D01*
X1261671Y564589D01*
X1262233Y565429D01*
X1262430Y566420D01*
X1262430Y727710D01*
X1262233Y728701D01*
X1261671Y729541D01*
X1260831Y730103D01*
X1259840Y730300D01*
D02*
G37*
G36*
X840081Y976810D02*
X837359D01*
X834729Y976105D01*
X832371Y974744D01*
X830446Y972819D01*
X829085Y970461D01*
X828380Y967831D01*
Y965109D01*
X829085Y962479D01*
X830446Y960121D01*
X832371Y958196D01*
X834729Y956835D01*
X834835Y956806D01*
Y934200D01*
X835131Y932713D01*
X835973Y931453D01*
X949885Y817541D01*
Y719036D01*
X948659Y718707D01*
X948594Y718819D01*
X946669Y720744D01*
X944311Y722105D01*
X941681Y722810D01*
X938959D01*
X936329Y722105D01*
X933971Y720744D01*
X932046Y718819D01*
X930685Y716461D01*
X929980Y713831D01*
Y711109D01*
X930685Y708479D01*
X932046Y706121D01*
X933971Y704196D01*
X936329Y702835D01*
X938959Y702130D01*
X941681D01*
X944311Y702835D01*
X946669Y704196D01*
X948594Y706121D01*
X948659Y706233D01*
X949885Y705904D01*
Y649309D01*
X901361Y600785D01*
X878189D01*
X878176Y600833D01*
X876834Y603157D01*
X874937Y605054D01*
X872613Y606396D01*
X870022Y607090D01*
X867338D01*
X864747Y606396D01*
X862423Y605054D01*
X860526Y603157D01*
X859184Y600833D01*
X858490Y598242D01*
Y595558D01*
X859184Y592967D01*
X860526Y590643D01*
X862423Y588746D01*
X864747Y587404D01*
X867338Y586710D01*
X870022D01*
X872613Y587404D01*
X874937Y588746D01*
X876834Y590643D01*
X878176Y592967D01*
X878189Y593015D01*
X902970D01*
X904457Y593311D01*
X905717Y594153D01*
X956517Y644953D01*
X957359Y646213D01*
X957655Y647700D01*
Y704253D01*
X958828Y704739D01*
X959371Y704196D01*
X961729Y702835D01*
X964359Y702130D01*
X967081D01*
X969711Y702835D01*
X972069Y704196D01*
X973994Y706121D01*
X975355Y708479D01*
X976060Y711109D01*
Y713831D01*
X975355Y716461D01*
X973994Y718819D01*
X972069Y720744D01*
X969711Y722105D01*
X967081Y722810D01*
X964359D01*
X961729Y722105D01*
X959371Y720744D01*
X958828Y720201D01*
X957655Y720687D01*
Y819150D01*
X957359Y820637D01*
X956517Y821897D01*
X842605Y935809D01*
Y956806D01*
X842711Y956835D01*
X845069Y958196D01*
X846994Y960121D01*
X848355Y962479D01*
X849060Y965109D01*
Y967831D01*
X848355Y970461D01*
X846994Y972819D01*
X845069Y974744D01*
X842711Y976105D01*
X840081Y976810D01*
D02*
G37*
G36*
X1195681Y722810D02*
X1192959D01*
X1190329Y722105D01*
X1187971Y720744D01*
X1186046Y718819D01*
X1184685Y716461D01*
X1183980Y713831D01*
Y711109D01*
X1184685Y708479D01*
X1186046Y706121D01*
X1187971Y704196D01*
X1190329Y702835D01*
X1192959Y702130D01*
X1195681D01*
X1198311Y702835D01*
X1200669Y704196D01*
X1202594Y706121D01*
X1203955Y708479D01*
X1204660Y711109D01*
Y713831D01*
X1203955Y716461D01*
X1202594Y718819D01*
X1200669Y720744D01*
X1198311Y722105D01*
X1195681Y722810D01*
D02*
G37*
G36*
X1170281D02*
X1167559D01*
X1164929Y722105D01*
X1162571Y720744D01*
X1160646Y718819D01*
X1159285Y716461D01*
X1158580Y713831D01*
Y711109D01*
X1159285Y708479D01*
X1160646Y706121D01*
X1162571Y704196D01*
X1164929Y702835D01*
X1167559Y702130D01*
X1170281D01*
X1172911Y702835D01*
X1175269Y704196D01*
X1177194Y706121D01*
X1178555Y708479D01*
X1179260Y711109D01*
Y713831D01*
X1178555Y716461D01*
X1177194Y718819D01*
X1175269Y720744D01*
X1172911Y722105D01*
X1170281Y722810D01*
D02*
G37*
G36*
X1144881D02*
X1142159D01*
X1139529Y722105D01*
X1137171Y720744D01*
X1135246Y718819D01*
X1133885Y716461D01*
X1133180Y713831D01*
Y711109D01*
X1133885Y708479D01*
X1135246Y706121D01*
X1137171Y704196D01*
X1139529Y702835D01*
X1142159Y702130D01*
X1144881D01*
X1147511Y702835D01*
X1149869Y704196D01*
X1151794Y706121D01*
X1153155Y708479D01*
X1153860Y711109D01*
Y713831D01*
X1153155Y716461D01*
X1151794Y718819D01*
X1149869Y720744D01*
X1147511Y722105D01*
X1144881Y722810D01*
D02*
G37*
G36*
X1119481D02*
X1116759D01*
X1114129Y722105D01*
X1111771Y720744D01*
X1109846Y718819D01*
X1108485Y716461D01*
X1107780Y713831D01*
Y711109D01*
X1108485Y708479D01*
X1109846Y706121D01*
X1111771Y704196D01*
X1114129Y702835D01*
X1116759Y702130D01*
X1119481D01*
X1122111Y702835D01*
X1124469Y704196D01*
X1126394Y706121D01*
X1127755Y708479D01*
X1128460Y711109D01*
Y713831D01*
X1127755Y716461D01*
X1126394Y718819D01*
X1124469Y720744D01*
X1122111Y722105D01*
X1119481Y722810D01*
D02*
G37*
G36*
X1068681D02*
X1065959D01*
X1063329Y722105D01*
X1060971Y720744D01*
X1059046Y718819D01*
X1057685Y716461D01*
X1056980Y713831D01*
Y711109D01*
X1057685Y708479D01*
X1059046Y706121D01*
X1060971Y704196D01*
X1063329Y702835D01*
X1065959Y702130D01*
X1068681D01*
X1071311Y702835D01*
X1073669Y704196D01*
X1075594Y706121D01*
X1076955Y708479D01*
X1077660Y711109D01*
Y713831D01*
X1076955Y716461D01*
X1075594Y718819D01*
X1073669Y720744D01*
X1071311Y722105D01*
X1068681Y722810D01*
D02*
G37*
G36*
X1043281D02*
X1040559D01*
X1037929Y722105D01*
X1035571Y720744D01*
X1033646Y718819D01*
X1032285Y716461D01*
X1031580Y713831D01*
Y711109D01*
X1032285Y708479D01*
X1033646Y706121D01*
X1035571Y704196D01*
X1037929Y702835D01*
X1040559Y702130D01*
X1043281D01*
X1045911Y702835D01*
X1048269Y704196D01*
X1050194Y706121D01*
X1051555Y708479D01*
X1052260Y711109D01*
Y713831D01*
X1051555Y716461D01*
X1050194Y718819D01*
X1048269Y720744D01*
X1045911Y722105D01*
X1043281Y722810D01*
D02*
G37*
G36*
X1017881D02*
X1015159D01*
X1012529Y722105D01*
X1010171Y720744D01*
X1008246Y718819D01*
X1006885Y716461D01*
X1006180Y713831D01*
Y711109D01*
X1006885Y708479D01*
X1008246Y706121D01*
X1010171Y704196D01*
X1012529Y702835D01*
X1015159Y702130D01*
X1017881D01*
X1020511Y702835D01*
X1022869Y704196D01*
X1024794Y706121D01*
X1026155Y708479D01*
X1026860Y711109D01*
Y713831D01*
X1026155Y716461D01*
X1024794Y718819D01*
X1022869Y720744D01*
X1020511Y722105D01*
X1017881Y722810D01*
D02*
G37*
G36*
X992481D02*
X989759D01*
X987129Y722105D01*
X984771Y720744D01*
X982846Y718819D01*
X981485Y716461D01*
X980780Y713831D01*
Y711109D01*
X981485Y708479D01*
X982846Y706121D01*
X984771Y704196D01*
X987129Y702835D01*
X989759Y702130D01*
X992481D01*
X995111Y702835D01*
X997469Y704196D01*
X999394Y706121D01*
X1000755Y708479D01*
X1001460Y711109D01*
Y713831D01*
X1000755Y716461D01*
X999394Y718819D01*
X997469Y720744D01*
X995111Y722105D01*
X992481Y722810D01*
D02*
G37*
G36*
X916281D02*
X913559D01*
X910929Y722105D01*
X908571Y720744D01*
X906646Y718819D01*
X905285Y716461D01*
X904580Y713831D01*
Y711109D01*
X905285Y708479D01*
X906646Y706121D01*
X908571Y704196D01*
X910929Y702835D01*
X913559Y702130D01*
X916281D01*
X918911Y702835D01*
X921269Y704196D01*
X923194Y706121D01*
X924555Y708479D01*
X925260Y711109D01*
Y713831D01*
X924555Y716461D01*
X923194Y718819D01*
X921269Y720744D01*
X918911Y722105D01*
X916281Y722810D01*
D02*
G37*
G36*
X890881D02*
X888159D01*
X885529Y722105D01*
X883171Y720744D01*
X881246Y718819D01*
X879885Y716461D01*
X879180Y713831D01*
Y711109D01*
X879885Y708479D01*
X881246Y706121D01*
X883171Y704196D01*
X885529Y702835D01*
X888159Y702130D01*
X890881D01*
X893511Y702835D01*
X895869Y704196D01*
X897794Y706121D01*
X899155Y708479D01*
X899860Y711109D01*
Y713831D01*
X899155Y716461D01*
X897794Y718819D01*
X895869Y720744D01*
X893511Y722105D01*
X890881Y722810D01*
D02*
G37*
G36*
X865481D02*
X862759D01*
X860129Y722105D01*
X857771Y720744D01*
X855846Y718819D01*
X854485Y716461D01*
X853780Y713831D01*
Y711109D01*
X854485Y708479D01*
X855846Y706121D01*
X857771Y704196D01*
X860129Y702835D01*
X862759Y702130D01*
X865481D01*
X868111Y702835D01*
X870469Y704196D01*
X872394Y706121D01*
X873755Y708479D01*
X874460Y711109D01*
Y713831D01*
X873755Y716461D01*
X872394Y718819D01*
X870469Y720744D01*
X868111Y722105D01*
X865481Y722810D01*
D02*
G37*
G36*
X840081D02*
X837359D01*
X834729Y722105D01*
X832371Y720744D01*
X830446Y718819D01*
X829085Y716461D01*
X828380Y713831D01*
Y711109D01*
X829085Y708479D01*
X830446Y706121D01*
X832371Y704196D01*
X834729Y702835D01*
X837359Y702130D01*
X840081D01*
X842711Y702835D01*
X845069Y704196D01*
X846994Y706121D01*
X848355Y708479D01*
X849060Y711109D01*
Y713831D01*
X848355Y716461D01*
X846994Y718819D01*
X845069Y720744D01*
X842711Y722105D01*
X840081Y722810D01*
D02*
G37*
G36*
X814681Y976810D02*
X811959D01*
X809329Y976105D01*
X806971Y974744D01*
X805046Y972819D01*
X803685Y970461D01*
X802980Y967831D01*
Y965109D01*
X803685Y962479D01*
X805046Y960121D01*
X806971Y958196D01*
X809329Y956835D01*
X809435Y956806D01*
Y898979D01*
X797353Y886897D01*
X796511Y885637D01*
X796215Y884150D01*
Y722810D01*
X777580D01*
Y702130D01*
X796215D01*
Y608330D01*
X796511Y606843D01*
X797353Y605583D01*
X833131Y569805D01*
X834391Y568963D01*
X835878Y568667D01*
X858889D01*
X859184Y567567D01*
X860526Y565243D01*
X862423Y563346D01*
X864747Y562004D01*
X866572Y561516D01*
X867041Y561390D01*
X866880Y560173D01*
X866488Y560120D01*
X852170D01*
X851179Y559923D01*
X850339Y559361D01*
X849777Y558521D01*
X849580Y557530D01*
Y504190D01*
X849777Y503199D01*
X850339Y502359D01*
X851179Y501797D01*
X852170Y501600D01*
X859085D01*
X859818Y500330D01*
X859184Y499233D01*
X858490Y496642D01*
Y493958D01*
X859184Y491367D01*
X860526Y489043D01*
X862423Y487146D01*
X864747Y485804D01*
X867338Y485110D01*
X870022D01*
X872613Y485804D01*
X874937Y487146D01*
X876834Y489043D01*
X878176Y491367D01*
X878870Y493958D01*
Y496642D01*
X878176Y499233D01*
X877542Y500330D01*
X878275Y501600D01*
X891540D01*
X892531Y501797D01*
X893371Y502359D01*
X893933Y503199D01*
X894130Y504190D01*
Y557530D01*
X893933Y558521D01*
X893371Y559361D01*
X892531Y559923D01*
X891540Y560120D01*
X870872D01*
X870480Y560173D01*
X870333Y561283D01*
X870552Y561452D01*
X870788Y561516D01*
X872613Y562004D01*
X874937Y563346D01*
X876834Y565243D01*
X878176Y567567D01*
X878870Y570158D01*
Y572842D01*
X878176Y575433D01*
X876834Y577757D01*
X874937Y579654D01*
X872613Y580996D01*
X870022Y581690D01*
X867338D01*
X864747Y580996D01*
X862423Y579654D01*
X860526Y577757D01*
X859764Y576437D01*
X837487D01*
X803985Y609939D01*
Y705617D01*
X805255Y705912D01*
X806971Y704196D01*
X809329Y702835D01*
X811959Y702130D01*
X814681D01*
X817311Y702835D01*
X819669Y704196D01*
X821594Y706121D01*
X822955Y708479D01*
X823660Y711109D01*
Y713831D01*
X822955Y716461D01*
X821594Y718819D01*
X819669Y720744D01*
X817311Y722105D01*
X814681Y722810D01*
X811959D01*
X809329Y722105D01*
X806971Y720744D01*
X805255Y719028D01*
X803985Y719323D01*
Y882541D01*
X816067Y894623D01*
X816909Y895883D01*
X817205Y897370D01*
Y956806D01*
X817311Y956835D01*
X819669Y958196D01*
X821594Y960121D01*
X822955Y962479D01*
X823660Y965109D01*
Y967831D01*
X822955Y970461D01*
X821594Y972819D01*
X819669Y974744D01*
X817311Y976105D01*
X814681Y976810D01*
D02*
G37*
G36*
X1391179Y714560D02*
X1373019D01*
Y696400D01*
X1391179D01*
Y714560D01*
D02*
G37*
G36*
X1383294Y694560D02*
X1380904D01*
X1378594Y693941D01*
X1376524Y692746D01*
X1374833Y691055D01*
X1373638Y688985D01*
X1373019Y686675D01*
Y684285D01*
X1373638Y681975D01*
X1374833Y679905D01*
X1376524Y678214D01*
X1378594Y677019D01*
X1380904Y676400D01*
X1383294D01*
X1385604Y677019D01*
X1387674Y678214D01*
X1389365Y679905D01*
X1390560Y681975D01*
X1391179Y684285D01*
Y686675D01*
X1390560Y688985D01*
X1389365Y691055D01*
X1387674Y692746D01*
X1385604Y693941D01*
X1383294Y694560D01*
D02*
G37*
G36*
X97621Y687760D02*
X96330D01*
Y656490D01*
X127600D01*
Y657781D01*
X126799Y662840D01*
X125216Y667711D01*
X122891Y672275D01*
X119880Y676418D01*
X116258Y680040D01*
X112115Y683051D01*
X107551Y685376D01*
X102680Y686959D01*
X97621Y687760D01*
D02*
G37*
G36*
X93790D02*
X92499D01*
X87440Y686959D01*
X82569Y685376D01*
X78005Y683051D01*
X73862Y680040D01*
X70240Y676418D01*
X67229Y672275D01*
X64904Y667711D01*
X63321Y662840D01*
X62520Y657781D01*
Y656490D01*
X93790D01*
Y687760D01*
D02*
G37*
G36*
X1383294Y674560D02*
X1380904D01*
X1378594Y673941D01*
X1376524Y672746D01*
X1374833Y671055D01*
X1373638Y668985D01*
X1373019Y666675D01*
Y664285D01*
X1373638Y661975D01*
X1374833Y659905D01*
X1376524Y658214D01*
X1378594Y657019D01*
X1380904Y656400D01*
X1383294D01*
X1385604Y657019D01*
X1387674Y658214D01*
X1389365Y659905D01*
X1390560Y661975D01*
X1391179Y664285D01*
Y666675D01*
X1390560Y668985D01*
X1389365Y671055D01*
X1387674Y672746D01*
X1385604Y673941D01*
X1383294Y674560D01*
D02*
G37*
G36*
X1383369Y654540D02*
Y646750D01*
X1391159D01*
X1390560Y648985D01*
X1389365Y651055D01*
X1387674Y652746D01*
X1385604Y653941D01*
X1383369Y654540D01*
D02*
G37*
G36*
X1380829D02*
X1378594Y653941D01*
X1376524Y652746D01*
X1374833Y651055D01*
X1373638Y648985D01*
X1373039Y646750D01*
X1380829D01*
Y654540D01*
D02*
G37*
G36*
X1391159Y644210D02*
X1383369D01*
Y636420D01*
X1385604Y637019D01*
X1387674Y638214D01*
X1389365Y639905D01*
X1390560Y641975D01*
X1391159Y644210D01*
D02*
G37*
G36*
X1380829D02*
X1373039D01*
X1373638Y641975D01*
X1374833Y639905D01*
X1376524Y638214D01*
X1378594Y637019D01*
X1380829Y636420D01*
Y644210D01*
D02*
G37*
G36*
X127600Y653950D02*
X96330D01*
Y622680D01*
X97621D01*
X102680Y623481D01*
X107551Y625064D01*
X112115Y627389D01*
X116258Y630400D01*
X119880Y634022D01*
X122891Y638165D01*
X125216Y642729D01*
X126799Y647600D01*
X127600Y652659D01*
Y653950D01*
D02*
G37*
G36*
X93790D02*
X62520D01*
Y652659D01*
X63321Y647600D01*
X64904Y642729D01*
X67229Y638165D01*
X70240Y634022D01*
X73862Y630400D01*
X78005Y627389D01*
X82569Y625064D01*
X87440Y623481D01*
X92499Y622680D01*
X93790D01*
Y653950D01*
D02*
G37*
G36*
X743022Y607090D02*
X742950D01*
Y598170D01*
X751870D01*
Y598242D01*
X751176Y600833D01*
X749834Y603157D01*
X747937Y605054D01*
X745613Y606396D01*
X743022Y607090D01*
D02*
G37*
G36*
X740410D02*
X740338D01*
X737747Y606396D01*
X735423Y605054D01*
X733526Y603157D01*
X732184Y600833D01*
X731490Y598242D01*
Y598170D01*
X740410D01*
Y607090D01*
D02*
G37*
G36*
X751870Y595630D02*
X742950D01*
Y586710D01*
X743022D01*
X745613Y587404D01*
X747937Y588746D01*
X749834Y590643D01*
X751176Y592967D01*
X751870Y595558D01*
Y595630D01*
D02*
G37*
G36*
X740410D02*
X731490D01*
Y595558D01*
X732184Y592967D01*
X733526Y590643D01*
X735423Y588746D01*
X737747Y587404D01*
X740338Y586710D01*
X740410D01*
Y595630D01*
D02*
G37*
G36*
X743022Y581690D02*
X740338D01*
X737747Y580996D01*
X735423Y579654D01*
X733526Y577757D01*
X732184Y575433D01*
X731490Y572842D01*
Y570158D01*
X732184Y567567D01*
X733526Y565243D01*
X735423Y563346D01*
X737747Y562004D01*
X740338Y561310D01*
X743022D01*
X745613Y562004D01*
X747937Y563346D01*
X749834Y565243D01*
X751176Y567567D01*
X751870Y570158D01*
Y572842D01*
X751176Y575433D01*
X749834Y577757D01*
X747937Y579654D01*
X745613Y580996D01*
X743022Y581690D01*
D02*
G37*
G36*
X127600Y615760D02*
X62520D01*
Y550680D01*
X127600D01*
Y615760D01*
D02*
G37*
G36*
X1536620Y567140D02*
X1505350D01*
Y535870D01*
X1536620D01*
Y567140D01*
D02*
G37*
G36*
X1502810D02*
X1471540D01*
Y535870D01*
X1502810D01*
Y567140D01*
D02*
G37*
G36*
X1536620Y533330D02*
X1505350D01*
Y502060D01*
X1536620D01*
Y533330D01*
D02*
G37*
G36*
X1502810D02*
X1471540D01*
Y502060D01*
X1502810D01*
Y533330D01*
D02*
G37*
G36*
X870022Y480090D02*
X867338D01*
X864747Y479396D01*
X862423Y478054D01*
X860526Y476157D01*
X859184Y473833D01*
X858490Y471242D01*
Y468558D01*
X859184Y465967D01*
X860526Y463643D01*
X862423Y461746D01*
X864747Y460404D01*
X867338Y459710D01*
X870022D01*
X872613Y460404D01*
X874937Y461746D01*
X876834Y463643D01*
X878176Y465967D01*
X878870Y468558D01*
Y471242D01*
X878176Y473833D01*
X876834Y476157D01*
X874937Y478054D01*
X872613Y479396D01*
X870022Y480090D01*
D02*
G37*
G36*
X743022Y454690D02*
X742950D01*
Y445770D01*
X751870D01*
Y445842D01*
X751176Y448433D01*
X749834Y450757D01*
X747937Y452654D01*
X745613Y453996D01*
X743022Y454690D01*
D02*
G37*
G36*
X740410D02*
X740338D01*
X737747Y453996D01*
X735423Y452654D01*
X733526Y450757D01*
X732184Y448433D01*
X731490Y445842D01*
Y445770D01*
X740410D01*
Y454690D01*
D02*
G37*
G36*
X870022D02*
X867338D01*
X864747Y453996D01*
X862423Y452654D01*
X860526Y450757D01*
X859184Y448433D01*
X858490Y445842D01*
Y443158D01*
X859184Y440567D01*
X860526Y438243D01*
X862423Y436346D01*
X864747Y435004D01*
X867338Y434310D01*
X870022D01*
X872613Y435004D01*
X874937Y436346D01*
X876834Y438243D01*
X878176Y440567D01*
X878870Y443158D01*
Y445842D01*
X878176Y448433D01*
X876834Y450757D01*
X874937Y452654D01*
X872613Y453996D01*
X870022Y454690D01*
D02*
G37*
G36*
X751870Y443230D02*
X742950D01*
Y434310D01*
X743022D01*
X745613Y435004D01*
X747937Y436346D01*
X749834Y438243D01*
X751176Y440567D01*
X751870Y443158D01*
Y443230D01*
D02*
G37*
G36*
X740410D02*
X731490D01*
Y443158D01*
X732184Y440567D01*
X733526Y438243D01*
X735423Y436346D01*
X737747Y435004D01*
X740338Y434310D01*
X740410D01*
Y443230D01*
D02*
G37*
G36*
X878870Y429290D02*
X858490D01*
Y408910D01*
X878870D01*
Y429290D01*
D02*
G37*
G36*
X743022D02*
X740338D01*
X737747Y428596D01*
X735423Y427254D01*
X733526Y425357D01*
X732184Y423033D01*
X731490Y420442D01*
Y417758D01*
X732184Y415167D01*
X733526Y412843D01*
X735423Y410946D01*
X737747Y409604D01*
X740338Y408910D01*
X743022D01*
X745613Y409604D01*
X747937Y410946D01*
X749834Y412843D01*
X751176Y415167D01*
X751870Y417758D01*
Y420442D01*
X751176Y423033D01*
X749834Y425357D01*
X747937Y427254D01*
X745613Y428596D01*
X743022Y429290D01*
D02*
G37*
G36*
X1090670Y409970D02*
X1065790D01*
Y385090D01*
X1090670D01*
Y409970D01*
D02*
G37*
G36*
X576580Y558748D02*
X573306Y558317D01*
X570256Y557054D01*
X567636Y555044D01*
X567636Y555043D01*
X478631Y466038D01*
X41910D01*
X38636Y465607D01*
X35586Y464344D01*
X34395Y463430D01*
X33140D01*
Y462467D01*
X32966Y462334D01*
X30956Y459714D01*
X29693Y456664D01*
X29262Y453390D01*
X29693Y450116D01*
X30956Y447066D01*
X32966Y444446D01*
X33140Y444313D01*
Y443350D01*
X34395D01*
X35586Y442436D01*
X38636Y441173D01*
X38851Y441145D01*
X39022Y439841D01*
X36856Y438944D01*
X34236Y436934D01*
X32226Y434314D01*
X30963Y431264D01*
X30532Y427990D01*
X30963Y424716D01*
X32226Y421666D01*
X34236Y419046D01*
X36856Y417036D01*
X39022Y416139D01*
X38851Y414835D01*
X38636Y414807D01*
X35586Y413544D01*
X32966Y411534D01*
X30956Y408914D01*
X29693Y405864D01*
X29262Y402590D01*
X29693Y399316D01*
X30956Y396266D01*
X32966Y393646D01*
X35586Y391636D01*
X35975Y391475D01*
Y390101D01*
X34316Y389414D01*
X31696Y387404D01*
X29686Y384784D01*
X28423Y381734D01*
X27992Y378460D01*
X28423Y375186D01*
X29686Y372136D01*
X31696Y369516D01*
X32415Y368965D01*
X32966Y368246D01*
X35586Y366236D01*
X38636Y364973D01*
X41910Y364542D01*
X43180D01*
X46454Y364973D01*
X48479Y365812D01*
X504569D01*
X504569Y365812D01*
X507843Y366243D01*
X510893Y367506D01*
X513513Y369516D01*
X601248Y457252D01*
X741680D01*
X744954Y457683D01*
X748004Y458946D01*
X750624Y460956D01*
X752634Y463576D01*
X753897Y466626D01*
X754328Y469900D01*
X753897Y473174D01*
X752634Y476224D01*
X750624Y478844D01*
X748004Y480854D01*
X745447Y481913D01*
Y483287D01*
X748004Y484346D01*
X750624Y486356D01*
X752634Y488976D01*
X753897Y492026D01*
X754328Y495300D01*
X753897Y498574D01*
X752634Y501624D01*
X750624Y504244D01*
X748004Y506254D01*
X745447Y507313D01*
Y508687D01*
X748004Y509746D01*
X750624Y511756D01*
X752634Y514376D01*
X753897Y517426D01*
X754328Y520700D01*
X753897Y523974D01*
X752634Y527024D01*
X750624Y529644D01*
X748004Y531654D01*
X745447Y532713D01*
Y534087D01*
X748004Y535146D01*
X750624Y537156D01*
X752634Y539776D01*
X753897Y542826D01*
X754328Y546100D01*
X753897Y549374D01*
X752634Y552424D01*
X750624Y555044D01*
X748004Y557054D01*
X744954Y558317D01*
X741680Y558748D01*
X576580D01*
X576580Y558748D01*
D02*
G37*
G36*
X808088Y335000D02*
X804812D01*
X801648Y334152D01*
X798812Y332514D01*
X796496Y330198D01*
X794858Y327362D01*
X794010Y324198D01*
Y320922D01*
X794858Y317758D01*
X796496Y314922D01*
X798812Y312605D01*
X801648Y310968D01*
X804812Y310120D01*
X808088D01*
X811252Y310968D01*
X814088Y312605D01*
X816404Y314922D01*
X818042Y317758D01*
X818890Y320922D01*
Y324198D01*
X818042Y327362D01*
X816404Y330198D01*
X814088Y332514D01*
X811252Y334152D01*
X808088Y335000D01*
D02*
G37*
G36*
X1388639Y309430D02*
X1370479D01*
Y291270D01*
X1388639D01*
Y309430D01*
D02*
G37*
G36*
X1380754Y289430D02*
X1378364D01*
X1376054Y288811D01*
X1373984Y287616D01*
X1372293Y285925D01*
X1371098Y283855D01*
X1370479Y281545D01*
Y279155D01*
X1371098Y276845D01*
X1372293Y274775D01*
X1373984Y273084D01*
X1376054Y271889D01*
X1378364Y271270D01*
X1380754D01*
X1383064Y271889D01*
X1385134Y273084D01*
X1386825Y274775D01*
X1388020Y276845D01*
X1388639Y279155D01*
Y281545D01*
X1388020Y283855D01*
X1386825Y285925D01*
X1385134Y287616D01*
X1383064Y288811D01*
X1380754Y289430D01*
D02*
G37*
G36*
Y269430D02*
X1378364D01*
X1376054Y268811D01*
X1373984Y267616D01*
X1372293Y265925D01*
X1371098Y263855D01*
X1370479Y261545D01*
Y259155D01*
X1371098Y256845D01*
X1372293Y254775D01*
X1373984Y253084D01*
X1376054Y251889D01*
X1378364Y251270D01*
X1380754D01*
X1383064Y251889D01*
X1385134Y253084D01*
X1386825Y254775D01*
X1388020Y256845D01*
X1388639Y259155D01*
Y261545D01*
X1388020Y263855D01*
X1386825Y265925D01*
X1385134Y267616D01*
X1383064Y268811D01*
X1380754Y269430D01*
D02*
G37*
G36*
X1380829Y249410D02*
Y241620D01*
X1388619D01*
X1388020Y243855D01*
X1386825Y245925D01*
X1385134Y247616D01*
X1383064Y248811D01*
X1380829Y249410D01*
D02*
G37*
G36*
X1378289D02*
X1376054Y248811D01*
X1373984Y247616D01*
X1372293Y245925D01*
X1371098Y243855D01*
X1370499Y241620D01*
X1378289D01*
Y249410D01*
D02*
G37*
G36*
X1388619Y239080D02*
X1380829D01*
Y231290D01*
X1383064Y231889D01*
X1385134Y233084D01*
X1386825Y234775D01*
X1388020Y236845D01*
X1388619Y239080D01*
D02*
G37*
G36*
X1378289D02*
X1370499D01*
X1371098Y236845D01*
X1372293Y234775D01*
X1373984Y233084D01*
X1376054Y231889D01*
X1378289Y231290D01*
Y239080D01*
D02*
G37*
G36*
X576170Y229790D02*
X511090D01*
Y164710D01*
X576170D01*
Y229790D01*
D02*
G37*
G36*
X299170D02*
X234090D01*
Y164710D01*
X299170D01*
Y229790D01*
D02*
G37*
G36*
X1536620Y154390D02*
X1505350D01*
Y123120D01*
X1536620D01*
Y154390D01*
D02*
G37*
G36*
X1502810D02*
X1471540D01*
Y123120D01*
X1502810D01*
Y154390D01*
D02*
G37*
G36*
X818890Y116600D02*
X794010D01*
Y91720D01*
X818890D01*
Y116600D01*
D02*
G37*
G36*
X1536620Y120580D02*
X1505350D01*
Y89310D01*
X1536620D01*
Y120580D01*
D02*
G37*
G36*
X1502810D02*
X1471540D01*
Y89310D01*
X1502810D01*
Y120580D01*
D02*
G37*
G36*
X1197170Y111480D02*
X1195879D01*
X1190820Y110679D01*
X1185949Y109096D01*
X1181385Y106771D01*
X1177242Y103760D01*
X1173620Y100138D01*
X1170609Y95995D01*
X1168284Y91431D01*
X1166701Y86560D01*
X1165900Y81501D01*
Y80210D01*
X1197170D01*
Y111480D01*
D02*
G37*
G36*
X435760Y73020D02*
X432920D01*
X430175Y72285D01*
X427715Y70864D01*
X425706Y68855D01*
X424285Y66395D01*
X423550Y63650D01*
Y60809D01*
X424285Y58065D01*
X425706Y55605D01*
X427715Y53596D01*
X430175Y52175D01*
X432920Y51440D01*
X435760D01*
X438505Y52175D01*
X440965Y53596D01*
X442974Y55605D01*
X444395Y58065D01*
X445130Y60809D01*
Y63650D01*
X444395Y66395D01*
X442974Y68855D01*
X440965Y70864D01*
X438505Y72285D01*
X435760Y73020D01*
D02*
G37*
G36*
X394330D02*
X372750D01*
Y51440D01*
X394330D01*
Y73020D01*
D02*
G37*
G36*
X1197170Y77670D02*
X1165900D01*
Y76379D01*
X1166701Y71320D01*
X1168284Y66449D01*
X1170609Y61885D01*
X1173620Y57742D01*
X1177242Y54120D01*
X1181385Y51109D01*
X1185949Y48784D01*
X1190820Y47201D01*
X1195879Y46400D01*
X1197170D01*
Y77670D01*
D02*
G37*
G36*
X52788Y92540D02*
X47212D01*
X41683Y91812D01*
X36297Y90369D01*
X31145Y88235D01*
X26315Y85447D01*
X21891Y82052D01*
X17948Y78109D01*
X14553Y73685D01*
X11765Y68855D01*
X9631Y63703D01*
X8188Y58317D01*
X7460Y52788D01*
Y47212D01*
X8188Y41683D01*
X9631Y36297D01*
X11765Y31145D01*
X14553Y26315D01*
X17948Y21891D01*
X21891Y17948D01*
X26315Y14553D01*
X31145Y11765D01*
X36297Y9631D01*
X41683Y8188D01*
X47212Y7460D01*
X52788D01*
X58317Y8188D01*
X63703Y9631D01*
X68855Y11765D01*
X73685Y14553D01*
X78109Y17948D01*
X82052Y21891D01*
X85447Y26315D01*
X88235Y31145D01*
X90369Y36297D01*
X91812Y41683D01*
X92540Y47212D01*
Y52788D01*
X91812Y58317D01*
X90369Y63703D01*
X88235Y68855D01*
X85447Y73685D01*
X82052Y78109D01*
X78109Y82052D01*
X73685Y85447D01*
X68855Y88235D01*
X63703Y90369D01*
X58317Y91812D01*
X52788Y92540D01*
D02*
G37*
%LPD*%
G36*
X1189742Y1274590D02*
X1189742Y1273810D01*
Y1265830D01*
X1199772D01*
Y1263290D01*
X1189742D01*
Y1254760D01*
X1189742Y1254530D01*
X1189187Y1253490D01*
X1184910D01*
Y1202570D01*
X1183820D01*
Y1182490D01*
X1184910D01*
Y1033780D01*
X1161992D01*
X1161652Y1035050D01*
X1163135Y1035906D01*
X1165004Y1037775D01*
X1166326Y1040065D01*
X1167010Y1042618D01*
Y1042670D01*
X1146930D01*
Y1042618D01*
X1147614Y1040065D01*
X1148936Y1037775D01*
X1150805Y1035906D01*
X1152288Y1035050D01*
X1151948Y1033780D01*
X1145540D01*
Y1275080D01*
X1188675D01*
X1189742Y1274590D01*
D02*
G37*
%LPC*%
G36*
X1158292Y1053980D02*
X1158240D01*
Y1045210D01*
X1167010D01*
Y1045262D01*
X1166326Y1047815D01*
X1165004Y1050105D01*
X1163135Y1051974D01*
X1160845Y1053296D01*
X1158292Y1053980D01*
D02*
G37*
G36*
X1155700D02*
X1155648D01*
X1153095Y1053296D01*
X1150805Y1051974D01*
X1148936Y1050105D01*
X1147614Y1047815D01*
X1146930Y1045262D01*
Y1045210D01*
X1155700D01*
Y1053980D01*
D02*
G37*
%LPD*%
G36*
X1259840Y566420D02*
X1027430D01*
Y627380D01*
Y628650D01*
X1072971D01*
X1073023Y628520D01*
X1073182Y627380D01*
X1070592Y625885D01*
X1068276Y623568D01*
X1066638Y620732D01*
X1065790Y617568D01*
Y617200D01*
X1078230D01*
X1090670D01*
Y617568D01*
X1089822Y620732D01*
X1088185Y623568D01*
X1085868Y625885D01*
X1083278Y627380D01*
X1083437Y628520D01*
X1083489Y628650D01*
X1230630D01*
Y727710D01*
X1259840D01*
X1259840Y566420D01*
D02*
G37*
%LPC*%
G36*
X1246481Y722810D02*
X1246390D01*
Y713740D01*
X1255460D01*
Y713831D01*
X1254755Y716461D01*
X1253394Y718819D01*
X1251469Y720744D01*
X1249111Y722105D01*
X1246481Y722810D01*
D02*
G37*
G36*
X1243850D02*
X1243759D01*
X1241129Y722105D01*
X1238771Y720744D01*
X1236846Y718819D01*
X1235485Y716461D01*
X1234780Y713831D01*
Y713740D01*
X1243850D01*
Y722810D01*
D02*
G37*
G36*
X1255460Y711200D02*
X1246390D01*
Y702130D01*
X1246481D01*
X1249111Y702835D01*
X1251469Y704196D01*
X1253394Y706121D01*
X1254755Y708479D01*
X1255460Y711109D01*
Y711200D01*
D02*
G37*
G36*
X1243850D02*
X1234780D01*
Y711109D01*
X1235485Y708479D01*
X1236846Y706121D01*
X1238771Y704196D01*
X1241129Y702835D01*
X1243759Y702130D01*
X1243850D01*
Y711200D01*
D02*
G37*
G36*
X1090670Y614660D02*
X1079500D01*
Y603490D01*
X1079868D01*
X1083032Y604338D01*
X1085868Y605975D01*
X1088185Y608292D01*
X1089822Y611128D01*
X1090670Y614292D01*
Y614660D01*
D02*
G37*
G36*
X1076960D02*
X1065790D01*
Y614292D01*
X1066638Y611128D01*
X1068276Y608292D01*
X1070592Y605975D01*
X1073428Y604338D01*
X1076592Y603490D01*
X1076960D01*
Y614660D01*
D02*
G37*
%LPD*%
G36*
X891540Y504190D02*
X873662D01*
X872613Y504796D01*
X870022Y505490D01*
X867338D01*
X864747Y504796D01*
X863698Y504190D01*
X852170D01*
Y557530D01*
X867266D01*
X867338Y556290D01*
X864747Y555596D01*
X862423Y554254D01*
X860526Y552357D01*
X859184Y550033D01*
X858490Y547442D01*
Y547370D01*
X868680D01*
X878870D01*
Y547442D01*
X878176Y550033D01*
X876834Y552357D01*
X874937Y554254D01*
X872613Y555596D01*
X870022Y556290D01*
X870094Y557530D01*
X891540D01*
Y504190D01*
D02*
G37*
%LPC*%
G36*
X878870Y544830D02*
X868680D01*
X858490D01*
Y544758D01*
X859184Y542167D01*
X860526Y539843D01*
X862423Y537946D01*
X864747Y536604D01*
X864795Y536591D01*
Y530209D01*
X864747Y530196D01*
X862423Y528854D01*
X860526Y526957D01*
X859184Y524633D01*
X858490Y522042D01*
Y521970D01*
X868680D01*
X878870D01*
Y522042D01*
X878176Y524633D01*
X876834Y526957D01*
X874937Y528854D01*
X872613Y530196D01*
X872565Y530209D01*
Y536591D01*
X872613Y536604D01*
X874937Y537946D01*
X876834Y539843D01*
X878176Y542167D01*
X878870Y544758D01*
Y544830D01*
D02*
G37*
G36*
Y519430D02*
X869950D01*
Y510510D01*
X870022D01*
X872613Y511204D01*
X874937Y512546D01*
X876834Y514443D01*
X878176Y516767D01*
X878870Y519358D01*
Y519430D01*
D02*
G37*
G36*
X867410D02*
X858490D01*
Y519358D01*
X859184Y516767D01*
X860526Y514443D01*
X862423Y512546D01*
X864747Y511204D01*
X867338Y510510D01*
X867410D01*
Y519430D01*
D02*
G37*
G36*
X2198370Y607690D02*
X2198219D01*
X2195475Y606955D01*
X2193015Y605534D01*
X2191006Y603525D01*
X2189585Y601065D01*
X2188850Y598321D01*
Y598170D01*
X2198370D01*
Y607690D01*
D02*
G37*
G36*
Y595630D02*
X2188850D01*
Y595480D01*
X2189585Y592735D01*
X2191006Y590275D01*
X2193015Y588266D01*
X2195475Y586845D01*
X2198219Y586110D01*
X2198370D01*
Y595630D01*
D02*
G37*
G36*
X2094620Y567140D02*
X2063350D01*
Y535870D01*
X2094620D01*
Y567140D01*
D02*
G37*
G36*
X2060810D02*
X2029540D01*
Y535870D01*
X2060810D01*
Y567140D01*
D02*
G37*
G36*
X2094620Y533330D02*
X2063350D01*
Y502060D01*
X2094620D01*
Y533330D01*
D02*
G37*
G36*
X2060810D02*
X2029540D01*
Y502060D01*
X2060810D01*
Y533330D01*
D02*
G37*
G36*
X2094620Y844140D02*
X2063350D01*
Y812870D01*
X2094620D01*
Y844140D01*
D02*
G37*
G36*
X2060810D02*
X2029540D01*
Y812870D01*
X2060810D01*
Y844140D01*
D02*
G37*
G36*
X2094620Y810330D02*
X2063350D01*
Y779060D01*
X2094620D01*
Y810330D01*
D02*
G37*
G36*
X2060810D02*
X2029540D01*
Y779060D01*
X2060810D01*
Y810330D01*
D02*
G37*
G36*
X2210430Y556890D02*
X2200910D01*
Y547370D01*
X2210430D01*
Y556890D01*
D02*
G37*
G36*
X2198370D02*
X2188850D01*
Y547370D01*
X2198370D01*
Y556890D01*
D02*
G37*
G36*
X2210430Y544830D02*
X2200910D01*
Y535310D01*
X2210430D01*
Y544830D01*
D02*
G37*
G36*
X2198370D02*
X2188850D01*
Y535310D01*
X2198370D01*
Y544830D01*
D02*
G37*
G36*
Y259710D02*
X2198219D01*
X2195475Y258975D01*
X2193015Y257554D01*
X2191006Y255545D01*
X2189585Y253085D01*
X2188850Y250340D01*
Y250190D01*
X2198370D01*
Y259710D01*
D02*
G37*
G36*
Y247650D02*
X2188850D01*
Y247500D01*
X2189585Y244755D01*
X2191006Y242295D01*
X2193015Y240286D01*
X2195475Y238865D01*
X2198219Y238130D01*
X2198370D01*
Y247650D01*
D02*
G37*
G36*
X2094620Y154390D02*
X2063350D01*
Y123120D01*
X2094620D01*
Y154390D01*
D02*
G37*
G36*
X2060810D02*
X2029540D01*
Y123120D01*
X2060810D01*
Y154390D01*
D02*
G37*
G36*
X2094620Y120580D02*
X2063350D01*
Y89310D01*
X2094620D01*
Y120580D01*
D02*
G37*
G36*
X2060810D02*
X2029540D01*
Y89310D01*
X2060810D01*
Y120580D01*
D02*
G37*
G36*
X2094620Y431390D02*
X2063350D01*
Y400120D01*
X2094620D01*
Y431390D01*
D02*
G37*
G36*
X2060810D02*
X2029540D01*
Y400120D01*
X2060810D01*
Y431390D01*
D02*
G37*
G36*
X2094620Y397580D02*
X2063350D01*
Y366310D01*
X2094620D01*
Y397580D01*
D02*
G37*
G36*
X2060810D02*
X2029540D01*
Y366310D01*
X2060810D01*
Y397580D01*
D02*
G37*
G36*
X2210430Y208910D02*
X2200910D01*
Y199390D01*
X2210430D01*
Y208910D01*
D02*
G37*
G36*
X2198370D02*
X2188850D01*
Y199390D01*
X2198370D01*
Y208910D01*
D02*
G37*
G36*
X2210430Y196850D02*
X2200910D01*
Y187330D01*
X2210430D01*
Y196850D01*
D02*
G37*
G36*
X2198370D02*
X2188850D01*
Y187330D01*
X2198370D01*
Y196850D01*
D02*
G37*
G36*
X1536620Y844140D02*
X1505350D01*
Y812870D01*
X1536620D01*
Y844140D01*
D02*
G37*
G36*
X1502810D02*
X1471540D01*
Y812870D01*
X1502810D01*
Y844140D01*
D02*
G37*
G36*
X1536620Y810330D02*
X1505350D01*
Y779060D01*
X1536620D01*
Y810330D01*
D02*
G37*
G36*
X1502810D02*
X1471540D01*
Y779060D01*
X1502810D01*
Y810330D01*
D02*
G37*
G36*
X1536620Y431390D02*
X1505350D01*
Y400120D01*
X1536620D01*
Y431390D01*
D02*
G37*
G36*
X1502810D02*
X1471540D01*
Y400120D01*
X1502810D01*
Y431390D01*
D02*
G37*
G36*
X1536620Y397580D02*
X1505350D01*
Y366310D01*
X1536620D01*
Y397580D01*
D02*
G37*
G36*
X1502810D02*
X1471540D01*
Y366310D01*
X1502810D01*
Y397580D01*
D02*
G37*
G36*
X1302980Y111480D02*
X1271710D01*
Y80210D01*
X1302980D01*
Y111480D01*
D02*
G37*
G36*
X1269170D02*
X1237900D01*
Y80210D01*
X1269170D01*
Y111480D01*
D02*
G37*
G36*
X1302980Y77670D02*
X1271710D01*
Y46400D01*
X1302980D01*
Y77670D01*
D02*
G37*
G36*
X1269170D02*
X1237900D01*
Y46400D01*
X1269170D01*
Y77670D01*
D02*
G37*
%LPD*%
D11*
X890180Y413500D02*
G03*
X890180Y413500I-1000J0D01*
G01*
X2204450Y915670D02*
G03*
X2204450Y915670I-1000J0D01*
G01*
X2081260Y1559560D02*
G03*
X2081260Y1559560I-1000J0D01*
G01*
X1875442D02*
G03*
X1875442Y1559560I-1000J0D01*
G01*
X1669624D02*
G03*
X1669624Y1559560I-1000J0D01*
G01*
X463020Y874691D02*
G03*
X463020Y874691I-1000J0D01*
G01*
X41640Y963930D02*
G03*
X41640Y963930I-1000J0D01*
G01*
X384540Y49530D02*
G03*
X384540Y49530I-1000J0D01*
G01*
X228896Y1559560D02*
G03*
X228896Y1559560I-1000J0D01*
G01*
X434714D02*
G03*
X434714Y1559560I-1000J0D01*
G01*
X640533D02*
G03*
X640533Y1559560I-1000J0D01*
G01*
X846351D02*
G03*
X846351Y1559560I-1000J0D01*
G01*
X1052169D02*
G03*
X1052169Y1559560I-1000J0D01*
G01*
X1257987D02*
G03*
X1257987Y1559560I-1000J0D01*
G01*
X1463805D02*
G03*
X1463805Y1559560I-1000J0D01*
G01*
X2213340Y198120D02*
G03*
X2213340Y198120I-1000J0D01*
G01*
X40370Y1082040D02*
G03*
X40370Y1082040I-1000J0D01*
G01*
X2213340Y546100D02*
G03*
X2213340Y546100I-1000J0D01*
G01*
X1380559Y328350D02*
G03*
X1380559Y328350I-1000J0D01*
G01*
X1383099Y733480D02*
G03*
X1383099Y733480I-1000J0D01*
G01*
D12*
X832813Y1242060D02*
G03*
X832813Y1242060I-17550J0D01*
G01*
X1875336D02*
G03*
X1875336Y1242060I-17550J0D01*
G01*
X1666831D02*
G03*
X1666831Y1242060I-17550J0D01*
G01*
X1458327D02*
G03*
X1458327Y1242060I-17550J0D01*
G01*
X1249822D02*
G03*
X1249822Y1242060I-17550J0D01*
G01*
X1041318D02*
G03*
X1041318Y1242060I-17550J0D01*
G01*
X624309D02*
G03*
X624309Y1242060I-17550J0D01*
G01*
X415805D02*
G03*
X415805Y1242060I-17550J0D01*
G01*
X207300D02*
G03*
X207300Y1242060I-17550J0D01*
G01*
X1203946Y1139253D02*
G03*
X1210827Y1126034I39104J11955D01*
G01*
X1245353D02*
G03*
X1252234Y1139253I-32222J25175D01*
G01*
X1252206Y1139128D02*
G03*
X1203974Y1139128I-24116J3389D01*
G01*
X163816Y1134173D02*
G03*
X170697Y1120954I39104J11955D01*
G01*
X205223D02*
G03*
X212104Y1134173I-32222J25175D01*
G01*
X212076Y1134048D02*
G03*
X163844Y1134048I-24116J3389D01*
G01*
X374636Y1139156D02*
G03*
X381517Y1125936I39104J11955D01*
G01*
X416043D02*
G03*
X422924Y1139156I-32222J25175D01*
G01*
X422896Y1139031D02*
G03*
X374664Y1139031I-24116J3389D01*
G01*
X580376Y1137983D02*
G03*
X587257Y1124764I39104J11955D01*
G01*
X621783D02*
G03*
X628664Y1137983I-32222J25175D01*
G01*
X628636Y1137858D02*
G03*
X580404Y1137858I-24116J3389D01*
G01*
X788656Y1139253D02*
G03*
X795537Y1126034I39104J11955D01*
G01*
X830063D02*
G03*
X836944Y1139253I-32222J25175D01*
G01*
X836916Y1139128D02*
G03*
X788684Y1139128I-24116J3389D01*
G01*
X1414766Y1137983D02*
G03*
X1421647Y1124764I39104J11955D01*
G01*
X1456173D02*
G03*
X1463054Y1137983I-32222J25175D01*
G01*
X1463026Y1137858D02*
G03*
X1414794Y1137858I-24116J3389D01*
G01*
X2043416Y1137983D02*
G03*
X2050297Y1124764I39104J11955D01*
G01*
X2084823D02*
G03*
X2091704Y1137983I-32222J25175D01*
G01*
X2091676Y1137858D02*
G03*
X2043444Y1137858I-24116J3389D01*
G01*
X1000746Y1137983D02*
G03*
X1007627Y1124764I39104J11955D01*
G01*
X1042153D02*
G03*
X1049034Y1137983I-32222J25175D01*
G01*
X1049006Y1137858D02*
G03*
X1000774Y1137858I-24116J3389D01*
G01*
X1620506Y1134173D02*
G03*
X1627387Y1120954I39104J11955D01*
G01*
X1661913D02*
G03*
X1668794Y1134173I-32222J25175D01*
G01*
X1668766Y1134048D02*
G03*
X1620534Y1134048I-24116J3389D01*
G01*
X1841486Y1134173D02*
G03*
X1848367Y1120954I39104J11955D01*
G01*
X1882893D02*
G03*
X1889774Y1134173I-32222J25175D01*
G01*
X1889746Y1134048D02*
G03*
X1841514Y1134048I-24116J3389D01*
G01*
X2083840Y1242060D02*
G03*
X2083840Y1242060I-17550J0D01*
G01*
X2120930Y1297690D02*
Y1488690D01*
X1965930D02*
X2120930D01*
X1965930Y1297690D02*
Y1488690D01*
Y1297690D02*
X2120930D01*
X785313Y1272010D02*
X845213D01*
Y1212110D02*
Y1272010D01*
X785313Y1212110D02*
X845213D01*
X785313D02*
Y1272010D01*
X1308130Y1297690D02*
Y1488690D01*
X1153130D02*
X1308130D01*
X1153130Y1297690D02*
Y1488690D01*
Y1297690D02*
X1308130D01*
X1104930D02*
Y1488690D01*
X949930D02*
X1104930D01*
X949930Y1297690D02*
Y1488690D01*
Y1297690D02*
X1104930D01*
X340330D02*
X495330D01*
X340330D02*
Y1488690D01*
X495330D01*
Y1297690D02*
Y1488690D01*
X728980Y406400D02*
X881380D01*
X728980D02*
Y609600D01*
X881380D01*
Y406400D02*
Y609600D01*
X2170950Y920990D02*
Y1001790D01*
X2235950D01*
Y920990D02*
Y1001790D01*
X2170950Y920990D02*
X2235950D01*
X2004060Y1505860D02*
X2105660D01*
X2004060D02*
Y1587860D01*
X2105660D01*
Y1505860D02*
Y1587860D01*
X1798242Y1505860D02*
X1899842D01*
X1798242D02*
Y1587860D01*
X1899842D01*
Y1505860D02*
Y1587860D01*
X1694023Y1505860D02*
Y1587860D01*
X1592424D02*
X1694023D01*
X1592424Y1505860D02*
Y1587860D01*
Y1505860D02*
X1694023D01*
X454020Y853191D02*
Y904191D01*
X354020D02*
X454020D01*
X354020Y853191D02*
Y904191D01*
Y853191D02*
X454020D01*
X1029730Y385930D02*
X1126730D01*
X1029730D02*
Y627530D01*
X1126730D01*
Y385930D02*
Y627530D01*
X94340Y887730D02*
Y989330D01*
X12340Y887730D02*
X94340D01*
X12340D02*
Y989330D01*
X94340D01*
X358140Y21230D02*
Y103230D01*
Y21230D02*
X459740D01*
Y103230D01*
X358140D02*
X459740D01*
X90060Y529220D02*
X100060D01*
X95060Y524220D02*
Y534220D01*
Y704220D02*
Y714220D01*
X54560Y668720D02*
X79060Y696720D01*
X111060D02*
X135560Y668720D01*
X54560Y541720D02*
X135560D01*
Y668720D01*
X79060Y696720D02*
X111060D01*
X54560Y541720D02*
Y668720D01*
X151696Y1505860D02*
X253296D01*
X151696D02*
Y1587860D01*
X253296D01*
Y1505860D02*
Y1587860D01*
X357514Y1505860D02*
X459114D01*
X357514D02*
Y1587860D01*
X459114D01*
Y1505860D02*
Y1587860D01*
X563332Y1505860D02*
X664932D01*
X563332D02*
Y1587860D01*
X664932D01*
Y1505860D02*
Y1587860D01*
X870751Y1505860D02*
Y1587860D01*
X769151D02*
X870751D01*
X769151Y1505860D02*
Y1587860D01*
Y1505860D02*
X870751D01*
X974969D02*
X1076569D01*
X974969D02*
Y1587860D01*
X1076569D01*
Y1505860D02*
Y1587860D01*
X1180787Y1505860D02*
X1282387D01*
X1180787D02*
Y1587860D01*
X1282387D01*
Y1505860D02*
Y1587860D01*
X1386605Y1505860D02*
X1488205D01*
X1386605D02*
Y1587860D01*
X1488205D01*
Y1505860D02*
Y1587860D01*
X1827836Y1212110D02*
Y1272010D01*
Y1212110D02*
X1887735D01*
Y1272010D01*
X1827836D02*
X1887735D01*
X1762730Y1297690D02*
X1917730D01*
X1762730D02*
Y1488690D01*
X1917730D01*
Y1297690D02*
Y1488690D01*
X1619331Y1212110D02*
Y1272010D01*
Y1212110D02*
X1679231D01*
Y1272010D01*
X1619331D02*
X1679231D01*
X1410827Y1212110D02*
Y1272010D01*
Y1212110D02*
X1470727D01*
Y1272010D01*
X1410827D02*
X1470727D01*
X1202322D02*
X1262222D01*
Y1212110D02*
Y1272010D01*
X1202322Y1212110D02*
X1262222D01*
X1202322D02*
Y1272010D01*
X993818D02*
X1053718D01*
Y1212110D02*
Y1272010D01*
X993818Y1212110D02*
X1053718D01*
X993818D02*
Y1272010D01*
X576809Y1212110D02*
Y1272010D01*
Y1212110D02*
X636709D01*
Y1272010D01*
X576809D02*
X636709D01*
X368305D02*
X428205D01*
Y1212110D02*
Y1272010D01*
X368305Y1212110D02*
X428205D01*
X368305D02*
Y1272010D01*
X159800Y1212110D02*
Y1272010D01*
Y1212110D02*
X219700D01*
Y1272010D01*
X159800D02*
X219700D01*
X1210940Y1125890D02*
X1245240D01*
X170810Y1120810D02*
X205110D01*
X381630Y1125792D02*
X415930D01*
X587370Y1124620D02*
X621670D01*
X795650Y1125890D02*
X829950D01*
X1421760Y1124620D02*
X1456060D01*
X2050410D02*
X2084710D01*
X1007740D02*
X1042040D01*
X1627500Y1120810D02*
X1661800D01*
X1848480D02*
X1882780D01*
X2036340Y1272010D02*
X2096240D01*
Y1212110D02*
Y1272010D01*
X2036340Y1212110D02*
X2096240D01*
X2036340D02*
Y1272010D01*
X1184940Y38440D02*
X1311940D01*
X1156940Y62940D02*
Y94940D01*
X1184940Y119440D02*
X1311940D01*
Y38440D02*
Y119440D01*
X1156940Y94940D02*
X1184940Y119440D01*
X1156940Y62940D02*
X1184940Y38440D01*
X1139440Y78940D02*
X1149440D01*
X1319440D02*
X1329440D01*
X1324440Y73940D02*
Y83940D01*
X1356330Y1297690D02*
X1511330D01*
X1356330D02*
Y1488690D01*
X1511330D01*
Y1297690D02*
Y1488690D01*
X1559530Y1297690D02*
X1714530D01*
X1559530D02*
Y1488690D01*
X1714530D01*
Y1297690D02*
Y1488690D01*
X292130Y1297690D02*
Y1488690D01*
X137130D02*
X292130D01*
X137130Y1297690D02*
Y1488690D01*
Y1297690D02*
X292130D01*
X543530D02*
X698530D01*
X543530D02*
Y1488690D01*
X698530D01*
Y1297690D02*
Y1488690D01*
X746730Y1297690D02*
X901730D01*
X746730D02*
Y1488690D01*
X901730D01*
Y1297690D02*
Y1488690D01*
X854950Y92560D02*
Y334160D01*
X757950D02*
X854950D01*
X757950Y92560D02*
Y334160D01*
Y92560D02*
X854950D01*
X2158640Y172720D02*
Y274320D01*
X2240640D01*
Y172720D02*
Y274320D01*
X2158640Y172720D02*
X2240640D01*
X93070Y1005840D02*
Y1107440D01*
X11070Y1005840D02*
X93070D01*
X11070D02*
Y1107440D01*
X93070D01*
X2158640Y520700D02*
Y622300D01*
X2240640D01*
Y520700D02*
Y622300D01*
X2158640Y520700D02*
X2240640D01*
X714020Y699970D02*
Y978970D01*
X1258020D01*
Y699970D02*
Y978970D01*
X714020Y699970D02*
X1258020D01*
X1401059Y220350D02*
Y320350D01*
X1350059Y220350D02*
X1401059D01*
X1350059D02*
Y320350D01*
X1401059D01*
X1403599Y625480D02*
Y725480D01*
X1352599Y625480D02*
X1403599D01*
X1352599D02*
Y725480D01*
X1403599D01*
D13*
X1160780Y875030D02*
X1717040D01*
X1906488Y1064478D02*
Y1105952D01*
X1717040Y875030D02*
X1906488Y1064478D01*
Y1105952D02*
X1949266Y1148730D01*
X2054180D01*
X868680Y521970D02*
X869950Y520700D01*
X868680Y521970D02*
Y546100D01*
X800100Y884150D02*
X813320Y897370D01*
X800100Y608330D02*
X835878Y572552D01*
X800100Y608330D02*
Y884150D01*
X835878Y572552D02*
X868462D01*
X868680Y596900D02*
X902970D01*
X953770Y647700D01*
Y819150D01*
X869950Y570230D02*
X871220Y571500D01*
X813320Y897370D02*
Y966470D01*
X838720Y934200D02*
X953770Y819150D01*
X838720Y934200D02*
Y966470D01*
X2054180Y1148730D02*
X2095440Y1189990D01*
X2096770D01*
X1092720Y806970D02*
X1160780Y875030D01*
X1092720Y712470D02*
Y806970D01*
X49530Y1597660D02*
G03*
X0Y1548130I0J-49530D01*
G01*
X2264410Y1546860D02*
G03*
X2213610Y1597660I-50800J0D01*
G01*
X2213610Y0D02*
G03*
X2264410Y50800I0J50800D01*
G01*
X0Y50000D02*
G03*
X50000Y0I50000J0D01*
G01*
X2264410Y1546860D02*
X2264410Y50800D01*
X49530Y1597660D02*
X2213610Y1597660D01*
X50000Y-0D02*
X2213610Y0D01*
X0Y50000D02*
Y1549400D01*
X2508060Y1593660D02*
X2508060D01*
X2508060D02*
Y1593910D01*
D16*
X1379424Y188500D02*
Y192500D01*
X1377424Y190500D02*
X1381424D01*
X1384504Y588550D02*
Y592550D01*
X1382504Y590550D02*
X1386504D01*
X1377424Y350520D02*
X1381424D01*
X1379424Y348520D02*
Y352520D01*
X995680Y425990D02*
Y429990D01*
X993680Y427990D02*
X997680D01*
X1381964Y758730D02*
Y762730D01*
X1379964Y760730D02*
X1383964D01*
X306070Y872826D02*
Y876826D01*
X304070Y874826D02*
X308070D01*
X508000Y872826D02*
Y876826D01*
X506000Y874826D02*
X510000D01*
X1745520Y1261110D02*
X1749520D01*
X1747520Y1259110D02*
Y1263110D01*
X1528350Y1253490D02*
X1532350D01*
X1530350Y1251490D02*
Y1255490D01*
X1952810Y1191260D02*
X1956810D01*
X1954810Y1189260D02*
Y1193260D01*
X693527Y279400D02*
X697527D01*
X695527Y277400D02*
Y281400D01*
X2164620Y1214120D02*
X2168620D01*
X2166620Y1212120D02*
Y1216120D01*
X2164620Y1256030D02*
X2168620D01*
X2166620Y1254030D02*
Y1258030D01*
X276860Y1187990D02*
Y1191990D01*
X274860Y1189990D02*
X278860D01*
X692150Y1186720D02*
Y1190720D01*
X690150Y1188720D02*
X694150D01*
X1526540Y1196880D02*
Y1200880D01*
X1524540Y1198880D02*
X1528540D01*
X491490Y1189260D02*
Y1193260D01*
X489490Y1191260D02*
X493490D01*
X1741170Y1200690D02*
Y1204690D01*
X1739170Y1202690D02*
X1743170D01*
X911860Y1191800D02*
Y1195800D01*
X909860Y1193800D02*
X913860D01*
X1108710Y1194340D02*
Y1198340D01*
X1106710Y1196340D02*
X1110710D01*
X1330960Y1194340D02*
Y1198340D01*
X1328960Y1196340D02*
X1332960D01*
X280670Y1247680D02*
Y1251680D01*
X278670Y1249680D02*
X282670D01*
X2068830Y1077500D02*
Y1081500D01*
X2066830Y1079500D02*
X2070830D01*
X497840Y1246410D02*
Y1250410D01*
X495840Y1248410D02*
X499840D01*
X698500Y1246410D02*
Y1250410D01*
X696500Y1248410D02*
X700500D01*
X917850Y1248950D02*
Y1252950D01*
X915850Y1250950D02*
X919850D01*
X1115060Y1252760D02*
Y1256760D01*
X1113060Y1254760D02*
X1117060D01*
X1333500Y1252760D02*
Y1256760D01*
X1331500Y1254760D02*
X1335500D01*
X1961240Y1250220D02*
Y1254220D01*
X1959240Y1252220D02*
X1963240D01*
X2216870Y1224630D02*
X2243370D01*
X2216870Y1173130D02*
X2243370D01*
Y1224630D01*
X2216870Y1173130D02*
Y1224630D01*
X535000Y884310D02*
Y901310D01*
X544500Y884310D02*
Y901310D01*
X535000Y884310D02*
X544500D01*
X535000Y901310D02*
X544500D01*
X1000430Y361190D02*
Y378190D01*
X990930Y361190D02*
Y378190D01*
X1000430D01*
X990930Y361190D02*
X1000430D01*
X1352940Y376250D02*
X1369940D01*
X1352940Y385750D02*
X1369940D01*
Y376250D02*
Y385750D01*
X1352940Y376250D02*
Y385750D01*
Y155270D02*
X1369940D01*
X1352940Y164770D02*
X1369940D01*
Y155270D02*
Y164770D01*
X1352940Y155270D02*
Y164770D01*
X1358020Y557860D02*
X1375020D01*
X1358020Y567360D02*
X1375020D01*
Y557860D02*
Y567360D01*
X1358020Y557860D02*
Y567360D01*
X1355480Y781380D02*
X1372480D01*
X1355480Y790880D02*
X1372480D01*
Y781380D02*
Y790880D01*
X1355480Y781380D02*
Y790880D01*
X742010Y1175140D02*
Y1192140D01*
X751510Y1175140D02*
Y1192140D01*
X742010Y1175140D02*
X751510D01*
X742010Y1192140D02*
X751510D01*
X120980Y1199270D02*
Y1216270D01*
X130480Y1199270D02*
Y1216270D01*
X120980Y1199270D02*
X130480D01*
X120980Y1216270D02*
X130480D01*
X540080Y1168790D02*
Y1185790D01*
X549580Y1168790D02*
Y1185790D01*
X540080Y1168790D02*
X549580D01*
X540080Y1185790D02*
X549580D01*
X333070Y1198000D02*
Y1215000D01*
X342570Y1198000D02*
Y1215000D01*
X333070Y1198000D02*
X342570D01*
X333070Y1215000D02*
X342570D01*
X246650Y1147750D02*
X263650D01*
X246650Y1138250D02*
X263650D01*
X246650D02*
Y1147750D01*
X263650Y1138250D02*
Y1147750D01*
X665870Y1147750D02*
X682870D01*
X665870Y1138250D02*
X682870D01*
X665870D02*
Y1147750D01*
X682870Y1138250D02*
Y1147750D01*
X2209030Y1135940D02*
Y1169440D01*
X2182630Y1135940D02*
Y1169440D01*
X2209030D01*
X2182630Y1135940D02*
X2209030D01*
X1295790Y1152830D02*
X1312790D01*
X1295790Y1143330D02*
X1312790D01*
X1295790D02*
Y1152830D01*
X1312790Y1143330D02*
Y1152830D01*
X454930Y1149020D02*
X471930D01*
X454930Y1139520D02*
X471930D01*
X454930D02*
Y1149020D01*
X471930Y1139520D02*
Y1149020D01*
X1495180Y1155370D02*
X1512180D01*
X1495180Y1145870D02*
X1512180D01*
X1495180D02*
Y1155370D01*
X1512180Y1145870D02*
Y1155370D01*
X1078620Y1151560D02*
X1095620D01*
X1078620Y1142060D02*
X1095620D01*
X1078620D02*
Y1151560D01*
X1095620Y1142060D02*
Y1151560D01*
X877960Y1152830D02*
X894960D01*
X877960Y1143330D02*
X894960D01*
X877960D02*
Y1152830D01*
X894960Y1143330D02*
Y1152830D01*
X1923170Y1159180D02*
X1940170D01*
X1923170Y1149680D02*
X1940170D01*
X1923170D02*
Y1159180D01*
X1940170Y1149680D02*
Y1159180D01*
X1377010Y1201810D02*
Y1218810D01*
X1386510Y1201810D02*
Y1218810D01*
X1377010Y1201810D02*
X1386510D01*
X1377010Y1218810D02*
X1386510D01*
X1161110Y1196730D02*
Y1213730D01*
X1170610Y1196730D02*
Y1213730D01*
X1161110Y1196730D02*
X1170610D01*
X1161110Y1213730D02*
X1170610D01*
X956640Y1179070D02*
Y1196070D01*
X966140Y1179070D02*
Y1196070D01*
X956640Y1179070D02*
X966140D01*
X956640Y1196070D02*
X966140D01*
X270840Y884310D02*
Y901310D01*
X280340Y884310D02*
Y901310D01*
X270840Y884310D02*
X280340D01*
X270840Y901310D02*
X280340D01*
X1582750Y1196730D02*
Y1213730D01*
X1592250Y1196730D02*
Y1213730D01*
X1582750Y1196730D02*
X1592250D01*
X1582750Y1213730D02*
X1592250D01*
X1999310Y1199270D02*
Y1216270D01*
X2008810Y1199270D02*
Y1216270D01*
X1999310Y1199270D02*
X2008810D01*
X1999310Y1216270D02*
X2008810D01*
X1726810Y1145870D02*
Y1155370D01*
X1709810Y1145870D02*
Y1155370D01*
Y1145870D02*
X1726810D01*
X1709810Y1155370D02*
X1726810D01*
X1789760Y1216270D02*
X1799260D01*
X1789760Y1199270D02*
X1799260D01*
Y1216270D01*
X1789760Y1199270D02*
Y1216270D01*
X2216120Y1227880D02*
X2244120D01*
X2216120Y1169880D02*
X2244120D01*
Y1227880D01*
X2216120Y1169880D02*
Y1227880D01*
X2230120Y1193880D02*
Y1203880D01*
X2225120Y1198880D02*
X2235120D01*
X535000Y892810D02*
X544500D01*
X539750Y888060D02*
Y897560D01*
X534250Y880810D02*
Y904810D01*
X545250Y880810D02*
Y904810D01*
X534250Y880810D02*
X545250D01*
X534250Y904810D02*
X545250D01*
X990930Y369690D02*
X1000430D01*
X995680Y364940D02*
Y374440D01*
X1001180Y357690D02*
Y381690D01*
X990180Y357690D02*
Y381690D01*
X1001180D01*
X990180Y357690D02*
X1001180D01*
X1361440Y376250D02*
Y385750D01*
X1356690Y381000D02*
X1366190D01*
X1349440Y375500D02*
X1373440D01*
X1349440Y386500D02*
X1373440D01*
Y375500D02*
Y386500D01*
X1349440Y375500D02*
Y386500D01*
X1361440Y155270D02*
Y164770D01*
X1356690Y160020D02*
X1366190D01*
X1349440Y154520D02*
X1373440D01*
X1349440Y165520D02*
X1373440D01*
Y154520D02*
Y165520D01*
X1349440Y154520D02*
Y165520D01*
X1366520Y557860D02*
Y567360D01*
X1361770Y562610D02*
X1371270D01*
X1354520Y557110D02*
X1378520D01*
X1354520Y568110D02*
X1378520D01*
Y557110D02*
Y568110D01*
X1354520Y557110D02*
Y568110D01*
X1363980Y781380D02*
Y790880D01*
X1359230Y786130D02*
X1368730D01*
X1351980Y780630D02*
X1375980D01*
X1351980Y791630D02*
X1375980D01*
Y780630D02*
Y791630D01*
X1351980Y780630D02*
Y791630D01*
X742010Y1183640D02*
X751510D01*
X746760Y1178890D02*
Y1188390D01*
X741260Y1171640D02*
Y1195640D01*
X752260Y1171640D02*
Y1195640D01*
X741260Y1171640D02*
X752260D01*
X741260Y1195640D02*
X752260D01*
X120980Y1207770D02*
X130480D01*
X125730Y1203020D02*
Y1212520D01*
X120230Y1195770D02*
Y1219770D01*
X131230Y1195770D02*
Y1219770D01*
X120230Y1195770D02*
X131230D01*
X120230Y1219770D02*
X131230D01*
X540080Y1177290D02*
X549580D01*
X544830Y1172540D02*
Y1182040D01*
X539330Y1165290D02*
Y1189290D01*
X550330Y1165290D02*
Y1189290D01*
X539330Y1165290D02*
X550330D01*
X539330Y1189290D02*
X550330D01*
X333070Y1206500D02*
X342570D01*
X337820Y1201750D02*
Y1211250D01*
X332320Y1194500D02*
Y1218500D01*
X343320Y1194500D02*
Y1218500D01*
X332320Y1194500D02*
X343320D01*
X332320Y1218500D02*
X343320D01*
X255150Y1138250D02*
Y1147750D01*
X250400Y1143000D02*
X259900D01*
X243150Y1148500D02*
X267150D01*
X243150Y1137500D02*
X267150D01*
X243150D02*
Y1148500D01*
X267150Y1137500D02*
Y1148500D01*
X674370Y1138250D02*
Y1147750D01*
X669620Y1143000D02*
X679120D01*
X662370Y1148500D02*
X686370D01*
X662370Y1137500D02*
X686370D01*
X662370D02*
Y1148500D01*
X686370Y1137500D02*
Y1148500D01*
X2190830Y1152690D02*
X2200830D01*
X2195830Y1147690D02*
Y1157690D01*
X2209830Y1132690D02*
Y1172690D01*
X2181830Y1132690D02*
Y1172690D01*
X2209830D01*
X2181830Y1132690D02*
X2209830D01*
X1304290Y1143330D02*
Y1152830D01*
X1299540Y1148080D02*
X1309040D01*
X1292290Y1153580D02*
X1316290D01*
X1292290Y1142580D02*
X1316290D01*
X1292290D02*
Y1153580D01*
X1316290Y1142580D02*
Y1153580D01*
X463430Y1139520D02*
Y1149020D01*
X458680Y1144270D02*
X468180D01*
X451430Y1149770D02*
X475430D01*
X451430Y1138770D02*
X475430D01*
X451430D02*
Y1149770D01*
X475430Y1138770D02*
Y1149770D01*
X1503680Y1145870D02*
Y1155370D01*
X1498930Y1150620D02*
X1508430D01*
X1491680Y1156120D02*
X1515680D01*
X1491680Y1145120D02*
X1515680D01*
X1491680D02*
Y1156120D01*
X1515680Y1145120D02*
Y1156120D01*
X1087120Y1142060D02*
Y1151560D01*
X1082370Y1146810D02*
X1091870D01*
X1075120Y1152310D02*
X1099120D01*
X1075120Y1141310D02*
X1099120D01*
X1075120D02*
Y1152310D01*
X1099120Y1141310D02*
Y1152310D01*
X886460Y1143330D02*
Y1152830D01*
X881710Y1148080D02*
X891210D01*
X874460Y1153580D02*
X898460D01*
X874460Y1142580D02*
X898460D01*
X874460D02*
Y1153580D01*
X898460Y1142580D02*
Y1153580D01*
X1931670Y1149680D02*
Y1159180D01*
X1926920Y1154430D02*
X1936420D01*
X1919670Y1159930D02*
X1943670D01*
X1919670Y1148930D02*
X1943670D01*
X1919670D02*
Y1159930D01*
X1943670Y1148930D02*
Y1159930D01*
X1377010Y1210310D02*
X1386510D01*
X1381760Y1205560D02*
Y1215060D01*
X1376260Y1198310D02*
Y1222310D01*
X1387260Y1198310D02*
Y1222310D01*
X1376260Y1198310D02*
X1387260D01*
X1376260Y1222310D02*
X1387260D01*
X1161110Y1205230D02*
X1170610D01*
X1165860Y1200480D02*
Y1209980D01*
X1160360Y1193230D02*
Y1217230D01*
X1171360Y1193230D02*
Y1217230D01*
X1160360Y1193230D02*
X1171360D01*
X1160360Y1217230D02*
X1171360D01*
X956640Y1187570D02*
X966140D01*
X961390Y1182820D02*
Y1192320D01*
X955890Y1175570D02*
Y1199570D01*
X966890Y1175570D02*
Y1199570D01*
X955890Y1175570D02*
X966890D01*
X955890Y1199570D02*
X966890D01*
X270840Y892810D02*
X280340D01*
X275590Y888060D02*
Y897560D01*
X270090Y880810D02*
Y904810D01*
X281090Y880810D02*
Y904810D01*
X270090Y880810D02*
X281090D01*
X270090Y904810D02*
X281090D01*
X1582750Y1205230D02*
X1592250D01*
X1587500Y1200480D02*
Y1209980D01*
X1582000Y1193230D02*
Y1217230D01*
X1593000Y1193230D02*
Y1217230D01*
X1582000Y1193230D02*
X1593000D01*
X1582000Y1217230D02*
X1593000D01*
X1999310Y1207770D02*
X2008810D01*
X2004060Y1203020D02*
Y1212520D01*
X1998560Y1195770D02*
Y1219770D01*
X2009560Y1195770D02*
Y1219770D01*
X1998560Y1195770D02*
X2009560D01*
X1998560Y1219770D02*
X2009560D01*
X1730310Y1145120D02*
Y1156120D01*
X1706310Y1145120D02*
Y1156120D01*
Y1145120D02*
X1730310D01*
X1706310Y1156120D02*
X1730310D01*
X1713560Y1150620D02*
X1723060D01*
X1718310Y1145870D02*
Y1155370D01*
X1789010Y1219770D02*
X1800010D01*
X1789010Y1195770D02*
X1800010D01*
Y1219770D01*
X1789010Y1195770D02*
Y1219770D01*
X1794510Y1203020D02*
Y1212520D01*
X1789760Y1207770D02*
X1799260D01*
D17*
X787920Y693470D02*
G03*
X787920Y693470I-1400J0D01*
G01*
D18*
X2123430Y1295190D02*
Y1491190D01*
X1963430D02*
X2123430D01*
X1963430Y1295190D02*
Y1491190D01*
Y1295190D02*
X2123430D01*
X772763Y1274560D02*
X857763D01*
Y1209560D02*
Y1274560D01*
X772763Y1209560D02*
X857763D01*
X772763D02*
Y1274560D01*
X1310630Y1295190D02*
Y1491190D01*
X1150630D02*
X1310630D01*
X1150630Y1295190D02*
Y1491190D01*
Y1295190D02*
X1310630D01*
X1107430D02*
Y1491190D01*
X947430D02*
X1107430D01*
X947430Y1295190D02*
Y1491190D01*
Y1295190D02*
X1107430D01*
X337830D02*
X497830D01*
X337830D02*
Y1491190D01*
X497830D01*
Y1295190D02*
Y1491190D01*
X883880Y403900D02*
Y612100D01*
X726480D02*
X883880D01*
X726480Y403900D02*
Y612100D01*
Y403900D02*
X883880D01*
X2168450Y918490D02*
Y1004290D01*
X2238450D01*
Y918490D02*
Y1004290D01*
X2168450Y918490D02*
X2238450D01*
X2001560Y1503360D02*
X2108160D01*
X2001560D02*
Y1590360D01*
X2108160D01*
Y1503360D02*
Y1590360D01*
X1795742Y1503360D02*
X1902342D01*
X1795742D02*
Y1590360D01*
X1902342D01*
Y1503360D02*
Y1590360D01*
X1696523Y1503360D02*
Y1590360D01*
X1589924D02*
X1696523D01*
X1589924Y1503360D02*
Y1590360D01*
Y1503360D02*
X1696523D01*
X456520Y850691D02*
Y906691D01*
X351520D02*
X456520D01*
X351520Y850691D02*
Y906691D01*
Y850691D02*
X456520D01*
X1027230Y383430D02*
X1129230D01*
X1027230D02*
Y630030D01*
X1129230D01*
Y383430D02*
Y630030D01*
X96840Y885230D02*
Y991830D01*
X9840Y885230D02*
X96840D01*
X9840D02*
Y991830D01*
X96840D01*
X355640Y18730D02*
Y105730D01*
Y18730D02*
X462240D01*
Y105730D01*
X355640D02*
X462240D01*
X52060Y539220D02*
Y699220D01*
X138060D01*
Y539220D02*
Y699220D01*
X52060Y539220D02*
X138060D01*
X149196Y1503360D02*
X255796D01*
X149196D02*
Y1590360D01*
X255796D01*
Y1503360D02*
Y1590360D01*
X355014Y1503360D02*
X461614D01*
X355014D02*
Y1590360D01*
X461614D01*
Y1503360D02*
Y1590360D01*
X560832Y1503360D02*
X667432D01*
X560832D02*
Y1590360D01*
X667432D01*
Y1503360D02*
Y1590360D01*
X873251Y1503360D02*
Y1590360D01*
X766651D02*
X873251D01*
X766651Y1503360D02*
Y1590360D01*
Y1503360D02*
X873251D01*
X972469D02*
X1079069D01*
X972469D02*
Y1590360D01*
X1079069D01*
Y1503360D02*
Y1590360D01*
X1178287Y1503360D02*
X1284887D01*
X1178287D02*
Y1590360D01*
X1284887D01*
Y1503360D02*
Y1590360D01*
X1384105Y1503360D02*
X1490705D01*
X1384105D02*
Y1590360D01*
X1490705D01*
Y1503360D02*
Y1590360D01*
X1815285Y1209560D02*
Y1274560D01*
Y1209560D02*
X1900285D01*
Y1274560D01*
X1815285D02*
X1900285D01*
X1760230Y1295190D02*
X1920230D01*
X1760230D02*
Y1491190D01*
X1920230D01*
Y1295190D02*
Y1491190D01*
X1606781Y1209560D02*
Y1274560D01*
Y1209560D02*
X1691781D01*
Y1274560D01*
X1606781D02*
X1691781D01*
X1398277Y1209560D02*
Y1274560D01*
Y1209560D02*
X1483277D01*
Y1274560D01*
X1398277D02*
X1483277D01*
X1189772D02*
X1274772D01*
Y1209560D02*
Y1274560D01*
X1189772Y1209560D02*
X1274772D01*
X1189772D02*
Y1274560D01*
X981268D02*
X1066268D01*
Y1209560D02*
Y1274560D01*
X981268Y1209560D02*
X1066268D01*
X981268D02*
Y1274560D01*
X564259Y1209560D02*
Y1274560D01*
Y1209560D02*
X649259D01*
Y1274560D01*
X564259D02*
X649259D01*
X355755D02*
X440755D01*
Y1209560D02*
Y1274560D01*
X355755Y1209560D02*
X440755D01*
X355755D02*
Y1274560D01*
X147250Y1209560D02*
Y1274560D01*
Y1209560D02*
X232250D01*
Y1274560D01*
X147250D02*
X232250D01*
X1192590Y1122690D02*
Y1169990D01*
Y1122690D02*
X1263590D01*
Y1169990D01*
X1192590D02*
X1263590D01*
X152460Y1117610D02*
Y1164910D01*
Y1117610D02*
X223460D01*
Y1164910D01*
X152460D02*
X223460D01*
X363280Y1122592D02*
Y1169893D01*
Y1122592D02*
X434280D01*
Y1169893D01*
X363280D02*
X434280D01*
X569020Y1121420D02*
Y1168720D01*
Y1121420D02*
X640020D01*
Y1168720D01*
X569020D02*
X640020D01*
X777300Y1122690D02*
Y1169990D01*
Y1122690D02*
X848300D01*
Y1169990D01*
X777300D02*
X848300D01*
X1403410Y1121420D02*
Y1168720D01*
Y1121420D02*
X1474410D01*
Y1168720D01*
X1403410D02*
X1474410D01*
X2032060Y1121420D02*
Y1168720D01*
Y1121420D02*
X2103060D01*
Y1168720D01*
X2032060D02*
X2103060D01*
X989390Y1121420D02*
Y1168720D01*
Y1121420D02*
X1060390D01*
Y1168720D01*
X989390D02*
X1060390D01*
X1609150Y1117610D02*
Y1164910D01*
Y1117610D02*
X1680150D01*
Y1164910D01*
X1609150D02*
X1680150D01*
X1830130Y1117610D02*
Y1164910D01*
Y1117610D02*
X1901130D01*
Y1164910D01*
X1830130D02*
X1901130D01*
X2023790Y1274560D02*
X2108790D01*
Y1209560D02*
Y1274560D01*
X2023790Y1209560D02*
X2108790D01*
X2023790D02*
Y1274560D01*
X1314440Y35940D02*
Y121940D01*
X1154440D02*
X1314440D01*
X1154440Y35940D02*
Y121940D01*
Y35940D02*
X1314440D01*
X1353830Y1295190D02*
X1513830D01*
X1353830D02*
Y1491190D01*
X1513830D01*
Y1295190D02*
Y1491190D01*
X1557030Y1295190D02*
X1717030D01*
X1557030D02*
Y1491190D01*
X1717030D01*
Y1295190D02*
Y1491190D01*
X294630Y1295190D02*
Y1491190D01*
X134630D02*
X294630D01*
X134630Y1295190D02*
Y1491190D01*
Y1295190D02*
X294630D01*
X541030D02*
X701030D01*
X541030D02*
Y1491190D01*
X701030D01*
Y1295190D02*
Y1491190D01*
X744230Y1295190D02*
X904230D01*
X744230D02*
Y1491190D01*
X904230D01*
Y1295190D02*
Y1491190D01*
X857450Y90060D02*
Y336660D01*
X755450D02*
X857450D01*
X755450Y90060D02*
Y336660D01*
Y90060D02*
X857450D01*
X2156140Y170220D02*
Y276820D01*
X2243140D01*
Y170220D02*
Y276820D01*
X2156140Y170220D02*
X2243140D01*
X95570Y1003340D02*
Y1109940D01*
X8570Y1003340D02*
X95570D01*
X8570D02*
Y1109940D01*
X95570D01*
X2156140Y518200D02*
Y624800D01*
X2243140D01*
Y518200D02*
Y624800D01*
X2156140Y518200D02*
X2243140D01*
X711520Y697470D02*
Y981470D01*
X1260520D01*
Y697470D02*
Y981470D01*
X711520Y697470D02*
X1260520D01*
X1403559Y217850D02*
Y322850D01*
X1347559Y217850D02*
X1403559D01*
X1347559D02*
Y322850D01*
X1403559D01*
X1406099Y622980D02*
Y727980D01*
X1350099Y622980D02*
X1406099D01*
X1350099D02*
Y727980D01*
X1406099D01*
D20*
X928370Y1043940D02*
D03*
X1818700Y1192530D02*
D03*
X1610420D02*
D03*
X152460D02*
D03*
X360740D02*
D03*
X1402140D02*
D03*
X1193860D02*
D03*
X985580D02*
D03*
X777300D02*
D03*
X569020D02*
D03*
X2026980D02*
D03*
D24*
X1776860Y977900D02*
D03*
X1546860Y1003300D02*
D03*
X43180Y453390D02*
D03*
D63*
X1983430Y1454190D02*
D03*
X2103430D02*
D03*
Y1332190D02*
D03*
X1170630Y1454190D02*
D03*
X1290630D02*
D03*
Y1332190D02*
D03*
X967430Y1454190D02*
D03*
X1087430D02*
D03*
Y1332190D02*
D03*
X477830D02*
D03*
Y1454190D02*
D03*
X357830D02*
D03*
X1078230Y615930D02*
D03*
X1900230Y1332190D02*
D03*
Y1454190D02*
D03*
X1780230D02*
D03*
X1493830Y1332190D02*
D03*
Y1454190D02*
D03*
X1373830D02*
D03*
X1697030Y1332190D02*
D03*
Y1454190D02*
D03*
X1577030D02*
D03*
X154630D02*
D03*
X274630D02*
D03*
Y1332190D02*
D03*
X681030D02*
D03*
Y1454190D02*
D03*
X561030D02*
D03*
X884230Y1332190D02*
D03*
Y1454190D02*
D03*
X764230D02*
D03*
X806450Y322560D02*
D03*
D64*
X2043430Y1312190D02*
D03*
X1230630D02*
D03*
X1027430D02*
D03*
X417830D02*
D03*
X1840230D02*
D03*
X1433830D02*
D03*
X1637030D02*
D03*
X214630D02*
D03*
X621030D02*
D03*
X824230D02*
D03*
D65*
X1983430Y1332190D02*
D03*
X1170630D02*
D03*
X967430D02*
D03*
X357830D02*
D03*
X1078230Y397530D02*
D03*
X1780230Y1332190D02*
D03*
X1373830D02*
D03*
X1577030D02*
D03*
X154630D02*
D03*
X561030D02*
D03*
X764230D02*
D03*
X806450Y104160D02*
D03*
D66*
X847763Y1264560D02*
D03*
Y1219560D02*
D03*
X782763D02*
D03*
X1825285D02*
D03*
X1890285D02*
D03*
Y1264560D02*
D03*
X1616781Y1219560D02*
D03*
X1681781D02*
D03*
Y1264560D02*
D03*
X1408277Y1219560D02*
D03*
X1473277D02*
D03*
Y1264560D02*
D03*
X1264772D02*
D03*
Y1219560D02*
D03*
X1199772D02*
D03*
X1056268Y1264560D02*
D03*
Y1219560D02*
D03*
X991268D02*
D03*
X574259D02*
D03*
X639259D02*
D03*
Y1264560D02*
D03*
X430755D02*
D03*
Y1219560D02*
D03*
X365755D02*
D03*
X157250D02*
D03*
X222250D02*
D03*
Y1264560D02*
D03*
X2098790D02*
D03*
Y1219560D02*
D03*
X2033790D02*
D03*
D67*
X782763Y1264560D02*
D03*
X1825285D02*
D03*
X1616781D02*
D03*
X1408277D02*
D03*
X1199772D02*
D03*
X991268D02*
D03*
X574259D02*
D03*
X365755D02*
D03*
X157250D02*
D03*
X2033790D02*
D03*
D68*
X50000Y50000D02*
D03*
Y1547660D02*
D03*
X2214410Y50000D02*
D03*
Y1547660D02*
D03*
D69*
X1695450Y919480D02*
D03*
Y995680D02*
D03*
X1228090Y1139190D02*
D03*
X1254090D02*
D03*
X187960Y1134110D02*
D03*
X213960D02*
D03*
X398780Y1139092D02*
D03*
X424780D02*
D03*
X604520Y1137920D02*
D03*
X630520D02*
D03*
X812800Y1139190D02*
D03*
X838800D02*
D03*
X1438910Y1137920D02*
D03*
X1464910D02*
D03*
X2067560D02*
D03*
X2093560D02*
D03*
X1024890D02*
D03*
X1050890D02*
D03*
X1644650Y1134110D02*
D03*
X1670650D02*
D03*
X1865630D02*
D03*
X1891630D02*
D03*
D70*
X953770Y1043940D02*
D03*
X979170D02*
D03*
X1004570D02*
D03*
X1029970D02*
D03*
X1055370D02*
D03*
X1080770D02*
D03*
X1106170D02*
D03*
X1131570D02*
D03*
X1156970D02*
D03*
X1776860Y952500D02*
D03*
X1889700Y1192530D02*
D03*
X1681420D02*
D03*
X223460D02*
D03*
X431740D02*
D03*
X1473140D02*
D03*
X1264860D02*
D03*
X1056580D02*
D03*
X848300D02*
D03*
X640020D02*
D03*
X2097980D02*
D03*
X1546860Y927100D02*
D03*
Y952500D02*
D03*
Y977900D02*
D03*
X43180Y377190D02*
D03*
Y402590D02*
D03*
Y427990D02*
D03*
D71*
X868680Y419100D02*
D03*
D72*
Y444500D02*
D03*
Y469900D02*
D03*
Y495300D02*
D03*
Y520700D02*
D03*
Y546100D02*
D03*
Y571500D02*
D03*
Y596900D02*
D03*
X741680D02*
D03*
Y571500D02*
D03*
Y546100D02*
D03*
Y520700D02*
D03*
Y495300D02*
D03*
Y469900D02*
D03*
Y444500D02*
D03*
Y419100D02*
D03*
D73*
X2203450Y935990D02*
D03*
D74*
Y961390D02*
D03*
Y986790D02*
D03*
D75*
X2080260Y1546860D02*
D03*
X1874442D02*
D03*
X1668624D02*
D03*
X383540Y62230D02*
D03*
X227896Y1546860D02*
D03*
X433714D02*
D03*
X639533D02*
D03*
X845351D02*
D03*
X1051169D02*
D03*
X1256987D02*
D03*
X1462805D02*
D03*
D76*
X2029460D02*
D03*
X1823642D02*
D03*
X1617823D02*
D03*
X53340Y913130D02*
D03*
X434340Y62230D02*
D03*
X177096Y1546860D02*
D03*
X382914D02*
D03*
X588732D02*
D03*
X794551D02*
D03*
X1000369D02*
D03*
X1206187D02*
D03*
X1412005D02*
D03*
X2199640Y248920D02*
D03*
X52070Y1031240D02*
D03*
X2199640Y596900D02*
D03*
D77*
X374020Y874691D02*
D03*
X394020D02*
D03*
X414020D02*
D03*
X1379559Y280350D02*
D03*
Y260350D02*
D03*
Y240350D02*
D03*
X1382099Y685480D02*
D03*
Y665480D02*
D03*
Y645480D02*
D03*
D78*
X434020Y874691D02*
D03*
D79*
X53340Y963930D02*
D03*
X2199640Y198120D02*
D03*
X52070Y1082040D02*
D03*
X2199640Y546100D02*
D03*
D80*
X95060Y655220D02*
D03*
X1198440Y78940D02*
D03*
D81*
X95060Y583220D02*
D03*
X1504080Y121850D02*
D03*
Y398850D02*
D03*
X2062080Y121850D02*
D03*
Y398850D02*
D03*
X1504080Y534600D02*
D03*
Y811600D02*
D03*
X2062080Y534600D02*
D03*
Y811600D02*
D03*
D82*
X1202090Y1139190D02*
D03*
X161960Y1134110D02*
D03*
X372780Y1139092D02*
D03*
X578520Y1137920D02*
D03*
X786800Y1139190D02*
D03*
X1412910Y1137920D02*
D03*
X2041560D02*
D03*
X998890D02*
D03*
X1618650Y1134110D02*
D03*
X1839630D02*
D03*
D83*
X1270440Y78940D02*
D03*
X266630Y755250D02*
D03*
X543630D02*
D03*
X266630Y197250D02*
D03*
X543630D02*
D03*
D84*
X787920Y712470D02*
D03*
D85*
X813320D02*
D03*
X1245120D02*
D03*
X838720D02*
D03*
X864120D02*
D03*
X889520D02*
D03*
X914920D02*
D03*
X940320D02*
D03*
X965720D02*
D03*
X991120D02*
D03*
X1016520D02*
D03*
X1041920D02*
D03*
X1067320D02*
D03*
X1092720D02*
D03*
X1118120D02*
D03*
X1143520D02*
D03*
X1168920D02*
D03*
X1194320D02*
D03*
X1219720D02*
D03*
X787920Y966470D02*
D03*
X813320D02*
D03*
X838720D02*
D03*
X864120D02*
D03*
X889520D02*
D03*
X914920D02*
D03*
X940320D02*
D03*
X965720D02*
D03*
X991120D02*
D03*
X1016520D02*
D03*
X1041920D02*
D03*
X1067320D02*
D03*
X1092720D02*
D03*
X1118120D02*
D03*
X1143520D02*
D03*
X1168920D02*
D03*
X1194320D02*
D03*
X1219720D02*
D03*
X1245120D02*
D03*
D86*
X1379559Y300350D02*
D03*
X1382099Y705480D02*
D03*
D87*
X1913731Y1043940D02*
D03*
X2249170D02*
D03*
X2043430Y899160D02*
D03*
X2175510D02*
D03*
X2249170Y971550D02*
D03*
Y899160D02*
D03*
X2109470D02*
D03*
X1977390D02*
D03*
X1911350D02*
D03*
X1845310D02*
D03*
X1779270D02*
D03*
X2181066Y1043940D02*
D03*
X2114232D02*
D03*
X2047399D02*
D03*
X1980565D02*
D03*
X1780064D02*
D03*
X1713230D02*
D03*
D88*
X40640Y378460D02*
X504569D01*
X596009Y469900D01*
X741680D01*
X43180Y402590D02*
X496823D01*
X589533Y495300D01*
X741680D01*
X41910Y377190D02*
X43180D01*
X41910Y402590D02*
X43180D01*
Y427990D02*
X490346D01*
X583056Y520700D01*
X43180Y453390D02*
X483870D01*
X41910D02*
X43180D01*
X483870D02*
X576580Y546100D01*
X741680D01*
X583056Y520700D02*
X741680D01*
M02*
