%TF.GenerationSoftware,Altium Limited,Altium Designer,22.1.2 (22)*%
G04 Layer_Color=65535*
%FSLAX26Y26*%
%MOIN*%
%TF.SameCoordinates,3D441875-7E2E-40EE-9B33-20ED1D9A15A1*%
%TF.FilePolarity,Positive*%
%TF.FileFunction,Legend,Top*%
%TF.Part,Single*%
G01*
G75*
%TA.AperFunction,NonConductor*%
%ADD34C,0.007874*%
%ADD35C,0.005000*%
%ADD36C,0.010000*%
D34*
X1159291Y3405827D02*
G03*
X1159291Y3405827I-3937J0D01*
G01*
X2717638Y1173614D02*
G03*
X2717638Y1173614I-3937J0D01*
G01*
D35*
X2085669Y1792047D02*
X2300236D01*
X1389213D02*
X2085669D01*
X1177795D02*
X1389213D01*
X2300236D02*
Y3797953D01*
X1177795Y1792047D02*
Y3797953D01*
X1877795D02*
X2300236D01*
X1613583D02*
X1877795D01*
X1177795D02*
X1613583D01*
X1177795Y1792047D02*
Y3797953D01*
X2300236D01*
X1177795Y1792047D02*
X2300236D01*
Y3797953D01*
X3213701Y1230709D02*
Y2569291D01*
X2426299D02*
X3213701D01*
X2426299Y1230709D02*
Y2569291D01*
Y1230709D02*
X3213701D01*
X1538583Y1225000D02*
Y1625000D01*
X1822047D01*
X1861417D01*
Y1225000D02*
Y1625000D01*
X1822047Y1225000D02*
X1861417D01*
X1538583D02*
X1822047D01*
Y1625000D01*
D36*
X2455000Y3540000D02*
X3180000D01*
X2455000Y3020000D02*
Y3540000D01*
Y3020000D02*
X3180000D01*
Y3540000D01*
X1320000Y3429984D02*
X1329997Y3439981D01*
X1349990D01*
X1359987Y3429984D01*
Y3419987D01*
X1349990Y3409990D01*
X1339994D01*
X1349990D01*
X1359987Y3399994D01*
Y3389997D01*
X1349990Y3380000D01*
X1329997D01*
X1320000Y3389997D01*
X1379981Y3439981D02*
Y3399994D01*
X1399974Y3380000D01*
X1419968Y3399994D01*
Y3439981D01*
X1439961Y3429984D02*
X1449958Y3439981D01*
X1469951D01*
X1479948Y3429984D01*
Y3419987D01*
X1469951Y3409990D01*
X1459955D01*
X1469951D01*
X1479948Y3399994D01*
Y3389997D01*
X1469951Y3380000D01*
X1449958D01*
X1439961Y3389997D01*
X1370000Y2914974D02*
Y2854994D01*
Y2884984D01*
X1409987D01*
Y2914974D01*
Y2854994D01*
X1429981D02*
Y2864990D01*
X1439977D01*
Y2854994D01*
X1429981D01*
X1479964D02*
Y2914974D01*
X1499958Y2894981D01*
X1519951Y2914974D01*
Y2854994D01*
X1539945D02*
Y2864990D01*
X1549942D01*
Y2854994D01*
X1539945D01*
X1589929D02*
Y2914974D01*
X1619919D01*
X1629916Y2904977D01*
Y2884984D01*
X1619919Y2874987D01*
X1589929D01*
X1609922D02*
X1629916Y2854994D01*
X1709890Y2914974D02*
Y2854994D01*
X1739880D01*
X1749877Y2864990D01*
Y2904977D01*
X1739880Y2914974D01*
X1709890D01*
X1799861Y2854994D02*
X1779867D01*
X1769871Y2864990D01*
Y2884984D01*
X1779867Y2894981D01*
X1799861D01*
X1809858Y2884984D01*
Y2874987D01*
X1769871D01*
X1829851Y2854994D02*
X1859841D01*
X1869838Y2864990D01*
X1859841Y2874987D01*
X1839848D01*
X1829851Y2884984D01*
X1839848Y2894981D01*
X1869838D01*
X1889832Y2854994D02*
X1909825D01*
X1899829D01*
Y2894981D01*
X1889832D01*
X1959809Y2835000D02*
X1969806D01*
X1979803Y2844997D01*
Y2894981D01*
X1949812D01*
X1939816Y2884984D01*
Y2864990D01*
X1949812Y2854994D01*
X1979803D01*
X1999796D02*
Y2894981D01*
X2029786D01*
X2039783Y2884984D01*
Y2854994D01*
X2059777D02*
X2089767D01*
X2099764Y2864990D01*
X2089767Y2874987D01*
X2069774D01*
X2059777Y2884984D01*
X2069774Y2894981D01*
X2099764D01*
X2649987Y3394984D02*
X2639990Y3404981D01*
X2619997D01*
X2610000Y3394984D01*
Y3384987D01*
X2619997Y3374990D01*
X2639990D01*
X2649987Y3364994D01*
Y3354997D01*
X2639990Y3345000D01*
X2619997D01*
X2610000Y3354997D01*
X2669981Y3404981D02*
Y3345000D01*
X2699971D01*
X2709968Y3354997D01*
Y3394984D01*
X2699971Y3404981D01*
X2669981D01*
X2729961Y3345000D02*
Y3384987D01*
X2749955Y3404981D01*
X2769948Y3384987D01*
Y3345000D01*
Y3374990D01*
X2729961D01*
X2644987Y3279984D02*
X2634990Y3289981D01*
X2614997D01*
X2605000Y3279984D01*
Y3269987D01*
X2614997Y3259990D01*
X2634990D01*
X2644987Y3249994D01*
Y3239997D01*
X2634990Y3230000D01*
X2614997D01*
X2605000Y3239997D01*
X2704968Y3279984D02*
X2694971Y3289981D01*
X2674977D01*
X2664981Y3279984D01*
Y3239997D01*
X2674977Y3230000D01*
X2694971D01*
X2704968Y3239997D01*
X2724961Y3289981D02*
Y3230000D01*
X2764948D01*
X1995000Y3444981D02*
Y3404994D01*
X2014994Y3385000D01*
X2034987Y3404994D01*
Y3444981D01*
X2054981Y3385000D02*
X2074974D01*
X2064977D01*
Y3424987D01*
X2054981D01*
X2104964Y3385000D02*
Y3424987D01*
X2134955D01*
X2144952Y3414990D01*
Y3385000D01*
X2039987Y3314984D02*
X2029990Y3324981D01*
X2009997D01*
X2000000Y3314984D01*
Y3274997D01*
X2009997Y3265000D01*
X2029990D01*
X2039987Y3274997D01*
Y3294990D01*
X2019994D01*
X2059981Y3265000D02*
Y3324981D01*
X2099968Y3265000D01*
Y3324981D01*
X2119961D02*
Y3265000D01*
X2149952D01*
X2159948Y3274997D01*
Y3314984D01*
X2149952Y3324981D01*
X2119961D01*
X1359987Y3304984D02*
X1349990Y3314981D01*
X1329997D01*
X1320000Y3304984D01*
Y3264997D01*
X1329997Y3255000D01*
X1349990D01*
X1359987Y3264997D01*
Y3284990D01*
X1339994D01*
X1379981Y3255000D02*
Y3314981D01*
X1419968Y3255000D01*
Y3314981D01*
X1439961D02*
Y3255000D01*
X1469951D01*
X1479948Y3264997D01*
Y3304984D01*
X1469951Y3314981D01*
X1439961D01*
X2460000Y3634981D02*
Y3584997D01*
X2469997Y3575000D01*
X2489990D01*
X2499987Y3584997D01*
Y3634981D01*
X2519981Y3624984D02*
X2529977Y3634981D01*
X2549971D01*
X2559968Y3624984D01*
Y3614987D01*
X2539974Y3594994D01*
Y3584997D02*
Y3575000D01*
X1420016Y3744990D02*
Y3695006D01*
X1430013Y3685010D01*
X1450006D01*
X1460003Y3695006D01*
Y3744990D01*
X1479997Y3734994D02*
X1489994Y3744990D01*
X1509987D01*
X1519984Y3734994D01*
Y3724997D01*
X1499990Y3705003D01*
Y3695006D02*
Y3685010D01*
X2425000Y2610000D02*
Y2669981D01*
X2454990D01*
X2464987Y2659984D01*
Y2639990D01*
X2454990Y2629994D01*
X2425000D01*
X2524968Y2659984D02*
X2514971Y2669981D01*
X2494977D01*
X2484981Y2659984D01*
Y2649987D01*
X2494977Y2639990D01*
X2514971D01*
X2524968Y2629994D01*
Y2619997D01*
X2514971Y2610000D01*
X2494977D01*
X2484981Y2619997D01*
X2544961Y2659984D02*
X2554958Y2669981D01*
X2574952D01*
X2584948Y2659984D01*
Y2649987D01*
X2564955Y2629994D01*
Y2619997D02*
Y2610000D01*
X1538000Y1666000D02*
Y1725981D01*
X1567990D01*
X1577987Y1715984D01*
Y1695990D01*
X1567990Y1685994D01*
X1538000D01*
X1597981Y1715984D02*
X1607977Y1725981D01*
X1627971D01*
X1637968Y1715984D01*
Y1705987D01*
X1617974Y1685994D01*
Y1675997D02*
Y1666000D01*
%TF.MD5,13e7e7755c75154771b3f1a7dd96f3f0*%
M02*
