%TF.GenerationSoftware,Altium Limited,Altium Designer,22.1.2 (22)*%
G04 Layer_Color=16711935*
%FSLAX26Y26*%
%MOIN*%
%TF.SameCoordinates,3D441875-7E2E-40EE-9B33-20ED1D9A15A1*%
%TF.FilePolarity,Negative*%
%TF.FileFunction,Soldermask,Bot*%
%TF.Part,Single*%
G01*
G75*
%TA.AperFunction,ComponentPad*%
%ADD24C,0.126110*%
%ADD25C,0.086740*%
%ADD26R,0.086740X0.086740*%
%ADD27C,0.088000*%
%ADD28R,0.066000X0.066000*%
%ADD29C,0.066000*%
%ADD30R,0.067370X0.067370*%
%ADD31C,0.067370*%
%ADD32R,0.072961X0.072961*%
%ADD33C,0.072961*%
D24*
X1256535Y3719213D02*
D03*
X2221496D02*
D03*
Y1870787D02*
D03*
X1256535D02*
D03*
D25*
X2240000Y2005827D02*
D03*
Y2105827D02*
D03*
Y2205827D02*
D03*
Y2305827D02*
D03*
Y2405827D02*
D03*
Y2505827D02*
D03*
Y2605827D02*
D03*
Y2705827D02*
D03*
Y2805827D02*
D03*
Y2905827D02*
D03*
Y3005827D02*
D03*
Y3105827D02*
D03*
Y3205827D02*
D03*
Y3305827D02*
D03*
Y3405827D02*
D03*
X1240000Y2005827D02*
D03*
Y2105827D02*
D03*
Y2205827D02*
D03*
Y2305827D02*
D03*
Y2405827D02*
D03*
Y2505827D02*
D03*
Y2605827D02*
D03*
Y2705827D02*
D03*
Y2805827D02*
D03*
Y2905827D02*
D03*
Y3005827D02*
D03*
Y3105827D02*
D03*
Y3205827D02*
D03*
Y3305827D02*
D03*
D26*
Y3405827D02*
D03*
D27*
X3110000Y3480000D02*
D03*
X3115000Y3080000D02*
D03*
D28*
X2515000D02*
D03*
D29*
Y3180000D02*
D03*
Y3280000D02*
D03*
Y3380000D02*
D03*
Y3480000D02*
D03*
D30*
X2721575Y1321260D02*
D03*
D31*
X2918425D02*
D03*
X2516850Y2478740D02*
D03*
X3123150D02*
D03*
D32*
X1700000Y1325000D02*
D03*
D33*
Y1525000D02*
D03*
%TF.MD5,2feeccd3258a9a37e9d192c877b884a2*%
M02*
