%TF.GenerationSoftware,Altium Limited,Altium Designer,22.1.2 (22)*%
G04 Layer_Physical_Order=1*
G04 Layer_Color=255*
%FSLAX26Y26*%
%MOIN*%
%TF.SameCoordinates,3D441875-7E2E-40EE-9B33-20ED1D9A15A1*%
%TF.FilePolarity,Positive*%
%TF.FileFunction,Copper,L1,Top,Signal*%
%TF.Part,Single*%
G01*
G75*
%TA.AperFunction,Conductor*%
%ADD10C,0.066929*%
%ADD11C,0.118110*%
%TA.AperFunction,ComponentPad*%
%ADD12C,0.118110*%
%ADD13C,0.078740*%
%ADD14R,0.078740X0.078740*%
%ADD15C,0.080000*%
%ADD16R,0.062000X0.062000*%
%ADD17C,0.062000*%
%ADD18R,0.059370X0.059370*%
%ADD19C,0.059370*%
%ADD20R,0.064961X0.064961*%
%ADD21C,0.064961*%
D10*
X2615000Y3419206D02*
Y3550794D01*
X1100000Y3455000D02*
X1235000Y3590000D01*
X2575794D01*
X2615000Y3550794D01*
X2335794Y3505000D02*
X2375000Y3465794D01*
Y3119206D02*
Y3465794D01*
X1339173Y3505000D02*
X2335794D01*
X1240000Y3405827D02*
X1339173Y3505000D01*
X2414206Y3080000D02*
X2515000D01*
X2375000Y3119206D02*
X2414206Y3080000D01*
X2515000Y3380000D02*
X2575794D01*
X2615000Y3419206D01*
X1237740Y2408087D02*
X1240000Y2405827D01*
X1100000Y2500000D02*
X1191913Y2408087D01*
X1100000Y2500000D02*
Y3455000D01*
X1191913Y2408087D02*
X1237740D01*
X1090000Y1815000D02*
Y1995000D01*
X1185000Y1720000D02*
X2320000D01*
X1090000Y1815000D02*
X1185000Y1720000D01*
X1090000Y1995000D02*
X1198567Y2103567D01*
X1237740D02*
X1240000Y2105827D01*
X1198567Y2103567D02*
X1237740D01*
X2320000Y1720000D02*
X2760742Y2160742D01*
Y3199258D01*
X2680000Y3280000D02*
X2760742Y3199258D01*
X2515000Y3280000D02*
X2680000D01*
X2670000Y2631890D02*
Y3130000D01*
X2516850Y2478740D02*
X2670000Y2631890D01*
X2620000Y3180000D02*
X2670000Y3130000D01*
X2515000Y3180000D02*
X2620000D01*
D11*
X1703740Y1321260D02*
X2721575D01*
X2835000Y1510000D02*
X2918425Y1426575D01*
Y1321260D02*
Y1426575D01*
X1700000Y1510000D02*
X2835000D01*
D12*
X1256535Y3719213D02*
D03*
X2221496D02*
D03*
Y1870787D02*
D03*
X1256535D02*
D03*
D13*
X2240000Y2005827D02*
D03*
Y2105827D02*
D03*
Y2205827D02*
D03*
Y2305827D02*
D03*
Y2405827D02*
D03*
Y2505827D02*
D03*
Y2605827D02*
D03*
Y2705827D02*
D03*
Y2805827D02*
D03*
Y2905827D02*
D03*
Y3005827D02*
D03*
Y3105827D02*
D03*
Y3205827D02*
D03*
Y3305827D02*
D03*
Y3405827D02*
D03*
X1240000Y2005827D02*
D03*
Y2105827D02*
D03*
Y2205827D02*
D03*
Y2305827D02*
D03*
Y2405827D02*
D03*
Y2505827D02*
D03*
Y2605827D02*
D03*
Y2705827D02*
D03*
Y2805827D02*
D03*
Y2905827D02*
D03*
Y3005827D02*
D03*
Y3105827D02*
D03*
Y3205827D02*
D03*
Y3305827D02*
D03*
D14*
Y3405827D02*
D03*
D15*
X3110000Y3480000D02*
D03*
X3115000Y3080000D02*
D03*
D16*
X2515000D02*
D03*
D17*
Y3180000D02*
D03*
Y3280000D02*
D03*
Y3380000D02*
D03*
Y3480000D02*
D03*
D18*
X2721575Y1321260D02*
D03*
D19*
X2918425D02*
D03*
X2516850Y2478740D02*
D03*
X3123150D02*
D03*
D20*
X1700000Y1325000D02*
D03*
D21*
Y1525000D02*
D03*
%TF.MD5,a8fccb630d97a020fb451933d96c435d*%
M02*
