%TF.GenerationSoftware,Altium Limited,Altium Designer,22.1.2 (22)*%
G04 Layer_Color=16711935*
%FSLAX26Y26*%
%MOIN*%
%TF.SameCoordinates,3D441875-7E2E-40EE-9B33-20ED1D9A15A1*%
%TF.FilePolarity,Positive*%
%TF.FileFunction,Other,Mechanical_13*%
%TF.Part,Single*%
G01*
G75*
%TA.AperFunction,NonConductor*%
%ADD34C,0.007874*%
%ADD35C,0.005000*%
D34*
X1159291Y3405827D02*
G03*
X1159291Y3405827I-3937J0D01*
G01*
X2717638Y1173614D02*
G03*
X2717638Y1173614I-3937J0D01*
G01*
X1753937Y1325000D02*
G03*
X1753937Y1325000I-3937J0D01*
G01*
D35*
X1613583Y3644803D02*
Y3797953D01*
Y3644803D02*
X1877795D01*
Y3797953D01*
X1389213Y2047559D02*
X2085669D01*
Y1792047D02*
Y2047559D01*
Y2544803D01*
X1389213D02*
X2085669D01*
X1389213Y2047559D02*
Y2544803D01*
Y1792047D02*
Y2047559D01*
X2085669Y1792047D02*
X2300236D01*
X1389213D02*
X2085669D01*
X1177795D02*
X1389213D01*
X2300236D02*
Y3797953D01*
X1177795Y1792047D02*
Y3797953D01*
X1877795D02*
X2300236D01*
X1613583D02*
X1877795D01*
X1177795D02*
X1613583D01*
X3213701Y1230709D02*
Y2569291D01*
X2426299D02*
X3213701D01*
X2426299Y1230709D02*
Y2569291D01*
Y1230709D02*
X3213701D01*
X1538583Y1225000D02*
Y1625000D01*
X1861417D01*
Y1225000D02*
Y1625000D01*
X1538583Y1225000D02*
X1861417D01*
%TF.MD5,511ffac390073f13093827762873157e*%
M02*
