%TF.GenerationSoftware,Altium Limited,Altium Designer,22.1.2 (22)*%
G04 Layer_Color=128*
%FSLAX26Y26*%
%MOIN*%
%TF.SameCoordinates,3D441875-7E2E-40EE-9B33-20ED1D9A15A1*%
%TF.FilePolarity,Positive*%
%TF.FileFunction,Drillmap*%
%TF.Part,Single*%
G01*
G75*
%TA.AperFunction,NonConductor*%
%ADD35C,0.005000*%
D35*
X1197480Y3719213D02*
X1315591D01*
X1256535Y3660157D02*
Y3778268D01*
X2162441Y3719213D02*
X2280551D01*
X2221496Y3660157D02*
Y3778268D01*
X2162441Y1870787D02*
X2280551D01*
X2221496Y1811732D02*
Y1929842D01*
X1197480Y1870787D02*
X1315591D01*
X1256535Y1811732D02*
Y1929842D01*
X2219921Y2005827D02*
X2260079D01*
X2240000Y1985748D02*
Y2025906D01*
X2219921Y2105827D02*
X2260079D01*
X2240000Y2085748D02*
Y2125905D01*
X2219921Y2205827D02*
X2260079D01*
X2240000Y2185748D02*
Y2225905D01*
X2219921Y2305827D02*
X2260079D01*
X2240000Y2285748D02*
Y2325905D01*
X2219921Y2405827D02*
X2260079D01*
X2240000Y2385748D02*
Y2425905D01*
X2219921Y2505827D02*
X2260079D01*
X2240000Y2485748D02*
Y2525905D01*
X2219921Y2605827D02*
X2260079D01*
X2240000Y2585748D02*
Y2625905D01*
X2219921Y2705827D02*
X2260079D01*
X2240000Y2685748D02*
Y2725905D01*
X2219921Y2805827D02*
X2260079D01*
X2240000Y2785748D02*
Y2825905D01*
X2219921Y2905827D02*
X2260079D01*
X2240000Y2885748D02*
Y2925905D01*
X2219921Y3005827D02*
X2260079D01*
X2240000Y2985748D02*
Y3025905D01*
X2219921Y3105827D02*
X2260079D01*
X2240000Y3085748D02*
Y3125905D01*
X2219921Y3205827D02*
X2260079D01*
X2240000Y3185748D02*
Y3225905D01*
X2219921Y3305827D02*
X2260079D01*
X2240000Y3285748D02*
Y3325905D01*
X2219921Y3405827D02*
X2260079D01*
X2240000Y3385748D02*
Y3425905D01*
X1219921Y2005827D02*
X1260079D01*
X1240000Y1985748D02*
Y2025906D01*
X1219921Y2105827D02*
X1260079D01*
X1240000Y2085748D02*
Y2125905D01*
X1219921Y2205827D02*
X1260079D01*
X1240000Y2185748D02*
Y2225905D01*
X1219921Y2305827D02*
X1260079D01*
X1240000Y2285748D02*
Y2325905D01*
X1219921Y2405827D02*
X1260079D01*
X1240000Y2385748D02*
Y2425905D01*
X1219921Y2505827D02*
X1260079D01*
X1240000Y2485748D02*
Y2525905D01*
X1219921Y2605827D02*
X1260079D01*
X1240000Y2585748D02*
Y2625905D01*
X1219921Y2705827D02*
X1260079D01*
X1240000Y2685748D02*
Y2725905D01*
X1219921Y2805827D02*
X1260079D01*
X1240000Y2785748D02*
Y2825905D01*
X1219921Y2905827D02*
X1260079D01*
X1240000Y2885748D02*
Y2925905D01*
X1219921Y3005827D02*
X1260079D01*
X1240000Y2985748D02*
Y3025905D01*
X1219921Y3105827D02*
X1260079D01*
X1240000Y3085748D02*
Y3125905D01*
X1219921Y3205827D02*
X1260079D01*
X1240000Y3185748D02*
Y3225905D01*
X1219921Y3305827D02*
X1260079D01*
X1240000Y3285748D02*
Y3325905D01*
X1219921Y3405827D02*
X1260079D01*
X1240000Y3385748D02*
Y3425905D01*
X3070000Y3480000D02*
X3150000D01*
X3110000Y3440000D02*
Y3520000D01*
X3075000Y3080000D02*
X3155000D01*
X3115000Y3040000D02*
Y3120000D01*
X2497500Y3080000D02*
X2532500D01*
X2515000Y3062500D02*
Y3097500D01*
X2497500Y3180000D02*
X2532500D01*
X2515000Y3162500D02*
Y3197500D01*
X2497500Y3280000D02*
X2532500D01*
X2515000Y3262500D02*
Y3297500D01*
X2497500Y3380000D02*
X2532500D01*
X2515000Y3362500D02*
Y3397500D01*
X2497500Y3480000D02*
X2532500D01*
X2515000Y3462500D02*
Y3497500D01*
X2701890Y1321260D02*
X2741260D01*
X2721575Y1301575D02*
Y1340945D01*
X2898740Y1321260D02*
X2938110D01*
X2918425Y1301575D02*
Y1340945D01*
X2497165Y2478740D02*
X2536535D01*
X2516850Y2459055D02*
Y2498425D01*
X3103465Y2478740D02*
X3142835D01*
X3123150Y2459055D02*
Y2498425D01*
X1678347Y1325000D02*
X1721653D01*
X1700000Y1303347D02*
Y1346653D01*
X1678347Y1525000D02*
X1721653D01*
X1700000Y1503347D02*
Y1546653D01*
%TF.MD5,3596b2b96ba1cac7727e08d75cb7967d*%
M02*
