%TF.GenerationSoftware,Altium Limited,Altium Designer,22.1.2 (22)*%
G04 Layer_Color=32768*
%FSLAX26Y26*%
%MOIN*%
%TF.SameCoordinates,3D441875-7E2E-40EE-9B33-20ED1D9A15A1*%
%TF.FilePolarity,Positive*%
%TF.FileFunction,Other,Document*%
%TF.Part,Single*%
G01*
G75*
%TA.AperFunction,NonConductor*%
%ADD36C,0.010000*%
%ADD37C,0.001968*%
%ADD38C,0.000100*%
D36*
X1001529Y1336992D02*
G03*
X1215717Y1111530I219825J-5637D01*
G01*
X3151248Y1110415D02*
G03*
X3339559Y1298727I0J188311D01*
G01*
X3338754Y3670877D02*
G03*
X3136566Y3868809I-202188J-4302D01*
G01*
X1240000Y3869538D02*
G03*
X1000415Y3629954I0J-239585D01*
G01*
X1240000Y3869538D02*
X3136566Y3868809D01*
X3338754Y3670877D02*
X3339559Y1298727D01*
X1000415Y3629954D02*
X1001529Y1336992D01*
X1215717Y1111530D02*
X3151248Y1110415D01*
D37*
X1167953Y3807795D02*
X2310079D01*
Y1782205D02*
Y3807795D01*
X1167953Y1782205D02*
X2310079D01*
X1167953D02*
Y3807795D01*
X3223543Y1220866D02*
Y2579134D01*
X2416457D02*
X3223543D01*
X2416457Y1220866D02*
Y2579134D01*
Y1220866D02*
X3223543D01*
X1528740Y1215158D02*
Y1634842D01*
X1871260D01*
Y1215158D02*
Y1634842D01*
X1528740Y1215158D02*
X1871260D01*
D38*
X2204951Y2533079D02*
X2204971Y2533099D01*
%TF.MD5,fd136006d90ed3e1c3e20476a17e34c5*%
M02*
