%TF.GenerationSoftware,Altium Limited,Altium Designer,22.1.2 (22)*%
G04 Layer_Color=255*
%FSLAX26Y26*%
%MOIN*%
%TF.SameCoordinates,3D441875-7E2E-40EE-9B33-20ED1D9A15A1*%
%TF.FilePolarity,Positive*%
%TF.FileFunction,Pads,Top*%
%TF.Part,Single*%
G01*
G75*
%TA.AperFunction,ComponentPad*%
%ADD12C,0.118110*%
%ADD13C,0.078740*%
%ADD14R,0.078740X0.078740*%
%ADD15C,0.080000*%
%ADD16R,0.062000X0.062000*%
%ADD17C,0.062000*%
%ADD18R,0.059370X0.059370*%
%ADD19C,0.059370*%
%ADD20R,0.064961X0.064961*%
%ADD21C,0.064961*%
D12*
X1256535Y3719213D02*
D03*
X2221496D02*
D03*
Y1870787D02*
D03*
X1256535D02*
D03*
D13*
X2240000Y2005827D02*
D03*
Y2105827D02*
D03*
Y2205827D02*
D03*
Y2305827D02*
D03*
Y2405827D02*
D03*
Y2505827D02*
D03*
Y2605827D02*
D03*
Y2705827D02*
D03*
Y2805827D02*
D03*
Y2905827D02*
D03*
Y3005827D02*
D03*
Y3105827D02*
D03*
Y3205827D02*
D03*
Y3305827D02*
D03*
Y3405827D02*
D03*
X1240000Y2005827D02*
D03*
Y2105827D02*
D03*
Y2205827D02*
D03*
Y2305827D02*
D03*
Y2405827D02*
D03*
Y2505827D02*
D03*
Y2605827D02*
D03*
Y2705827D02*
D03*
Y2805827D02*
D03*
Y2905827D02*
D03*
Y3005827D02*
D03*
Y3105827D02*
D03*
Y3205827D02*
D03*
Y3305827D02*
D03*
D14*
Y3405827D02*
D03*
D15*
X3110000Y3480000D02*
D03*
X3115000Y3080000D02*
D03*
D16*
X2515000D02*
D03*
D17*
Y3180000D02*
D03*
Y3280000D02*
D03*
Y3380000D02*
D03*
Y3480000D02*
D03*
D18*
X2721575Y1321260D02*
D03*
D19*
X2918425D02*
D03*
X2516850Y2478740D02*
D03*
X3123150D02*
D03*
D20*
X1700000Y1325000D02*
D03*
D21*
Y1525000D02*
D03*
%TF.MD5,ebf96db1228f71ecfb7c83c1ff9e1f88*%
M02*
