G04 #@! TF.GenerationSoftware,KiCad,Pcbnew,(5.1.10)-1*
G04 #@! TF.CreationDate,2022-11-16T20:30:32+05:30*
G04 #@! TF.ProjectId,2023 control pcb,32303233-2063-46f6-9e74-726f6c207063,rev?*
G04 #@! TF.SameCoordinates,Original*
G04 #@! TF.FileFunction,Legend,Bot*
G04 #@! TF.FilePolarity,Positive*
%FSLAX46Y46*%
G04 Gerber Fmt 4.6, Leading zero omitted, Abs format (unit mm)*
G04 Created by KiCad (PCBNEW (5.1.10)-1) date 2022-11-16 20:30:32*
%MOMM*%
%LPD*%
G01*
G04 APERTURE LIST*
%ADD10C,0.010000*%
%ADD11C,0.200000*%
%ADD12C,0.127000*%
%ADD13C,0.150000*%
G04 APERTURE END LIST*
D10*
G04 #@! TO.C,G5*
G36*
X210448634Y-147413372D02*
G01*
X210059732Y-147661110D01*
X209831864Y-148048958D01*
X209805186Y-148205453D01*
X209719568Y-148373284D01*
X209468674Y-148620006D01*
X209031864Y-148961998D01*
X208388496Y-149415640D01*
X207689644Y-149884197D01*
X206924053Y-150387593D01*
X206356817Y-150746559D01*
X205950880Y-150972334D01*
X205669190Y-151076155D01*
X205474692Y-151069259D01*
X205330332Y-150962885D01*
X205199055Y-150768270D01*
X205136426Y-150658528D01*
X204871646Y-150394454D01*
X204514908Y-150264141D01*
X204175112Y-150290930D01*
X204005349Y-150416074D01*
X203821968Y-150562628D01*
X203507772Y-150620041D01*
X203076809Y-150610875D01*
X202369292Y-150569034D01*
X201896194Y-150548003D01*
X201610385Y-150549090D01*
X201464735Y-150573600D01*
X201412115Y-150622843D01*
X201405959Y-150657222D01*
X201528697Y-150748883D01*
X201856973Y-150845946D01*
X202249097Y-150916487D01*
X202786252Y-151019546D01*
X203058267Y-151145564D01*
X203101111Y-151233987D01*
X203119341Y-151542902D01*
X203207374Y-151738973D01*
X203277378Y-151828471D01*
X203343473Y-152043332D01*
X203230101Y-152201770D01*
X203056167Y-152299315D01*
X202770866Y-152325037D01*
X202305058Y-152281823D01*
X202078939Y-152249808D01*
X201426285Y-152179524D01*
X200976746Y-152189073D01*
X200755176Y-152275627D01*
X200759697Y-152399945D01*
X200930903Y-152479762D01*
X201294501Y-152558752D01*
X201637363Y-152604689D01*
X202088171Y-152668705D01*
X202414751Y-152747569D01*
X202523444Y-152803689D01*
X202699614Y-152908792D01*
X203048848Y-153040902D01*
X203242222Y-153099976D01*
X203677412Y-153225713D01*
X204024934Y-153330096D01*
X204111121Y-153357525D01*
X204379769Y-153320257D01*
X204645434Y-153134566D01*
X204893865Y-152944965D01*
X205069640Y-152910657D01*
X205069761Y-152910732D01*
X205200416Y-152855136D01*
X205311559Y-152646811D01*
X205464914Y-152462994D01*
X205815172Y-152163062D01*
X206317829Y-151777093D01*
X206928382Y-151335161D01*
X207602326Y-150867345D01*
X208295157Y-150403721D01*
X208962371Y-149974365D01*
X209559464Y-149609353D01*
X210041931Y-149338763D01*
X210365270Y-149192670D01*
X210447952Y-149175555D01*
X210740608Y-149229952D01*
X211169432Y-149369038D01*
X211442485Y-149478037D01*
X211895220Y-149650691D01*
X212196367Y-149695699D01*
X212439152Y-149625832D01*
X212456422Y-149616941D01*
X212707324Y-149537678D01*
X213019582Y-149571683D01*
X213472778Y-149722928D01*
X214178333Y-149992492D01*
X214363133Y-151100968D01*
X214485507Y-151828198D01*
X214622081Y-152629674D01*
X214732175Y-153267778D01*
X214811432Y-153850017D01*
X214836495Y-154333601D01*
X214802810Y-154630455D01*
X214802645Y-154630898D01*
X214621184Y-154853384D01*
X214255400Y-155135069D01*
X213801658Y-155407009D01*
X213221941Y-155780378D01*
X212536859Y-156325340D01*
X211808364Y-156986212D01*
X211098410Y-157707312D01*
X210560975Y-158319723D01*
X210340693Y-158603718D01*
X210295892Y-158734974D01*
X210413210Y-158770483D01*
X210455141Y-158771111D01*
X210675467Y-158833420D01*
X210721111Y-158912222D01*
X210600351Y-159018299D01*
X210368333Y-159053333D01*
X210091698Y-158987188D01*
X210015556Y-158771111D01*
X209917385Y-158536783D01*
X209723824Y-158488889D01*
X209512911Y-158545192D01*
X209518049Y-158759518D01*
X209521667Y-158771111D01*
X209531534Y-158999983D01*
X209390065Y-159053333D01*
X209130694Y-159059442D01*
X209066583Y-159063916D01*
X208927830Y-159001801D01*
X208953599Y-158849678D01*
X209122306Y-158729702D01*
X209125802Y-158728775D01*
X209248536Y-158677658D01*
X209101361Y-158649984D01*
X209037052Y-158646369D01*
X208450377Y-158746196D01*
X207828658Y-159066444D01*
X207224982Y-159559422D01*
X206692435Y-160177441D01*
X206284103Y-160872812D01*
X206137989Y-161250712D01*
X205965684Y-162143595D01*
X206040650Y-162998871D01*
X206370151Y-163881014D01*
X206451955Y-164038202D01*
X207043297Y-164862012D01*
X207798447Y-165460229D01*
X208700791Y-165824272D01*
X209733711Y-165945565D01*
X210115772Y-165929660D01*
X211101352Y-165720329D01*
X211322254Y-165605185D01*
X210580000Y-165605185D01*
X210458280Y-165784960D01*
X210215463Y-165826666D01*
X209948955Y-165771056D01*
X209909016Y-165650278D01*
X209933008Y-165624814D01*
X209451111Y-165624814D01*
X209346689Y-165773858D01*
X209115804Y-165800317D01*
X208882027Y-165712497D01*
X208780127Y-165579722D01*
X208849668Y-165441905D01*
X209086574Y-165403333D01*
X209382466Y-165477286D01*
X209451111Y-165624814D01*
X209933008Y-165624814D01*
X210065997Y-165483667D01*
X210311019Y-165425225D01*
X210520510Y-165483256D01*
X210580000Y-165605185D01*
X211322254Y-165605185D01*
X211954806Y-165275472D01*
X212106457Y-165132661D01*
X211836345Y-165132661D01*
X211777386Y-165241855D01*
X211646641Y-165342856D01*
X211336689Y-165522905D01*
X211145564Y-165494613D01*
X211083771Y-165419322D01*
X211099313Y-165237825D01*
X211125818Y-165216354D01*
X208225851Y-165216354D01*
X208211166Y-165392248D01*
X208034973Y-165448467D01*
X207884783Y-165395784D01*
X207669271Y-165234619D01*
X207616667Y-165139665D01*
X207708488Y-164944843D01*
X207948062Y-164963543D01*
X208041134Y-165013456D01*
X208225851Y-165216354D01*
X211125818Y-165216354D01*
X211290138Y-165083248D01*
X211552071Y-165021929D01*
X211671814Y-165044847D01*
X211836345Y-165132661D01*
X212106457Y-165132661D01*
X212649407Y-164621363D01*
X212765933Y-164429733D01*
X212576461Y-164429733D01*
X212462950Y-164632865D01*
X212416220Y-164695424D01*
X212224962Y-164898812D01*
X212117397Y-164865798D01*
X212099516Y-164824676D01*
X212099941Y-164540273D01*
X212156255Y-164380278D01*
X212206726Y-164175560D01*
X212099105Y-164147808D01*
X211896421Y-164298613D01*
X211832001Y-164372087D01*
X211711447Y-164538044D01*
X211784059Y-164526797D01*
X211850000Y-164490575D01*
X211977577Y-164442175D01*
X211944074Y-164498765D01*
X211766392Y-164624668D01*
X211732408Y-164632222D01*
X211551951Y-164697995D01*
X211285556Y-164833115D01*
X210564082Y-165102044D01*
X209749795Y-165197044D01*
X208946720Y-165117235D01*
X208258880Y-164861736D01*
X208253734Y-164858756D01*
X207849391Y-164529781D01*
X207302814Y-164529781D01*
X207272510Y-164655639D01*
X207185755Y-164796803D01*
X207062739Y-164715280D01*
X206982272Y-164613604D01*
X206821680Y-164363658D01*
X206774488Y-164239166D01*
X206871306Y-164142380D01*
X207080194Y-164155956D01*
X207258959Y-164267785D01*
X207268065Y-164281202D01*
X207302814Y-164529781D01*
X207849391Y-164529781D01*
X207723376Y-164427255D01*
X207258146Y-163830330D01*
X207133731Y-163580430D01*
X206770000Y-163580430D01*
X206655535Y-163695436D01*
X206558333Y-163710000D01*
X206370458Y-163639931D01*
X206346667Y-163580430D01*
X206300121Y-163343947D01*
X206261014Y-163227652D01*
X206273350Y-163037569D01*
X206387028Y-163004444D01*
X206612276Y-163127405D01*
X206753212Y-163424237D01*
X206770000Y-163580430D01*
X207133731Y-163580430D01*
X206932147Y-163175533D01*
X206833997Y-162798229D01*
X206809788Y-162352032D01*
X206818931Y-162228333D01*
X206487778Y-162228333D01*
X206414177Y-162512064D01*
X206276111Y-162581111D01*
X206105873Y-162458443D01*
X206064445Y-162228333D01*
X206138046Y-161944602D01*
X206276111Y-161875555D01*
X206446350Y-161998224D01*
X206487778Y-162228333D01*
X206818931Y-162228333D01*
X206846400Y-161856723D01*
X206928937Y-161385196D01*
X207042504Y-161010347D01*
X207083974Y-160944712D01*
X206743216Y-160944712D01*
X206683802Y-161194473D01*
X206536128Y-161358015D01*
X206418429Y-161362603D01*
X206296799Y-161248671D01*
X206349703Y-161010646D01*
X206379491Y-160942643D01*
X206539192Y-160719414D01*
X206667301Y-160728634D01*
X206743216Y-160944712D01*
X207083974Y-160944712D01*
X207172203Y-160805072D01*
X207244256Y-160790587D01*
X207357632Y-160956157D01*
X207359995Y-161114632D01*
X207248073Y-161902865D01*
X207223997Y-162493842D01*
X207294582Y-162960645D01*
X207466644Y-163376356D01*
X207590244Y-163583831D01*
X208144699Y-164218464D01*
X208816601Y-164628174D01*
X209555319Y-164806719D01*
X210310221Y-164747856D01*
X211030676Y-164445342D01*
X211506167Y-164066661D01*
X211870591Y-163702238D01*
X212266623Y-164035477D01*
X212519217Y-164266772D01*
X212576461Y-164429733D01*
X212765933Y-164429733D01*
X213158423Y-163784279D01*
X213337756Y-163183616D01*
X213229822Y-163183616D01*
X213228412Y-163340599D01*
X213115035Y-163578165D01*
X212904288Y-163826507D01*
X212688723Y-163792750D01*
X212654595Y-163762002D01*
X212633426Y-163575796D01*
X212761035Y-163338481D01*
X212960595Y-163168512D01*
X213054409Y-163145555D01*
X213229822Y-163183616D01*
X213337756Y-163183616D01*
X213455125Y-162790498D01*
X213480702Y-162621784D01*
X213469789Y-162128152D01*
X213305431Y-162128152D01*
X213295648Y-162369444D01*
X213202418Y-162634406D01*
X213103550Y-162722222D01*
X213009810Y-162601366D01*
X212978889Y-162369444D01*
X213034459Y-162141406D01*
X212685931Y-162141406D01*
X212651656Y-162633179D01*
X212545211Y-163108987D01*
X212393081Y-163489232D01*
X212221754Y-163694316D01*
X212163984Y-163710000D01*
X212039514Y-163645618D01*
X211643154Y-163645618D01*
X211525106Y-163819837D01*
X211474757Y-163875935D01*
X211029149Y-164241422D01*
X210471172Y-164530266D01*
X209929319Y-164679986D01*
X209803889Y-164688442D01*
X209402801Y-164630721D01*
X208930453Y-164483320D01*
X208810273Y-164432536D01*
X208112719Y-163977227D01*
X207636830Y-163365583D01*
X207400614Y-162635616D01*
X207422081Y-161825334D01*
X207471760Y-161607430D01*
X207584082Y-161250127D01*
X207695541Y-161115835D01*
X207861033Y-161150907D01*
X207912126Y-161177084D01*
X208088947Y-161319986D01*
X208143395Y-161549353D01*
X208106810Y-161921900D01*
X208079215Y-162369292D01*
X208186435Y-162706504D01*
X208342670Y-162936076D01*
X208531221Y-163191835D01*
X208545830Y-163258556D01*
X208392335Y-163164755D01*
X208389008Y-163162429D01*
X208313688Y-163130999D01*
X208423525Y-163262290D01*
X208575992Y-163413483D01*
X208880047Y-163662761D01*
X209113994Y-163780634D01*
X209175715Y-163776337D01*
X209300769Y-163794177D01*
X209310000Y-163842783D01*
X209422695Y-163962795D01*
X209683340Y-163992505D01*
X209975775Y-163941088D01*
X210183841Y-163817717D01*
X210211128Y-163771611D01*
X210353708Y-163627564D01*
X210444074Y-163642648D01*
X210650497Y-163645852D01*
X210852206Y-163506522D01*
X210934849Y-163317678D01*
X210915693Y-163259022D01*
X210966389Y-163225826D01*
X211197446Y-163313397D01*
X211282689Y-163355739D01*
X211573090Y-163520012D01*
X211643154Y-163645618D01*
X212039514Y-163645618D01*
X212028958Y-163640158D01*
X212071559Y-163394080D01*
X212072125Y-163392500D01*
X212135108Y-163081566D01*
X212179941Y-162606444D01*
X212193898Y-162220272D01*
X212054719Y-162220272D01*
X212026114Y-162874633D01*
X211921104Y-163266700D01*
X211733941Y-163407412D01*
X211477210Y-163319783D01*
X211386484Y-163122698D01*
X211338900Y-162722174D01*
X211336220Y-162427829D01*
X210507828Y-162427829D01*
X210382009Y-162840598D01*
X210370783Y-162859370D01*
X210217250Y-163005702D01*
X210110635Y-162879322D01*
X210067674Y-162581111D01*
X209874445Y-162581111D01*
X209815351Y-162810412D01*
X209733333Y-162863333D01*
X209618683Y-162745146D01*
X209592222Y-162581111D01*
X209651316Y-162351810D01*
X209733333Y-162298889D01*
X209847984Y-162417076D01*
X209874445Y-162581111D01*
X210067674Y-162581111D01*
X210054016Y-162486313D01*
X210045600Y-162216855D01*
X210046519Y-161958693D01*
X209861690Y-161958693D01*
X209708066Y-162132776D01*
X209582713Y-162157778D01*
X209412457Y-162186778D01*
X209359163Y-162311898D01*
X209421432Y-162590319D01*
X209562428Y-162985582D01*
X209571594Y-163105131D01*
X209411147Y-163057183D01*
X209331397Y-163015895D01*
X209093479Y-162854216D01*
X209016019Y-162752535D01*
X208992960Y-162545874D01*
X208967427Y-162312202D01*
X209027859Y-161972211D01*
X209230518Y-161682750D01*
X209497922Y-161530144D01*
X209659577Y-161541075D01*
X209850603Y-161720732D01*
X209861690Y-161958693D01*
X210046519Y-161958693D01*
X210047171Y-161775698D01*
X210076801Y-161569479D01*
X210156386Y-161550980D01*
X210300763Y-161666590D01*
X210478119Y-161991743D01*
X210507828Y-162427829D01*
X211336220Y-162427829D01*
X211336098Y-162414494D01*
X211329566Y-161924668D01*
X211254797Y-161600174D01*
X211111412Y-161381666D01*
X209874445Y-161381666D01*
X209803889Y-161452222D01*
X209733333Y-161381666D01*
X209803889Y-161311111D01*
X209874445Y-161381666D01*
X211111412Y-161381666D01*
X211074788Y-161325855D01*
X210938176Y-161176140D01*
X210640391Y-160922663D01*
X210391869Y-160807760D01*
X210331125Y-160811974D01*
X210210593Y-160804891D01*
X210228221Y-160745050D01*
X210163892Y-160653795D01*
X209870490Y-160608120D01*
X209752488Y-160605555D01*
X209162973Y-160713421D01*
X208764124Y-160964363D01*
X208460401Y-161188051D01*
X208246687Y-161232415D01*
X208057636Y-161148265D01*
X207874248Y-160921857D01*
X207958419Y-160652509D01*
X208301545Y-160355444D01*
X208603541Y-160182683D01*
X209363078Y-159932921D01*
X210108297Y-159932256D01*
X210793322Y-160153600D01*
X211372277Y-160569868D01*
X211799285Y-161153976D01*
X212028472Y-161878838D01*
X212054719Y-162220272D01*
X212193898Y-162220272D01*
X212194417Y-162205917D01*
X212181065Y-161684225D01*
X212104572Y-161324258D01*
X211928820Y-161006817D01*
X211766842Y-160794806D01*
X211125249Y-160191144D01*
X210385855Y-159848084D01*
X209777798Y-159765666D01*
X208999595Y-159852389D01*
X208347672Y-160155966D01*
X207956474Y-160479159D01*
X207666707Y-160731927D01*
X207488544Y-160795541D01*
X207354683Y-160700497D01*
X207291312Y-160535732D01*
X207413951Y-160347337D01*
X207649876Y-160150907D01*
X208211673Y-159810551D01*
X207427455Y-159810551D01*
X207390361Y-160098932D01*
X207209743Y-160291038D01*
X206971092Y-160301745D01*
X206852211Y-160201081D01*
X206886317Y-160026723D01*
X207041541Y-159839111D01*
X207292306Y-159708305D01*
X207427455Y-159810551D01*
X208211673Y-159810551D01*
X208538926Y-159612290D01*
X209422476Y-159348106D01*
X210289614Y-159360428D01*
X210885168Y-159536424D01*
X211586083Y-159970295D01*
X212152521Y-160596387D01*
X212535474Y-161343808D01*
X212685931Y-162141406D01*
X213034459Y-162141406D01*
X213045376Y-162096611D01*
X213170988Y-162016666D01*
X213305431Y-162128152D01*
X213469789Y-162128152D01*
X213461601Y-161757813D01*
X213336905Y-161338081D01*
X213261111Y-161338081D01*
X213169400Y-161450365D01*
X212976445Y-161420003D01*
X212805516Y-161275355D01*
X212781862Y-161227821D01*
X212743459Y-160947934D01*
X212845845Y-160822703D01*
X213026193Y-160909474D01*
X213070984Y-160963927D01*
X213222251Y-161215994D01*
X213261111Y-161338081D01*
X213336905Y-161338081D01*
X213202278Y-160884921D01*
X212891036Y-160351898D01*
X212690641Y-160351898D01*
X212587035Y-160463753D01*
X212572834Y-160464444D01*
X212387993Y-160368027D01*
X212278464Y-160258959D01*
X212172527Y-160017733D01*
X212237918Y-159855921D01*
X212420912Y-159858987D01*
X212497563Y-159910426D01*
X212655587Y-160128960D01*
X212690641Y-160351898D01*
X212891036Y-160351898D01*
X212731686Y-160079002D01*
X212344982Y-159644785D01*
X212193653Y-159493945D01*
X211850000Y-159493945D01*
X211751509Y-159608896D01*
X211533028Y-159583977D01*
X211310044Y-159434879D01*
X211295982Y-159418674D01*
X211207473Y-159215216D01*
X211284885Y-159124303D01*
X211500893Y-159127678D01*
X211734723Y-159277961D01*
X211849799Y-159485815D01*
X211850000Y-159493945D01*
X212193653Y-159493945D01*
X212029269Y-159330093D01*
X211870370Y-159100640D01*
X208353974Y-159100640D01*
X208351198Y-159299158D01*
X208182803Y-159470039D01*
X207960070Y-159531082D01*
X207843502Y-159477724D01*
X207819431Y-159294063D01*
X207976135Y-159136446D01*
X208218818Y-159016598D01*
X208353974Y-159100640D01*
X211870370Y-159100640D01*
X211857861Y-159082578D01*
X211843420Y-158848859D01*
X211998608Y-158575554D01*
X212336087Y-158209279D01*
X212789159Y-157772191D01*
X213376402Y-157230067D01*
X213822759Y-156867759D01*
X214177314Y-156656368D01*
X214489147Y-156566997D01*
X214807342Y-156570748D01*
X214825835Y-156573060D01*
X215179728Y-156617923D01*
X215398852Y-156643947D01*
X215408627Y-156644921D01*
X215457915Y-156757890D01*
X215434285Y-156851837D01*
X215437095Y-157072004D01*
X215485871Y-157127927D01*
X215723496Y-157201775D01*
X216105831Y-157256263D01*
X216532696Y-157285316D01*
X216903907Y-157282862D01*
X217119282Y-157242824D01*
X217136047Y-157227981D01*
X217320809Y-157168055D01*
X217666558Y-157211502D01*
X218083247Y-157332735D01*
X218480828Y-157506166D01*
X218748292Y-157686104D01*
X219050292Y-158002016D01*
X219383829Y-158404522D01*
X219465046Y-158512098D01*
X219744876Y-158837574D01*
X219951731Y-158933969D01*
X220045643Y-158902315D01*
X220327705Y-158780951D01*
X220449905Y-158883228D01*
X220457778Y-158967680D01*
X220344908Y-159184148D01*
X220089288Y-159270575D01*
X219815403Y-159187671D01*
X219799790Y-159175366D01*
X219556659Y-159130549D01*
X219262236Y-159308743D01*
X218947232Y-159662913D01*
X218642358Y-160146023D01*
X218378325Y-160711038D01*
X218185843Y-161310923D01*
X218105365Y-161770470D01*
X218144313Y-162607473D01*
X218393068Y-163469596D01*
X218812732Y-164248556D01*
X219134358Y-164634950D01*
X219585535Y-165020427D01*
X220084165Y-165345299D01*
X220554259Y-165568591D01*
X220919828Y-165649326D01*
X220997587Y-165639666D01*
X221157519Y-165587109D01*
X221039839Y-165564242D01*
X220991373Y-165560813D01*
X220817747Y-165462226D01*
X220824098Y-165348371D01*
X220988644Y-165218156D01*
X221224447Y-165243125D01*
X221398324Y-165385911D01*
X221417111Y-165514745D01*
X221254882Y-165667775D01*
X220820519Y-165845226D01*
X220109836Y-166048777D01*
X220042045Y-166065955D01*
X218768266Y-166474865D01*
X217598205Y-167023175D01*
X216568874Y-167683963D01*
X215717286Y-168430308D01*
X215080452Y-169235289D01*
X214744939Y-169918889D01*
X214491156Y-171035752D01*
X214488183Y-172187152D01*
X214724618Y-173314325D01*
X215189058Y-174358506D01*
X215758235Y-175140980D01*
X216344518Y-175703072D01*
X217010412Y-176147954D01*
X217825736Y-176514629D01*
X218746803Y-176810516D01*
X219249339Y-176956929D01*
X219634568Y-177078178D01*
X219831868Y-177151820D01*
X219842390Y-177158686D01*
X219843952Y-177218442D01*
X219772856Y-177349565D01*
X219610757Y-177575160D01*
X219339308Y-177918334D01*
X218940163Y-178402190D01*
X218394974Y-179049835D01*
X217685396Y-179884373D01*
X217579662Y-180008333D01*
X216798860Y-180920956D01*
X216175897Y-181640307D01*
X215687105Y-182189230D01*
X215308817Y-182590568D01*
X215017367Y-182867162D01*
X214789086Y-183041856D01*
X214600307Y-183137493D01*
X214427364Y-183176914D01*
X214290064Y-183183333D01*
X213771152Y-183298681D01*
X213423801Y-183630160D01*
X213267862Y-184155926D01*
X213261111Y-184315715D01*
X213290883Y-184703075D01*
X213414636Y-184912096D01*
X213623075Y-185021270D01*
X213871040Y-185110061D01*
X214060145Y-185135226D01*
X214310561Y-185097032D01*
X214625392Y-185023518D01*
X215067305Y-184857935D01*
X215417112Y-184649907D01*
X215613798Y-184467256D01*
X215963967Y-184111225D01*
X216439511Y-183612595D01*
X217012318Y-183002147D01*
X217654279Y-182310664D01*
X218337282Y-181568927D01*
X219033217Y-180807717D01*
X219713974Y-180057817D01*
X220351443Y-179350008D01*
X220917513Y-178715072D01*
X221384074Y-178183791D01*
X221723015Y-177786946D01*
X221906226Y-177555318D01*
X221927506Y-177520837D01*
X222048707Y-177312244D01*
X222147904Y-177260097D01*
X222227971Y-177383244D01*
X222291786Y-177700537D01*
X222342224Y-178230823D01*
X222382160Y-178992954D01*
X222414470Y-180005779D01*
X222433333Y-180836514D01*
X222457825Y-182000539D01*
X222486078Y-182910216D01*
X222529212Y-183593319D01*
X222598350Y-184077627D01*
X222704613Y-184390915D01*
X222859123Y-184560961D01*
X223073001Y-184615541D01*
X223357368Y-184582433D01*
X223723347Y-184489412D01*
X223878622Y-184446217D01*
X224306911Y-184245316D01*
X224494947Y-183933950D01*
X224448228Y-183490686D01*
X224243699Y-183023274D01*
X223915000Y-182407222D01*
X223842570Y-175140000D01*
X223833949Y-174101866D01*
X222346064Y-174101866D01*
X222340078Y-174725398D01*
X222316023Y-175106256D01*
X222296887Y-175198285D01*
X222073819Y-175592416D01*
X221734175Y-175834908D01*
X221228708Y-175945662D01*
X220508171Y-175944577D01*
X220457778Y-175941439D01*
X219792774Y-175861986D01*
X219106870Y-175722755D01*
X218601809Y-175571973D01*
X217896660Y-175242106D01*
X217218282Y-174813369D01*
X216652341Y-174346337D01*
X216319613Y-173958316D01*
X216180257Y-173650383D01*
X216023945Y-173159605D01*
X215880302Y-172581487D01*
X215855080Y-172460711D01*
X215742153Y-171840455D01*
X215699969Y-171394897D01*
X215725964Y-171026198D01*
X215808190Y-170669715D01*
X216112412Y-170024252D01*
X216645087Y-169363730D01*
X217359151Y-168734251D01*
X218207541Y-168181916D01*
X218508325Y-168024748D01*
X219086202Y-167774451D01*
X219747825Y-167540363D01*
X220425432Y-167340397D01*
X221051258Y-167192463D01*
X221557542Y-167114474D01*
X221876519Y-167124342D01*
X221893312Y-167129993D01*
X221956922Y-167207637D01*
X222012727Y-167406313D01*
X222063278Y-167753339D01*
X222111128Y-168276032D01*
X222158829Y-169001711D01*
X222208934Y-169957692D01*
X222258029Y-171033825D01*
X222304798Y-172230220D01*
X222334224Y-173261521D01*
X222346064Y-174101866D01*
X223833949Y-174101866D01*
X223830350Y-173668525D01*
X223823733Y-172297367D01*
X223822540Y-171051972D01*
X223826594Y-169957791D01*
X223835715Y-169040273D01*
X223849726Y-168324866D01*
X223868448Y-167837020D01*
X223891703Y-167602185D01*
X223895481Y-167590555D01*
X224086050Y-167272654D01*
X224303264Y-166998013D01*
X224486663Y-166694198D01*
X224499281Y-166462475D01*
X224295034Y-166242586D01*
X223910699Y-166033357D01*
X223446449Y-165878662D01*
X223037588Y-165822254D01*
X222840835Y-165807103D01*
X222837238Y-165749621D01*
X223050658Y-165622132D01*
X223331283Y-165481644D01*
X223377813Y-165452240D01*
X222710318Y-165452240D01*
X222539167Y-165592100D01*
X222189579Y-165668825D01*
X222021557Y-165553532D01*
X222010000Y-165473889D01*
X222132668Y-165303650D01*
X222362778Y-165262222D01*
X222640035Y-165320564D01*
X222710318Y-165452240D01*
X223377813Y-165452240D01*
X224244601Y-164904494D01*
X224297371Y-164847896D01*
X223779456Y-164847896D01*
X223755300Y-165037751D01*
X223611631Y-165196567D01*
X223311017Y-165377469D01*
X223163431Y-165337384D01*
X223138889Y-165196631D01*
X223233945Y-164985162D01*
X220449493Y-164985162D01*
X220393025Y-165111723D01*
X220273468Y-165242370D01*
X220098738Y-165221660D01*
X219880104Y-165114031D01*
X219690374Y-164934336D01*
X219735017Y-164789601D01*
X219968988Y-164754472D01*
X220081598Y-164780123D01*
X220372542Y-164884907D01*
X220449493Y-164985162D01*
X223233945Y-164985162D01*
X223236904Y-164978581D01*
X223455799Y-164819906D01*
X223682849Y-164781978D01*
X223779456Y-164847896D01*
X224297371Y-164847896D01*
X224912338Y-164188322D01*
X224948370Y-164115324D01*
X224818815Y-164115324D01*
X224779979Y-164217564D01*
X224623567Y-164412228D01*
X224365644Y-164608600D01*
X224201625Y-164555964D01*
X224164121Y-164292298D01*
X224295730Y-164099103D01*
X224613673Y-164067791D01*
X224818815Y-164115324D01*
X224948370Y-164115324D01*
X225334317Y-163333431D01*
X225369659Y-163134014D01*
X225255556Y-163134014D01*
X225184083Y-163451845D01*
X225011916Y-163619843D01*
X224893684Y-163616428D01*
X224891403Y-163614048D01*
X224281373Y-163614048D01*
X224216073Y-163807576D01*
X223930106Y-164143777D01*
X223844862Y-164226352D01*
X223180775Y-164671820D01*
X222384753Y-164923943D01*
X221542686Y-164968826D01*
X220740465Y-164792572D01*
X220629635Y-164746539D01*
X220282685Y-164602450D01*
X220057790Y-164528080D01*
X220028536Y-164525083D01*
X219915232Y-164424598D01*
X219844574Y-164335686D01*
X219429565Y-164335686D01*
X219402132Y-164411206D01*
X219255871Y-164479012D01*
X219029323Y-164329303D01*
X218856968Y-164122537D01*
X218913912Y-163988150D01*
X218937498Y-163972436D01*
X219161805Y-163962667D01*
X219360864Y-164116837D01*
X219429565Y-164335686D01*
X219844574Y-164335686D01*
X219698108Y-164151382D01*
X219472599Y-163834455D01*
X219153322Y-163289153D01*
X219132861Y-163223557D01*
X218828543Y-163223557D01*
X218821576Y-163455237D01*
X218796134Y-163490162D01*
X218607988Y-163566411D01*
X218485575Y-163470728D01*
X218482222Y-163439319D01*
X218435676Y-163202836D01*
X218396570Y-163086541D01*
X218408793Y-162896359D01*
X218521223Y-162863333D01*
X218707120Y-162977678D01*
X218828543Y-163223557D01*
X219132861Y-163223557D01*
X218988612Y-162761113D01*
X218932357Y-162291695D01*
X218931915Y-162031764D01*
X218623333Y-162031764D01*
X218530936Y-162252129D01*
X218411667Y-162298889D01*
X218241281Y-162176462D01*
X218200000Y-161950540D01*
X218248800Y-161700204D01*
X218411667Y-161683415D01*
X218590138Y-161875851D01*
X218623333Y-162031764D01*
X218931915Y-162031764D01*
X218931384Y-161720175D01*
X219001862Y-161215826D01*
X219127002Y-160839728D01*
X219129025Y-160837409D01*
X218852207Y-160837409D01*
X218730272Y-161078496D01*
X218557249Y-161170000D01*
X218437818Y-161053055D01*
X218447685Y-160817222D01*
X218560359Y-160526805D01*
X218717824Y-160479788D01*
X218827130Y-160592821D01*
X218852207Y-160837409D01*
X219129025Y-160837409D01*
X219290009Y-160652962D01*
X219383489Y-160650702D01*
X219492993Y-160815008D01*
X219493804Y-160973521D01*
X219392581Y-161596815D01*
X219346667Y-162033176D01*
X219350705Y-162371295D01*
X219391878Y-162660960D01*
X219588348Y-163151117D01*
X219957559Y-163670894D01*
X220418948Y-164125465D01*
X220883347Y-164416481D01*
X221543670Y-164556615D01*
X222281865Y-164504608D01*
X222986944Y-164278036D01*
X223412766Y-164015896D01*
X223853770Y-163705569D01*
X224151956Y-163575833D01*
X224281373Y-163614048D01*
X224891403Y-163614048D01*
X224770004Y-163487432D01*
X224839771Y-163272561D01*
X225015459Y-163061309D01*
X225183538Y-163007695D01*
X225255556Y-163134014D01*
X225369659Y-163134014D01*
X225510361Y-162340121D01*
X225508094Y-162087222D01*
X225396667Y-162087222D01*
X225330180Y-162360056D01*
X225204568Y-162440000D01*
X225070125Y-162328514D01*
X225079908Y-162087222D01*
X225173138Y-161822261D01*
X225212011Y-161787733D01*
X224805425Y-161787733D01*
X224779066Y-162565213D01*
X224668775Y-163023350D01*
X224508703Y-163431654D01*
X224352947Y-163563468D01*
X224203413Y-163437794D01*
X224201957Y-163417746D01*
X223767689Y-163417746D01*
X223715720Y-163573915D01*
X223478418Y-163802540D01*
X223122990Y-164050084D01*
X222716638Y-164263006D01*
X222695072Y-164272257D01*
X222226518Y-164371267D01*
X221635777Y-164366206D01*
X221045334Y-164269900D01*
X220577672Y-164095175D01*
X220495923Y-164041964D01*
X219936176Y-163505097D01*
X219615462Y-162878710D01*
X219501577Y-162254423D01*
X219497113Y-161632811D01*
X219593282Y-161203253D01*
X219778215Y-160993736D01*
X220023768Y-161023175D01*
X220281073Y-161242125D01*
X220369004Y-161385075D01*
X220388011Y-161538408D01*
X220337955Y-161535934D01*
X220260826Y-161613294D01*
X220207983Y-161893747D01*
X220199345Y-162025826D01*
X220243143Y-162536042D01*
X220396119Y-162927779D01*
X220626439Y-163131459D01*
X220711716Y-163145555D01*
X220829709Y-163223888D01*
X220810392Y-163286931D01*
X220846513Y-163434762D01*
X221088525Y-163564397D01*
X221460137Y-163652864D01*
X221885057Y-163677192D01*
X222059311Y-163662989D01*
X222492871Y-163539613D01*
X222843276Y-163330338D01*
X222877454Y-163296862D01*
X223132434Y-163098349D01*
X223374815Y-163122443D01*
X223420007Y-163144964D01*
X223674376Y-163318507D01*
X223767689Y-163417746D01*
X224201957Y-163417746D01*
X224188507Y-163232654D01*
X224244948Y-162866863D01*
X224289569Y-162681645D01*
X224329099Y-162281299D01*
X224213030Y-162281299D01*
X224132717Y-162699753D01*
X224006564Y-163097760D01*
X223876474Y-163253323D01*
X223686160Y-163201321D01*
X223515790Y-163082077D01*
X223340697Y-162872227D01*
X223404037Y-162613126D01*
X223409957Y-162601953D01*
X223515158Y-162305793D01*
X223541153Y-162111660D01*
X222521761Y-162111660D01*
X222492612Y-162497368D01*
X222414966Y-162671727D01*
X222233315Y-162771823D01*
X221976474Y-162809647D01*
X221754330Y-162784884D01*
X221676766Y-162697224D01*
X221687217Y-162673797D01*
X221733898Y-162464467D01*
X221753776Y-162103284D01*
X221753708Y-162087222D01*
X221727778Y-162087222D01*
X221657222Y-162157778D01*
X221586667Y-162087222D01*
X221657222Y-162016666D01*
X221727778Y-162087222D01*
X221753708Y-162087222D01*
X221753471Y-162032174D01*
X221782260Y-161628883D01*
X221862239Y-161329202D01*
X221875969Y-161304488D01*
X221954674Y-161288430D01*
X222003441Y-161542047D01*
X222021905Y-161946111D01*
X222039832Y-162385357D01*
X222074389Y-162560068D01*
X222129935Y-162487663D01*
X222145496Y-162440000D01*
X222202332Y-162031955D01*
X222183326Y-161663889D01*
X222154541Y-161389411D01*
X222214925Y-161347968D01*
X222306555Y-161421714D01*
X222455618Y-161705563D01*
X222521761Y-162111660D01*
X223541153Y-162111660D01*
X223557822Y-161987178D01*
X223536694Y-161738258D01*
X223450523Y-161651185D01*
X223422728Y-161662890D01*
X223340888Y-161640768D01*
X223361651Y-161544747D01*
X223315616Y-161316910D01*
X223202043Y-161200947D01*
X221695239Y-161200947D01*
X221676542Y-161262006D01*
X221621945Y-161322060D01*
X221511598Y-161573073D01*
X221450119Y-161973640D01*
X221445556Y-162115444D01*
X221416307Y-162484237D01*
X221342658Y-162699473D01*
X221304445Y-162722222D01*
X221175580Y-162651666D01*
X220457778Y-162651666D01*
X220387222Y-162722222D01*
X220316667Y-162651666D01*
X220387222Y-162581111D01*
X220457778Y-162651666D01*
X221175580Y-162651666D01*
X221152433Y-162638993D01*
X221145324Y-162616389D01*
X221080567Y-162032407D01*
X221137439Y-161645861D01*
X221333130Y-161392000D01*
X221497435Y-161289918D01*
X221607180Y-161240555D01*
X220598889Y-161240555D01*
X220528333Y-161311111D01*
X220457778Y-161240555D01*
X220528333Y-161170000D01*
X220598889Y-161240555D01*
X221607180Y-161240555D01*
X221695239Y-161200947D01*
X223202043Y-161200947D01*
X223116970Y-161114085D01*
X222926672Y-160954278D01*
X222922756Y-160887778D01*
X222922795Y-160887778D01*
X222927660Y-160819088D01*
X222925641Y-160817222D01*
X221022222Y-160817222D01*
X220951667Y-160887778D01*
X220881111Y-160817222D01*
X220951667Y-160746666D01*
X221022222Y-160817222D01*
X222925641Y-160817222D01*
X222777804Y-160680599D01*
X222366851Y-160512858D01*
X221827315Y-160469365D01*
X221281915Y-160545930D01*
X220853371Y-160738364D01*
X220842606Y-160746666D01*
X220494583Y-160976808D01*
X220253628Y-161001032D01*
X220048746Y-160834454D01*
X219993390Y-160671554D01*
X220114320Y-160463886D01*
X220389155Y-160199454D01*
X220707491Y-159949228D01*
X221006372Y-159816663D01*
X221398593Y-159765760D01*
X221767966Y-159759416D01*
X222598091Y-159848345D01*
X223240700Y-160126227D01*
X223733087Y-160611396D01*
X223845324Y-160780654D01*
X224165245Y-161523077D01*
X224213030Y-162281299D01*
X224329099Y-162281299D01*
X224369250Y-161874675D01*
X224177637Y-161113674D01*
X223725428Y-160433239D01*
X223536451Y-160246282D01*
X223145974Y-159928684D01*
X222775679Y-159683589D01*
X222628437Y-159611480D01*
X221905038Y-159482011D01*
X221150959Y-159612649D01*
X220412764Y-159992056D01*
X220119074Y-160222500D01*
X219773159Y-160463265D01*
X219535033Y-160524847D01*
X219448291Y-160427032D01*
X219556527Y-160189603D01*
X219693103Y-160029175D01*
X220148724Y-159684689D01*
X219530057Y-159684689D01*
X219433167Y-159906542D01*
X219216008Y-160153443D01*
X219038371Y-160126412D01*
X218988959Y-160061900D01*
X218995450Y-159861495D01*
X219145042Y-159644410D01*
X219344000Y-159519351D01*
X219445703Y-159532206D01*
X219530057Y-159684689D01*
X220148724Y-159684689D01*
X220368860Y-159518249D01*
X221172153Y-159226680D01*
X222040521Y-159165135D01*
X222911505Y-159344282D01*
X223147673Y-159439176D01*
X223807959Y-159829136D01*
X224278253Y-160350030D01*
X224599085Y-160996466D01*
X224805425Y-161787733D01*
X225212011Y-161787733D01*
X225272006Y-161734444D01*
X225365746Y-161855300D01*
X225396667Y-162087222D01*
X225508094Y-162087222D01*
X225505335Y-161779482D01*
X225438546Y-161137575D01*
X225428962Y-161100835D01*
X225250671Y-161100835D01*
X225185746Y-161285675D01*
X225123954Y-161311111D01*
X224981910Y-161194336D01*
X224899403Y-161018254D01*
X224860551Y-160720293D01*
X224973708Y-160620293D01*
X225105056Y-160670309D01*
X225222435Y-160850285D01*
X225250671Y-161100835D01*
X225428962Y-161100835D01*
X225315253Y-160664947D01*
X225104003Y-160249770D01*
X225052791Y-160170363D01*
X224957347Y-160006075D01*
X224816213Y-160006075D01*
X224762196Y-160134043D01*
X224699234Y-160177158D01*
X224477953Y-160189480D01*
X224288901Y-160036483D01*
X224220098Y-159819113D01*
X224278286Y-159694381D01*
X224474305Y-159671513D01*
X224656841Y-159805317D01*
X224816213Y-160006075D01*
X224957347Y-160006075D01*
X224868337Y-159852863D01*
X224812107Y-159668243D01*
X224854947Y-159647186D01*
X225001789Y-159779414D01*
X225277300Y-160100791D01*
X225649957Y-160568424D01*
X226088232Y-161139419D01*
X226560600Y-161770883D01*
X227035536Y-162419925D01*
X227481514Y-163043650D01*
X227867007Y-163599166D01*
X228160491Y-164043580D01*
X228330440Y-164334000D01*
X228360000Y-164416049D01*
X228286649Y-164603549D01*
X228102912Y-164919218D01*
X228021686Y-165042667D01*
X227782856Y-165489617D01*
X227573271Y-166038320D01*
X227509387Y-166266452D01*
X227432163Y-167162887D01*
X227598263Y-168076176D01*
X227980563Y-168942504D01*
X228551940Y-169698055D01*
X229190218Y-170221011D01*
X229826365Y-170624444D01*
X229199016Y-170625823D01*
X228496138Y-170733033D01*
X227760037Y-171016075D01*
X227107334Y-171421336D01*
X226766734Y-171743995D01*
X226384445Y-172198320D01*
X226384445Y-180914508D01*
X225670934Y-180884754D01*
X225217317Y-180887282D01*
X224938057Y-180965799D01*
X224728375Y-181154679D01*
X224686294Y-181207778D01*
X224503148Y-181454161D01*
X224410501Y-181639100D01*
X224438906Y-181783046D01*
X224618915Y-181906450D01*
X224981083Y-182029763D01*
X225555961Y-182173436D01*
X226374102Y-182357922D01*
X226419722Y-182368089D01*
X227372222Y-182580392D01*
X227373009Y-178331029D01*
X227377988Y-177170498D01*
X227391757Y-176109704D01*
X227413237Y-175184511D01*
X227441346Y-174430783D01*
X227475002Y-173884385D01*
X227513124Y-173581181D01*
X227516644Y-173567380D01*
X227752324Y-173101391D01*
X228169143Y-172795712D01*
X228789520Y-172640763D01*
X229635877Y-172626965D01*
X229707555Y-172631254D01*
X230345411Y-172697560D01*
X230787125Y-172813544D01*
X231117489Y-173001934D01*
X231131786Y-173013019D01*
X231346447Y-173188934D01*
X231515422Y-173364282D01*
X231644228Y-173573616D01*
X231738382Y-173851491D01*
X231803399Y-174232461D01*
X231844797Y-174751079D01*
X231868092Y-175441899D01*
X231878801Y-176339476D01*
X231882441Y-177478362D01*
X231882778Y-177716945D01*
X231887778Y-181493335D01*
X231319732Y-181402501D01*
X230877125Y-181374680D01*
X230575100Y-181482777D01*
X230473065Y-181563815D01*
X230228186Y-181908083D01*
X230207341Y-182241175D01*
X230402478Y-182489769D01*
X230582500Y-182560378D01*
X230934754Y-182643137D01*
X231431563Y-182763236D01*
X231797555Y-182853197D01*
X232239134Y-182954710D01*
X232552674Y-183011935D01*
X232659779Y-183014853D01*
X232672731Y-182868618D01*
X232693080Y-182473920D01*
X232719481Y-181864382D01*
X232750592Y-181073629D01*
X232785066Y-180135282D01*
X232821560Y-179082966D01*
X232843899Y-178409857D01*
X232886038Y-177111709D01*
X232923438Y-176065050D01*
X232962994Y-175239386D01*
X233011602Y-174604224D01*
X233076156Y-174129070D01*
X233163551Y-173783431D01*
X233280682Y-173536813D01*
X233434445Y-173358722D01*
X233631734Y-173218666D01*
X233879445Y-173086150D01*
X234069327Y-172990346D01*
X234687292Y-172779837D01*
X235402322Y-172693688D01*
X236106036Y-172733423D01*
X236690054Y-172900567D01*
X236787541Y-172952112D01*
X237038948Y-173110545D01*
X237238957Y-173277773D01*
X237392997Y-173485968D01*
X237506492Y-173767299D01*
X237584870Y-174153936D01*
X237633555Y-174678049D01*
X237657975Y-175371809D01*
X237663556Y-176267386D01*
X237655723Y-177396949D01*
X237648507Y-178056528D01*
X237633798Y-179087960D01*
X237614982Y-180025765D01*
X237593229Y-180833340D01*
X237569712Y-181474082D01*
X237545601Y-181911387D01*
X237522068Y-182108651D01*
X237518611Y-182115325D01*
X237348371Y-182118575D01*
X237024813Y-182024947D01*
X236900589Y-181976201D01*
X236342867Y-181845828D01*
X235867019Y-181971172D01*
X235441948Y-182363529D01*
X235306366Y-182555297D01*
X235162573Y-182773184D01*
X235090403Y-182925915D01*
X235126222Y-183034444D01*
X235306395Y-183119723D01*
X235667288Y-183202703D01*
X236245265Y-183304337D01*
X236756111Y-183390587D01*
X237379124Y-183499022D01*
X237915456Y-183596930D01*
X238292107Y-183670748D01*
X238414167Y-183698672D01*
X238478278Y-183702175D01*
X238530255Y-183656208D01*
X238571363Y-183534491D01*
X238602868Y-183310742D01*
X238626035Y-182958680D01*
X238642130Y-182452023D01*
X238652419Y-181764489D01*
X238658167Y-180869798D01*
X238660639Y-179741667D01*
X238661111Y-178570522D01*
X238664838Y-177303613D01*
X238675503Y-176134891D01*
X238692337Y-175096106D01*
X238714569Y-174219004D01*
X238741429Y-173535336D01*
X238772147Y-173076850D01*
X238798852Y-172893972D01*
X239023098Y-172392186D01*
X239347744Y-171995958D01*
X239707493Y-171776076D01*
X239850998Y-171753333D01*
X240141233Y-171817869D01*
X240556975Y-171982590D01*
X240807715Y-172106111D01*
X241192535Y-172303871D01*
X241467213Y-172431880D01*
X241547425Y-172458889D01*
X241624491Y-172337630D01*
X241629985Y-172028731D01*
X241574629Y-171614509D01*
X241469148Y-171177282D01*
X241333740Y-170818589D01*
X240986631Y-170302944D01*
X240482556Y-169947245D01*
X240435124Y-169923789D01*
X239947633Y-169748021D01*
X239518753Y-169752397D01*
X239091817Y-169956477D01*
X238610154Y-170379819D01*
X238369906Y-170636572D01*
X237725923Y-171350715D01*
X236857413Y-171058135D01*
X236196557Y-170886813D01*
X235492719Y-170782400D01*
X235158653Y-170765555D01*
X234407470Y-170849372D01*
X233795532Y-171123944D01*
X233263851Y-171623952D01*
X232946111Y-172066316D01*
X232696172Y-172430103D01*
X232498001Y-172672907D01*
X232418838Y-172733449D01*
X232300562Y-172622600D01*
X232145008Y-172340311D01*
X232119525Y-172282500D01*
X231694424Y-171640584D01*
X231016979Y-171105275D01*
X230829445Y-171000030D01*
X230406111Y-170776855D01*
X231252778Y-170768106D01*
X232272844Y-170629783D01*
X233163320Y-170243080D01*
X233178768Y-170230135D01*
X232258494Y-170230135D01*
X232236064Y-170407418D01*
X232032674Y-170563969D01*
X231781945Y-170622283D01*
X231622432Y-170512111D01*
X231605556Y-170429235D01*
X231620418Y-170405317D01*
X231089278Y-170405317D01*
X231084438Y-170562269D01*
X230870116Y-170621124D01*
X230742701Y-170624444D01*
X230430190Y-170576300D01*
X230370127Y-170448055D01*
X230545462Y-170274662D01*
X230819285Y-170235125D01*
X231047947Y-170337981D01*
X231089278Y-170405317D01*
X231620418Y-170405317D01*
X231719201Y-170246346D01*
X231795121Y-170215585D01*
X229912222Y-170215585D01*
X229801656Y-170277219D01*
X229556235Y-170257423D01*
X229305375Y-170173815D01*
X229227814Y-170122414D01*
X229241654Y-169984615D01*
X229271656Y-169927895D01*
X229444344Y-169865767D01*
X229689058Y-169945772D01*
X229878161Y-170110587D01*
X229912222Y-170215585D01*
X231795121Y-170215585D01*
X231964889Y-170146799D01*
X232199748Y-170174162D01*
X232258494Y-170230135D01*
X233178768Y-170230135D01*
X233623019Y-169857878D01*
X233374735Y-169857878D01*
X233288463Y-170002007D01*
X233069929Y-170160031D01*
X232846991Y-170195085D01*
X232735136Y-170091479D01*
X232734445Y-170077278D01*
X232842040Y-169868984D01*
X233073775Y-169714741D01*
X233293071Y-169703882D01*
X233299560Y-169707636D01*
X233374735Y-169857878D01*
X233623019Y-169857878D01*
X233910596Y-169616905D01*
X234327586Y-169011874D01*
X234206838Y-169011874D01*
X234065333Y-169224015D01*
X233831796Y-169396534D01*
X233674451Y-169387805D01*
X233666868Y-169227565D01*
X233745996Y-169094937D01*
X233904342Y-168883190D01*
X233955126Y-168811147D01*
X234079784Y-168825491D01*
X234145360Y-168860434D01*
X234206838Y-169011874D01*
X234327586Y-169011874D01*
X234501064Y-168760167D01*
X234588584Y-168584401D01*
X234856760Y-167967682D01*
X234881277Y-167880849D01*
X234687946Y-167880849D01*
X234674969Y-168137669D01*
X234627766Y-168275660D01*
X234480509Y-168429673D01*
X234315818Y-168380966D01*
X234234845Y-168182921D01*
X234248163Y-168075331D01*
X234391129Y-167850928D01*
X234514791Y-167802222D01*
X234687946Y-167880849D01*
X234881277Y-167880849D01*
X234972575Y-167557510D01*
X234938670Y-167324589D01*
X234757686Y-167239620D01*
X234710000Y-167237778D01*
X234489742Y-167137968D01*
X234426902Y-166913087D01*
X234504250Y-166726285D01*
X234132658Y-166726285D01*
X234086426Y-167527981D01*
X233836347Y-168299046D01*
X233410755Y-168983703D01*
X232837985Y-169526176D01*
X232146371Y-169870689D01*
X231926864Y-169925754D01*
X231421633Y-169974544D01*
X230837914Y-169959358D01*
X230295090Y-169889245D01*
X229912544Y-169773250D01*
X229912222Y-169773083D01*
X229652987Y-169608251D01*
X229463031Y-169466191D01*
X228890791Y-169466191D01*
X228856315Y-169608146D01*
X228769008Y-169763404D01*
X228655356Y-169695835D01*
X228561589Y-169574418D01*
X228404416Y-169317983D01*
X228360000Y-169186363D01*
X228462640Y-169083262D01*
X228674895Y-169095283D01*
X228853273Y-169212707D01*
X228858065Y-169220090D01*
X228890791Y-169466191D01*
X229463031Y-169466191D01*
X229320836Y-169359850D01*
X228990827Y-169089453D01*
X228738019Y-168858634D01*
X228637468Y-168728966D01*
X228637571Y-168727417D01*
X228586260Y-168557597D01*
X228559162Y-168499145D01*
X228177052Y-168499145D01*
X228152146Y-168604126D01*
X228063176Y-168766884D01*
X227974856Y-168693842D01*
X227899576Y-168541704D01*
X227820248Y-168265540D01*
X227846296Y-168127778D01*
X228002800Y-168103169D01*
X228134120Y-168259771D01*
X228177052Y-168499145D01*
X228559162Y-168499145D01*
X228447915Y-168259180D01*
X228441103Y-168245951D01*
X228302497Y-167752880D01*
X228280903Y-167167222D01*
X227936667Y-167167222D01*
X227863066Y-167450953D01*
X227725000Y-167520000D01*
X227554762Y-167397331D01*
X227513333Y-167167222D01*
X227586934Y-166883491D01*
X227725000Y-166814444D01*
X227895239Y-166937112D01*
X227936667Y-167167222D01*
X228280903Y-167167222D01*
X228275376Y-167017353D01*
X228280446Y-166892576D01*
X228431751Y-165987359D01*
X228461081Y-165928905D01*
X228138830Y-165928905D01*
X228084635Y-166187401D01*
X227929737Y-166370789D01*
X227849653Y-166391111D01*
X227674363Y-166289794D01*
X227656605Y-166214722D01*
X227731007Y-165931298D01*
X227894564Y-165745683D01*
X228048754Y-165738173D01*
X228138830Y-165928905D01*
X228461081Y-165928905D01*
X228796142Y-165261149D01*
X229378669Y-164701657D01*
X228715176Y-164701657D01*
X228713336Y-164921977D01*
X228543251Y-165145693D01*
X228294300Y-165260962D01*
X228267201Y-165262222D01*
X228141260Y-165206426D01*
X228209220Y-164998135D01*
X228214683Y-164987859D01*
X228437184Y-164681471D01*
X228631093Y-164622719D01*
X228715176Y-164701657D01*
X229378669Y-164701657D01*
X229384762Y-164695805D01*
X229771111Y-164465500D01*
X230623534Y-164173652D01*
X231484482Y-164135849D01*
X232304831Y-164334630D01*
X233035457Y-164752533D01*
X233627235Y-165372097D01*
X233946708Y-165949733D01*
X234132658Y-166726285D01*
X234504250Y-166726285D01*
X234525503Y-166674959D01*
X234685729Y-166562953D01*
X234856452Y-166369441D01*
X234846918Y-166032274D01*
X234790083Y-165879756D01*
X234645559Y-165879756D01*
X234626596Y-165988566D01*
X234459158Y-166100958D01*
X234255590Y-165940604D01*
X234182389Y-165833208D01*
X234084567Y-165583528D01*
X234169853Y-165458872D01*
X234354274Y-165479872D01*
X234544089Y-165656403D01*
X234645559Y-165879756D01*
X234790083Y-165879756D01*
X234685169Y-165598222D01*
X234399248Y-165114051D01*
X234192076Y-164849685D01*
X234053033Y-164849685D01*
X233996089Y-164984072D01*
X233972502Y-164999785D01*
X233748196Y-165009554D01*
X233549136Y-164855384D01*
X233480436Y-164636536D01*
X233507868Y-164561015D01*
X233654129Y-164493209D01*
X233880678Y-164642918D01*
X234053033Y-164849685D01*
X234192076Y-164849685D01*
X234017197Y-164626528D01*
X233567060Y-164182422D01*
X233362168Y-164034485D01*
X233085709Y-164034485D01*
X233027805Y-164173678D01*
X232742202Y-164226495D01*
X232687204Y-164224293D01*
X232442459Y-164149150D01*
X232431286Y-164051018D01*
X229630000Y-164051018D01*
X229523848Y-164274168D01*
X229290801Y-164388023D01*
X229058974Y-164345756D01*
X228999376Y-164281524D01*
X229039219Y-164120849D01*
X229193438Y-163999302D01*
X229485412Y-163868285D01*
X229609186Y-163905563D01*
X229630000Y-164051018D01*
X232431286Y-164051018D01*
X232420575Y-163956944D01*
X232497337Y-163755586D01*
X232635005Y-163736678D01*
X232888785Y-163858191D01*
X233085709Y-164034485D01*
X233362168Y-164034485D01*
X233076879Y-163828501D01*
X233030042Y-163801712D01*
X232849713Y-163710000D01*
X232028889Y-163710000D01*
X231908129Y-163816076D01*
X231676111Y-163851111D01*
X231387788Y-163773938D01*
X231377783Y-163750716D01*
X230747659Y-163750716D01*
X230570028Y-163871054D01*
X230511945Y-163886493D01*
X230182385Y-163891399D01*
X230054073Y-163722403D01*
X230053333Y-163701672D01*
X230174143Y-163601839D01*
X230406111Y-163568889D01*
X230685101Y-163626228D01*
X230747659Y-163750716D01*
X231377783Y-163750716D01*
X231323333Y-163624347D01*
X231407490Y-163464972D01*
X231546541Y-163483236D01*
X231815380Y-163559379D01*
X231899319Y-163568889D01*
X232025201Y-163676613D01*
X232028889Y-163710000D01*
X232849713Y-163710000D01*
X232578033Y-163571829D01*
X232179656Y-163442686D01*
X231716761Y-163386911D01*
X231195598Y-163376729D01*
X230631195Y-163398661D01*
X230144289Y-163455569D01*
X229832344Y-163535623D01*
X229814738Y-163544331D01*
X229557425Y-163632019D01*
X229368901Y-163508728D01*
X229293803Y-163408628D01*
X229160821Y-163160469D01*
X229208651Y-162945663D01*
X229320732Y-162777566D01*
X229657911Y-162507419D01*
X229930222Y-162444434D01*
X230286240Y-162354379D01*
X230494666Y-162201913D01*
X230612881Y-162032100D01*
X230523924Y-162027139D01*
X230441389Y-162056373D01*
X230232177Y-162084695D01*
X230231814Y-162035981D01*
X229035608Y-162035981D01*
X228933954Y-162216875D01*
X228763357Y-162398301D01*
X228701054Y-162440000D01*
X228602189Y-162334353D01*
X228376328Y-162050829D01*
X228062804Y-161639553D01*
X227871666Y-161383031D01*
X227531600Y-160917636D01*
X227266330Y-160544029D01*
X227113079Y-160315180D01*
X227090000Y-160270617D01*
X227211212Y-160285429D01*
X227520200Y-160360170D01*
X227934992Y-160471792D01*
X228373616Y-160597244D01*
X228754101Y-160713479D01*
X228994474Y-160797446D01*
X229033309Y-160817049D01*
X229019628Y-160954117D01*
X228947230Y-161183058D01*
X228905982Y-161586540D01*
X228970986Y-161756531D01*
X229035608Y-162035981D01*
X230231814Y-162035981D01*
X230231033Y-161931414D01*
X230414113Y-161624731D01*
X230654227Y-161364966D01*
X230819662Y-161333121D01*
X230866574Y-161524608D01*
X230840673Y-161669389D01*
X230817303Y-161922421D01*
X230950920Y-162090036D01*
X231244177Y-162233833D01*
X231596684Y-162368512D01*
X231836485Y-162437592D01*
X231861068Y-162440000D01*
X231948755Y-162313588D01*
X232098170Y-161968739D01*
X232288934Y-161457028D01*
X232408246Y-161103720D01*
X229452392Y-161103720D01*
X229424136Y-161160611D01*
X229289582Y-161306500D01*
X229264829Y-161203617D01*
X229299084Y-161093358D01*
X229402973Y-160939682D01*
X229449896Y-160942859D01*
X229452392Y-161103720D01*
X232408246Y-161103720D01*
X232500671Y-160830033D01*
X232516141Y-160781944D01*
X232742968Y-160075066D01*
X232958031Y-159405871D01*
X233135813Y-158853708D01*
X233243875Y-158519235D01*
X233383718Y-158058013D01*
X233407381Y-157788621D01*
X233287834Y-157635119D01*
X232998046Y-157521564D01*
X232875556Y-157484439D01*
X232527747Y-157375417D01*
X232329044Y-157303802D01*
X232311111Y-157292805D01*
X232351836Y-157158058D01*
X232464093Y-156801516D01*
X232633010Y-156270053D01*
X232843713Y-155610544D01*
X232964470Y-155233752D01*
X233266604Y-154285276D01*
X233609117Y-153199349D01*
X233950363Y-152108562D01*
X234248696Y-151145504D01*
X234254359Y-151127090D01*
X234522733Y-150280329D01*
X234735336Y-149674920D01*
X234905712Y-149278639D01*
X235047406Y-149059258D01*
X235153222Y-148988356D01*
X235343053Y-148850203D01*
X235413114Y-148526343D01*
X235415556Y-148412655D01*
X235415556Y-147905555D01*
X234519925Y-147905555D01*
X233934657Y-147933029D01*
X233548161Y-148027039D01*
X233320480Y-148169051D01*
X233099440Y-148395172D01*
X233016667Y-148541551D01*
X233141329Y-148747055D01*
X233451061Y-148923979D01*
X233849481Y-149022902D01*
X233969167Y-149029956D01*
X234281460Y-149065309D01*
X234426498Y-149145383D01*
X234427778Y-149154366D01*
X234386336Y-149330169D01*
X234274109Y-149713595D01*
X234109247Y-150244423D01*
X233949336Y-150741866D01*
X233684536Y-151563182D01*
X233388045Y-152496845D01*
X233109841Y-153385054D01*
X233015230Y-153691111D01*
X232762291Y-154506195D01*
X232475442Y-155419184D01*
X232202617Y-156277860D01*
X232104323Y-156583889D01*
X231890438Y-157249275D01*
X231687697Y-157884185D01*
X231525467Y-158396461D01*
X231461286Y-158601796D01*
X231299071Y-159046593D01*
X231123030Y-159282040D01*
X230867827Y-159376265D01*
X230704423Y-159391020D01*
X230456036Y-159501362D01*
X230389649Y-159733018D01*
X230322764Y-160048185D01*
X230239382Y-160193729D01*
X230165333Y-160167149D01*
X230140890Y-159927777D01*
X230159393Y-159539380D01*
X230214183Y-159065723D01*
X230298602Y-158570573D01*
X230405990Y-158117695D01*
X230480035Y-157889166D01*
X230603606Y-157510962D01*
X230647544Y-157267906D01*
X230626563Y-157218889D01*
X230536455Y-157343290D01*
X230403349Y-157668635D01*
X230263304Y-158100833D01*
X230087472Y-158611721D01*
X229891741Y-159046715D01*
X229747073Y-159274095D01*
X229554600Y-159547356D01*
X229488889Y-159732706D01*
X229428345Y-159889145D01*
X229247496Y-159791179D01*
X229088175Y-159618203D01*
X228816912Y-159399742D01*
X228481735Y-159261669D01*
X228169897Y-159221391D01*
X227968652Y-159296316D01*
X227936667Y-159388472D01*
X227867351Y-159587339D01*
X227799048Y-159617778D01*
X227731962Y-159506655D01*
X227791313Y-159276160D01*
X227842642Y-158985082D01*
X227678536Y-158778253D01*
X227611431Y-158732054D01*
X227244310Y-158532818D01*
X226996601Y-158433109D01*
X226771609Y-158409709D01*
X226649057Y-158571454D01*
X226597688Y-158763930D01*
X226502726Y-159082976D01*
X226405765Y-159251820D01*
X226405404Y-159252046D01*
X226337010Y-159207300D01*
X223933387Y-159207300D01*
X223889039Y-159366622D01*
X223669961Y-159380100D01*
X223553659Y-159330972D01*
X223334939Y-159162690D01*
X223280000Y-159056696D01*
X223371951Y-158875620D01*
X223606722Y-158898300D01*
X223754298Y-158985902D01*
X223933387Y-159207300D01*
X226337010Y-159207300D01*
X226285123Y-159173354D01*
X226048917Y-158911012D01*
X225884827Y-158700555D01*
X222856667Y-158700555D01*
X222733999Y-158870794D01*
X222503889Y-158912222D01*
X222220158Y-158838621D01*
X222156020Y-158710370D01*
X221586667Y-158710370D01*
X221482245Y-158859413D01*
X221251359Y-158885873D01*
X221017583Y-158798053D01*
X220915683Y-158665278D01*
X220985223Y-158527461D01*
X221222130Y-158488889D01*
X221518021Y-158562842D01*
X221586667Y-158710370D01*
X222156020Y-158710370D01*
X222151111Y-158700555D01*
X222273780Y-158530317D01*
X222503889Y-158488889D01*
X222787620Y-158562490D01*
X222856667Y-158700555D01*
X225884827Y-158700555D01*
X225739815Y-158514568D01*
X225624616Y-158356105D01*
X223985556Y-158356105D01*
X223877924Y-158485088D01*
X223844445Y-158488889D01*
X223720604Y-158374030D01*
X223703333Y-158268894D01*
X223771743Y-158122836D01*
X223844445Y-158136111D01*
X223980173Y-158316515D01*
X223985556Y-158356105D01*
X225624616Y-158356105D01*
X225610321Y-158336442D01*
X225239754Y-157839998D01*
X224965811Y-157541214D01*
X224739545Y-157395966D01*
X224527183Y-157360000D01*
X224179138Y-157446726D01*
X224003032Y-157605982D01*
X223899855Y-157746735D01*
X223752238Y-157779410D01*
X223475369Y-157705164D01*
X223230119Y-157616523D01*
X222785223Y-157491021D01*
X222401634Y-157448266D01*
X222287989Y-157461331D01*
X222009801Y-157469411D01*
X221889723Y-157399407D01*
X221692919Y-157328240D01*
X221275468Y-157331234D01*
X221029463Y-157357470D01*
X220582697Y-157404765D01*
X220290601Y-157373364D01*
X220036255Y-157223559D01*
X219702741Y-156915643D01*
X219688908Y-156902204D01*
X219228643Y-156487937D01*
X218721610Y-156078685D01*
X218514597Y-155927351D01*
X218191134Y-155667867D01*
X218010637Y-155454006D01*
X217997578Y-155369486D01*
X217991288Y-155159562D01*
X217911800Y-155024463D01*
X217838636Y-154867259D01*
X217876542Y-154832976D01*
X216704787Y-154832976D01*
X216702787Y-154845155D01*
X216548147Y-154863761D01*
X216268201Y-154766569D01*
X215966921Y-154602342D01*
X215748280Y-154419841D01*
X215724051Y-154386141D01*
X215667354Y-154193484D01*
X215582596Y-153781348D01*
X215481108Y-153209714D01*
X215374223Y-152538562D01*
X215371173Y-152518326D01*
X215255660Y-151709425D01*
X215192267Y-151153225D01*
X215179868Y-150825273D01*
X215217339Y-150701117D01*
X215289351Y-150739537D01*
X215377117Y-150915279D01*
X215528007Y-151293675D01*
X215722414Y-151817774D01*
X215940732Y-152430628D01*
X216163356Y-153075287D01*
X216370680Y-153694801D01*
X216543097Y-154232220D01*
X216661001Y-154630595D01*
X216704787Y-154832976D01*
X217876542Y-154832976D01*
X217971445Y-154747145D01*
X218181874Y-154664063D01*
X218482365Y-154515162D01*
X218620194Y-154359652D01*
X218621173Y-154347584D01*
X218572741Y-154149773D01*
X218471307Y-153959998D01*
X218375802Y-153867921D01*
X218343272Y-153924791D01*
X218220256Y-154062788D01*
X217910874Y-154226466D01*
X217717245Y-154300487D01*
X217093379Y-154513060D01*
X216577963Y-153079030D01*
X216341748Y-152424440D01*
X216118805Y-151811223D01*
X215939922Y-151323838D01*
X215861274Y-151112977D01*
X215717689Y-150719813D01*
X215676277Y-150522565D01*
X215738092Y-150453669D01*
X215871667Y-150445555D01*
X216059248Y-150534146D01*
X216083333Y-150610185D01*
X216142686Y-150702104D01*
X216181193Y-150676955D01*
X216151287Y-150534578D01*
X215961486Y-150302038D01*
X215685807Y-150047074D01*
X215398270Y-149837426D01*
X215172892Y-149740835D01*
X215157402Y-149740000D01*
X214975311Y-149658547D01*
X214954445Y-149594460D01*
X214839139Y-149433582D01*
X214707500Y-149367765D01*
X213876800Y-149065756D01*
X213313151Y-148794179D01*
X213175562Y-148681666D01*
X211850000Y-148681666D01*
X211779445Y-148752222D01*
X211708889Y-148681666D01*
X211779445Y-148611111D01*
X211850000Y-148681666D01*
X213175562Y-148681666D01*
X213021529Y-148555707D01*
X212978889Y-148439019D01*
X212882235Y-148258333D01*
X210862222Y-148258333D01*
X210791667Y-148328889D01*
X210721111Y-148258333D01*
X210791667Y-148187778D01*
X210862222Y-148258333D01*
X212882235Y-148258333D01*
X212855220Y-148207832D01*
X212472645Y-147972483D01*
X212308611Y-147900561D01*
X211869108Y-147711210D01*
X211509016Y-147542990D01*
X211393304Y-147482242D01*
X210919512Y-147341749D01*
X210448634Y-147413372D01*
G37*
X210448634Y-147413372D02*
X210059732Y-147661110D01*
X209831864Y-148048958D01*
X209805186Y-148205453D01*
X209719568Y-148373284D01*
X209468674Y-148620006D01*
X209031864Y-148961998D01*
X208388496Y-149415640D01*
X207689644Y-149884197D01*
X206924053Y-150387593D01*
X206356817Y-150746559D01*
X205950880Y-150972334D01*
X205669190Y-151076155D01*
X205474692Y-151069259D01*
X205330332Y-150962885D01*
X205199055Y-150768270D01*
X205136426Y-150658528D01*
X204871646Y-150394454D01*
X204514908Y-150264141D01*
X204175112Y-150290930D01*
X204005349Y-150416074D01*
X203821968Y-150562628D01*
X203507772Y-150620041D01*
X203076809Y-150610875D01*
X202369292Y-150569034D01*
X201896194Y-150548003D01*
X201610385Y-150549090D01*
X201464735Y-150573600D01*
X201412115Y-150622843D01*
X201405959Y-150657222D01*
X201528697Y-150748883D01*
X201856973Y-150845946D01*
X202249097Y-150916487D01*
X202786252Y-151019546D01*
X203058267Y-151145564D01*
X203101111Y-151233987D01*
X203119341Y-151542902D01*
X203207374Y-151738973D01*
X203277378Y-151828471D01*
X203343473Y-152043332D01*
X203230101Y-152201770D01*
X203056167Y-152299315D01*
X202770866Y-152325037D01*
X202305058Y-152281823D01*
X202078939Y-152249808D01*
X201426285Y-152179524D01*
X200976746Y-152189073D01*
X200755176Y-152275627D01*
X200759697Y-152399945D01*
X200930903Y-152479762D01*
X201294501Y-152558752D01*
X201637363Y-152604689D01*
X202088171Y-152668705D01*
X202414751Y-152747569D01*
X202523444Y-152803689D01*
X202699614Y-152908792D01*
X203048848Y-153040902D01*
X203242222Y-153099976D01*
X203677412Y-153225713D01*
X204024934Y-153330096D01*
X204111121Y-153357525D01*
X204379769Y-153320257D01*
X204645434Y-153134566D01*
X204893865Y-152944965D01*
X205069640Y-152910657D01*
X205069761Y-152910732D01*
X205200416Y-152855136D01*
X205311559Y-152646811D01*
X205464914Y-152462994D01*
X205815172Y-152163062D01*
X206317829Y-151777093D01*
X206928382Y-151335161D01*
X207602326Y-150867345D01*
X208295157Y-150403721D01*
X208962371Y-149974365D01*
X209559464Y-149609353D01*
X210041931Y-149338763D01*
X210365270Y-149192670D01*
X210447952Y-149175555D01*
X210740608Y-149229952D01*
X211169432Y-149369038D01*
X211442485Y-149478037D01*
X211895220Y-149650691D01*
X212196367Y-149695699D01*
X212439152Y-149625832D01*
X212456422Y-149616941D01*
X212707324Y-149537678D01*
X213019582Y-149571683D01*
X213472778Y-149722928D01*
X214178333Y-149992492D01*
X214363133Y-151100968D01*
X214485507Y-151828198D01*
X214622081Y-152629674D01*
X214732175Y-153267778D01*
X214811432Y-153850017D01*
X214836495Y-154333601D01*
X214802810Y-154630455D01*
X214802645Y-154630898D01*
X214621184Y-154853384D01*
X214255400Y-155135069D01*
X213801658Y-155407009D01*
X213221941Y-155780378D01*
X212536859Y-156325340D01*
X211808364Y-156986212D01*
X211098410Y-157707312D01*
X210560975Y-158319723D01*
X210340693Y-158603718D01*
X210295892Y-158734974D01*
X210413210Y-158770483D01*
X210455141Y-158771111D01*
X210675467Y-158833420D01*
X210721111Y-158912222D01*
X210600351Y-159018299D01*
X210368333Y-159053333D01*
X210091698Y-158987188D01*
X210015556Y-158771111D01*
X209917385Y-158536783D01*
X209723824Y-158488889D01*
X209512911Y-158545192D01*
X209518049Y-158759518D01*
X209521667Y-158771111D01*
X209531534Y-158999983D01*
X209390065Y-159053333D01*
X209130694Y-159059442D01*
X209066583Y-159063916D01*
X208927830Y-159001801D01*
X208953599Y-158849678D01*
X209122306Y-158729702D01*
X209125802Y-158728775D01*
X209248536Y-158677658D01*
X209101361Y-158649984D01*
X209037052Y-158646369D01*
X208450377Y-158746196D01*
X207828658Y-159066444D01*
X207224982Y-159559422D01*
X206692435Y-160177441D01*
X206284103Y-160872812D01*
X206137989Y-161250712D01*
X205965684Y-162143595D01*
X206040650Y-162998871D01*
X206370151Y-163881014D01*
X206451955Y-164038202D01*
X207043297Y-164862012D01*
X207798447Y-165460229D01*
X208700791Y-165824272D01*
X209733711Y-165945565D01*
X210115772Y-165929660D01*
X211101352Y-165720329D01*
X211322254Y-165605185D01*
X210580000Y-165605185D01*
X210458280Y-165784960D01*
X210215463Y-165826666D01*
X209948955Y-165771056D01*
X209909016Y-165650278D01*
X209933008Y-165624814D01*
X209451111Y-165624814D01*
X209346689Y-165773858D01*
X209115804Y-165800317D01*
X208882027Y-165712497D01*
X208780127Y-165579722D01*
X208849668Y-165441905D01*
X209086574Y-165403333D01*
X209382466Y-165477286D01*
X209451111Y-165624814D01*
X209933008Y-165624814D01*
X210065997Y-165483667D01*
X210311019Y-165425225D01*
X210520510Y-165483256D01*
X210580000Y-165605185D01*
X211322254Y-165605185D01*
X211954806Y-165275472D01*
X212106457Y-165132661D01*
X211836345Y-165132661D01*
X211777386Y-165241855D01*
X211646641Y-165342856D01*
X211336689Y-165522905D01*
X211145564Y-165494613D01*
X211083771Y-165419322D01*
X211099313Y-165237825D01*
X211125818Y-165216354D01*
X208225851Y-165216354D01*
X208211166Y-165392248D01*
X208034973Y-165448467D01*
X207884783Y-165395784D01*
X207669271Y-165234619D01*
X207616667Y-165139665D01*
X207708488Y-164944843D01*
X207948062Y-164963543D01*
X208041134Y-165013456D01*
X208225851Y-165216354D01*
X211125818Y-165216354D01*
X211290138Y-165083248D01*
X211552071Y-165021929D01*
X211671814Y-165044847D01*
X211836345Y-165132661D01*
X212106457Y-165132661D01*
X212649407Y-164621363D01*
X212765933Y-164429733D01*
X212576461Y-164429733D01*
X212462950Y-164632865D01*
X212416220Y-164695424D01*
X212224962Y-164898812D01*
X212117397Y-164865798D01*
X212099516Y-164824676D01*
X212099941Y-164540273D01*
X212156255Y-164380278D01*
X212206726Y-164175560D01*
X212099105Y-164147808D01*
X211896421Y-164298613D01*
X211832001Y-164372087D01*
X211711447Y-164538044D01*
X211784059Y-164526797D01*
X211850000Y-164490575D01*
X211977577Y-164442175D01*
X211944074Y-164498765D01*
X211766392Y-164624668D01*
X211732408Y-164632222D01*
X211551951Y-164697995D01*
X211285556Y-164833115D01*
X210564082Y-165102044D01*
X209749795Y-165197044D01*
X208946720Y-165117235D01*
X208258880Y-164861736D01*
X208253734Y-164858756D01*
X207849391Y-164529781D01*
X207302814Y-164529781D01*
X207272510Y-164655639D01*
X207185755Y-164796803D01*
X207062739Y-164715280D01*
X206982272Y-164613604D01*
X206821680Y-164363658D01*
X206774488Y-164239166D01*
X206871306Y-164142380D01*
X207080194Y-164155956D01*
X207258959Y-164267785D01*
X207268065Y-164281202D01*
X207302814Y-164529781D01*
X207849391Y-164529781D01*
X207723376Y-164427255D01*
X207258146Y-163830330D01*
X207133731Y-163580430D01*
X206770000Y-163580430D01*
X206655535Y-163695436D01*
X206558333Y-163710000D01*
X206370458Y-163639931D01*
X206346667Y-163580430D01*
X206300121Y-163343947D01*
X206261014Y-163227652D01*
X206273350Y-163037569D01*
X206387028Y-163004444D01*
X206612276Y-163127405D01*
X206753212Y-163424237D01*
X206770000Y-163580430D01*
X207133731Y-163580430D01*
X206932147Y-163175533D01*
X206833997Y-162798229D01*
X206809788Y-162352032D01*
X206818931Y-162228333D01*
X206487778Y-162228333D01*
X206414177Y-162512064D01*
X206276111Y-162581111D01*
X206105873Y-162458443D01*
X206064445Y-162228333D01*
X206138046Y-161944602D01*
X206276111Y-161875555D01*
X206446350Y-161998224D01*
X206487778Y-162228333D01*
X206818931Y-162228333D01*
X206846400Y-161856723D01*
X206928937Y-161385196D01*
X207042504Y-161010347D01*
X207083974Y-160944712D01*
X206743216Y-160944712D01*
X206683802Y-161194473D01*
X206536128Y-161358015D01*
X206418429Y-161362603D01*
X206296799Y-161248671D01*
X206349703Y-161010646D01*
X206379491Y-160942643D01*
X206539192Y-160719414D01*
X206667301Y-160728634D01*
X206743216Y-160944712D01*
X207083974Y-160944712D01*
X207172203Y-160805072D01*
X207244256Y-160790587D01*
X207357632Y-160956157D01*
X207359995Y-161114632D01*
X207248073Y-161902865D01*
X207223997Y-162493842D01*
X207294582Y-162960645D01*
X207466644Y-163376356D01*
X207590244Y-163583831D01*
X208144699Y-164218464D01*
X208816601Y-164628174D01*
X209555319Y-164806719D01*
X210310221Y-164747856D01*
X211030676Y-164445342D01*
X211506167Y-164066661D01*
X211870591Y-163702238D01*
X212266623Y-164035477D01*
X212519217Y-164266772D01*
X212576461Y-164429733D01*
X212765933Y-164429733D01*
X213158423Y-163784279D01*
X213337756Y-163183616D01*
X213229822Y-163183616D01*
X213228412Y-163340599D01*
X213115035Y-163578165D01*
X212904288Y-163826507D01*
X212688723Y-163792750D01*
X212654595Y-163762002D01*
X212633426Y-163575796D01*
X212761035Y-163338481D01*
X212960595Y-163168512D01*
X213054409Y-163145555D01*
X213229822Y-163183616D01*
X213337756Y-163183616D01*
X213455125Y-162790498D01*
X213480702Y-162621784D01*
X213469789Y-162128152D01*
X213305431Y-162128152D01*
X213295648Y-162369444D01*
X213202418Y-162634406D01*
X213103550Y-162722222D01*
X213009810Y-162601366D01*
X212978889Y-162369444D01*
X213034459Y-162141406D01*
X212685931Y-162141406D01*
X212651656Y-162633179D01*
X212545211Y-163108987D01*
X212393081Y-163489232D01*
X212221754Y-163694316D01*
X212163984Y-163710000D01*
X212039514Y-163645618D01*
X211643154Y-163645618D01*
X211525106Y-163819837D01*
X211474757Y-163875935D01*
X211029149Y-164241422D01*
X210471172Y-164530266D01*
X209929319Y-164679986D01*
X209803889Y-164688442D01*
X209402801Y-164630721D01*
X208930453Y-164483320D01*
X208810273Y-164432536D01*
X208112719Y-163977227D01*
X207636830Y-163365583D01*
X207400614Y-162635616D01*
X207422081Y-161825334D01*
X207471760Y-161607430D01*
X207584082Y-161250127D01*
X207695541Y-161115835D01*
X207861033Y-161150907D01*
X207912126Y-161177084D01*
X208088947Y-161319986D01*
X208143395Y-161549353D01*
X208106810Y-161921900D01*
X208079215Y-162369292D01*
X208186435Y-162706504D01*
X208342670Y-162936076D01*
X208531221Y-163191835D01*
X208545830Y-163258556D01*
X208392335Y-163164755D01*
X208389008Y-163162429D01*
X208313688Y-163130999D01*
X208423525Y-163262290D01*
X208575992Y-163413483D01*
X208880047Y-163662761D01*
X209113994Y-163780634D01*
X209175715Y-163776337D01*
X209300769Y-163794177D01*
X209310000Y-163842783D01*
X209422695Y-163962795D01*
X209683340Y-163992505D01*
X209975775Y-163941088D01*
X210183841Y-163817717D01*
X210211128Y-163771611D01*
X210353708Y-163627564D01*
X210444074Y-163642648D01*
X210650497Y-163645852D01*
X210852206Y-163506522D01*
X210934849Y-163317678D01*
X210915693Y-163259022D01*
X210966389Y-163225826D01*
X211197446Y-163313397D01*
X211282689Y-163355739D01*
X211573090Y-163520012D01*
X211643154Y-163645618D01*
X212039514Y-163645618D01*
X212028958Y-163640158D01*
X212071559Y-163394080D01*
X212072125Y-163392500D01*
X212135108Y-163081566D01*
X212179941Y-162606444D01*
X212193898Y-162220272D01*
X212054719Y-162220272D01*
X212026114Y-162874633D01*
X211921104Y-163266700D01*
X211733941Y-163407412D01*
X211477210Y-163319783D01*
X211386484Y-163122698D01*
X211338900Y-162722174D01*
X211336220Y-162427829D01*
X210507828Y-162427829D01*
X210382009Y-162840598D01*
X210370783Y-162859370D01*
X210217250Y-163005702D01*
X210110635Y-162879322D01*
X210067674Y-162581111D01*
X209874445Y-162581111D01*
X209815351Y-162810412D01*
X209733333Y-162863333D01*
X209618683Y-162745146D01*
X209592222Y-162581111D01*
X209651316Y-162351810D01*
X209733333Y-162298889D01*
X209847984Y-162417076D01*
X209874445Y-162581111D01*
X210067674Y-162581111D01*
X210054016Y-162486313D01*
X210045600Y-162216855D01*
X210046519Y-161958693D01*
X209861690Y-161958693D01*
X209708066Y-162132776D01*
X209582713Y-162157778D01*
X209412457Y-162186778D01*
X209359163Y-162311898D01*
X209421432Y-162590319D01*
X209562428Y-162985582D01*
X209571594Y-163105131D01*
X209411147Y-163057183D01*
X209331397Y-163015895D01*
X209093479Y-162854216D01*
X209016019Y-162752535D01*
X208992960Y-162545874D01*
X208967427Y-162312202D01*
X209027859Y-161972211D01*
X209230518Y-161682750D01*
X209497922Y-161530144D01*
X209659577Y-161541075D01*
X209850603Y-161720732D01*
X209861690Y-161958693D01*
X210046519Y-161958693D01*
X210047171Y-161775698D01*
X210076801Y-161569479D01*
X210156386Y-161550980D01*
X210300763Y-161666590D01*
X210478119Y-161991743D01*
X210507828Y-162427829D01*
X211336220Y-162427829D01*
X211336098Y-162414494D01*
X211329566Y-161924668D01*
X211254797Y-161600174D01*
X211111412Y-161381666D01*
X209874445Y-161381666D01*
X209803889Y-161452222D01*
X209733333Y-161381666D01*
X209803889Y-161311111D01*
X209874445Y-161381666D01*
X211111412Y-161381666D01*
X211074788Y-161325855D01*
X210938176Y-161176140D01*
X210640391Y-160922663D01*
X210391869Y-160807760D01*
X210331125Y-160811974D01*
X210210593Y-160804891D01*
X210228221Y-160745050D01*
X210163892Y-160653795D01*
X209870490Y-160608120D01*
X209752488Y-160605555D01*
X209162973Y-160713421D01*
X208764124Y-160964363D01*
X208460401Y-161188051D01*
X208246687Y-161232415D01*
X208057636Y-161148265D01*
X207874248Y-160921857D01*
X207958419Y-160652509D01*
X208301545Y-160355444D01*
X208603541Y-160182683D01*
X209363078Y-159932921D01*
X210108297Y-159932256D01*
X210793322Y-160153600D01*
X211372277Y-160569868D01*
X211799285Y-161153976D01*
X212028472Y-161878838D01*
X212054719Y-162220272D01*
X212193898Y-162220272D01*
X212194417Y-162205917D01*
X212181065Y-161684225D01*
X212104572Y-161324258D01*
X211928820Y-161006817D01*
X211766842Y-160794806D01*
X211125249Y-160191144D01*
X210385855Y-159848084D01*
X209777798Y-159765666D01*
X208999595Y-159852389D01*
X208347672Y-160155966D01*
X207956474Y-160479159D01*
X207666707Y-160731927D01*
X207488544Y-160795541D01*
X207354683Y-160700497D01*
X207291312Y-160535732D01*
X207413951Y-160347337D01*
X207649876Y-160150907D01*
X208211673Y-159810551D01*
X207427455Y-159810551D01*
X207390361Y-160098932D01*
X207209743Y-160291038D01*
X206971092Y-160301745D01*
X206852211Y-160201081D01*
X206886317Y-160026723D01*
X207041541Y-159839111D01*
X207292306Y-159708305D01*
X207427455Y-159810551D01*
X208211673Y-159810551D01*
X208538926Y-159612290D01*
X209422476Y-159348106D01*
X210289614Y-159360428D01*
X210885168Y-159536424D01*
X211586083Y-159970295D01*
X212152521Y-160596387D01*
X212535474Y-161343808D01*
X212685931Y-162141406D01*
X213034459Y-162141406D01*
X213045376Y-162096611D01*
X213170988Y-162016666D01*
X213305431Y-162128152D01*
X213469789Y-162128152D01*
X213461601Y-161757813D01*
X213336905Y-161338081D01*
X213261111Y-161338081D01*
X213169400Y-161450365D01*
X212976445Y-161420003D01*
X212805516Y-161275355D01*
X212781862Y-161227821D01*
X212743459Y-160947934D01*
X212845845Y-160822703D01*
X213026193Y-160909474D01*
X213070984Y-160963927D01*
X213222251Y-161215994D01*
X213261111Y-161338081D01*
X213336905Y-161338081D01*
X213202278Y-160884921D01*
X212891036Y-160351898D01*
X212690641Y-160351898D01*
X212587035Y-160463753D01*
X212572834Y-160464444D01*
X212387993Y-160368027D01*
X212278464Y-160258959D01*
X212172527Y-160017733D01*
X212237918Y-159855921D01*
X212420912Y-159858987D01*
X212497563Y-159910426D01*
X212655587Y-160128960D01*
X212690641Y-160351898D01*
X212891036Y-160351898D01*
X212731686Y-160079002D01*
X212344982Y-159644785D01*
X212193653Y-159493945D01*
X211850000Y-159493945D01*
X211751509Y-159608896D01*
X211533028Y-159583977D01*
X211310044Y-159434879D01*
X211295982Y-159418674D01*
X211207473Y-159215216D01*
X211284885Y-159124303D01*
X211500893Y-159127678D01*
X211734723Y-159277961D01*
X211849799Y-159485815D01*
X211850000Y-159493945D01*
X212193653Y-159493945D01*
X212029269Y-159330093D01*
X211870370Y-159100640D01*
X208353974Y-159100640D01*
X208351198Y-159299158D01*
X208182803Y-159470039D01*
X207960070Y-159531082D01*
X207843502Y-159477724D01*
X207819431Y-159294063D01*
X207976135Y-159136446D01*
X208218818Y-159016598D01*
X208353974Y-159100640D01*
X211870370Y-159100640D01*
X211857861Y-159082578D01*
X211843420Y-158848859D01*
X211998608Y-158575554D01*
X212336087Y-158209279D01*
X212789159Y-157772191D01*
X213376402Y-157230067D01*
X213822759Y-156867759D01*
X214177314Y-156656368D01*
X214489147Y-156566997D01*
X214807342Y-156570748D01*
X214825835Y-156573060D01*
X215179728Y-156617923D01*
X215398852Y-156643947D01*
X215408627Y-156644921D01*
X215457915Y-156757890D01*
X215434285Y-156851837D01*
X215437095Y-157072004D01*
X215485871Y-157127927D01*
X215723496Y-157201775D01*
X216105831Y-157256263D01*
X216532696Y-157285316D01*
X216903907Y-157282862D01*
X217119282Y-157242824D01*
X217136047Y-157227981D01*
X217320809Y-157168055D01*
X217666558Y-157211502D01*
X218083247Y-157332735D01*
X218480828Y-157506166D01*
X218748292Y-157686104D01*
X219050292Y-158002016D01*
X219383829Y-158404522D01*
X219465046Y-158512098D01*
X219744876Y-158837574D01*
X219951731Y-158933969D01*
X220045643Y-158902315D01*
X220327705Y-158780951D01*
X220449905Y-158883228D01*
X220457778Y-158967680D01*
X220344908Y-159184148D01*
X220089288Y-159270575D01*
X219815403Y-159187671D01*
X219799790Y-159175366D01*
X219556659Y-159130549D01*
X219262236Y-159308743D01*
X218947232Y-159662913D01*
X218642358Y-160146023D01*
X218378325Y-160711038D01*
X218185843Y-161310923D01*
X218105365Y-161770470D01*
X218144313Y-162607473D01*
X218393068Y-163469596D01*
X218812732Y-164248556D01*
X219134358Y-164634950D01*
X219585535Y-165020427D01*
X220084165Y-165345299D01*
X220554259Y-165568591D01*
X220919828Y-165649326D01*
X220997587Y-165639666D01*
X221157519Y-165587109D01*
X221039839Y-165564242D01*
X220991373Y-165560813D01*
X220817747Y-165462226D01*
X220824098Y-165348371D01*
X220988644Y-165218156D01*
X221224447Y-165243125D01*
X221398324Y-165385911D01*
X221417111Y-165514745D01*
X221254882Y-165667775D01*
X220820519Y-165845226D01*
X220109836Y-166048777D01*
X220042045Y-166065955D01*
X218768266Y-166474865D01*
X217598205Y-167023175D01*
X216568874Y-167683963D01*
X215717286Y-168430308D01*
X215080452Y-169235289D01*
X214744939Y-169918889D01*
X214491156Y-171035752D01*
X214488183Y-172187152D01*
X214724618Y-173314325D01*
X215189058Y-174358506D01*
X215758235Y-175140980D01*
X216344518Y-175703072D01*
X217010412Y-176147954D01*
X217825736Y-176514629D01*
X218746803Y-176810516D01*
X219249339Y-176956929D01*
X219634568Y-177078178D01*
X219831868Y-177151820D01*
X219842390Y-177158686D01*
X219843952Y-177218442D01*
X219772856Y-177349565D01*
X219610757Y-177575160D01*
X219339308Y-177918334D01*
X218940163Y-178402190D01*
X218394974Y-179049835D01*
X217685396Y-179884373D01*
X217579662Y-180008333D01*
X216798860Y-180920956D01*
X216175897Y-181640307D01*
X215687105Y-182189230D01*
X215308817Y-182590568D01*
X215017367Y-182867162D01*
X214789086Y-183041856D01*
X214600307Y-183137493D01*
X214427364Y-183176914D01*
X214290064Y-183183333D01*
X213771152Y-183298681D01*
X213423801Y-183630160D01*
X213267862Y-184155926D01*
X213261111Y-184315715D01*
X213290883Y-184703075D01*
X213414636Y-184912096D01*
X213623075Y-185021270D01*
X213871040Y-185110061D01*
X214060145Y-185135226D01*
X214310561Y-185097032D01*
X214625392Y-185023518D01*
X215067305Y-184857935D01*
X215417112Y-184649907D01*
X215613798Y-184467256D01*
X215963967Y-184111225D01*
X216439511Y-183612595D01*
X217012318Y-183002147D01*
X217654279Y-182310664D01*
X218337282Y-181568927D01*
X219033217Y-180807717D01*
X219713974Y-180057817D01*
X220351443Y-179350008D01*
X220917513Y-178715072D01*
X221384074Y-178183791D01*
X221723015Y-177786946D01*
X221906226Y-177555318D01*
X221927506Y-177520837D01*
X222048707Y-177312244D01*
X222147904Y-177260097D01*
X222227971Y-177383244D01*
X222291786Y-177700537D01*
X222342224Y-178230823D01*
X222382160Y-178992954D01*
X222414470Y-180005779D01*
X222433333Y-180836514D01*
X222457825Y-182000539D01*
X222486078Y-182910216D01*
X222529212Y-183593319D01*
X222598350Y-184077627D01*
X222704613Y-184390915D01*
X222859123Y-184560961D01*
X223073001Y-184615541D01*
X223357368Y-184582433D01*
X223723347Y-184489412D01*
X223878622Y-184446217D01*
X224306911Y-184245316D01*
X224494947Y-183933950D01*
X224448228Y-183490686D01*
X224243699Y-183023274D01*
X223915000Y-182407222D01*
X223842570Y-175140000D01*
X223833949Y-174101866D01*
X222346064Y-174101866D01*
X222340078Y-174725398D01*
X222316023Y-175106256D01*
X222296887Y-175198285D01*
X222073819Y-175592416D01*
X221734175Y-175834908D01*
X221228708Y-175945662D01*
X220508171Y-175944577D01*
X220457778Y-175941439D01*
X219792774Y-175861986D01*
X219106870Y-175722755D01*
X218601809Y-175571973D01*
X217896660Y-175242106D01*
X217218282Y-174813369D01*
X216652341Y-174346337D01*
X216319613Y-173958316D01*
X216180257Y-173650383D01*
X216023945Y-173159605D01*
X215880302Y-172581487D01*
X215855080Y-172460711D01*
X215742153Y-171840455D01*
X215699969Y-171394897D01*
X215725964Y-171026198D01*
X215808190Y-170669715D01*
X216112412Y-170024252D01*
X216645087Y-169363730D01*
X217359151Y-168734251D01*
X218207541Y-168181916D01*
X218508325Y-168024748D01*
X219086202Y-167774451D01*
X219747825Y-167540363D01*
X220425432Y-167340397D01*
X221051258Y-167192463D01*
X221557542Y-167114474D01*
X221876519Y-167124342D01*
X221893312Y-167129993D01*
X221956922Y-167207637D01*
X222012727Y-167406313D01*
X222063278Y-167753339D01*
X222111128Y-168276032D01*
X222158829Y-169001711D01*
X222208934Y-169957692D01*
X222258029Y-171033825D01*
X222304798Y-172230220D01*
X222334224Y-173261521D01*
X222346064Y-174101866D01*
X223833949Y-174101866D01*
X223830350Y-173668525D01*
X223823733Y-172297367D01*
X223822540Y-171051972D01*
X223826594Y-169957791D01*
X223835715Y-169040273D01*
X223849726Y-168324866D01*
X223868448Y-167837020D01*
X223891703Y-167602185D01*
X223895481Y-167590555D01*
X224086050Y-167272654D01*
X224303264Y-166998013D01*
X224486663Y-166694198D01*
X224499281Y-166462475D01*
X224295034Y-166242586D01*
X223910699Y-166033357D01*
X223446449Y-165878662D01*
X223037588Y-165822254D01*
X222840835Y-165807103D01*
X222837238Y-165749621D01*
X223050658Y-165622132D01*
X223331283Y-165481644D01*
X223377813Y-165452240D01*
X222710318Y-165452240D01*
X222539167Y-165592100D01*
X222189579Y-165668825D01*
X222021557Y-165553532D01*
X222010000Y-165473889D01*
X222132668Y-165303650D01*
X222362778Y-165262222D01*
X222640035Y-165320564D01*
X222710318Y-165452240D01*
X223377813Y-165452240D01*
X224244601Y-164904494D01*
X224297371Y-164847896D01*
X223779456Y-164847896D01*
X223755300Y-165037751D01*
X223611631Y-165196567D01*
X223311017Y-165377469D01*
X223163431Y-165337384D01*
X223138889Y-165196631D01*
X223233945Y-164985162D01*
X220449493Y-164985162D01*
X220393025Y-165111723D01*
X220273468Y-165242370D01*
X220098738Y-165221660D01*
X219880104Y-165114031D01*
X219690374Y-164934336D01*
X219735017Y-164789601D01*
X219968988Y-164754472D01*
X220081598Y-164780123D01*
X220372542Y-164884907D01*
X220449493Y-164985162D01*
X223233945Y-164985162D01*
X223236904Y-164978581D01*
X223455799Y-164819906D01*
X223682849Y-164781978D01*
X223779456Y-164847896D01*
X224297371Y-164847896D01*
X224912338Y-164188322D01*
X224948370Y-164115324D01*
X224818815Y-164115324D01*
X224779979Y-164217564D01*
X224623567Y-164412228D01*
X224365644Y-164608600D01*
X224201625Y-164555964D01*
X224164121Y-164292298D01*
X224295730Y-164099103D01*
X224613673Y-164067791D01*
X224818815Y-164115324D01*
X224948370Y-164115324D01*
X225334317Y-163333431D01*
X225369659Y-163134014D01*
X225255556Y-163134014D01*
X225184083Y-163451845D01*
X225011916Y-163619843D01*
X224893684Y-163616428D01*
X224891403Y-163614048D01*
X224281373Y-163614048D01*
X224216073Y-163807576D01*
X223930106Y-164143777D01*
X223844862Y-164226352D01*
X223180775Y-164671820D01*
X222384753Y-164923943D01*
X221542686Y-164968826D01*
X220740465Y-164792572D01*
X220629635Y-164746539D01*
X220282685Y-164602450D01*
X220057790Y-164528080D01*
X220028536Y-164525083D01*
X219915232Y-164424598D01*
X219844574Y-164335686D01*
X219429565Y-164335686D01*
X219402132Y-164411206D01*
X219255871Y-164479012D01*
X219029323Y-164329303D01*
X218856968Y-164122537D01*
X218913912Y-163988150D01*
X218937498Y-163972436D01*
X219161805Y-163962667D01*
X219360864Y-164116837D01*
X219429565Y-164335686D01*
X219844574Y-164335686D01*
X219698108Y-164151382D01*
X219472599Y-163834455D01*
X219153322Y-163289153D01*
X219132861Y-163223557D01*
X218828543Y-163223557D01*
X218821576Y-163455237D01*
X218796134Y-163490162D01*
X218607988Y-163566411D01*
X218485575Y-163470728D01*
X218482222Y-163439319D01*
X218435676Y-163202836D01*
X218396570Y-163086541D01*
X218408793Y-162896359D01*
X218521223Y-162863333D01*
X218707120Y-162977678D01*
X218828543Y-163223557D01*
X219132861Y-163223557D01*
X218988612Y-162761113D01*
X218932357Y-162291695D01*
X218931915Y-162031764D01*
X218623333Y-162031764D01*
X218530936Y-162252129D01*
X218411667Y-162298889D01*
X218241281Y-162176462D01*
X218200000Y-161950540D01*
X218248800Y-161700204D01*
X218411667Y-161683415D01*
X218590138Y-161875851D01*
X218623333Y-162031764D01*
X218931915Y-162031764D01*
X218931384Y-161720175D01*
X219001862Y-161215826D01*
X219127002Y-160839728D01*
X219129025Y-160837409D01*
X218852207Y-160837409D01*
X218730272Y-161078496D01*
X218557249Y-161170000D01*
X218437818Y-161053055D01*
X218447685Y-160817222D01*
X218560359Y-160526805D01*
X218717824Y-160479788D01*
X218827130Y-160592821D01*
X218852207Y-160837409D01*
X219129025Y-160837409D01*
X219290009Y-160652962D01*
X219383489Y-160650702D01*
X219492993Y-160815008D01*
X219493804Y-160973521D01*
X219392581Y-161596815D01*
X219346667Y-162033176D01*
X219350705Y-162371295D01*
X219391878Y-162660960D01*
X219588348Y-163151117D01*
X219957559Y-163670894D01*
X220418948Y-164125465D01*
X220883347Y-164416481D01*
X221543670Y-164556615D01*
X222281865Y-164504608D01*
X222986944Y-164278036D01*
X223412766Y-164015896D01*
X223853770Y-163705569D01*
X224151956Y-163575833D01*
X224281373Y-163614048D01*
X224891403Y-163614048D01*
X224770004Y-163487432D01*
X224839771Y-163272561D01*
X225015459Y-163061309D01*
X225183538Y-163007695D01*
X225255556Y-163134014D01*
X225369659Y-163134014D01*
X225510361Y-162340121D01*
X225508094Y-162087222D01*
X225396667Y-162087222D01*
X225330180Y-162360056D01*
X225204568Y-162440000D01*
X225070125Y-162328514D01*
X225079908Y-162087222D01*
X225173138Y-161822261D01*
X225212011Y-161787733D01*
X224805425Y-161787733D01*
X224779066Y-162565213D01*
X224668775Y-163023350D01*
X224508703Y-163431654D01*
X224352947Y-163563468D01*
X224203413Y-163437794D01*
X224201957Y-163417746D01*
X223767689Y-163417746D01*
X223715720Y-163573915D01*
X223478418Y-163802540D01*
X223122990Y-164050084D01*
X222716638Y-164263006D01*
X222695072Y-164272257D01*
X222226518Y-164371267D01*
X221635777Y-164366206D01*
X221045334Y-164269900D01*
X220577672Y-164095175D01*
X220495923Y-164041964D01*
X219936176Y-163505097D01*
X219615462Y-162878710D01*
X219501577Y-162254423D01*
X219497113Y-161632811D01*
X219593282Y-161203253D01*
X219778215Y-160993736D01*
X220023768Y-161023175D01*
X220281073Y-161242125D01*
X220369004Y-161385075D01*
X220388011Y-161538408D01*
X220337955Y-161535934D01*
X220260826Y-161613294D01*
X220207983Y-161893747D01*
X220199345Y-162025826D01*
X220243143Y-162536042D01*
X220396119Y-162927779D01*
X220626439Y-163131459D01*
X220711716Y-163145555D01*
X220829709Y-163223888D01*
X220810392Y-163286931D01*
X220846513Y-163434762D01*
X221088525Y-163564397D01*
X221460137Y-163652864D01*
X221885057Y-163677192D01*
X222059311Y-163662989D01*
X222492871Y-163539613D01*
X222843276Y-163330338D01*
X222877454Y-163296862D01*
X223132434Y-163098349D01*
X223374815Y-163122443D01*
X223420007Y-163144964D01*
X223674376Y-163318507D01*
X223767689Y-163417746D01*
X224201957Y-163417746D01*
X224188507Y-163232654D01*
X224244948Y-162866863D01*
X224289569Y-162681645D01*
X224329099Y-162281299D01*
X224213030Y-162281299D01*
X224132717Y-162699753D01*
X224006564Y-163097760D01*
X223876474Y-163253323D01*
X223686160Y-163201321D01*
X223515790Y-163082077D01*
X223340697Y-162872227D01*
X223404037Y-162613126D01*
X223409957Y-162601953D01*
X223515158Y-162305793D01*
X223541153Y-162111660D01*
X222521761Y-162111660D01*
X222492612Y-162497368D01*
X222414966Y-162671727D01*
X222233315Y-162771823D01*
X221976474Y-162809647D01*
X221754330Y-162784884D01*
X221676766Y-162697224D01*
X221687217Y-162673797D01*
X221733898Y-162464467D01*
X221753776Y-162103284D01*
X221753708Y-162087222D01*
X221727778Y-162087222D01*
X221657222Y-162157778D01*
X221586667Y-162087222D01*
X221657222Y-162016666D01*
X221727778Y-162087222D01*
X221753708Y-162087222D01*
X221753471Y-162032174D01*
X221782260Y-161628883D01*
X221862239Y-161329202D01*
X221875969Y-161304488D01*
X221954674Y-161288430D01*
X222003441Y-161542047D01*
X222021905Y-161946111D01*
X222039832Y-162385357D01*
X222074389Y-162560068D01*
X222129935Y-162487663D01*
X222145496Y-162440000D01*
X222202332Y-162031955D01*
X222183326Y-161663889D01*
X222154541Y-161389411D01*
X222214925Y-161347968D01*
X222306555Y-161421714D01*
X222455618Y-161705563D01*
X222521761Y-162111660D01*
X223541153Y-162111660D01*
X223557822Y-161987178D01*
X223536694Y-161738258D01*
X223450523Y-161651185D01*
X223422728Y-161662890D01*
X223340888Y-161640768D01*
X223361651Y-161544747D01*
X223315616Y-161316910D01*
X223202043Y-161200947D01*
X221695239Y-161200947D01*
X221676542Y-161262006D01*
X221621945Y-161322060D01*
X221511598Y-161573073D01*
X221450119Y-161973640D01*
X221445556Y-162115444D01*
X221416307Y-162484237D01*
X221342658Y-162699473D01*
X221304445Y-162722222D01*
X221175580Y-162651666D01*
X220457778Y-162651666D01*
X220387222Y-162722222D01*
X220316667Y-162651666D01*
X220387222Y-162581111D01*
X220457778Y-162651666D01*
X221175580Y-162651666D01*
X221152433Y-162638993D01*
X221145324Y-162616389D01*
X221080567Y-162032407D01*
X221137439Y-161645861D01*
X221333130Y-161392000D01*
X221497435Y-161289918D01*
X221607180Y-161240555D01*
X220598889Y-161240555D01*
X220528333Y-161311111D01*
X220457778Y-161240555D01*
X220528333Y-161170000D01*
X220598889Y-161240555D01*
X221607180Y-161240555D01*
X221695239Y-161200947D01*
X223202043Y-161200947D01*
X223116970Y-161114085D01*
X222926672Y-160954278D01*
X222922756Y-160887778D01*
X222922795Y-160887778D01*
X222927660Y-160819088D01*
X222925641Y-160817222D01*
X221022222Y-160817222D01*
X220951667Y-160887778D01*
X220881111Y-160817222D01*
X220951667Y-160746666D01*
X221022222Y-160817222D01*
X222925641Y-160817222D01*
X222777804Y-160680599D01*
X222366851Y-160512858D01*
X221827315Y-160469365D01*
X221281915Y-160545930D01*
X220853371Y-160738364D01*
X220842606Y-160746666D01*
X220494583Y-160976808D01*
X220253628Y-161001032D01*
X220048746Y-160834454D01*
X219993390Y-160671554D01*
X220114320Y-160463886D01*
X220389155Y-160199454D01*
X220707491Y-159949228D01*
X221006372Y-159816663D01*
X221398593Y-159765760D01*
X221767966Y-159759416D01*
X222598091Y-159848345D01*
X223240700Y-160126227D01*
X223733087Y-160611396D01*
X223845324Y-160780654D01*
X224165245Y-161523077D01*
X224213030Y-162281299D01*
X224329099Y-162281299D01*
X224369250Y-161874675D01*
X224177637Y-161113674D01*
X223725428Y-160433239D01*
X223536451Y-160246282D01*
X223145974Y-159928684D01*
X222775679Y-159683589D01*
X222628437Y-159611480D01*
X221905038Y-159482011D01*
X221150959Y-159612649D01*
X220412764Y-159992056D01*
X220119074Y-160222500D01*
X219773159Y-160463265D01*
X219535033Y-160524847D01*
X219448291Y-160427032D01*
X219556527Y-160189603D01*
X219693103Y-160029175D01*
X220148724Y-159684689D01*
X219530057Y-159684689D01*
X219433167Y-159906542D01*
X219216008Y-160153443D01*
X219038371Y-160126412D01*
X218988959Y-160061900D01*
X218995450Y-159861495D01*
X219145042Y-159644410D01*
X219344000Y-159519351D01*
X219445703Y-159532206D01*
X219530057Y-159684689D01*
X220148724Y-159684689D01*
X220368860Y-159518249D01*
X221172153Y-159226680D01*
X222040521Y-159165135D01*
X222911505Y-159344282D01*
X223147673Y-159439176D01*
X223807959Y-159829136D01*
X224278253Y-160350030D01*
X224599085Y-160996466D01*
X224805425Y-161787733D01*
X225212011Y-161787733D01*
X225272006Y-161734444D01*
X225365746Y-161855300D01*
X225396667Y-162087222D01*
X225508094Y-162087222D01*
X225505335Y-161779482D01*
X225438546Y-161137575D01*
X225428962Y-161100835D01*
X225250671Y-161100835D01*
X225185746Y-161285675D01*
X225123954Y-161311111D01*
X224981910Y-161194336D01*
X224899403Y-161018254D01*
X224860551Y-160720293D01*
X224973708Y-160620293D01*
X225105056Y-160670309D01*
X225222435Y-160850285D01*
X225250671Y-161100835D01*
X225428962Y-161100835D01*
X225315253Y-160664947D01*
X225104003Y-160249770D01*
X225052791Y-160170363D01*
X224957347Y-160006075D01*
X224816213Y-160006075D01*
X224762196Y-160134043D01*
X224699234Y-160177158D01*
X224477953Y-160189480D01*
X224288901Y-160036483D01*
X224220098Y-159819113D01*
X224278286Y-159694381D01*
X224474305Y-159671513D01*
X224656841Y-159805317D01*
X224816213Y-160006075D01*
X224957347Y-160006075D01*
X224868337Y-159852863D01*
X224812107Y-159668243D01*
X224854947Y-159647186D01*
X225001789Y-159779414D01*
X225277300Y-160100791D01*
X225649957Y-160568424D01*
X226088232Y-161139419D01*
X226560600Y-161770883D01*
X227035536Y-162419925D01*
X227481514Y-163043650D01*
X227867007Y-163599166D01*
X228160491Y-164043580D01*
X228330440Y-164334000D01*
X228360000Y-164416049D01*
X228286649Y-164603549D01*
X228102912Y-164919218D01*
X228021686Y-165042667D01*
X227782856Y-165489617D01*
X227573271Y-166038320D01*
X227509387Y-166266452D01*
X227432163Y-167162887D01*
X227598263Y-168076176D01*
X227980563Y-168942504D01*
X228551940Y-169698055D01*
X229190218Y-170221011D01*
X229826365Y-170624444D01*
X229199016Y-170625823D01*
X228496138Y-170733033D01*
X227760037Y-171016075D01*
X227107334Y-171421336D01*
X226766734Y-171743995D01*
X226384445Y-172198320D01*
X226384445Y-180914508D01*
X225670934Y-180884754D01*
X225217317Y-180887282D01*
X224938057Y-180965799D01*
X224728375Y-181154679D01*
X224686294Y-181207778D01*
X224503148Y-181454161D01*
X224410501Y-181639100D01*
X224438906Y-181783046D01*
X224618915Y-181906450D01*
X224981083Y-182029763D01*
X225555961Y-182173436D01*
X226374102Y-182357922D01*
X226419722Y-182368089D01*
X227372222Y-182580392D01*
X227373009Y-178331029D01*
X227377988Y-177170498D01*
X227391757Y-176109704D01*
X227413237Y-175184511D01*
X227441346Y-174430783D01*
X227475002Y-173884385D01*
X227513124Y-173581181D01*
X227516644Y-173567380D01*
X227752324Y-173101391D01*
X228169143Y-172795712D01*
X228789520Y-172640763D01*
X229635877Y-172626965D01*
X229707555Y-172631254D01*
X230345411Y-172697560D01*
X230787125Y-172813544D01*
X231117489Y-173001934D01*
X231131786Y-173013019D01*
X231346447Y-173188934D01*
X231515422Y-173364282D01*
X231644228Y-173573616D01*
X231738382Y-173851491D01*
X231803399Y-174232461D01*
X231844797Y-174751079D01*
X231868092Y-175441899D01*
X231878801Y-176339476D01*
X231882441Y-177478362D01*
X231882778Y-177716945D01*
X231887778Y-181493335D01*
X231319732Y-181402501D01*
X230877125Y-181374680D01*
X230575100Y-181482777D01*
X230473065Y-181563815D01*
X230228186Y-181908083D01*
X230207341Y-182241175D01*
X230402478Y-182489769D01*
X230582500Y-182560378D01*
X230934754Y-182643137D01*
X231431563Y-182763236D01*
X231797555Y-182853197D01*
X232239134Y-182954710D01*
X232552674Y-183011935D01*
X232659779Y-183014853D01*
X232672731Y-182868618D01*
X232693080Y-182473920D01*
X232719481Y-181864382D01*
X232750592Y-181073629D01*
X232785066Y-180135282D01*
X232821560Y-179082966D01*
X232843899Y-178409857D01*
X232886038Y-177111709D01*
X232923438Y-176065050D01*
X232962994Y-175239386D01*
X233011602Y-174604224D01*
X233076156Y-174129070D01*
X233163551Y-173783431D01*
X233280682Y-173536813D01*
X233434445Y-173358722D01*
X233631734Y-173218666D01*
X233879445Y-173086150D01*
X234069327Y-172990346D01*
X234687292Y-172779837D01*
X235402322Y-172693688D01*
X236106036Y-172733423D01*
X236690054Y-172900567D01*
X236787541Y-172952112D01*
X237038948Y-173110545D01*
X237238957Y-173277773D01*
X237392997Y-173485968D01*
X237506492Y-173767299D01*
X237584870Y-174153936D01*
X237633555Y-174678049D01*
X237657975Y-175371809D01*
X237663556Y-176267386D01*
X237655723Y-177396949D01*
X237648507Y-178056528D01*
X237633798Y-179087960D01*
X237614982Y-180025765D01*
X237593229Y-180833340D01*
X237569712Y-181474082D01*
X237545601Y-181911387D01*
X237522068Y-182108651D01*
X237518611Y-182115325D01*
X237348371Y-182118575D01*
X237024813Y-182024947D01*
X236900589Y-181976201D01*
X236342867Y-181845828D01*
X235867019Y-181971172D01*
X235441948Y-182363529D01*
X235306366Y-182555297D01*
X235162573Y-182773184D01*
X235090403Y-182925915D01*
X235126222Y-183034444D01*
X235306395Y-183119723D01*
X235667288Y-183202703D01*
X236245265Y-183304337D01*
X236756111Y-183390587D01*
X237379124Y-183499022D01*
X237915456Y-183596930D01*
X238292107Y-183670748D01*
X238414167Y-183698672D01*
X238478278Y-183702175D01*
X238530255Y-183656208D01*
X238571363Y-183534491D01*
X238602868Y-183310742D01*
X238626035Y-182958680D01*
X238642130Y-182452023D01*
X238652419Y-181764489D01*
X238658167Y-180869798D01*
X238660639Y-179741667D01*
X238661111Y-178570522D01*
X238664838Y-177303613D01*
X238675503Y-176134891D01*
X238692337Y-175096106D01*
X238714569Y-174219004D01*
X238741429Y-173535336D01*
X238772147Y-173076850D01*
X238798852Y-172893972D01*
X239023098Y-172392186D01*
X239347744Y-171995958D01*
X239707493Y-171776076D01*
X239850998Y-171753333D01*
X240141233Y-171817869D01*
X240556975Y-171982590D01*
X240807715Y-172106111D01*
X241192535Y-172303871D01*
X241467213Y-172431880D01*
X241547425Y-172458889D01*
X241624491Y-172337630D01*
X241629985Y-172028731D01*
X241574629Y-171614509D01*
X241469148Y-171177282D01*
X241333740Y-170818589D01*
X240986631Y-170302944D01*
X240482556Y-169947245D01*
X240435124Y-169923789D01*
X239947633Y-169748021D01*
X239518753Y-169752397D01*
X239091817Y-169956477D01*
X238610154Y-170379819D01*
X238369906Y-170636572D01*
X237725923Y-171350715D01*
X236857413Y-171058135D01*
X236196557Y-170886813D01*
X235492719Y-170782400D01*
X235158653Y-170765555D01*
X234407470Y-170849372D01*
X233795532Y-171123944D01*
X233263851Y-171623952D01*
X232946111Y-172066316D01*
X232696172Y-172430103D01*
X232498001Y-172672907D01*
X232418838Y-172733449D01*
X232300562Y-172622600D01*
X232145008Y-172340311D01*
X232119525Y-172282500D01*
X231694424Y-171640584D01*
X231016979Y-171105275D01*
X230829445Y-171000030D01*
X230406111Y-170776855D01*
X231252778Y-170768106D01*
X232272844Y-170629783D01*
X233163320Y-170243080D01*
X233178768Y-170230135D01*
X232258494Y-170230135D01*
X232236064Y-170407418D01*
X232032674Y-170563969D01*
X231781945Y-170622283D01*
X231622432Y-170512111D01*
X231605556Y-170429235D01*
X231620418Y-170405317D01*
X231089278Y-170405317D01*
X231084438Y-170562269D01*
X230870116Y-170621124D01*
X230742701Y-170624444D01*
X230430190Y-170576300D01*
X230370127Y-170448055D01*
X230545462Y-170274662D01*
X230819285Y-170235125D01*
X231047947Y-170337981D01*
X231089278Y-170405317D01*
X231620418Y-170405317D01*
X231719201Y-170246346D01*
X231795121Y-170215585D01*
X229912222Y-170215585D01*
X229801656Y-170277219D01*
X229556235Y-170257423D01*
X229305375Y-170173815D01*
X229227814Y-170122414D01*
X229241654Y-169984615D01*
X229271656Y-169927895D01*
X229444344Y-169865767D01*
X229689058Y-169945772D01*
X229878161Y-170110587D01*
X229912222Y-170215585D01*
X231795121Y-170215585D01*
X231964889Y-170146799D01*
X232199748Y-170174162D01*
X232258494Y-170230135D01*
X233178768Y-170230135D01*
X233623019Y-169857878D01*
X233374735Y-169857878D01*
X233288463Y-170002007D01*
X233069929Y-170160031D01*
X232846991Y-170195085D01*
X232735136Y-170091479D01*
X232734445Y-170077278D01*
X232842040Y-169868984D01*
X233073775Y-169714741D01*
X233293071Y-169703882D01*
X233299560Y-169707636D01*
X233374735Y-169857878D01*
X233623019Y-169857878D01*
X233910596Y-169616905D01*
X234327586Y-169011874D01*
X234206838Y-169011874D01*
X234065333Y-169224015D01*
X233831796Y-169396534D01*
X233674451Y-169387805D01*
X233666868Y-169227565D01*
X233745996Y-169094937D01*
X233904342Y-168883190D01*
X233955126Y-168811147D01*
X234079784Y-168825491D01*
X234145360Y-168860434D01*
X234206838Y-169011874D01*
X234327586Y-169011874D01*
X234501064Y-168760167D01*
X234588584Y-168584401D01*
X234856760Y-167967682D01*
X234881277Y-167880849D01*
X234687946Y-167880849D01*
X234674969Y-168137669D01*
X234627766Y-168275660D01*
X234480509Y-168429673D01*
X234315818Y-168380966D01*
X234234845Y-168182921D01*
X234248163Y-168075331D01*
X234391129Y-167850928D01*
X234514791Y-167802222D01*
X234687946Y-167880849D01*
X234881277Y-167880849D01*
X234972575Y-167557510D01*
X234938670Y-167324589D01*
X234757686Y-167239620D01*
X234710000Y-167237778D01*
X234489742Y-167137968D01*
X234426902Y-166913087D01*
X234504250Y-166726285D01*
X234132658Y-166726285D01*
X234086426Y-167527981D01*
X233836347Y-168299046D01*
X233410755Y-168983703D01*
X232837985Y-169526176D01*
X232146371Y-169870689D01*
X231926864Y-169925754D01*
X231421633Y-169974544D01*
X230837914Y-169959358D01*
X230295090Y-169889245D01*
X229912544Y-169773250D01*
X229912222Y-169773083D01*
X229652987Y-169608251D01*
X229463031Y-169466191D01*
X228890791Y-169466191D01*
X228856315Y-169608146D01*
X228769008Y-169763404D01*
X228655356Y-169695835D01*
X228561589Y-169574418D01*
X228404416Y-169317983D01*
X228360000Y-169186363D01*
X228462640Y-169083262D01*
X228674895Y-169095283D01*
X228853273Y-169212707D01*
X228858065Y-169220090D01*
X228890791Y-169466191D01*
X229463031Y-169466191D01*
X229320836Y-169359850D01*
X228990827Y-169089453D01*
X228738019Y-168858634D01*
X228637468Y-168728966D01*
X228637571Y-168727417D01*
X228586260Y-168557597D01*
X228559162Y-168499145D01*
X228177052Y-168499145D01*
X228152146Y-168604126D01*
X228063176Y-168766884D01*
X227974856Y-168693842D01*
X227899576Y-168541704D01*
X227820248Y-168265540D01*
X227846296Y-168127778D01*
X228002800Y-168103169D01*
X228134120Y-168259771D01*
X228177052Y-168499145D01*
X228559162Y-168499145D01*
X228447915Y-168259180D01*
X228441103Y-168245951D01*
X228302497Y-167752880D01*
X228280903Y-167167222D01*
X227936667Y-167167222D01*
X227863066Y-167450953D01*
X227725000Y-167520000D01*
X227554762Y-167397331D01*
X227513333Y-167167222D01*
X227586934Y-166883491D01*
X227725000Y-166814444D01*
X227895239Y-166937112D01*
X227936667Y-167167222D01*
X228280903Y-167167222D01*
X228275376Y-167017353D01*
X228280446Y-166892576D01*
X228431751Y-165987359D01*
X228461081Y-165928905D01*
X228138830Y-165928905D01*
X228084635Y-166187401D01*
X227929737Y-166370789D01*
X227849653Y-166391111D01*
X227674363Y-166289794D01*
X227656605Y-166214722D01*
X227731007Y-165931298D01*
X227894564Y-165745683D01*
X228048754Y-165738173D01*
X228138830Y-165928905D01*
X228461081Y-165928905D01*
X228796142Y-165261149D01*
X229378669Y-164701657D01*
X228715176Y-164701657D01*
X228713336Y-164921977D01*
X228543251Y-165145693D01*
X228294300Y-165260962D01*
X228267201Y-165262222D01*
X228141260Y-165206426D01*
X228209220Y-164998135D01*
X228214683Y-164987859D01*
X228437184Y-164681471D01*
X228631093Y-164622719D01*
X228715176Y-164701657D01*
X229378669Y-164701657D01*
X229384762Y-164695805D01*
X229771111Y-164465500D01*
X230623534Y-164173652D01*
X231484482Y-164135849D01*
X232304831Y-164334630D01*
X233035457Y-164752533D01*
X233627235Y-165372097D01*
X233946708Y-165949733D01*
X234132658Y-166726285D01*
X234504250Y-166726285D01*
X234525503Y-166674959D01*
X234685729Y-166562953D01*
X234856452Y-166369441D01*
X234846918Y-166032274D01*
X234790083Y-165879756D01*
X234645559Y-165879756D01*
X234626596Y-165988566D01*
X234459158Y-166100958D01*
X234255590Y-165940604D01*
X234182389Y-165833208D01*
X234084567Y-165583528D01*
X234169853Y-165458872D01*
X234354274Y-165479872D01*
X234544089Y-165656403D01*
X234645559Y-165879756D01*
X234790083Y-165879756D01*
X234685169Y-165598222D01*
X234399248Y-165114051D01*
X234192076Y-164849685D01*
X234053033Y-164849685D01*
X233996089Y-164984072D01*
X233972502Y-164999785D01*
X233748196Y-165009554D01*
X233549136Y-164855384D01*
X233480436Y-164636536D01*
X233507868Y-164561015D01*
X233654129Y-164493209D01*
X233880678Y-164642918D01*
X234053033Y-164849685D01*
X234192076Y-164849685D01*
X234017197Y-164626528D01*
X233567060Y-164182422D01*
X233362168Y-164034485D01*
X233085709Y-164034485D01*
X233027805Y-164173678D01*
X232742202Y-164226495D01*
X232687204Y-164224293D01*
X232442459Y-164149150D01*
X232431286Y-164051018D01*
X229630000Y-164051018D01*
X229523848Y-164274168D01*
X229290801Y-164388023D01*
X229058974Y-164345756D01*
X228999376Y-164281524D01*
X229039219Y-164120849D01*
X229193438Y-163999302D01*
X229485412Y-163868285D01*
X229609186Y-163905563D01*
X229630000Y-164051018D01*
X232431286Y-164051018D01*
X232420575Y-163956944D01*
X232497337Y-163755586D01*
X232635005Y-163736678D01*
X232888785Y-163858191D01*
X233085709Y-164034485D01*
X233362168Y-164034485D01*
X233076879Y-163828501D01*
X233030042Y-163801712D01*
X232849713Y-163710000D01*
X232028889Y-163710000D01*
X231908129Y-163816076D01*
X231676111Y-163851111D01*
X231387788Y-163773938D01*
X231377783Y-163750716D01*
X230747659Y-163750716D01*
X230570028Y-163871054D01*
X230511945Y-163886493D01*
X230182385Y-163891399D01*
X230054073Y-163722403D01*
X230053333Y-163701672D01*
X230174143Y-163601839D01*
X230406111Y-163568889D01*
X230685101Y-163626228D01*
X230747659Y-163750716D01*
X231377783Y-163750716D01*
X231323333Y-163624347D01*
X231407490Y-163464972D01*
X231546541Y-163483236D01*
X231815380Y-163559379D01*
X231899319Y-163568889D01*
X232025201Y-163676613D01*
X232028889Y-163710000D01*
X232849713Y-163710000D01*
X232578033Y-163571829D01*
X232179656Y-163442686D01*
X231716761Y-163386911D01*
X231195598Y-163376729D01*
X230631195Y-163398661D01*
X230144289Y-163455569D01*
X229832344Y-163535623D01*
X229814738Y-163544331D01*
X229557425Y-163632019D01*
X229368901Y-163508728D01*
X229293803Y-163408628D01*
X229160821Y-163160469D01*
X229208651Y-162945663D01*
X229320732Y-162777566D01*
X229657911Y-162507419D01*
X229930222Y-162444434D01*
X230286240Y-162354379D01*
X230494666Y-162201913D01*
X230612881Y-162032100D01*
X230523924Y-162027139D01*
X230441389Y-162056373D01*
X230232177Y-162084695D01*
X230231814Y-162035981D01*
X229035608Y-162035981D01*
X228933954Y-162216875D01*
X228763357Y-162398301D01*
X228701054Y-162440000D01*
X228602189Y-162334353D01*
X228376328Y-162050829D01*
X228062804Y-161639553D01*
X227871666Y-161383031D01*
X227531600Y-160917636D01*
X227266330Y-160544029D01*
X227113079Y-160315180D01*
X227090000Y-160270617D01*
X227211212Y-160285429D01*
X227520200Y-160360170D01*
X227934992Y-160471792D01*
X228373616Y-160597244D01*
X228754101Y-160713479D01*
X228994474Y-160797446D01*
X229033309Y-160817049D01*
X229019628Y-160954117D01*
X228947230Y-161183058D01*
X228905982Y-161586540D01*
X228970986Y-161756531D01*
X229035608Y-162035981D01*
X230231814Y-162035981D01*
X230231033Y-161931414D01*
X230414113Y-161624731D01*
X230654227Y-161364966D01*
X230819662Y-161333121D01*
X230866574Y-161524608D01*
X230840673Y-161669389D01*
X230817303Y-161922421D01*
X230950920Y-162090036D01*
X231244177Y-162233833D01*
X231596684Y-162368512D01*
X231836485Y-162437592D01*
X231861068Y-162440000D01*
X231948755Y-162313588D01*
X232098170Y-161968739D01*
X232288934Y-161457028D01*
X232408246Y-161103720D01*
X229452392Y-161103720D01*
X229424136Y-161160611D01*
X229289582Y-161306500D01*
X229264829Y-161203617D01*
X229299084Y-161093358D01*
X229402973Y-160939682D01*
X229449896Y-160942859D01*
X229452392Y-161103720D01*
X232408246Y-161103720D01*
X232500671Y-160830033D01*
X232516141Y-160781944D01*
X232742968Y-160075066D01*
X232958031Y-159405871D01*
X233135813Y-158853708D01*
X233243875Y-158519235D01*
X233383718Y-158058013D01*
X233407381Y-157788621D01*
X233287834Y-157635119D01*
X232998046Y-157521564D01*
X232875556Y-157484439D01*
X232527747Y-157375417D01*
X232329044Y-157303802D01*
X232311111Y-157292805D01*
X232351836Y-157158058D01*
X232464093Y-156801516D01*
X232633010Y-156270053D01*
X232843713Y-155610544D01*
X232964470Y-155233752D01*
X233266604Y-154285276D01*
X233609117Y-153199349D01*
X233950363Y-152108562D01*
X234248696Y-151145504D01*
X234254359Y-151127090D01*
X234522733Y-150280329D01*
X234735336Y-149674920D01*
X234905712Y-149278639D01*
X235047406Y-149059258D01*
X235153222Y-148988356D01*
X235343053Y-148850203D01*
X235413114Y-148526343D01*
X235415556Y-148412655D01*
X235415556Y-147905555D01*
X234519925Y-147905555D01*
X233934657Y-147933029D01*
X233548161Y-148027039D01*
X233320480Y-148169051D01*
X233099440Y-148395172D01*
X233016667Y-148541551D01*
X233141329Y-148747055D01*
X233451061Y-148923979D01*
X233849481Y-149022902D01*
X233969167Y-149029956D01*
X234281460Y-149065309D01*
X234426498Y-149145383D01*
X234427778Y-149154366D01*
X234386336Y-149330169D01*
X234274109Y-149713595D01*
X234109247Y-150244423D01*
X233949336Y-150741866D01*
X233684536Y-151563182D01*
X233388045Y-152496845D01*
X233109841Y-153385054D01*
X233015230Y-153691111D01*
X232762291Y-154506195D01*
X232475442Y-155419184D01*
X232202617Y-156277860D01*
X232104323Y-156583889D01*
X231890438Y-157249275D01*
X231687697Y-157884185D01*
X231525467Y-158396461D01*
X231461286Y-158601796D01*
X231299071Y-159046593D01*
X231123030Y-159282040D01*
X230867827Y-159376265D01*
X230704423Y-159391020D01*
X230456036Y-159501362D01*
X230389649Y-159733018D01*
X230322764Y-160048185D01*
X230239382Y-160193729D01*
X230165333Y-160167149D01*
X230140890Y-159927777D01*
X230159393Y-159539380D01*
X230214183Y-159065723D01*
X230298602Y-158570573D01*
X230405990Y-158117695D01*
X230480035Y-157889166D01*
X230603606Y-157510962D01*
X230647544Y-157267906D01*
X230626563Y-157218889D01*
X230536455Y-157343290D01*
X230403349Y-157668635D01*
X230263304Y-158100833D01*
X230087472Y-158611721D01*
X229891741Y-159046715D01*
X229747073Y-159274095D01*
X229554600Y-159547356D01*
X229488889Y-159732706D01*
X229428345Y-159889145D01*
X229247496Y-159791179D01*
X229088175Y-159618203D01*
X228816912Y-159399742D01*
X228481735Y-159261669D01*
X228169897Y-159221391D01*
X227968652Y-159296316D01*
X227936667Y-159388472D01*
X227867351Y-159587339D01*
X227799048Y-159617778D01*
X227731962Y-159506655D01*
X227791313Y-159276160D01*
X227842642Y-158985082D01*
X227678536Y-158778253D01*
X227611431Y-158732054D01*
X227244310Y-158532818D01*
X226996601Y-158433109D01*
X226771609Y-158409709D01*
X226649057Y-158571454D01*
X226597688Y-158763930D01*
X226502726Y-159082976D01*
X226405765Y-159251820D01*
X226405404Y-159252046D01*
X226337010Y-159207300D01*
X223933387Y-159207300D01*
X223889039Y-159366622D01*
X223669961Y-159380100D01*
X223553659Y-159330972D01*
X223334939Y-159162690D01*
X223280000Y-159056696D01*
X223371951Y-158875620D01*
X223606722Y-158898300D01*
X223754298Y-158985902D01*
X223933387Y-159207300D01*
X226337010Y-159207300D01*
X226285123Y-159173354D01*
X226048917Y-158911012D01*
X225884827Y-158700555D01*
X222856667Y-158700555D01*
X222733999Y-158870794D01*
X222503889Y-158912222D01*
X222220158Y-158838621D01*
X222156020Y-158710370D01*
X221586667Y-158710370D01*
X221482245Y-158859413D01*
X221251359Y-158885873D01*
X221017583Y-158798053D01*
X220915683Y-158665278D01*
X220985223Y-158527461D01*
X221222130Y-158488889D01*
X221518021Y-158562842D01*
X221586667Y-158710370D01*
X222156020Y-158710370D01*
X222151111Y-158700555D01*
X222273780Y-158530317D01*
X222503889Y-158488889D01*
X222787620Y-158562490D01*
X222856667Y-158700555D01*
X225884827Y-158700555D01*
X225739815Y-158514568D01*
X225624616Y-158356105D01*
X223985556Y-158356105D01*
X223877924Y-158485088D01*
X223844445Y-158488889D01*
X223720604Y-158374030D01*
X223703333Y-158268894D01*
X223771743Y-158122836D01*
X223844445Y-158136111D01*
X223980173Y-158316515D01*
X223985556Y-158356105D01*
X225624616Y-158356105D01*
X225610321Y-158336442D01*
X225239754Y-157839998D01*
X224965811Y-157541214D01*
X224739545Y-157395966D01*
X224527183Y-157360000D01*
X224179138Y-157446726D01*
X224003032Y-157605982D01*
X223899855Y-157746735D01*
X223752238Y-157779410D01*
X223475369Y-157705164D01*
X223230119Y-157616523D01*
X222785223Y-157491021D01*
X222401634Y-157448266D01*
X222287989Y-157461331D01*
X222009801Y-157469411D01*
X221889723Y-157399407D01*
X221692919Y-157328240D01*
X221275468Y-157331234D01*
X221029463Y-157357470D01*
X220582697Y-157404765D01*
X220290601Y-157373364D01*
X220036255Y-157223559D01*
X219702741Y-156915643D01*
X219688908Y-156902204D01*
X219228643Y-156487937D01*
X218721610Y-156078685D01*
X218514597Y-155927351D01*
X218191134Y-155667867D01*
X218010637Y-155454006D01*
X217997578Y-155369486D01*
X217991288Y-155159562D01*
X217911800Y-155024463D01*
X217838636Y-154867259D01*
X217876542Y-154832976D01*
X216704787Y-154832976D01*
X216702787Y-154845155D01*
X216548147Y-154863761D01*
X216268201Y-154766569D01*
X215966921Y-154602342D01*
X215748280Y-154419841D01*
X215724051Y-154386141D01*
X215667354Y-154193484D01*
X215582596Y-153781348D01*
X215481108Y-153209714D01*
X215374223Y-152538562D01*
X215371173Y-152518326D01*
X215255660Y-151709425D01*
X215192267Y-151153225D01*
X215179868Y-150825273D01*
X215217339Y-150701117D01*
X215289351Y-150739537D01*
X215377117Y-150915279D01*
X215528007Y-151293675D01*
X215722414Y-151817774D01*
X215940732Y-152430628D01*
X216163356Y-153075287D01*
X216370680Y-153694801D01*
X216543097Y-154232220D01*
X216661001Y-154630595D01*
X216704787Y-154832976D01*
X217876542Y-154832976D01*
X217971445Y-154747145D01*
X218181874Y-154664063D01*
X218482365Y-154515162D01*
X218620194Y-154359652D01*
X218621173Y-154347584D01*
X218572741Y-154149773D01*
X218471307Y-153959998D01*
X218375802Y-153867921D01*
X218343272Y-153924791D01*
X218220256Y-154062788D01*
X217910874Y-154226466D01*
X217717245Y-154300487D01*
X217093379Y-154513060D01*
X216577963Y-153079030D01*
X216341748Y-152424440D01*
X216118805Y-151811223D01*
X215939922Y-151323838D01*
X215861274Y-151112977D01*
X215717689Y-150719813D01*
X215676277Y-150522565D01*
X215738092Y-150453669D01*
X215871667Y-150445555D01*
X216059248Y-150534146D01*
X216083333Y-150610185D01*
X216142686Y-150702104D01*
X216181193Y-150676955D01*
X216151287Y-150534578D01*
X215961486Y-150302038D01*
X215685807Y-150047074D01*
X215398270Y-149837426D01*
X215172892Y-149740835D01*
X215157402Y-149740000D01*
X214975311Y-149658547D01*
X214954445Y-149594460D01*
X214839139Y-149433582D01*
X214707500Y-149367765D01*
X213876800Y-149065756D01*
X213313151Y-148794179D01*
X213175562Y-148681666D01*
X211850000Y-148681666D01*
X211779445Y-148752222D01*
X211708889Y-148681666D01*
X211779445Y-148611111D01*
X211850000Y-148681666D01*
X213175562Y-148681666D01*
X213021529Y-148555707D01*
X212978889Y-148439019D01*
X212882235Y-148258333D01*
X210862222Y-148258333D01*
X210791667Y-148328889D01*
X210721111Y-148258333D01*
X210791667Y-148187778D01*
X210862222Y-148258333D01*
X212882235Y-148258333D01*
X212855220Y-148207832D01*
X212472645Y-147972483D01*
X212308611Y-147900561D01*
X211869108Y-147711210D01*
X211509016Y-147542990D01*
X211393304Y-147482242D01*
X210919512Y-147341749D01*
X210448634Y-147413372D01*
G36*
X212429681Y-166743270D02*
G01*
X212152688Y-166889163D01*
X211772602Y-167187122D01*
X211369174Y-167574230D01*
X211348478Y-167596232D01*
X210635288Y-168358722D01*
X209655144Y-168012893D01*
X209092511Y-167838374D01*
X208562097Y-167714117D01*
X208181111Y-167667186D01*
X207444981Y-167798434D01*
X206726341Y-168160978D01*
X206093780Y-168708554D01*
X205615885Y-169394901D01*
X205613908Y-169398782D01*
X205412064Y-169795898D01*
X204856310Y-169057522D01*
X204366360Y-168456713D01*
X203931088Y-168062584D01*
X203478226Y-167829757D01*
X202935506Y-167712851D01*
X202675761Y-167688287D01*
X201669376Y-167712039D01*
X200818204Y-167951143D01*
X200080214Y-168419098D01*
X199902571Y-168579074D01*
X199291111Y-169164955D01*
X199291111Y-177951175D01*
X198573214Y-177921421D01*
X198111657Y-177925232D01*
X197824798Y-178006300D01*
X197608779Y-178196524D01*
X197585436Y-178224799D01*
X197391522Y-178516935D01*
X197315556Y-178730264D01*
X197441951Y-178818259D01*
X197774954Y-178946437D01*
X198245292Y-179095490D01*
X198783694Y-179246109D01*
X199320885Y-179378988D01*
X199787594Y-179474817D01*
X200114547Y-179514289D01*
X200129021Y-179514444D01*
X200177508Y-179391604D01*
X200216256Y-179018603D01*
X200245504Y-178388719D01*
X200265489Y-177495230D01*
X200276449Y-176331416D01*
X200278889Y-175276579D01*
X200281324Y-173958111D01*
X200291506Y-172891368D01*
X200313751Y-172045874D01*
X200352374Y-171391153D01*
X200411693Y-170896728D01*
X200496021Y-170532124D01*
X200609676Y-170266864D01*
X200756974Y-170070472D01*
X200942229Y-169912472D01*
X201048876Y-169839369D01*
X201312107Y-169710203D01*
X201645330Y-169651716D01*
X202131771Y-169654255D01*
X202461092Y-169675593D01*
X203403507Y-169810318D01*
X204095321Y-170051811D01*
X204531245Y-170397902D01*
X204633782Y-170567329D01*
X204692051Y-170848023D01*
X204737209Y-171406230D01*
X204769297Y-172243060D01*
X204788359Y-173359626D01*
X204794445Y-174709878D01*
X204794445Y-178499811D01*
X204226834Y-178423678D01*
X203690417Y-178448064D01*
X203303699Y-178660491D01*
X203113111Y-179030132D01*
X203101111Y-179171125D01*
X203128472Y-179330033D01*
X203245377Y-179451500D01*
X203504059Y-179561003D01*
X203956752Y-179684021D01*
X204335244Y-179773084D01*
X204881913Y-179895722D01*
X205308822Y-179985946D01*
X205553396Y-180030797D01*
X205587624Y-180032441D01*
X205596314Y-179890945D01*
X205612467Y-179500833D01*
X205634901Y-178895579D01*
X205662434Y-178108657D01*
X205693882Y-177173539D01*
X205728064Y-176123700D01*
X205749285Y-175456108D01*
X205791493Y-174137368D01*
X205830512Y-173070801D01*
X205872429Y-172226509D01*
X205923334Y-171574596D01*
X205989313Y-171085165D01*
X206076456Y-170728319D01*
X206190849Y-170474161D01*
X206338581Y-170292794D01*
X206525740Y-170154321D01*
X206758414Y-170028845D01*
X206865266Y-169975759D01*
X207493822Y-169777884D01*
X208241218Y-169708368D01*
X208984359Y-169768060D01*
X209598422Y-169956946D01*
X209961597Y-170177936D01*
X210223543Y-170456174D01*
X210403605Y-170841595D01*
X210521128Y-171384133D01*
X210595458Y-172133721D01*
X210622384Y-172600000D01*
X210639370Y-173167551D01*
X210643982Y-173881962D01*
X210637723Y-174695543D01*
X210622093Y-175560602D01*
X210598596Y-176429451D01*
X210568732Y-177254400D01*
X210534004Y-177987757D01*
X210495913Y-178581834D01*
X210455961Y-178988940D01*
X210415760Y-179161277D01*
X210256039Y-179155287D01*
X209931235Y-179061454D01*
X209756902Y-178997056D01*
X209313858Y-178858196D01*
X208991892Y-178861600D01*
X208821431Y-178921900D01*
X208557055Y-179120995D01*
X208313458Y-179425556D01*
X208142803Y-179748302D01*
X208097251Y-180001954D01*
X208133825Y-180072417D01*
X208314508Y-180136954D01*
X208710394Y-180231191D01*
X209257879Y-180341061D01*
X209728331Y-180425028D01*
X210355886Y-180534947D01*
X210887970Y-180634640D01*
X211257568Y-180711173D01*
X211386386Y-180745032D01*
X211434883Y-180714306D01*
X211474404Y-180566033D01*
X211505760Y-180277379D01*
X211529762Y-179825506D01*
X211547221Y-179187581D01*
X211558947Y-178340767D01*
X211565752Y-177262229D01*
X211568446Y-175929132D01*
X211568565Y-175613708D01*
X211573039Y-174151872D01*
X211585653Y-172869636D01*
X211605898Y-171786487D01*
X211633263Y-170921911D01*
X211667237Y-170295391D01*
X211707311Y-169926414D01*
X211718839Y-169874448D01*
X211981682Y-169262663D01*
X212359361Y-168908424D01*
X212852599Y-168811479D01*
X213462119Y-168971573D01*
X213804682Y-169144477D01*
X214171766Y-169346391D01*
X214429231Y-169473318D01*
X214494615Y-169495555D01*
X214549087Y-169374833D01*
X214530655Y-169065190D01*
X214455759Y-168645415D01*
X214340835Y-168194297D01*
X214202322Y-167790622D01*
X214091759Y-167564637D01*
X213693463Y-167120237D01*
X213181387Y-166822270D01*
X212648399Y-166716629D01*
X212429681Y-166743270D01*
G37*
X212429681Y-166743270D02*
X212152688Y-166889163D01*
X211772602Y-167187122D01*
X211369174Y-167574230D01*
X211348478Y-167596232D01*
X210635288Y-168358722D01*
X209655144Y-168012893D01*
X209092511Y-167838374D01*
X208562097Y-167714117D01*
X208181111Y-167667186D01*
X207444981Y-167798434D01*
X206726341Y-168160978D01*
X206093780Y-168708554D01*
X205615885Y-169394901D01*
X205613908Y-169398782D01*
X205412064Y-169795898D01*
X204856310Y-169057522D01*
X204366360Y-168456713D01*
X203931088Y-168062584D01*
X203478226Y-167829757D01*
X202935506Y-167712851D01*
X202675761Y-167688287D01*
X201669376Y-167712039D01*
X200818204Y-167951143D01*
X200080214Y-168419098D01*
X199902571Y-168579074D01*
X199291111Y-169164955D01*
X199291111Y-177951175D01*
X198573214Y-177921421D01*
X198111657Y-177925232D01*
X197824798Y-178006300D01*
X197608779Y-178196524D01*
X197585436Y-178224799D01*
X197391522Y-178516935D01*
X197315556Y-178730264D01*
X197441951Y-178818259D01*
X197774954Y-178946437D01*
X198245292Y-179095490D01*
X198783694Y-179246109D01*
X199320885Y-179378988D01*
X199787594Y-179474817D01*
X200114547Y-179514289D01*
X200129021Y-179514444D01*
X200177508Y-179391604D01*
X200216256Y-179018603D01*
X200245504Y-178388719D01*
X200265489Y-177495230D01*
X200276449Y-176331416D01*
X200278889Y-175276579D01*
X200281324Y-173958111D01*
X200291506Y-172891368D01*
X200313751Y-172045874D01*
X200352374Y-171391153D01*
X200411693Y-170896728D01*
X200496021Y-170532124D01*
X200609676Y-170266864D01*
X200756974Y-170070472D01*
X200942229Y-169912472D01*
X201048876Y-169839369D01*
X201312107Y-169710203D01*
X201645330Y-169651716D01*
X202131771Y-169654255D01*
X202461092Y-169675593D01*
X203403507Y-169810318D01*
X204095321Y-170051811D01*
X204531245Y-170397902D01*
X204633782Y-170567329D01*
X204692051Y-170848023D01*
X204737209Y-171406230D01*
X204769297Y-172243060D01*
X204788359Y-173359626D01*
X204794445Y-174709878D01*
X204794445Y-178499811D01*
X204226834Y-178423678D01*
X203690417Y-178448064D01*
X203303699Y-178660491D01*
X203113111Y-179030132D01*
X203101111Y-179171125D01*
X203128472Y-179330033D01*
X203245377Y-179451500D01*
X203504059Y-179561003D01*
X203956752Y-179684021D01*
X204335244Y-179773084D01*
X204881913Y-179895722D01*
X205308822Y-179985946D01*
X205553396Y-180030797D01*
X205587624Y-180032441D01*
X205596314Y-179890945D01*
X205612467Y-179500833D01*
X205634901Y-178895579D01*
X205662434Y-178108657D01*
X205693882Y-177173539D01*
X205728064Y-176123700D01*
X205749285Y-175456108D01*
X205791493Y-174137368D01*
X205830512Y-173070801D01*
X205872429Y-172226509D01*
X205923334Y-171574596D01*
X205989313Y-171085165D01*
X206076456Y-170728319D01*
X206190849Y-170474161D01*
X206338581Y-170292794D01*
X206525740Y-170154321D01*
X206758414Y-170028845D01*
X206865266Y-169975759D01*
X207493822Y-169777884D01*
X208241218Y-169708368D01*
X208984359Y-169768060D01*
X209598422Y-169956946D01*
X209961597Y-170177936D01*
X210223543Y-170456174D01*
X210403605Y-170841595D01*
X210521128Y-171384133D01*
X210595458Y-172133721D01*
X210622384Y-172600000D01*
X210639370Y-173167551D01*
X210643982Y-173881962D01*
X210637723Y-174695543D01*
X210622093Y-175560602D01*
X210598596Y-176429451D01*
X210568732Y-177254400D01*
X210534004Y-177987757D01*
X210495913Y-178581834D01*
X210455961Y-178988940D01*
X210415760Y-179161277D01*
X210256039Y-179155287D01*
X209931235Y-179061454D01*
X209756902Y-178997056D01*
X209313858Y-178858196D01*
X208991892Y-178861600D01*
X208821431Y-178921900D01*
X208557055Y-179120995D01*
X208313458Y-179425556D01*
X208142803Y-179748302D01*
X208097251Y-180001954D01*
X208133825Y-180072417D01*
X208314508Y-180136954D01*
X208710394Y-180231191D01*
X209257879Y-180341061D01*
X209728331Y-180425028D01*
X210355886Y-180534947D01*
X210887970Y-180634640D01*
X211257568Y-180711173D01*
X211386386Y-180745032D01*
X211434883Y-180714306D01*
X211474404Y-180566033D01*
X211505760Y-180277379D01*
X211529762Y-179825506D01*
X211547221Y-179187581D01*
X211558947Y-178340767D01*
X211565752Y-177262229D01*
X211568446Y-175929132D01*
X211568565Y-175613708D01*
X211573039Y-174151872D01*
X211585653Y-172869636D01*
X211605898Y-171786487D01*
X211633263Y-170921911D01*
X211667237Y-170295391D01*
X211707311Y-169926414D01*
X211718839Y-169874448D01*
X211981682Y-169262663D01*
X212359361Y-168908424D01*
X212852599Y-168811479D01*
X213462119Y-168971573D01*
X213804682Y-169144477D01*
X214171766Y-169346391D01*
X214429231Y-169473318D01*
X214494615Y-169495555D01*
X214549087Y-169374833D01*
X214530655Y-169065190D01*
X214455759Y-168645415D01*
X214340835Y-168194297D01*
X214202322Y-167790622D01*
X214091759Y-167564637D01*
X213693463Y-167120237D01*
X213181387Y-166822270D01*
X212648399Y-166716629D01*
X212429681Y-166743270D01*
G36*
X234777899Y-166776769D02*
G01*
X234800082Y-166885000D01*
X234900240Y-167070669D01*
X234936764Y-167096666D01*
X234986093Y-166981438D01*
X234992222Y-166885000D01*
X234918374Y-166697178D01*
X234855540Y-166673333D01*
X234777899Y-166776769D01*
G37*
X234777899Y-166776769D02*
X234800082Y-166885000D01*
X234900240Y-167070669D01*
X234936764Y-167096666D01*
X234986093Y-166981438D01*
X234992222Y-166885000D01*
X234918374Y-166697178D01*
X234855540Y-166673333D01*
X234777899Y-166776769D01*
G36*
X217253706Y-152213996D02*
G01*
X217233332Y-152379019D01*
X217344079Y-152485947D01*
X217452952Y-152657095D01*
X217595829Y-153013428D01*
X217700798Y-153340941D01*
X217855666Y-153820421D01*
X217974162Y-154081381D01*
X218044526Y-154103003D01*
X218058889Y-153974847D01*
X218011845Y-153774132D01*
X217890656Y-153404577D01*
X217776738Y-153092902D01*
X217607374Y-152645862D01*
X217524371Y-152402197D01*
X217516350Y-152300525D01*
X217571932Y-152279463D01*
X217626047Y-152280000D01*
X217768090Y-152396775D01*
X217850598Y-152572856D01*
X217949363Y-152775623D01*
X218012651Y-152796608D01*
X218025211Y-152618321D01*
X217881166Y-152384158D01*
X217659579Y-152193516D01*
X217489480Y-152138889D01*
X217253706Y-152213996D01*
G37*
X217253706Y-152213996D02*
X217233332Y-152379019D01*
X217344079Y-152485947D01*
X217452952Y-152657095D01*
X217595829Y-153013428D01*
X217700798Y-153340941D01*
X217855666Y-153820421D01*
X217974162Y-154081381D01*
X218044526Y-154103003D01*
X218058889Y-153974847D01*
X218011845Y-153774132D01*
X217890656Y-153404577D01*
X217776738Y-153092902D01*
X217607374Y-152645862D01*
X217524371Y-152402197D01*
X217516350Y-152300525D01*
X217571932Y-152279463D01*
X217626047Y-152280000D01*
X217768090Y-152396775D01*
X217850598Y-152572856D01*
X217949363Y-152775623D01*
X218012651Y-152796608D01*
X218025211Y-152618321D01*
X217881166Y-152384158D01*
X217659579Y-152193516D01*
X217489480Y-152138889D01*
X217253706Y-152213996D01*
G36*
X218200000Y-153620555D02*
G01*
X218270556Y-153691111D01*
X218341111Y-153620555D01*
X218270556Y-153550000D01*
X218200000Y-153620555D01*
G37*
X218200000Y-153620555D02*
X218270556Y-153691111D01*
X218341111Y-153620555D01*
X218270556Y-153550000D01*
X218200000Y-153620555D01*
G36*
X218058889Y-153338333D02*
G01*
X218129445Y-153408889D01*
X218200000Y-153338333D01*
X218129445Y-153267778D01*
X218058889Y-153338333D01*
G37*
X218058889Y-153338333D02*
X218129445Y-153408889D01*
X218200000Y-153338333D01*
X218129445Y-153267778D01*
X218058889Y-153338333D01*
G36*
X216930000Y-152350555D02*
G01*
X217000556Y-152421111D01*
X217071111Y-152350555D01*
X217000556Y-152280000D01*
X216930000Y-152350555D01*
G37*
X216930000Y-152350555D02*
X217000556Y-152421111D01*
X217071111Y-152350555D01*
X217000556Y-152280000D01*
X216930000Y-152350555D01*
G36*
X216506667Y-151786111D02*
G01*
X216577222Y-151856666D01*
X216647778Y-151786111D01*
X216577222Y-151715555D01*
X216506667Y-151786111D01*
G37*
X216506667Y-151786111D02*
X216577222Y-151856666D01*
X216647778Y-151786111D01*
X216577222Y-151715555D01*
X216506667Y-151786111D01*
G36*
X216412593Y-151339259D02*
G01*
X216395705Y-151506725D01*
X216412593Y-151527407D01*
X216496483Y-151508037D01*
X216506667Y-151433333D01*
X216455036Y-151317183D01*
X216412593Y-151339259D01*
G37*
X216412593Y-151339259D02*
X216395705Y-151506725D01*
X216412593Y-151527407D01*
X216496483Y-151508037D01*
X216506667Y-151433333D01*
X216455036Y-151317183D01*
X216412593Y-151339259D01*
G36*
X216224445Y-151080555D02*
G01*
X216295000Y-151151111D01*
X216365556Y-151080555D01*
X216295000Y-151010000D01*
X216224445Y-151080555D01*
G37*
X216224445Y-151080555D02*
X216295000Y-151151111D01*
X216365556Y-151080555D01*
X216295000Y-151010000D01*
X216224445Y-151080555D01*
G36*
X230155509Y-164755778D02*
G01*
X230021232Y-164819284D01*
X229634632Y-164978523D01*
X229392257Y-164970695D01*
X229321117Y-164925117D01*
X229207011Y-164838502D01*
X229290206Y-164948746D01*
X229301158Y-164961602D01*
X229366622Y-165134593D01*
X229278922Y-165383384D01*
X229054213Y-165723607D01*
X228716530Y-166396147D01*
X228623579Y-167089850D01*
X228744004Y-167767375D01*
X229046446Y-168391381D01*
X229499547Y-168924527D01*
X230071948Y-169329471D01*
X230732292Y-169568871D01*
X231449220Y-169605387D01*
X232156075Y-169417310D01*
X232445259Y-169264973D01*
X232562702Y-169147436D01*
X232556216Y-169129179D01*
X232385753Y-169124537D01*
X232191363Y-169201900D01*
X231729507Y-169332767D01*
X231127771Y-169352180D01*
X230502291Y-169267448D01*
X229969205Y-169085876D01*
X229918725Y-169058921D01*
X229361659Y-168630236D01*
X229018941Y-168070773D01*
X228868329Y-167337948D01*
X228856859Y-167026111D01*
X228886182Y-166451159D01*
X228997639Y-166037011D01*
X229182644Y-165718829D01*
X229510961Y-165258214D01*
X229770829Y-165577718D01*
X229941167Y-165822540D01*
X229925690Y-165995204D01*
X229795071Y-166159185D01*
X229614296Y-166560043D01*
X229569906Y-167118939D01*
X229610491Y-167601637D01*
X229746416Y-167933910D01*
X229977090Y-168197531D01*
X230198632Y-168385905D01*
X230286005Y-168408737D01*
X230273665Y-168366666D01*
X230231259Y-168246220D01*
X230335310Y-168350357D01*
X230360369Y-168380347D01*
X230630177Y-168532318D01*
X231044280Y-168603133D01*
X231487506Y-168591386D01*
X231844682Y-168495672D01*
X231967891Y-168399965D01*
X232096348Y-168298872D01*
X232258445Y-168381108D01*
X232463476Y-168604147D01*
X232719482Y-168882230D01*
X232950749Y-169093015D01*
X233105794Y-169196967D01*
X233133139Y-169154548D01*
X233100102Y-169093062D01*
X233108431Y-168881707D01*
X233258100Y-168568769D01*
X233304280Y-168500207D01*
X233625289Y-167820420D01*
X233676207Y-167406634D01*
X233522140Y-167406634D01*
X233348341Y-168074084D01*
X233138037Y-168430268D01*
X232924898Y-168672186D01*
X232773358Y-168709543D01*
X232587218Y-168572798D01*
X232428525Y-168403427D01*
X232416976Y-168240547D01*
X232502532Y-168075257D01*
X230018736Y-168075257D01*
X229999434Y-168084444D01*
X229870658Y-167985105D01*
X229841667Y-167943333D01*
X229805709Y-167811410D01*
X229825011Y-167802222D01*
X229953787Y-167901561D01*
X229982778Y-167943333D01*
X230018736Y-168075257D01*
X232502532Y-168075257D01*
X232555099Y-167973703D01*
X232602723Y-167895159D01*
X232835455Y-167279948D01*
X232826989Y-166936232D01*
X231983883Y-166936232D01*
X231916523Y-167368707D01*
X231723203Y-167708229D01*
X231672125Y-167752031D01*
X231455958Y-167884579D01*
X231375532Y-167901457D01*
X231378494Y-167872778D01*
X231182222Y-167872778D01*
X231111667Y-167943333D01*
X231041111Y-167872778D01*
X231111667Y-167802222D01*
X231182222Y-167872778D01*
X231378494Y-167872778D01*
X231390486Y-167756707D01*
X231469805Y-167423701D01*
X231558783Y-167104460D01*
X231703785Y-166676131D01*
X231816163Y-166506459D01*
X231897978Y-166555461D01*
X231983883Y-166936232D01*
X232826989Y-166936232D01*
X232820523Y-166673764D01*
X232748091Y-166503996D01*
X231511046Y-166503996D01*
X231493499Y-166680459D01*
X231415896Y-166947006D01*
X231312370Y-167019185D01*
X231309145Y-167017342D01*
X231244919Y-167053579D01*
X231272053Y-167166568D01*
X231244475Y-167435787D01*
X231094048Y-167647340D01*
X230886047Y-167813341D01*
X230804832Y-167775169D01*
X230848141Y-167515686D01*
X231011692Y-167023328D01*
X231198721Y-166588320D01*
X231299825Y-166437214D01*
X230974340Y-166437214D01*
X230898066Y-166754802D01*
X230876152Y-166823749D01*
X230750169Y-167209917D01*
X230657519Y-167501956D01*
X230652015Y-167520000D01*
X230575410Y-167611549D01*
X230457485Y-167448519D01*
X230429268Y-167389714D01*
X230341285Y-167115736D01*
X230425713Y-166996309D01*
X230436265Y-166992541D01*
X230546442Y-166838571D01*
X230532873Y-166757380D01*
X230565407Y-166567179D01*
X230716417Y-166365649D01*
X230892882Y-166255200D01*
X230971512Y-166274474D01*
X230974340Y-166437214D01*
X231299825Y-166437214D01*
X231362168Y-166344039D01*
X231475216Y-166309570D01*
X231511046Y-166503996D01*
X232748091Y-166503996D01*
X232588853Y-166130770D01*
X232558380Y-166099701D01*
X232417625Y-166099701D01*
X232398323Y-166108889D01*
X232269547Y-166009549D01*
X232240556Y-165967778D01*
X232204598Y-165835854D01*
X232223900Y-165826666D01*
X232352676Y-165926006D01*
X232381667Y-165967778D01*
X232417625Y-166099701D01*
X232558380Y-166099701D01*
X232171370Y-165705128D01*
X231599000Y-165451001D01*
X231179953Y-165403333D01*
X230765502Y-165452471D01*
X230455651Y-165555691D01*
X230181404Y-165626796D01*
X229916122Y-165477091D01*
X229893604Y-165457039D01*
X229726374Y-165285240D01*
X229740660Y-165165919D01*
X229966338Y-165019799D01*
X230081732Y-164957818D01*
X230771764Y-164737040D01*
X231526491Y-164734288D01*
X232255723Y-164934947D01*
X232869266Y-165324399D01*
X232972622Y-165426289D01*
X233329222Y-165990876D01*
X233514081Y-166681611D01*
X233522140Y-167406634D01*
X233676207Y-167406634D01*
X233718978Y-167059066D01*
X233590174Y-166295070D01*
X233243704Y-165607357D01*
X233117745Y-165449852D01*
X232477900Y-164916203D01*
X231731553Y-164614625D01*
X230937742Y-164557143D01*
X230155509Y-164755778D01*
G37*
X230155509Y-164755778D02*
X230021232Y-164819284D01*
X229634632Y-164978523D01*
X229392257Y-164970695D01*
X229321117Y-164925117D01*
X229207011Y-164838502D01*
X229290206Y-164948746D01*
X229301158Y-164961602D01*
X229366622Y-165134593D01*
X229278922Y-165383384D01*
X229054213Y-165723607D01*
X228716530Y-166396147D01*
X228623579Y-167089850D01*
X228744004Y-167767375D01*
X229046446Y-168391381D01*
X229499547Y-168924527D01*
X230071948Y-169329471D01*
X230732292Y-169568871D01*
X231449220Y-169605387D01*
X232156075Y-169417310D01*
X232445259Y-169264973D01*
X232562702Y-169147436D01*
X232556216Y-169129179D01*
X232385753Y-169124537D01*
X232191363Y-169201900D01*
X231729507Y-169332767D01*
X231127771Y-169352180D01*
X230502291Y-169267448D01*
X229969205Y-169085876D01*
X229918725Y-169058921D01*
X229361659Y-168630236D01*
X229018941Y-168070773D01*
X228868329Y-167337948D01*
X228856859Y-167026111D01*
X228886182Y-166451159D01*
X228997639Y-166037011D01*
X229182644Y-165718829D01*
X229510961Y-165258214D01*
X229770829Y-165577718D01*
X229941167Y-165822540D01*
X229925690Y-165995204D01*
X229795071Y-166159185D01*
X229614296Y-166560043D01*
X229569906Y-167118939D01*
X229610491Y-167601637D01*
X229746416Y-167933910D01*
X229977090Y-168197531D01*
X230198632Y-168385905D01*
X230286005Y-168408737D01*
X230273665Y-168366666D01*
X230231259Y-168246220D01*
X230335310Y-168350357D01*
X230360369Y-168380347D01*
X230630177Y-168532318D01*
X231044280Y-168603133D01*
X231487506Y-168591386D01*
X231844682Y-168495672D01*
X231967891Y-168399965D01*
X232096348Y-168298872D01*
X232258445Y-168381108D01*
X232463476Y-168604147D01*
X232719482Y-168882230D01*
X232950749Y-169093015D01*
X233105794Y-169196967D01*
X233133139Y-169154548D01*
X233100102Y-169093062D01*
X233108431Y-168881707D01*
X233258100Y-168568769D01*
X233304280Y-168500207D01*
X233625289Y-167820420D01*
X233676207Y-167406634D01*
X233522140Y-167406634D01*
X233348341Y-168074084D01*
X233138037Y-168430268D01*
X232924898Y-168672186D01*
X232773358Y-168709543D01*
X232587218Y-168572798D01*
X232428525Y-168403427D01*
X232416976Y-168240547D01*
X232502532Y-168075257D01*
X230018736Y-168075257D01*
X229999434Y-168084444D01*
X229870658Y-167985105D01*
X229841667Y-167943333D01*
X229805709Y-167811410D01*
X229825011Y-167802222D01*
X229953787Y-167901561D01*
X229982778Y-167943333D01*
X230018736Y-168075257D01*
X232502532Y-168075257D01*
X232555099Y-167973703D01*
X232602723Y-167895159D01*
X232835455Y-167279948D01*
X232826989Y-166936232D01*
X231983883Y-166936232D01*
X231916523Y-167368707D01*
X231723203Y-167708229D01*
X231672125Y-167752031D01*
X231455958Y-167884579D01*
X231375532Y-167901457D01*
X231378494Y-167872778D01*
X231182222Y-167872778D01*
X231111667Y-167943333D01*
X231041111Y-167872778D01*
X231111667Y-167802222D01*
X231182222Y-167872778D01*
X231378494Y-167872778D01*
X231390486Y-167756707D01*
X231469805Y-167423701D01*
X231558783Y-167104460D01*
X231703785Y-166676131D01*
X231816163Y-166506459D01*
X231897978Y-166555461D01*
X231983883Y-166936232D01*
X232826989Y-166936232D01*
X232820523Y-166673764D01*
X232748091Y-166503996D01*
X231511046Y-166503996D01*
X231493499Y-166680459D01*
X231415896Y-166947006D01*
X231312370Y-167019185D01*
X231309145Y-167017342D01*
X231244919Y-167053579D01*
X231272053Y-167166568D01*
X231244475Y-167435787D01*
X231094048Y-167647340D01*
X230886047Y-167813341D01*
X230804832Y-167775169D01*
X230848141Y-167515686D01*
X231011692Y-167023328D01*
X231198721Y-166588320D01*
X231299825Y-166437214D01*
X230974340Y-166437214D01*
X230898066Y-166754802D01*
X230876152Y-166823749D01*
X230750169Y-167209917D01*
X230657519Y-167501956D01*
X230652015Y-167520000D01*
X230575410Y-167611549D01*
X230457485Y-167448519D01*
X230429268Y-167389714D01*
X230341285Y-167115736D01*
X230425713Y-166996309D01*
X230436265Y-166992541D01*
X230546442Y-166838571D01*
X230532873Y-166757380D01*
X230565407Y-166567179D01*
X230716417Y-166365649D01*
X230892882Y-166255200D01*
X230971512Y-166274474D01*
X230974340Y-166437214D01*
X231299825Y-166437214D01*
X231362168Y-166344039D01*
X231475216Y-166309570D01*
X231511046Y-166503996D01*
X232748091Y-166503996D01*
X232588853Y-166130770D01*
X232558380Y-166099701D01*
X232417625Y-166099701D01*
X232398323Y-166108889D01*
X232269547Y-166009549D01*
X232240556Y-165967778D01*
X232204598Y-165835854D01*
X232223900Y-165826666D01*
X232352676Y-165926006D01*
X232381667Y-165967778D01*
X232417625Y-166099701D01*
X232558380Y-166099701D01*
X232171370Y-165705128D01*
X231599000Y-165451001D01*
X231179953Y-165403333D01*
X230765502Y-165452471D01*
X230455651Y-165555691D01*
X230181404Y-165626796D01*
X229916122Y-165477091D01*
X229893604Y-165457039D01*
X229726374Y-165285240D01*
X229740660Y-165165919D01*
X229966338Y-165019799D01*
X230081732Y-164957818D01*
X230771764Y-164737040D01*
X231526491Y-164734288D01*
X232255723Y-164934947D01*
X232869266Y-165324399D01*
X232972622Y-165426289D01*
X233329222Y-165990876D01*
X233514081Y-166681611D01*
X233522140Y-167406634D01*
X233676207Y-167406634D01*
X233718978Y-167059066D01*
X233590174Y-166295070D01*
X233243704Y-165607357D01*
X233117745Y-165449852D01*
X232477900Y-164916203D01*
X231731553Y-164614625D01*
X230937742Y-164557143D01*
X230155509Y-164755778D01*
G36*
X232028889Y-168437222D02*
G01*
X232099445Y-168507778D01*
X232170000Y-168437222D01*
X232099445Y-168366666D01*
X232028889Y-168437222D01*
G37*
X232028889Y-168437222D02*
X232099445Y-168507778D01*
X232170000Y-168437222D01*
X232099445Y-168366666D01*
X232028889Y-168437222D01*
G36*
X210297778Y-163780555D02*
G01*
X210368333Y-163851111D01*
X210438889Y-163780555D01*
X210368333Y-163710000D01*
X210297778Y-163780555D01*
G37*
X210297778Y-163780555D02*
X210368333Y-163851111D01*
X210438889Y-163780555D01*
X210368333Y-163710000D01*
X210297778Y-163780555D01*
G36*
X209498148Y-161640370D02*
G01*
X209481260Y-161807836D01*
X209498148Y-161828518D01*
X209582039Y-161809148D01*
X209592222Y-161734444D01*
X209540592Y-161618294D01*
X209498148Y-161640370D01*
G37*
X209498148Y-161640370D02*
X209481260Y-161807836D01*
X209498148Y-161828518D01*
X209582039Y-161809148D01*
X209592222Y-161734444D01*
X209540592Y-161618294D01*
X209498148Y-161640370D01*
D11*
G04 #@! TO.C,J38*
X273750000Y-127500000D02*
G75*
G03*
X273750000Y-127500000I-100000J0D01*
G01*
D12*
X268650000Y-210400000D02*
X268650000Y-131400000D01*
X321650000Y-213400000D02*
X271650000Y-213400000D01*
X324650000Y-131400000D02*
X324650000Y-210400000D01*
X271650000Y-128400000D02*
X321650000Y-128400000D01*
X321650000Y-128400000D02*
G75*
G02*
X324650000Y-131400000I0J-3000000D01*
G01*
X324650000Y-210400000D02*
G75*
G02*
X321650000Y-213400000I-3000000J0D01*
G01*
X271650000Y-213400000D02*
G75*
G02*
X268650000Y-210400000I0J3000000D01*
G01*
X268650000Y-131400000D02*
G75*
G02*
X271650000Y-128400000I3000000J0D01*
G01*
D13*
X266467380Y-132765476D02*
X267181666Y-132765476D01*
X267324523Y-132717857D01*
X267419761Y-132622619D01*
X267467380Y-132479761D01*
X267467380Y-132384523D01*
X266467380Y-133146428D02*
X266467380Y-133765476D01*
X266848333Y-133432142D01*
X266848333Y-133575000D01*
X266895952Y-133670238D01*
X266943571Y-133717857D01*
X267038809Y-133765476D01*
X267276904Y-133765476D01*
X267372142Y-133717857D01*
X267419761Y-133670238D01*
X267467380Y-133575000D01*
X267467380Y-133289285D01*
X267419761Y-133194047D01*
X267372142Y-133146428D01*
X266895952Y-134336904D02*
X266848333Y-134241666D01*
X266800714Y-134194047D01*
X266705476Y-134146428D01*
X266657857Y-134146428D01*
X266562619Y-134194047D01*
X266515000Y-134241666D01*
X266467380Y-134336904D01*
X266467380Y-134527380D01*
X266515000Y-134622619D01*
X266562619Y-134670238D01*
X266657857Y-134717857D01*
X266705476Y-134717857D01*
X266800714Y-134670238D01*
X266848333Y-134622619D01*
X266895952Y-134527380D01*
X266895952Y-134336904D01*
X266943571Y-134241666D01*
X266991190Y-134194047D01*
X267086428Y-134146428D01*
X267276904Y-134146428D01*
X267372142Y-134194047D01*
X267419761Y-134241666D01*
X267467380Y-134336904D01*
X267467380Y-134527380D01*
X267419761Y-134622619D01*
X267372142Y-134670238D01*
X267276904Y-134717857D01*
X267086428Y-134717857D01*
X266991190Y-134670238D01*
X266943571Y-134622619D01*
X266895952Y-134527380D01*
G04 #@! TD*
M02*
