G04 #@! TF.GenerationSoftware,KiCad,Pcbnew,(5.1.10)-1*
G04 #@! TF.CreationDate,2022-11-16T20:30:32+05:30*
G04 #@! TF.ProjectId,2023 control pcb,32303233-2063-46f6-9e74-726f6c207063,rev?*
G04 #@! TF.SameCoordinates,Original*
G04 #@! TF.FileFunction,Copper,L1,Top*
G04 #@! TF.FilePolarity,Positive*
%FSLAX46Y46*%
G04 Gerber Fmt 4.6, Leading zero omitted, Abs format (unit mm)*
G04 Created by KiCad (PCBNEW (5.1.10)-1) date 2022-11-16 20:30:32*
%MOMM*%
%LPD*%
G01*
G04 APERTURE LIST*
G04 #@! TA.AperFunction,ComponentPad*
%ADD10R,7.000000X3.500000*%
G04 #@! TD*
G04 #@! TA.AperFunction,ComponentPad*
%ADD11R,6.000000X8.000000*%
G04 #@! TD*
G04 #@! TA.AperFunction,ComponentPad*
%ADD12C,2.400000*%
G04 #@! TD*
G04 #@! TA.AperFunction,ComponentPad*
%ADD13O,1.750000X1.200000*%
G04 #@! TD*
G04 #@! TA.AperFunction,ComponentPad*
%ADD14R,3.500000X7.000000*%
G04 #@! TD*
G04 #@! TA.AperFunction,ComponentPad*
%ADD15O,1.700000X1.700000*%
G04 #@! TD*
G04 #@! TA.AperFunction,ComponentPad*
%ADD16R,1.700000X1.700000*%
G04 #@! TD*
G04 #@! TA.AperFunction,ComponentPad*
%ADD17C,1.524000*%
G04 #@! TD*
G04 #@! TA.AperFunction,ComponentPad*
%ADD18R,8.000000X6.000000*%
G04 #@! TD*
G04 #@! TA.AperFunction,ComponentPad*
%ADD19C,6.200000*%
G04 #@! TD*
G04 #@! TA.AperFunction,ComponentPad*
%ADD20R,1.524000X1.524000*%
G04 #@! TD*
G04 #@! TA.AperFunction,ComponentPad*
%ADD21C,2.340000*%
G04 #@! TD*
G04 #@! TA.AperFunction,ViaPad*
%ADD22C,1.000000*%
G04 #@! TD*
G04 #@! TA.AperFunction,Conductor*
%ADD23C,4.200000*%
G04 #@! TD*
G04 #@! TA.AperFunction,Conductor*
%ADD24C,0.400000*%
G04 #@! TD*
G04 #@! TA.AperFunction,Conductor*
%ADD25C,1.000000*%
G04 #@! TD*
G04 #@! TA.AperFunction,Conductor*
%ADD26C,0.254000*%
G04 #@! TD*
G04 #@! TA.AperFunction,Conductor*
%ADD27C,0.100000*%
G04 #@! TD*
G04 APERTURE END LIST*
D10*
G04 #@! TO.P,J27,1*
G04 #@! TO.N,Net-(J27-Pad1)*
X316640000Y-87450000D03*
G04 #@! TO.P,J27,2*
G04 #@! TO.N,GND*
X316640000Y-92450000D03*
G04 #@! TD*
G04 #@! TO.P,D1,2*
G04 #@! TO.N,Net-(D1-Pad2)*
G04 #@! TA.AperFunction,SMDPad,CuDef*
G36*
G01*
X211821612Y-53464785D02*
X211185215Y-52828388D01*
G75*
G02*
X211185215Y-52474836I176776J176776D01*
G01*
X211644836Y-52015215D01*
G75*
G02*
X211998388Y-52015215I176776J-176776D01*
G01*
X212634785Y-52651612D01*
G75*
G02*
X212634785Y-53005164I-176776J-176776D01*
G01*
X212175164Y-53464785D01*
G75*
G02*
X211821612Y-53464785I-176776J176776D01*
G01*
G37*
G04 #@! TD.AperFunction*
G04 #@! TO.P,D1,1*
G04 #@! TO.N,PWML'*
G04 #@! TA.AperFunction,SMDPad,CuDef*
G36*
G01*
X210372044Y-54914353D02*
X209735647Y-54277956D01*
G75*
G02*
X209735647Y-53924404I176776J176776D01*
G01*
X210195268Y-53464783D01*
G75*
G02*
X210548820Y-53464783I176776J-176776D01*
G01*
X211185217Y-54101180D01*
G75*
G02*
X211185217Y-54454732I-176776J-176776D01*
G01*
X210725596Y-54914353D01*
G75*
G02*
X210372044Y-54914353I-176776J176776D01*
G01*
G37*
G04 #@! TD.AperFunction*
G04 #@! TD*
G04 #@! TO.P,D2,1*
G04 #@! TO.N,PWMR'*
G04 #@! TA.AperFunction,SMDPad,CuDef*
G36*
G01*
X230159569Y-54153172D02*
X229523172Y-54789569D01*
G75*
G02*
X229169620Y-54789569I-176776J176776D01*
G01*
X228709999Y-54329948D01*
G75*
G02*
X228709999Y-53976396I176776J176776D01*
G01*
X229346396Y-53339999D01*
G75*
G02*
X229699948Y-53339999I176776J-176776D01*
G01*
X230159569Y-53799620D01*
G75*
G02*
X230159569Y-54153172I-176776J-176776D01*
G01*
G37*
G04 #@! TD.AperFunction*
G04 #@! TO.P,D2,2*
G04 #@! TO.N,Net-(D2-Pad2)*
G04 #@! TA.AperFunction,SMDPad,CuDef*
G36*
G01*
X228710001Y-52703604D02*
X228073604Y-53340001D01*
G75*
G02*
X227720052Y-53340001I-176776J176776D01*
G01*
X227260431Y-52880380D01*
G75*
G02*
X227260431Y-52526828I176776J176776D01*
G01*
X227896828Y-51890431D01*
G75*
G02*
X228250380Y-51890431I176776J-176776D01*
G01*
X228710001Y-52350052D01*
G75*
G02*
X228710001Y-52703604I-176776J-176776D01*
G01*
G37*
G04 #@! TD.AperFunction*
G04 #@! TD*
G04 #@! TO.P,D3,2*
G04 #@! TO.N,Net-(D3-Pad2)*
G04 #@! TA.AperFunction,SMDPad,CuDef*
G36*
G01*
X210470001Y-68718604D02*
X209833604Y-69355001D01*
G75*
G02*
X209480052Y-69355001I-176776J176776D01*
G01*
X209020431Y-68895380D01*
G75*
G02*
X209020431Y-68541828I176776J176776D01*
G01*
X209656828Y-67905431D01*
G75*
G02*
X210010380Y-67905431I176776J-176776D01*
G01*
X210470001Y-68365052D01*
G75*
G02*
X210470001Y-68718604I-176776J-176776D01*
G01*
G37*
G04 #@! TD.AperFunction*
G04 #@! TO.P,D3,1*
G04 #@! TO.N,DIRL'*
G04 #@! TA.AperFunction,SMDPad,CuDef*
G36*
G01*
X211919569Y-70168172D02*
X211283172Y-70804569D01*
G75*
G02*
X210929620Y-70804569I-176776J176776D01*
G01*
X210469999Y-70344948D01*
G75*
G02*
X210469999Y-69991396I176776J176776D01*
G01*
X211106396Y-69354999D01*
G75*
G02*
X211459948Y-69354999I176776J-176776D01*
G01*
X211919569Y-69814620D01*
G75*
G02*
X211919569Y-70168172I-176776J-176776D01*
G01*
G37*
G04 #@! TD.AperFunction*
G04 #@! TD*
G04 #@! TO.P,D4,1*
G04 #@! TO.N,DIRR'*
G04 #@! TA.AperFunction,SMDPad,CuDef*
G36*
G01*
X228646828Y-70634569D02*
X228010431Y-69998172D01*
G75*
G02*
X228010431Y-69644620I176776J176776D01*
G01*
X228470052Y-69184999D01*
G75*
G02*
X228823604Y-69184999I176776J-176776D01*
G01*
X229460001Y-69821396D01*
G75*
G02*
X229460001Y-70174948I-176776J-176776D01*
G01*
X229000380Y-70634569D01*
G75*
G02*
X228646828Y-70634569I-176776J176776D01*
G01*
G37*
G04 #@! TD.AperFunction*
G04 #@! TO.P,D4,2*
G04 #@! TO.N,Net-(D4-Pad2)*
G04 #@! TA.AperFunction,SMDPad,CuDef*
G36*
G01*
X230096396Y-69185001D02*
X229459999Y-68548604D01*
G75*
G02*
X229459999Y-68195052I176776J176776D01*
G01*
X229919620Y-67735431D01*
G75*
G02*
X230273172Y-67735431I176776J-176776D01*
G01*
X230909569Y-68371828D01*
G75*
G02*
X230909569Y-68725380I-176776J-176776D01*
G01*
X230449948Y-69185001D01*
G75*
G02*
X230096396Y-69185001I-176776J176776D01*
G01*
G37*
G04 #@! TD.AperFunction*
G04 #@! TD*
D11*
G04 #@! TO.P,J1,2*
G04 #@! TO.N,GND*
X151400000Y-46060000D03*
G04 #@! TO.P,J1,1*
G04 #@! TO.N,+24V*
X144200000Y-46060000D03*
G04 #@! TD*
G04 #@! TO.P,J2,2*
G04 #@! TO.N,GND*
X295250000Y-45950000D03*
G04 #@! TO.P,J2,1*
G04 #@! TO.N,+24V*
X288050000Y-45950000D03*
G04 #@! TD*
D10*
G04 #@! TO.P,J3,1*
G04 #@! TO.N,Net-(J3-Pad1)*
X122790000Y-87570000D03*
G04 #@! TO.P,J3,2*
G04 #@! TO.N,GND*
X122790000Y-92570000D03*
G04 #@! TD*
G04 #@! TO.P,J4,1*
G04 #@! TO.N,Net-(J12-Pad2)*
X122790000Y-104570000D03*
G04 #@! TO.P,J4,2*
G04 #@! TO.N,Net-(J12-Pad1)*
X122790000Y-99570000D03*
G04 #@! TD*
G04 #@! TO.P,J5,1*
G04 #@! TO.N,Net-(J5-Pad1)*
X266650000Y-87450000D03*
G04 #@! TO.P,J5,2*
G04 #@! TO.N,GND*
X266650000Y-92450000D03*
G04 #@! TD*
G04 #@! TO.P,J6,2*
G04 #@! TO.N,Net-(J13-Pad1)*
X266650000Y-104430000D03*
G04 #@! TO.P,J6,1*
G04 #@! TO.N,Net-(J13-Pad2)*
X266650000Y-99430000D03*
G04 #@! TD*
D12*
G04 #@! TO.P,J7,4*
G04 #@! TO.N,Net-(J3-Pad1)*
X124790000Y-72070000D03*
G04 #@! TO.P,J7,3*
X121390000Y-72070000D03*
G04 #@! TO.P,J7,2*
G04 #@! TO.N,+24V*
X121390000Y-58600000D03*
G04 #@! TO.P,J7,1*
X124790000Y-58600000D03*
G04 #@! TD*
G04 #@! TO.P,J8,4*
G04 #@! TO.N,Net-(J5-Pad1)*
X268650000Y-71970000D03*
G04 #@! TO.P,J8,3*
X265250000Y-71970000D03*
G04 #@! TO.P,J8,2*
G04 #@! TO.N,+24V*
X265250000Y-58500000D03*
G04 #@! TO.P,J8,1*
X268650000Y-58500000D03*
G04 #@! TD*
G04 #@! TO.P,J9,1*
G04 #@! TO.N,GND*
G04 #@! TA.AperFunction,ComponentPad*
G36*
G01*
X200134999Y-79570000D02*
X201385001Y-79570000D01*
G75*
G02*
X201635000Y-79819999I0J-249999D01*
G01*
X201635000Y-80520001D01*
G75*
G02*
X201385001Y-80770000I-249999J0D01*
G01*
X200134999Y-80770000D01*
G75*
G02*
X199885000Y-80520001I0J249999D01*
G01*
X199885000Y-79819999D01*
G75*
G02*
X200134999Y-79570000I249999J0D01*
G01*
G37*
G04 #@! TD.AperFunction*
D13*
G04 #@! TO.P,J9,2*
G04 #@! TO.N,Net-(J9-Pad2)*
X200760000Y-82170000D03*
G04 #@! TO.P,J9,3*
G04 #@! TO.N,PWML'*
X200760000Y-84170000D03*
G04 #@! TO.P,J9,4*
G04 #@! TO.N,DIRL'*
X200760000Y-86170000D03*
G04 #@! TD*
G04 #@! TO.P,J10,4*
G04 #@! TO.N,DIRL'*
X200640000Y-101400000D03*
G04 #@! TO.P,J10,3*
G04 #@! TO.N,PWML'*
X200640000Y-99400000D03*
G04 #@! TO.P,J10,2*
G04 #@! TO.N,Net-(J10-Pad2)*
X200640000Y-97400000D03*
G04 #@! TO.P,J10,1*
G04 #@! TO.N,GND*
G04 #@! TA.AperFunction,ComponentPad*
G36*
G01*
X200014999Y-94800000D02*
X201265001Y-94800000D01*
G75*
G02*
X201515000Y-95049999I0J-249999D01*
G01*
X201515000Y-95750001D01*
G75*
G02*
X201265001Y-96000000I-249999J0D01*
G01*
X200014999Y-96000000D01*
G75*
G02*
X199765000Y-95750001I0J249999D01*
G01*
X199765000Y-95049999D01*
G75*
G02*
X200014999Y-94800000I249999J0D01*
G01*
G37*
G04 #@! TD.AperFunction*
G04 #@! TD*
G04 #@! TO.P,J11,1*
G04 #@! TO.N,GND*
G04 #@! TA.AperFunction,ComponentPad*
G36*
G01*
X200004999Y-109420000D02*
X201255001Y-109420000D01*
G75*
G02*
X201505000Y-109669999I0J-249999D01*
G01*
X201505000Y-110370001D01*
G75*
G02*
X201255001Y-110620000I-249999J0D01*
G01*
X200004999Y-110620000D01*
G75*
G02*
X199755000Y-110370001I0J249999D01*
G01*
X199755000Y-109669999D01*
G75*
G02*
X200004999Y-109420000I249999J0D01*
G01*
G37*
G04 #@! TD.AperFunction*
G04 #@! TO.P,J11,2*
G04 #@! TO.N,Net-(J11-Pad2)*
X200630000Y-112020000D03*
G04 #@! TO.P,J11,3*
G04 #@! TO.N,PWML'*
X200630000Y-114020000D03*
G04 #@! TO.P,J11,4*
G04 #@! TO.N,DIRL'*
X200630000Y-116020000D03*
G04 #@! TD*
D14*
G04 #@! TO.P,J12,2*
G04 #@! TO.N,Net-(J12-Pad2)*
X125290000Y-116590000D03*
G04 #@! TO.P,J12,1*
G04 #@! TO.N,Net-(J12-Pad1)*
X120290000Y-116590000D03*
G04 #@! TD*
G04 #@! TO.P,J13,1*
G04 #@! TO.N,Net-(J13-Pad1)*
X269150000Y-116360000D03*
G04 #@! TO.P,J13,2*
G04 #@! TO.N,Net-(J13-Pad2)*
X264150000Y-116360000D03*
G04 #@! TD*
D10*
G04 #@! TO.P,J14,2*
G04 #@! TO.N,GND*
X147890000Y-92570000D03*
G04 #@! TO.P,J14,1*
G04 #@! TO.N,Net-(J14-Pad1)*
X147890000Y-87570000D03*
G04 #@! TD*
G04 #@! TO.P,J15,1*
G04 #@! TO.N,Net-(J15-Pad1)*
X147780000Y-99560000D03*
G04 #@! TO.P,J15,2*
G04 #@! TO.N,Net-(J15-Pad2)*
X147780000Y-104560000D03*
G04 #@! TD*
G04 #@! TO.P,J16,2*
G04 #@! TO.N,GND*
X291730000Y-92450000D03*
G04 #@! TO.P,J16,1*
G04 #@! TO.N,Net-(J16-Pad1)*
X291730000Y-87450000D03*
G04 #@! TD*
G04 #@! TO.P,J17,2*
G04 #@! TO.N,Net-(J17-Pad2)*
X291650000Y-104460000D03*
G04 #@! TO.P,J17,1*
G04 #@! TO.N,Net-(J17-Pad1)*
X291650000Y-99460000D03*
G04 #@! TD*
D12*
G04 #@! TO.P,J18,4*
G04 #@! TO.N,Net-(J14-Pad1)*
X149680000Y-72070000D03*
G04 #@! TO.P,J18,3*
X146280000Y-72070000D03*
G04 #@! TO.P,J18,2*
G04 #@! TO.N,+24V*
X146280000Y-58600000D03*
G04 #@! TO.P,J18,1*
X149680000Y-58600000D03*
G04 #@! TD*
G04 #@! TO.P,J19,1*
G04 #@! TO.N,+24V*
X293560000Y-58480000D03*
G04 #@! TO.P,J19,2*
X290160000Y-58480000D03*
G04 #@! TO.P,J19,3*
G04 #@! TO.N,Net-(J16-Pad1)*
X290160000Y-71950000D03*
G04 #@! TO.P,J19,4*
X293560000Y-71950000D03*
G04 #@! TD*
D14*
G04 #@! TO.P,J20,1*
G04 #@! TO.N,Net-(J15-Pad2)*
X150290000Y-116570000D03*
G04 #@! TO.P,J20,2*
G04 #@! TO.N,Net-(J15-Pad1)*
X145290000Y-116570000D03*
G04 #@! TD*
G04 #@! TO.P,J21,2*
G04 #@! TO.N,Net-(J17-Pad1)*
X289140000Y-116440000D03*
G04 #@! TO.P,J21,1*
G04 #@! TO.N,Net-(J17-Pad2)*
X294140000Y-116440000D03*
G04 #@! TD*
D13*
G04 #@! TO.P,J22,4*
G04 #@! TO.N,DIRR'*
X239090000Y-80190000D03*
G04 #@! TO.P,J22,3*
G04 #@! TO.N,PWMR'*
X239090000Y-82190000D03*
G04 #@! TO.P,J22,2*
G04 #@! TO.N,Net-(J22-Pad2)*
X239090000Y-84190000D03*
G04 #@! TO.P,J22,1*
G04 #@! TO.N,GND*
G04 #@! TA.AperFunction,ComponentPad*
G36*
G01*
X239715001Y-86790000D02*
X238464999Y-86790000D01*
G75*
G02*
X238215000Y-86540001I0J249999D01*
G01*
X238215000Y-85839999D01*
G75*
G02*
X238464999Y-85590000I249999J0D01*
G01*
X239715001Y-85590000D01*
G75*
G02*
X239965000Y-85839999I0J-249999D01*
G01*
X239965000Y-86540001D01*
G75*
G02*
X239715001Y-86790000I-249999J0D01*
G01*
G37*
G04 #@! TD.AperFunction*
G04 #@! TD*
G04 #@! TO.P,J23,1*
G04 #@! TO.N,GND*
G04 #@! TA.AperFunction,ComponentPad*
G36*
G01*
X239595001Y-102030000D02*
X238344999Y-102030000D01*
G75*
G02*
X238095000Y-101780001I0J249999D01*
G01*
X238095000Y-101079999D01*
G75*
G02*
X238344999Y-100830000I249999J0D01*
G01*
X239595001Y-100830000D01*
G75*
G02*
X239845000Y-101079999I0J-249999D01*
G01*
X239845000Y-101780001D01*
G75*
G02*
X239595001Y-102030000I-249999J0D01*
G01*
G37*
G04 #@! TD.AperFunction*
G04 #@! TO.P,J23,2*
G04 #@! TO.N,Net-(J23-Pad2)*
X238970000Y-99430000D03*
G04 #@! TO.P,J23,3*
G04 #@! TO.N,PWMR'*
X238970000Y-97430000D03*
G04 #@! TO.P,J23,4*
G04 #@! TO.N,DIRR'*
X238970000Y-95430000D03*
G04 #@! TD*
G04 #@! TO.P,J24,4*
G04 #@! TO.N,DIRR'*
X238970000Y-110030000D03*
G04 #@! TO.P,J24,3*
G04 #@! TO.N,PWMR'*
X238970000Y-112030000D03*
G04 #@! TO.P,J24,2*
G04 #@! TO.N,Net-(J24-Pad2)*
X238970000Y-114030000D03*
G04 #@! TO.P,J24,1*
G04 #@! TO.N,GND*
G04 #@! TA.AperFunction,ComponentPad*
G36*
G01*
X239595001Y-116630000D02*
X238344999Y-116630000D01*
G75*
G02*
X238095000Y-116380001I0J249999D01*
G01*
X238095000Y-115679999D01*
G75*
G02*
X238344999Y-115430000I249999J0D01*
G01*
X239595001Y-115430000D01*
G75*
G02*
X239845000Y-115679999I0J-249999D01*
G01*
X239845000Y-116380001D01*
G75*
G02*
X239595001Y-116630000I-249999J0D01*
G01*
G37*
G04 #@! TD.AperFunction*
G04 #@! TD*
D10*
G04 #@! TO.P,J25,2*
G04 #@! TO.N,GND*
X172790000Y-92570000D03*
G04 #@! TO.P,J25,1*
G04 #@! TO.N,Net-(J25-Pad1)*
X172790000Y-87570000D03*
G04 #@! TD*
G04 #@! TO.P,J26,1*
G04 #@! TO.N,Net-(J26-Pad1)*
X172790000Y-104570000D03*
G04 #@! TO.P,J26,2*
G04 #@! TO.N,Net-(J26-Pad2)*
X172790000Y-99570000D03*
G04 #@! TD*
G04 #@! TO.P,J28,2*
G04 #@! TO.N,Net-(J28-Pad2)*
X316650000Y-99450000D03*
G04 #@! TO.P,J28,1*
G04 #@! TO.N,Net-(J28-Pad1)*
X316650000Y-104450000D03*
G04 #@! TD*
D12*
G04 #@! TO.P,J29,1*
G04 #@! TO.N,+24V*
X174300000Y-58650000D03*
G04 #@! TO.P,J29,2*
X170900000Y-58650000D03*
G04 #@! TO.P,J29,3*
G04 #@! TO.N,Net-(J25-Pad1)*
X170900000Y-72120000D03*
G04 #@! TO.P,J29,4*
X174300000Y-72120000D03*
G04 #@! TD*
G04 #@! TO.P,J30,1*
G04 #@! TO.N,+24V*
X318150000Y-58530000D03*
G04 #@! TO.P,J30,2*
X314750000Y-58530000D03*
G04 #@! TO.P,J30,3*
G04 #@! TO.N,Net-(J27-Pad1)*
X314750000Y-72000000D03*
G04 #@! TO.P,J30,4*
X318150000Y-72000000D03*
G04 #@! TD*
D14*
G04 #@! TO.P,J31,2*
G04 #@! TO.N,Net-(J26-Pad1)*
X175290000Y-116570000D03*
G04 #@! TO.P,J31,1*
G04 #@! TO.N,Net-(J26-Pad2)*
X170290000Y-116570000D03*
G04 #@! TD*
G04 #@! TO.P,J32,1*
G04 #@! TO.N,Net-(J28-Pad2)*
X314140000Y-116450000D03*
G04 #@! TO.P,J32,2*
G04 #@! TO.N,Net-(J28-Pad1)*
X319140000Y-116450000D03*
G04 #@! TD*
D15*
G04 #@! TO.P,J34,3*
G04 #@! TO.N,PWML*
X224250000Y-129030000D03*
G04 #@! TO.P,J34,2*
G04 #@! TO.N,Net-(J34-Pad2)*
X224250000Y-126490000D03*
D16*
G04 #@! TO.P,J34,1*
G04 #@! TO.N,PWML''*
X224250000Y-123950000D03*
G04 #@! TD*
G04 #@! TO.P,J35,1*
G04 #@! TO.N,PWMR''*
X217850000Y-124050000D03*
D15*
G04 #@! TO.P,J35,2*
G04 #@! TO.N,Net-(J35-Pad2)*
X217850000Y-126590000D03*
G04 #@! TO.P,J35,3*
G04 #@! TO.N,PWMR*
X217850000Y-129130000D03*
G04 #@! TD*
D16*
G04 #@! TO.P,J36,1*
G04 #@! TO.N,DIRL''*
X210500000Y-124150000D03*
D15*
G04 #@! TO.P,J36,2*
G04 #@! TO.N,Net-(J36-Pad2)*
X210500000Y-126690000D03*
G04 #@! TO.P,J36,3*
G04 #@! TO.N,DIRL*
X210500000Y-129230000D03*
G04 #@! TD*
G04 #@! TO.P,J37,3*
G04 #@! TO.N,DIRR*
X230490000Y-128920000D03*
G04 #@! TO.P,J37,2*
G04 #@! TO.N,Net-(J37-Pad2)*
X230490000Y-126380000D03*
D16*
G04 #@! TO.P,J37,1*
G04 #@! TO.N,DIRR''*
X230490000Y-123840000D03*
G04 #@! TD*
D17*
G04 #@! TO.P,J39,1*
G04 #@! TO.N,ESP_VDD*
X142510000Y-185740000D03*
G04 #@! TO.P,J39,3*
G04 #@! TO.N,Net-(J39-Pad3)*
X147590000Y-185740000D03*
G04 #@! TO.P,J39,4*
G04 #@! TO.N,Net-(J39-Pad4)*
X150130000Y-185740000D03*
G04 #@! TO.P,J39,5*
G04 #@! TO.N,Net-(J39-Pad5)*
X152670000Y-185740000D03*
G04 #@! TO.P,J39,6*
G04 #@! TO.N,Net-(J39-Pad6)*
X155210000Y-185740000D03*
G04 #@! TO.P,J39,7*
G04 #@! TO.N,Net-(J39-Pad7)*
X157750000Y-185740000D03*
G04 #@! TO.P,J39,8*
G04 #@! TO.N,Net-(J39-Pad8)*
X160290000Y-185740000D03*
G04 #@! TO.P,J39,9*
G04 #@! TO.N,Net-(J39-Pad9)*
X162830000Y-185740000D03*
G04 #@! TO.P,J39,10*
G04 #@! TO.N,Net-(J39-Pad10)*
X165370000Y-185740000D03*
G04 #@! TO.P,J39,11*
G04 #@! TO.N,Net-(J39-Pad11)*
X167910000Y-185740000D03*
G04 #@! TO.P,J39,12*
G04 #@! TO.N,Net-(J39-Pad12)*
X170450000Y-185740000D03*
G04 #@! TO.P,J39,13*
G04 #@! TO.N,Net-(J39-Pad13)*
X172990000Y-185740000D03*
G04 #@! TO.P,J39,14*
G04 #@! TO.N,Net-(J39-Pad14)*
X175530000Y-185740000D03*
G04 #@! TO.P,J39,15*
G04 #@! TO.N,Net-(J39-Pad15)*
X178070000Y-185740000D03*
G04 #@! TO.P,J39,16*
G04 #@! TO.N,PWML''*
X142510000Y-157800000D03*
G04 #@! TO.P,J39,17*
G04 #@! TO.N,DIRL''*
X145050000Y-157800000D03*
G04 #@! TO.P,J39,18*
G04 #@! TO.N,PWMR''*
X147590000Y-157800000D03*
G04 #@! TO.P,J39,19*
G04 #@! TO.N,DIRR''*
X150130000Y-157800000D03*
G04 #@! TO.P,J39,20*
G04 #@! TO.N,Net-(J39-Pad20)*
X152670000Y-157800000D03*
G04 #@! TO.P,J39,21*
G04 #@! TO.N,Net-(J39-Pad21)*
X155210000Y-157800000D03*
G04 #@! TO.P,J39,22*
G04 #@! TO.N,Net-(J39-Pad22)*
X157750000Y-157800000D03*
G04 #@! TO.P,J39,23*
G04 #@! TO.N,Net-(J39-Pad23)*
X160290000Y-157800000D03*
G04 #@! TO.P,J39,24*
G04 #@! TO.N,Net-(J39-Pad24)*
X162830000Y-157800000D03*
G04 #@! TO.P,J39,25*
G04 #@! TO.N,Net-(J39-Pad25)*
X165370000Y-157800000D03*
G04 #@! TO.P,J39,26*
G04 #@! TO.N,Net-(J39-Pad26)*
X167910000Y-157800000D03*
G04 #@! TO.P,J39,27*
G04 #@! TO.N,Net-(J39-Pad27)*
X170450000Y-157800000D03*
G04 #@! TO.P,J39,28*
G04 #@! TO.N,Net-(J39-Pad28)*
X172990000Y-157800000D03*
G04 #@! TO.P,J39,29*
G04 #@! TO.N,Net-(J39-Pad29)*
X175530000Y-157800000D03*
G04 #@! TO.P,J39,30*
G04 #@! TO.N,Net-(J39-Pad30)*
X178070000Y-157800000D03*
G04 #@! TO.P,J39,2*
G04 #@! TO.N,GND*
X145050000Y-185740000D03*
G04 #@! TD*
D18*
G04 #@! TO.P,J33,1*
G04 #@! TO.N,GND*
X115350000Y-157990000D03*
G04 #@! TO.P,J33,2*
G04 #@! TO.N,Net-(J33-Pad2)*
X115350000Y-150790000D03*
G04 #@! TD*
D19*
G04 #@! TO.P,J38,S4*
G04 #@! TO.N,N/C*
X321150000Y-131900000D03*
G04 #@! TO.P,J38,S3*
X321150000Y-189900000D03*
G04 #@! TO.P,J38,S2*
X272150000Y-189900000D03*
G04 #@! TO.P,J38,S1*
X272150000Y-131900000D03*
D20*
G04 #@! TO.P,J38,1*
G04 #@! TO.N,Net-(J38-Pad1)*
X273420000Y-136770000D03*
D17*
G04 #@! TO.P,J38,3*
G04 #@! TO.N,Net-(J38-Pad3)*
X273420000Y-139310000D03*
G04 #@! TO.P,J38,5*
G04 #@! TO.N,Net-(J38-Pad5)*
X273420000Y-141850000D03*
G04 #@! TO.P,J38,7*
G04 #@! TO.N,Net-(J38-Pad7)*
X273420000Y-144390000D03*
G04 #@! TO.P,J38,9*
G04 #@! TO.N,GND*
X273420000Y-146930000D03*
G04 #@! TO.P,J38,11*
G04 #@! TO.N,Net-(J38-Pad11)*
X273420000Y-149470000D03*
G04 #@! TO.P,J38,2*
G04 #@! TO.N,Net-(J38-Pad2)*
X270880000Y-136770000D03*
G04 #@! TO.P,J38,4*
X270880000Y-139310000D03*
G04 #@! TO.P,J38,6*
G04 #@! TO.N,GND*
X270880000Y-141850000D03*
G04 #@! TO.P,J38,8*
G04 #@! TO.N,Net-(J38-Pad8)*
X270880000Y-144390000D03*
G04 #@! TO.P,J38,10*
G04 #@! TO.N,Net-(J38-Pad10)*
X270880000Y-146930000D03*
G04 #@! TO.P,J38,12*
G04 #@! TO.N,Net-(J38-Pad12)*
X270880000Y-149470000D03*
G04 #@! TO.P,J38,13*
G04 #@! TO.N,Net-(J38-Pad13)*
X273420000Y-152010000D03*
G04 #@! TO.P,J38,14*
G04 #@! TO.N,GND*
X270880000Y-152010000D03*
G04 #@! TO.P,J38,15*
G04 #@! TO.N,Net-(J38-Pad15)*
X273420000Y-154550000D03*
G04 #@! TO.P,J38,17*
G04 #@! TO.N,Net-(J38-Pad1)*
X273420000Y-157090000D03*
G04 #@! TO.P,J38,19*
G04 #@! TO.N,Net-(J38-Pad19)*
X273420000Y-159630000D03*
G04 #@! TO.P,J38,21*
G04 #@! TO.N,Net-(J38-Pad21)*
X273420000Y-162170000D03*
G04 #@! TO.P,J38,23*
G04 #@! TO.N,Net-(J38-Pad23)*
X273420000Y-164710000D03*
G04 #@! TO.P,J38,25*
G04 #@! TO.N,GND*
X273420000Y-167250000D03*
G04 #@! TO.P,J38,16*
G04 #@! TO.N,Net-(J38-Pad16)*
X270880000Y-154550000D03*
G04 #@! TO.P,J38,18*
G04 #@! TO.N,Net-(J38-Pad18)*
X270880000Y-157090000D03*
G04 #@! TO.P,J38,20*
G04 #@! TO.N,GND*
X270880000Y-159630000D03*
G04 #@! TO.P,J38,22*
G04 #@! TO.N,Net-(J38-Pad22)*
X270880000Y-162170000D03*
G04 #@! TO.P,J38,24*
G04 #@! TO.N,Net-(J38-Pad24)*
X270880000Y-164710000D03*
G04 #@! TO.P,J38,26*
G04 #@! TO.N,Net-(J38-Pad26)*
X270880000Y-167250000D03*
G04 #@! TO.P,J38,27*
G04 #@! TO.N,Net-(J38-Pad27)*
X273420000Y-169790000D03*
G04 #@! TO.P,J38,28*
G04 #@! TO.N,Net-(J38-Pad28)*
X270880000Y-169790000D03*
G04 #@! TO.P,J38,29*
G04 #@! TO.N,Net-(J38-Pad29)*
X273420000Y-172330000D03*
G04 #@! TO.P,J38,31*
G04 #@! TO.N,Net-(J38-Pad31)*
X273420000Y-174870000D03*
G04 #@! TO.P,J38,33*
G04 #@! TO.N,PWML*
X273420000Y-177410000D03*
G04 #@! TO.P,J38,35*
G04 #@! TO.N,DIRR*
X273420000Y-179950000D03*
G04 #@! TO.P,J38,37*
G04 #@! TO.N,Net-(J38-Pad37)*
X273420000Y-182490000D03*
G04 #@! TO.P,J38,39*
G04 #@! TO.N,GND*
X273420000Y-185030000D03*
G04 #@! TO.P,J38,30*
X270880000Y-172330000D03*
G04 #@! TO.P,J38,32*
G04 #@! TO.N,PWMR*
X270880000Y-174870000D03*
G04 #@! TO.P,J38,34*
G04 #@! TO.N,GND*
X270880000Y-177410000D03*
G04 #@! TO.P,J38,36*
G04 #@! TO.N,DIRL*
X270880000Y-179950000D03*
G04 #@! TO.P,J38,38*
G04 #@! TO.N,Net-(J38-Pad38)*
X270880000Y-182490000D03*
G04 #@! TO.P,J38,40*
G04 #@! TO.N,Net-(J38-Pad40)*
X270880000Y-185030000D03*
G04 #@! TD*
G04 #@! TO.P,R1,2*
G04 #@! TO.N,Net-(D1-Pad2)*
G04 #@! TA.AperFunction,SMDPad,CuDef*
G36*
G01*
X218930000Y-49289999D02*
X218930000Y-50190001D01*
G75*
G02*
X218680001Y-50440000I-249999J0D01*
G01*
X217979999Y-50440000D01*
G75*
G02*
X217730000Y-50190001I0J249999D01*
G01*
X217730000Y-49289999D01*
G75*
G02*
X217979999Y-49040000I249999J0D01*
G01*
X218680001Y-49040000D01*
G75*
G02*
X218930000Y-49289999I0J-249999D01*
G01*
G37*
G04 #@! TD.AperFunction*
G04 #@! TO.P,R1,1*
G04 #@! TO.N,Net-(J34-Pad2)*
G04 #@! TA.AperFunction,SMDPad,CuDef*
G36*
G01*
X220930000Y-49289999D02*
X220930000Y-50190001D01*
G75*
G02*
X220680001Y-50440000I-249999J0D01*
G01*
X219979999Y-50440000D01*
G75*
G02*
X219730000Y-50190001I0J249999D01*
G01*
X219730000Y-49289999D01*
G75*
G02*
X219979999Y-49040000I249999J0D01*
G01*
X220680001Y-49040000D01*
G75*
G02*
X220930000Y-49289999I0J-249999D01*
G01*
G37*
G04 #@! TD.AperFunction*
G04 #@! TD*
G04 #@! TO.P,R2,1*
G04 #@! TO.N,Net-(D2-Pad2)*
G04 #@! TA.AperFunction,SMDPad,CuDef*
G36*
G01*
X218140000Y-74430001D02*
X218140000Y-73529999D01*
G75*
G02*
X218389999Y-73280000I249999J0D01*
G01*
X219090001Y-73280000D01*
G75*
G02*
X219340000Y-73529999I0J-249999D01*
G01*
X219340000Y-74430001D01*
G75*
G02*
X219090001Y-74680000I-249999J0D01*
G01*
X218389999Y-74680000D01*
G75*
G02*
X218140000Y-74430001I0J249999D01*
G01*
G37*
G04 #@! TD.AperFunction*
G04 #@! TO.P,R2,2*
G04 #@! TO.N,Net-(J35-Pad2)*
G04 #@! TA.AperFunction,SMDPad,CuDef*
G36*
G01*
X220140000Y-74430001D02*
X220140000Y-73529999D01*
G75*
G02*
X220389999Y-73280000I249999J0D01*
G01*
X221090001Y-73280000D01*
G75*
G02*
X221340000Y-73529999I0J-249999D01*
G01*
X221340000Y-74430001D01*
G75*
G02*
X221090001Y-74680000I-249999J0D01*
G01*
X220389999Y-74680000D01*
G75*
G02*
X220140000Y-74430001I0J249999D01*
G01*
G37*
G04 #@! TD.AperFunction*
G04 #@! TD*
G04 #@! TO.P,R3,2*
G04 #@! TO.N,Net-(J36-Pad2)*
G04 #@! TA.AperFunction,SMDPad,CuDef*
G36*
G01*
X208380001Y-60660000D02*
X207479999Y-60660000D01*
G75*
G02*
X207230000Y-60410001I0J249999D01*
G01*
X207230000Y-59709999D01*
G75*
G02*
X207479999Y-59460000I249999J0D01*
G01*
X208380001Y-59460000D01*
G75*
G02*
X208630000Y-59709999I0J-249999D01*
G01*
X208630000Y-60410001D01*
G75*
G02*
X208380001Y-60660000I-249999J0D01*
G01*
G37*
G04 #@! TD.AperFunction*
G04 #@! TO.P,R3,1*
G04 #@! TO.N,Net-(D3-Pad2)*
G04 #@! TA.AperFunction,SMDPad,CuDef*
G36*
G01*
X208380001Y-62660000D02*
X207479999Y-62660000D01*
G75*
G02*
X207230000Y-62410001I0J249999D01*
G01*
X207230000Y-61709999D01*
G75*
G02*
X207479999Y-61460000I249999J0D01*
G01*
X208380001Y-61460000D01*
G75*
G02*
X208630000Y-61709999I0J-249999D01*
G01*
X208630000Y-62410001D01*
G75*
G02*
X208380001Y-62660000I-249999J0D01*
G01*
G37*
G04 #@! TD.AperFunction*
G04 #@! TD*
G04 #@! TO.P,R4,1*
G04 #@! TO.N,Net-(D4-Pad2)*
G04 #@! TA.AperFunction,SMDPad,CuDef*
G36*
G01*
X232520001Y-62780000D02*
X231619999Y-62780000D01*
G75*
G02*
X231370000Y-62530001I0J249999D01*
G01*
X231370000Y-61829999D01*
G75*
G02*
X231619999Y-61580000I249999J0D01*
G01*
X232520001Y-61580000D01*
G75*
G02*
X232770000Y-61829999I0J-249999D01*
G01*
X232770000Y-62530001D01*
G75*
G02*
X232520001Y-62780000I-249999J0D01*
G01*
G37*
G04 #@! TD.AperFunction*
G04 #@! TO.P,R4,2*
G04 #@! TO.N,Net-(J37-Pad2)*
G04 #@! TA.AperFunction,SMDPad,CuDef*
G36*
G01*
X232520001Y-60780000D02*
X231619999Y-60780000D01*
G75*
G02*
X231370000Y-60530001I0J249999D01*
G01*
X231370000Y-59829999D01*
G75*
G02*
X231619999Y-59580000I249999J0D01*
G01*
X232520001Y-59580000D01*
G75*
G02*
X232770000Y-59829999I0J-249999D01*
G01*
X232770000Y-60530001D01*
G75*
G02*
X232520001Y-60780000I-249999J0D01*
G01*
G37*
G04 #@! TD.AperFunction*
G04 #@! TD*
D21*
G04 #@! TO.P,SW1,3*
G04 #@! TO.N,Net-(SW1-Pad3)*
X215000000Y-164710000D03*
G04 #@! TO.P,SW1,2*
G04 #@! TO.N,ESP_VDD*
X215000000Y-159710000D03*
G04 #@! TO.P,SW1,1*
G04 #@! TO.N,Net-(J33-Pad2)*
X215000000Y-154710000D03*
G04 #@! TD*
D22*
G04 #@! TO.N,+24V*
X138400000Y-43120000D03*
X138350000Y-44560000D03*
X138280000Y-45930000D03*
X138280000Y-47460000D03*
X138200000Y-49010000D03*
X139970000Y-43070000D03*
X139930000Y-44540000D03*
X139770000Y-45930000D03*
X139770000Y-47380000D03*
X139740000Y-48900000D03*
X138250000Y-50650000D03*
X139770000Y-50610000D03*
X118420000Y-55210000D03*
X119900000Y-55230000D03*
X121540000Y-55300000D03*
X123220000Y-55340000D03*
X124930000Y-55410000D03*
X126640000Y-55480000D03*
X118260000Y-61830000D03*
X119880000Y-61830000D03*
X121400000Y-61860000D03*
X122950000Y-61860000D03*
X124540000Y-61900000D03*
X126300000Y-61970000D03*
X143390000Y-55610000D03*
X145120000Y-55630000D03*
X146660000Y-55670000D03*
X148340000Y-55640000D03*
X150000000Y-55670000D03*
X151620000Y-55640000D03*
X143230000Y-61870000D03*
X144640000Y-61840000D03*
X146260000Y-61870000D03*
X147830000Y-61910000D03*
X149610000Y-61940000D03*
X151220000Y-61940000D03*
X167890000Y-55370000D03*
X169890000Y-55370000D03*
X171740000Y-55370000D03*
X173710000Y-55410000D03*
X175710000Y-55410000D03*
X177410000Y-55410000D03*
X167930000Y-61430000D03*
X169810000Y-61510000D03*
X171740000Y-61590000D03*
X174060000Y-61550000D03*
X176070000Y-61590000D03*
X177480000Y-61630000D03*
X282420000Y-42980000D03*
X284050000Y-42940000D03*
X282650000Y-44870000D03*
X284000000Y-44750000D03*
X282280000Y-46940000D03*
X283800000Y-46940000D03*
X282260000Y-49320000D03*
X283820000Y-49280000D03*
X262520000Y-55300000D03*
X264220000Y-55330000D03*
X265680000Y-55290000D03*
X267430000Y-55320000D03*
X269480000Y-55320000D03*
X271400000Y-55320000D03*
X262210000Y-61480000D03*
X263990000Y-61340000D03*
X265810000Y-61400000D03*
X267770000Y-61340000D03*
X269860000Y-61230000D03*
X271570000Y-61170000D03*
X287010000Y-55370000D03*
X288580000Y-55280000D03*
X290310000Y-55400000D03*
X292210000Y-55450000D03*
X294390000Y-55400000D03*
X296120000Y-55400000D03*
X287150000Y-61940000D03*
X288690000Y-61800000D03*
X291030000Y-61820000D03*
X292820000Y-61910000D03*
X294780000Y-61910000D03*
X296620000Y-61660000D03*
X311240000Y-55480000D03*
X312690000Y-55420000D03*
X314420000Y-55310000D03*
X316410000Y-55250000D03*
X318510000Y-55220000D03*
X320430000Y-55200000D03*
X311350000Y-62300000D03*
X313110000Y-62130000D03*
X315510000Y-62040000D03*
X317190000Y-62040000D03*
X319570000Y-62100000D03*
X321130000Y-61930000D03*
G04 #@! TO.N,Net-(J12-Pad1)*
X109560000Y-98140000D03*
X109400000Y-100570000D03*
X112070000Y-97910000D03*
X111990000Y-100810000D03*
X114770000Y-98140000D03*
X114890000Y-100370000D03*
X128300000Y-98100000D03*
X128380000Y-100370000D03*
X130610000Y-97830000D03*
X131090000Y-100530000D03*
X133000000Y-99140000D03*
X117440000Y-99220000D03*
X114950000Y-113210000D03*
X116990000Y-113130000D03*
X115290000Y-115420000D03*
X117080000Y-115390000D03*
X115260000Y-118190000D03*
X117190000Y-118240000D03*
X115370000Y-120330000D03*
X117470000Y-120350000D03*
G04 #@! TO.N,Net-(J3-Pad1)*
X118160000Y-81070000D03*
X119960000Y-81070000D03*
X122130000Y-81070000D03*
X124420000Y-81070000D03*
X126450000Y-81140000D03*
X126550000Y-83270000D03*
X124290000Y-83140000D03*
X122100000Y-83270000D03*
X119800000Y-83240000D03*
X117960000Y-83170000D03*
X120690000Y-84880000D03*
X123570000Y-84910000D03*
G04 #@! TO.N,Net-(J5-Pad1)*
X262000000Y-81080000D03*
X263690000Y-81040000D03*
X265710000Y-81080000D03*
X267190000Y-81000000D03*
X269170000Y-80880000D03*
X271620000Y-80840000D03*
X262080000Y-83820000D03*
X263690000Y-83580000D03*
X265950000Y-83620000D03*
X267840000Y-83580000D03*
X269610000Y-83530000D03*
X271510000Y-83540000D03*
G04 #@! TO.N,Net-(J13-Pad2)*
X259380000Y-112990000D03*
X261010000Y-112950000D03*
X259340000Y-114910000D03*
X261030000Y-115050000D03*
X259220000Y-116940000D03*
X261250000Y-116960000D03*
X259200000Y-119180000D03*
X261180000Y-119130000D03*
X252390000Y-97640000D03*
X252670000Y-100460000D03*
X254720000Y-97430000D03*
X254910000Y-100360000D03*
X257350000Y-97520000D03*
X257680000Y-100200000D03*
X259890000Y-98800000D03*
X271620000Y-97740000D03*
X271680000Y-100190000D03*
X273860000Y-97570000D03*
X273930000Y-100060000D03*
X276380000Y-98750000D03*
G04 #@! TO.N,Net-(J14-Pad1)*
X143740000Y-81190000D03*
X145240000Y-81110000D03*
X147440000Y-81070000D03*
X149720000Y-81150000D03*
X152080000Y-81110000D03*
X144050000Y-83080000D03*
X145950000Y-83030000D03*
X148120000Y-82970000D03*
X150120000Y-82980000D03*
X152140000Y-83030000D03*
X146920000Y-84680000D03*
X149230000Y-84570000D03*
G04 #@! TO.N,Net-(J15-Pad1)*
X136900000Y-97850000D03*
X137100000Y-100100000D03*
X138770000Y-97760000D03*
X138960000Y-100190000D03*
X141250000Y-97810000D03*
X141390000Y-99960000D03*
X142780000Y-98810000D03*
X153090000Y-97420000D03*
X153280000Y-100150000D03*
X155380000Y-97760000D03*
X155530000Y-100050000D03*
X157720000Y-98710000D03*
X140260000Y-113580000D03*
X142070000Y-113640000D03*
X140280000Y-115870000D03*
X142190000Y-115680000D03*
X140170000Y-118050000D03*
X142440000Y-118160000D03*
X140310000Y-120230000D03*
X142350000Y-120290000D03*
G04 #@! TO.N,Net-(J16-Pad1)*
X287210000Y-81070000D03*
X288900000Y-80990000D03*
X290820000Y-80990000D03*
X292970000Y-81020000D03*
X295090000Y-80960000D03*
X296730000Y-80990000D03*
X287230000Y-82940000D03*
X288990000Y-82880000D03*
X290940000Y-82970000D03*
X293000000Y-82850000D03*
X295040000Y-82880000D03*
X296760000Y-83020000D03*
G04 #@! TO.N,Net-(J17-Pad1)*
X284040000Y-113210000D03*
X285880000Y-113210000D03*
X284040000Y-115140000D03*
X286110000Y-115230000D03*
X284060000Y-117240000D03*
X286250000Y-117280000D03*
X284040000Y-119430000D03*
X286280000Y-119480000D03*
X281130000Y-98010000D03*
X281030000Y-100220000D03*
X283110000Y-97880000D03*
X282970000Y-100320000D03*
X285120000Y-98180000D03*
X285420000Y-100260000D03*
X287030000Y-98850000D03*
X296620000Y-97470000D03*
X296590000Y-99790000D03*
X298470000Y-97510000D03*
X298570000Y-100020000D03*
X301190000Y-98980000D03*
G04 #@! TO.N,Net-(J25-Pad1)*
X168360000Y-81340000D03*
X170210000Y-81370000D03*
X173040000Y-81410000D03*
X175760000Y-81100000D03*
X177880000Y-81370000D03*
X168280000Y-83240000D03*
X169880000Y-83220000D03*
X171670000Y-83250000D03*
X174260000Y-83110000D03*
X176820000Y-83210000D03*
X172020000Y-84670000D03*
X173750000Y-84640000D03*
G04 #@! TO.N,Net-(J26-Pad2)*
X162590000Y-97950000D03*
X162590000Y-100230000D03*
X164780000Y-98090000D03*
X164830000Y-100540000D03*
X166920000Y-97830000D03*
X167020000Y-100680000D03*
X178480000Y-97930000D03*
X178680000Y-100370000D03*
X181250000Y-97580000D03*
X181900000Y-100400000D03*
X184270000Y-97930000D03*
X184620000Y-100470000D03*
X165180000Y-113000000D03*
X166910000Y-112970000D03*
X165060000Y-115040000D03*
X166910000Y-115130000D03*
X164950000Y-117250000D03*
X167050000Y-117450000D03*
X165040000Y-119850000D03*
X167160000Y-119820000D03*
G04 #@! TO.N,Net-(J27-Pad1)*
X312180000Y-81260000D03*
X313760000Y-81260000D03*
X315800000Y-81060000D03*
X317800000Y-81230000D03*
X319760000Y-81230000D03*
X321560000Y-81230000D03*
X311780000Y-83210000D03*
X313870000Y-83210000D03*
X315880000Y-83240000D03*
X318030000Y-83350000D03*
X319730000Y-83240000D03*
X321310000Y-83040000D03*
G04 #@! TO.N,Net-(J28-Pad2)*
X308800000Y-113170000D03*
X310680000Y-113100000D03*
X309000000Y-114940000D03*
X310880000Y-115080000D03*
X308830000Y-116960000D03*
X311110000Y-116920000D03*
X309030000Y-119370000D03*
X311250000Y-119400000D03*
X306440000Y-97800000D03*
X306490000Y-100210000D03*
X308090000Y-97760000D03*
X308210000Y-100130000D03*
X310070000Y-97720000D03*
X310220000Y-100180000D03*
X311740000Y-98930000D03*
X322130000Y-97550000D03*
X322230000Y-100690000D03*
X324600000Y-97800000D03*
X325000000Y-100870000D03*
X327660000Y-97570000D03*
X327940000Y-100790000D03*
G04 #@! TD*
D23*
G04 #@! TO.N,+24V*
X281859999Y-39759999D02*
X288050000Y-45950000D01*
X146559999Y-39759999D02*
X281859999Y-39759999D01*
X144200000Y-42119998D02*
X146559999Y-39759999D01*
X144200000Y-46060000D02*
X144200000Y-42119998D01*
D24*
G04 #@! TO.N,Net-(D1-Pad2)*
X215330000Y-52740000D02*
X218330000Y-49740000D01*
X211910000Y-52740000D02*
X215330000Y-52740000D01*
G04 #@! TO.N,PWML'*
X200630000Y-114020000D02*
X199170000Y-114020000D01*
X199170000Y-114020000D02*
X198100000Y-112950000D01*
X198100000Y-101940000D02*
X200640000Y-99400000D01*
X198100000Y-112950000D02*
X198100000Y-101940000D01*
X200640000Y-99400000D02*
X199750000Y-99400000D01*
X199750000Y-99400000D02*
X198350000Y-98000000D01*
X198350000Y-86580000D02*
X200760000Y-84170000D01*
X198350000Y-98000000D02*
X198350000Y-86580000D01*
X200760000Y-84170000D02*
X205750000Y-79180000D01*
X205750000Y-58900000D02*
X210460432Y-54189568D01*
X205750000Y-79180000D02*
X205750000Y-58900000D01*
G04 #@! TO.N,PWMR'*
X238970000Y-112030000D02*
X241550000Y-109450000D01*
X241550000Y-100010000D02*
X238970000Y-97430000D01*
X241550000Y-109450000D02*
X241550000Y-100010000D01*
X238970000Y-97430000D02*
X241450000Y-94950000D01*
X239090000Y-82500773D02*
X239090000Y-82190000D01*
X241450000Y-84860773D02*
X239090000Y-82500773D01*
X241450000Y-94950000D02*
X241450000Y-84860773D01*
X240365010Y-64995010D02*
X229434784Y-54064784D01*
X240365010Y-80914990D02*
X240365010Y-64995010D01*
X239090000Y-82190000D02*
X240365010Y-80914990D01*
G04 #@! TO.N,Net-(D2-Pad2)*
X219330000Y-49020744D02*
X221200744Y-47150000D01*
X219330000Y-73390000D02*
X219330000Y-49020744D01*
X218740000Y-73980000D02*
X219330000Y-73390000D01*
X222520000Y-47150000D02*
X227985216Y-52615216D01*
X221200744Y-47150000D02*
X222520000Y-47150000D01*
G04 #@! TO.N,Net-(D3-Pad2)*
X209745216Y-63875216D02*
X207930000Y-62060000D01*
X209745216Y-68630216D02*
X209745216Y-63875216D01*
G04 #@! TO.N,DIRL'*
X200630000Y-116020000D02*
X203700000Y-112950000D01*
X203700000Y-104460000D02*
X200640000Y-101400000D01*
X203700000Y-112950000D02*
X203700000Y-104460000D01*
X200640000Y-101400000D02*
X203250000Y-98790000D01*
X201820000Y-86170000D02*
X200760000Y-86170000D01*
X203250000Y-87600000D02*
X201820000Y-86170000D01*
X203250000Y-98790000D02*
X203250000Y-87600000D01*
X211194784Y-75735216D02*
X200760000Y-86170000D01*
X211194784Y-70079784D02*
X211194784Y-75735216D01*
G04 #@! TO.N,DIRR'*
X238970000Y-110030000D02*
X237730000Y-110030000D01*
X237730000Y-110030000D02*
X236550000Y-108850000D01*
X236550000Y-97850000D02*
X238970000Y-95430000D01*
X236550000Y-108850000D02*
X236550000Y-97850000D01*
X238970000Y-95430000D02*
X238130000Y-95430000D01*
X238130000Y-95430000D02*
X236350000Y-93650000D01*
X236350000Y-82930000D02*
X239090000Y-80190000D01*
X236350000Y-93650000D02*
X236350000Y-82930000D01*
X239015432Y-80190000D02*
X228735216Y-69909784D01*
X239090000Y-80190000D02*
X239015432Y-80190000D01*
G04 #@! TO.N,Net-(D4-Pad2)*
X230184784Y-64065216D02*
X232070000Y-62180000D01*
X230184784Y-68460216D02*
X230184784Y-64065216D01*
G04 #@! TO.N,PWML*
X268927999Y-173707999D02*
X274107999Y-173707999D01*
X224250000Y-129030000D02*
X268927999Y-173707999D01*
X274107999Y-173707999D02*
X275350000Y-174950000D01*
X275350000Y-175480000D02*
X273420000Y-177410000D01*
X275350000Y-174950000D02*
X275350000Y-175480000D01*
D25*
G04 #@! TO.N,Net-(J33-Pad2)*
X215000000Y-154710000D02*
X195990000Y-154710000D01*
X195990000Y-154710000D02*
X182700000Y-168000000D01*
X116350000Y-150790000D02*
X115350000Y-150790000D01*
X133560000Y-168000000D02*
X116350000Y-150790000D01*
X182700000Y-168000000D02*
X133560000Y-168000000D01*
D24*
G04 #@! TO.N,Net-(J34-Pad2)*
X221740010Y-77409990D02*
X223550000Y-75600000D01*
X223550000Y-52960000D02*
X220330000Y-49740000D01*
X223550000Y-75600000D02*
X223550000Y-52960000D01*
X221740010Y-123980010D02*
X221740010Y-121559990D01*
X224250000Y-126490000D02*
X221740010Y-123980010D01*
X221740010Y-121559990D02*
X221740010Y-77409990D01*
X221740010Y-121929990D02*
X221740010Y-121559990D01*
G04 #@! TO.N,PWMR*
X263590000Y-174870000D02*
X270880000Y-174870000D01*
X217850000Y-129130000D02*
X263590000Y-174870000D01*
G04 #@! TO.N,Net-(J35-Pad2)*
X217850000Y-126590000D02*
X220400000Y-124040000D01*
X220400000Y-74320000D02*
X220740000Y-73980000D01*
X220400000Y-124040000D02*
X220400000Y-74320000D01*
G04 #@! TO.N,DIRL*
X261220000Y-179950000D02*
X270880000Y-179950000D01*
X210500000Y-129230000D02*
X261220000Y-179950000D01*
G04 #@! TO.N,DIRR*
X273977761Y-171167999D02*
X276250000Y-173440238D01*
X270322239Y-171167999D02*
X273977761Y-171167999D01*
X230490000Y-131335760D02*
X270322239Y-171167999D01*
X230490000Y-128920000D02*
X230490000Y-131335760D01*
X276250000Y-177120000D02*
X273420000Y-179950000D01*
X276250000Y-173440238D02*
X276250000Y-177120000D01*
G04 #@! TO.N,Net-(J36-Pad2)*
X207930000Y-60060000D02*
X211910000Y-60060000D01*
X211910000Y-60060000D02*
X214400009Y-62550009D01*
X218850000Y-78199982D02*
X214400009Y-73749991D01*
X218850000Y-119950000D02*
X218850000Y-78199982D01*
X214400009Y-62550009D02*
X214400009Y-73749991D01*
X212110000Y-126690000D02*
X214000000Y-124800000D01*
X214000000Y-124800000D02*
X218850000Y-119950000D01*
X212110000Y-126690000D02*
X213375000Y-125425000D01*
X213375000Y-125425000D02*
X214000000Y-124800000D01*
X212070000Y-126730000D02*
X213375000Y-125425000D01*
X210540000Y-126730000D02*
X210500000Y-126690000D01*
X212070000Y-126730000D02*
X210540000Y-126730000D01*
G04 #@! TO.N,Net-(J38-Pad2)*
X270880000Y-136770000D02*
X270880000Y-139310000D01*
G04 #@! TO.N,Net-(J37-Pad2)*
X230970000Y-60180000D02*
X232070000Y-60180000D01*
X225250000Y-65900000D02*
X230970000Y-60180000D01*
X225250000Y-75650000D02*
X225250000Y-65900000D01*
X224325000Y-76575000D02*
X224275000Y-76575000D01*
X224325000Y-76575000D02*
X225250000Y-75650000D01*
X224275000Y-76575000D02*
X223050000Y-77800000D01*
X223050000Y-118940000D02*
X227505000Y-123395000D01*
X223050000Y-77800000D02*
X223050000Y-118940000D01*
X230490000Y-126380000D02*
X227505000Y-123395000D01*
G04 #@! TO.N,Net-(J38-Pad1)*
X273420000Y-136770000D02*
X274170000Y-136770000D01*
X274170000Y-136770000D02*
X275600000Y-138200000D01*
X275600000Y-154910000D02*
X273420000Y-157090000D01*
X275600000Y-138200000D02*
X275600000Y-154910000D01*
G04 #@! TD*
D26*
G04 #@! TO.N,Net-(J28-Pad2)*
X331490001Y-96258415D02*
X331490001Y-112550514D01*
X331426714Y-123782831D01*
X305489071Y-123748170D01*
X305538377Y-112950000D01*
X316751928Y-112950000D01*
X316751928Y-119950000D01*
X316764188Y-120074482D01*
X316800498Y-120194180D01*
X316859463Y-120304494D01*
X316938815Y-120401185D01*
X317035506Y-120480537D01*
X317145820Y-120539502D01*
X317265518Y-120575812D01*
X317390000Y-120588072D01*
X320890000Y-120588072D01*
X321014482Y-120575812D01*
X321134180Y-120539502D01*
X321244494Y-120480537D01*
X321341185Y-120401185D01*
X321420537Y-120304494D01*
X321479502Y-120194180D01*
X321515812Y-120074482D01*
X321528072Y-119950000D01*
X321528072Y-112950000D01*
X321515812Y-112825518D01*
X321479502Y-112705820D01*
X321420537Y-112595506D01*
X321341185Y-112498815D01*
X321244494Y-112419463D01*
X321134180Y-112360498D01*
X321014482Y-112324188D01*
X320890000Y-112311928D01*
X317390000Y-112311928D01*
X317265518Y-112324188D01*
X317145820Y-112360498D01*
X317035506Y-112419463D01*
X316938815Y-112498815D01*
X316859463Y-112595506D01*
X316800498Y-112705820D01*
X316764188Y-112825518D01*
X316751928Y-112950000D01*
X305538377Y-112950000D01*
X305585181Y-102700000D01*
X312511928Y-102700000D01*
X312511928Y-106200000D01*
X312524188Y-106324482D01*
X312560498Y-106444180D01*
X312619463Y-106554494D01*
X312698815Y-106651185D01*
X312795506Y-106730537D01*
X312905820Y-106789502D01*
X313025518Y-106825812D01*
X313150000Y-106838072D01*
X320150000Y-106838072D01*
X320274482Y-106825812D01*
X320394180Y-106789502D01*
X320504494Y-106730537D01*
X320601185Y-106651185D01*
X320680537Y-106554494D01*
X320739502Y-106444180D01*
X320775812Y-106324482D01*
X320788072Y-106200000D01*
X320788072Y-102700000D01*
X320775812Y-102575518D01*
X320739502Y-102455820D01*
X320680537Y-102345506D01*
X320601185Y-102248815D01*
X320504494Y-102169463D01*
X320394180Y-102110498D01*
X320274482Y-102074188D01*
X320150000Y-102061928D01*
X313150000Y-102061928D01*
X313025518Y-102074188D01*
X312905820Y-102110498D01*
X312795506Y-102169463D01*
X312698815Y-102248815D01*
X312619463Y-102345506D01*
X312560498Y-102455820D01*
X312524188Y-102575518D01*
X312511928Y-102700000D01*
X305585181Y-102700000D01*
X305614910Y-96189338D01*
X331490001Y-96258415D01*
G04 #@! TA.AperFunction,Conductor*
D27*
G36*
X331490001Y-96258415D02*
G01*
X331490001Y-112550514D01*
X331426714Y-123782831D01*
X305489071Y-123748170D01*
X305538377Y-112950000D01*
X316751928Y-112950000D01*
X316751928Y-119950000D01*
X316764188Y-120074482D01*
X316800498Y-120194180D01*
X316859463Y-120304494D01*
X316938815Y-120401185D01*
X317035506Y-120480537D01*
X317145820Y-120539502D01*
X317265518Y-120575812D01*
X317390000Y-120588072D01*
X320890000Y-120588072D01*
X321014482Y-120575812D01*
X321134180Y-120539502D01*
X321244494Y-120480537D01*
X321341185Y-120401185D01*
X321420537Y-120304494D01*
X321479502Y-120194180D01*
X321515812Y-120074482D01*
X321528072Y-119950000D01*
X321528072Y-112950000D01*
X321515812Y-112825518D01*
X321479502Y-112705820D01*
X321420537Y-112595506D01*
X321341185Y-112498815D01*
X321244494Y-112419463D01*
X321134180Y-112360498D01*
X321014482Y-112324188D01*
X320890000Y-112311928D01*
X317390000Y-112311928D01*
X317265518Y-112324188D01*
X317145820Y-112360498D01*
X317035506Y-112419463D01*
X316938815Y-112498815D01*
X316859463Y-112595506D01*
X316800498Y-112705820D01*
X316764188Y-112825518D01*
X316751928Y-112950000D01*
X305538377Y-112950000D01*
X305585181Y-102700000D01*
X312511928Y-102700000D01*
X312511928Y-106200000D01*
X312524188Y-106324482D01*
X312560498Y-106444180D01*
X312619463Y-106554494D01*
X312698815Y-106651185D01*
X312795506Y-106730537D01*
X312905820Y-106789502D01*
X313025518Y-106825812D01*
X313150000Y-106838072D01*
X320150000Y-106838072D01*
X320274482Y-106825812D01*
X320394180Y-106789502D01*
X320504494Y-106730537D01*
X320601185Y-106651185D01*
X320680537Y-106554494D01*
X320739502Y-106444180D01*
X320775812Y-106324482D01*
X320788072Y-106200000D01*
X320788072Y-102700000D01*
X320775812Y-102575518D01*
X320739502Y-102455820D01*
X320680537Y-102345506D01*
X320601185Y-102248815D01*
X320504494Y-102169463D01*
X320394180Y-102110498D01*
X320274482Y-102074188D01*
X320150000Y-102061928D01*
X313150000Y-102061928D01*
X313025518Y-102074188D01*
X312905820Y-102110498D01*
X312795506Y-102169463D01*
X312698815Y-102248815D01*
X312619463Y-102345506D01*
X312560498Y-102455820D01*
X312524188Y-102575518D01*
X312511928Y-102700000D01*
X305585181Y-102700000D01*
X305614910Y-96189338D01*
X331490001Y-96258415D01*
G37*
G04 #@! TD.AperFunction*
G04 #@! TD*
D26*
G04 #@! TO.N,+24V*
X329909698Y-37632883D02*
X330160584Y-37708411D01*
X330392018Y-37831229D01*
X330595192Y-37996662D01*
X330762361Y-38198406D01*
X330887162Y-38428780D01*
X330964839Y-38679004D01*
X330998000Y-38992104D01*
X330998000Y-64333810D01*
X251277000Y-64323017D01*
X251277000Y-41950000D01*
X291117547Y-41950000D01*
X291117547Y-49950000D01*
X291139307Y-50170931D01*
X291203750Y-50383371D01*
X291308400Y-50579157D01*
X291449235Y-50750765D01*
X291620843Y-50891600D01*
X291816629Y-50996250D01*
X292029069Y-51060693D01*
X292250000Y-51082453D01*
X298250000Y-51082453D01*
X298470931Y-51060693D01*
X298683371Y-50996250D01*
X298879157Y-50891600D01*
X299050765Y-50750765D01*
X299191600Y-50579157D01*
X299296250Y-50383371D01*
X299360693Y-50170931D01*
X299382453Y-49950000D01*
X299382453Y-41950000D01*
X299360693Y-41729069D01*
X299296250Y-41516629D01*
X299191600Y-41320843D01*
X299050765Y-41149235D01*
X298905475Y-41029998D01*
X323248000Y-41029998D01*
X323248000Y-41774002D01*
X323393148Y-42503710D01*
X323677866Y-43191080D01*
X324091213Y-43809697D01*
X324617303Y-44335787D01*
X325235920Y-44749134D01*
X325923290Y-45033852D01*
X326652998Y-45179000D01*
X327397002Y-45179000D01*
X328126710Y-45033852D01*
X328814080Y-44749134D01*
X329432697Y-44335787D01*
X329958787Y-43809697D01*
X330372134Y-43191080D01*
X330656852Y-42503710D01*
X330802000Y-41774002D01*
X330802000Y-41029998D01*
X330656852Y-40300290D01*
X330372134Y-39612920D01*
X329958787Y-38994303D01*
X329432697Y-38468213D01*
X328814080Y-38054866D01*
X328126710Y-37770148D01*
X327397002Y-37625000D01*
X326652998Y-37625000D01*
X325923290Y-37770148D01*
X325235920Y-38054866D01*
X324617303Y-38468213D01*
X324091213Y-38994303D01*
X323677866Y-39612920D01*
X323393148Y-40300290D01*
X323248000Y-41029998D01*
X298905475Y-41029998D01*
X298879157Y-41008400D01*
X298683371Y-40903750D01*
X298470931Y-40839307D01*
X298250000Y-40817547D01*
X292250000Y-40817547D01*
X292029069Y-40839307D01*
X291816629Y-40903750D01*
X291620843Y-41008400D01*
X291449235Y-41149235D01*
X291308400Y-41320843D01*
X291203750Y-41516629D01*
X291139307Y-41729069D01*
X291117547Y-41950000D01*
X251277000Y-41950000D01*
X251277000Y-37667369D01*
X329592599Y-37602047D01*
X329909698Y-37632883D01*
G04 #@! TA.AperFunction,Conductor*
D27*
G36*
X329909698Y-37632883D02*
G01*
X330160584Y-37708411D01*
X330392018Y-37831229D01*
X330595192Y-37996662D01*
X330762361Y-38198406D01*
X330887162Y-38428780D01*
X330964839Y-38679004D01*
X330998000Y-38992104D01*
X330998000Y-64333810D01*
X251277000Y-64323017D01*
X251277000Y-41950000D01*
X291117547Y-41950000D01*
X291117547Y-49950000D01*
X291139307Y-50170931D01*
X291203750Y-50383371D01*
X291308400Y-50579157D01*
X291449235Y-50750765D01*
X291620843Y-50891600D01*
X291816629Y-50996250D01*
X292029069Y-51060693D01*
X292250000Y-51082453D01*
X298250000Y-51082453D01*
X298470931Y-51060693D01*
X298683371Y-50996250D01*
X298879157Y-50891600D01*
X299050765Y-50750765D01*
X299191600Y-50579157D01*
X299296250Y-50383371D01*
X299360693Y-50170931D01*
X299382453Y-49950000D01*
X299382453Y-41950000D01*
X299360693Y-41729069D01*
X299296250Y-41516629D01*
X299191600Y-41320843D01*
X299050765Y-41149235D01*
X298905475Y-41029998D01*
X323248000Y-41029998D01*
X323248000Y-41774002D01*
X323393148Y-42503710D01*
X323677866Y-43191080D01*
X324091213Y-43809697D01*
X324617303Y-44335787D01*
X325235920Y-44749134D01*
X325923290Y-45033852D01*
X326652998Y-45179000D01*
X327397002Y-45179000D01*
X328126710Y-45033852D01*
X328814080Y-44749134D01*
X329432697Y-44335787D01*
X329958787Y-43809697D01*
X330372134Y-43191080D01*
X330656852Y-42503710D01*
X330802000Y-41774002D01*
X330802000Y-41029998D01*
X330656852Y-40300290D01*
X330372134Y-39612920D01*
X329958787Y-38994303D01*
X329432697Y-38468213D01*
X328814080Y-38054866D01*
X328126710Y-37770148D01*
X327397002Y-37625000D01*
X326652998Y-37625000D01*
X325923290Y-37770148D01*
X325235920Y-38054866D01*
X324617303Y-38468213D01*
X324091213Y-38994303D01*
X323677866Y-39612920D01*
X323393148Y-40300290D01*
X323248000Y-41029998D01*
X298905475Y-41029998D01*
X298879157Y-41008400D01*
X298683371Y-40903750D01*
X298470931Y-40839307D01*
X298250000Y-40817547D01*
X292250000Y-40817547D01*
X292029069Y-40839307D01*
X291816629Y-40903750D01*
X291620843Y-41008400D01*
X291449235Y-41149235D01*
X291308400Y-41320843D01*
X291203750Y-41516629D01*
X291139307Y-41729069D01*
X291117547Y-41950000D01*
X251277000Y-41950000D01*
X251277000Y-37667369D01*
X329592599Y-37602047D01*
X329909698Y-37632883D01*
G37*
G04 #@! TD.AperFunction*
G04 #@! TD*
D26*
G04 #@! TO.N,Net-(J13-Pad2)*
X278211974Y-123807519D02*
X251099769Y-123700194D01*
X251162429Y-112860000D01*
X266267547Y-112860000D01*
X266267547Y-119860000D01*
X266289307Y-120080931D01*
X266353750Y-120293371D01*
X266458400Y-120489157D01*
X266599235Y-120660765D01*
X266770843Y-120801600D01*
X266966629Y-120906250D01*
X267179069Y-120970693D01*
X267400000Y-120992453D01*
X270900000Y-120992453D01*
X271120931Y-120970693D01*
X271333371Y-120906250D01*
X271529157Y-120801600D01*
X271700765Y-120660765D01*
X271841600Y-120489157D01*
X271946250Y-120293371D01*
X272010693Y-120080931D01*
X272032453Y-119860000D01*
X272032453Y-112860000D01*
X272010693Y-112639069D01*
X271946250Y-112426629D01*
X271841600Y-112230843D01*
X271700765Y-112059235D01*
X271529157Y-111918400D01*
X271333371Y-111813750D01*
X271120931Y-111749307D01*
X270900000Y-111727547D01*
X267400000Y-111727547D01*
X267179069Y-111749307D01*
X266966629Y-111813750D01*
X266770843Y-111918400D01*
X266599235Y-112059235D01*
X266458400Y-112230843D01*
X266353750Y-112426629D01*
X266289307Y-112639069D01*
X266267547Y-112860000D01*
X251162429Y-112860000D01*
X251221273Y-102680000D01*
X262017547Y-102680000D01*
X262017547Y-106180000D01*
X262039307Y-106400931D01*
X262103750Y-106613371D01*
X262208400Y-106809157D01*
X262349235Y-106980765D01*
X262520843Y-107121600D01*
X262716629Y-107226250D01*
X262929069Y-107290693D01*
X263150000Y-107312453D01*
X270150000Y-107312453D01*
X270370931Y-107290693D01*
X270583371Y-107226250D01*
X270779157Y-107121600D01*
X270950765Y-106980765D01*
X271091600Y-106809157D01*
X271196250Y-106613371D01*
X271260693Y-106400931D01*
X271282453Y-106180000D01*
X271282453Y-102680000D01*
X271260693Y-102459069D01*
X271196250Y-102246629D01*
X271091600Y-102050843D01*
X270950765Y-101879235D01*
X270779157Y-101738400D01*
X270583371Y-101633750D01*
X270370931Y-101569307D01*
X270150000Y-101547547D01*
X263150000Y-101547547D01*
X262929069Y-101569307D01*
X262716629Y-101633750D01*
X262520843Y-101738400D01*
X262349235Y-101879235D01*
X262208400Y-102050843D01*
X262103750Y-102246629D01*
X262039307Y-102459069D01*
X262017547Y-102680000D01*
X251221273Y-102680000D01*
X251255509Y-96757227D01*
X277992793Y-96452787D01*
X278211974Y-123807519D01*
G04 #@! TA.AperFunction,Conductor*
D27*
G36*
X278211974Y-123807519D02*
G01*
X251099769Y-123700194D01*
X251162429Y-112860000D01*
X266267547Y-112860000D01*
X266267547Y-119860000D01*
X266289307Y-120080931D01*
X266353750Y-120293371D01*
X266458400Y-120489157D01*
X266599235Y-120660765D01*
X266770843Y-120801600D01*
X266966629Y-120906250D01*
X267179069Y-120970693D01*
X267400000Y-120992453D01*
X270900000Y-120992453D01*
X271120931Y-120970693D01*
X271333371Y-120906250D01*
X271529157Y-120801600D01*
X271700765Y-120660765D01*
X271841600Y-120489157D01*
X271946250Y-120293371D01*
X272010693Y-120080931D01*
X272032453Y-119860000D01*
X272032453Y-112860000D01*
X272010693Y-112639069D01*
X271946250Y-112426629D01*
X271841600Y-112230843D01*
X271700765Y-112059235D01*
X271529157Y-111918400D01*
X271333371Y-111813750D01*
X271120931Y-111749307D01*
X270900000Y-111727547D01*
X267400000Y-111727547D01*
X267179069Y-111749307D01*
X266966629Y-111813750D01*
X266770843Y-111918400D01*
X266599235Y-112059235D01*
X266458400Y-112230843D01*
X266353750Y-112426629D01*
X266289307Y-112639069D01*
X266267547Y-112860000D01*
X251162429Y-112860000D01*
X251221273Y-102680000D01*
X262017547Y-102680000D01*
X262017547Y-106180000D01*
X262039307Y-106400931D01*
X262103750Y-106613371D01*
X262208400Y-106809157D01*
X262349235Y-106980765D01*
X262520843Y-107121600D01*
X262716629Y-107226250D01*
X262929069Y-107290693D01*
X263150000Y-107312453D01*
X270150000Y-107312453D01*
X270370931Y-107290693D01*
X270583371Y-107226250D01*
X270779157Y-107121600D01*
X270950765Y-106980765D01*
X271091600Y-106809157D01*
X271196250Y-106613371D01*
X271260693Y-106400931D01*
X271282453Y-106180000D01*
X271282453Y-102680000D01*
X271260693Y-102459069D01*
X271196250Y-102246629D01*
X271091600Y-102050843D01*
X270950765Y-101879235D01*
X270779157Y-101738400D01*
X270583371Y-101633750D01*
X270370931Y-101569307D01*
X270150000Y-101547547D01*
X263150000Y-101547547D01*
X262929069Y-101569307D01*
X262716629Y-101633750D01*
X262520843Y-101738400D01*
X262349235Y-101879235D01*
X262208400Y-102050843D01*
X262103750Y-102246629D01*
X262039307Y-102459069D01*
X262017547Y-102680000D01*
X251221273Y-102680000D01*
X251255509Y-96757227D01*
X277992793Y-96452787D01*
X278211974Y-123807519D01*
G37*
G04 #@! TD.AperFunction*
G04 #@! TD*
D26*
G04 #@! TO.N,Net-(J5-Pad1)*
X274523000Y-89323000D02*
X251277000Y-89323000D01*
X251277000Y-66577000D01*
X274523000Y-66577000D01*
X274523000Y-89323000D01*
G04 #@! TA.AperFunction,Conductor*
D27*
G36*
X274523000Y-89323000D02*
G01*
X251277000Y-89323000D01*
X251277000Y-66577000D01*
X274523000Y-66577000D01*
X274523000Y-89323000D01*
G37*
G04 #@! TD.AperFunction*
G04 #@! TD*
D26*
G04 #@! TO.N,Net-(J27-Pad1)*
X330998001Y-89323000D02*
X308777000Y-89323000D01*
X308777000Y-66577000D01*
X330998000Y-66577000D01*
X330998001Y-89323000D01*
G04 #@! TA.AperFunction,Conductor*
D27*
G36*
X330998001Y-89323000D02*
G01*
X308777000Y-89323000D01*
X308777000Y-66577000D01*
X330998000Y-66577000D01*
X330998001Y-89323000D01*
G37*
G04 #@! TD.AperFunction*
G04 #@! TD*
D26*
G04 #@! TO.N,Net-(J16-Pad1)*
X304023000Y-89323000D02*
X279277000Y-89323000D01*
X279277000Y-66577000D01*
X304023000Y-66577000D01*
X304023000Y-89323000D01*
G04 #@! TA.AperFunction,Conductor*
D27*
G36*
X304023000Y-89323000D02*
G01*
X279277000Y-89323000D01*
X279277000Y-66577000D01*
X304023000Y-66577000D01*
X304023000Y-89323000D01*
G37*
G04 #@! TD.AperFunction*
G04 #@! TD*
D26*
G04 #@! TO.N,Net-(J17-Pad1)*
X303043904Y-123783000D02*
X279797904Y-123783000D01*
X279789680Y-112940000D01*
X291751928Y-112940000D01*
X291751928Y-119940000D01*
X291764188Y-120064482D01*
X291800498Y-120184180D01*
X291859463Y-120294494D01*
X291938815Y-120391185D01*
X292035506Y-120470537D01*
X292145820Y-120529502D01*
X292265518Y-120565812D01*
X292390000Y-120578072D01*
X295890000Y-120578072D01*
X296014482Y-120565812D01*
X296134180Y-120529502D01*
X296244494Y-120470537D01*
X296341185Y-120391185D01*
X296420537Y-120294494D01*
X296479502Y-120184180D01*
X296515812Y-120064482D01*
X296528072Y-119940000D01*
X296528072Y-112940000D01*
X296515812Y-112815518D01*
X296479502Y-112695820D01*
X296420537Y-112585506D01*
X296341185Y-112488815D01*
X296244494Y-112409463D01*
X296134180Y-112350498D01*
X296014482Y-112314188D01*
X295890000Y-112301928D01*
X292390000Y-112301928D01*
X292265518Y-112314188D01*
X292145820Y-112350498D01*
X292035506Y-112409463D01*
X291938815Y-112488815D01*
X291859463Y-112585506D01*
X291800498Y-112695820D01*
X291764188Y-112815518D01*
X291751928Y-112940000D01*
X279789680Y-112940000D01*
X279781920Y-102710000D01*
X287511928Y-102710000D01*
X287511928Y-106210000D01*
X287524188Y-106334482D01*
X287560498Y-106454180D01*
X287619463Y-106564494D01*
X287698815Y-106661185D01*
X287795506Y-106740537D01*
X287905820Y-106799502D01*
X288025518Y-106835812D01*
X288150000Y-106848072D01*
X295150000Y-106848072D01*
X295274482Y-106835812D01*
X295394180Y-106799502D01*
X295504494Y-106740537D01*
X295601185Y-106661185D01*
X295680537Y-106564494D01*
X295739502Y-106454180D01*
X295775812Y-106334482D01*
X295788072Y-106210000D01*
X295788072Y-102710000D01*
X295775812Y-102585518D01*
X295739502Y-102465820D01*
X295680537Y-102355506D01*
X295601185Y-102258815D01*
X295504494Y-102179463D01*
X295394180Y-102120498D01*
X295274482Y-102084188D01*
X295150000Y-102071928D01*
X288150000Y-102071928D01*
X288025518Y-102084188D01*
X287905820Y-102120498D01*
X287795506Y-102179463D01*
X287698815Y-102258815D01*
X287619463Y-102355506D01*
X287560498Y-102465820D01*
X287524188Y-102585518D01*
X287511928Y-102710000D01*
X279781920Y-102710000D01*
X279777096Y-96351000D01*
X303023096Y-96351000D01*
X303043904Y-123783000D01*
G04 #@! TA.AperFunction,Conductor*
D27*
G36*
X303043904Y-123783000D02*
G01*
X279797904Y-123783000D01*
X279789680Y-112940000D01*
X291751928Y-112940000D01*
X291751928Y-119940000D01*
X291764188Y-120064482D01*
X291800498Y-120184180D01*
X291859463Y-120294494D01*
X291938815Y-120391185D01*
X292035506Y-120470537D01*
X292145820Y-120529502D01*
X292265518Y-120565812D01*
X292390000Y-120578072D01*
X295890000Y-120578072D01*
X296014482Y-120565812D01*
X296134180Y-120529502D01*
X296244494Y-120470537D01*
X296341185Y-120391185D01*
X296420537Y-120294494D01*
X296479502Y-120184180D01*
X296515812Y-120064482D01*
X296528072Y-119940000D01*
X296528072Y-112940000D01*
X296515812Y-112815518D01*
X296479502Y-112695820D01*
X296420537Y-112585506D01*
X296341185Y-112488815D01*
X296244494Y-112409463D01*
X296134180Y-112350498D01*
X296014482Y-112314188D01*
X295890000Y-112301928D01*
X292390000Y-112301928D01*
X292265518Y-112314188D01*
X292145820Y-112350498D01*
X292035506Y-112409463D01*
X291938815Y-112488815D01*
X291859463Y-112585506D01*
X291800498Y-112695820D01*
X291764188Y-112815518D01*
X291751928Y-112940000D01*
X279789680Y-112940000D01*
X279781920Y-102710000D01*
X287511928Y-102710000D01*
X287511928Y-106210000D01*
X287524188Y-106334482D01*
X287560498Y-106454180D01*
X287619463Y-106564494D01*
X287698815Y-106661185D01*
X287795506Y-106740537D01*
X287905820Y-106799502D01*
X288025518Y-106835812D01*
X288150000Y-106848072D01*
X295150000Y-106848072D01*
X295274482Y-106835812D01*
X295394180Y-106799502D01*
X295504494Y-106740537D01*
X295601185Y-106661185D01*
X295680537Y-106564494D01*
X295739502Y-106454180D01*
X295775812Y-106334482D01*
X295788072Y-106210000D01*
X295788072Y-102710000D01*
X295775812Y-102585518D01*
X295739502Y-102465820D01*
X295680537Y-102355506D01*
X295601185Y-102258815D01*
X295504494Y-102179463D01*
X295394180Y-102120498D01*
X295274482Y-102084188D01*
X295150000Y-102071928D01*
X288150000Y-102071928D01*
X288025518Y-102084188D01*
X287905820Y-102120498D01*
X287795506Y-102179463D01*
X287698815Y-102258815D01*
X287619463Y-102355506D01*
X287560498Y-102465820D01*
X287524188Y-102585518D01*
X287511928Y-102710000D01*
X279781920Y-102710000D01*
X279777096Y-96351000D01*
X303023096Y-96351000D01*
X303043904Y-123783000D01*
G37*
G04 #@! TD.AperFunction*
G04 #@! TD*
D26*
G04 #@! TO.N,Net-(J26-Pad2)*
X187721795Y-96378660D02*
X187566714Y-123902831D01*
X161629071Y-123868170D01*
X161678377Y-113070000D01*
X172901928Y-113070000D01*
X172901928Y-120070000D01*
X172914188Y-120194482D01*
X172950498Y-120314180D01*
X173009463Y-120424494D01*
X173088815Y-120521185D01*
X173185506Y-120600537D01*
X173295820Y-120659502D01*
X173415518Y-120695812D01*
X173540000Y-120708072D01*
X177040000Y-120708072D01*
X177164482Y-120695812D01*
X177284180Y-120659502D01*
X177394494Y-120600537D01*
X177491185Y-120521185D01*
X177570537Y-120424494D01*
X177629502Y-120314180D01*
X177665812Y-120194482D01*
X177678072Y-120070000D01*
X177678072Y-113070000D01*
X177665812Y-112945518D01*
X177629502Y-112825820D01*
X177570537Y-112715506D01*
X177491185Y-112618815D01*
X177394494Y-112539463D01*
X177284180Y-112480498D01*
X177164482Y-112444188D01*
X177040000Y-112431928D01*
X173540000Y-112431928D01*
X173415518Y-112444188D01*
X173295820Y-112480498D01*
X173185506Y-112539463D01*
X173088815Y-112618815D01*
X173009463Y-112715506D01*
X172950498Y-112825820D01*
X172914188Y-112945518D01*
X172901928Y-113070000D01*
X161678377Y-113070000D01*
X161725181Y-102820000D01*
X168651928Y-102820000D01*
X168651928Y-106320000D01*
X168664188Y-106444482D01*
X168700498Y-106564180D01*
X168759463Y-106674494D01*
X168838815Y-106771185D01*
X168935506Y-106850537D01*
X169045820Y-106909502D01*
X169165518Y-106945812D01*
X169290000Y-106958072D01*
X176290000Y-106958072D01*
X176414482Y-106945812D01*
X176534180Y-106909502D01*
X176644494Y-106850537D01*
X176741185Y-106771185D01*
X176820537Y-106674494D01*
X176879502Y-106564180D01*
X176915812Y-106444482D01*
X176928072Y-106320000D01*
X176928072Y-102820000D01*
X176915812Y-102695518D01*
X176879502Y-102575820D01*
X176820537Y-102465506D01*
X176741185Y-102368815D01*
X176644494Y-102289463D01*
X176534180Y-102230498D01*
X176414482Y-102194188D01*
X176290000Y-102181928D01*
X169290000Y-102181928D01*
X169165518Y-102194188D01*
X169045820Y-102230498D01*
X168935506Y-102289463D01*
X168838815Y-102368815D01*
X168759463Y-102465506D01*
X168700498Y-102575820D01*
X168664188Y-102695518D01*
X168651928Y-102820000D01*
X161725181Y-102820000D01*
X161754910Y-96309338D01*
X187721795Y-96378660D01*
G04 #@! TA.AperFunction,Conductor*
D27*
G36*
X187721795Y-96378660D02*
G01*
X187566714Y-123902831D01*
X161629071Y-123868170D01*
X161678377Y-113070000D01*
X172901928Y-113070000D01*
X172901928Y-120070000D01*
X172914188Y-120194482D01*
X172950498Y-120314180D01*
X173009463Y-120424494D01*
X173088815Y-120521185D01*
X173185506Y-120600537D01*
X173295820Y-120659502D01*
X173415518Y-120695812D01*
X173540000Y-120708072D01*
X177040000Y-120708072D01*
X177164482Y-120695812D01*
X177284180Y-120659502D01*
X177394494Y-120600537D01*
X177491185Y-120521185D01*
X177570537Y-120424494D01*
X177629502Y-120314180D01*
X177665812Y-120194482D01*
X177678072Y-120070000D01*
X177678072Y-113070000D01*
X177665812Y-112945518D01*
X177629502Y-112825820D01*
X177570537Y-112715506D01*
X177491185Y-112618815D01*
X177394494Y-112539463D01*
X177284180Y-112480498D01*
X177164482Y-112444188D01*
X177040000Y-112431928D01*
X173540000Y-112431928D01*
X173415518Y-112444188D01*
X173295820Y-112480498D01*
X173185506Y-112539463D01*
X173088815Y-112618815D01*
X173009463Y-112715506D01*
X172950498Y-112825820D01*
X172914188Y-112945518D01*
X172901928Y-113070000D01*
X161678377Y-113070000D01*
X161725181Y-102820000D01*
X168651928Y-102820000D01*
X168651928Y-106320000D01*
X168664188Y-106444482D01*
X168700498Y-106564180D01*
X168759463Y-106674494D01*
X168838815Y-106771185D01*
X168935506Y-106850537D01*
X169045820Y-106909502D01*
X169165518Y-106945812D01*
X169290000Y-106958072D01*
X176290000Y-106958072D01*
X176414482Y-106945812D01*
X176534180Y-106909502D01*
X176644494Y-106850537D01*
X176741185Y-106771185D01*
X176820537Y-106674494D01*
X176879502Y-106564180D01*
X176915812Y-106444482D01*
X176928072Y-106320000D01*
X176928072Y-102820000D01*
X176915812Y-102695518D01*
X176879502Y-102575820D01*
X176820537Y-102465506D01*
X176741185Y-102368815D01*
X176644494Y-102289463D01*
X176534180Y-102230498D01*
X176414482Y-102194188D01*
X176290000Y-102181928D01*
X169290000Y-102181928D01*
X169165518Y-102194188D01*
X169045820Y-102230498D01*
X168935506Y-102289463D01*
X168838815Y-102368815D01*
X168759463Y-102465506D01*
X168700498Y-102575820D01*
X168664188Y-102695518D01*
X168651928Y-102820000D01*
X161725181Y-102820000D01*
X161754910Y-96309338D01*
X187721795Y-96378660D01*
G37*
G04 #@! TD.AperFunction*
G04 #@! TD*
D26*
G04 #@! TO.N,+24V*
X185747675Y-37229981D02*
X185748132Y-37230026D01*
X185780101Y-37229999D01*
X185812054Y-37230017D01*
X185812510Y-37229972D01*
X188163000Y-37228011D01*
X188163000Y-64453949D01*
X107417000Y-64443017D01*
X107417000Y-42694241D01*
X107578871Y-43085031D01*
X107938374Y-43623066D01*
X108395934Y-44080626D01*
X108933969Y-44440129D01*
X109531801Y-44687760D01*
X110166456Y-44814000D01*
X110813544Y-44814000D01*
X111448199Y-44687760D01*
X112046031Y-44440129D01*
X112584066Y-44080626D01*
X113041626Y-43623066D01*
X113401129Y-43085031D01*
X113648760Y-42487199D01*
X113733734Y-42060000D01*
X147761928Y-42060000D01*
X147761928Y-50060000D01*
X147774188Y-50184482D01*
X147810498Y-50304180D01*
X147869463Y-50414494D01*
X147948815Y-50511185D01*
X148045506Y-50590537D01*
X148155820Y-50649502D01*
X148275518Y-50685812D01*
X148400000Y-50698072D01*
X154400000Y-50698072D01*
X154524482Y-50685812D01*
X154644180Y-50649502D01*
X154754494Y-50590537D01*
X154851185Y-50511185D01*
X154930537Y-50414494D01*
X154989502Y-50304180D01*
X155025812Y-50184482D01*
X155038072Y-50060000D01*
X155038072Y-42060000D01*
X155025812Y-41935518D01*
X154989502Y-41815820D01*
X154930537Y-41705506D01*
X154851185Y-41608815D01*
X154754494Y-41529463D01*
X154644180Y-41470498D01*
X154524482Y-41434188D01*
X154400000Y-41421928D01*
X148400000Y-41421928D01*
X148275518Y-41434188D01*
X148155820Y-41470498D01*
X148045506Y-41529463D01*
X147948815Y-41608815D01*
X147869463Y-41705506D01*
X147810498Y-41815820D01*
X147774188Y-41935518D01*
X147761928Y-42060000D01*
X113733734Y-42060000D01*
X113775000Y-41852544D01*
X113775000Y-41205456D01*
X113648760Y-40570801D01*
X113401129Y-39972969D01*
X113041626Y-39434934D01*
X112584066Y-38977374D01*
X112046031Y-38617871D01*
X111448199Y-38370240D01*
X110813544Y-38244000D01*
X110166456Y-38244000D01*
X109531801Y-38370240D01*
X108933969Y-38617871D01*
X108395934Y-38977374D01*
X107938374Y-39434934D01*
X107578871Y-39972969D01*
X107417000Y-40363759D01*
X107417000Y-37294128D01*
X107631656Y-37227681D01*
X108018628Y-37187009D01*
X185747675Y-37229981D01*
G04 #@! TA.AperFunction,Conductor*
D27*
G36*
X185747675Y-37229981D02*
G01*
X185748132Y-37230026D01*
X185780101Y-37229999D01*
X185812054Y-37230017D01*
X185812510Y-37229972D01*
X188163000Y-37228011D01*
X188163000Y-64453949D01*
X107417000Y-64443017D01*
X107417000Y-42694241D01*
X107578871Y-43085031D01*
X107938374Y-43623066D01*
X108395934Y-44080626D01*
X108933969Y-44440129D01*
X109531801Y-44687760D01*
X110166456Y-44814000D01*
X110813544Y-44814000D01*
X111448199Y-44687760D01*
X112046031Y-44440129D01*
X112584066Y-44080626D01*
X113041626Y-43623066D01*
X113401129Y-43085031D01*
X113648760Y-42487199D01*
X113733734Y-42060000D01*
X147761928Y-42060000D01*
X147761928Y-50060000D01*
X147774188Y-50184482D01*
X147810498Y-50304180D01*
X147869463Y-50414494D01*
X147948815Y-50511185D01*
X148045506Y-50590537D01*
X148155820Y-50649502D01*
X148275518Y-50685812D01*
X148400000Y-50698072D01*
X154400000Y-50698072D01*
X154524482Y-50685812D01*
X154644180Y-50649502D01*
X154754494Y-50590537D01*
X154851185Y-50511185D01*
X154930537Y-50414494D01*
X154989502Y-50304180D01*
X155025812Y-50184482D01*
X155038072Y-50060000D01*
X155038072Y-42060000D01*
X155025812Y-41935518D01*
X154989502Y-41815820D01*
X154930537Y-41705506D01*
X154851185Y-41608815D01*
X154754494Y-41529463D01*
X154644180Y-41470498D01*
X154524482Y-41434188D01*
X154400000Y-41421928D01*
X148400000Y-41421928D01*
X148275518Y-41434188D01*
X148155820Y-41470498D01*
X148045506Y-41529463D01*
X147948815Y-41608815D01*
X147869463Y-41705506D01*
X147810498Y-41815820D01*
X147774188Y-41935518D01*
X147761928Y-42060000D01*
X113733734Y-42060000D01*
X113775000Y-41852544D01*
X113775000Y-41205456D01*
X113648760Y-40570801D01*
X113401129Y-39972969D01*
X113041626Y-39434934D01*
X112584066Y-38977374D01*
X112046031Y-38617871D01*
X111448199Y-38370240D01*
X110813544Y-38244000D01*
X110166456Y-38244000D01*
X109531801Y-38370240D01*
X108933969Y-38617871D01*
X108395934Y-38977374D01*
X107938374Y-39434934D01*
X107578871Y-39972969D01*
X107417000Y-40363759D01*
X107417000Y-37294128D01*
X107631656Y-37227681D01*
X108018628Y-37187009D01*
X185747675Y-37229981D01*
G37*
G04 #@! TD.AperFunction*
G04 #@! TD*
D26*
G04 #@! TO.N,Net-(J12-Pad1)*
X134351974Y-123927519D02*
X107239769Y-123820194D01*
X107301793Y-113090000D01*
X122901928Y-113090000D01*
X122901928Y-120090000D01*
X122914188Y-120214482D01*
X122950498Y-120334180D01*
X123009463Y-120444494D01*
X123088815Y-120541185D01*
X123185506Y-120620537D01*
X123295820Y-120679502D01*
X123415518Y-120715812D01*
X123540000Y-120728072D01*
X127040000Y-120728072D01*
X127164482Y-120715812D01*
X127284180Y-120679502D01*
X127394494Y-120620537D01*
X127491185Y-120541185D01*
X127570537Y-120444494D01*
X127629502Y-120334180D01*
X127665812Y-120214482D01*
X127678072Y-120090000D01*
X127678072Y-113090000D01*
X127665812Y-112965518D01*
X127629502Y-112845820D01*
X127570537Y-112735506D01*
X127491185Y-112638815D01*
X127394494Y-112559463D01*
X127284180Y-112500498D01*
X127164482Y-112464188D01*
X127040000Y-112451928D01*
X123540000Y-112451928D01*
X123415518Y-112464188D01*
X123295820Y-112500498D01*
X123185506Y-112559463D01*
X123088815Y-112638815D01*
X123009463Y-112735506D01*
X122950498Y-112845820D01*
X122914188Y-112965518D01*
X122901928Y-113090000D01*
X107301793Y-113090000D01*
X107361157Y-102820000D01*
X118651928Y-102820000D01*
X118651928Y-106320000D01*
X118664188Y-106444482D01*
X118700498Y-106564180D01*
X118759463Y-106674494D01*
X118838815Y-106771185D01*
X118935506Y-106850537D01*
X119045820Y-106909502D01*
X119165518Y-106945812D01*
X119290000Y-106958072D01*
X126290000Y-106958072D01*
X126414482Y-106945812D01*
X126534180Y-106909502D01*
X126644494Y-106850537D01*
X126741185Y-106771185D01*
X126820537Y-106674494D01*
X126879502Y-106564180D01*
X126915812Y-106444482D01*
X126928072Y-106320000D01*
X126928072Y-102820000D01*
X126915812Y-102695518D01*
X126879502Y-102575820D01*
X126820537Y-102465506D01*
X126741185Y-102368815D01*
X126644494Y-102289463D01*
X126534180Y-102230498D01*
X126414482Y-102194188D01*
X126290000Y-102181928D01*
X119290000Y-102181928D01*
X119165518Y-102194188D01*
X119045820Y-102230498D01*
X118935506Y-102289463D01*
X118838815Y-102368815D01*
X118759463Y-102465506D01*
X118700498Y-102575820D01*
X118664188Y-102695518D01*
X118651928Y-102820000D01*
X107361157Y-102820000D01*
X107395509Y-96877227D01*
X134132793Y-96572787D01*
X134351974Y-123927519D01*
G04 #@! TA.AperFunction,Conductor*
D27*
G36*
X134351974Y-123927519D02*
G01*
X107239769Y-123820194D01*
X107301793Y-113090000D01*
X122901928Y-113090000D01*
X122901928Y-120090000D01*
X122914188Y-120214482D01*
X122950498Y-120334180D01*
X123009463Y-120444494D01*
X123088815Y-120541185D01*
X123185506Y-120620537D01*
X123295820Y-120679502D01*
X123415518Y-120715812D01*
X123540000Y-120728072D01*
X127040000Y-120728072D01*
X127164482Y-120715812D01*
X127284180Y-120679502D01*
X127394494Y-120620537D01*
X127491185Y-120541185D01*
X127570537Y-120444494D01*
X127629502Y-120334180D01*
X127665812Y-120214482D01*
X127678072Y-120090000D01*
X127678072Y-113090000D01*
X127665812Y-112965518D01*
X127629502Y-112845820D01*
X127570537Y-112735506D01*
X127491185Y-112638815D01*
X127394494Y-112559463D01*
X127284180Y-112500498D01*
X127164482Y-112464188D01*
X127040000Y-112451928D01*
X123540000Y-112451928D01*
X123415518Y-112464188D01*
X123295820Y-112500498D01*
X123185506Y-112559463D01*
X123088815Y-112638815D01*
X123009463Y-112735506D01*
X122950498Y-112845820D01*
X122914188Y-112965518D01*
X122901928Y-113090000D01*
X107301793Y-113090000D01*
X107361157Y-102820000D01*
X118651928Y-102820000D01*
X118651928Y-106320000D01*
X118664188Y-106444482D01*
X118700498Y-106564180D01*
X118759463Y-106674494D01*
X118838815Y-106771185D01*
X118935506Y-106850537D01*
X119045820Y-106909502D01*
X119165518Y-106945812D01*
X119290000Y-106958072D01*
X126290000Y-106958072D01*
X126414482Y-106945812D01*
X126534180Y-106909502D01*
X126644494Y-106850537D01*
X126741185Y-106771185D01*
X126820537Y-106674494D01*
X126879502Y-106564180D01*
X126915812Y-106444482D01*
X126928072Y-106320000D01*
X126928072Y-102820000D01*
X126915812Y-102695518D01*
X126879502Y-102575820D01*
X126820537Y-102465506D01*
X126741185Y-102368815D01*
X126644494Y-102289463D01*
X126534180Y-102230498D01*
X126414482Y-102194188D01*
X126290000Y-102181928D01*
X119290000Y-102181928D01*
X119165518Y-102194188D01*
X119045820Y-102230498D01*
X118935506Y-102289463D01*
X118838815Y-102368815D01*
X118759463Y-102465506D01*
X118700498Y-102575820D01*
X118664188Y-102695518D01*
X118651928Y-102820000D01*
X107361157Y-102820000D01*
X107395509Y-96877227D01*
X134132793Y-96572787D01*
X134351974Y-123927519D01*
G37*
G04 #@! TD.AperFunction*
G04 #@! TD*
D26*
G04 #@! TO.N,Net-(J3-Pad1)*
X130663000Y-89443000D02*
X107417000Y-89443000D01*
X107417000Y-66697000D01*
X130663000Y-66697000D01*
X130663000Y-89443000D01*
G04 #@! TA.AperFunction,Conductor*
D27*
G36*
X130663000Y-89443000D02*
G01*
X107417000Y-89443000D01*
X107417000Y-66697000D01*
X130663000Y-66697000D01*
X130663000Y-89443000D01*
G37*
G04 #@! TD.AperFunction*
G04 #@! TD*
D26*
G04 #@! TO.N,Net-(J25-Pad1)*
X188163000Y-89443000D02*
X164917000Y-89443000D01*
X164917000Y-66697000D01*
X188163000Y-66697000D01*
X188163000Y-89443000D01*
G04 #@! TA.AperFunction,Conductor*
D27*
G36*
X188163000Y-89443000D02*
G01*
X164917000Y-89443000D01*
X164917000Y-66697000D01*
X188163000Y-66697000D01*
X188163000Y-89443000D01*
G37*
G04 #@! TD.AperFunction*
G04 #@! TD*
D26*
G04 #@! TO.N,Net-(J14-Pad1)*
X160163000Y-89443000D02*
X135417000Y-89443000D01*
X135417000Y-66697000D01*
X160163000Y-66697000D01*
X160163000Y-89443000D01*
G04 #@! TA.AperFunction,Conductor*
D27*
G36*
X160163000Y-89443000D02*
G01*
X135417000Y-89443000D01*
X135417000Y-66697000D01*
X160163000Y-66697000D01*
X160163000Y-89443000D01*
G37*
G04 #@! TD.AperFunction*
G04 #@! TD*
D26*
G04 #@! TO.N,Net-(J15-Pad1)*
X159183904Y-123903000D02*
X135937904Y-123903000D01*
X135929688Y-113070000D01*
X147901928Y-113070000D01*
X147901928Y-120070000D01*
X147914188Y-120194482D01*
X147950498Y-120314180D01*
X148009463Y-120424494D01*
X148088815Y-120521185D01*
X148185506Y-120600537D01*
X148295820Y-120659502D01*
X148415518Y-120695812D01*
X148540000Y-120708072D01*
X152040000Y-120708072D01*
X152164482Y-120695812D01*
X152284180Y-120659502D01*
X152394494Y-120600537D01*
X152491185Y-120521185D01*
X152570537Y-120424494D01*
X152629502Y-120314180D01*
X152665812Y-120194482D01*
X152678072Y-120070000D01*
X152678072Y-113070000D01*
X152665812Y-112945518D01*
X152629502Y-112825820D01*
X152570537Y-112715506D01*
X152491185Y-112618815D01*
X152394494Y-112539463D01*
X152284180Y-112480498D01*
X152164482Y-112444188D01*
X152040000Y-112431928D01*
X148540000Y-112431928D01*
X148415518Y-112444188D01*
X148295820Y-112480498D01*
X148185506Y-112539463D01*
X148088815Y-112618815D01*
X148009463Y-112715506D01*
X147950498Y-112825820D01*
X147914188Y-112945518D01*
X147901928Y-113070000D01*
X135929688Y-113070000D01*
X135921905Y-102810000D01*
X143641928Y-102810000D01*
X143641928Y-106310000D01*
X143654188Y-106434482D01*
X143690498Y-106554180D01*
X143749463Y-106664494D01*
X143828815Y-106761185D01*
X143925506Y-106840537D01*
X144035820Y-106899502D01*
X144155518Y-106935812D01*
X144280000Y-106948072D01*
X151280000Y-106948072D01*
X151404482Y-106935812D01*
X151524180Y-106899502D01*
X151634494Y-106840537D01*
X151731185Y-106761185D01*
X151810537Y-106664494D01*
X151869502Y-106554180D01*
X151905812Y-106434482D01*
X151918072Y-106310000D01*
X151918072Y-102810000D01*
X151905812Y-102685518D01*
X151869502Y-102565820D01*
X151810537Y-102455506D01*
X151731185Y-102358815D01*
X151634494Y-102279463D01*
X151524180Y-102220498D01*
X151404482Y-102184188D01*
X151280000Y-102171928D01*
X144280000Y-102171928D01*
X144155518Y-102184188D01*
X144035820Y-102220498D01*
X143925506Y-102279463D01*
X143828815Y-102358815D01*
X143749463Y-102455506D01*
X143690498Y-102565820D01*
X143654188Y-102685518D01*
X143641928Y-102810000D01*
X135921905Y-102810000D01*
X135917096Y-96471000D01*
X159163096Y-96471000D01*
X159183904Y-123903000D01*
G04 #@! TA.AperFunction,Conductor*
D27*
G36*
X159183904Y-123903000D02*
G01*
X135937904Y-123903000D01*
X135929688Y-113070000D01*
X147901928Y-113070000D01*
X147901928Y-120070000D01*
X147914188Y-120194482D01*
X147950498Y-120314180D01*
X148009463Y-120424494D01*
X148088815Y-120521185D01*
X148185506Y-120600537D01*
X148295820Y-120659502D01*
X148415518Y-120695812D01*
X148540000Y-120708072D01*
X152040000Y-120708072D01*
X152164482Y-120695812D01*
X152284180Y-120659502D01*
X152394494Y-120600537D01*
X152491185Y-120521185D01*
X152570537Y-120424494D01*
X152629502Y-120314180D01*
X152665812Y-120194482D01*
X152678072Y-120070000D01*
X152678072Y-113070000D01*
X152665812Y-112945518D01*
X152629502Y-112825820D01*
X152570537Y-112715506D01*
X152491185Y-112618815D01*
X152394494Y-112539463D01*
X152284180Y-112480498D01*
X152164482Y-112444188D01*
X152040000Y-112431928D01*
X148540000Y-112431928D01*
X148415518Y-112444188D01*
X148295820Y-112480498D01*
X148185506Y-112539463D01*
X148088815Y-112618815D01*
X148009463Y-112715506D01*
X147950498Y-112825820D01*
X147914188Y-112945518D01*
X147901928Y-113070000D01*
X135929688Y-113070000D01*
X135921905Y-102810000D01*
X143641928Y-102810000D01*
X143641928Y-106310000D01*
X143654188Y-106434482D01*
X143690498Y-106554180D01*
X143749463Y-106664494D01*
X143828815Y-106761185D01*
X143925506Y-106840537D01*
X144035820Y-106899502D01*
X144155518Y-106935812D01*
X144280000Y-106948072D01*
X151280000Y-106948072D01*
X151404482Y-106935812D01*
X151524180Y-106899502D01*
X151634494Y-106840537D01*
X151731185Y-106761185D01*
X151810537Y-106664494D01*
X151869502Y-106554180D01*
X151905812Y-106434482D01*
X151918072Y-106310000D01*
X151918072Y-102810000D01*
X151905812Y-102685518D01*
X151869502Y-102565820D01*
X151810537Y-102455506D01*
X151731185Y-102358815D01*
X151634494Y-102279463D01*
X151524180Y-102220498D01*
X151404482Y-102184188D01*
X151280000Y-102171928D01*
X144280000Y-102171928D01*
X144155518Y-102184188D01*
X144035820Y-102220498D01*
X143925506Y-102279463D01*
X143828815Y-102358815D01*
X143749463Y-102455506D01*
X143690498Y-102565820D01*
X143654188Y-102685518D01*
X143641928Y-102810000D01*
X135921905Y-102810000D01*
X135917096Y-96471000D01*
X159163096Y-96471000D01*
X159183904Y-123903000D01*
G37*
G04 #@! TD.AperFunction*
G04 #@! TD*
M02*
