G04 #@! TF.GenerationSoftware,KiCad,Pcbnew,(5.1.10)-1*
G04 #@! TF.CreationDate,2022-11-16T20:30:32+05:30*
G04 #@! TF.ProjectId,2023 control pcb,32303233-2063-46f6-9e74-726f6c207063,rev?*
G04 #@! TF.SameCoordinates,Original*
G04 #@! TF.FileFunction,Soldermask,Top*
G04 #@! TF.FilePolarity,Negative*
%FSLAX46Y46*%
G04 Gerber Fmt 4.6, Leading zero omitted, Abs format (unit mm)*
G04 Created by KiCad (PCBNEW (5.1.10)-1) date 2022-11-16 20:30:32*
%MOMM*%
%LPD*%
G01*
G04 APERTURE LIST*
%ADD10C,5.300000*%
%ADD11R,7.000000X3.500000*%
%ADD12R,6.000000X8.000000*%
%ADD13C,2.400000*%
%ADD14O,1.750000X1.200000*%
%ADD15R,3.500000X7.000000*%
%ADD16O,1.700000X1.700000*%
%ADD17R,1.700000X1.700000*%
%ADD18C,1.524000*%
%ADD19R,8.000000X6.000000*%
%ADD20C,6.200000*%
%ADD21R,1.524000X1.524000*%
%ADD22C,2.340000*%
G04 APERTURE END LIST*
D10*
G04 #@! TO.C,H4*
X216110000Y-185050000D03*
G04 #@! TD*
D11*
G04 #@! TO.C,J27*
X316640000Y-87450000D03*
X316640000Y-92450000D03*
G04 #@! TD*
G04 #@! TO.C,D1*
G36*
G01*
X211821612Y-53464785D02*
X211185215Y-52828388D01*
G75*
G02*
X211185215Y-52474836I176776J176776D01*
G01*
X211644836Y-52015215D01*
G75*
G02*
X211998388Y-52015215I176776J-176776D01*
G01*
X212634785Y-52651612D01*
G75*
G02*
X212634785Y-53005164I-176776J-176776D01*
G01*
X212175164Y-53464785D01*
G75*
G02*
X211821612Y-53464785I-176776J176776D01*
G01*
G37*
G36*
G01*
X210372044Y-54914353D02*
X209735647Y-54277956D01*
G75*
G02*
X209735647Y-53924404I176776J176776D01*
G01*
X210195268Y-53464783D01*
G75*
G02*
X210548820Y-53464783I176776J-176776D01*
G01*
X211185217Y-54101180D01*
G75*
G02*
X211185217Y-54454732I-176776J-176776D01*
G01*
X210725596Y-54914353D01*
G75*
G02*
X210372044Y-54914353I-176776J176776D01*
G01*
G37*
G04 #@! TD*
G04 #@! TO.C,D2*
G36*
G01*
X230159569Y-54153172D02*
X229523172Y-54789569D01*
G75*
G02*
X229169620Y-54789569I-176776J176776D01*
G01*
X228709999Y-54329948D01*
G75*
G02*
X228709999Y-53976396I176776J176776D01*
G01*
X229346396Y-53339999D01*
G75*
G02*
X229699948Y-53339999I176776J-176776D01*
G01*
X230159569Y-53799620D01*
G75*
G02*
X230159569Y-54153172I-176776J-176776D01*
G01*
G37*
G36*
G01*
X228710001Y-52703604D02*
X228073604Y-53340001D01*
G75*
G02*
X227720052Y-53340001I-176776J176776D01*
G01*
X227260431Y-52880380D01*
G75*
G02*
X227260431Y-52526828I176776J176776D01*
G01*
X227896828Y-51890431D01*
G75*
G02*
X228250380Y-51890431I176776J-176776D01*
G01*
X228710001Y-52350052D01*
G75*
G02*
X228710001Y-52703604I-176776J-176776D01*
G01*
G37*
G04 #@! TD*
G04 #@! TO.C,D3*
G36*
G01*
X210470001Y-68718604D02*
X209833604Y-69355001D01*
G75*
G02*
X209480052Y-69355001I-176776J176776D01*
G01*
X209020431Y-68895380D01*
G75*
G02*
X209020431Y-68541828I176776J176776D01*
G01*
X209656828Y-67905431D01*
G75*
G02*
X210010380Y-67905431I176776J-176776D01*
G01*
X210470001Y-68365052D01*
G75*
G02*
X210470001Y-68718604I-176776J-176776D01*
G01*
G37*
G36*
G01*
X211919569Y-70168172D02*
X211283172Y-70804569D01*
G75*
G02*
X210929620Y-70804569I-176776J176776D01*
G01*
X210469999Y-70344948D01*
G75*
G02*
X210469999Y-69991396I176776J176776D01*
G01*
X211106396Y-69354999D01*
G75*
G02*
X211459948Y-69354999I176776J-176776D01*
G01*
X211919569Y-69814620D01*
G75*
G02*
X211919569Y-70168172I-176776J-176776D01*
G01*
G37*
G04 #@! TD*
G04 #@! TO.C,D4*
G36*
G01*
X228646828Y-70634569D02*
X228010431Y-69998172D01*
G75*
G02*
X228010431Y-69644620I176776J176776D01*
G01*
X228470052Y-69184999D01*
G75*
G02*
X228823604Y-69184999I176776J-176776D01*
G01*
X229460001Y-69821396D01*
G75*
G02*
X229460001Y-70174948I-176776J-176776D01*
G01*
X229000380Y-70634569D01*
G75*
G02*
X228646828Y-70634569I-176776J176776D01*
G01*
G37*
G36*
G01*
X230096396Y-69185001D02*
X229459999Y-68548604D01*
G75*
G02*
X229459999Y-68195052I176776J176776D01*
G01*
X229919620Y-67735431D01*
G75*
G02*
X230273172Y-67735431I176776J-176776D01*
G01*
X230909569Y-68371828D01*
G75*
G02*
X230909569Y-68725380I-176776J-176776D01*
G01*
X230449948Y-69185001D01*
G75*
G02*
X230096396Y-69185001I-176776J176776D01*
G01*
G37*
G04 #@! TD*
D10*
G04 #@! TO.C,H1*
X110490000Y-41529000D03*
G04 #@! TD*
G04 #@! TO.C,H3*
X327025000Y-41402000D03*
G04 #@! TD*
G04 #@! TO.C,H5*
X110450000Y-190600000D03*
G04 #@! TD*
D12*
G04 #@! TO.C,J1*
X151400000Y-46060000D03*
X144200000Y-46060000D03*
G04 #@! TD*
G04 #@! TO.C,J2*
X295250000Y-45950000D03*
X288050000Y-45950000D03*
G04 #@! TD*
D11*
G04 #@! TO.C,J3*
X122790000Y-87570000D03*
X122790000Y-92570000D03*
G04 #@! TD*
G04 #@! TO.C,J4*
X122790000Y-104570000D03*
X122790000Y-99570000D03*
G04 #@! TD*
G04 #@! TO.C,J5*
X266650000Y-87450000D03*
X266650000Y-92450000D03*
G04 #@! TD*
G04 #@! TO.C,J6*
X266650000Y-104430000D03*
X266650000Y-99430000D03*
G04 #@! TD*
D13*
G04 #@! TO.C,J7*
X124790000Y-72070000D03*
X121390000Y-72070000D03*
X121390000Y-58600000D03*
X124790000Y-58600000D03*
G04 #@! TD*
G04 #@! TO.C,J8*
X268650000Y-71970000D03*
X265250000Y-71970000D03*
X265250000Y-58500000D03*
X268650000Y-58500000D03*
G04 #@! TD*
G04 #@! TO.C,J9*
G36*
G01*
X200134999Y-79570000D02*
X201385001Y-79570000D01*
G75*
G02*
X201635000Y-79819999I0J-249999D01*
G01*
X201635000Y-80520001D01*
G75*
G02*
X201385001Y-80770000I-249999J0D01*
G01*
X200134999Y-80770000D01*
G75*
G02*
X199885000Y-80520001I0J249999D01*
G01*
X199885000Y-79819999D01*
G75*
G02*
X200134999Y-79570000I249999J0D01*
G01*
G37*
D14*
X200760000Y-82170000D03*
X200760000Y-84170000D03*
X200760000Y-86170000D03*
G04 #@! TD*
G04 #@! TO.C,J10*
X200640000Y-101400000D03*
X200640000Y-99400000D03*
X200640000Y-97400000D03*
G36*
G01*
X200014999Y-94800000D02*
X201265001Y-94800000D01*
G75*
G02*
X201515000Y-95049999I0J-249999D01*
G01*
X201515000Y-95750001D01*
G75*
G02*
X201265001Y-96000000I-249999J0D01*
G01*
X200014999Y-96000000D01*
G75*
G02*
X199765000Y-95750001I0J249999D01*
G01*
X199765000Y-95049999D01*
G75*
G02*
X200014999Y-94800000I249999J0D01*
G01*
G37*
G04 #@! TD*
G04 #@! TO.C,J11*
G36*
G01*
X200004999Y-109420000D02*
X201255001Y-109420000D01*
G75*
G02*
X201505000Y-109669999I0J-249999D01*
G01*
X201505000Y-110370001D01*
G75*
G02*
X201255001Y-110620000I-249999J0D01*
G01*
X200004999Y-110620000D01*
G75*
G02*
X199755000Y-110370001I0J249999D01*
G01*
X199755000Y-109669999D01*
G75*
G02*
X200004999Y-109420000I249999J0D01*
G01*
G37*
X200630000Y-112020000D03*
X200630000Y-114020000D03*
X200630000Y-116020000D03*
G04 #@! TD*
D15*
G04 #@! TO.C,J12*
X125290000Y-116590000D03*
X120290000Y-116590000D03*
G04 #@! TD*
G04 #@! TO.C,J13*
X269150000Y-116360000D03*
X264150000Y-116360000D03*
G04 #@! TD*
D11*
G04 #@! TO.C,J14*
X147890000Y-92570000D03*
X147890000Y-87570000D03*
G04 #@! TD*
G04 #@! TO.C,J15*
X147780000Y-99560000D03*
X147780000Y-104560000D03*
G04 #@! TD*
G04 #@! TO.C,J16*
X291730000Y-92450000D03*
X291730000Y-87450000D03*
G04 #@! TD*
G04 #@! TO.C,J17*
X291650000Y-104460000D03*
X291650000Y-99460000D03*
G04 #@! TD*
D13*
G04 #@! TO.C,J18*
X149680000Y-72070000D03*
X146280000Y-72070000D03*
X146280000Y-58600000D03*
X149680000Y-58600000D03*
G04 #@! TD*
G04 #@! TO.C,J19*
X293560000Y-58480000D03*
X290160000Y-58480000D03*
X290160000Y-71950000D03*
X293560000Y-71950000D03*
G04 #@! TD*
D15*
G04 #@! TO.C,J20*
X150290000Y-116570000D03*
X145290000Y-116570000D03*
G04 #@! TD*
G04 #@! TO.C,J21*
X289140000Y-116440000D03*
X294140000Y-116440000D03*
G04 #@! TD*
D14*
G04 #@! TO.C,J22*
X239090000Y-80190000D03*
X239090000Y-82190000D03*
X239090000Y-84190000D03*
G36*
G01*
X239715001Y-86790000D02*
X238464999Y-86790000D01*
G75*
G02*
X238215000Y-86540001I0J249999D01*
G01*
X238215000Y-85839999D01*
G75*
G02*
X238464999Y-85590000I249999J0D01*
G01*
X239715001Y-85590000D01*
G75*
G02*
X239965000Y-85839999I0J-249999D01*
G01*
X239965000Y-86540001D01*
G75*
G02*
X239715001Y-86790000I-249999J0D01*
G01*
G37*
G04 #@! TD*
G04 #@! TO.C,J23*
G36*
G01*
X239595001Y-102030000D02*
X238344999Y-102030000D01*
G75*
G02*
X238095000Y-101780001I0J249999D01*
G01*
X238095000Y-101079999D01*
G75*
G02*
X238344999Y-100830000I249999J0D01*
G01*
X239595001Y-100830000D01*
G75*
G02*
X239845000Y-101079999I0J-249999D01*
G01*
X239845000Y-101780001D01*
G75*
G02*
X239595001Y-102030000I-249999J0D01*
G01*
G37*
X238970000Y-99430000D03*
X238970000Y-97430000D03*
X238970000Y-95430000D03*
G04 #@! TD*
G04 #@! TO.C,J24*
X238970000Y-110030000D03*
X238970000Y-112030000D03*
X238970000Y-114030000D03*
G36*
G01*
X239595001Y-116630000D02*
X238344999Y-116630000D01*
G75*
G02*
X238095000Y-116380001I0J249999D01*
G01*
X238095000Y-115679999D01*
G75*
G02*
X238344999Y-115430000I249999J0D01*
G01*
X239595001Y-115430000D01*
G75*
G02*
X239845000Y-115679999I0J-249999D01*
G01*
X239845000Y-116380001D01*
G75*
G02*
X239595001Y-116630000I-249999J0D01*
G01*
G37*
G04 #@! TD*
D11*
G04 #@! TO.C,J25*
X172790000Y-92570000D03*
X172790000Y-87570000D03*
G04 #@! TD*
G04 #@! TO.C,J26*
X172790000Y-104570000D03*
X172790000Y-99570000D03*
G04 #@! TD*
G04 #@! TO.C,J28*
X316650000Y-99450000D03*
X316650000Y-104450000D03*
G04 #@! TD*
D13*
G04 #@! TO.C,J29*
X174300000Y-58650000D03*
X170900000Y-58650000D03*
X170900000Y-72120000D03*
X174300000Y-72120000D03*
G04 #@! TD*
G04 #@! TO.C,J30*
X318150000Y-58530000D03*
X314750000Y-58530000D03*
X314750000Y-72000000D03*
X318150000Y-72000000D03*
G04 #@! TD*
D15*
G04 #@! TO.C,J31*
X175290000Y-116570000D03*
X170290000Y-116570000D03*
G04 #@! TD*
G04 #@! TO.C,J32*
X314140000Y-116450000D03*
X319140000Y-116450000D03*
G04 #@! TD*
D16*
G04 #@! TO.C,J34*
X224250000Y-129030000D03*
X224250000Y-126490000D03*
D17*
X224250000Y-123950000D03*
G04 #@! TD*
G04 #@! TO.C,J35*
X217850000Y-124050000D03*
D16*
X217850000Y-126590000D03*
X217850000Y-129130000D03*
G04 #@! TD*
D17*
G04 #@! TO.C,J36*
X210500000Y-124150000D03*
D16*
X210500000Y-126690000D03*
X210500000Y-129230000D03*
G04 #@! TD*
G04 #@! TO.C,J37*
X230490000Y-128920000D03*
X230490000Y-126380000D03*
D17*
X230490000Y-123840000D03*
G04 #@! TD*
D18*
G04 #@! TO.C,J39*
X142510000Y-185740000D03*
X147590000Y-185740000D03*
X150130000Y-185740000D03*
X152670000Y-185740000D03*
X155210000Y-185740000D03*
X157750000Y-185740000D03*
X160290000Y-185740000D03*
X162830000Y-185740000D03*
X165370000Y-185740000D03*
X167910000Y-185740000D03*
X170450000Y-185740000D03*
X172990000Y-185740000D03*
X175530000Y-185740000D03*
X178070000Y-185740000D03*
X142510000Y-157800000D03*
X145050000Y-157800000D03*
X147590000Y-157800000D03*
X150130000Y-157800000D03*
X152670000Y-157800000D03*
X155210000Y-157800000D03*
X157750000Y-157800000D03*
X160290000Y-157800000D03*
X162830000Y-157800000D03*
X165370000Y-157800000D03*
X167910000Y-157800000D03*
X170450000Y-157800000D03*
X172990000Y-157800000D03*
X175530000Y-157800000D03*
X178070000Y-157800000D03*
X145050000Y-185740000D03*
G04 #@! TD*
D19*
G04 #@! TO.C,J33*
X115350000Y-157990000D03*
X115350000Y-150790000D03*
G04 #@! TD*
D20*
G04 #@! TO.C,J38*
X321150000Y-131900000D03*
X321150000Y-189900000D03*
X272150000Y-189900000D03*
X272150000Y-131900000D03*
D21*
X273420000Y-136770000D03*
D18*
X273420000Y-139310000D03*
X273420000Y-141850000D03*
X273420000Y-144390000D03*
X273420000Y-146930000D03*
X273420000Y-149470000D03*
X270880000Y-136770000D03*
X270880000Y-139310000D03*
X270880000Y-141850000D03*
X270880000Y-144390000D03*
X270880000Y-146930000D03*
X270880000Y-149470000D03*
X273420000Y-152010000D03*
X270880000Y-152010000D03*
X273420000Y-154550000D03*
X273420000Y-157090000D03*
X273420000Y-159630000D03*
X273420000Y-162170000D03*
X273420000Y-164710000D03*
X273420000Y-167250000D03*
X270880000Y-154550000D03*
X270880000Y-157090000D03*
X270880000Y-159630000D03*
X270880000Y-162170000D03*
X270880000Y-164710000D03*
X270880000Y-167250000D03*
X273420000Y-169790000D03*
X270880000Y-169790000D03*
X273420000Y-172330000D03*
X273420000Y-174870000D03*
X273420000Y-177410000D03*
X273420000Y-179950000D03*
X273420000Y-182490000D03*
X273420000Y-185030000D03*
X270880000Y-172330000D03*
X270880000Y-174870000D03*
X270880000Y-177410000D03*
X270880000Y-179950000D03*
X270880000Y-182490000D03*
X270880000Y-185030000D03*
G04 #@! TD*
G04 #@! TO.C,R1*
G36*
G01*
X218930000Y-49289999D02*
X218930000Y-50190001D01*
G75*
G02*
X218680001Y-50440000I-249999J0D01*
G01*
X217979999Y-50440000D01*
G75*
G02*
X217730000Y-50190001I0J249999D01*
G01*
X217730000Y-49289999D01*
G75*
G02*
X217979999Y-49040000I249999J0D01*
G01*
X218680001Y-49040000D01*
G75*
G02*
X218930000Y-49289999I0J-249999D01*
G01*
G37*
G36*
G01*
X220930000Y-49289999D02*
X220930000Y-50190001D01*
G75*
G02*
X220680001Y-50440000I-249999J0D01*
G01*
X219979999Y-50440000D01*
G75*
G02*
X219730000Y-50190001I0J249999D01*
G01*
X219730000Y-49289999D01*
G75*
G02*
X219979999Y-49040000I249999J0D01*
G01*
X220680001Y-49040000D01*
G75*
G02*
X220930000Y-49289999I0J-249999D01*
G01*
G37*
G04 #@! TD*
G04 #@! TO.C,R2*
G36*
G01*
X218140000Y-74430001D02*
X218140000Y-73529999D01*
G75*
G02*
X218389999Y-73280000I249999J0D01*
G01*
X219090001Y-73280000D01*
G75*
G02*
X219340000Y-73529999I0J-249999D01*
G01*
X219340000Y-74430001D01*
G75*
G02*
X219090001Y-74680000I-249999J0D01*
G01*
X218389999Y-74680000D01*
G75*
G02*
X218140000Y-74430001I0J249999D01*
G01*
G37*
G36*
G01*
X220140000Y-74430001D02*
X220140000Y-73529999D01*
G75*
G02*
X220389999Y-73280000I249999J0D01*
G01*
X221090001Y-73280000D01*
G75*
G02*
X221340000Y-73529999I0J-249999D01*
G01*
X221340000Y-74430001D01*
G75*
G02*
X221090001Y-74680000I-249999J0D01*
G01*
X220389999Y-74680000D01*
G75*
G02*
X220140000Y-74430001I0J249999D01*
G01*
G37*
G04 #@! TD*
G04 #@! TO.C,R3*
G36*
G01*
X208380001Y-60660000D02*
X207479999Y-60660000D01*
G75*
G02*
X207230000Y-60410001I0J249999D01*
G01*
X207230000Y-59709999D01*
G75*
G02*
X207479999Y-59460000I249999J0D01*
G01*
X208380001Y-59460000D01*
G75*
G02*
X208630000Y-59709999I0J-249999D01*
G01*
X208630000Y-60410001D01*
G75*
G02*
X208380001Y-60660000I-249999J0D01*
G01*
G37*
G36*
G01*
X208380001Y-62660000D02*
X207479999Y-62660000D01*
G75*
G02*
X207230000Y-62410001I0J249999D01*
G01*
X207230000Y-61709999D01*
G75*
G02*
X207479999Y-61460000I249999J0D01*
G01*
X208380001Y-61460000D01*
G75*
G02*
X208630000Y-61709999I0J-249999D01*
G01*
X208630000Y-62410001D01*
G75*
G02*
X208380001Y-62660000I-249999J0D01*
G01*
G37*
G04 #@! TD*
G04 #@! TO.C,R4*
G36*
G01*
X232520001Y-62780000D02*
X231619999Y-62780000D01*
G75*
G02*
X231370000Y-62530001I0J249999D01*
G01*
X231370000Y-61829999D01*
G75*
G02*
X231619999Y-61580000I249999J0D01*
G01*
X232520001Y-61580000D01*
G75*
G02*
X232770000Y-61829999I0J-249999D01*
G01*
X232770000Y-62530001D01*
G75*
G02*
X232520001Y-62780000I-249999J0D01*
G01*
G37*
G36*
G01*
X232520001Y-60780000D02*
X231619999Y-60780000D01*
G75*
G02*
X231370000Y-60530001I0J249999D01*
G01*
X231370000Y-59829999D01*
G75*
G02*
X231619999Y-59580000I249999J0D01*
G01*
X232520001Y-59580000D01*
G75*
G02*
X232770000Y-59829999I0J-249999D01*
G01*
X232770000Y-60530001D01*
G75*
G02*
X232520001Y-60780000I-249999J0D01*
G01*
G37*
G04 #@! TD*
D22*
G04 #@! TO.C,SW1*
X215000000Y-164710000D03*
X215000000Y-159710000D03*
X215000000Y-154710000D03*
G04 #@! TD*
M02*
