M48
; DRILL file {KiCad (5.1.10)-1} date 11/16/22 20:30:47
; FORMAT={-:-/ absolute / inch / decimal}
; #@! TF.CreationDate,2022-11-16T20:30:47+05:30
; #@! TF.GenerationSoftware,Kicad,Pcbnew,(5.1.10)-1
; #@! TF.FileFunction,Plated,1,2,PTH
FMAT,2
INCH
T1C0.0197
T2C0.0295
T3C0.0394
T4C0.0400
T5C0.0512
T6C0.0630
T7C0.1083
T8C0.1181
T9C0.1969
T10C0.2165
%
G90
G05
T1
X4.3071Y-3.9594
X4.3134Y-3.8638
X4.4091Y-3.9689
X4.4122Y-3.8547
X4.5185Y-3.8638
X4.5232Y-3.9516
X4.5256Y-4.4571
X4.5378Y-4.6531
X4.539Y-4.5441
X4.5421Y-4.7374
X4.6059Y-4.4539
X4.6094Y-4.5429
X4.6138Y-4.6551
X4.6236Y-3.9063
X4.6248Y-4.7382
X4.6441Y-3.2744
X4.652Y-3.1917
X4.6559Y-2.4343
X4.6622Y-2.1736
X4.7165Y-3.2772
X4.7197Y-2.4343
X4.7205Y-2.1744
X4.7228Y-3.1917
X4.7516Y-3.3417
X4.7795Y-2.4354
X4.785Y-2.1772
X4.8071Y-3.2783
X4.8083Y-3.1917
X4.8406Y-2.4354
X4.8512Y-2.1787
X4.865Y-3.3429
X4.8933Y-3.2732
X4.8984Y-3.1917
X4.9031Y-2.437
X4.9185Y-2.1815
X4.9724Y-2.4398
X4.9783Y-3.1945
X4.9823Y-3.2783
X4.9858Y-2.1843
X5.0512Y-3.8622
X5.0543Y-3.9516
X5.1421Y-3.8516
X5.161Y-3.9579
X5.2362Y-3.9031
X5.3898Y-3.8524
X5.3976Y-3.9409
X5.4409Y-1.9295
X5.4429Y-1.9941
X5.4441Y-1.8083
X5.4441Y-1.8685
X5.4469Y-1.7543
X5.4488Y-1.6976
X5.4634Y-3.8488
X5.4709Y-3.9445
X5.5016Y-1.9252
X5.5028Y-1.8083
X5.5028Y-1.8654
X5.5028Y-1.9925
X5.5091Y-1.7535
X5.5106Y-1.6957
X5.5185Y-4.6476
X5.522Y-4.4717
X5.5228Y-4.5618
X5.524Y-4.7335
X5.561Y-3.8508
X5.5665Y-3.9354
X5.5933Y-4.474
X5.598Y-4.5543
X5.6043Y-4.7358
X5.6079Y-4.652
X5.6213Y-3.8902
X5.639Y-2.4358
X5.6453Y-2.1894
X5.6591Y-3.1965
X5.6713Y-3.2709
X5.6945Y-2.4346
X5.7134Y-2.1902
X5.7181Y-3.1933
X5.7461Y-3.2689
X5.7583Y-2.4358
X5.774Y-2.1917
X5.7843Y-3.3339
X5.8047Y-3.1917
X5.8201Y-2.4374
X5.8315Y-3.2665
X5.8402Y-2.1906
X5.8752Y-3.3295
X5.8902Y-2.4386
X5.8945Y-3.1949
X5.9055Y-2.1917
X5.9102Y-3.2669
X5.9535Y-2.4386
X5.9693Y-2.1906
X5.9874Y-3.1933
X5.9898Y-3.2689
X6.0272Y-3.8354
X6.0346Y-3.9429
X6.1173Y-3.8488
X6.1232Y-3.939
X6.2094Y-3.8862
X6.4012Y-3.8563
X6.4012Y-3.9461
X6.4874Y-3.8618
X6.4894Y-3.9583
X6.4941Y-4.6161
X6.4976Y-4.7185
X6.4984Y-4.5291
X6.5031Y-4.4488
X6.5713Y-4.4476
X6.5713Y-4.5327
X6.5717Y-3.8516
X6.5756Y-3.9638
X6.5768Y-4.624
X6.5811Y-4.7173
X6.6098Y-2.1799
X6.6114Y-2.4185
X6.6252Y-3.2772
X6.6283Y-3.2024
X6.6854Y-2.4217
X6.6882Y-3.2764
X6.6886Y-2.1799
X6.7012Y-3.2035
X6.7587Y-3.2776
X6.7614Y-2.1799
X6.7614Y-2.4248
X6.7724Y-3.3335
X6.8126Y-3.2051
X6.839Y-2.1815
X6.8406Y-3.3323
X6.8528Y-2.4232
X6.8606Y-3.272
X6.9177Y-2.1815
X6.9197Y-3.1929
X6.9319Y-2.4248
X6.9614Y-3.276
X6.9846Y-2.1815
X6.9874Y-2.4264
X7.0031Y-3.2035
X7.0268Y-3.8555
X7.0346Y-3.9516
X7.1358Y-3.8417
X7.1614Y-3.9528
X7.2547Y-3.8555
X7.2685Y-3.9555
X9.9366Y-3.8441
X9.9476Y-3.9551
X10.0283Y-3.8358
X10.0358Y-3.9512
X10.1319Y-3.8394
X10.1449Y-3.9449
X10.2047Y-4.6921
X10.2055Y-4.6039
X10.2102Y-4.524
X10.2118Y-4.4484
X10.2319Y-3.8898
X10.276Y-4.4469
X10.2768Y-4.5295
X10.2827Y-4.6902
X10.2854Y-4.6047
X10.315Y-3.1921
X10.3181Y-3.3
X10.3232Y-2.4205
X10.3354Y-2.1772
X10.3815Y-3.1906
X10.3815Y-3.2906
X10.3933Y-2.415
X10.4024Y-2.1783
X10.4598Y-2.1768
X10.461Y-3.1921
X10.465Y-2.4173
X10.4705Y-3.2921
X10.5193Y-3.189
X10.5287Y-2.178
X10.5421Y-2.415
X10.5449Y-3.2906
X10.5972Y-3.1843
X10.6094Y-2.178
X10.6146Y-3.2886
X10.6244Y-2.4106
X10.685Y-2.178
X10.6894Y-3.289
X10.6917Y-2.4083
X10.6937Y-3.1827
X10.6937Y-3.848
X10.6961Y-3.9445
X10.7819Y-3.8413
X10.7846Y-3.9394
X10.8811Y-3.8878
X11.0642Y-3.9457
X11.0681Y-3.8587
X11.1126Y-1.9417
X11.1134Y-1.848
X11.1189Y-1.6921
X11.128Y-1.7665
X11.1406Y-3.9496
X11.1461Y-3.8535
X11.1732Y-1.848
X11.174Y-1.9402
X11.1811Y-1.7618
X11.1827Y-4.4571
X11.1827Y-4.5331
X11.1827Y-4.702
X11.1831Y-1.6906
X11.1835Y-4.6157
X11.2252Y-3.8654
X11.237Y-3.9472
X11.2551Y-4.4571
X11.2642Y-4.5366
X11.2697Y-4.6173
X11.2709Y-4.7039
X11.2996Y-2.1799
X11.3004Y-3.8917
X11.3051Y-2.4386
X11.3075Y-3.1917
X11.3083Y-3.2654
X11.3614Y-2.1764
X11.3657Y-2.4331
X11.374Y-3.1886
X11.3776Y-3.263
X11.4295Y-2.1811
X11.4496Y-3.1886
X11.4543Y-3.2665
X11.4579Y-2.4339
X11.5043Y-2.1831
X11.5283Y-2.4374
X11.5343Y-3.1898
X11.5354Y-3.2618
X11.5902Y-2.1811
X11.6055Y-2.4374
X11.6157Y-3.263
X11.6177Y-3.1874
X11.6583Y-2.1811
X11.6768Y-3.9287
X11.678Y-2.4276
X11.678Y-3.8374
X11.6823Y-3.1886
X11.6835Y-3.2685
X11.7508Y-3.839
X11.7547Y-3.9378
X11.8579Y-3.8969
X12.0646Y-3.8504
X12.0665Y-3.9453
X12.1295Y-3.8488
X12.1343Y-3.9421
X12.1575Y-4.4555
X12.1587Y-4.6047
X12.1654Y-4.5252
X12.1665Y-4.6996
X12.2075Y-3.8472
X12.2134Y-3.9441
X12.2315Y-4.4528
X12.2394Y-4.5307
X12.2484Y-4.6031
X12.2535Y-2.1843
X12.2539Y-4.7008
X12.2579Y-2.4528
X12.2732Y-3.8949
X12.2748Y-3.276
X12.2906Y-3.1992
X12.3106Y-2.1819
X12.3272Y-2.4461
X12.3528Y-3.1992
X12.3571Y-3.276
X12.3787Y-2.1776
X12.4217Y-2.4425
X12.4331Y-3.1913
X12.4362Y-3.2772
X12.4571Y-2.1752
X12.4878Y-2.4425
X12.5118Y-3.198
X12.5209Y-3.2815
X12.5398Y-2.174
X12.5815Y-2.4449
X12.5878Y-3.2772
X12.589Y-3.198
X12.6154Y-2.1732
X12.6429Y-2.4382
X12.65Y-3.2693
X12.6598Y-3.198
X12.6823Y-3.8406
X12.6862Y-3.9642
X12.7795Y-3.8504
X12.7953Y-3.9713
X12.9Y-3.8413
X12.911Y-3.9681
T2
X7.8988Y-4.3315
X7.8988Y-4.4102
X7.8988Y-4.489
X7.8988Y-4.5677
X7.8992Y-3.7559
X7.8992Y-3.8346
X7.8992Y-3.9134
X7.8992Y-3.9921
X7.9039Y-3.1563
X7.9039Y-3.235
X7.9039Y-3.3138
X7.9039Y-3.3925
X9.4083Y-3.7571
X9.4083Y-3.8358
X9.4083Y-3.9146
X9.4083Y-3.9933
X9.4083Y-4.3319
X9.4083Y-4.4106
X9.4083Y-4.4894
X9.4083Y-4.5681
X9.413Y-3.1571
X9.413Y-3.2358
X9.413Y-3.3146
X9.413Y-3.3933
T3
X5.6106Y-6.2126
X5.6106Y-7.3126
X5.7106Y-6.2126
X5.7106Y-7.3126
X5.8106Y-6.2126
X5.8106Y-7.3126
X5.9106Y-6.2126
X5.9106Y-7.3126
X6.0106Y-6.2126
X6.0106Y-7.3126
X6.1106Y-6.2126
X6.1106Y-7.3126
X6.2106Y-6.2126
X6.2106Y-7.3126
X6.3106Y-6.2126
X6.3106Y-7.3126
X6.4106Y-6.2126
X6.4106Y-7.3126
X6.5106Y-6.2126
X6.5106Y-7.3126
X6.6106Y-6.2126
X6.6106Y-7.3126
X6.7106Y-6.2126
X6.7106Y-7.3126
X6.8106Y-6.2126
X6.8106Y-7.3126
X6.9106Y-6.2126
X6.9106Y-7.3126
X7.0106Y-6.2126
X7.0106Y-7.3126
X8.2874Y-4.8878
X8.2874Y-4.9878
X8.2874Y-5.0878
X8.5768Y-4.8839
X8.5768Y-4.9839
X8.5768Y-5.0839
X8.8287Y-4.8799
X8.8287Y-4.9799
X8.8287Y-5.0799
X9.0744Y-4.8756
X9.0744Y-4.9756
X9.0744Y-5.0756
T4
X10.6646Y-5.3846
X10.6646Y-5.4846
X10.6646Y-5.5846
X10.6646Y-5.6846
X10.6646Y-5.7846
X10.6646Y-5.8846
X10.6646Y-5.9846
X10.6646Y-6.0846
X10.6646Y-6.1846
X10.6646Y-6.2846
X10.6646Y-6.3846
X10.6646Y-6.4846
X10.6646Y-6.5846
X10.6646Y-6.6846
X10.6646Y-6.7846
X10.6646Y-6.8846
X10.6646Y-6.9846
X10.6646Y-7.0846
X10.6646Y-7.1846
X10.6646Y-7.2846
X10.7646Y-5.3846
X10.7646Y-5.4846
X10.7646Y-5.5846
X10.7646Y-5.6846
X10.7646Y-5.7846
X10.7646Y-5.8846
X10.7646Y-5.9846
X10.7646Y-6.0846
X10.7646Y-6.1846
X10.7646Y-6.2846
X10.7646Y-6.3846
X10.7646Y-6.4846
X10.7646Y-6.5846
X10.7646Y-6.6846
X10.7646Y-6.7846
X10.7646Y-6.8846
X10.7646Y-6.9846
X10.7646Y-7.0846
X10.7646Y-7.1846
X10.7646Y-7.2846
T5
X8.4646Y-6.0909
X8.4646Y-6.2878
X8.4646Y-6.4846
T6
X4.7791Y-2.3071
X4.7791Y-2.8374
X4.913Y-2.3071
X4.913Y-2.8374
X5.7591Y-2.3071
X5.7591Y-2.8374
X5.8929Y-2.3071
X5.8929Y-2.8374
X6.7283Y-2.3091
X6.7283Y-2.8394
X6.8622Y-2.3091
X6.8622Y-2.8394
X10.4429Y-2.3031
X10.4429Y-2.8335
X10.5768Y-2.3031
X10.5768Y-2.8335
X11.4236Y-2.3024
X11.4236Y-2.8327
X11.5575Y-2.3024
X11.5575Y-2.8327
X12.3917Y-2.3043
X12.3917Y-2.8346
X12.5256Y-2.3043
X12.5256Y-2.8346
T7
X10.7146Y-5.1929
X10.7146Y-7.4764
X12.6437Y-5.1929
X12.6437Y-7.4764
T8
X4.7358Y-4.5902
X4.8343Y-3.4476
X4.8343Y-3.6445
X4.8343Y-3.9201
X4.8343Y-4.1169
X4.9327Y-4.5902
X5.7201Y-4.5894
X5.8181Y-3.9197
X5.8181Y-4.1165
X5.8224Y-3.4476
X5.8224Y-3.6445
X5.9169Y-4.5894
X6.7043Y-4.5894
X6.8028Y-3.4476
X6.8028Y-3.6445
X6.8028Y-3.9201
X6.8028Y-4.1169
X6.9012Y-4.5894
X10.3996Y-4.5811
X10.498Y-3.4429
X10.498Y-3.6398
X10.498Y-3.9146
X10.498Y-4.1114
X10.5965Y-4.5811
X11.3835Y-4.5843
X11.4823Y-3.9157
X11.4823Y-4.1126
X11.4854Y-3.4429
X11.4854Y-3.6398
X11.5803Y-4.5843
X12.3677Y-4.5846
X12.4661Y-3.4429
X12.4661Y-3.6398
X12.4665Y-3.9154
X12.4665Y-4.1122
X12.5646Y-4.5846
T9
X4.5413Y-5.9366
X5.9606Y-1.8134
X11.624Y-1.8091
T10
X4.5413Y-6.2201
X5.6772Y-1.8134
X11.3406Y-1.8091
T0
M30
