G04 #@! TF.GenerationSoftware,KiCad,Pcbnew,(5.1.10)-1*
G04 #@! TF.CreationDate,2022-11-16T20:30:32+05:30*
G04 #@! TF.ProjectId,2023 control pcb,32303233-2063-46f6-9e74-726f6c207063,rev?*
G04 #@! TF.SameCoordinates,Original*
G04 #@! TF.FileFunction,Paste,Top*
G04 #@! TF.FilePolarity,Positive*
%FSLAX46Y46*%
G04 Gerber Fmt 4.6, Leading zero omitted, Abs format (unit mm)*
G04 Created by KiCad (PCBNEW (5.1.10)-1) date 2022-11-16 20:30:32*
%MOMM*%
%LPD*%
G01*
G04 APERTURE LIST*
G04 APERTURE END LIST*
G04 #@! TO.C,D1*
G36*
G01*
X211821612Y-53464785D02*
X211185215Y-52828388D01*
G75*
G02*
X211185215Y-52474836I176776J176776D01*
G01*
X211644836Y-52015215D01*
G75*
G02*
X211998388Y-52015215I176776J-176776D01*
G01*
X212634785Y-52651612D01*
G75*
G02*
X212634785Y-53005164I-176776J-176776D01*
G01*
X212175164Y-53464785D01*
G75*
G02*
X211821612Y-53464785I-176776J176776D01*
G01*
G37*
G36*
G01*
X210372044Y-54914353D02*
X209735647Y-54277956D01*
G75*
G02*
X209735647Y-53924404I176776J176776D01*
G01*
X210195268Y-53464783D01*
G75*
G02*
X210548820Y-53464783I176776J-176776D01*
G01*
X211185217Y-54101180D01*
G75*
G02*
X211185217Y-54454732I-176776J-176776D01*
G01*
X210725596Y-54914353D01*
G75*
G02*
X210372044Y-54914353I-176776J176776D01*
G01*
G37*
G04 #@! TD*
G04 #@! TO.C,D2*
G36*
G01*
X230159569Y-54153172D02*
X229523172Y-54789569D01*
G75*
G02*
X229169620Y-54789569I-176776J176776D01*
G01*
X228709999Y-54329948D01*
G75*
G02*
X228709999Y-53976396I176776J176776D01*
G01*
X229346396Y-53339999D01*
G75*
G02*
X229699948Y-53339999I176776J-176776D01*
G01*
X230159569Y-53799620D01*
G75*
G02*
X230159569Y-54153172I-176776J-176776D01*
G01*
G37*
G36*
G01*
X228710001Y-52703604D02*
X228073604Y-53340001D01*
G75*
G02*
X227720052Y-53340001I-176776J176776D01*
G01*
X227260431Y-52880380D01*
G75*
G02*
X227260431Y-52526828I176776J176776D01*
G01*
X227896828Y-51890431D01*
G75*
G02*
X228250380Y-51890431I176776J-176776D01*
G01*
X228710001Y-52350052D01*
G75*
G02*
X228710001Y-52703604I-176776J-176776D01*
G01*
G37*
G04 #@! TD*
G04 #@! TO.C,D3*
G36*
G01*
X210470001Y-68718604D02*
X209833604Y-69355001D01*
G75*
G02*
X209480052Y-69355001I-176776J176776D01*
G01*
X209020431Y-68895380D01*
G75*
G02*
X209020431Y-68541828I176776J176776D01*
G01*
X209656828Y-67905431D01*
G75*
G02*
X210010380Y-67905431I176776J-176776D01*
G01*
X210470001Y-68365052D01*
G75*
G02*
X210470001Y-68718604I-176776J-176776D01*
G01*
G37*
G36*
G01*
X211919569Y-70168172D02*
X211283172Y-70804569D01*
G75*
G02*
X210929620Y-70804569I-176776J176776D01*
G01*
X210469999Y-70344948D01*
G75*
G02*
X210469999Y-69991396I176776J176776D01*
G01*
X211106396Y-69354999D01*
G75*
G02*
X211459948Y-69354999I176776J-176776D01*
G01*
X211919569Y-69814620D01*
G75*
G02*
X211919569Y-70168172I-176776J-176776D01*
G01*
G37*
G04 #@! TD*
G04 #@! TO.C,D4*
G36*
G01*
X228646828Y-70634569D02*
X228010431Y-69998172D01*
G75*
G02*
X228010431Y-69644620I176776J176776D01*
G01*
X228470052Y-69184999D01*
G75*
G02*
X228823604Y-69184999I176776J-176776D01*
G01*
X229460001Y-69821396D01*
G75*
G02*
X229460001Y-70174948I-176776J-176776D01*
G01*
X229000380Y-70634569D01*
G75*
G02*
X228646828Y-70634569I-176776J176776D01*
G01*
G37*
G36*
G01*
X230096396Y-69185001D02*
X229459999Y-68548604D01*
G75*
G02*
X229459999Y-68195052I176776J176776D01*
G01*
X229919620Y-67735431D01*
G75*
G02*
X230273172Y-67735431I176776J-176776D01*
G01*
X230909569Y-68371828D01*
G75*
G02*
X230909569Y-68725380I-176776J-176776D01*
G01*
X230449948Y-69185001D01*
G75*
G02*
X230096396Y-69185001I-176776J176776D01*
G01*
G37*
G04 #@! TD*
G04 #@! TO.C,R1*
G36*
G01*
X218930000Y-49289999D02*
X218930000Y-50190001D01*
G75*
G02*
X218680001Y-50440000I-249999J0D01*
G01*
X217979999Y-50440000D01*
G75*
G02*
X217730000Y-50190001I0J249999D01*
G01*
X217730000Y-49289999D01*
G75*
G02*
X217979999Y-49040000I249999J0D01*
G01*
X218680001Y-49040000D01*
G75*
G02*
X218930000Y-49289999I0J-249999D01*
G01*
G37*
G36*
G01*
X220930000Y-49289999D02*
X220930000Y-50190001D01*
G75*
G02*
X220680001Y-50440000I-249999J0D01*
G01*
X219979999Y-50440000D01*
G75*
G02*
X219730000Y-50190001I0J249999D01*
G01*
X219730000Y-49289999D01*
G75*
G02*
X219979999Y-49040000I249999J0D01*
G01*
X220680001Y-49040000D01*
G75*
G02*
X220930000Y-49289999I0J-249999D01*
G01*
G37*
G04 #@! TD*
G04 #@! TO.C,R2*
G36*
G01*
X218140000Y-74430001D02*
X218140000Y-73529999D01*
G75*
G02*
X218389999Y-73280000I249999J0D01*
G01*
X219090001Y-73280000D01*
G75*
G02*
X219340000Y-73529999I0J-249999D01*
G01*
X219340000Y-74430001D01*
G75*
G02*
X219090001Y-74680000I-249999J0D01*
G01*
X218389999Y-74680000D01*
G75*
G02*
X218140000Y-74430001I0J249999D01*
G01*
G37*
G36*
G01*
X220140000Y-74430001D02*
X220140000Y-73529999D01*
G75*
G02*
X220389999Y-73280000I249999J0D01*
G01*
X221090001Y-73280000D01*
G75*
G02*
X221340000Y-73529999I0J-249999D01*
G01*
X221340000Y-74430001D01*
G75*
G02*
X221090001Y-74680000I-249999J0D01*
G01*
X220389999Y-74680000D01*
G75*
G02*
X220140000Y-74430001I0J249999D01*
G01*
G37*
G04 #@! TD*
G04 #@! TO.C,R3*
G36*
G01*
X208380001Y-60660000D02*
X207479999Y-60660000D01*
G75*
G02*
X207230000Y-60410001I0J249999D01*
G01*
X207230000Y-59709999D01*
G75*
G02*
X207479999Y-59460000I249999J0D01*
G01*
X208380001Y-59460000D01*
G75*
G02*
X208630000Y-59709999I0J-249999D01*
G01*
X208630000Y-60410001D01*
G75*
G02*
X208380001Y-60660000I-249999J0D01*
G01*
G37*
G36*
G01*
X208380001Y-62660000D02*
X207479999Y-62660000D01*
G75*
G02*
X207230000Y-62410001I0J249999D01*
G01*
X207230000Y-61709999D01*
G75*
G02*
X207479999Y-61460000I249999J0D01*
G01*
X208380001Y-61460000D01*
G75*
G02*
X208630000Y-61709999I0J-249999D01*
G01*
X208630000Y-62410001D01*
G75*
G02*
X208380001Y-62660000I-249999J0D01*
G01*
G37*
G04 #@! TD*
G04 #@! TO.C,R4*
G36*
G01*
X232520001Y-62780000D02*
X231619999Y-62780000D01*
G75*
G02*
X231370000Y-62530001I0J249999D01*
G01*
X231370000Y-61829999D01*
G75*
G02*
X231619999Y-61580000I249999J0D01*
G01*
X232520001Y-61580000D01*
G75*
G02*
X232770000Y-61829999I0J-249999D01*
G01*
X232770000Y-62530001D01*
G75*
G02*
X232520001Y-62780000I-249999J0D01*
G01*
G37*
G36*
G01*
X232520001Y-60780000D02*
X231619999Y-60780000D01*
G75*
G02*
X231370000Y-60530001I0J249999D01*
G01*
X231370000Y-59829999D01*
G75*
G02*
X231619999Y-59580000I249999J0D01*
G01*
X232520001Y-59580000D01*
G75*
G02*
X232770000Y-59829999I0J-249999D01*
G01*
X232770000Y-60530001D01*
G75*
G02*
X232520001Y-60780000I-249999J0D01*
G01*
G37*
G04 #@! TD*
M02*
