G04 #@! TF.GenerationSoftware,KiCad,Pcbnew,(5.1.10)-1*
G04 #@! TF.CreationDate,2022-04-16T12:49:33+05:30*
G04 #@! TF.ProjectId,New PCB Stack,4e657720-5043-4422-9053-7461636b2e6b,rev?*
G04 #@! TF.SameCoordinates,Original*
G04 #@! TF.FileFunction,Copper,L1,Top*
G04 #@! TF.FilePolarity,Positive*
%FSLAX46Y46*%
G04 Gerber Fmt 4.6, Leading zero omitted, Abs format (unit mm)*
G04 Created by KiCad (PCBNEW (5.1.10)-1) date 2022-04-16 12:49:33*
%MOMM*%
%LPD*%
G01*
G04 APERTURE LIST*
G04 #@! TA.AperFunction,ComponentPad*
%ADD10O,1.200000X2.400000*%
G04 #@! TD*
G04 #@! TA.AperFunction,ComponentPad*
%ADD11R,6.000000X8.000000*%
G04 #@! TD*
G04 #@! TA.AperFunction,ComponentPad*
%ADD12R,3.500000X7.000000*%
G04 #@! TD*
G04 #@! TA.AperFunction,ComponentPad*
%ADD13R,7.000000X3.500000*%
G04 #@! TD*
G04 #@! TA.AperFunction,ComponentPad*
%ADD14C,1.398000*%
G04 #@! TD*
G04 #@! TA.AperFunction,ComponentPad*
%ADD15R,1.398000X1.398000*%
G04 #@! TD*
G04 #@! TA.AperFunction,ComponentPad*
%ADD16O,1.750000X1.200000*%
G04 #@! TD*
G04 #@! TA.AperFunction,ComponentPad*
%ADD17C,2.400000*%
G04 #@! TD*
G04 #@! TA.AperFunction,ViaPad*
%ADD18C,0.800000*%
G04 #@! TD*
G04 #@! TA.AperFunction,Conductor*
%ADD19C,0.400000*%
G04 #@! TD*
G04 #@! TA.AperFunction,Conductor*
%ADD20C,0.254000*%
G04 #@! TD*
G04 #@! TA.AperFunction,Conductor*
%ADD21C,0.100000*%
G04 #@! TD*
G04 APERTURE END LIST*
D10*
G04 #@! TO.P,J5,S2*
G04 #@! TO.N,N/C*
X143250000Y-40500000D03*
G04 #@! TO.P,J5,S1*
X129750000Y-40500000D03*
D11*
G04 #@! TO.P,J5,2*
G04 #@! TO.N,GND*
X140100000Y-46500000D03*
G04 #@! TO.P,J5,1*
G04 #@! TO.N,+24V*
X132900000Y-46500000D03*
G04 #@! TD*
D12*
G04 #@! TO.P,J12,2*
G04 #@! TO.N,Net-(J12-Pad2)*
X159000000Y-117000000D03*
G04 #@! TO.P,J12,1*
G04 #@! TO.N,Net-(J12-Pad1)*
X164000000Y-117000000D03*
G04 #@! TD*
G04 #@! TO.P,J9,2*
G04 #@! TO.N,Net-(J10-Pad1)*
X134000000Y-117000000D03*
G04 #@! TO.P,J9,1*
G04 #@! TO.N,Net-(J10-Pad2)*
X139000000Y-117000000D03*
G04 #@! TD*
G04 #@! TO.P,J7,2*
G04 #@! TO.N,Net-(J6-Pad1)*
X109000000Y-117000000D03*
G04 #@! TO.P,J7,1*
G04 #@! TO.N,Net-(J6-Pad2)*
X114000000Y-117000000D03*
G04 #@! TD*
D13*
G04 #@! TO.P,J13,2*
G04 #@! TO.N,Net-(J12-Pad1)*
X161500000Y-105000000D03*
G04 #@! TO.P,J13,1*
G04 #@! TO.N,Net-(J12-Pad2)*
X161500000Y-100000000D03*
G04 #@! TD*
G04 #@! TO.P,J8,2*
G04 #@! TO.N,GND*
X161500000Y-93000000D03*
G04 #@! TO.P,J8,1*
G04 #@! TO.N,+24V*
X161500000Y-88000000D03*
G04 #@! TD*
G04 #@! TO.P,J10,2*
G04 #@! TO.N,Net-(J10-Pad2)*
X136500000Y-105000000D03*
G04 #@! TO.P,J10,1*
G04 #@! TO.N,Net-(J10-Pad1)*
X136500000Y-100000000D03*
G04 #@! TD*
G04 #@! TO.P,J11,2*
G04 #@! TO.N,GND*
X136600000Y-93000000D03*
G04 #@! TO.P,J11,1*
G04 #@! TO.N,+24V*
X136600000Y-88000000D03*
G04 #@! TD*
G04 #@! TO.P,J6,2*
G04 #@! TO.N,Net-(J6-Pad2)*
X111500000Y-105000000D03*
G04 #@! TO.P,J6,1*
G04 #@! TO.N,Net-(J6-Pad1)*
X111500000Y-100000000D03*
G04 #@! TD*
G04 #@! TO.P,J4,2*
G04 #@! TO.N,GND*
X111500000Y-93000000D03*
G04 #@! TO.P,J4,1*
G04 #@! TO.N,+24V*
X111500000Y-88000000D03*
G04 #@! TD*
D14*
G04 #@! TO.P,J18,10*
G04 #@! TO.N,Net-(J18-Pad10)*
X83693000Y-63246000D03*
G04 #@! TO.P,J18,9*
G04 #@! TO.N,Net-(J18-Pad9)*
X83693000Y-60706000D03*
G04 #@! TO.P,J18,8*
G04 #@! TO.N,GND*
X83693000Y-58166000D03*
G04 #@! TO.P,J18,7*
G04 #@! TO.N,Net-(J18-Pad7)*
X83693000Y-55626000D03*
G04 #@! TO.P,J18,6*
G04 #@! TO.N,DIR*
X83693000Y-53086000D03*
G04 #@! TO.P,J18,5*
G04 #@! TO.N,Net-(J18-Pad5)*
X86233000Y-63246000D03*
G04 #@! TO.P,J18,4*
G04 #@! TO.N,Net-(J18-Pad4)*
X86233000Y-60706000D03*
G04 #@! TO.P,J18,3*
G04 #@! TO.N,GND*
X86233000Y-58166000D03*
G04 #@! TO.P,J18,2*
G04 #@! TO.N,Net-(J18-Pad2)*
X86233000Y-55626000D03*
D15*
G04 #@! TO.P,J18,1*
G04 #@! TO.N,PWM*
X86233000Y-53086000D03*
G04 #@! TD*
D16*
G04 #@! TO.P,J17,4*
G04 #@! TO.N,DIR*
X83820000Y-95981000D03*
G04 #@! TO.P,J17,3*
G04 #@! TO.N,PWM*
X83820000Y-97981000D03*
G04 #@! TO.P,J17,2*
G04 #@! TO.N,Net-(J17-Pad2)*
X83820000Y-99981000D03*
G04 #@! TO.P,J17,1*
G04 #@! TO.N,GND*
G04 #@! TA.AperFunction,ComponentPad*
G36*
G01*
X84445001Y-102581000D02*
X83194999Y-102581000D01*
G75*
G02*
X82945000Y-102331001I0J249999D01*
G01*
X82945000Y-101630999D01*
G75*
G02*
X83194999Y-101381000I249999J0D01*
G01*
X84445001Y-101381000D01*
G75*
G02*
X84695000Y-101630999I0J-249999D01*
G01*
X84695000Y-102331001D01*
G75*
G02*
X84445001Y-102581000I-249999J0D01*
G01*
G37*
G04 #@! TD.AperFunction*
G04 #@! TD*
G04 #@! TO.P,J16,4*
G04 #@! TO.N,DIR*
X83820000Y-110586000D03*
G04 #@! TO.P,J16,3*
G04 #@! TO.N,PWM*
X83820000Y-112586000D03*
G04 #@! TO.P,J16,2*
G04 #@! TO.N,Net-(J16-Pad2)*
X83820000Y-114586000D03*
G04 #@! TO.P,J16,1*
G04 #@! TO.N,GND*
G04 #@! TA.AperFunction,ComponentPad*
G36*
G01*
X84445001Y-117186000D02*
X83194999Y-117186000D01*
G75*
G02*
X82945000Y-116936001I0J249999D01*
G01*
X82945000Y-116235999D01*
G75*
G02*
X83194999Y-115986000I249999J0D01*
G01*
X84445001Y-115986000D01*
G75*
G02*
X84695000Y-116235999I0J-249999D01*
G01*
X84695000Y-116936001D01*
G75*
G02*
X84445001Y-117186000I-249999J0D01*
G01*
G37*
G04 #@! TD.AperFunction*
G04 #@! TD*
G04 #@! TO.P,J15,4*
G04 #@! TO.N,DIR*
X83947000Y-80741000D03*
G04 #@! TO.P,J15,3*
G04 #@! TO.N,PWM*
X83947000Y-82741000D03*
G04 #@! TO.P,J15,2*
G04 #@! TO.N,Net-(J15-Pad2)*
X83947000Y-84741000D03*
G04 #@! TO.P,J15,1*
G04 #@! TO.N,GND*
G04 #@! TA.AperFunction,ComponentPad*
G36*
G01*
X84572001Y-87341000D02*
X83321999Y-87341000D01*
G75*
G02*
X83072000Y-87091001I0J249999D01*
G01*
X83072000Y-86390999D01*
G75*
G02*
X83321999Y-86141000I249999J0D01*
G01*
X84572001Y-86141000D01*
G75*
G02*
X84822000Y-86390999I0J-249999D01*
G01*
X84822000Y-87091001D01*
G75*
G02*
X84572001Y-87341000I-249999J0D01*
G01*
G37*
G04 #@! TD.AperFunction*
G04 #@! TD*
D17*
G04 #@! TO.P,J3,4*
G04 #@! TO.N,+24V*
X159600000Y-59080000D03*
G04 #@! TO.P,J3,3*
X163000000Y-59080000D03*
G04 #@! TO.P,J3,2*
X163000000Y-72550000D03*
G04 #@! TO.P,J3,1*
X159600000Y-72550000D03*
G04 #@! TD*
G04 #@! TO.P,J2,4*
G04 #@! TO.N,+24V*
X135000000Y-59030000D03*
G04 #@! TO.P,J2,3*
X138400000Y-59030000D03*
G04 #@! TO.P,J2,2*
X138400000Y-72500000D03*
G04 #@! TO.P,J2,1*
X135000000Y-72500000D03*
G04 #@! TD*
G04 #@! TO.P,J1,4*
G04 #@! TO.N,+24V*
X110100000Y-59030000D03*
G04 #@! TO.P,J1,3*
X113500000Y-59030000D03*
G04 #@! TO.P,J1,2*
X113500000Y-72500000D03*
G04 #@! TO.P,J1,1*
X110100000Y-72500000D03*
G04 #@! TD*
D18*
G04 #@! TO.N,+24V*
X112800000Y-81950000D03*
X115300000Y-81950000D03*
X112800000Y-83950000D03*
X135250000Y-84000000D03*
X132750000Y-84000000D03*
X129159000Y-45593000D03*
X127000000Y-48500000D03*
X135100000Y-51400000D03*
X127508000Y-50292000D03*
X127230000Y-45380000D03*
X131699000Y-51400000D03*
X130100000Y-51400000D03*
X127280000Y-51420000D03*
X128905000Y-43307000D03*
X128143000Y-44450000D03*
X127170000Y-43440000D03*
X129000000Y-50250000D03*
X129000000Y-48500000D03*
X128000000Y-47000000D03*
X133604000Y-51435000D03*
X166200000Y-64200000D03*
X156300000Y-64250000D03*
X158400000Y-63400000D03*
X166150000Y-55200000D03*
X156350000Y-57000000D03*
X156400000Y-55300000D03*
X156350000Y-60600000D03*
X156350000Y-58600000D03*
X156350000Y-62600000D03*
X162850000Y-62700000D03*
X160300000Y-64250000D03*
X166150000Y-56700000D03*
X166150000Y-62300000D03*
X162650000Y-55300000D03*
X160150000Y-56900000D03*
X162800000Y-64300000D03*
X166150000Y-60300000D03*
X162700000Y-56900000D03*
X160350000Y-62700000D03*
X164500000Y-63400000D03*
X160150000Y-55300000D03*
X166150000Y-58300000D03*
X141600000Y-64100000D03*
X131700000Y-64150000D03*
X133800000Y-63300000D03*
X141550000Y-55100000D03*
X131750000Y-56900000D03*
X131800000Y-55200000D03*
X131750000Y-60500000D03*
X131750000Y-58500000D03*
X131750000Y-62500000D03*
X138250000Y-62600000D03*
X135700000Y-64150000D03*
X141550000Y-56600000D03*
X141550000Y-62200000D03*
X138050000Y-55200000D03*
X135550000Y-56800000D03*
X138200000Y-64200000D03*
X141550000Y-60200000D03*
X138100000Y-56800000D03*
X135750000Y-62600000D03*
X140000000Y-63400000D03*
X135550000Y-55200000D03*
X141550000Y-58200000D03*
X113400000Y-64200000D03*
X116750000Y-58200000D03*
X116750000Y-62200000D03*
X106950000Y-60500000D03*
X116800000Y-64100000D03*
X106950000Y-58500000D03*
X106950000Y-62500000D03*
X116750000Y-60200000D03*
X115100000Y-63200000D03*
X110900000Y-64150000D03*
X106900000Y-64150000D03*
X113450000Y-62600000D03*
X109000000Y-63300000D03*
X113250000Y-55200000D03*
X116750000Y-56600000D03*
X110750000Y-56800000D03*
X116750000Y-55100000D03*
X113300000Y-56800000D03*
X110950000Y-62600000D03*
X110750000Y-55200000D03*
X106950000Y-56900000D03*
X107000000Y-55200000D03*
X156845000Y-88392000D03*
X165862000Y-88519000D03*
X162750000Y-81900000D03*
X165250000Y-83900000D03*
X160250000Y-83900000D03*
X165250000Y-81900000D03*
X165989000Y-85471000D03*
X162750000Y-83900000D03*
X156972000Y-85471000D03*
X160250000Y-81900000D03*
X157750000Y-83900000D03*
X157750000Y-81900000D03*
X132334000Y-85979000D03*
X137750000Y-84000000D03*
X140250000Y-84000000D03*
X141097000Y-86000000D03*
X135250000Y-82000000D03*
X140250000Y-82000000D03*
X132080000Y-88900000D03*
X141478000Y-84963000D03*
X137750000Y-82000000D03*
X132750000Y-82000000D03*
X107800000Y-81950000D03*
X110300000Y-81950000D03*
X115300000Y-83950000D03*
X110300000Y-83950000D03*
X107800000Y-83950000D03*
X115951000Y-85852000D03*
X115951000Y-88646000D03*
X107188000Y-88138000D03*
X107188000Y-85725000D03*
G04 #@! TO.N,Net-(J6-Pad1)*
X104902000Y-113030000D03*
X104902000Y-114935000D03*
X103870000Y-115990000D03*
X105870000Y-115990000D03*
X105840000Y-113870000D03*
X103840000Y-113870000D03*
X103900000Y-119890000D03*
X104775000Y-121539000D03*
X106680000Y-121412000D03*
X105900000Y-119890000D03*
X105910000Y-118100000D03*
X103910000Y-118100000D03*
X115697000Y-97536000D03*
X122100000Y-97650000D03*
X119600000Y-101650000D03*
X119600000Y-99650000D03*
X117100000Y-97650000D03*
X117602000Y-101600000D03*
X115824000Y-99695000D03*
X117602000Y-99822000D03*
X122100000Y-99650000D03*
X122100000Y-101650000D03*
X115951000Y-101727000D03*
X119600000Y-97650000D03*
X107400000Y-97950000D03*
X104900000Y-101950000D03*
X104900000Y-99950000D03*
X102400000Y-97950000D03*
X102400000Y-101950000D03*
X99900000Y-99950000D03*
X102400000Y-99950000D03*
X106299000Y-101092000D03*
X107315000Y-101950000D03*
X99900000Y-101950000D03*
X99900000Y-97950000D03*
X104900000Y-97950000D03*
G04 #@! TO.N,Net-(J10-Pad1)*
X132600000Y-101550000D03*
X131010000Y-118080000D03*
X130970000Y-115970000D03*
X129032000Y-121285000D03*
X128940000Y-113850000D03*
X132842000Y-112903000D03*
X135020000Y-112903000D03*
X131064000Y-121285000D03*
X129000000Y-119870000D03*
X129010000Y-118080000D03*
X131000000Y-119870000D03*
X128970000Y-115970000D03*
X130940000Y-113850000D03*
X139800000Y-101250000D03*
X147300000Y-97250000D03*
X139800000Y-99250000D03*
X147300000Y-99250000D03*
X142300000Y-101250000D03*
X144800000Y-101250000D03*
X142300000Y-97250000D03*
X139800000Y-97250000D03*
X144800000Y-99250000D03*
X142300000Y-99250000D03*
X147300000Y-101250000D03*
X144800000Y-97250000D03*
X127600000Y-97550000D03*
X127600000Y-99550000D03*
X132600000Y-99550000D03*
X130100000Y-97550000D03*
X125100000Y-99550000D03*
X127600000Y-101550000D03*
X130100000Y-99550000D03*
X125100000Y-97550000D03*
X125100000Y-101550000D03*
X130100000Y-101550000D03*
X132600000Y-97550000D03*
G04 #@! TO.N,Net-(J12-Pad2)*
X155880000Y-118270000D03*
X155840000Y-116160000D03*
X159950000Y-121412000D03*
X153810000Y-114040000D03*
X157861000Y-112776000D03*
X159890000Y-112776000D03*
X157950000Y-121412000D03*
X153870000Y-120060000D03*
X153880000Y-118270000D03*
X155870000Y-120060000D03*
X153840000Y-116160000D03*
X155810000Y-114040000D03*
X165500000Y-101150000D03*
X173000000Y-97150000D03*
X165500000Y-99150000D03*
X173000000Y-99150000D03*
X168000000Y-101150000D03*
X170500000Y-101150000D03*
X168000000Y-97150000D03*
X165500000Y-97150000D03*
X170500000Y-99150000D03*
X168000000Y-99150000D03*
X173000000Y-101150000D03*
X170500000Y-97150000D03*
X153300000Y-97450000D03*
X153300000Y-99450000D03*
X158300000Y-99450000D03*
X158300000Y-101450000D03*
X155800000Y-97450000D03*
X150800000Y-99450000D03*
X153300000Y-101450000D03*
X155800000Y-99450000D03*
X150800000Y-97450000D03*
X150800000Y-101450000D03*
X155800000Y-101450000D03*
X158300000Y-97450000D03*
G04 #@! TD*
D19*
G04 #@! TO.N,DIR*
X83693000Y-53086000D02*
X80137000Y-56642000D01*
X80137000Y-76931000D02*
X83947000Y-80741000D01*
X80137000Y-56642000D02*
X80137000Y-76931000D01*
X80137000Y-92298000D02*
X83820000Y-95981000D01*
X80137000Y-76931000D02*
X80137000Y-92298000D01*
X80137000Y-106903000D02*
X83820000Y-110586000D01*
X80137000Y-92298000D02*
X80137000Y-106903000D01*
G04 #@! TD*
D20*
G04 #@! TO.N,+24V*
X148873000Y-89873000D02*
X124127000Y-89873000D01*
X124127000Y-67127000D01*
X148873000Y-67127000D01*
X148873000Y-89873000D01*
G04 #@! TA.AperFunction,Conductor*
D21*
G36*
X148873000Y-89873000D02*
G01*
X124127000Y-89873000D01*
X124127000Y-67127000D01*
X148873000Y-67127000D01*
X148873000Y-89873000D01*
G37*
G04 #@! TD.AperFunction*
G04 #@! TD*
D20*
G04 #@! TO.N,+24V*
X176340001Y-89873000D02*
X153627000Y-89873000D01*
X153627000Y-67127000D01*
X176340000Y-67127000D01*
X176340001Y-89873000D01*
G04 #@! TA.AperFunction,Conductor*
D21*
G36*
X176340001Y-89873000D02*
G01*
X153627000Y-89873000D01*
X153627000Y-67127000D01*
X176340000Y-67127000D01*
X176340001Y-89873000D01*
G37*
G04 #@! TD.AperFunction*
G04 #@! TD*
D20*
G04 #@! TO.N,+24V*
X119373000Y-89873000D02*
X96127000Y-89873000D01*
X96127000Y-67127000D01*
X119373000Y-67127000D01*
X119373000Y-89873000D01*
G04 #@! TA.AperFunction,Conductor*
D21*
G36*
X119373000Y-89873000D02*
G01*
X96127000Y-89873000D01*
X96127000Y-67127000D01*
X119373000Y-67127000D01*
X119373000Y-89873000D01*
G37*
G04 #@! TD.AperFunction*
G04 #@! TD*
D20*
G04 #@! TO.N,Net-(J6-Pad1)*
X123061974Y-124357519D02*
X95949769Y-124250194D01*
X95964048Y-121779872D01*
X97015000Y-121779872D01*
X97015000Y-122220128D01*
X97100890Y-122651925D01*
X97269369Y-123058669D01*
X97513962Y-123424729D01*
X97825271Y-123736038D01*
X98191331Y-123980631D01*
X98598075Y-124149110D01*
X99029872Y-124235000D01*
X99470128Y-124235000D01*
X99901925Y-124149110D01*
X100308669Y-123980631D01*
X100674729Y-123736038D01*
X100986038Y-123424729D01*
X101230631Y-123058669D01*
X101399110Y-122651925D01*
X101485000Y-122220128D01*
X101485000Y-121779872D01*
X101399110Y-121348075D01*
X101230631Y-120941331D01*
X100986038Y-120575271D01*
X100674729Y-120263962D01*
X100308669Y-120019369D01*
X99901925Y-119850890D01*
X99470128Y-119765000D01*
X99029872Y-119765000D01*
X98598075Y-119850890D01*
X98191331Y-120019369D01*
X97825271Y-120263962D01*
X97513962Y-120575271D01*
X97269369Y-120941331D01*
X97100890Y-121348075D01*
X97015000Y-121779872D01*
X95964048Y-121779872D01*
X96011908Y-113500000D01*
X111611928Y-113500000D01*
X111611928Y-120500000D01*
X111624188Y-120624482D01*
X111660498Y-120744180D01*
X111719463Y-120854494D01*
X111798815Y-120951185D01*
X111895506Y-121030537D01*
X112005820Y-121089502D01*
X112125518Y-121125812D01*
X112250000Y-121138072D01*
X115750000Y-121138072D01*
X115874482Y-121125812D01*
X115994180Y-121089502D01*
X116104494Y-121030537D01*
X116201185Y-120951185D01*
X116280537Y-120854494D01*
X116339502Y-120744180D01*
X116375812Y-120624482D01*
X116388072Y-120500000D01*
X116388072Y-113500000D01*
X116375812Y-113375518D01*
X116339502Y-113255820D01*
X116280537Y-113145506D01*
X116201185Y-113048815D01*
X116104494Y-112969463D01*
X115994180Y-112910498D01*
X115874482Y-112874188D01*
X115750000Y-112861928D01*
X112250000Y-112861928D01*
X112125518Y-112874188D01*
X112005820Y-112910498D01*
X111895506Y-112969463D01*
X111798815Y-113048815D01*
X111719463Y-113145506D01*
X111660498Y-113255820D01*
X111624188Y-113375518D01*
X111611928Y-113500000D01*
X96011908Y-113500000D01*
X96071157Y-103250000D01*
X107361928Y-103250000D01*
X107361928Y-106750000D01*
X107374188Y-106874482D01*
X107410498Y-106994180D01*
X107469463Y-107104494D01*
X107548815Y-107201185D01*
X107645506Y-107280537D01*
X107755820Y-107339502D01*
X107875518Y-107375812D01*
X108000000Y-107388072D01*
X115000000Y-107388072D01*
X115124482Y-107375812D01*
X115244180Y-107339502D01*
X115354494Y-107280537D01*
X115451185Y-107201185D01*
X115530537Y-107104494D01*
X115589502Y-106994180D01*
X115625812Y-106874482D01*
X115638072Y-106750000D01*
X115638072Y-103250000D01*
X115625812Y-103125518D01*
X115589502Y-103005820D01*
X115530537Y-102895506D01*
X115451185Y-102798815D01*
X115354494Y-102719463D01*
X115244180Y-102660498D01*
X115124482Y-102624188D01*
X115000000Y-102611928D01*
X108000000Y-102611928D01*
X107875518Y-102624188D01*
X107755820Y-102660498D01*
X107645506Y-102719463D01*
X107548815Y-102798815D01*
X107469463Y-102895506D01*
X107410498Y-103005820D01*
X107374188Y-103125518D01*
X107361928Y-103250000D01*
X96071157Y-103250000D01*
X96105509Y-97307227D01*
X122842793Y-97002787D01*
X123061974Y-124357519D01*
G04 #@! TA.AperFunction,Conductor*
D21*
G36*
X123061974Y-124357519D02*
G01*
X95949769Y-124250194D01*
X95964048Y-121779872D01*
X97015000Y-121779872D01*
X97015000Y-122220128D01*
X97100890Y-122651925D01*
X97269369Y-123058669D01*
X97513962Y-123424729D01*
X97825271Y-123736038D01*
X98191331Y-123980631D01*
X98598075Y-124149110D01*
X99029872Y-124235000D01*
X99470128Y-124235000D01*
X99901925Y-124149110D01*
X100308669Y-123980631D01*
X100674729Y-123736038D01*
X100986038Y-123424729D01*
X101230631Y-123058669D01*
X101399110Y-122651925D01*
X101485000Y-122220128D01*
X101485000Y-121779872D01*
X101399110Y-121348075D01*
X101230631Y-120941331D01*
X100986038Y-120575271D01*
X100674729Y-120263962D01*
X100308669Y-120019369D01*
X99901925Y-119850890D01*
X99470128Y-119765000D01*
X99029872Y-119765000D01*
X98598075Y-119850890D01*
X98191331Y-120019369D01*
X97825271Y-120263962D01*
X97513962Y-120575271D01*
X97269369Y-120941331D01*
X97100890Y-121348075D01*
X97015000Y-121779872D01*
X95964048Y-121779872D01*
X96011908Y-113500000D01*
X111611928Y-113500000D01*
X111611928Y-120500000D01*
X111624188Y-120624482D01*
X111660498Y-120744180D01*
X111719463Y-120854494D01*
X111798815Y-120951185D01*
X111895506Y-121030537D01*
X112005820Y-121089502D01*
X112125518Y-121125812D01*
X112250000Y-121138072D01*
X115750000Y-121138072D01*
X115874482Y-121125812D01*
X115994180Y-121089502D01*
X116104494Y-121030537D01*
X116201185Y-120951185D01*
X116280537Y-120854494D01*
X116339502Y-120744180D01*
X116375812Y-120624482D01*
X116388072Y-120500000D01*
X116388072Y-113500000D01*
X116375812Y-113375518D01*
X116339502Y-113255820D01*
X116280537Y-113145506D01*
X116201185Y-113048815D01*
X116104494Y-112969463D01*
X115994180Y-112910498D01*
X115874482Y-112874188D01*
X115750000Y-112861928D01*
X112250000Y-112861928D01*
X112125518Y-112874188D01*
X112005820Y-112910498D01*
X111895506Y-112969463D01*
X111798815Y-113048815D01*
X111719463Y-113145506D01*
X111660498Y-113255820D01*
X111624188Y-113375518D01*
X111611928Y-113500000D01*
X96011908Y-113500000D01*
X96071157Y-103250000D01*
X107361928Y-103250000D01*
X107361928Y-106750000D01*
X107374188Y-106874482D01*
X107410498Y-106994180D01*
X107469463Y-107104494D01*
X107548815Y-107201185D01*
X107645506Y-107280537D01*
X107755820Y-107339502D01*
X107875518Y-107375812D01*
X108000000Y-107388072D01*
X115000000Y-107388072D01*
X115124482Y-107375812D01*
X115244180Y-107339502D01*
X115354494Y-107280537D01*
X115451185Y-107201185D01*
X115530537Y-107104494D01*
X115589502Y-106994180D01*
X115625812Y-106874482D01*
X115638072Y-106750000D01*
X115638072Y-103250000D01*
X115625812Y-103125518D01*
X115589502Y-103005820D01*
X115530537Y-102895506D01*
X115451185Y-102798815D01*
X115354494Y-102719463D01*
X115244180Y-102660498D01*
X115124482Y-102624188D01*
X115000000Y-102611928D01*
X108000000Y-102611928D01*
X107875518Y-102624188D01*
X107755820Y-102660498D01*
X107645506Y-102719463D01*
X107548815Y-102798815D01*
X107469463Y-102895506D01*
X107410498Y-103005820D01*
X107374188Y-103125518D01*
X107361928Y-103250000D01*
X96071157Y-103250000D01*
X96105509Y-97307227D01*
X122842793Y-97002787D01*
X123061974Y-124357519D01*
G37*
G04 #@! TD.AperFunction*
G04 #@! TD*
D20*
G04 #@! TO.N,Net-(J10-Pad1)*
X147893904Y-124333000D02*
X124647904Y-124333000D01*
X124639687Y-113500000D01*
X136611928Y-113500000D01*
X136611928Y-120500000D01*
X136624188Y-120624482D01*
X136660498Y-120744180D01*
X136719463Y-120854494D01*
X136798815Y-120951185D01*
X136895506Y-121030537D01*
X137005820Y-121089502D01*
X137125518Y-121125812D01*
X137250000Y-121138072D01*
X140750000Y-121138072D01*
X140874482Y-121125812D01*
X140994180Y-121089502D01*
X141104494Y-121030537D01*
X141201185Y-120951185D01*
X141280537Y-120854494D01*
X141339502Y-120744180D01*
X141375812Y-120624482D01*
X141388072Y-120500000D01*
X141388072Y-113500000D01*
X141375812Y-113375518D01*
X141339502Y-113255820D01*
X141280537Y-113145506D01*
X141201185Y-113048815D01*
X141104494Y-112969463D01*
X140994180Y-112910498D01*
X140874482Y-112874188D01*
X140750000Y-112861928D01*
X137250000Y-112861928D01*
X137125518Y-112874188D01*
X137005820Y-112910498D01*
X136895506Y-112969463D01*
X136798815Y-113048815D01*
X136719463Y-113145506D01*
X136660498Y-113255820D01*
X136624188Y-113375518D01*
X136611928Y-113500000D01*
X124639687Y-113500000D01*
X124631912Y-103250000D01*
X132361928Y-103250000D01*
X132361928Y-106750000D01*
X132374188Y-106874482D01*
X132410498Y-106994180D01*
X132469463Y-107104494D01*
X132548815Y-107201185D01*
X132645506Y-107280537D01*
X132755820Y-107339502D01*
X132875518Y-107375812D01*
X133000000Y-107388072D01*
X140000000Y-107388072D01*
X140124482Y-107375812D01*
X140244180Y-107339502D01*
X140354494Y-107280537D01*
X140451185Y-107201185D01*
X140530537Y-107104494D01*
X140589502Y-106994180D01*
X140625812Y-106874482D01*
X140638072Y-106750000D01*
X140638072Y-103250000D01*
X140625812Y-103125518D01*
X140589502Y-103005820D01*
X140530537Y-102895506D01*
X140451185Y-102798815D01*
X140354494Y-102719463D01*
X140244180Y-102660498D01*
X140124482Y-102624188D01*
X140000000Y-102611928D01*
X133000000Y-102611928D01*
X132875518Y-102624188D01*
X132755820Y-102660498D01*
X132645506Y-102719463D01*
X132548815Y-102798815D01*
X132469463Y-102895506D01*
X132410498Y-103005820D01*
X132374188Y-103125518D01*
X132361928Y-103250000D01*
X124631912Y-103250000D01*
X124627096Y-96901000D01*
X147873096Y-96901000D01*
X147893904Y-124333000D01*
G04 #@! TA.AperFunction,Conductor*
D21*
G36*
X147893904Y-124333000D02*
G01*
X124647904Y-124333000D01*
X124639687Y-113500000D01*
X136611928Y-113500000D01*
X136611928Y-120500000D01*
X136624188Y-120624482D01*
X136660498Y-120744180D01*
X136719463Y-120854494D01*
X136798815Y-120951185D01*
X136895506Y-121030537D01*
X137005820Y-121089502D01*
X137125518Y-121125812D01*
X137250000Y-121138072D01*
X140750000Y-121138072D01*
X140874482Y-121125812D01*
X140994180Y-121089502D01*
X141104494Y-121030537D01*
X141201185Y-120951185D01*
X141280537Y-120854494D01*
X141339502Y-120744180D01*
X141375812Y-120624482D01*
X141388072Y-120500000D01*
X141388072Y-113500000D01*
X141375812Y-113375518D01*
X141339502Y-113255820D01*
X141280537Y-113145506D01*
X141201185Y-113048815D01*
X141104494Y-112969463D01*
X140994180Y-112910498D01*
X140874482Y-112874188D01*
X140750000Y-112861928D01*
X137250000Y-112861928D01*
X137125518Y-112874188D01*
X137005820Y-112910498D01*
X136895506Y-112969463D01*
X136798815Y-113048815D01*
X136719463Y-113145506D01*
X136660498Y-113255820D01*
X136624188Y-113375518D01*
X136611928Y-113500000D01*
X124639687Y-113500000D01*
X124631912Y-103250000D01*
X132361928Y-103250000D01*
X132361928Y-106750000D01*
X132374188Y-106874482D01*
X132410498Y-106994180D01*
X132469463Y-107104494D01*
X132548815Y-107201185D01*
X132645506Y-107280537D01*
X132755820Y-107339502D01*
X132875518Y-107375812D01*
X133000000Y-107388072D01*
X140000000Y-107388072D01*
X140124482Y-107375812D01*
X140244180Y-107339502D01*
X140354494Y-107280537D01*
X140451185Y-107201185D01*
X140530537Y-107104494D01*
X140589502Y-106994180D01*
X140625812Y-106874482D01*
X140638072Y-106750000D01*
X140638072Y-103250000D01*
X140625812Y-103125518D01*
X140589502Y-103005820D01*
X140530537Y-102895506D01*
X140451185Y-102798815D01*
X140354494Y-102719463D01*
X140244180Y-102660498D01*
X140124482Y-102624188D01*
X140000000Y-102611928D01*
X133000000Y-102611928D01*
X132875518Y-102624188D01*
X132755820Y-102660498D01*
X132645506Y-102719463D01*
X132548815Y-102798815D01*
X132469463Y-102895506D01*
X132410498Y-103005820D01*
X132374188Y-103125518D01*
X132361928Y-103250000D01*
X124631912Y-103250000D01*
X124627096Y-96901000D01*
X147873096Y-96901000D01*
X147893904Y-124333000D01*
G37*
G04 #@! TD.AperFunction*
G04 #@! TD*
D20*
G04 #@! TO.N,Net-(J12-Pad2)*
X176340001Y-96808415D02*
X176340001Y-113100514D01*
X176281795Y-123431083D01*
X176156890Y-123844790D01*
X175938382Y-124255745D01*
X175875949Y-124332295D01*
X150339071Y-124298170D01*
X150350355Y-121826872D01*
X170993000Y-121826872D01*
X170993000Y-122267128D01*
X171078890Y-122698925D01*
X171247369Y-123105669D01*
X171491962Y-123471729D01*
X171803271Y-123783038D01*
X172169331Y-124027631D01*
X172576075Y-124196110D01*
X173007872Y-124282000D01*
X173448128Y-124282000D01*
X173879925Y-124196110D01*
X174286669Y-124027631D01*
X174652729Y-123783038D01*
X174964038Y-123471729D01*
X175208631Y-123105669D01*
X175377110Y-122698925D01*
X175463000Y-122267128D01*
X175463000Y-121826872D01*
X175377110Y-121395075D01*
X175208631Y-120988331D01*
X174964038Y-120622271D01*
X174652729Y-120310962D01*
X174286669Y-120066369D01*
X173879925Y-119897890D01*
X173448128Y-119812000D01*
X173007872Y-119812000D01*
X172576075Y-119897890D01*
X172169331Y-120066369D01*
X171803271Y-120310962D01*
X171491962Y-120622271D01*
X171247369Y-120988331D01*
X171078890Y-121395075D01*
X170993000Y-121826872D01*
X150350355Y-121826872D01*
X150388377Y-113500000D01*
X161611928Y-113500000D01*
X161611928Y-120500000D01*
X161624188Y-120624482D01*
X161660498Y-120744180D01*
X161719463Y-120854494D01*
X161798815Y-120951185D01*
X161895506Y-121030537D01*
X162005820Y-121089502D01*
X162125518Y-121125812D01*
X162250000Y-121138072D01*
X165750000Y-121138072D01*
X165874482Y-121125812D01*
X165994180Y-121089502D01*
X166104494Y-121030537D01*
X166201185Y-120951185D01*
X166280537Y-120854494D01*
X166339502Y-120744180D01*
X166375812Y-120624482D01*
X166388072Y-120500000D01*
X166388072Y-113500000D01*
X166375812Y-113375518D01*
X166339502Y-113255820D01*
X166280537Y-113145506D01*
X166201185Y-113048815D01*
X166104494Y-112969463D01*
X165994180Y-112910498D01*
X165874482Y-112874188D01*
X165750000Y-112861928D01*
X162250000Y-112861928D01*
X162125518Y-112874188D01*
X162005820Y-112910498D01*
X161895506Y-112969463D01*
X161798815Y-113048815D01*
X161719463Y-113145506D01*
X161660498Y-113255820D01*
X161624188Y-113375518D01*
X161611928Y-113500000D01*
X150388377Y-113500000D01*
X150435181Y-103250000D01*
X157361928Y-103250000D01*
X157361928Y-106750000D01*
X157374188Y-106874482D01*
X157410498Y-106994180D01*
X157469463Y-107104494D01*
X157548815Y-107201185D01*
X157645506Y-107280537D01*
X157755820Y-107339502D01*
X157875518Y-107375812D01*
X158000000Y-107388072D01*
X165000000Y-107388072D01*
X165124482Y-107375812D01*
X165244180Y-107339502D01*
X165354494Y-107280537D01*
X165451185Y-107201185D01*
X165530537Y-107104494D01*
X165589502Y-106994180D01*
X165625812Y-106874482D01*
X165638072Y-106750000D01*
X165638072Y-103250000D01*
X165625812Y-103125518D01*
X165589502Y-103005820D01*
X165530537Y-102895506D01*
X165451185Y-102798815D01*
X165354494Y-102719463D01*
X165244180Y-102660498D01*
X165124482Y-102624188D01*
X165000000Y-102611928D01*
X158000000Y-102611928D01*
X157875518Y-102624188D01*
X157755820Y-102660498D01*
X157645506Y-102719463D01*
X157548815Y-102798815D01*
X157469463Y-102895506D01*
X157410498Y-103005820D01*
X157374188Y-103125518D01*
X157361928Y-103250000D01*
X150435181Y-103250000D01*
X150464910Y-96739338D01*
X176340001Y-96808415D01*
G04 #@! TA.AperFunction,Conductor*
D21*
G36*
X176340001Y-96808415D02*
G01*
X176340001Y-113100514D01*
X176281795Y-123431083D01*
X176156890Y-123844790D01*
X175938382Y-124255745D01*
X175875949Y-124332295D01*
X150339071Y-124298170D01*
X150350355Y-121826872D01*
X170993000Y-121826872D01*
X170993000Y-122267128D01*
X171078890Y-122698925D01*
X171247369Y-123105669D01*
X171491962Y-123471729D01*
X171803271Y-123783038D01*
X172169331Y-124027631D01*
X172576075Y-124196110D01*
X173007872Y-124282000D01*
X173448128Y-124282000D01*
X173879925Y-124196110D01*
X174286669Y-124027631D01*
X174652729Y-123783038D01*
X174964038Y-123471729D01*
X175208631Y-123105669D01*
X175377110Y-122698925D01*
X175463000Y-122267128D01*
X175463000Y-121826872D01*
X175377110Y-121395075D01*
X175208631Y-120988331D01*
X174964038Y-120622271D01*
X174652729Y-120310962D01*
X174286669Y-120066369D01*
X173879925Y-119897890D01*
X173448128Y-119812000D01*
X173007872Y-119812000D01*
X172576075Y-119897890D01*
X172169331Y-120066369D01*
X171803271Y-120310962D01*
X171491962Y-120622271D01*
X171247369Y-120988331D01*
X171078890Y-121395075D01*
X170993000Y-121826872D01*
X150350355Y-121826872D01*
X150388377Y-113500000D01*
X161611928Y-113500000D01*
X161611928Y-120500000D01*
X161624188Y-120624482D01*
X161660498Y-120744180D01*
X161719463Y-120854494D01*
X161798815Y-120951185D01*
X161895506Y-121030537D01*
X162005820Y-121089502D01*
X162125518Y-121125812D01*
X162250000Y-121138072D01*
X165750000Y-121138072D01*
X165874482Y-121125812D01*
X165994180Y-121089502D01*
X166104494Y-121030537D01*
X166201185Y-120951185D01*
X166280537Y-120854494D01*
X166339502Y-120744180D01*
X166375812Y-120624482D01*
X166388072Y-120500000D01*
X166388072Y-113500000D01*
X166375812Y-113375518D01*
X166339502Y-113255820D01*
X166280537Y-113145506D01*
X166201185Y-113048815D01*
X166104494Y-112969463D01*
X165994180Y-112910498D01*
X165874482Y-112874188D01*
X165750000Y-112861928D01*
X162250000Y-112861928D01*
X162125518Y-112874188D01*
X162005820Y-112910498D01*
X161895506Y-112969463D01*
X161798815Y-113048815D01*
X161719463Y-113145506D01*
X161660498Y-113255820D01*
X161624188Y-113375518D01*
X161611928Y-113500000D01*
X150388377Y-113500000D01*
X150435181Y-103250000D01*
X157361928Y-103250000D01*
X157361928Y-106750000D01*
X157374188Y-106874482D01*
X157410498Y-106994180D01*
X157469463Y-107104494D01*
X157548815Y-107201185D01*
X157645506Y-107280537D01*
X157755820Y-107339502D01*
X157875518Y-107375812D01*
X158000000Y-107388072D01*
X165000000Y-107388072D01*
X165124482Y-107375812D01*
X165244180Y-107339502D01*
X165354494Y-107280537D01*
X165451185Y-107201185D01*
X165530537Y-107104494D01*
X165589502Y-106994180D01*
X165625812Y-106874482D01*
X165638072Y-106750000D01*
X165638072Y-103250000D01*
X165625812Y-103125518D01*
X165589502Y-103005820D01*
X165530537Y-102895506D01*
X165451185Y-102798815D01*
X165354494Y-102719463D01*
X165244180Y-102660498D01*
X165124482Y-102624188D01*
X165000000Y-102611928D01*
X158000000Y-102611928D01*
X157875518Y-102624188D01*
X157755820Y-102660498D01*
X157645506Y-102719463D01*
X157548815Y-102798815D01*
X157469463Y-102895506D01*
X157410498Y-103005820D01*
X157374188Y-103125518D01*
X157361928Y-103250000D01*
X150435181Y-103250000D01*
X150464910Y-96739338D01*
X176340001Y-96808415D01*
G37*
G04 #@! TD.AperFunction*
G04 #@! TD*
D20*
G04 #@! TO.N,+24V*
X174465844Y-37659987D02*
X174855333Y-37697862D01*
X175198603Y-37801202D01*
X175515264Y-37969248D01*
X175793253Y-38195601D01*
X176021984Y-38471638D01*
X176192741Y-38786845D01*
X176299022Y-39129212D01*
X176340000Y-39516118D01*
X176340000Y-64883877D01*
X96127000Y-64873017D01*
X96127000Y-41029872D01*
X97765000Y-41029872D01*
X97765000Y-41470128D01*
X97850890Y-41901925D01*
X98019369Y-42308669D01*
X98263962Y-42674729D01*
X98575271Y-42986038D01*
X98941331Y-43230631D01*
X99348075Y-43399110D01*
X99779872Y-43485000D01*
X100220128Y-43485000D01*
X100651925Y-43399110D01*
X101058669Y-43230631D01*
X101424729Y-42986038D01*
X101736038Y-42674729D01*
X101852787Y-42500000D01*
X136461928Y-42500000D01*
X136461928Y-50500000D01*
X136474188Y-50624482D01*
X136510498Y-50744180D01*
X136569463Y-50854494D01*
X136648815Y-50951185D01*
X136745506Y-51030537D01*
X136855820Y-51089502D01*
X136975518Y-51125812D01*
X137100000Y-51138072D01*
X143100000Y-51138072D01*
X143224482Y-51125812D01*
X143344180Y-51089502D01*
X143454494Y-51030537D01*
X143551185Y-50951185D01*
X143630537Y-50854494D01*
X143689502Y-50744180D01*
X143725812Y-50624482D01*
X143738072Y-50500000D01*
X143738072Y-42500000D01*
X143725812Y-42375518D01*
X143689899Y-42257129D01*
X143724901Y-42246511D01*
X143939449Y-42131833D01*
X144127502Y-41977502D01*
X144281833Y-41789449D01*
X144396511Y-41574901D01*
X144467130Y-41342102D01*
X144485000Y-41160665D01*
X144485000Y-40673872D01*
X170866000Y-40673872D01*
X170866000Y-41114128D01*
X170951890Y-41545925D01*
X171120369Y-41952669D01*
X171364962Y-42318729D01*
X171676271Y-42630038D01*
X172042331Y-42874631D01*
X172449075Y-43043110D01*
X172880872Y-43129000D01*
X173321128Y-43129000D01*
X173752925Y-43043110D01*
X174159669Y-42874631D01*
X174525729Y-42630038D01*
X174837038Y-42318729D01*
X175081631Y-41952669D01*
X175250110Y-41545925D01*
X175336000Y-41114128D01*
X175336000Y-40673872D01*
X175250110Y-40242075D01*
X175081631Y-39835331D01*
X174837038Y-39469271D01*
X174525729Y-39157962D01*
X174159669Y-38913369D01*
X173752925Y-38744890D01*
X173321128Y-38659000D01*
X172880872Y-38659000D01*
X172449075Y-38744890D01*
X172042331Y-38913369D01*
X171676271Y-39157962D01*
X171364962Y-39469271D01*
X171120369Y-39835331D01*
X170951890Y-40242075D01*
X170866000Y-40673872D01*
X144485000Y-40673872D01*
X144485000Y-39839335D01*
X144467130Y-39657898D01*
X144396511Y-39425099D01*
X144281833Y-39210551D01*
X144127502Y-39022498D01*
X143939448Y-38868167D01*
X143724900Y-38753489D01*
X143492101Y-38682870D01*
X143250000Y-38659025D01*
X143007898Y-38682870D01*
X142775099Y-38753489D01*
X142560551Y-38868167D01*
X142372498Y-39022498D01*
X142218167Y-39210552D01*
X142103489Y-39425100D01*
X142032870Y-39657899D01*
X142015000Y-39839336D01*
X142015000Y-41160665D01*
X142032870Y-41342102D01*
X142103489Y-41574901D01*
X142218168Y-41789449D01*
X142277650Y-41861928D01*
X137100000Y-41861928D01*
X136975518Y-41874188D01*
X136855820Y-41910498D01*
X136745506Y-41969463D01*
X136648815Y-42048815D01*
X136569463Y-42145506D01*
X136510498Y-42255820D01*
X136474188Y-42375518D01*
X136461928Y-42500000D01*
X101852787Y-42500000D01*
X101980631Y-42308669D01*
X102149110Y-41901925D01*
X102235000Y-41470128D01*
X102235000Y-41029872D01*
X102149110Y-40598075D01*
X101980631Y-40191331D01*
X101745436Y-39839336D01*
X128515000Y-39839336D01*
X128515000Y-41160665D01*
X128532870Y-41342102D01*
X128603489Y-41574901D01*
X128718168Y-41789449D01*
X128872499Y-41977502D01*
X129060552Y-42131833D01*
X129275100Y-42246511D01*
X129507899Y-42317130D01*
X129750000Y-42340975D01*
X129992102Y-42317130D01*
X130224901Y-42246511D01*
X130439449Y-42131833D01*
X130627502Y-41977502D01*
X130781833Y-41789449D01*
X130896511Y-41574901D01*
X130967130Y-41342102D01*
X130985000Y-41160665D01*
X130985000Y-39839335D01*
X130967130Y-39657898D01*
X130896511Y-39425099D01*
X130781833Y-39210551D01*
X130627502Y-39022498D01*
X130439448Y-38868167D01*
X130224900Y-38753489D01*
X129992101Y-38682870D01*
X129750000Y-38659025D01*
X129507898Y-38682870D01*
X129275099Y-38753489D01*
X129060551Y-38868167D01*
X128872498Y-39022498D01*
X128718167Y-39210552D01*
X128603489Y-39425100D01*
X128532870Y-39657899D01*
X128515000Y-39839336D01*
X101745436Y-39839336D01*
X101736038Y-39825271D01*
X101424729Y-39513962D01*
X101058669Y-39269369D01*
X100651925Y-39100890D01*
X100220128Y-39015000D01*
X99779872Y-39015000D01*
X99348075Y-39100890D01*
X98941331Y-39269369D01*
X98575271Y-39513962D01*
X98263962Y-39825271D01*
X98019369Y-40191331D01*
X97850890Y-40598075D01*
X97765000Y-41029872D01*
X96127000Y-41029872D01*
X96127000Y-37625779D01*
X174465844Y-37659987D01*
G04 #@! TA.AperFunction,Conductor*
D21*
G36*
X174465844Y-37659987D02*
G01*
X174855333Y-37697862D01*
X175198603Y-37801202D01*
X175515264Y-37969248D01*
X175793253Y-38195601D01*
X176021984Y-38471638D01*
X176192741Y-38786845D01*
X176299022Y-39129212D01*
X176340000Y-39516118D01*
X176340000Y-64883877D01*
X96127000Y-64873017D01*
X96127000Y-41029872D01*
X97765000Y-41029872D01*
X97765000Y-41470128D01*
X97850890Y-41901925D01*
X98019369Y-42308669D01*
X98263962Y-42674729D01*
X98575271Y-42986038D01*
X98941331Y-43230631D01*
X99348075Y-43399110D01*
X99779872Y-43485000D01*
X100220128Y-43485000D01*
X100651925Y-43399110D01*
X101058669Y-43230631D01*
X101424729Y-42986038D01*
X101736038Y-42674729D01*
X101852787Y-42500000D01*
X136461928Y-42500000D01*
X136461928Y-50500000D01*
X136474188Y-50624482D01*
X136510498Y-50744180D01*
X136569463Y-50854494D01*
X136648815Y-50951185D01*
X136745506Y-51030537D01*
X136855820Y-51089502D01*
X136975518Y-51125812D01*
X137100000Y-51138072D01*
X143100000Y-51138072D01*
X143224482Y-51125812D01*
X143344180Y-51089502D01*
X143454494Y-51030537D01*
X143551185Y-50951185D01*
X143630537Y-50854494D01*
X143689502Y-50744180D01*
X143725812Y-50624482D01*
X143738072Y-50500000D01*
X143738072Y-42500000D01*
X143725812Y-42375518D01*
X143689899Y-42257129D01*
X143724901Y-42246511D01*
X143939449Y-42131833D01*
X144127502Y-41977502D01*
X144281833Y-41789449D01*
X144396511Y-41574901D01*
X144467130Y-41342102D01*
X144485000Y-41160665D01*
X144485000Y-40673872D01*
X170866000Y-40673872D01*
X170866000Y-41114128D01*
X170951890Y-41545925D01*
X171120369Y-41952669D01*
X171364962Y-42318729D01*
X171676271Y-42630038D01*
X172042331Y-42874631D01*
X172449075Y-43043110D01*
X172880872Y-43129000D01*
X173321128Y-43129000D01*
X173752925Y-43043110D01*
X174159669Y-42874631D01*
X174525729Y-42630038D01*
X174837038Y-42318729D01*
X175081631Y-41952669D01*
X175250110Y-41545925D01*
X175336000Y-41114128D01*
X175336000Y-40673872D01*
X175250110Y-40242075D01*
X175081631Y-39835331D01*
X174837038Y-39469271D01*
X174525729Y-39157962D01*
X174159669Y-38913369D01*
X173752925Y-38744890D01*
X173321128Y-38659000D01*
X172880872Y-38659000D01*
X172449075Y-38744890D01*
X172042331Y-38913369D01*
X171676271Y-39157962D01*
X171364962Y-39469271D01*
X171120369Y-39835331D01*
X170951890Y-40242075D01*
X170866000Y-40673872D01*
X144485000Y-40673872D01*
X144485000Y-39839335D01*
X144467130Y-39657898D01*
X144396511Y-39425099D01*
X144281833Y-39210551D01*
X144127502Y-39022498D01*
X143939448Y-38868167D01*
X143724900Y-38753489D01*
X143492101Y-38682870D01*
X143250000Y-38659025D01*
X143007898Y-38682870D01*
X142775099Y-38753489D01*
X142560551Y-38868167D01*
X142372498Y-39022498D01*
X142218167Y-39210552D01*
X142103489Y-39425100D01*
X142032870Y-39657899D01*
X142015000Y-39839336D01*
X142015000Y-41160665D01*
X142032870Y-41342102D01*
X142103489Y-41574901D01*
X142218168Y-41789449D01*
X142277650Y-41861928D01*
X137100000Y-41861928D01*
X136975518Y-41874188D01*
X136855820Y-41910498D01*
X136745506Y-41969463D01*
X136648815Y-42048815D01*
X136569463Y-42145506D01*
X136510498Y-42255820D01*
X136474188Y-42375518D01*
X136461928Y-42500000D01*
X101852787Y-42500000D01*
X101980631Y-42308669D01*
X102149110Y-41901925D01*
X102235000Y-41470128D01*
X102235000Y-41029872D01*
X102149110Y-40598075D01*
X101980631Y-40191331D01*
X101745436Y-39839336D01*
X128515000Y-39839336D01*
X128515000Y-41160665D01*
X128532870Y-41342102D01*
X128603489Y-41574901D01*
X128718168Y-41789449D01*
X128872499Y-41977502D01*
X129060552Y-42131833D01*
X129275100Y-42246511D01*
X129507899Y-42317130D01*
X129750000Y-42340975D01*
X129992102Y-42317130D01*
X130224901Y-42246511D01*
X130439449Y-42131833D01*
X130627502Y-41977502D01*
X130781833Y-41789449D01*
X130896511Y-41574901D01*
X130967130Y-41342102D01*
X130985000Y-41160665D01*
X130985000Y-39839335D01*
X130967130Y-39657898D01*
X130896511Y-39425099D01*
X130781833Y-39210551D01*
X130627502Y-39022498D01*
X130439448Y-38868167D01*
X130224900Y-38753489D01*
X129992101Y-38682870D01*
X129750000Y-38659025D01*
X129507898Y-38682870D01*
X129275099Y-38753489D01*
X129060551Y-38868167D01*
X128872498Y-39022498D01*
X128718167Y-39210552D01*
X128603489Y-39425100D01*
X128532870Y-39657899D01*
X128515000Y-39839336D01*
X101745436Y-39839336D01*
X101736038Y-39825271D01*
X101424729Y-39513962D01*
X101058669Y-39269369D01*
X100651925Y-39100890D01*
X100220128Y-39015000D01*
X99779872Y-39015000D01*
X99348075Y-39100890D01*
X98941331Y-39269369D01*
X98575271Y-39513962D01*
X98263962Y-39825271D01*
X98019369Y-40191331D01*
X97850890Y-40598075D01*
X97765000Y-41029872D01*
X96127000Y-41029872D01*
X96127000Y-37625779D01*
X174465844Y-37659987D01*
G37*
G04 #@! TD.AperFunction*
G04 #@! TD*
M02*
