M48
; DRILL file {KiCad (5.1.10)-1} date 04/16/22 12:49:25
; FORMAT={-:-/ absolute / inch / decimal}
; #@! TF.CreationDate,2022-04-16T12:49:25+05:30
; #@! TF.GenerationSoftware,Kicad,Pcbnew,(5.1.10)-1
; #@! TF.FileFunction,Plated,1,2,PTH
FMAT,2
INCH
T1C0.0157
T2C0.0236
T3C0.0295
T4C0.0350
T5C0.0630
T6C0.1181
T7C0.1969
T8C0.2165
%
G90
G05
T1
X3.9331Y-3.8563
X3.9331Y-3.935
X3.9331Y-4.0138
X4.0315Y-3.8563
X4.0315Y-3.935
X4.0315Y-4.0138
X4.0882Y-4.4831
X4.0894Y-4.5665
X4.0906Y-4.7201
X4.0909Y-4.6496
X4.125Y-4.785
X4.1299Y-3.8563
X4.1299Y-3.935
X4.1299Y-4.0138
X4.13Y-4.45
X4.13Y-4.525
X4.1669Y-4.4831
X4.1681Y-4.5665
X4.1693Y-4.7201
X4.1697Y-4.6496
X4.185Y-3.98
X4.2Y-4.78
X4.2087Y-2.5256
X4.2106Y-2.2402
X4.2106Y-2.3031
X4.2106Y-2.3819
X4.2106Y-2.4606
X4.2126Y-2.1732
X4.22Y-3.375
X4.22Y-3.47
X4.225Y-4.0138
X4.2283Y-3.8563
X4.2441Y-3.2264
X4.2441Y-3.3051
X4.2913Y-2.4921
X4.3425Y-3.2264
X4.3425Y-3.3051
X4.3602Y-2.1732
X4.3602Y-2.2362
X4.3661Y-2.5256
X4.3681Y-2.4646
X4.4409Y-3.2264
X4.4409Y-3.3051
X4.4587Y-2.1732
X4.4606Y-2.2362
X4.4646Y-2.5276
X4.4665Y-2.4646
X4.5315Y-2.4882
X4.5394Y-3.2264
X4.5394Y-3.3051
X4.555Y-3.84
X4.56Y-3.925
X4.565Y-3.38
X4.565Y-3.49
X4.565Y-4.005
X4.5965Y-2.1693
X4.5965Y-2.2283
X4.5965Y-2.2913
X4.5965Y-2.3701
X4.5965Y-2.4488
X4.5984Y-2.5236
X4.6102Y-3.8445
X4.63Y-3.93
X4.63Y-4.0
X4.7087Y-3.8445
X4.7087Y-3.9232
X4.7087Y-4.002
X4.8071Y-3.8445
X4.8071Y-3.9232
X4.8071Y-4.002
X4.9252Y-3.8406
X4.9252Y-3.9193
X4.9252Y-3.998
X5.0Y-1.9094
X5.0067Y-1.7102
X5.0091Y-1.7866
X5.011Y-2.0244
X5.02Y-1.98
X5.0236Y-3.8406
X5.0236Y-3.9193
X5.0236Y-3.998
X5.0394Y-1.8504
X5.045Y-1.75
X5.075Y-1.705
X5.0764Y-4.4823
X5.0776Y-4.5657
X5.0787Y-1.9094
X5.0787Y-1.9783
X5.0787Y-4.7193
X5.0791Y-4.6488
X5.08Y-4.775
X5.085Y-1.795
X5.122Y-2.0236
X5.122Y-3.8406
X5.122Y-3.9193
X5.122Y-3.998
X5.1551Y-4.4823
X5.1563Y-4.5657
X5.1575Y-4.7193
X5.1579Y-4.6488
X5.16Y-4.775
X5.185Y-2.0236
X5.185Y-2.5256
X5.187Y-2.2402
X5.187Y-2.3031
X5.187Y-2.3819
X5.187Y-2.4606
X5.189Y-2.1732
X5.2Y-3.5
X5.21Y-3.385
X5.2205Y-3.8406
X5.2205Y-3.9193
X5.2205Y-3.998
X5.2264Y-3.2283
X5.2264Y-3.3071
X5.23Y-4.445
X5.26Y-2.025
X5.2677Y-2.4921
X5.3157Y-4.445
X5.3189Y-2.0236
X5.3248Y-3.2283
X5.3248Y-3.3071
X5.3366Y-2.1732
X5.3366Y-2.2362
X5.3425Y-2.5256
X5.3445Y-2.4646
X5.4232Y-3.2283
X5.4232Y-3.3071
X5.435Y-2.1732
X5.437Y-2.2362
X5.4409Y-2.5276
X5.4429Y-2.4646
X5.5039Y-3.8287
X5.5039Y-3.9075
X5.5039Y-3.9862
X5.5118Y-2.4961
X5.5217Y-3.2283
X5.5217Y-3.3071
X5.555Y-3.3858
X5.57Y-3.345
X5.5728Y-2.1693
X5.5728Y-2.2283
X5.5728Y-2.2913
X5.5728Y-2.3701
X5.5728Y-2.4488
X5.5748Y-2.5236
X5.6024Y-3.8287
X5.6024Y-3.9075
X5.6024Y-3.9862
X5.7008Y-3.8287
X5.7008Y-3.9075
X5.7008Y-3.9862
X5.7992Y-3.8287
X5.7992Y-3.9075
X5.7992Y-3.9862
X5.937Y-3.8366
X5.937Y-3.9154
X5.937Y-3.9941
X6.0354Y-3.8366
X6.0354Y-3.9154
X6.0354Y-3.9941
X6.0555Y-4.4898
X6.0567Y-4.5732
X6.0579Y-4.7268
X6.0583Y-4.6563
X6.1339Y-3.8366
X6.1339Y-3.9154
X6.1339Y-3.9941
X6.1343Y-4.4898
X6.1354Y-4.5732
X6.1366Y-4.7268
X6.137Y-4.6563
X6.1535Y-2.5295
X6.1555Y-2.2441
X6.1555Y-2.3071
X6.1555Y-2.3858
X6.1555Y-2.4646
X6.1575Y-2.1772
X6.175Y-3.48
X6.18Y-3.365
X6.2106Y-3.2244
X6.2106Y-3.3031
X6.215Y-4.44
X6.2185Y-4.78
X6.2323Y-3.8366
X6.2323Y-3.9154
X6.2323Y-3.9941
X6.2362Y-2.4961
X6.2949Y-4.44
X6.2972Y-4.78
X6.3051Y-2.1772
X6.3051Y-2.2402
X6.3091Y-3.2244
X6.3091Y-3.3031
X6.311Y-2.5295
X6.313Y-2.4685
X6.4035Y-2.1772
X6.4055Y-2.2402
X6.4075Y-3.2244
X6.4075Y-3.3031
X6.4094Y-2.5315
X6.4114Y-2.4685
X6.4764Y-2.4961
X6.5059Y-3.2244
X6.5059Y-3.3031
X6.5157Y-3.8248
X6.5157Y-3.9035
X6.5157Y-3.9823
X6.53Y-3.485
X6.535Y-3.365
X6.5413Y-2.1732
X6.5413Y-2.2323
X6.5413Y-2.2953
X6.5413Y-2.374
X6.5413Y-2.4528
X6.5433Y-2.5276
X6.6142Y-3.8248
X6.6142Y-3.9035
X6.6142Y-3.9823
X6.7126Y-3.8248
X6.7126Y-3.9035
X6.7126Y-3.9823
X6.811Y-3.8248
X6.811Y-3.9035
X6.811Y-3.9823
T3
X3.3Y-3.7788
X3.3Y-3.8575
X3.3Y-3.9363
X3.3Y-4.015
X3.3Y-4.3538
X3.3Y-4.4325
X3.3Y-4.5113
X3.3Y-4.59
X3.305Y-3.1788
X3.305Y-3.2575
X3.305Y-3.3363
X3.305Y-3.415
T4
X3.295Y-2.09
X3.295Y-2.19
X3.295Y-2.29
X3.295Y-2.39
X3.295Y-2.49
X3.395Y-2.09
X3.395Y-2.19
X3.395Y-2.29
X3.395Y-2.39
X3.395Y-2.49
T5
X4.3346Y-2.324
X4.3346Y-2.8543
X4.4685Y-2.324
X4.4685Y-2.8543
X5.315Y-2.324
X5.315Y-2.8543
X5.4488Y-2.324
X5.4488Y-2.8543
X6.2835Y-2.326
X6.2835Y-2.8563
X6.4173Y-2.326
X6.4173Y-2.8563
T6
X4.2913Y-4.6063
X4.3898Y-3.4646
X4.3898Y-3.6614
X4.3898Y-3.937
X4.3898Y-4.1339
X4.4882Y-4.6063
X5.2756Y-4.6063
X5.374Y-3.937
X5.374Y-4.1339
X5.378Y-3.4646
X5.378Y-3.6614
X5.4724Y-4.6063
X6.2598Y-4.6063
X6.3583Y-3.4646
X6.3583Y-3.6614
X6.3583Y-3.937
X6.3583Y-4.1339
X6.4567Y-4.6063
T7
X5.5157Y-1.8307
T8
X5.2323Y-1.8307
T2
G00X5.1083Y-1.5728
M15
G01X5.1083Y-1.6161
M16
G05
G00X5.6398Y-1.5728
M15
G01X5.6398Y-1.6161
M16
G05
T0
M30
