M48
; DRILL file {KiCad (5.1.10)-1} date 12/17/22 22:46:12
; FORMAT={-:-/ absolute / metric / decimal}
; #@! TF.CreationDate,2022-12-17T22:46:12+05:30
; #@! TF.GenerationSoftware,Kicad,Pcbnew,(5.1.10)-1
; #@! TF.FileFunction,Plated,1,2,PTH
FMAT,2
METRIC
T1C0.400
T2C0.500
T3C0.750
T4C0.900
T5C0.950
T6C1.000
T7C1.016
T8C1.320
T9C1.500
T10C1.600
T11C2.750
T12C3.000
T13C5.000
T14C5.500
%
G90
G05
T1
X227.033Y-207.414
X237.985Y-207.414
T2
X92.128Y-129.653
X92.288Y-127.223
X94.718Y-129.893
X94.798Y-126.993
X97.498Y-127.223
X97.618Y-129.453
X97.678Y-142.293
X97.988Y-147.273
X98.018Y-144.503
X98.098Y-149.413
X99.718Y-142.213
X99.808Y-144.473
X99.918Y-147.323
X100.168Y-128.303
X100.198Y-149.433
X100.688Y-112.253
X100.888Y-110.153
X100.988Y-90.913
X101.148Y-84.293
X102.528Y-112.323
X102.608Y-90.913
X102.628Y-84.313
X102.688Y-110.153
X103.418Y-113.963
X104.128Y-90.943
X104.268Y-84.383
X104.828Y-112.353
X104.858Y-110.153
X105.678Y-90.943
X105.948Y-84.423
X106.298Y-113.993
X107.018Y-112.223
X107.148Y-110.153
X107.268Y-90.983
X107.658Y-84.493
X109.028Y-91.053
X109.178Y-110.223
X109.278Y-112.353
X109.368Y-84.563
X111.028Y-127.183
X111.108Y-129.453
X113.338Y-126.913
X113.818Y-129.613
X115.728Y-128.223
X119.628Y-126.933
X119.828Y-129.183
X120.928Y-78.093
X120.978Y-79.733
X121.008Y-75.013
X121.008Y-76.543
X121.078Y-73.643
X121.128Y-72.203
X121.498Y-126.843
X121.688Y-129.273
X122.468Y-77.983
X122.498Y-75.013
X122.498Y-76.463
X122.498Y-79.693
X122.658Y-73.623
X122.698Y-72.153
X122.898Y-147.133
X122.988Y-142.663
X123.008Y-144.953
X123.038Y-149.313
X123.978Y-126.893
X124.118Y-129.043
X124.798Y-142.723
X124.918Y-144.763
X125.078Y-149.373
X125.168Y-147.243
X125.508Y-127.893
X125.958Y-90.953
X126.118Y-84.693
X126.468Y-110.273
X126.778Y-112.163
X127.368Y-90.923
X127.848Y-84.713
X127.968Y-110.193
X128.678Y-112.113
X128.988Y-90.953
X129.388Y-84.753
X129.648Y-113.763
X130.168Y-110.153
X130.558Y-90.993
X130.848Y-112.053
X131.068Y-84.723
X131.958Y-113.653
X132.338Y-91.023
X132.448Y-110.233
X132.728Y-84.753
X132.848Y-112.063
X133.948Y-91.023
X134.348Y-84.723
X134.808Y-110.193
X134.868Y-112.113
X135.818Y-126.503
X136.008Y-129.233
X136.84Y-185.603
X136.962Y-187.041
X138.108Y-126.843
X138.258Y-129.133
X140.448Y-127.793
X145.318Y-127.033
X145.318Y-129.313
X147.508Y-127.173
X147.558Y-129.623
X147.678Y-146.333
X147.768Y-148.933
X147.788Y-144.123
X147.908Y-142.083
X149.638Y-142.053
X149.638Y-144.213
X149.648Y-126.913
X149.748Y-129.763
X149.778Y-146.533
X149.888Y-148.903
X150.618Y-84.453
X150.658Y-90.513
X151.008Y-112.323
X151.088Y-110.423
X152.538Y-90.593
X152.608Y-112.303
X152.618Y-84.453
X152.938Y-110.453
X154.398Y-112.333
X154.468Y-84.453
X154.468Y-90.673
X154.748Y-113.753
X155.768Y-110.493
X156.438Y-84.493
X156.478Y-113.723
X156.788Y-90.633
X156.988Y-112.193
X158.438Y-84.493
X158.488Y-110.183
X158.798Y-90.673
X159.548Y-112.293
X160.138Y-84.493
X160.208Y-90.713
X160.608Y-110.453
X161.208Y-127.013
X161.408Y-129.453
X163.978Y-126.663
X164.4Y-196.15
X164.628Y-129.483
X166.998Y-127.013
X167.175Y-168.75
X167.348Y-129.553
X169.865Y-177.77
X169.911Y-176.291
X174.097Y-188.514
X178.4Y-103.65
X189.738Y-166.289
X195.798Y-176.291
X196.432Y-187.225
X197.896Y-176.012
X197.988Y-207.513
X200.421Y-175.839
X202.058Y-99.669
X210.043Y-79.339
X210.265Y-103.21
X213.525Y-141.575
X214.332Y-85.317
X218.45Y-99.5
X224.65Y-151.7
X225.8Y-113.35
X227.472Y-111.679
X229.55Y-151.7
X234.752Y-203.622
X235.118Y-126.723
X235.398Y-129.543
X237.448Y-126.513
X237.638Y-129.443
X240.078Y-126.603
X240.408Y-129.283
X241.928Y-148.263
X241.948Y-146.023
X242.068Y-143.993
X242.108Y-142.073
X242.618Y-127.883
X243.738Y-142.033
X243.758Y-144.133
X243.908Y-148.213
X243.978Y-146.043
X244.728Y-110.163
X244.808Y-112.903
X244.938Y-90.563
X245.248Y-84.383
X246.418Y-110.123
X246.418Y-112.663
X246.718Y-90.423
X246.948Y-84.413
X248.408Y-84.373
X248.438Y-110.163
X248.538Y-90.483
X248.678Y-112.703
X249.918Y-110.083
X250.158Y-84.403
X250.498Y-90.423
X250.568Y-112.663
X251.898Y-109.963
X252.208Y-84.403
X252.338Y-112.613
X252.588Y-90.313
X254.128Y-84.403
X254.238Y-112.623
X254.298Y-90.253
X254.348Y-109.923
X254.348Y-126.823
X254.408Y-129.273
X256.588Y-126.653
X256.658Y-129.143
X259.108Y-127.833
X263.758Y-129.303
X263.858Y-127.093
X264.988Y-78.403
X265.008Y-76.023
X265.148Y-72.063
X265.378Y-73.953
X265.698Y-129.403
X265.838Y-126.963
X266.528Y-76.023
X266.548Y-78.363
X266.728Y-73.833
X266.768Y-142.293
X266.768Y-144.223
X266.768Y-148.513
X266.778Y-72.023
X266.788Y-146.323
X267.848Y-127.263
X268.148Y-129.343
X268.608Y-142.293
X268.838Y-144.313
X268.978Y-146.363
X269.008Y-148.563
X269.738Y-84.453
X269.758Y-127.933
X269.878Y-91.023
X269.938Y-110.153
X269.958Y-112.023
X271.308Y-84.363
X271.418Y-90.883
X271.628Y-110.073
X271.718Y-111.963
X273.038Y-84.483
X273.548Y-110.073
X273.668Y-112.053
X273.758Y-90.903
X274.938Y-84.533
X275.548Y-90.993
X275.698Y-110.103
X275.728Y-111.933
X277.118Y-84.483
X277.508Y-90.993
X277.768Y-111.963
X277.818Y-110.043
X278.848Y-84.483
X279.318Y-128.873
X279.348Y-90.743
X279.348Y-126.553
X279.458Y-110.073
X279.488Y-112.103
X281.198Y-126.593
X281.298Y-129.103
X283.918Y-128.063
X289.168Y-126.883
X289.218Y-129.293
X290.818Y-126.843
X290.938Y-129.213
X291.528Y-142.253
X291.558Y-146.043
X291.728Y-144.023
X291.758Y-148.453
X292.798Y-126.803
X292.948Y-129.263
X293.408Y-142.183
X293.608Y-144.163
X293.838Y-146.003
X293.968Y-84.563
X293.978Y-148.483
X294.078Y-91.383
X294.468Y-128.013
X294.508Y-112.293
X294.908Y-110.343
X295.418Y-84.503
X295.838Y-91.213
X296.488Y-110.343
X296.598Y-112.293
X297.148Y-84.393
X298.238Y-91.123
X298.528Y-110.143
X298.608Y-112.323
X299.138Y-84.333
X299.918Y-91.123
X300.528Y-110.313
X300.758Y-112.433
X301.238Y-84.303
X302.298Y-91.183
X302.458Y-112.323
X302.488Y-110.313
X303.158Y-84.283
X303.858Y-91.013
X304.038Y-112.123
X304.288Y-110.313
X304.858Y-126.633
X304.958Y-129.773
X307.328Y-126.883
X307.728Y-129.953
X310.388Y-126.653
X310.668Y-129.873
T3
X183.358Y-139.103
X183.358Y-141.103
X183.358Y-143.103
X183.358Y-145.103
X183.368Y-124.483
X183.368Y-126.483
X183.368Y-128.483
X183.368Y-130.483
X183.488Y-109.253
X183.488Y-111.253
X183.488Y-113.253
X183.488Y-115.253
X221.698Y-124.513
X221.698Y-126.513
X221.698Y-128.513
X221.698Y-130.513
X221.698Y-139.113
X221.698Y-141.113
X221.698Y-143.113
X221.698Y-145.113
X221.818Y-109.273
X221.818Y-111.273
X221.818Y-113.273
X221.818Y-115.273
T4
X110.439Y-191.445
X110.439Y-193.985
X128.473Y-188.905
X128.473Y-191.445
X128.473Y-193.985
X128.473Y-196.525
T5
X111.978Y-173.66
X114.478Y-173.66
X116.978Y-173.66
X119.478Y-173.66
X121.978Y-173.66
X124.478Y-173.66
X126.978Y-173.66
X129.478Y-173.66
T6
X142.814Y-180.624
X142.814Y-208.564
X145.354Y-180.624
X145.354Y-208.564
X147.894Y-180.624
X147.894Y-208.564
X150.434Y-180.624
X150.434Y-208.564
X152.974Y-180.624
X152.974Y-208.564
X155.514Y-180.624
X155.514Y-208.564
X158.054Y-180.624
X158.054Y-208.564
X160.594Y-180.624
X160.594Y-208.564
X163.134Y-180.624
X163.134Y-208.564
X165.674Y-180.624
X165.674Y-208.564
X168.214Y-180.624
X168.214Y-208.564
X170.754Y-180.624
X170.754Y-208.564
X173.294Y-180.624
X173.294Y-208.564
X175.834Y-180.624
X175.834Y-208.564
X178.374Y-180.624
X178.374Y-208.564
X180.914Y-180.624
X180.914Y-208.564
X183.454Y-180.624
X183.454Y-208.564
X185.994Y-180.624
X185.994Y-208.564
X188.534Y-180.624
X188.534Y-208.564
X193.228Y-153.233
X193.228Y-155.773
X193.228Y-158.313
X200.578Y-153.133
X200.578Y-155.673
X200.578Y-158.213
X206.978Y-153.033
X206.978Y-155.573
X206.978Y-158.113
X213.218Y-152.923
X213.218Y-155.463
X213.218Y-158.003
X223.83Y-165.451
X223.83Y-167.991
X223.83Y-170.531
X223.83Y-173.071
X223.83Y-175.611
X223.83Y-178.151
X223.83Y-180.691
X223.83Y-183.231
X223.83Y-185.771
X223.83Y-188.311
X223.83Y-190.851
X223.83Y-193.391
X223.83Y-195.931
X223.83Y-198.471
X223.83Y-201.011
X223.83Y-203.551
X223.83Y-206.091
X223.83Y-208.631
X223.83Y-211.171
X223.83Y-213.711
X305.714Y-165.476
X305.714Y-168.016
X305.714Y-170.556
X305.714Y-173.096
X305.714Y-175.636
X305.714Y-178.176
X305.714Y-180.716
X305.714Y-183.256
X305.714Y-185.796
X305.714Y-188.336
X305.714Y-190.876
X305.714Y-193.416
X305.714Y-195.956
X305.714Y-198.496
X305.714Y-201.036
X305.714Y-203.576
X305.714Y-206.116
X305.714Y-208.656
X305.714Y-211.196
X305.714Y-213.736
T7
X241.36Y-165.396
X241.36Y-167.936
X241.36Y-170.476
X241.36Y-173.016
X241.36Y-175.556
X241.36Y-178.096
X241.36Y-180.636
X241.36Y-183.176
X241.36Y-185.716
X241.36Y-188.256
X241.36Y-190.796
X241.36Y-193.336
X241.36Y-195.876
X241.36Y-198.416
X241.36Y-200.956
X241.36Y-203.496
X241.36Y-206.036
X241.36Y-208.576
X241.36Y-211.116
X241.36Y-213.656
X243.9Y-165.396
X243.9Y-167.936
X243.9Y-170.476
X243.9Y-173.016
X243.9Y-175.556
X243.9Y-178.096
X243.9Y-180.636
X243.9Y-183.176
X243.9Y-185.716
X243.9Y-188.256
X243.9Y-190.796
X243.9Y-193.336
X243.9Y-195.876
X243.9Y-198.416
X243.9Y-200.956
X243.9Y-203.496
X243.9Y-206.036
X243.9Y-208.576
X243.9Y-211.116
X243.9Y-213.656
T8
X96.32Y-198.92
X96.32Y-203.92
X96.32Y-208.92
T9
X96.94Y-164.57
X96.94Y-169.57
X175.712Y-91.821
X175.727Y-74.265
X180.712Y-91.821
X180.727Y-74.265
X201.041Y-219.426
X206.041Y-219.426
X225.369Y-92.735
X225.552Y-75.789
X230.369Y-92.735
X230.552Y-75.789
T10
X104.118Y-87.683
X104.118Y-101.153
X107.518Y-87.683
X107.518Y-101.153
X129.008Y-87.683
X129.008Y-101.153
X132.408Y-87.683
X132.408Y-101.153
X153.628Y-87.733
X153.628Y-101.203
X157.028Y-87.733
X157.028Y-101.203
X247.978Y-87.583
X247.978Y-101.053
X251.378Y-87.583
X251.378Y-101.053
X272.888Y-87.563
X272.888Y-101.033
X276.288Y-87.563
X276.288Y-101.033
X297.478Y-87.613
X297.478Y-101.083
X300.878Y-87.613
X300.878Y-101.083
T11
X242.63Y-160.526
X242.63Y-218.526
X291.63Y-160.526
X291.63Y-218.526
T12
X103.018Y-145.673
X105.518Y-116.653
X105.518Y-121.653
X105.518Y-128.653
X105.518Y-133.653
X108.018Y-145.673
X128.018Y-145.653
X130.508Y-128.643
X130.508Y-133.643
X130.618Y-116.653
X130.618Y-121.653
X133.018Y-145.653
X153.018Y-145.653
X155.518Y-116.653
X155.518Y-121.653
X155.518Y-128.653
X155.518Y-133.653
X158.018Y-145.653
X246.878Y-145.443
X249.378Y-116.533
X249.378Y-121.533
X249.378Y-128.513
X249.378Y-133.513
X251.878Y-145.443
X271.868Y-145.523
X274.378Y-128.543
X274.378Y-133.543
X274.458Y-116.533
X274.458Y-121.533
X276.868Y-145.523
X296.868Y-145.533
X299.368Y-116.533
X299.368Y-121.533
X299.378Y-128.533
X299.378Y-133.533
X301.868Y-145.533
T13
X97.87Y-180.75
X134.128Y-75.143
X277.978Y-75.033
T14
X97.87Y-187.95
X126.928Y-75.143
X270.778Y-75.033
T0
M30
