G04 #@! TF.GenerationSoftware,KiCad,Pcbnew,(5.1.10)-1*
G04 #@! TF.CreationDate,2022-12-17T23:06:12+05:30*
G04 #@! TF.ProjectId,2023 control pcb,32303233-2063-46f6-9e74-726f6c207063,rev?*
G04 #@! TF.SameCoordinates,Original*
G04 #@! TF.FileFunction,Legend,Top*
G04 #@! TF.FilePolarity,Positive*
%FSLAX46Y46*%
G04 Gerber Fmt 4.6, Leading zero omitted, Abs format (unit mm)*
G04 Created by KiCad (PCBNEW (5.1.10)-1) date 2022-12-17 23:06:12*
%MOMM*%
%LPD*%
G01*
G04 APERTURE LIST*
%ADD10C,0.150000*%
%ADD11C,0.120000*%
%ADD12C,0.010000*%
%ADD13C,0.100000*%
%ADD14C,0.127000*%
%ADD15C,0.254000*%
G04 APERTURE END LIST*
D10*
X105374761Y-165554761D02*
X105422380Y-165459523D01*
X105422380Y-165269047D01*
X105374761Y-165173809D01*
X105279523Y-165126190D01*
X105231904Y-165126190D01*
X105136666Y-165173809D01*
X105089047Y-165269047D01*
X105089047Y-165411904D01*
X105041428Y-165507142D01*
X104946190Y-165554761D01*
X104898571Y-165554761D01*
X104803333Y-165507142D01*
X104755714Y-165411904D01*
X104755714Y-165269047D01*
X104803333Y-165173809D01*
X105374761Y-164269047D02*
X105422380Y-164364285D01*
X105422380Y-164554761D01*
X105374761Y-164650000D01*
X105327142Y-164697619D01*
X105231904Y-164745238D01*
X104946190Y-164745238D01*
X104850952Y-164697619D01*
X104803333Y-164650000D01*
X104755714Y-164554761D01*
X104755714Y-164364285D01*
X104803333Y-164269047D01*
X105422380Y-163697619D02*
X105374761Y-163792857D01*
X105279523Y-163840476D01*
X104422380Y-163840476D01*
X105354761Y-170869047D02*
X105402380Y-170773809D01*
X105402380Y-170583333D01*
X105354761Y-170488095D01*
X105259523Y-170440476D01*
X105211904Y-170440476D01*
X105116666Y-170488095D01*
X105069047Y-170583333D01*
X105069047Y-170726190D01*
X105021428Y-170821428D01*
X104926190Y-170869047D01*
X104878571Y-170869047D01*
X104783333Y-170821428D01*
X104735714Y-170726190D01*
X104735714Y-170583333D01*
X104783333Y-170488095D01*
X105402380Y-169583333D02*
X104402380Y-169583333D01*
X105354761Y-169583333D02*
X105402380Y-169678571D01*
X105402380Y-169869047D01*
X105354761Y-169964285D01*
X105307142Y-170011904D01*
X105211904Y-170059523D01*
X104926190Y-170059523D01*
X104830952Y-170011904D01*
X104783333Y-169964285D01*
X104735714Y-169869047D01*
X104735714Y-169678571D01*
X104783333Y-169583333D01*
X105402380Y-168678571D02*
X104878571Y-168678571D01*
X104783333Y-168726190D01*
X104735714Y-168821428D01*
X104735714Y-169011904D01*
X104783333Y-169107142D01*
X105354761Y-168678571D02*
X105402380Y-168773809D01*
X105402380Y-169011904D01*
X105354761Y-169107142D01*
X105259523Y-169154761D01*
X105164285Y-169154761D01*
X105069047Y-169107142D01*
X105021428Y-169011904D01*
X105021428Y-168773809D01*
X104973809Y-168678571D01*
X104722380Y-191140476D02*
X104722380Y-191616666D01*
X105198571Y-191664285D01*
X105150952Y-191616666D01*
X105103333Y-191521428D01*
X105103333Y-191283333D01*
X105150952Y-191188095D01*
X105198571Y-191140476D01*
X105293809Y-191092857D01*
X105531904Y-191092857D01*
X105627142Y-191140476D01*
X105674761Y-191188095D01*
X105722380Y-191283333D01*
X105722380Y-191521428D01*
X105674761Y-191616666D01*
X105627142Y-191664285D01*
X104722380Y-190807142D02*
X105722380Y-190473809D01*
X104722380Y-190140476D01*
X118700000Y-176752380D02*
X118223809Y-176752380D01*
X118223809Y-175752380D01*
X118985714Y-175847619D02*
X119033333Y-175800000D01*
X119128571Y-175752380D01*
X119366666Y-175752380D01*
X119461904Y-175800000D01*
X119509523Y-175847619D01*
X119557142Y-175942857D01*
X119557142Y-176038095D01*
X119509523Y-176180952D01*
X118938095Y-176752380D01*
X119557142Y-176752380D01*
X120033333Y-176704761D02*
X120033333Y-176752380D01*
X119985714Y-176847619D01*
X119938095Y-176895238D01*
X120938095Y-176752380D02*
X120461904Y-176752380D01*
X120461904Y-175752380D01*
X121795238Y-176752380D02*
X121223809Y-176752380D01*
X121509523Y-176752380D02*
X121509523Y-175752380D01*
X121414285Y-175895238D01*
X121319047Y-175990476D01*
X121223809Y-176038095D01*
X122271428Y-176704761D02*
X122271428Y-176752380D01*
X122223809Y-176847619D01*
X122176190Y-176895238D01*
X122652380Y-176704761D02*
X122795238Y-176752380D01*
X123033333Y-176752380D01*
X123128571Y-176704761D01*
X123176190Y-176657142D01*
X123223809Y-176561904D01*
X123223809Y-176466666D01*
X123176190Y-176371428D01*
X123128571Y-176323809D01*
X123033333Y-176276190D01*
X122842857Y-176228571D01*
X122747619Y-176180952D01*
X122700000Y-176133333D01*
X122652380Y-176038095D01*
X122652380Y-175942857D01*
X122700000Y-175847619D01*
X122747619Y-175800000D01*
X122842857Y-175752380D01*
X123080952Y-175752380D01*
X123223809Y-175800000D01*
X105547142Y-199577619D02*
X105594761Y-199625238D01*
X105642380Y-199768095D01*
X105642380Y-199863333D01*
X105594761Y-200006190D01*
X105499523Y-200101428D01*
X105404285Y-200149047D01*
X105213809Y-200196666D01*
X105070952Y-200196666D01*
X104880476Y-200149047D01*
X104785238Y-200101428D01*
X104690000Y-200006190D01*
X104642380Y-199863333D01*
X104642380Y-199768095D01*
X104690000Y-199625238D01*
X104737619Y-199577619D01*
X105356666Y-199196666D02*
X105356666Y-198720476D01*
X105642380Y-199291904D02*
X104642380Y-198958571D01*
X105642380Y-198625238D01*
X105642380Y-198291904D02*
X104642380Y-198291904D01*
X105642380Y-197720476D01*
X104642380Y-197720476D01*
X105642380Y-196768095D02*
X105642380Y-197244285D01*
X104642380Y-197244285D01*
X105667142Y-205236666D02*
X105714761Y-205284285D01*
X105762380Y-205427142D01*
X105762380Y-205522380D01*
X105714761Y-205665238D01*
X105619523Y-205760476D01*
X105524285Y-205808095D01*
X105333809Y-205855714D01*
X105190952Y-205855714D01*
X105000476Y-205808095D01*
X104905238Y-205760476D01*
X104810000Y-205665238D01*
X104762380Y-205522380D01*
X104762380Y-205427142D01*
X104810000Y-205284285D01*
X104857619Y-205236666D01*
X105476666Y-204855714D02*
X105476666Y-204379523D01*
X105762380Y-204950952D02*
X104762380Y-204617619D01*
X105762380Y-204284285D01*
X105762380Y-203950952D02*
X104762380Y-203950952D01*
X105762380Y-203379523D01*
X104762380Y-203379523D01*
X105762380Y-202903333D02*
X104762380Y-202903333D01*
X105238571Y-202903333D02*
X105238571Y-202331904D01*
X105762380Y-202331904D02*
X104762380Y-202331904D01*
X196454761Y-220761904D02*
X196502380Y-220619047D01*
X196502380Y-220380952D01*
X196454761Y-220285714D01*
X196407142Y-220238095D01*
X196311904Y-220190476D01*
X196216666Y-220190476D01*
X196121428Y-220238095D01*
X196073809Y-220285714D01*
X196026190Y-220380952D01*
X195978571Y-220571428D01*
X195930952Y-220666666D01*
X195883333Y-220714285D01*
X195788095Y-220761904D01*
X195692857Y-220761904D01*
X195597619Y-220714285D01*
X195550000Y-220666666D01*
X195502380Y-220571428D01*
X195502380Y-220333333D01*
X195550000Y-220190476D01*
X195502380Y-219904761D02*
X195502380Y-219333333D01*
X196502380Y-219619047D02*
X195502380Y-219619047D01*
X195502380Y-218809523D02*
X195502380Y-218619047D01*
X195550000Y-218523809D01*
X195645238Y-218428571D01*
X195835714Y-218380952D01*
X196169047Y-218380952D01*
X196359523Y-218428571D01*
X196454761Y-218523809D01*
X196502380Y-218619047D01*
X196502380Y-218809523D01*
X196454761Y-218904761D01*
X196359523Y-219000000D01*
X196169047Y-219047619D01*
X195835714Y-219047619D01*
X195645238Y-219000000D01*
X195550000Y-218904761D01*
X195502380Y-218809523D01*
X195502380Y-218047619D02*
X196502380Y-217809523D01*
X195788095Y-217619047D01*
X196502380Y-217428571D01*
X195502380Y-217190476D01*
X162832142Y-193978571D02*
X163165476Y-193978571D01*
X163308333Y-194502380D02*
X162832142Y-194502380D01*
X162832142Y-193502380D01*
X163308333Y-193502380D01*
X163689285Y-194454761D02*
X163832142Y-194502380D01*
X164070238Y-194502380D01*
X164165476Y-194454761D01*
X164213095Y-194407142D01*
X164260714Y-194311904D01*
X164260714Y-194216666D01*
X164213095Y-194121428D01*
X164165476Y-194073809D01*
X164070238Y-194026190D01*
X163879761Y-193978571D01*
X163784523Y-193930952D01*
X163736904Y-193883333D01*
X163689285Y-193788095D01*
X163689285Y-193692857D01*
X163736904Y-193597619D01*
X163784523Y-193550000D01*
X163879761Y-193502380D01*
X164117857Y-193502380D01*
X164260714Y-193550000D01*
X164689285Y-194502380D02*
X164689285Y-193502380D01*
X165070238Y-193502380D01*
X165165476Y-193550000D01*
X165213095Y-193597619D01*
X165260714Y-193692857D01*
X165260714Y-193835714D01*
X165213095Y-193930952D01*
X165165476Y-193978571D01*
X165070238Y-194026190D01*
X164689285Y-194026190D01*
X165594047Y-193502380D02*
X166213095Y-193502380D01*
X165879761Y-193883333D01*
X166022619Y-193883333D01*
X166117857Y-193930952D01*
X166165476Y-193978571D01*
X166213095Y-194073809D01*
X166213095Y-194311904D01*
X166165476Y-194407142D01*
X166117857Y-194454761D01*
X166022619Y-194502380D01*
X165736904Y-194502380D01*
X165641666Y-194454761D01*
X165594047Y-194407142D01*
X166594047Y-193597619D02*
X166641666Y-193550000D01*
X166736904Y-193502380D01*
X166975000Y-193502380D01*
X167070238Y-193550000D01*
X167117857Y-193597619D01*
X167165476Y-193692857D01*
X167165476Y-193788095D01*
X167117857Y-193930952D01*
X166546428Y-194502380D01*
X167165476Y-194502380D01*
X211995190Y-102270820D02*
X211995190Y-101270820D01*
X212233285Y-101270820D01*
X212376142Y-101318440D01*
X212471380Y-101413678D01*
X212519000Y-101508916D01*
X212566619Y-101699392D01*
X212566619Y-101842249D01*
X212519000Y-102032725D01*
X212471380Y-102127963D01*
X212376142Y-102223201D01*
X212233285Y-102270820D01*
X211995190Y-102270820D01*
X212995190Y-102270820D02*
X212995190Y-101270820D01*
X214042809Y-102270820D02*
X213709476Y-101794630D01*
X213471380Y-102270820D02*
X213471380Y-101270820D01*
X213852333Y-101270820D01*
X213947571Y-101318440D01*
X213995190Y-101366059D01*
X214042809Y-101461297D01*
X214042809Y-101604154D01*
X213995190Y-101699392D01*
X213947571Y-101747011D01*
X213852333Y-101794630D01*
X213471380Y-101794630D01*
X215804714Y-102270820D02*
X215471380Y-101794630D01*
X215233285Y-102270820D02*
X215233285Y-101270820D01*
X215614238Y-101270820D01*
X215709476Y-101318440D01*
X215757095Y-101366059D01*
X215804714Y-101461297D01*
X215804714Y-101604154D01*
X215757095Y-101699392D01*
X215709476Y-101747011D01*
X215614238Y-101794630D01*
X215233285Y-101794630D01*
X216233285Y-102270820D02*
X216233285Y-101270820D01*
X217233285Y-101318440D02*
X217138047Y-101270820D01*
X216995190Y-101270820D01*
X216852333Y-101318440D01*
X216757095Y-101413678D01*
X216709476Y-101508916D01*
X216661857Y-101699392D01*
X216661857Y-101842249D01*
X216709476Y-102032725D01*
X216757095Y-102127963D01*
X216852333Y-102223201D01*
X216995190Y-102270820D01*
X217090428Y-102270820D01*
X217233285Y-102223201D01*
X217280904Y-102175582D01*
X217280904Y-101842249D01*
X217090428Y-101842249D01*
X217709476Y-102270820D02*
X217709476Y-101270820D01*
X217709476Y-101747011D02*
X218280904Y-101747011D01*
X218280904Y-102270820D02*
X218280904Y-101270820D01*
X218614238Y-101270820D02*
X219185666Y-101270820D01*
X218899952Y-102270820D02*
X218899952Y-101270820D01*
X189001780Y-102438460D02*
X189001780Y-101438460D01*
X189239876Y-101438460D01*
X189382733Y-101486080D01*
X189477971Y-101581318D01*
X189525590Y-101676556D01*
X189573209Y-101867032D01*
X189573209Y-102009889D01*
X189525590Y-102200365D01*
X189477971Y-102295603D01*
X189382733Y-102390841D01*
X189239876Y-102438460D01*
X189001780Y-102438460D01*
X190001780Y-102438460D02*
X190001780Y-101438460D01*
X191049400Y-102438460D02*
X190716066Y-101962270D01*
X190477971Y-102438460D02*
X190477971Y-101438460D01*
X190858923Y-101438460D01*
X190954161Y-101486080D01*
X191001780Y-101533699D01*
X191049400Y-101628937D01*
X191049400Y-101771794D01*
X191001780Y-101867032D01*
X190954161Y-101914651D01*
X190858923Y-101962270D01*
X190477971Y-101962270D01*
X192716066Y-102438460D02*
X192239876Y-102438460D01*
X192239876Y-101438460D01*
X193049400Y-101914651D02*
X193382733Y-101914651D01*
X193525590Y-102438460D02*
X193049400Y-102438460D01*
X193049400Y-101438460D01*
X193525590Y-101438460D01*
X194287495Y-101914651D02*
X193954161Y-101914651D01*
X193954161Y-102438460D02*
X193954161Y-101438460D01*
X194430352Y-101438460D01*
X194668447Y-101438460D02*
X195239876Y-101438460D01*
X194954161Y-102438460D02*
X194954161Y-101438460D01*
X206723788Y-78598020D02*
X206723788Y-77598020D01*
X207104740Y-77598020D01*
X207199979Y-77645640D01*
X207247598Y-77693259D01*
X207295217Y-77788497D01*
X207295217Y-77931354D01*
X207247598Y-78026592D01*
X207199979Y-78074211D01*
X207104740Y-78121830D01*
X206723788Y-78121830D01*
X207628550Y-77598020D02*
X207866645Y-78598020D01*
X208057121Y-77883735D01*
X208247598Y-78598020D01*
X208485693Y-77598020D01*
X208866645Y-78598020D02*
X208866645Y-77598020D01*
X209199979Y-78312306D01*
X209533312Y-77598020D01*
X209533312Y-78598020D01*
X211342836Y-78598020D02*
X211009502Y-78121830D01*
X210771407Y-78598020D02*
X210771407Y-77598020D01*
X211152360Y-77598020D01*
X211247598Y-77645640D01*
X211295217Y-77693259D01*
X211342836Y-77788497D01*
X211342836Y-77931354D01*
X211295217Y-78026592D01*
X211247598Y-78074211D01*
X211152360Y-78121830D01*
X210771407Y-78121830D01*
X211771407Y-78598020D02*
X211771407Y-77598020D01*
X212771407Y-77645640D02*
X212676169Y-77598020D01*
X212533312Y-77598020D01*
X212390455Y-77645640D01*
X212295217Y-77740878D01*
X212247598Y-77836116D01*
X212199979Y-78026592D01*
X212199979Y-78169449D01*
X212247598Y-78359925D01*
X212295217Y-78455163D01*
X212390455Y-78550401D01*
X212533312Y-78598020D01*
X212628550Y-78598020D01*
X212771407Y-78550401D01*
X212819026Y-78502782D01*
X212819026Y-78169449D01*
X212628550Y-78169449D01*
X213247598Y-78598020D02*
X213247598Y-77598020D01*
X213247598Y-78074211D02*
X213819026Y-78074211D01*
X213819026Y-78598020D02*
X213819026Y-77598020D01*
X214152360Y-77598020D02*
X214723788Y-77598020D01*
X214438074Y-78598020D02*
X214438074Y-77598020D01*
X190151499Y-78775820D02*
X190151499Y-77775820D01*
X190532451Y-77775820D01*
X190627689Y-77823440D01*
X190675308Y-77871059D01*
X190722927Y-77966297D01*
X190722927Y-78109154D01*
X190675308Y-78204392D01*
X190627689Y-78252011D01*
X190532451Y-78299630D01*
X190151499Y-78299630D01*
X191056260Y-77775820D02*
X191294356Y-78775820D01*
X191484832Y-78061535D01*
X191675308Y-78775820D01*
X191913403Y-77775820D01*
X192294356Y-78775820D02*
X192294356Y-77775820D01*
X192627689Y-78490106D01*
X192961022Y-77775820D01*
X192961022Y-78775820D01*
X194675308Y-78775820D02*
X194199118Y-78775820D01*
X194199118Y-77775820D01*
X195008641Y-78252011D02*
X195341975Y-78252011D01*
X195484832Y-78775820D02*
X195008641Y-78775820D01*
X195008641Y-77775820D01*
X195484832Y-77775820D01*
X196246737Y-78252011D02*
X195913403Y-78252011D01*
X195913403Y-78775820D02*
X195913403Y-77775820D01*
X196389594Y-77775820D01*
X196627689Y-77775820D02*
X197199118Y-77775820D01*
X196913403Y-78775820D02*
X196913403Y-77775820D01*
D11*
X214868000Y-90853000D02*
G75*
G03*
X214868000Y-90853000I-12130115J0D01*
G01*
X190988000Y-161453000D02*
X215188000Y-161323000D01*
X191108000Y-150523000D02*
X214478000Y-150443000D01*
D10*
X200370857Y-163265380D02*
X200037523Y-162789190D01*
X199799428Y-163265380D02*
X199799428Y-162265380D01*
X200180380Y-162265380D01*
X200275619Y-162313000D01*
X200323238Y-162360619D01*
X200370857Y-162455857D01*
X200370857Y-162598714D01*
X200323238Y-162693952D01*
X200275619Y-162741571D01*
X200180380Y-162789190D01*
X199799428Y-162789190D01*
X200799428Y-163265380D02*
X200799428Y-162265380D01*
X201180380Y-162265380D01*
X201275619Y-162313000D01*
X201323238Y-162360619D01*
X201370857Y-162455857D01*
X201370857Y-162598714D01*
X201323238Y-162693952D01*
X201275619Y-162741571D01*
X201180380Y-162789190D01*
X200799428Y-162789190D01*
X201799428Y-163265380D02*
X201799428Y-162265380D01*
X203037523Y-163265380D02*
X203037523Y-162265380D01*
X203370857Y-162979666D01*
X203704190Y-162265380D01*
X203704190Y-163265380D01*
X204370857Y-162265380D02*
X204561333Y-162265380D01*
X204656571Y-162313000D01*
X204751809Y-162408238D01*
X204799428Y-162598714D01*
X204799428Y-162932047D01*
X204751809Y-163122523D01*
X204656571Y-163217761D01*
X204561333Y-163265380D01*
X204370857Y-163265380D01*
X204275619Y-163217761D01*
X204180380Y-163122523D01*
X204132761Y-162932047D01*
X204132761Y-162598714D01*
X204180380Y-162408238D01*
X204275619Y-162313000D01*
X204370857Y-162265380D01*
X205228000Y-163265380D02*
X205228000Y-162265380D01*
X205466095Y-162265380D01*
X205608952Y-162313000D01*
X205704190Y-162408238D01*
X205751809Y-162503476D01*
X205799428Y-162693952D01*
X205799428Y-162836809D01*
X205751809Y-163027285D01*
X205704190Y-163122523D01*
X205608952Y-163217761D01*
X205466095Y-163265380D01*
X205228000Y-163265380D01*
X206228000Y-162741571D02*
X206561333Y-162741571D01*
X206704190Y-163265380D02*
X206228000Y-163265380D01*
X206228000Y-162265380D01*
X206704190Y-162265380D01*
X199548952Y-148711571D02*
X199882285Y-148711571D01*
X200025142Y-149235380D02*
X199548952Y-149235380D01*
X199548952Y-148235380D01*
X200025142Y-148235380D01*
X200406095Y-149187761D02*
X200548952Y-149235380D01*
X200787047Y-149235380D01*
X200882285Y-149187761D01*
X200929904Y-149140142D01*
X200977523Y-149044904D01*
X200977523Y-148949666D01*
X200929904Y-148854428D01*
X200882285Y-148806809D01*
X200787047Y-148759190D01*
X200596571Y-148711571D01*
X200501333Y-148663952D01*
X200453714Y-148616333D01*
X200406095Y-148521095D01*
X200406095Y-148425857D01*
X200453714Y-148330619D01*
X200501333Y-148283000D01*
X200596571Y-148235380D01*
X200834666Y-148235380D01*
X200977523Y-148283000D01*
X201406095Y-149235380D02*
X201406095Y-148235380D01*
X201787047Y-148235380D01*
X201882285Y-148283000D01*
X201929904Y-148330619D01*
X201977523Y-148425857D01*
X201977523Y-148568714D01*
X201929904Y-148663952D01*
X201882285Y-148711571D01*
X201787047Y-148759190D01*
X201406095Y-148759190D01*
X203168000Y-149235380D02*
X203168000Y-148235380D01*
X203501333Y-148949666D01*
X203834666Y-148235380D01*
X203834666Y-149235380D01*
X204501333Y-148235380D02*
X204691809Y-148235380D01*
X204787047Y-148283000D01*
X204882285Y-148378238D01*
X204929904Y-148568714D01*
X204929904Y-148902047D01*
X204882285Y-149092523D01*
X204787047Y-149187761D01*
X204691809Y-149235380D01*
X204501333Y-149235380D01*
X204406095Y-149187761D01*
X204310857Y-149092523D01*
X204263238Y-148902047D01*
X204263238Y-148568714D01*
X204310857Y-148378238D01*
X204406095Y-148283000D01*
X204501333Y-148235380D01*
X205358476Y-149235380D02*
X205358476Y-148235380D01*
X205596571Y-148235380D01*
X205739428Y-148283000D01*
X205834666Y-148378238D01*
X205882285Y-148473476D01*
X205929904Y-148663952D01*
X205929904Y-148806809D01*
X205882285Y-148997285D01*
X205834666Y-149092523D01*
X205739428Y-149187761D01*
X205596571Y-149235380D01*
X205358476Y-149235380D01*
X206358476Y-148711571D02*
X206691809Y-148711571D01*
X206834666Y-149235380D02*
X206358476Y-149235380D01*
X206358476Y-148235380D01*
X206834666Y-148235380D01*
X313206571Y-195825857D02*
X312492285Y-196325857D01*
X313206571Y-196683000D02*
X311706571Y-196683000D01*
X311706571Y-196111571D01*
X311778000Y-195968714D01*
X311849428Y-195897285D01*
X311992285Y-195825857D01*
X312206571Y-195825857D01*
X312349428Y-195897285D01*
X312420857Y-195968714D01*
X312492285Y-196111571D01*
X312492285Y-196683000D01*
X312778000Y-195254428D02*
X312778000Y-194540142D01*
X313206571Y-195397285D02*
X311706571Y-194897285D01*
X313206571Y-194397285D01*
X313135142Y-193968714D02*
X313206571Y-193754428D01*
X313206571Y-193397285D01*
X313135142Y-193254428D01*
X313063714Y-193183000D01*
X312920857Y-193111571D01*
X312778000Y-193111571D01*
X312635142Y-193183000D01*
X312563714Y-193254428D01*
X312492285Y-193397285D01*
X312420857Y-193683000D01*
X312349428Y-193825857D01*
X312278000Y-193897285D01*
X312135142Y-193968714D01*
X311992285Y-193968714D01*
X311849428Y-193897285D01*
X311778000Y-193825857D01*
X311706571Y-193683000D01*
X311706571Y-193325857D01*
X311778000Y-193111571D01*
X312420857Y-191968714D02*
X312492285Y-191754428D01*
X312563714Y-191683000D01*
X312706571Y-191611571D01*
X312920857Y-191611571D01*
X313063714Y-191683000D01*
X313135142Y-191754428D01*
X313206571Y-191897285D01*
X313206571Y-192468714D01*
X311706571Y-192468714D01*
X311706571Y-191968714D01*
X311778000Y-191825857D01*
X311849428Y-191754428D01*
X311992285Y-191683000D01*
X312135142Y-191683000D01*
X312278000Y-191754428D01*
X312349428Y-191825857D01*
X312420857Y-191968714D01*
X312420857Y-192468714D01*
X312420857Y-190968714D02*
X312420857Y-190468714D01*
X313206571Y-190254428D02*
X313206571Y-190968714D01*
X311706571Y-190968714D01*
X311706571Y-190254428D01*
X313206571Y-188754428D02*
X312492285Y-189254428D01*
X313206571Y-189611571D02*
X311706571Y-189611571D01*
X311706571Y-189040142D01*
X311778000Y-188897285D01*
X311849428Y-188825857D01*
X311992285Y-188754428D01*
X312206571Y-188754428D01*
X312349428Y-188825857D01*
X312420857Y-188897285D01*
X312492285Y-189040142D01*
X312492285Y-189611571D01*
X313206571Y-187254428D02*
X312492285Y-187754428D01*
X313206571Y-188111571D02*
X311706571Y-188111571D01*
X311706571Y-187540142D01*
X311778000Y-187397285D01*
X311849428Y-187325857D01*
X311992285Y-187254428D01*
X312206571Y-187254428D01*
X312349428Y-187325857D01*
X312420857Y-187397285D01*
X312492285Y-187540142D01*
X312492285Y-188111571D01*
X312492285Y-186325857D02*
X313206571Y-186325857D01*
X311706571Y-186825857D02*
X312492285Y-186325857D01*
X311706571Y-185825857D01*
X313206571Y-184183000D02*
X311706571Y-184183000D01*
X311706571Y-183611571D01*
X311778000Y-183468714D01*
X311849428Y-183397285D01*
X311992285Y-183325857D01*
X312206571Y-183325857D01*
X312349428Y-183397285D01*
X312420857Y-183468714D01*
X312492285Y-183611571D01*
X312492285Y-184183000D01*
X313206571Y-182683000D02*
X311706571Y-182683000D01*
X296056095Y-150445380D02*
X296056095Y-149445380D01*
X296389428Y-150159666D01*
X296722761Y-149445380D01*
X296722761Y-150445380D01*
X297151333Y-150159666D02*
X297627523Y-150159666D01*
X297056095Y-150445380D02*
X297389428Y-149445380D01*
X297722761Y-150445380D01*
X295250380Y-129464904D02*
X294250380Y-129464904D01*
X294964666Y-129131571D01*
X294250380Y-128798238D01*
X295250380Y-128798238D01*
X294964666Y-128369666D02*
X294964666Y-127893476D01*
X295250380Y-128464904D02*
X294250380Y-128131571D01*
X295250380Y-127798238D01*
X270170380Y-129454904D02*
X269170380Y-129454904D01*
X269884666Y-129121571D01*
X269170380Y-128788238D01*
X270170380Y-128788238D01*
X269884666Y-128359666D02*
X269884666Y-127883476D01*
X270170380Y-128454904D02*
X269170380Y-128121571D01*
X270170380Y-127788238D01*
X245240380Y-129164904D02*
X244240380Y-129164904D01*
X244954666Y-128831571D01*
X244240380Y-128498238D01*
X245240380Y-128498238D01*
X244954666Y-128069666D02*
X244954666Y-127593476D01*
X245240380Y-128164904D02*
X244240380Y-127831571D01*
X245240380Y-127498238D01*
X152356095Y-150655380D02*
X152356095Y-149655380D01*
X152689428Y-150369666D01*
X153022761Y-149655380D01*
X153022761Y-150655380D01*
X153451333Y-150369666D02*
X153927523Y-150369666D01*
X153356095Y-150655380D02*
X153689428Y-149655380D01*
X154022761Y-150655380D01*
X151330380Y-129354904D02*
X150330380Y-129354904D01*
X151044666Y-129021571D01*
X150330380Y-128688238D01*
X151330380Y-128688238D01*
X151044666Y-128259666D02*
X151044666Y-127783476D01*
X151330380Y-128354904D02*
X150330380Y-128021571D01*
X151330380Y-127688238D01*
X126410380Y-129434904D02*
X125410380Y-129434904D01*
X126124666Y-129101571D01*
X125410380Y-128768238D01*
X126410380Y-128768238D01*
X126124666Y-128339666D02*
X126124666Y-127863476D01*
X126410380Y-128434904D02*
X125410380Y-128101571D01*
X126410380Y-127768238D01*
X101450380Y-129264904D02*
X100450380Y-129264904D01*
X101164666Y-128931571D01*
X100450380Y-128598238D01*
X101450380Y-128598238D01*
X101164666Y-128169666D02*
X101164666Y-127693476D01*
X101450380Y-128264904D02*
X100450380Y-127931571D01*
X101450380Y-127598238D01*
X150577047Y-116744428D02*
X151338952Y-116744428D01*
X150958000Y-117125380D02*
X150958000Y-116363476D01*
X125567047Y-116714428D02*
X126328952Y-116714428D01*
X125948000Y-117095380D02*
X125948000Y-116333476D01*
X150637047Y-122224428D02*
X151398952Y-122224428D01*
X125637047Y-121724428D02*
X126398952Y-121724428D01*
D11*
X98018000Y-109153000D02*
X98018000Y-141153000D01*
X148018000Y-141153000D02*
X163018000Y-141153000D01*
X163018000Y-141153000D02*
X163018000Y-109153000D01*
X113018000Y-109153000D02*
X98018000Y-109153000D01*
X123018000Y-141153000D02*
X138018000Y-141153000D01*
X138018000Y-109153000D02*
X123018000Y-109153000D01*
X163018000Y-109153000D02*
X148018000Y-109153000D01*
X138018000Y-141153000D02*
X138018000Y-109153000D01*
X98018000Y-141153000D02*
X113018000Y-141153000D01*
X113018000Y-109153000D02*
X113018000Y-141153000D01*
X123018000Y-109153000D02*
X123018000Y-141153000D01*
X148018000Y-109153000D02*
X148018000Y-141153000D01*
D10*
X100137047Y-121724428D02*
X100898952Y-121724428D01*
X100137047Y-116224428D02*
X100898952Y-116224428D01*
X100518000Y-116605380D02*
X100518000Y-115843476D01*
X151470380Y-134486333D02*
X150470380Y-134486333D01*
X151184666Y-134153000D01*
X150470380Y-133819666D01*
X151470380Y-133819666D01*
X150946571Y-133010142D02*
X150994190Y-132867285D01*
X151041809Y-132819666D01*
X151137047Y-132772047D01*
X151279904Y-132772047D01*
X151375142Y-132819666D01*
X151422761Y-132867285D01*
X151470380Y-132962523D01*
X151470380Y-133343476D01*
X150470380Y-133343476D01*
X150470380Y-133010142D01*
X150518000Y-132914904D01*
X150565619Y-132867285D01*
X150660857Y-132819666D01*
X150756095Y-132819666D01*
X150851333Y-132867285D01*
X150898952Y-132914904D01*
X150946571Y-133010142D01*
X150946571Y-133343476D01*
X101470380Y-134486333D02*
X100470380Y-134486333D01*
X101184666Y-134153000D01*
X100470380Y-133819666D01*
X101470380Y-133819666D01*
X100946571Y-133010142D02*
X100994190Y-132867285D01*
X101041809Y-132819666D01*
X101137047Y-132772047D01*
X101279904Y-132772047D01*
X101375142Y-132819666D01*
X101422761Y-132867285D01*
X101470380Y-132962523D01*
X101470380Y-133343476D01*
X100470380Y-133343476D01*
X100470380Y-133010142D01*
X100518000Y-132914904D01*
X100565619Y-132867285D01*
X100660857Y-132819666D01*
X100756095Y-132819666D01*
X100851333Y-132867285D01*
X100898952Y-132914904D01*
X100946571Y-133010142D01*
X100946571Y-133343476D01*
X107184666Y-150605380D02*
X107184666Y-149605380D01*
X107518000Y-150319666D01*
X107851333Y-149605380D01*
X107851333Y-150605380D01*
X108660857Y-150081571D02*
X108803714Y-150129190D01*
X108851333Y-150176809D01*
X108898952Y-150272047D01*
X108898952Y-150414904D01*
X108851333Y-150510142D01*
X108803714Y-150557761D01*
X108708476Y-150605380D01*
X108327523Y-150605380D01*
X108327523Y-149605380D01*
X108660857Y-149605380D01*
X108756095Y-149653000D01*
X108803714Y-149700619D01*
X108851333Y-149795857D01*
X108851333Y-149891095D01*
X108803714Y-149986333D01*
X108756095Y-150033952D01*
X108660857Y-150081571D01*
X108327523Y-150081571D01*
X132184666Y-150605380D02*
X132184666Y-149605380D01*
X132518000Y-150319666D01*
X132851333Y-149605380D01*
X132851333Y-150605380D01*
X133660857Y-150081571D02*
X133803714Y-150129190D01*
X133851333Y-150176809D01*
X133898952Y-150272047D01*
X133898952Y-150414904D01*
X133851333Y-150510142D01*
X133803714Y-150557761D01*
X133708476Y-150605380D01*
X133327523Y-150605380D01*
X133327523Y-149605380D01*
X133660857Y-149605380D01*
X133756095Y-149653000D01*
X133803714Y-149700619D01*
X133851333Y-149795857D01*
X133851333Y-149891095D01*
X133803714Y-149986333D01*
X133756095Y-150033952D01*
X133660857Y-150081571D01*
X133327523Y-150081571D01*
X126470380Y-134486333D02*
X125470380Y-134486333D01*
X126184666Y-134153000D01*
X125470380Y-133819666D01*
X126470380Y-133819666D01*
X125946571Y-133010142D02*
X125994190Y-132867285D01*
X126041809Y-132819666D01*
X126137047Y-132772047D01*
X126279904Y-132772047D01*
X126375142Y-132819666D01*
X126422761Y-132867285D01*
X126470380Y-132962523D01*
X126470380Y-133343476D01*
X125470380Y-133343476D01*
X125470380Y-133010142D01*
X125518000Y-132914904D01*
X125565619Y-132867285D01*
X125660857Y-132819666D01*
X125756095Y-132819666D01*
X125851333Y-132867285D01*
X125898952Y-132914904D01*
X125946571Y-133010142D01*
X125946571Y-133343476D01*
X127256095Y-150605380D02*
X127256095Y-149605380D01*
X127589428Y-150319666D01*
X127922761Y-149605380D01*
X127922761Y-150605380D01*
X128351333Y-150319666D02*
X128827523Y-150319666D01*
X128256095Y-150605380D02*
X128589428Y-149605380D01*
X128922761Y-150605380D01*
X157184666Y-150605380D02*
X157184666Y-149605380D01*
X157518000Y-150319666D01*
X157851333Y-149605380D01*
X157851333Y-150605380D01*
X158660857Y-150081571D02*
X158803714Y-150129190D01*
X158851333Y-150176809D01*
X158898952Y-150272047D01*
X158898952Y-150414904D01*
X158851333Y-150510142D01*
X158803714Y-150557761D01*
X158708476Y-150605380D01*
X158327523Y-150605380D01*
X158327523Y-149605380D01*
X158660857Y-149605380D01*
X158756095Y-149653000D01*
X158803714Y-149700619D01*
X158851333Y-149795857D01*
X158851333Y-149891095D01*
X158803714Y-149986333D01*
X158756095Y-150033952D01*
X158660857Y-150081571D01*
X158327523Y-150081571D01*
X102256095Y-150605380D02*
X102256095Y-149605380D01*
X102589428Y-150319666D01*
X102922761Y-149605380D01*
X102922761Y-150605380D01*
X103351333Y-150319666D02*
X103827523Y-150319666D01*
X103256095Y-150605380D02*
X103589428Y-149605380D01*
X103922761Y-150605380D01*
D11*
X306878000Y-109033000D02*
X291878000Y-109033000D01*
X241878000Y-109033000D02*
X241878000Y-141033000D01*
X291878000Y-141033000D02*
X306878000Y-141033000D01*
X306878000Y-141033000D02*
X306878000Y-109033000D01*
X256878000Y-109033000D02*
X241878000Y-109033000D01*
X266878000Y-141033000D02*
X281878000Y-141033000D01*
X281878000Y-141033000D02*
X281878000Y-109033000D01*
X241878000Y-141033000D02*
X256878000Y-141033000D01*
X256878000Y-109033000D02*
X256878000Y-141033000D01*
X266878000Y-109033000D02*
X266878000Y-141033000D01*
X291878000Y-109033000D02*
X291878000Y-141033000D01*
D10*
X243997047Y-121604428D02*
X244758952Y-121604428D01*
X295330380Y-134366333D02*
X294330380Y-134366333D01*
X295044666Y-134033000D01*
X294330380Y-133699666D01*
X295330380Y-133699666D01*
X294806571Y-132890142D02*
X294854190Y-132747285D01*
X294901809Y-132699666D01*
X294997047Y-132652047D01*
X295139904Y-132652047D01*
X295235142Y-132699666D01*
X295282761Y-132747285D01*
X295330380Y-132842523D01*
X295330380Y-133223476D01*
X294330380Y-133223476D01*
X294330380Y-132890142D01*
X294378000Y-132794904D01*
X294425619Y-132747285D01*
X294520857Y-132699666D01*
X294616095Y-132699666D01*
X294711333Y-132747285D01*
X294758952Y-132794904D01*
X294806571Y-132890142D01*
X294806571Y-133223476D01*
X245330380Y-134366333D02*
X244330380Y-134366333D01*
X245044666Y-134033000D01*
X244330380Y-133699666D01*
X245330380Y-133699666D01*
X244806571Y-132890142D02*
X244854190Y-132747285D01*
X244901809Y-132699666D01*
X244997047Y-132652047D01*
X245139904Y-132652047D01*
X245235142Y-132699666D01*
X245282761Y-132747285D01*
X245330380Y-132842523D01*
X245330380Y-133223476D01*
X244330380Y-133223476D01*
X244330380Y-132890142D01*
X244378000Y-132794904D01*
X244425619Y-132747285D01*
X244520857Y-132699666D01*
X244616095Y-132699666D01*
X244711333Y-132747285D01*
X244758952Y-132794904D01*
X244806571Y-132890142D01*
X244806571Y-133223476D01*
X251044666Y-150485380D02*
X251044666Y-149485380D01*
X251378000Y-150199666D01*
X251711333Y-149485380D01*
X251711333Y-150485380D01*
X252520857Y-149961571D02*
X252663714Y-150009190D01*
X252711333Y-150056809D01*
X252758952Y-150152047D01*
X252758952Y-150294904D01*
X252711333Y-150390142D01*
X252663714Y-150437761D01*
X252568476Y-150485380D01*
X252187523Y-150485380D01*
X252187523Y-149485380D01*
X252520857Y-149485380D01*
X252616095Y-149533000D01*
X252663714Y-149580619D01*
X252711333Y-149675857D01*
X252711333Y-149771095D01*
X252663714Y-149866333D01*
X252616095Y-149913952D01*
X252520857Y-149961571D01*
X252187523Y-149961571D01*
X276044666Y-150485380D02*
X276044666Y-149485380D01*
X276378000Y-150199666D01*
X276711333Y-149485380D01*
X276711333Y-150485380D01*
X277520857Y-149961571D02*
X277663714Y-150009190D01*
X277711333Y-150056809D01*
X277758952Y-150152047D01*
X277758952Y-150294904D01*
X277711333Y-150390142D01*
X277663714Y-150437761D01*
X277568476Y-150485380D01*
X277187523Y-150485380D01*
X277187523Y-149485380D01*
X277520857Y-149485380D01*
X277616095Y-149533000D01*
X277663714Y-149580619D01*
X277711333Y-149675857D01*
X277711333Y-149771095D01*
X277663714Y-149866333D01*
X277616095Y-149913952D01*
X277520857Y-149961571D01*
X277187523Y-149961571D01*
X294497047Y-122104428D02*
X295258952Y-122104428D01*
X270330380Y-134366333D02*
X269330380Y-134366333D01*
X270044666Y-134033000D01*
X269330380Y-133699666D01*
X270330380Y-133699666D01*
X269806571Y-132890142D02*
X269854190Y-132747285D01*
X269901809Y-132699666D01*
X269997047Y-132652047D01*
X270139904Y-132652047D01*
X270235142Y-132699666D01*
X270282761Y-132747285D01*
X270330380Y-132842523D01*
X270330380Y-133223476D01*
X269330380Y-133223476D01*
X269330380Y-132890142D01*
X269378000Y-132794904D01*
X269425619Y-132747285D01*
X269520857Y-132699666D01*
X269616095Y-132699666D01*
X269711333Y-132747285D01*
X269758952Y-132794904D01*
X269806571Y-132890142D01*
X269806571Y-133223476D01*
X269497047Y-121604428D02*
X270258952Y-121604428D01*
X271116095Y-150485380D02*
X271116095Y-149485380D01*
X271449428Y-150199666D01*
X271782761Y-149485380D01*
X271782761Y-150485380D01*
X272211333Y-150199666D02*
X272687523Y-150199666D01*
X272116095Y-150485380D02*
X272449428Y-149485380D01*
X272782761Y-150485380D01*
X301044666Y-150485380D02*
X301044666Y-149485380D01*
X301378000Y-150199666D01*
X301711333Y-149485380D01*
X301711333Y-150485380D01*
X302520857Y-149961571D02*
X302663714Y-150009190D01*
X302711333Y-150056809D01*
X302758952Y-150152047D01*
X302758952Y-150294904D01*
X302711333Y-150390142D01*
X302663714Y-150437761D01*
X302568476Y-150485380D01*
X302187523Y-150485380D01*
X302187523Y-149485380D01*
X302520857Y-149485380D01*
X302616095Y-149533000D01*
X302663714Y-149580619D01*
X302711333Y-149675857D01*
X302711333Y-149771095D01*
X302663714Y-149866333D01*
X302616095Y-149913952D01*
X302520857Y-149961571D01*
X302187523Y-149961571D01*
X246116095Y-150485380D02*
X246116095Y-149485380D01*
X246449428Y-150199666D01*
X246782761Y-149485380D01*
X246782761Y-150485380D01*
X247211333Y-150199666D02*
X247687523Y-150199666D01*
X247116095Y-150485380D02*
X247449428Y-149485380D01*
X247782761Y-150485380D01*
D12*
G04 #@! TO.C,REF\u002A\u002A*
G36*
X195033652Y-89972568D02*
G01*
X195035094Y-89709248D01*
X195038997Y-89518679D01*
X195046592Y-89388580D01*
X195059105Y-89306668D01*
X195077766Y-89260659D01*
X195103803Y-89238272D01*
X195138443Y-89227223D01*
X195142927Y-89226149D01*
X195223844Y-89209366D01*
X195383497Y-89178300D01*
X195604893Y-89136183D01*
X195871040Y-89086246D01*
X196164945Y-89031722D01*
X196175267Y-89029818D01*
X196463291Y-88975202D01*
X196717770Y-88924103D01*
X196923440Y-88879819D01*
X197065040Y-88845646D01*
X197127305Y-88824882D01*
X197128408Y-88823892D01*
X197158814Y-88762726D01*
X197209483Y-88636615D01*
X197269477Y-88472794D01*
X197269797Y-88471882D01*
X197347359Y-88265537D01*
X197446162Y-88022265D01*
X197545503Y-87792956D01*
X197550415Y-87782103D01*
X197719931Y-87408608D01*
X197155150Y-86581560D01*
X196982975Y-86327848D01*
X196829050Y-86098023D01*
X196702129Y-85905400D01*
X196610964Y-85763293D01*
X196564310Y-85685018D01*
X196560850Y-85677585D01*
X196576255Y-85620701D01*
X196650582Y-85514456D01*
X196787336Y-85354706D01*
X196990023Y-85137309D01*
X197205663Y-84915377D01*
X197418158Y-84701434D01*
X197612065Y-84509956D01*
X197775409Y-84352470D01*
X197896216Y-84240503D01*
X197962510Y-84185582D01*
X197965923Y-84183539D01*
X198011416Y-84177467D01*
X198085711Y-84200341D01*
X198198841Y-84257810D01*
X198360840Y-84355526D01*
X198581741Y-84499141D01*
X198866115Y-84690592D01*
X199116414Y-84860502D01*
X199340905Y-85012387D01*
X199526555Y-85137470D01*
X199660330Y-85226976D01*
X199729197Y-85272125D01*
X199733873Y-85274967D01*
X199799856Y-85269455D01*
X199928103Y-85227670D01*
X200094375Y-85157928D01*
X200147474Y-85133071D01*
X200384032Y-85024614D01*
X200652444Y-84908905D01*
X200884690Y-84814910D01*
X201057062Y-84747180D01*
X201188058Y-84693382D01*
X201256522Y-84662294D01*
X201261797Y-84658429D01*
X201270535Y-84601254D01*
X201294478Y-84466477D01*
X201330217Y-84272019D01*
X201374344Y-84035800D01*
X201423450Y-83775741D01*
X201474127Y-83509762D01*
X201522968Y-83255782D01*
X201566564Y-83031724D01*
X201601506Y-82855505D01*
X201624387Y-82745048D01*
X201630856Y-82717955D01*
X201646822Y-82689969D01*
X201682882Y-82668844D01*
X201751207Y-82653628D01*
X201863970Y-82643372D01*
X202033341Y-82637125D01*
X202271493Y-82633937D01*
X202590597Y-82632858D01*
X202721396Y-82632802D01*
X203785166Y-82632802D01*
X203835588Y-82888262D01*
X203862928Y-83030388D01*
X203902837Y-83242475D01*
X203950500Y-83498732D01*
X204001101Y-83773367D01*
X204014999Y-83849277D01*
X204064272Y-84102704D01*
X204112725Y-84323478D01*
X204155870Y-84493068D01*
X204189218Y-84592945D01*
X204199157Y-84609582D01*
X204269546Y-84650436D01*
X204405938Y-84709012D01*
X204581460Y-84773970D01*
X204619268Y-84786854D01*
X204853685Y-84871991D01*
X205118179Y-84977669D01*
X205355696Y-85081085D01*
X205356799Y-85081595D01*
X205729388Y-85253813D01*
X206562548Y-84687401D01*
X207395708Y-84120990D01*
X208124155Y-84848223D01*
X208340957Y-85068177D01*
X208532069Y-85268793D01*
X208687291Y-85438803D01*
X208796419Y-85566940D01*
X208849250Y-85641936D01*
X208852602Y-85652694D01*
X208826204Y-85715858D01*
X208752815Y-85844745D01*
X208641139Y-86025276D01*
X208499879Y-86243371D01*
X208341682Y-86479171D01*
X208180319Y-86718489D01*
X208039907Y-86931866D01*
X207929086Y-87105750D01*
X207856493Y-87226591D01*
X207830763Y-87280662D01*
X207852535Y-87346631D01*
X207909906Y-87471727D01*
X207990955Y-87630145D01*
X207999964Y-87646938D01*
X208106955Y-87860273D01*
X208159427Y-88006561D01*
X208159985Y-88097545D01*
X208111235Y-88144966D01*
X208110552Y-88145242D01*
X208052819Y-88168945D01*
X207915770Y-88225476D01*
X207710012Y-88310451D01*
X207446153Y-88419487D01*
X207134799Y-88548201D01*
X206786559Y-88692210D01*
X206449399Y-88831674D01*
X206077321Y-88984945D01*
X205732642Y-89125674D01*
X205425926Y-89249643D01*
X205167740Y-89352634D01*
X204968649Y-89430429D01*
X204839220Y-89478811D01*
X204790916Y-89493721D01*
X204735505Y-89456331D01*
X204647193Y-89358527D01*
X204549829Y-89228110D01*
X204241908Y-88856702D01*
X203888959Y-88566395D01*
X203498416Y-88360669D01*
X203077712Y-88243002D01*
X202634284Y-88216874D01*
X202429613Y-88235865D01*
X202004978Y-88339342D01*
X201629991Y-88517552D01*
X201308351Y-88759443D01*
X201043756Y-89053962D01*
X200839905Y-89390054D01*
X200700497Y-89756667D01*
X200629229Y-90142748D01*
X200629800Y-90537244D01*
X200705909Y-90929100D01*
X200861254Y-91307265D01*
X201099534Y-91660685D01*
X201234294Y-91808198D01*
X201580334Y-92091109D01*
X201958481Y-92288093D01*
X202357710Y-92400461D01*
X202767000Y-92429524D01*
X203175327Y-92376594D01*
X203571668Y-92242982D01*
X203945000Y-92030000D01*
X204284300Y-91738959D01*
X204549829Y-91413739D01*
X204651326Y-91278273D01*
X204738680Y-91182576D01*
X204790998Y-91148128D01*
X204848053Y-91166165D01*
X204984353Y-91217463D01*
X205189333Y-91297801D01*
X205452427Y-91402961D01*
X205763071Y-91528721D01*
X206110698Y-91670862D01*
X206449481Y-91810560D01*
X206821877Y-91964684D01*
X207166962Y-92107443D01*
X207474132Y-92234454D01*
X207732780Y-92341336D01*
X207932302Y-92423705D01*
X208062090Y-92477178D01*
X208110552Y-92496992D01*
X208159784Y-92543801D01*
X208159640Y-92634342D01*
X208107532Y-92780267D01*
X208000871Y-92993227D01*
X207999964Y-92994911D01*
X207917191Y-93155255D01*
X207856897Y-93284873D01*
X207831001Y-93357962D01*
X207830763Y-93361188D01*
X207857029Y-93416209D01*
X207930071Y-93537682D01*
X208041250Y-93712054D01*
X208181928Y-93925775D01*
X208341682Y-94162678D01*
X208503434Y-94403870D01*
X208644105Y-94621251D01*
X208754990Y-94800741D01*
X208827385Y-94928261D01*
X208852602Y-94989155D01*
X208819458Y-95045228D01*
X208726828Y-95157965D01*
X208584912Y-95316102D01*
X208403910Y-95508374D01*
X208194024Y-95723516D01*
X208123904Y-95793877D01*
X207395207Y-96521359D01*
X206582555Y-95967630D01*
X206332997Y-95799348D01*
X206109021Y-95651654D01*
X205923604Y-95532835D01*
X205789720Y-95451175D01*
X205720345Y-95414961D01*
X205715410Y-95413900D01*
X205650019Y-95432992D01*
X205518480Y-95484343D01*
X205342836Y-95559065D01*
X205225246Y-95611513D01*
X205000116Y-95709579D01*
X204772670Y-95801932D01*
X204580494Y-95873531D01*
X204521950Y-95892981D01*
X204365611Y-95948239D01*
X204244813Y-96002256D01*
X204199157Y-96031926D01*
X204171216Y-96097401D01*
X204131606Y-96240301D01*
X204084817Y-96442086D01*
X204035338Y-96684213D01*
X204014999Y-96792572D01*
X203964436Y-97067736D01*
X203915477Y-97331671D01*
X203872936Y-97558584D01*
X203841630Y-97722686D01*
X203835588Y-97753587D01*
X203785166Y-98009047D01*
X202721396Y-98009047D01*
X202371605Y-98008473D01*
X202106955Y-98006118D01*
X201915277Y-98001032D01*
X201784399Y-97992264D01*
X201702148Y-97978863D01*
X201656353Y-97959879D01*
X201634843Y-97934363D01*
X201630856Y-97923894D01*
X201616711Y-97860751D01*
X201588489Y-97721250D01*
X201549598Y-97523314D01*
X201503447Y-97284860D01*
X201453443Y-97023811D01*
X201402996Y-96758086D01*
X201355513Y-96505606D01*
X201314403Y-96284290D01*
X201283074Y-96112059D01*
X201264933Y-96006833D01*
X201261797Y-95983420D01*
X201219828Y-95962209D01*
X201108025Y-95915257D01*
X200947543Y-95851344D01*
X200884690Y-95826939D01*
X200641858Y-95728505D01*
X200373573Y-95612591D01*
X200147474Y-95508778D01*
X199974590Y-95432390D01*
X199832532Y-95381569D01*
X199745533Y-95364604D01*
X199733873Y-95367309D01*
X199678825Y-95403164D01*
X199556394Y-95485033D01*
X199379617Y-95604130D01*
X199161532Y-95751667D01*
X198915175Y-95918856D01*
X198866546Y-95951915D01*
X198578428Y-96145905D01*
X198359032Y-96288504D01*
X198198257Y-96385398D01*
X198086001Y-96442271D01*
X198012165Y-96464809D01*
X197966645Y-96458697D01*
X197966355Y-96458541D01*
X197906565Y-96410436D01*
X197790974Y-96304036D01*
X197631564Y-96150873D01*
X197440320Y-95962480D01*
X197229223Y-95750390D01*
X197205663Y-95726472D01*
X196946827Y-95459187D01*
X196756772Y-95252917D01*
X196631992Y-95103517D01*
X196568982Y-95006845D01*
X196560850Y-94964264D01*
X196596327Y-94902121D01*
X196678278Y-94773162D01*
X196797947Y-94590703D01*
X196946581Y-94368058D01*
X197115427Y-94118541D01*
X197155150Y-94060289D01*
X197719931Y-93233241D01*
X197550415Y-92859746D01*
X197451626Y-92632609D01*
X197352272Y-92388797D01*
X197273056Y-92179200D01*
X197269797Y-92169967D01*
X197209784Y-92006020D01*
X197159037Y-91879640D01*
X197128496Y-91818062D01*
X197128408Y-91817957D01*
X197073203Y-91798418D01*
X196937434Y-91765204D01*
X196736364Y-91721612D01*
X196485254Y-91670941D01*
X196199368Y-91616486D01*
X196175267Y-91612031D01*
X195880714Y-91557407D01*
X195613339Y-91507261D01*
X195390135Y-91464823D01*
X195228094Y-91433327D01*
X195144208Y-91416002D01*
X195142927Y-91415700D01*
X195107243Y-91405157D01*
X195080301Y-91384656D01*
X195060873Y-91341914D01*
X195047730Y-91264649D01*
X195039644Y-91140577D01*
X195035387Y-90957416D01*
X195033730Y-90702883D01*
X195033445Y-90364694D01*
X195033445Y-90320925D01*
X195033652Y-89972568D01*
G37*
X195033652Y-89972568D02*
X195035094Y-89709248D01*
X195038997Y-89518679D01*
X195046592Y-89388580D01*
X195059105Y-89306668D01*
X195077766Y-89260659D01*
X195103803Y-89238272D01*
X195138443Y-89227223D01*
X195142927Y-89226149D01*
X195223844Y-89209366D01*
X195383497Y-89178300D01*
X195604893Y-89136183D01*
X195871040Y-89086246D01*
X196164945Y-89031722D01*
X196175267Y-89029818D01*
X196463291Y-88975202D01*
X196717770Y-88924103D01*
X196923440Y-88879819D01*
X197065040Y-88845646D01*
X197127305Y-88824882D01*
X197128408Y-88823892D01*
X197158814Y-88762726D01*
X197209483Y-88636615D01*
X197269477Y-88472794D01*
X197269797Y-88471882D01*
X197347359Y-88265537D01*
X197446162Y-88022265D01*
X197545503Y-87792956D01*
X197550415Y-87782103D01*
X197719931Y-87408608D01*
X197155150Y-86581560D01*
X196982975Y-86327848D01*
X196829050Y-86098023D01*
X196702129Y-85905400D01*
X196610964Y-85763293D01*
X196564310Y-85685018D01*
X196560850Y-85677585D01*
X196576255Y-85620701D01*
X196650582Y-85514456D01*
X196787336Y-85354706D01*
X196990023Y-85137309D01*
X197205663Y-84915377D01*
X197418158Y-84701434D01*
X197612065Y-84509956D01*
X197775409Y-84352470D01*
X197896216Y-84240503D01*
X197962510Y-84185582D01*
X197965923Y-84183539D01*
X198011416Y-84177467D01*
X198085711Y-84200341D01*
X198198841Y-84257810D01*
X198360840Y-84355526D01*
X198581741Y-84499141D01*
X198866115Y-84690592D01*
X199116414Y-84860502D01*
X199340905Y-85012387D01*
X199526555Y-85137470D01*
X199660330Y-85226976D01*
X199729197Y-85272125D01*
X199733873Y-85274967D01*
X199799856Y-85269455D01*
X199928103Y-85227670D01*
X200094375Y-85157928D01*
X200147474Y-85133071D01*
X200384032Y-85024614D01*
X200652444Y-84908905D01*
X200884690Y-84814910D01*
X201057062Y-84747180D01*
X201188058Y-84693382D01*
X201256522Y-84662294D01*
X201261797Y-84658429D01*
X201270535Y-84601254D01*
X201294478Y-84466477D01*
X201330217Y-84272019D01*
X201374344Y-84035800D01*
X201423450Y-83775741D01*
X201474127Y-83509762D01*
X201522968Y-83255782D01*
X201566564Y-83031724D01*
X201601506Y-82855505D01*
X201624387Y-82745048D01*
X201630856Y-82717955D01*
X201646822Y-82689969D01*
X201682882Y-82668844D01*
X201751207Y-82653628D01*
X201863970Y-82643372D01*
X202033341Y-82637125D01*
X202271493Y-82633937D01*
X202590597Y-82632858D01*
X202721396Y-82632802D01*
X203785166Y-82632802D01*
X203835588Y-82888262D01*
X203862928Y-83030388D01*
X203902837Y-83242475D01*
X203950500Y-83498732D01*
X204001101Y-83773367D01*
X204014999Y-83849277D01*
X204064272Y-84102704D01*
X204112725Y-84323478D01*
X204155870Y-84493068D01*
X204189218Y-84592945D01*
X204199157Y-84609582D01*
X204269546Y-84650436D01*
X204405938Y-84709012D01*
X204581460Y-84773970D01*
X204619268Y-84786854D01*
X204853685Y-84871991D01*
X205118179Y-84977669D01*
X205355696Y-85081085D01*
X205356799Y-85081595D01*
X205729388Y-85253813D01*
X206562548Y-84687401D01*
X207395708Y-84120990D01*
X208124155Y-84848223D01*
X208340957Y-85068177D01*
X208532069Y-85268793D01*
X208687291Y-85438803D01*
X208796419Y-85566940D01*
X208849250Y-85641936D01*
X208852602Y-85652694D01*
X208826204Y-85715858D01*
X208752815Y-85844745D01*
X208641139Y-86025276D01*
X208499879Y-86243371D01*
X208341682Y-86479171D01*
X208180319Y-86718489D01*
X208039907Y-86931866D01*
X207929086Y-87105750D01*
X207856493Y-87226591D01*
X207830763Y-87280662D01*
X207852535Y-87346631D01*
X207909906Y-87471727D01*
X207990955Y-87630145D01*
X207999964Y-87646938D01*
X208106955Y-87860273D01*
X208159427Y-88006561D01*
X208159985Y-88097545D01*
X208111235Y-88144966D01*
X208110552Y-88145242D01*
X208052819Y-88168945D01*
X207915770Y-88225476D01*
X207710012Y-88310451D01*
X207446153Y-88419487D01*
X207134799Y-88548201D01*
X206786559Y-88692210D01*
X206449399Y-88831674D01*
X206077321Y-88984945D01*
X205732642Y-89125674D01*
X205425926Y-89249643D01*
X205167740Y-89352634D01*
X204968649Y-89430429D01*
X204839220Y-89478811D01*
X204790916Y-89493721D01*
X204735505Y-89456331D01*
X204647193Y-89358527D01*
X204549829Y-89228110D01*
X204241908Y-88856702D01*
X203888959Y-88566395D01*
X203498416Y-88360669D01*
X203077712Y-88243002D01*
X202634284Y-88216874D01*
X202429613Y-88235865D01*
X202004978Y-88339342D01*
X201629991Y-88517552D01*
X201308351Y-88759443D01*
X201043756Y-89053962D01*
X200839905Y-89390054D01*
X200700497Y-89756667D01*
X200629229Y-90142748D01*
X200629800Y-90537244D01*
X200705909Y-90929100D01*
X200861254Y-91307265D01*
X201099534Y-91660685D01*
X201234294Y-91808198D01*
X201580334Y-92091109D01*
X201958481Y-92288093D01*
X202357710Y-92400461D01*
X202767000Y-92429524D01*
X203175327Y-92376594D01*
X203571668Y-92242982D01*
X203945000Y-92030000D01*
X204284300Y-91738959D01*
X204549829Y-91413739D01*
X204651326Y-91278273D01*
X204738680Y-91182576D01*
X204790998Y-91148128D01*
X204848053Y-91166165D01*
X204984353Y-91217463D01*
X205189333Y-91297801D01*
X205452427Y-91402961D01*
X205763071Y-91528721D01*
X206110698Y-91670862D01*
X206449481Y-91810560D01*
X206821877Y-91964684D01*
X207166962Y-92107443D01*
X207474132Y-92234454D01*
X207732780Y-92341336D01*
X207932302Y-92423705D01*
X208062090Y-92477178D01*
X208110552Y-92496992D01*
X208159784Y-92543801D01*
X208159640Y-92634342D01*
X208107532Y-92780267D01*
X208000871Y-92993227D01*
X207999964Y-92994911D01*
X207917191Y-93155255D01*
X207856897Y-93284873D01*
X207831001Y-93357962D01*
X207830763Y-93361188D01*
X207857029Y-93416209D01*
X207930071Y-93537682D01*
X208041250Y-93712054D01*
X208181928Y-93925775D01*
X208341682Y-94162678D01*
X208503434Y-94403870D01*
X208644105Y-94621251D01*
X208754990Y-94800741D01*
X208827385Y-94928261D01*
X208852602Y-94989155D01*
X208819458Y-95045228D01*
X208726828Y-95157965D01*
X208584912Y-95316102D01*
X208403910Y-95508374D01*
X208194024Y-95723516D01*
X208123904Y-95793877D01*
X207395207Y-96521359D01*
X206582555Y-95967630D01*
X206332997Y-95799348D01*
X206109021Y-95651654D01*
X205923604Y-95532835D01*
X205789720Y-95451175D01*
X205720345Y-95414961D01*
X205715410Y-95413900D01*
X205650019Y-95432992D01*
X205518480Y-95484343D01*
X205342836Y-95559065D01*
X205225246Y-95611513D01*
X205000116Y-95709579D01*
X204772670Y-95801932D01*
X204580494Y-95873531D01*
X204521950Y-95892981D01*
X204365611Y-95948239D01*
X204244813Y-96002256D01*
X204199157Y-96031926D01*
X204171216Y-96097401D01*
X204131606Y-96240301D01*
X204084817Y-96442086D01*
X204035338Y-96684213D01*
X204014999Y-96792572D01*
X203964436Y-97067736D01*
X203915477Y-97331671D01*
X203872936Y-97558584D01*
X203841630Y-97722686D01*
X203835588Y-97753587D01*
X203785166Y-98009047D01*
X202721396Y-98009047D01*
X202371605Y-98008473D01*
X202106955Y-98006118D01*
X201915277Y-98001032D01*
X201784399Y-97992264D01*
X201702148Y-97978863D01*
X201656353Y-97959879D01*
X201634843Y-97934363D01*
X201630856Y-97923894D01*
X201616711Y-97860751D01*
X201588489Y-97721250D01*
X201549598Y-97523314D01*
X201503447Y-97284860D01*
X201453443Y-97023811D01*
X201402996Y-96758086D01*
X201355513Y-96505606D01*
X201314403Y-96284290D01*
X201283074Y-96112059D01*
X201264933Y-96006833D01*
X201261797Y-95983420D01*
X201219828Y-95962209D01*
X201108025Y-95915257D01*
X200947543Y-95851344D01*
X200884690Y-95826939D01*
X200641858Y-95728505D01*
X200373573Y-95612591D01*
X200147474Y-95508778D01*
X199974590Y-95432390D01*
X199832532Y-95381569D01*
X199745533Y-95364604D01*
X199733873Y-95367309D01*
X199678825Y-95403164D01*
X199556394Y-95485033D01*
X199379617Y-95604130D01*
X199161532Y-95751667D01*
X198915175Y-95918856D01*
X198866546Y-95951915D01*
X198578428Y-96145905D01*
X198359032Y-96288504D01*
X198198257Y-96385398D01*
X198086001Y-96442271D01*
X198012165Y-96464809D01*
X197966645Y-96458697D01*
X197966355Y-96458541D01*
X197906565Y-96410436D01*
X197790974Y-96304036D01*
X197631564Y-96150873D01*
X197440320Y-95962480D01*
X197229223Y-95750390D01*
X197205663Y-95726472D01*
X196946827Y-95459187D01*
X196756772Y-95252917D01*
X196631992Y-95103517D01*
X196568982Y-95006845D01*
X196560850Y-94964264D01*
X196596327Y-94902121D01*
X196678278Y-94773162D01*
X196797947Y-94590703D01*
X196946581Y-94368058D01*
X197115427Y-94118541D01*
X197155150Y-94060289D01*
X197719931Y-93233241D01*
X197550415Y-92859746D01*
X197451626Y-92632609D01*
X197352272Y-92388797D01*
X197273056Y-92179200D01*
X197269797Y-92169967D01*
X197209784Y-92006020D01*
X197159037Y-91879640D01*
X197128496Y-91818062D01*
X197128408Y-91817957D01*
X197073203Y-91798418D01*
X196937434Y-91765204D01*
X196736364Y-91721612D01*
X196485254Y-91670941D01*
X196199368Y-91616486D01*
X196175267Y-91612031D01*
X195880714Y-91557407D01*
X195613339Y-91507261D01*
X195390135Y-91464823D01*
X195228094Y-91433327D01*
X195144208Y-91416002D01*
X195142927Y-91415700D01*
X195107243Y-91405157D01*
X195080301Y-91384656D01*
X195060873Y-91341914D01*
X195047730Y-91264649D01*
X195039644Y-91140577D01*
X195035387Y-90957416D01*
X195033730Y-90702883D01*
X195033445Y-90364694D01*
X195033445Y-90320925D01*
X195033652Y-89972568D01*
G36*
X203023357Y-82604997D02*
G01*
X203286677Y-82606439D01*
X203477246Y-82610342D01*
X203607345Y-82617937D01*
X203689257Y-82630450D01*
X203735266Y-82649111D01*
X203757653Y-82675148D01*
X203768702Y-82709788D01*
X203769776Y-82714272D01*
X203786559Y-82795189D01*
X203817625Y-82954842D01*
X203859742Y-83176238D01*
X203909679Y-83442385D01*
X203964203Y-83736290D01*
X203966107Y-83746612D01*
X204020723Y-84034636D01*
X204071822Y-84289115D01*
X204116106Y-84494785D01*
X204150279Y-84636385D01*
X204171043Y-84698650D01*
X204172033Y-84699753D01*
X204233199Y-84730159D01*
X204359310Y-84780828D01*
X204523131Y-84840822D01*
X204524043Y-84841142D01*
X204730388Y-84918704D01*
X204973660Y-85017507D01*
X205202969Y-85116848D01*
X205213822Y-85121760D01*
X205587317Y-85291276D01*
X206414365Y-84726495D01*
X206668077Y-84554320D01*
X206897902Y-84400395D01*
X207090525Y-84273474D01*
X207232632Y-84182309D01*
X207310907Y-84135655D01*
X207318340Y-84132195D01*
X207375224Y-84147600D01*
X207481469Y-84221927D01*
X207641219Y-84358681D01*
X207858616Y-84561368D01*
X208080548Y-84777008D01*
X208294491Y-84989503D01*
X208485969Y-85183410D01*
X208643455Y-85346754D01*
X208755422Y-85467561D01*
X208810343Y-85533855D01*
X208812386Y-85537268D01*
X208818458Y-85582761D01*
X208795584Y-85657056D01*
X208738115Y-85770186D01*
X208640399Y-85932185D01*
X208496784Y-86153086D01*
X208305333Y-86437460D01*
X208135423Y-86687759D01*
X207983538Y-86912250D01*
X207858455Y-87097900D01*
X207768949Y-87231675D01*
X207723800Y-87300542D01*
X207720958Y-87305218D01*
X207726470Y-87371201D01*
X207768255Y-87499448D01*
X207837997Y-87665720D01*
X207862854Y-87718819D01*
X207971311Y-87955377D01*
X208087020Y-88223789D01*
X208181015Y-88456035D01*
X208248745Y-88628407D01*
X208302543Y-88759403D01*
X208333631Y-88827867D01*
X208337496Y-88833142D01*
X208394671Y-88841880D01*
X208529448Y-88865823D01*
X208723906Y-88901562D01*
X208960125Y-88945689D01*
X209220184Y-88994795D01*
X209486163Y-89045472D01*
X209740143Y-89094313D01*
X209964201Y-89137909D01*
X210140420Y-89172851D01*
X210250877Y-89195732D01*
X210277970Y-89202201D01*
X210305956Y-89218167D01*
X210327081Y-89254227D01*
X210342297Y-89322552D01*
X210352553Y-89435315D01*
X210358800Y-89604686D01*
X210361988Y-89842838D01*
X210363067Y-90161942D01*
X210363123Y-90292741D01*
X210363123Y-91356511D01*
X210107663Y-91406933D01*
X209965537Y-91434273D01*
X209753450Y-91474182D01*
X209497193Y-91521845D01*
X209222558Y-91572446D01*
X209146648Y-91586344D01*
X208893221Y-91635617D01*
X208672447Y-91684070D01*
X208502857Y-91727215D01*
X208402980Y-91760563D01*
X208386343Y-91770502D01*
X208345489Y-91840891D01*
X208286913Y-91977283D01*
X208221955Y-92152805D01*
X208209071Y-92190613D01*
X208123934Y-92425030D01*
X208018256Y-92689524D01*
X207914840Y-92927041D01*
X207914330Y-92928144D01*
X207742112Y-93300733D01*
X208308524Y-94133893D01*
X208874935Y-94967053D01*
X208147702Y-95695500D01*
X207927748Y-95912302D01*
X207727132Y-96103414D01*
X207557122Y-96258636D01*
X207428985Y-96367764D01*
X207353989Y-96420595D01*
X207343231Y-96423947D01*
X207280067Y-96397549D01*
X207151180Y-96324160D01*
X206970649Y-96212484D01*
X206752554Y-96071224D01*
X206516754Y-95913027D01*
X206277436Y-95751664D01*
X206064059Y-95611252D01*
X205890175Y-95500431D01*
X205769334Y-95427838D01*
X205715263Y-95402108D01*
X205649294Y-95423880D01*
X205524198Y-95481251D01*
X205365780Y-95562300D01*
X205348987Y-95571309D01*
X205135652Y-95678300D01*
X204989364Y-95730772D01*
X204898380Y-95731330D01*
X204850959Y-95682580D01*
X204850683Y-95681897D01*
X204826980Y-95624164D01*
X204770449Y-95487115D01*
X204685474Y-95281357D01*
X204576438Y-95017498D01*
X204447724Y-94706144D01*
X204303715Y-94357904D01*
X204164251Y-94020744D01*
X204010980Y-93648666D01*
X203870251Y-93303987D01*
X203746282Y-92997271D01*
X203643291Y-92739085D01*
X203565496Y-92539994D01*
X203517114Y-92410565D01*
X203502204Y-92362261D01*
X203539594Y-92306850D01*
X203637398Y-92218538D01*
X203767815Y-92121174D01*
X204139223Y-91813253D01*
X204429530Y-91460304D01*
X204635256Y-91069761D01*
X204752923Y-90649057D01*
X204779051Y-90205629D01*
X204760060Y-90000958D01*
X204656583Y-89576323D01*
X204478373Y-89201336D01*
X204236482Y-88879696D01*
X203941963Y-88615101D01*
X203605871Y-88411250D01*
X203239258Y-88271842D01*
X202853177Y-88200574D01*
X202458681Y-88201145D01*
X202066825Y-88277254D01*
X201688660Y-88432599D01*
X201335240Y-88670879D01*
X201187727Y-88805639D01*
X200904816Y-89151679D01*
X200707832Y-89529826D01*
X200595464Y-89929055D01*
X200566401Y-90338345D01*
X200619331Y-90746672D01*
X200752943Y-91143013D01*
X200965925Y-91516345D01*
X201256966Y-91855645D01*
X201582186Y-92121174D01*
X201717652Y-92222671D01*
X201813349Y-92310025D01*
X201847797Y-92362343D01*
X201829760Y-92419398D01*
X201778462Y-92555698D01*
X201698124Y-92760678D01*
X201592964Y-93023772D01*
X201467204Y-93334416D01*
X201325063Y-93682043D01*
X201185365Y-94020826D01*
X201031241Y-94393222D01*
X200888482Y-94738307D01*
X200761471Y-95045477D01*
X200654589Y-95304125D01*
X200572220Y-95503647D01*
X200518747Y-95633435D01*
X200498933Y-95681897D01*
X200452124Y-95731129D01*
X200361583Y-95730985D01*
X200215658Y-95678877D01*
X200002698Y-95572216D01*
X200001014Y-95571309D01*
X199840670Y-95488536D01*
X199711052Y-95428242D01*
X199637963Y-95402346D01*
X199634737Y-95402108D01*
X199579716Y-95428374D01*
X199458243Y-95501416D01*
X199283871Y-95612595D01*
X199070150Y-95753273D01*
X198833247Y-95913027D01*
X198592055Y-96074779D01*
X198374674Y-96215450D01*
X198195184Y-96326335D01*
X198067664Y-96398730D01*
X198006770Y-96423947D01*
X197950697Y-96390803D01*
X197837960Y-96298173D01*
X197679823Y-96156257D01*
X197487551Y-95975255D01*
X197272409Y-95765369D01*
X197202048Y-95695249D01*
X196474566Y-94966552D01*
X197028295Y-94153900D01*
X197196577Y-93904342D01*
X197344271Y-93680366D01*
X197463090Y-93494949D01*
X197544750Y-93361065D01*
X197580964Y-93291690D01*
X197582025Y-93286755D01*
X197562933Y-93221364D01*
X197511582Y-93089825D01*
X197436860Y-92914181D01*
X197384412Y-92796591D01*
X197286346Y-92571461D01*
X197193993Y-92344015D01*
X197122394Y-92151839D01*
X197102944Y-92093295D01*
X197047686Y-91936956D01*
X196993669Y-91816158D01*
X196963999Y-91770502D01*
X196898524Y-91742561D01*
X196755624Y-91702951D01*
X196553839Y-91656162D01*
X196311712Y-91606683D01*
X196203353Y-91586344D01*
X195928189Y-91535781D01*
X195664254Y-91486822D01*
X195437341Y-91444281D01*
X195273239Y-91412975D01*
X195242338Y-91406933D01*
X194986878Y-91356511D01*
X194986878Y-90292741D01*
X194987452Y-89942950D01*
X194989807Y-89678300D01*
X194994893Y-89486622D01*
X195003661Y-89355744D01*
X195017062Y-89273493D01*
X195036046Y-89227698D01*
X195061562Y-89206188D01*
X195072031Y-89202201D01*
X195135174Y-89188056D01*
X195274675Y-89159834D01*
X195472611Y-89120943D01*
X195711065Y-89074792D01*
X195972114Y-89024788D01*
X196237839Y-88974341D01*
X196490319Y-88926858D01*
X196711635Y-88885748D01*
X196883866Y-88854419D01*
X196989092Y-88836278D01*
X197012505Y-88833142D01*
X197033716Y-88791173D01*
X197080668Y-88679370D01*
X197144581Y-88518888D01*
X197168986Y-88456035D01*
X197267420Y-88213203D01*
X197383334Y-87944918D01*
X197487147Y-87718819D01*
X197563535Y-87545935D01*
X197614356Y-87403877D01*
X197631321Y-87316878D01*
X197628616Y-87305218D01*
X197592761Y-87250170D01*
X197510892Y-87127739D01*
X197391795Y-86950962D01*
X197244258Y-86732877D01*
X197077069Y-86486520D01*
X197044010Y-86437891D01*
X196850020Y-86149773D01*
X196707421Y-85930377D01*
X196610527Y-85769602D01*
X196553654Y-85657346D01*
X196531116Y-85583510D01*
X196537228Y-85537990D01*
X196537384Y-85537700D01*
X196585489Y-85477910D01*
X196691889Y-85362319D01*
X196845052Y-85202909D01*
X197033445Y-85011665D01*
X197245535Y-84800568D01*
X197269453Y-84777008D01*
X197536738Y-84518172D01*
X197743008Y-84328117D01*
X197892408Y-84203337D01*
X197989080Y-84140327D01*
X198031661Y-84132195D01*
X198093804Y-84167672D01*
X198222763Y-84249623D01*
X198405222Y-84369292D01*
X198627867Y-84517926D01*
X198877384Y-84686772D01*
X198935636Y-84726495D01*
X199762684Y-85291276D01*
X200136179Y-85121760D01*
X200363316Y-85022971D01*
X200607128Y-84923617D01*
X200816725Y-84844401D01*
X200825958Y-84841142D01*
X200989905Y-84781129D01*
X201116285Y-84730382D01*
X201177863Y-84699841D01*
X201177968Y-84699753D01*
X201197507Y-84644548D01*
X201230721Y-84508779D01*
X201274313Y-84307709D01*
X201324984Y-84056599D01*
X201379439Y-83770713D01*
X201383894Y-83746612D01*
X201438518Y-83452059D01*
X201488664Y-83184684D01*
X201531102Y-82961480D01*
X201562598Y-82799439D01*
X201579923Y-82715553D01*
X201580225Y-82714272D01*
X201590768Y-82678588D01*
X201611269Y-82651646D01*
X201654011Y-82632218D01*
X201731276Y-82619075D01*
X201855348Y-82610989D01*
X202038509Y-82606732D01*
X202293042Y-82605075D01*
X202631231Y-82604790D01*
X202675000Y-82604790D01*
X203023357Y-82604997D01*
G37*
X203023357Y-82604997D02*
X203286677Y-82606439D01*
X203477246Y-82610342D01*
X203607345Y-82617937D01*
X203689257Y-82630450D01*
X203735266Y-82649111D01*
X203757653Y-82675148D01*
X203768702Y-82709788D01*
X203769776Y-82714272D01*
X203786559Y-82795189D01*
X203817625Y-82954842D01*
X203859742Y-83176238D01*
X203909679Y-83442385D01*
X203964203Y-83736290D01*
X203966107Y-83746612D01*
X204020723Y-84034636D01*
X204071822Y-84289115D01*
X204116106Y-84494785D01*
X204150279Y-84636385D01*
X204171043Y-84698650D01*
X204172033Y-84699753D01*
X204233199Y-84730159D01*
X204359310Y-84780828D01*
X204523131Y-84840822D01*
X204524043Y-84841142D01*
X204730388Y-84918704D01*
X204973660Y-85017507D01*
X205202969Y-85116848D01*
X205213822Y-85121760D01*
X205587317Y-85291276D01*
X206414365Y-84726495D01*
X206668077Y-84554320D01*
X206897902Y-84400395D01*
X207090525Y-84273474D01*
X207232632Y-84182309D01*
X207310907Y-84135655D01*
X207318340Y-84132195D01*
X207375224Y-84147600D01*
X207481469Y-84221927D01*
X207641219Y-84358681D01*
X207858616Y-84561368D01*
X208080548Y-84777008D01*
X208294491Y-84989503D01*
X208485969Y-85183410D01*
X208643455Y-85346754D01*
X208755422Y-85467561D01*
X208810343Y-85533855D01*
X208812386Y-85537268D01*
X208818458Y-85582761D01*
X208795584Y-85657056D01*
X208738115Y-85770186D01*
X208640399Y-85932185D01*
X208496784Y-86153086D01*
X208305333Y-86437460D01*
X208135423Y-86687759D01*
X207983538Y-86912250D01*
X207858455Y-87097900D01*
X207768949Y-87231675D01*
X207723800Y-87300542D01*
X207720958Y-87305218D01*
X207726470Y-87371201D01*
X207768255Y-87499448D01*
X207837997Y-87665720D01*
X207862854Y-87718819D01*
X207971311Y-87955377D01*
X208087020Y-88223789D01*
X208181015Y-88456035D01*
X208248745Y-88628407D01*
X208302543Y-88759403D01*
X208333631Y-88827867D01*
X208337496Y-88833142D01*
X208394671Y-88841880D01*
X208529448Y-88865823D01*
X208723906Y-88901562D01*
X208960125Y-88945689D01*
X209220184Y-88994795D01*
X209486163Y-89045472D01*
X209740143Y-89094313D01*
X209964201Y-89137909D01*
X210140420Y-89172851D01*
X210250877Y-89195732D01*
X210277970Y-89202201D01*
X210305956Y-89218167D01*
X210327081Y-89254227D01*
X210342297Y-89322552D01*
X210352553Y-89435315D01*
X210358800Y-89604686D01*
X210361988Y-89842838D01*
X210363067Y-90161942D01*
X210363123Y-90292741D01*
X210363123Y-91356511D01*
X210107663Y-91406933D01*
X209965537Y-91434273D01*
X209753450Y-91474182D01*
X209497193Y-91521845D01*
X209222558Y-91572446D01*
X209146648Y-91586344D01*
X208893221Y-91635617D01*
X208672447Y-91684070D01*
X208502857Y-91727215D01*
X208402980Y-91760563D01*
X208386343Y-91770502D01*
X208345489Y-91840891D01*
X208286913Y-91977283D01*
X208221955Y-92152805D01*
X208209071Y-92190613D01*
X208123934Y-92425030D01*
X208018256Y-92689524D01*
X207914840Y-92927041D01*
X207914330Y-92928144D01*
X207742112Y-93300733D01*
X208308524Y-94133893D01*
X208874935Y-94967053D01*
X208147702Y-95695500D01*
X207927748Y-95912302D01*
X207727132Y-96103414D01*
X207557122Y-96258636D01*
X207428985Y-96367764D01*
X207353989Y-96420595D01*
X207343231Y-96423947D01*
X207280067Y-96397549D01*
X207151180Y-96324160D01*
X206970649Y-96212484D01*
X206752554Y-96071224D01*
X206516754Y-95913027D01*
X206277436Y-95751664D01*
X206064059Y-95611252D01*
X205890175Y-95500431D01*
X205769334Y-95427838D01*
X205715263Y-95402108D01*
X205649294Y-95423880D01*
X205524198Y-95481251D01*
X205365780Y-95562300D01*
X205348987Y-95571309D01*
X205135652Y-95678300D01*
X204989364Y-95730772D01*
X204898380Y-95731330D01*
X204850959Y-95682580D01*
X204850683Y-95681897D01*
X204826980Y-95624164D01*
X204770449Y-95487115D01*
X204685474Y-95281357D01*
X204576438Y-95017498D01*
X204447724Y-94706144D01*
X204303715Y-94357904D01*
X204164251Y-94020744D01*
X204010980Y-93648666D01*
X203870251Y-93303987D01*
X203746282Y-92997271D01*
X203643291Y-92739085D01*
X203565496Y-92539994D01*
X203517114Y-92410565D01*
X203502204Y-92362261D01*
X203539594Y-92306850D01*
X203637398Y-92218538D01*
X203767815Y-92121174D01*
X204139223Y-91813253D01*
X204429530Y-91460304D01*
X204635256Y-91069761D01*
X204752923Y-90649057D01*
X204779051Y-90205629D01*
X204760060Y-90000958D01*
X204656583Y-89576323D01*
X204478373Y-89201336D01*
X204236482Y-88879696D01*
X203941963Y-88615101D01*
X203605871Y-88411250D01*
X203239258Y-88271842D01*
X202853177Y-88200574D01*
X202458681Y-88201145D01*
X202066825Y-88277254D01*
X201688660Y-88432599D01*
X201335240Y-88670879D01*
X201187727Y-88805639D01*
X200904816Y-89151679D01*
X200707832Y-89529826D01*
X200595464Y-89929055D01*
X200566401Y-90338345D01*
X200619331Y-90746672D01*
X200752943Y-91143013D01*
X200965925Y-91516345D01*
X201256966Y-91855645D01*
X201582186Y-92121174D01*
X201717652Y-92222671D01*
X201813349Y-92310025D01*
X201847797Y-92362343D01*
X201829760Y-92419398D01*
X201778462Y-92555698D01*
X201698124Y-92760678D01*
X201592964Y-93023772D01*
X201467204Y-93334416D01*
X201325063Y-93682043D01*
X201185365Y-94020826D01*
X201031241Y-94393222D01*
X200888482Y-94738307D01*
X200761471Y-95045477D01*
X200654589Y-95304125D01*
X200572220Y-95503647D01*
X200518747Y-95633435D01*
X200498933Y-95681897D01*
X200452124Y-95731129D01*
X200361583Y-95730985D01*
X200215658Y-95678877D01*
X200002698Y-95572216D01*
X200001014Y-95571309D01*
X199840670Y-95488536D01*
X199711052Y-95428242D01*
X199637963Y-95402346D01*
X199634737Y-95402108D01*
X199579716Y-95428374D01*
X199458243Y-95501416D01*
X199283871Y-95612595D01*
X199070150Y-95753273D01*
X198833247Y-95913027D01*
X198592055Y-96074779D01*
X198374674Y-96215450D01*
X198195184Y-96326335D01*
X198067664Y-96398730D01*
X198006770Y-96423947D01*
X197950697Y-96390803D01*
X197837960Y-96298173D01*
X197679823Y-96156257D01*
X197487551Y-95975255D01*
X197272409Y-95765369D01*
X197202048Y-95695249D01*
X196474566Y-94966552D01*
X197028295Y-94153900D01*
X197196577Y-93904342D01*
X197344271Y-93680366D01*
X197463090Y-93494949D01*
X197544750Y-93361065D01*
X197580964Y-93291690D01*
X197582025Y-93286755D01*
X197562933Y-93221364D01*
X197511582Y-93089825D01*
X197436860Y-92914181D01*
X197384412Y-92796591D01*
X197286346Y-92571461D01*
X197193993Y-92344015D01*
X197122394Y-92151839D01*
X197102944Y-92093295D01*
X197047686Y-91936956D01*
X196993669Y-91816158D01*
X196963999Y-91770502D01*
X196898524Y-91742561D01*
X196755624Y-91702951D01*
X196553839Y-91656162D01*
X196311712Y-91606683D01*
X196203353Y-91586344D01*
X195928189Y-91535781D01*
X195664254Y-91486822D01*
X195437341Y-91444281D01*
X195273239Y-91412975D01*
X195242338Y-91406933D01*
X194986878Y-91356511D01*
X194986878Y-90292741D01*
X194987452Y-89942950D01*
X194989807Y-89678300D01*
X194994893Y-89486622D01*
X195003661Y-89355744D01*
X195017062Y-89273493D01*
X195036046Y-89227698D01*
X195061562Y-89206188D01*
X195072031Y-89202201D01*
X195135174Y-89188056D01*
X195274675Y-89159834D01*
X195472611Y-89120943D01*
X195711065Y-89074792D01*
X195972114Y-89024788D01*
X196237839Y-88974341D01*
X196490319Y-88926858D01*
X196711635Y-88885748D01*
X196883866Y-88854419D01*
X196989092Y-88836278D01*
X197012505Y-88833142D01*
X197033716Y-88791173D01*
X197080668Y-88679370D01*
X197144581Y-88518888D01*
X197168986Y-88456035D01*
X197267420Y-88213203D01*
X197383334Y-87944918D01*
X197487147Y-87718819D01*
X197563535Y-87545935D01*
X197614356Y-87403877D01*
X197631321Y-87316878D01*
X197628616Y-87305218D01*
X197592761Y-87250170D01*
X197510892Y-87127739D01*
X197391795Y-86950962D01*
X197244258Y-86732877D01*
X197077069Y-86486520D01*
X197044010Y-86437891D01*
X196850020Y-86149773D01*
X196707421Y-85930377D01*
X196610527Y-85769602D01*
X196553654Y-85657346D01*
X196531116Y-85583510D01*
X196537228Y-85537990D01*
X196537384Y-85537700D01*
X196585489Y-85477910D01*
X196691889Y-85362319D01*
X196845052Y-85202909D01*
X197033445Y-85011665D01*
X197245535Y-84800568D01*
X197269453Y-84777008D01*
X197536738Y-84518172D01*
X197743008Y-84328117D01*
X197892408Y-84203337D01*
X197989080Y-84140327D01*
X198031661Y-84132195D01*
X198093804Y-84167672D01*
X198222763Y-84249623D01*
X198405222Y-84369292D01*
X198627867Y-84517926D01*
X198877384Y-84686772D01*
X198935636Y-84726495D01*
X199762684Y-85291276D01*
X200136179Y-85121760D01*
X200363316Y-85022971D01*
X200607128Y-84923617D01*
X200816725Y-84844401D01*
X200825958Y-84841142D01*
X200989905Y-84781129D01*
X201116285Y-84730382D01*
X201177863Y-84699841D01*
X201177968Y-84699753D01*
X201197507Y-84644548D01*
X201230721Y-84508779D01*
X201274313Y-84307709D01*
X201324984Y-84056599D01*
X201379439Y-83770713D01*
X201383894Y-83746612D01*
X201438518Y-83452059D01*
X201488664Y-83184684D01*
X201531102Y-82961480D01*
X201562598Y-82799439D01*
X201579923Y-82715553D01*
X201580225Y-82714272D01*
X201590768Y-82678588D01*
X201611269Y-82651646D01*
X201654011Y-82632218D01*
X201731276Y-82619075D01*
X201855348Y-82610989D01*
X202038509Y-82606732D01*
X202293042Y-82605075D01*
X202631231Y-82604790D01*
X202675000Y-82604790D01*
X203023357Y-82604997D01*
G36*
X209437399Y-99714233D02*
G01*
X209629917Y-99840057D01*
X209722774Y-99952696D01*
X209796340Y-100157092D01*
X209802183Y-100318830D01*
X209788947Y-100535094D01*
X209290192Y-100753398D01*
X209047685Y-100864930D01*
X208889229Y-100954650D01*
X208806836Y-101032361D01*
X208792518Y-101107867D01*
X208838287Y-101190971D01*
X208888755Y-101246054D01*
X209035605Y-101334389D01*
X209195328Y-101340579D01*
X209342020Y-101271735D01*
X209449781Y-101134972D01*
X209469055Y-101086680D01*
X209561376Y-100935848D01*
X209667588Y-100871567D01*
X209813276Y-100816576D01*
X209813276Y-101025057D01*
X209800396Y-101166926D01*
X209749943Y-101286563D01*
X209644197Y-101423927D01*
X209628480Y-101441777D01*
X209510855Y-101563986D01*
X209409746Y-101629570D01*
X209283250Y-101659742D01*
X209178384Y-101669623D01*
X208990811Y-101672085D01*
X208857284Y-101640892D01*
X208773983Y-101594579D01*
X208643063Y-101492735D01*
X208552439Y-101382591D01*
X208495087Y-101244069D01*
X208463980Y-101057090D01*
X208452094Y-100801577D01*
X208451145Y-100671894D01*
X208454371Y-100516421D01*
X208748166Y-100516421D01*
X208751573Y-100599827D01*
X208760066Y-100613487D01*
X208816110Y-100594931D01*
X208936718Y-100545822D01*
X209097913Y-100476002D01*
X209131622Y-100460995D01*
X209335339Y-100357404D01*
X209447579Y-100266359D01*
X209472247Y-100181081D01*
X209413245Y-100094794D01*
X209364518Y-100056667D01*
X209188694Y-99980417D01*
X209024127Y-99993014D01*
X208886354Y-100086086D01*
X208790913Y-100251256D01*
X208760314Y-100382357D01*
X208748166Y-100516421D01*
X208454371Y-100516421D01*
X208457432Y-100368919D01*
X208480599Y-100144756D01*
X208526490Y-99981526D01*
X208600954Y-99861352D01*
X208709836Y-99766355D01*
X208757305Y-99735655D01*
X208972938Y-99655703D01*
X209209021Y-99650672D01*
X209437399Y-99714233D01*
G37*
X209437399Y-99714233D02*
X209629917Y-99840057D01*
X209722774Y-99952696D01*
X209796340Y-100157092D01*
X209802183Y-100318830D01*
X209788947Y-100535094D01*
X209290192Y-100753398D01*
X209047685Y-100864930D01*
X208889229Y-100954650D01*
X208806836Y-101032361D01*
X208792518Y-101107867D01*
X208838287Y-101190971D01*
X208888755Y-101246054D01*
X209035605Y-101334389D01*
X209195328Y-101340579D01*
X209342020Y-101271735D01*
X209449781Y-101134972D01*
X209469055Y-101086680D01*
X209561376Y-100935848D01*
X209667588Y-100871567D01*
X209813276Y-100816576D01*
X209813276Y-101025057D01*
X209800396Y-101166926D01*
X209749943Y-101286563D01*
X209644197Y-101423927D01*
X209628480Y-101441777D01*
X209510855Y-101563986D01*
X209409746Y-101629570D01*
X209283250Y-101659742D01*
X209178384Y-101669623D01*
X208990811Y-101672085D01*
X208857284Y-101640892D01*
X208773983Y-101594579D01*
X208643063Y-101492735D01*
X208552439Y-101382591D01*
X208495087Y-101244069D01*
X208463980Y-101057090D01*
X208452094Y-100801577D01*
X208451145Y-100671894D01*
X208454371Y-100516421D01*
X208748166Y-100516421D01*
X208751573Y-100599827D01*
X208760066Y-100613487D01*
X208816110Y-100594931D01*
X208936718Y-100545822D01*
X209097913Y-100476002D01*
X209131622Y-100460995D01*
X209335339Y-100357404D01*
X209447579Y-100266359D01*
X209472247Y-100181081D01*
X209413245Y-100094794D01*
X209364518Y-100056667D01*
X209188694Y-99980417D01*
X209024127Y-99993014D01*
X208886354Y-100086086D01*
X208790913Y-100251256D01*
X208760314Y-100382357D01*
X208748166Y-100516421D01*
X208454371Y-100516421D01*
X208457432Y-100368919D01*
X208480599Y-100144756D01*
X208526490Y-99981526D01*
X208600954Y-99861352D01*
X208709836Y-99766355D01*
X208757305Y-99735655D01*
X208972938Y-99655703D01*
X209209021Y-99650672D01*
X209437399Y-99714233D01*
G36*
X207757816Y-99686697D02*
G01*
X207815976Y-99712116D01*
X207954795Y-99822059D01*
X208073505Y-99981030D01*
X208146921Y-100150677D01*
X208158870Y-100234313D01*
X208118809Y-100351078D01*
X208030935Y-100412862D01*
X207936718Y-100450273D01*
X207893577Y-100457167D01*
X207872571Y-100407138D01*
X207831090Y-100298269D01*
X207812892Y-100249076D01*
X207710848Y-100078913D01*
X207563103Y-99994038D01*
X207373655Y-99996648D01*
X207359623Y-99999991D01*
X207258481Y-100047945D01*
X207184124Y-100141432D01*
X207133338Y-100291939D01*
X207102908Y-100510951D01*
X207089618Y-100809956D01*
X207088372Y-100969056D01*
X207087754Y-101219855D01*
X207083705Y-101390825D01*
X207072933Y-101499454D01*
X207052147Y-101563230D01*
X207018055Y-101599643D01*
X206967365Y-101626179D01*
X206964435Y-101627515D01*
X206866818Y-101668787D01*
X206818458Y-101683985D01*
X206811027Y-101638037D01*
X206804666Y-101511034D01*
X206799832Y-101319235D01*
X206796985Y-101078902D01*
X206796418Y-100903024D01*
X206799313Y-100562688D01*
X206810637Y-100304495D01*
X206834346Y-100113374D01*
X206874397Y-99974253D01*
X206934747Y-99872060D01*
X207019353Y-99791724D01*
X207102899Y-99735655D01*
X207303791Y-99661032D01*
X207537596Y-99644202D01*
X207757816Y-99686697D01*
G37*
X207757816Y-99686697D02*
X207815976Y-99712116D01*
X207954795Y-99822059D01*
X208073505Y-99981030D01*
X208146921Y-100150677D01*
X208158870Y-100234313D01*
X208118809Y-100351078D01*
X208030935Y-100412862D01*
X207936718Y-100450273D01*
X207893577Y-100457167D01*
X207872571Y-100407138D01*
X207831090Y-100298269D01*
X207812892Y-100249076D01*
X207710848Y-100078913D01*
X207563103Y-99994038D01*
X207373655Y-99996648D01*
X207359623Y-99999991D01*
X207258481Y-100047945D01*
X207184124Y-100141432D01*
X207133338Y-100291939D01*
X207102908Y-100510951D01*
X207089618Y-100809956D01*
X207088372Y-100969056D01*
X207087754Y-101219855D01*
X207083705Y-101390825D01*
X207072933Y-101499454D01*
X207052147Y-101563230D01*
X207018055Y-101599643D01*
X206967365Y-101626179D01*
X206964435Y-101627515D01*
X206866818Y-101668787D01*
X206818458Y-101683985D01*
X206811027Y-101638037D01*
X206804666Y-101511034D01*
X206799832Y-101319235D01*
X206796985Y-101078902D01*
X206796418Y-100903024D01*
X206799313Y-100562688D01*
X206810637Y-100304495D01*
X206834346Y-100113374D01*
X206874397Y-99974253D01*
X206934747Y-99872060D01*
X207019353Y-99791724D01*
X207102899Y-99735655D01*
X207303791Y-99661032D01*
X207537596Y-99644202D01*
X207757816Y-99686697D01*
G36*
X206055678Y-99678594D02*
G01*
X206195782Y-99742323D01*
X206305750Y-99819543D01*
X206386324Y-99905887D01*
X206441954Y-100017272D01*
X206477089Y-100169616D01*
X206496179Y-100378835D01*
X206503672Y-100660846D01*
X206504464Y-100846555D01*
X206504464Y-101571046D01*
X206380527Y-101627515D01*
X206282910Y-101668787D01*
X206234550Y-101683985D01*
X206225298Y-101638762D01*
X206217958Y-101516824D01*
X206213464Y-101338772D01*
X206212510Y-101197395D01*
X206208410Y-100993146D01*
X206197354Y-100831113D01*
X206181211Y-100731891D01*
X206168387Y-100710805D01*
X206082186Y-100732338D01*
X205946862Y-100787566D01*
X205790170Y-100862436D01*
X205639863Y-100942892D01*
X205523693Y-101014880D01*
X205469413Y-101064346D01*
X205469198Y-101064881D01*
X205473867Y-101156428D01*
X205515732Y-101243820D01*
X205589235Y-101314802D01*
X205696516Y-101338543D01*
X205788202Y-101335777D01*
X205918058Y-101333741D01*
X205986221Y-101364164D01*
X206027159Y-101444543D01*
X206032321Y-101459700D01*
X206050067Y-101574331D01*
X206002609Y-101643934D01*
X205878907Y-101677105D01*
X205745281Y-101683240D01*
X205504817Y-101637763D01*
X205380338Y-101572817D01*
X205226605Y-101420246D01*
X205145073Y-101232971D01*
X205137756Y-101035085D01*
X205206669Y-100850685D01*
X205310328Y-100735134D01*
X205413823Y-100670442D01*
X205576492Y-100588542D01*
X205766054Y-100505486D01*
X205797650Y-100492795D01*
X206005869Y-100400908D01*
X206125898Y-100319923D01*
X206164501Y-100239413D01*
X206128440Y-100148950D01*
X206066533Y-100078238D01*
X205920213Y-99991170D01*
X205759217Y-99984640D01*
X205611573Y-100051735D01*
X205505310Y-100185544D01*
X205491362Y-100220067D01*
X205410160Y-100347042D01*
X205291608Y-100441309D01*
X205142012Y-100518668D01*
X205142012Y-100299307D01*
X205150817Y-100165280D01*
X205188570Y-100059644D01*
X205272279Y-99946939D01*
X205352636Y-99860127D01*
X205477591Y-99737204D01*
X205574677Y-99671171D01*
X205678954Y-99644684D01*
X205796989Y-99640307D01*
X206055678Y-99678594D01*
G37*
X206055678Y-99678594D02*
X206195782Y-99742323D01*
X206305750Y-99819543D01*
X206386324Y-99905887D01*
X206441954Y-100017272D01*
X206477089Y-100169616D01*
X206496179Y-100378835D01*
X206503672Y-100660846D01*
X206504464Y-100846555D01*
X206504464Y-101571046D01*
X206380527Y-101627515D01*
X206282910Y-101668787D01*
X206234550Y-101683985D01*
X206225298Y-101638762D01*
X206217958Y-101516824D01*
X206213464Y-101338772D01*
X206212510Y-101197395D01*
X206208410Y-100993146D01*
X206197354Y-100831113D01*
X206181211Y-100731891D01*
X206168387Y-100710805D01*
X206082186Y-100732338D01*
X205946862Y-100787566D01*
X205790170Y-100862436D01*
X205639863Y-100942892D01*
X205523693Y-101014880D01*
X205469413Y-101064346D01*
X205469198Y-101064881D01*
X205473867Y-101156428D01*
X205515732Y-101243820D01*
X205589235Y-101314802D01*
X205696516Y-101338543D01*
X205788202Y-101335777D01*
X205918058Y-101333741D01*
X205986221Y-101364164D01*
X206027159Y-101444543D01*
X206032321Y-101459700D01*
X206050067Y-101574331D01*
X206002609Y-101643934D01*
X205878907Y-101677105D01*
X205745281Y-101683240D01*
X205504817Y-101637763D01*
X205380338Y-101572817D01*
X205226605Y-101420246D01*
X205145073Y-101232971D01*
X205137756Y-101035085D01*
X205206669Y-100850685D01*
X205310328Y-100735134D01*
X205413823Y-100670442D01*
X205576492Y-100588542D01*
X205766054Y-100505486D01*
X205797650Y-100492795D01*
X206005869Y-100400908D01*
X206125898Y-100319923D01*
X206164501Y-100239413D01*
X206128440Y-100148950D01*
X206066533Y-100078238D01*
X205920213Y-99991170D01*
X205759217Y-99984640D01*
X205611573Y-100051735D01*
X205505310Y-100185544D01*
X205491362Y-100220067D01*
X205410160Y-100347042D01*
X205291608Y-100441309D01*
X205142012Y-100518668D01*
X205142012Y-100299307D01*
X205150817Y-100165280D01*
X205188570Y-100059644D01*
X205272279Y-99946939D01*
X205352636Y-99860127D01*
X205477591Y-99737204D01*
X205574677Y-99671171D01*
X205678954Y-99644684D01*
X205796989Y-99640307D01*
X206055678Y-99678594D01*
G36*
X204831873Y-99686400D02*
G01*
X204839299Y-99814422D01*
X204845118Y-100008985D01*
X204848859Y-100254702D01*
X204850058Y-100512426D01*
X204850058Y-101384545D01*
X204696075Y-101538528D01*
X204589963Y-101633412D01*
X204496816Y-101671845D01*
X204369504Y-101669413D01*
X204318968Y-101663223D01*
X204161017Y-101645210D01*
X204030371Y-101634888D01*
X203998525Y-101633935D01*
X203891166Y-101640171D01*
X203737619Y-101655824D01*
X203678083Y-101663223D01*
X203531857Y-101674668D01*
X203433589Y-101649808D01*
X203336150Y-101573058D01*
X203300976Y-101538528D01*
X203146993Y-101384545D01*
X203146993Y-99753246D01*
X203270930Y-99696776D01*
X203377650Y-99654950D01*
X203440087Y-99640307D01*
X203456096Y-99686583D01*
X203471058Y-99815884D01*
X203483978Y-100013914D01*
X203493857Y-100266380D01*
X203498622Y-100479675D01*
X203511935Y-101319042D01*
X203628080Y-101335464D01*
X203733716Y-101323982D01*
X203785477Y-101286805D01*
X203799945Y-101217298D01*
X203812298Y-101069240D01*
X203821552Y-100861391D01*
X203826728Y-100612512D01*
X203827474Y-100484435D01*
X203828219Y-99747145D01*
X203981457Y-99693726D01*
X204089916Y-99657406D01*
X204148913Y-99640468D01*
X204150614Y-99640307D01*
X204156533Y-99686349D01*
X204163039Y-99814018D01*
X204169586Y-100007632D01*
X204175627Y-100251507D01*
X204179848Y-100479675D01*
X204193161Y-101319042D01*
X204485115Y-101319042D01*
X204498513Y-100553275D01*
X204511910Y-99787508D01*
X204654238Y-99713908D01*
X204759322Y-99663366D01*
X204821517Y-99640431D01*
X204823312Y-99640307D01*
X204831873Y-99686400D01*
G37*
X204831873Y-99686400D02*
X204839299Y-99814422D01*
X204845118Y-100008985D01*
X204848859Y-100254702D01*
X204850058Y-100512426D01*
X204850058Y-101384545D01*
X204696075Y-101538528D01*
X204589963Y-101633412D01*
X204496816Y-101671845D01*
X204369504Y-101669413D01*
X204318968Y-101663223D01*
X204161017Y-101645210D01*
X204030371Y-101634888D01*
X203998525Y-101633935D01*
X203891166Y-101640171D01*
X203737619Y-101655824D01*
X203678083Y-101663223D01*
X203531857Y-101674668D01*
X203433589Y-101649808D01*
X203336150Y-101573058D01*
X203300976Y-101538528D01*
X203146993Y-101384545D01*
X203146993Y-99753246D01*
X203270930Y-99696776D01*
X203377650Y-99654950D01*
X203440087Y-99640307D01*
X203456096Y-99686583D01*
X203471058Y-99815884D01*
X203483978Y-100013914D01*
X203493857Y-100266380D01*
X203498622Y-100479675D01*
X203511935Y-101319042D01*
X203628080Y-101335464D01*
X203733716Y-101323982D01*
X203785477Y-101286805D01*
X203799945Y-101217298D01*
X203812298Y-101069240D01*
X203821552Y-100861391D01*
X203826728Y-100612512D01*
X203827474Y-100484435D01*
X203828219Y-99747145D01*
X203981457Y-99693726D01*
X204089916Y-99657406D01*
X204148913Y-99640468D01*
X204150614Y-99640307D01*
X204156533Y-99686349D01*
X204163039Y-99814018D01*
X204169586Y-100007632D01*
X204175627Y-100251507D01*
X204179848Y-100479675D01*
X204193161Y-101319042D01*
X204485115Y-101319042D01*
X204498513Y-100553275D01*
X204511910Y-99787508D01*
X204654238Y-99713908D01*
X204759322Y-99663366D01*
X204821517Y-99640431D01*
X204823312Y-99640307D01*
X204831873Y-99686400D01*
G36*
X202854857Y-100044093D02*
G01*
X202854239Y-100407769D01*
X202851847Y-100687532D01*
X202846671Y-100896784D01*
X202837704Y-101048926D01*
X202823936Y-101157359D01*
X202804361Y-101235485D01*
X202777968Y-101296707D01*
X202757984Y-101331652D01*
X202592483Y-101521157D01*
X202382648Y-101639942D01*
X202150486Y-101682564D01*
X201918008Y-101643583D01*
X201779572Y-101573532D01*
X201634242Y-101452353D01*
X201535195Y-101304354D01*
X201475435Y-101110534D01*
X201447969Y-100851892D01*
X201444079Y-100662146D01*
X201444603Y-100648510D01*
X201784541Y-100648510D01*
X201786617Y-100866096D01*
X201796130Y-101010134D01*
X201818008Y-101104364D01*
X201857176Y-101172523D01*
X201903976Y-101223936D01*
X202061146Y-101323175D01*
X202229900Y-101331653D01*
X202389393Y-101248799D01*
X202401807Y-101237572D01*
X202454791Y-101179171D01*
X202488014Y-101109686D01*
X202506000Y-101006270D01*
X202513275Y-100846073D01*
X202514426Y-100668965D01*
X202511932Y-100446467D01*
X202501608Y-100298037D01*
X202479191Y-100200489D01*
X202440418Y-100130637D01*
X202408626Y-100093539D01*
X202260939Y-99999975D01*
X202090846Y-99988725D01*
X201928492Y-100060190D01*
X201897160Y-100086720D01*
X201843822Y-100145636D01*
X201810531Y-100215837D01*
X201792656Y-100320418D01*
X201785566Y-100482479D01*
X201784541Y-100648510D01*
X201444603Y-100648510D01*
X201455840Y-100356579D01*
X201495787Y-100126993D01*
X201570913Y-99954387D01*
X201688214Y-99819760D01*
X201779572Y-99750759D01*
X201945627Y-99676214D01*
X202138092Y-99641613D01*
X202316999Y-99650875D01*
X202417108Y-99688238D01*
X202456393Y-99698872D01*
X202482461Y-99659225D01*
X202500658Y-99552981D01*
X202514426Y-99391145D01*
X202529499Y-99210902D01*
X202550436Y-99102458D01*
X202588532Y-99040446D01*
X202655085Y-98999499D01*
X202696897Y-98981366D01*
X202855039Y-98915120D01*
X202854857Y-100044093D01*
G37*
X202854857Y-100044093D02*
X202854239Y-100407769D01*
X202851847Y-100687532D01*
X202846671Y-100896784D01*
X202837704Y-101048926D01*
X202823936Y-101157359D01*
X202804361Y-101235485D01*
X202777968Y-101296707D01*
X202757984Y-101331652D01*
X202592483Y-101521157D01*
X202382648Y-101639942D01*
X202150486Y-101682564D01*
X201918008Y-101643583D01*
X201779572Y-101573532D01*
X201634242Y-101452353D01*
X201535195Y-101304354D01*
X201475435Y-101110534D01*
X201447969Y-100851892D01*
X201444079Y-100662146D01*
X201444603Y-100648510D01*
X201784541Y-100648510D01*
X201786617Y-100866096D01*
X201796130Y-101010134D01*
X201818008Y-101104364D01*
X201857176Y-101172523D01*
X201903976Y-101223936D01*
X202061146Y-101323175D01*
X202229900Y-101331653D01*
X202389393Y-101248799D01*
X202401807Y-101237572D01*
X202454791Y-101179171D01*
X202488014Y-101109686D01*
X202506000Y-101006270D01*
X202513275Y-100846073D01*
X202514426Y-100668965D01*
X202511932Y-100446467D01*
X202501608Y-100298037D01*
X202479191Y-100200489D01*
X202440418Y-100130637D01*
X202408626Y-100093539D01*
X202260939Y-99999975D01*
X202090846Y-99988725D01*
X201928492Y-100060190D01*
X201897160Y-100086720D01*
X201843822Y-100145636D01*
X201810531Y-100215837D01*
X201792656Y-100320418D01*
X201785566Y-100482479D01*
X201784541Y-100648510D01*
X201444603Y-100648510D01*
X201455840Y-100356579D01*
X201495787Y-100126993D01*
X201570913Y-99954387D01*
X201688214Y-99819760D01*
X201779572Y-99750759D01*
X201945627Y-99676214D01*
X202138092Y-99641613D01*
X202316999Y-99650875D01*
X202417108Y-99688238D01*
X202456393Y-99698872D01*
X202482461Y-99659225D01*
X202500658Y-99552981D01*
X202514426Y-99391145D01*
X202529499Y-99210902D01*
X202550436Y-99102458D01*
X202588532Y-99040446D01*
X202655085Y-98999499D01*
X202696897Y-98981366D01*
X202855039Y-98915120D01*
X202854857Y-100044093D01*
G36*
X200641572Y-99656534D02*
G01*
X200862609Y-99738099D01*
X201041683Y-99882366D01*
X201111720Y-99983920D01*
X201188071Y-100170268D01*
X201186485Y-100305010D01*
X201106347Y-100395631D01*
X201076696Y-100411040D01*
X200948674Y-100459084D01*
X200883294Y-100446776D01*
X200861148Y-100366098D01*
X200860020Y-100321533D01*
X200819477Y-100157581D01*
X200713802Y-100042891D01*
X200566924Y-99987497D01*
X200402773Y-100001435D01*
X200269337Y-100073827D01*
X200224269Y-100115120D01*
X200192323Y-100165216D01*
X200170744Y-100240942D01*
X200156773Y-100359128D01*
X200147655Y-100536600D01*
X200140631Y-100790186D01*
X200138812Y-100870479D01*
X200132178Y-101145158D01*
X200124636Y-101338481D01*
X200113325Y-101466388D01*
X200095385Y-101544822D01*
X200067955Y-101589725D01*
X200028177Y-101617038D01*
X200002710Y-101629105D01*
X199894556Y-101670367D01*
X199830890Y-101683985D01*
X199809854Y-101638505D01*
X199797013Y-101501006D01*
X199792300Y-101269902D01*
X199795644Y-100943604D01*
X199796686Y-100893276D01*
X199804035Y-100595581D01*
X199812726Y-100378205D01*
X199825092Y-100224153D01*
X199843470Y-100116430D01*
X199870195Y-100038042D01*
X199907602Y-99971994D01*
X199927170Y-99943691D01*
X200039366Y-99818467D01*
X200164850Y-99721063D01*
X200180213Y-99712561D01*
X200405223Y-99645433D01*
X200641572Y-99656534D01*
G37*
X200641572Y-99656534D02*
X200862609Y-99738099D01*
X201041683Y-99882366D01*
X201111720Y-99983920D01*
X201188071Y-100170268D01*
X201186485Y-100305010D01*
X201106347Y-100395631D01*
X201076696Y-100411040D01*
X200948674Y-100459084D01*
X200883294Y-100446776D01*
X200861148Y-100366098D01*
X200860020Y-100321533D01*
X200819477Y-100157581D01*
X200713802Y-100042891D01*
X200566924Y-99987497D01*
X200402773Y-100001435D01*
X200269337Y-100073827D01*
X200224269Y-100115120D01*
X200192323Y-100165216D01*
X200170744Y-100240942D01*
X200156773Y-100359128D01*
X200147655Y-100536600D01*
X200140631Y-100790186D01*
X200138812Y-100870479D01*
X200132178Y-101145158D01*
X200124636Y-101338481D01*
X200113325Y-101466388D01*
X200095385Y-101544822D01*
X200067955Y-101589725D01*
X200028177Y-101617038D01*
X200002710Y-101629105D01*
X199894556Y-101670367D01*
X199830890Y-101683985D01*
X199809854Y-101638505D01*
X199797013Y-101501006D01*
X199792300Y-101269902D01*
X199795644Y-100943604D01*
X199796686Y-100893276D01*
X199804035Y-100595581D01*
X199812726Y-100378205D01*
X199825092Y-100224153D01*
X199843470Y-100116430D01*
X199870195Y-100038042D01*
X199907602Y-99971994D01*
X199927170Y-99943691D01*
X200039366Y-99818467D01*
X200164850Y-99721063D01*
X200180213Y-99712561D01*
X200405223Y-99645433D01*
X200641572Y-99656534D01*
G36*
X198998241Y-99660601D02*
G01*
X199188905Y-99731403D01*
X199191086Y-99732764D01*
X199309006Y-99819550D01*
X199396060Y-99920973D01*
X199457286Y-100053145D01*
X199497723Y-100232182D01*
X199522409Y-100474195D01*
X199536382Y-100795299D01*
X199537607Y-100841048D01*
X199555200Y-101530869D01*
X199407152Y-101607427D01*
X199300030Y-101659163D01*
X199235351Y-101683678D01*
X199232359Y-101683985D01*
X199221166Y-101638751D01*
X199212275Y-101516736D01*
X199206806Y-101338468D01*
X199205613Y-101194116D01*
X199205586Y-100960271D01*
X199194896Y-100813419D01*
X199157633Y-100743376D01*
X199077888Y-100739958D01*
X198939749Y-100792983D01*
X198731188Y-100890454D01*
X198577829Y-100971409D01*
X198498952Y-101041644D01*
X198475764Y-101118194D01*
X198475728Y-101121982D01*
X198513993Y-101253852D01*
X198627283Y-101325091D01*
X198800664Y-101335410D01*
X198925550Y-101333620D01*
X198991399Y-101369589D01*
X199032464Y-101455985D01*
X199056099Y-101566054D01*
X199022039Y-101628508D01*
X199009214Y-101637446D01*
X198888472Y-101673343D01*
X198719388Y-101678426D01*
X198545261Y-101654631D01*
X198421876Y-101611147D01*
X198251287Y-101466309D01*
X198154319Y-101264694D01*
X198135115Y-101107180D01*
X198149770Y-100965104D01*
X198202801Y-100849127D01*
X198307806Y-100746121D01*
X198478386Y-100642954D01*
X198728138Y-100526496D01*
X198743353Y-100519914D01*
X198968329Y-100415981D01*
X199107157Y-100330743D01*
X199166662Y-100254147D01*
X199153672Y-100176139D01*
X199075012Y-100086664D01*
X199051490Y-100066073D01*
X198893933Y-99986236D01*
X198730677Y-99989597D01*
X198588495Y-100067874D01*
X198494160Y-100212781D01*
X198485395Y-100241224D01*
X198400038Y-100379174D01*
X198291729Y-100445620D01*
X198135115Y-100511471D01*
X198135115Y-100341097D01*
X198182756Y-100093454D01*
X198324159Y-99866307D01*
X198397742Y-99790318D01*
X198565009Y-99692790D01*
X198777726Y-99648640D01*
X198998241Y-99660601D01*
G37*
X198998241Y-99660601D02*
X199188905Y-99731403D01*
X199191086Y-99732764D01*
X199309006Y-99819550D01*
X199396060Y-99920973D01*
X199457286Y-100053145D01*
X199497723Y-100232182D01*
X199522409Y-100474195D01*
X199536382Y-100795299D01*
X199537607Y-100841048D01*
X199555200Y-101530869D01*
X199407152Y-101607427D01*
X199300030Y-101659163D01*
X199235351Y-101683678D01*
X199232359Y-101683985D01*
X199221166Y-101638751D01*
X199212275Y-101516736D01*
X199206806Y-101338468D01*
X199205613Y-101194116D01*
X199205586Y-100960271D01*
X199194896Y-100813419D01*
X199157633Y-100743376D01*
X199077888Y-100739958D01*
X198939749Y-100792983D01*
X198731188Y-100890454D01*
X198577829Y-100971409D01*
X198498952Y-101041644D01*
X198475764Y-101118194D01*
X198475728Y-101121982D01*
X198513993Y-101253852D01*
X198627283Y-101325091D01*
X198800664Y-101335410D01*
X198925550Y-101333620D01*
X198991399Y-101369589D01*
X199032464Y-101455985D01*
X199056099Y-101566054D01*
X199022039Y-101628508D01*
X199009214Y-101637446D01*
X198888472Y-101673343D01*
X198719388Y-101678426D01*
X198545261Y-101654631D01*
X198421876Y-101611147D01*
X198251287Y-101466309D01*
X198154319Y-101264694D01*
X198135115Y-101107180D01*
X198149770Y-100965104D01*
X198202801Y-100849127D01*
X198307806Y-100746121D01*
X198478386Y-100642954D01*
X198728138Y-100526496D01*
X198743353Y-100519914D01*
X198968329Y-100415981D01*
X199107157Y-100330743D01*
X199166662Y-100254147D01*
X199153672Y-100176139D01*
X199075012Y-100086664D01*
X199051490Y-100066073D01*
X198893933Y-99986236D01*
X198730677Y-99989597D01*
X198588495Y-100067874D01*
X198494160Y-100212781D01*
X198485395Y-100241224D01*
X198400038Y-100379174D01*
X198291729Y-100445620D01*
X198135115Y-100511471D01*
X198135115Y-100341097D01*
X198182756Y-100093454D01*
X198324159Y-99866307D01*
X198397742Y-99790318D01*
X198565009Y-99692790D01*
X198777726Y-99648640D01*
X198998241Y-99660601D01*
G36*
X196772663Y-99326429D02*
G01*
X196786923Y-99525313D01*
X196803302Y-99642511D01*
X196825998Y-99693632D01*
X196859212Y-99694286D01*
X196869981Y-99688183D01*
X197013233Y-99643997D01*
X197199575Y-99646577D01*
X197389024Y-99691999D01*
X197507517Y-99750759D01*
X197629009Y-99844631D01*
X197717823Y-99950865D01*
X197778792Y-100085850D01*
X197816750Y-100265976D01*
X197836532Y-100507633D01*
X197842970Y-100827211D01*
X197843086Y-100888516D01*
X197843161Y-101577147D01*
X197689923Y-101630566D01*
X197581087Y-101666908D01*
X197521374Y-101683828D01*
X197519617Y-101683985D01*
X197513736Y-101638100D01*
X197508732Y-101511539D01*
X197504984Y-101320941D01*
X197502873Y-101082948D01*
X197502548Y-100938252D01*
X197501871Y-100652955D01*
X197498386Y-100448480D01*
X197489912Y-100308334D01*
X197474266Y-100216023D01*
X197449269Y-100155053D01*
X197412738Y-100108931D01*
X197389929Y-100086720D01*
X197233249Y-99997214D01*
X197062274Y-99990511D01*
X196907150Y-100066208D01*
X196878463Y-100093539D01*
X196836387Y-100144929D01*
X196807201Y-100205886D01*
X196788571Y-100294025D01*
X196778161Y-100426961D01*
X196773637Y-100622309D01*
X196772663Y-100891652D01*
X196772663Y-101577147D01*
X196619425Y-101630566D01*
X196510589Y-101666908D01*
X196450876Y-101683828D01*
X196449119Y-101683985D01*
X196444625Y-101637414D01*
X196440575Y-101506051D01*
X196437130Y-101302422D01*
X196434453Y-101039054D01*
X196432706Y-100728471D01*
X196432051Y-100383201D01*
X196432050Y-100367843D01*
X196432050Y-99051701D01*
X196748334Y-98918289D01*
X196772663Y-99326429D01*
G37*
X196772663Y-99326429D02*
X196786923Y-99525313D01*
X196803302Y-99642511D01*
X196825998Y-99693632D01*
X196859212Y-99694286D01*
X196869981Y-99688183D01*
X197013233Y-99643997D01*
X197199575Y-99646577D01*
X197389024Y-99691999D01*
X197507517Y-99750759D01*
X197629009Y-99844631D01*
X197717823Y-99950865D01*
X197778792Y-100085850D01*
X197816750Y-100265976D01*
X197836532Y-100507633D01*
X197842970Y-100827211D01*
X197843086Y-100888516D01*
X197843161Y-101577147D01*
X197689923Y-101630566D01*
X197581087Y-101666908D01*
X197521374Y-101683828D01*
X197519617Y-101683985D01*
X197513736Y-101638100D01*
X197508732Y-101511539D01*
X197504984Y-101320941D01*
X197502873Y-101082948D01*
X197502548Y-100938252D01*
X197501871Y-100652955D01*
X197498386Y-100448480D01*
X197489912Y-100308334D01*
X197474266Y-100216023D01*
X197449269Y-100155053D01*
X197412738Y-100108931D01*
X197389929Y-100086720D01*
X197233249Y-99997214D01*
X197062274Y-99990511D01*
X196907150Y-100066208D01*
X196878463Y-100093539D01*
X196836387Y-100144929D01*
X196807201Y-100205886D01*
X196788571Y-100294025D01*
X196778161Y-100426961D01*
X196773637Y-100622309D01*
X196772663Y-100891652D01*
X196772663Y-101577147D01*
X196619425Y-101630566D01*
X196510589Y-101666908D01*
X196450876Y-101683828D01*
X196449119Y-101683985D01*
X196444625Y-101637414D01*
X196440575Y-101506051D01*
X196437130Y-101302422D01*
X196434453Y-101039054D01*
X196432706Y-100728471D01*
X196432051Y-100383201D01*
X196432050Y-100367843D01*
X196432050Y-99051701D01*
X196748334Y-98918289D01*
X196772663Y-99326429D01*
D11*
G04 #@! TO.C,J49*
X103060000Y-161950000D02*
X90320000Y-161950000D01*
X90320000Y-161950000D02*
X90320000Y-172190000D01*
X103060000Y-172190000D02*
X90320000Y-172190000D01*
X103060000Y-161950000D02*
X103060000Y-172190000D01*
X103060000Y-161950000D02*
X90320000Y-161950000D01*
X90320000Y-161950000D02*
X90320000Y-172190000D01*
X103060000Y-172190000D02*
X90320000Y-172190000D01*
X103060000Y-161950000D02*
X103060000Y-172190000D01*
X103440000Y-161570000D02*
X103440000Y-164570000D01*
X100440000Y-161570000D02*
X103440000Y-161570000D01*
G04 #@! TO.C,J47*
X102620000Y-212170000D02*
X102620000Y-196270000D01*
X97570000Y-212170000D02*
X102620000Y-212170000D01*
X97820000Y-211670000D02*
X97570000Y-212170000D01*
X92420000Y-211670000D02*
X97820000Y-211670000D01*
X92670000Y-212170000D02*
X92420000Y-211670000D01*
X90670000Y-212170000D02*
X92670000Y-212170000D01*
X90970000Y-211670000D02*
X90670000Y-212170000D01*
X90020000Y-211670000D02*
X90970000Y-211670000D01*
X90020000Y-196270000D02*
X90020000Y-211670000D01*
X102620000Y-196270000D02*
X90020000Y-196270000D01*
G04 #@! TO.C,R9*
X206784880Y-206572344D02*
X206784880Y-206118216D01*
X205314880Y-206572344D02*
X205314880Y-206118216D01*
G04 #@! TO.C,R8*
X219977640Y-79231984D02*
X219977640Y-78777856D01*
X218507640Y-79231984D02*
X218507640Y-78777856D01*
G04 #@! TO.C,R7*
X186739200Y-93296984D02*
X186739200Y-92842856D01*
X185269200Y-93296984D02*
X185269200Y-92842856D01*
G04 #@! TO.C,R6*
X187140520Y-78784184D02*
X187140520Y-78330056D01*
X185670520Y-78784184D02*
X185670520Y-78330056D01*
G04 #@! TO.C,R5*
X219764280Y-95151184D02*
X219764280Y-94697056D01*
X218294280Y-95151184D02*
X218294280Y-94697056D01*
G04 #@! TO.C,D9*
X202107680Y-208183040D02*
X202107680Y-205323040D01*
X200187680Y-208183040D02*
X202107680Y-208183040D01*
X200187680Y-205323040D02*
X200187680Y-208183040D01*
G04 #@! TO.C,D8*
X218221680Y-71770680D02*
X218221680Y-74630680D01*
X220141680Y-71770680D02*
X218221680Y-71770680D01*
X220141680Y-74630680D02*
X220141680Y-71770680D01*
G04 #@! TO.C,D7*
X185028960Y-85806720D02*
X185028960Y-88666720D01*
X186948960Y-85806720D02*
X185028960Y-85806720D01*
X186948960Y-88666720D02*
X186948960Y-85806720D01*
G04 #@! TO.C,D6*
X185445520Y-71488960D02*
X185445520Y-74348960D01*
X187365520Y-71488960D02*
X185445520Y-71488960D01*
X187365520Y-74348960D02*
X187365520Y-71488960D01*
G04 #@! TO.C,D5*
X218104840Y-88177920D02*
X218104840Y-91037920D01*
X220024840Y-88177920D02*
X218104840Y-88177920D01*
X220024840Y-91037920D02*
X220024840Y-88177920D01*
G04 #@! TO.C,U1*
X129489200Y-197540880D02*
X109423200Y-197540880D01*
X109423200Y-197540880D02*
X109423200Y-187888880D01*
X109423200Y-187888880D02*
X129743200Y-187888880D01*
X129743200Y-187888880D02*
X129743200Y-197540880D01*
X129743200Y-197540880D02*
X129489200Y-197540880D01*
G04 #@! TO.C,J48*
X112278440Y-175759800D02*
X111978440Y-175159800D01*
X111678440Y-175759800D02*
X112278440Y-175759800D01*
X111978440Y-175159800D02*
X111678440Y-175759800D01*
X129798440Y-172069800D02*
X129478440Y-172069800D01*
X129798440Y-168649800D02*
X129798440Y-172069800D01*
X129478440Y-168569800D02*
X129798440Y-168649800D01*
X129158440Y-168649800D02*
X129478440Y-168569800D01*
X129158440Y-172069800D02*
X129158440Y-168649800D01*
X129478440Y-172069800D02*
X129158440Y-172069800D01*
X128148440Y-173069800D02*
X128308440Y-173069800D01*
X127298440Y-172069800D02*
X126978440Y-172069800D01*
X127298440Y-168649800D02*
X127298440Y-172069800D01*
X126978440Y-168569800D02*
X127298440Y-168649800D01*
X126658440Y-168649800D02*
X126978440Y-168569800D01*
X126658440Y-172069800D02*
X126658440Y-168649800D01*
X126978440Y-172069800D02*
X126658440Y-172069800D01*
X125648440Y-173069800D02*
X125808440Y-173069800D01*
X124798440Y-172069800D02*
X124478440Y-172069800D01*
X124798440Y-168649800D02*
X124798440Y-172069800D01*
X124478440Y-168569800D02*
X124798440Y-168649800D01*
X124158440Y-168649800D02*
X124478440Y-168569800D01*
X124158440Y-172069800D02*
X124158440Y-168649800D01*
X124478440Y-172069800D02*
X124158440Y-172069800D01*
X123148440Y-173069800D02*
X123308440Y-173069800D01*
X122298440Y-172069800D02*
X121978440Y-172069800D01*
X122298440Y-168649800D02*
X122298440Y-172069800D01*
X121978440Y-168569800D02*
X122298440Y-168649800D01*
X121658440Y-168649800D02*
X121978440Y-168569800D01*
X121658440Y-172069800D02*
X121658440Y-168649800D01*
X121978440Y-172069800D02*
X121658440Y-172069800D01*
X120648440Y-173069800D02*
X120808440Y-173069800D01*
X119798440Y-172069800D02*
X119478440Y-172069800D01*
X119798440Y-168649800D02*
X119798440Y-172069800D01*
X119478440Y-168569800D02*
X119798440Y-168649800D01*
X119158440Y-168649800D02*
X119478440Y-168569800D01*
X119158440Y-172069800D02*
X119158440Y-168649800D01*
X119478440Y-172069800D02*
X119158440Y-172069800D01*
X118148440Y-173069800D02*
X118308440Y-173069800D01*
X117298440Y-172069800D02*
X116978440Y-172069800D01*
X117298440Y-168649800D02*
X117298440Y-172069800D01*
X116978440Y-168569800D02*
X117298440Y-168649800D01*
X116658440Y-168649800D02*
X116978440Y-168569800D01*
X116658440Y-172069800D02*
X116658440Y-168649800D01*
X116978440Y-172069800D02*
X116658440Y-172069800D01*
X115648440Y-173069800D02*
X115808440Y-173069800D01*
X114798440Y-172069800D02*
X114478440Y-172069800D01*
X114798440Y-168649800D02*
X114798440Y-172069800D01*
X114478440Y-168569800D02*
X114798440Y-168649800D01*
X114158440Y-168649800D02*
X114478440Y-168569800D01*
X114158440Y-172069800D02*
X114158440Y-168649800D01*
X114478440Y-172069800D02*
X114158440Y-172069800D01*
X113148440Y-173069800D02*
X113308440Y-173069800D01*
X112298440Y-172069800D02*
X111978440Y-172069800D01*
X112298440Y-168649800D02*
X112298440Y-172069800D01*
X111978440Y-168569800D02*
X112298440Y-168649800D01*
X111658440Y-168649800D02*
X111978440Y-168569800D01*
X111658440Y-172069800D02*
X111658440Y-168649800D01*
X111978440Y-172069800D02*
X111658440Y-172069800D01*
X110588440Y-172069800D02*
X130868440Y-172069800D01*
X130868440Y-173069800D02*
X132088440Y-173069800D01*
X130868440Y-168069800D02*
X130868440Y-173069800D01*
X132088440Y-168069800D02*
X130868440Y-168069800D01*
X110588440Y-173069800D02*
X109368440Y-173069800D01*
X110588440Y-168069800D02*
X110588440Y-173069800D01*
X109368440Y-168069800D02*
X110588440Y-168069800D01*
X130868440Y-175269800D02*
X130868440Y-173069800D01*
X132088440Y-175269800D02*
X130868440Y-175269800D01*
X132088440Y-166849800D02*
X132088440Y-175269800D01*
X109368440Y-166849800D02*
X132088440Y-166849800D01*
X109368440Y-175269800D02*
X109368440Y-166849800D01*
X110588440Y-175269800D02*
X109368440Y-175269800D01*
X110588440Y-173069800D02*
X110588440Y-175269800D01*
G04 #@! TO.C,J40*
X198421000Y-213305520D02*
X198421000Y-226045520D01*
X198421000Y-226045520D02*
X208661000Y-226045520D01*
X208661000Y-213305520D02*
X208661000Y-226045520D01*
X198421000Y-213305520D02*
X208661000Y-213305520D01*
X198421000Y-213305520D02*
X198421000Y-226045520D01*
X198421000Y-226045520D02*
X208661000Y-226045520D01*
X208661000Y-213305520D02*
X208661000Y-226045520D01*
X198421000Y-213305520D02*
X208661000Y-213305520D01*
X198041000Y-212925520D02*
X201041000Y-212925520D01*
X198041000Y-215925520D02*
X198041000Y-212925520D01*
G04 #@! TO.C,J46*
X222552000Y-72288520D02*
X222552000Y-69288520D01*
X222552000Y-69288520D02*
X225552000Y-69288520D01*
X222932000Y-69668520D02*
X233172000Y-69668520D01*
X233172000Y-69668520D02*
X233172000Y-82408520D01*
X222932000Y-82408520D02*
X233172000Y-82408520D01*
X222932000Y-69668520D02*
X222932000Y-82408520D01*
X222932000Y-69668520D02*
X233172000Y-69668520D01*
X233172000Y-69668520D02*
X233172000Y-82408520D01*
X222932000Y-82408520D02*
X233172000Y-82408520D01*
X222932000Y-69668520D02*
X222932000Y-82408520D01*
G04 #@! TO.C,J45*
X172712120Y-88321000D02*
X172712120Y-85321000D01*
X172712120Y-85321000D02*
X175712120Y-85321000D01*
X173092120Y-85701000D02*
X183332120Y-85701000D01*
X183332120Y-85701000D02*
X183332120Y-98441000D01*
X173092120Y-98441000D02*
X183332120Y-98441000D01*
X173092120Y-85701000D02*
X173092120Y-98441000D01*
X173092120Y-85701000D02*
X183332120Y-85701000D01*
X183332120Y-85701000D02*
X183332120Y-98441000D01*
X173092120Y-98441000D02*
X183332120Y-98441000D01*
X173092120Y-85701000D02*
X173092120Y-98441000D01*
G04 #@! TO.C,J44*
X172727360Y-70764520D02*
X172727360Y-67764520D01*
X172727360Y-67764520D02*
X175727360Y-67764520D01*
X173107360Y-68144520D02*
X183347360Y-68144520D01*
X183347360Y-68144520D02*
X183347360Y-80884520D01*
X173107360Y-80884520D02*
X183347360Y-80884520D01*
X173107360Y-68144520D02*
X173107360Y-80884520D01*
X173107360Y-68144520D02*
X183347360Y-68144520D01*
X183347360Y-68144520D02*
X183347360Y-80884520D01*
X173107360Y-80884520D02*
X183347360Y-80884520D01*
X173107360Y-68144520D02*
X173107360Y-80884520D01*
G04 #@! TO.C,J43*
X222369120Y-89235400D02*
X222369120Y-86235400D01*
X222369120Y-86235400D02*
X225369120Y-86235400D01*
X222749120Y-86615400D02*
X232989120Y-86615400D01*
X232989120Y-86615400D02*
X232989120Y-99355400D01*
X222749120Y-99355400D02*
X232989120Y-99355400D01*
X222749120Y-86615400D02*
X222749120Y-99355400D01*
X222749120Y-86615400D02*
X232989120Y-86615400D01*
X232989120Y-86615400D02*
X232989120Y-99355400D01*
X222749120Y-99355400D02*
X232989120Y-99355400D01*
X222749120Y-86615400D02*
X222749120Y-99355400D01*
G04 #@! TO.C,J39*
X191074040Y-178084480D02*
X180914040Y-178084480D01*
X191074040Y-211104480D02*
X180914040Y-211104480D01*
X180914040Y-211104480D02*
X140274040Y-211104480D01*
X191074040Y-178084480D02*
X191074040Y-211104480D01*
X163134040Y-178084480D02*
X180914040Y-178084480D01*
X140274040Y-178084480D02*
X163134040Y-178084480D01*
X140274040Y-211104480D02*
X140274040Y-178084480D01*
G04 #@! TO.C,J42*
X307044400Y-215065920D02*
X305714400Y-215065920D01*
X307044400Y-213735920D02*
X307044400Y-215065920D01*
X307044400Y-212465920D02*
X304384400Y-212465920D01*
X304384400Y-212465920D02*
X304384400Y-164145920D01*
X307044400Y-212465920D02*
X307044400Y-164145920D01*
X307044400Y-164145920D02*
X304384400Y-164145920D01*
G04 #@! TO.C,J41*
X222499880Y-164120520D02*
X223829880Y-164120520D01*
X222499880Y-165450520D02*
X222499880Y-164120520D01*
X222499880Y-166720520D02*
X225159880Y-166720520D01*
X225159880Y-166720520D02*
X225159880Y-215040520D01*
X222499880Y-166720520D02*
X222499880Y-215040520D01*
X222499880Y-215040520D02*
X225159880Y-215040520D01*
D13*
G04 #@! TO.C,J27*
X296768000Y-124133000D02*
X296768000Y-113933000D01*
X301968000Y-124133000D02*
X296768000Y-124133000D01*
X301968000Y-113933000D02*
X301968000Y-124133000D01*
X296768000Y-113933000D02*
X301968000Y-113933000D01*
D11*
G04 #@! TO.C,D1*
X193941500Y-81161855D02*
X191919175Y-83184180D01*
X191919175Y-83184180D02*
X193276820Y-84541825D01*
X193276820Y-84541825D02*
X195299145Y-82519500D01*
G04 #@! TO.C,D2*
X213432041Y-83059396D02*
X211409716Y-81037071D01*
X212074396Y-84417041D02*
X213432041Y-83059396D01*
X210052071Y-82394716D02*
X212074396Y-84417041D01*
G04 #@! TO.C,D3*
X191812071Y-98409716D02*
X193834396Y-100432041D01*
X193834396Y-100432041D02*
X195192041Y-99074396D01*
X195192041Y-99074396D02*
X193169716Y-97052071D01*
G04 #@! TO.C,D4*
X211551604Y-100262041D02*
X213573929Y-98239716D01*
X210193959Y-98904396D02*
X211551604Y-100262041D01*
X212216284Y-96882071D02*
X210193959Y-98904396D01*
G04 #@! TO.C,J1*
X123418000Y-70893000D02*
X123558000Y-70893000D01*
X123428000Y-79443000D02*
X123418000Y-70913000D01*
X123648000Y-79443000D02*
X123428000Y-79443000D01*
X137418000Y-79423000D02*
X123648000Y-79443000D01*
X137418000Y-70893000D02*
X137418000Y-79423000D01*
X123558000Y-70893000D02*
X137418000Y-70893000D01*
D14*
X128048000Y-81273000D02*
X126778000Y-81273000D01*
X126778000Y-81273000D02*
X126778000Y-82543000D01*
X125508000Y-81273000D02*
X126778000Y-81273000D01*
X126778000Y-81273000D02*
X126778000Y-80003000D01*
D11*
G04 #@! TO.C,J2*
X267268000Y-70783000D02*
X267408000Y-70783000D01*
X267278000Y-79333000D02*
X267268000Y-70803000D01*
X267498000Y-79333000D02*
X267278000Y-79333000D01*
X281268000Y-79313000D02*
X267498000Y-79333000D01*
X281268000Y-70783000D02*
X281268000Y-79313000D01*
X267408000Y-70783000D02*
X281268000Y-70783000D01*
D14*
X271898000Y-81163000D02*
X270628000Y-81163000D01*
X270628000Y-81163000D02*
X270628000Y-82433000D01*
X269358000Y-81163000D02*
X270628000Y-81163000D01*
X270628000Y-81163000D02*
X270628000Y-79893000D01*
D13*
G04 #@! TO.C,J3*
X102918000Y-124253000D02*
X102918000Y-114053000D01*
X108118000Y-124253000D02*
X102918000Y-124253000D01*
X108118000Y-114053000D02*
X108118000Y-124253000D01*
X102918000Y-114053000D02*
X108118000Y-114053000D01*
G04 #@! TO.C,J4*
X108118000Y-126053000D02*
X108118000Y-136253000D01*
X102918000Y-126053000D02*
X108118000Y-126053000D01*
X102918000Y-136253000D02*
X102918000Y-126053000D01*
X108118000Y-136253000D02*
X102918000Y-136253000D01*
G04 #@! TO.C,J5*
X246778000Y-124133000D02*
X246778000Y-113933000D01*
X251978000Y-124133000D02*
X246778000Y-124133000D01*
X251978000Y-113933000D02*
X251978000Y-124133000D01*
X246778000Y-113933000D02*
X251978000Y-113933000D01*
G04 #@! TO.C,J6*
X246778000Y-125913000D02*
X251978000Y-125913000D01*
X251978000Y-125913000D02*
X251978000Y-136113000D01*
X251978000Y-136113000D02*
X246778000Y-136113000D01*
X246778000Y-136113000D02*
X246778000Y-125913000D01*
G04 #@! TO.C,J7*
X102453000Y-84513000D02*
X109218000Y-84513000D01*
X102453000Y-104323000D02*
X102453000Y-84513000D01*
X109218000Y-104323000D02*
X102453000Y-104323000D01*
X109218000Y-84513000D02*
X109218000Y-104323000D01*
G04 #@! TO.C,J8*
X246313000Y-84413000D02*
X253078000Y-84413000D01*
X246313000Y-104223000D02*
X246313000Y-84413000D01*
X253078000Y-104223000D02*
X246313000Y-104223000D01*
X253078000Y-84413000D02*
X253078000Y-104223000D01*
D11*
G04 #@! TO.C,J9*
X185598000Y-106893000D02*
X184348000Y-106893000D01*
X185598000Y-108143000D02*
X185598000Y-106893000D01*
X181188000Y-114253000D02*
X181688000Y-114253000D01*
X181688000Y-114353000D02*
X181188000Y-114353000D01*
X181688000Y-114153000D02*
X181688000Y-114353000D01*
X181188000Y-114153000D02*
X181688000Y-114153000D01*
X181188000Y-112253000D02*
X181688000Y-112253000D01*
X181688000Y-112353000D02*
X181188000Y-112353000D01*
X181688000Y-112153000D02*
X181688000Y-112353000D01*
X181188000Y-112153000D02*
X181688000Y-112153000D01*
X181188000Y-110253000D02*
X181688000Y-110253000D01*
X181688000Y-110353000D02*
X181188000Y-110353000D01*
X181688000Y-110153000D02*
X181688000Y-110353000D01*
X181188000Y-110153000D02*
X181688000Y-110153000D01*
X182688000Y-117313000D02*
X182688000Y-116703000D01*
X183988000Y-117313000D02*
X183988000Y-116703000D01*
X182688000Y-107193000D02*
X182688000Y-107803000D01*
X183988000Y-107193000D02*
X183988000Y-107803000D01*
X184688000Y-114753000D02*
X185298000Y-114753000D01*
X184688000Y-116703000D02*
X184688000Y-114753000D01*
X181188000Y-116703000D02*
X184688000Y-116703000D01*
X181188000Y-107803000D02*
X181188000Y-116703000D01*
X184688000Y-107803000D02*
X181188000Y-107803000D01*
X184688000Y-109753000D02*
X184688000Y-107803000D01*
X185298000Y-109753000D02*
X184688000Y-109753000D01*
X185398000Y-108953000D02*
X185398000Y-108653000D01*
X185498000Y-108653000D02*
X185298000Y-108653000D01*
X185498000Y-108953000D02*
X185498000Y-108653000D01*
X185298000Y-108953000D02*
X185498000Y-108953000D01*
X185298000Y-117313000D02*
X185298000Y-107193000D01*
X180578000Y-117313000D02*
X185298000Y-117313000D01*
X180578000Y-107193000D02*
X180578000Y-117313000D01*
X185298000Y-107193000D02*
X180578000Y-107193000D01*
G04 #@! TO.C,J10*
X185178000Y-122423000D02*
X180458000Y-122423000D01*
X180458000Y-122423000D02*
X180458000Y-132543000D01*
X180458000Y-132543000D02*
X185178000Y-132543000D01*
X185178000Y-132543000D02*
X185178000Y-122423000D01*
X185178000Y-124183000D02*
X185378000Y-124183000D01*
X185378000Y-124183000D02*
X185378000Y-123883000D01*
X185378000Y-123883000D02*
X185178000Y-123883000D01*
X185278000Y-124183000D02*
X185278000Y-123883000D01*
X185178000Y-124983000D02*
X184568000Y-124983000D01*
X184568000Y-124983000D02*
X184568000Y-123033000D01*
X184568000Y-123033000D02*
X181068000Y-123033000D01*
X181068000Y-123033000D02*
X181068000Y-131933000D01*
X181068000Y-131933000D02*
X184568000Y-131933000D01*
X184568000Y-131933000D02*
X184568000Y-129983000D01*
X184568000Y-129983000D02*
X185178000Y-129983000D01*
X183868000Y-122423000D02*
X183868000Y-123033000D01*
X182568000Y-122423000D02*
X182568000Y-123033000D01*
X183868000Y-132543000D02*
X183868000Y-131933000D01*
X182568000Y-132543000D02*
X182568000Y-131933000D01*
X181068000Y-125383000D02*
X181568000Y-125383000D01*
X181568000Y-125383000D02*
X181568000Y-125583000D01*
X181568000Y-125583000D02*
X181068000Y-125583000D01*
X181068000Y-125483000D02*
X181568000Y-125483000D01*
X181068000Y-127383000D02*
X181568000Y-127383000D01*
X181568000Y-127383000D02*
X181568000Y-127583000D01*
X181568000Y-127583000D02*
X181068000Y-127583000D01*
X181068000Y-127483000D02*
X181568000Y-127483000D01*
X181068000Y-129383000D02*
X181568000Y-129383000D01*
X181568000Y-129383000D02*
X181568000Y-129583000D01*
X181568000Y-129583000D02*
X181068000Y-129583000D01*
X181068000Y-129483000D02*
X181568000Y-129483000D01*
X185478000Y-123373000D02*
X185478000Y-122123000D01*
X185478000Y-122123000D02*
X184228000Y-122123000D01*
G04 #@! TO.C,J11*
X185468000Y-136743000D02*
X184218000Y-136743000D01*
X185468000Y-137993000D02*
X185468000Y-136743000D01*
X181058000Y-144103000D02*
X181558000Y-144103000D01*
X181558000Y-144203000D02*
X181058000Y-144203000D01*
X181558000Y-144003000D02*
X181558000Y-144203000D01*
X181058000Y-144003000D02*
X181558000Y-144003000D01*
X181058000Y-142103000D02*
X181558000Y-142103000D01*
X181558000Y-142203000D02*
X181058000Y-142203000D01*
X181558000Y-142003000D02*
X181558000Y-142203000D01*
X181058000Y-142003000D02*
X181558000Y-142003000D01*
X181058000Y-140103000D02*
X181558000Y-140103000D01*
X181558000Y-140203000D02*
X181058000Y-140203000D01*
X181558000Y-140003000D02*
X181558000Y-140203000D01*
X181058000Y-140003000D02*
X181558000Y-140003000D01*
X182558000Y-147163000D02*
X182558000Y-146553000D01*
X183858000Y-147163000D02*
X183858000Y-146553000D01*
X182558000Y-137043000D02*
X182558000Y-137653000D01*
X183858000Y-137043000D02*
X183858000Y-137653000D01*
X184558000Y-144603000D02*
X185168000Y-144603000D01*
X184558000Y-146553000D02*
X184558000Y-144603000D01*
X181058000Y-146553000D02*
X184558000Y-146553000D01*
X181058000Y-137653000D02*
X181058000Y-146553000D01*
X184558000Y-137653000D02*
X181058000Y-137653000D01*
X184558000Y-139603000D02*
X184558000Y-137653000D01*
X185168000Y-139603000D02*
X184558000Y-139603000D01*
X185268000Y-138803000D02*
X185268000Y-138503000D01*
X185368000Y-138503000D02*
X185168000Y-138503000D01*
X185368000Y-138803000D02*
X185368000Y-138503000D01*
X185168000Y-138803000D02*
X185368000Y-138803000D01*
X185168000Y-147163000D02*
X185168000Y-137043000D01*
X180448000Y-147163000D02*
X185168000Y-147163000D01*
X180448000Y-137043000D02*
X180448000Y-147163000D01*
X185168000Y-137043000D02*
X180448000Y-137043000D01*
D13*
G04 #@! TO.C,J12*
X100418000Y-148273000D02*
X100418000Y-143073000D01*
X100418000Y-143073000D02*
X110618000Y-143073000D01*
X110618000Y-143073000D02*
X110618000Y-148273000D01*
X110618000Y-148273000D02*
X100418000Y-148273000D01*
G04 #@! TO.C,J13*
X244278000Y-142843000D02*
X254478000Y-142843000D01*
X244278000Y-148043000D02*
X244278000Y-142843000D01*
X254478000Y-148043000D02*
X244278000Y-148043000D01*
X254478000Y-142843000D02*
X254478000Y-148043000D01*
G04 #@! TO.C,J14*
X128018000Y-114053000D02*
X133218000Y-114053000D01*
X133218000Y-114053000D02*
X133218000Y-124253000D01*
X133218000Y-124253000D02*
X128018000Y-124253000D01*
X128018000Y-124253000D02*
X128018000Y-114053000D01*
G04 #@! TO.C,J15*
X127908000Y-136243000D02*
X127908000Y-126043000D01*
X133108000Y-136243000D02*
X127908000Y-136243000D01*
X133108000Y-126043000D02*
X133108000Y-136243000D01*
X127908000Y-126043000D02*
X133108000Y-126043000D01*
G04 #@! TO.C,J16*
X271858000Y-113933000D02*
X277058000Y-113933000D01*
X277058000Y-113933000D02*
X277058000Y-124133000D01*
X277058000Y-124133000D02*
X271858000Y-124133000D01*
X271858000Y-124133000D02*
X271858000Y-113933000D01*
G04 #@! TO.C,J17*
X271778000Y-125943000D02*
X276978000Y-125943000D01*
X276978000Y-125943000D02*
X276978000Y-136143000D01*
X276978000Y-136143000D02*
X271778000Y-136143000D01*
X271778000Y-136143000D02*
X271778000Y-125943000D01*
G04 #@! TO.C,J18*
X127343000Y-84513000D02*
X134108000Y-84513000D01*
X127343000Y-104323000D02*
X127343000Y-84513000D01*
X134108000Y-104323000D02*
X127343000Y-104323000D01*
X134108000Y-84513000D02*
X134108000Y-104323000D01*
G04 #@! TO.C,J19*
X277988000Y-84393000D02*
X277988000Y-104203000D01*
X277988000Y-104203000D02*
X271223000Y-104203000D01*
X271223000Y-104203000D02*
X271223000Y-84393000D01*
X271223000Y-84393000D02*
X277988000Y-84393000D01*
G04 #@! TO.C,J20*
X125418000Y-143053000D02*
X135618000Y-143053000D01*
X125418000Y-148253000D02*
X125418000Y-143053000D01*
X135618000Y-148253000D02*
X125418000Y-148253000D01*
X135618000Y-143053000D02*
X135618000Y-148253000D01*
G04 #@! TO.C,J21*
X279468000Y-142923000D02*
X279468000Y-148123000D01*
X279468000Y-148123000D02*
X269268000Y-148123000D01*
X269268000Y-148123000D02*
X269268000Y-142923000D01*
X269268000Y-142923000D02*
X279468000Y-142923000D01*
D11*
G04 #@! TO.C,J22*
X220008000Y-117333000D02*
X224728000Y-117333000D01*
X224728000Y-117333000D02*
X224728000Y-107213000D01*
X224728000Y-107213000D02*
X220008000Y-107213000D01*
X220008000Y-107213000D02*
X220008000Y-117333000D01*
X220008000Y-115573000D02*
X219808000Y-115573000D01*
X219808000Y-115573000D02*
X219808000Y-115873000D01*
X219808000Y-115873000D02*
X220008000Y-115873000D01*
X219908000Y-115573000D02*
X219908000Y-115873000D01*
X220008000Y-114773000D02*
X220618000Y-114773000D01*
X220618000Y-114773000D02*
X220618000Y-116723000D01*
X220618000Y-116723000D02*
X224118000Y-116723000D01*
X224118000Y-116723000D02*
X224118000Y-107823000D01*
X224118000Y-107823000D02*
X220618000Y-107823000D01*
X220618000Y-107823000D02*
X220618000Y-109773000D01*
X220618000Y-109773000D02*
X220008000Y-109773000D01*
X221318000Y-117333000D02*
X221318000Y-116723000D01*
X222618000Y-117333000D02*
X222618000Y-116723000D01*
X221318000Y-107213000D02*
X221318000Y-107823000D01*
X222618000Y-107213000D02*
X222618000Y-107823000D01*
X224118000Y-114373000D02*
X223618000Y-114373000D01*
X223618000Y-114373000D02*
X223618000Y-114173000D01*
X223618000Y-114173000D02*
X224118000Y-114173000D01*
X224118000Y-114273000D02*
X223618000Y-114273000D01*
X224118000Y-112373000D02*
X223618000Y-112373000D01*
X223618000Y-112373000D02*
X223618000Y-112173000D01*
X223618000Y-112173000D02*
X224118000Y-112173000D01*
X224118000Y-112273000D02*
X223618000Y-112273000D01*
X224118000Y-110373000D02*
X223618000Y-110373000D01*
X223618000Y-110373000D02*
X223618000Y-110173000D01*
X223618000Y-110173000D02*
X224118000Y-110173000D01*
X224118000Y-110273000D02*
X223618000Y-110273000D01*
X219708000Y-116383000D02*
X219708000Y-117633000D01*
X219708000Y-117633000D02*
X220958000Y-117633000D01*
G04 #@! TO.C,J23*
X219588000Y-132873000D02*
X220838000Y-132873000D01*
X219588000Y-131623000D02*
X219588000Y-132873000D01*
X223998000Y-125513000D02*
X223498000Y-125513000D01*
X223498000Y-125413000D02*
X223998000Y-125413000D01*
X223498000Y-125613000D02*
X223498000Y-125413000D01*
X223998000Y-125613000D02*
X223498000Y-125613000D01*
X223998000Y-127513000D02*
X223498000Y-127513000D01*
X223498000Y-127413000D02*
X223998000Y-127413000D01*
X223498000Y-127613000D02*
X223498000Y-127413000D01*
X223998000Y-127613000D02*
X223498000Y-127613000D01*
X223998000Y-129513000D02*
X223498000Y-129513000D01*
X223498000Y-129413000D02*
X223998000Y-129413000D01*
X223498000Y-129613000D02*
X223498000Y-129413000D01*
X223998000Y-129613000D02*
X223498000Y-129613000D01*
X222498000Y-122453000D02*
X222498000Y-123063000D01*
X221198000Y-122453000D02*
X221198000Y-123063000D01*
X222498000Y-132573000D02*
X222498000Y-131963000D01*
X221198000Y-132573000D02*
X221198000Y-131963000D01*
X220498000Y-125013000D02*
X219888000Y-125013000D01*
X220498000Y-123063000D02*
X220498000Y-125013000D01*
X223998000Y-123063000D02*
X220498000Y-123063000D01*
X223998000Y-131963000D02*
X223998000Y-123063000D01*
X220498000Y-131963000D02*
X223998000Y-131963000D01*
X220498000Y-130013000D02*
X220498000Y-131963000D01*
X219888000Y-130013000D02*
X220498000Y-130013000D01*
X219788000Y-130813000D02*
X219788000Y-131113000D01*
X219688000Y-131113000D02*
X219888000Y-131113000D01*
X219688000Y-130813000D02*
X219688000Y-131113000D01*
X219888000Y-130813000D02*
X219688000Y-130813000D01*
X219888000Y-122453000D02*
X219888000Y-132573000D01*
X224608000Y-122453000D02*
X219888000Y-122453000D01*
X224608000Y-132573000D02*
X224608000Y-122453000D01*
X219888000Y-132573000D02*
X224608000Y-132573000D01*
G04 #@! TO.C,J24*
X219888000Y-147173000D02*
X224608000Y-147173000D01*
X224608000Y-147173000D02*
X224608000Y-137053000D01*
X224608000Y-137053000D02*
X219888000Y-137053000D01*
X219888000Y-137053000D02*
X219888000Y-147173000D01*
X219888000Y-145413000D02*
X219688000Y-145413000D01*
X219688000Y-145413000D02*
X219688000Y-145713000D01*
X219688000Y-145713000D02*
X219888000Y-145713000D01*
X219788000Y-145413000D02*
X219788000Y-145713000D01*
X219888000Y-144613000D02*
X220498000Y-144613000D01*
X220498000Y-144613000D02*
X220498000Y-146563000D01*
X220498000Y-146563000D02*
X223998000Y-146563000D01*
X223998000Y-146563000D02*
X223998000Y-137663000D01*
X223998000Y-137663000D02*
X220498000Y-137663000D01*
X220498000Y-137663000D02*
X220498000Y-139613000D01*
X220498000Y-139613000D02*
X219888000Y-139613000D01*
X221198000Y-147173000D02*
X221198000Y-146563000D01*
X222498000Y-147173000D02*
X222498000Y-146563000D01*
X221198000Y-137053000D02*
X221198000Y-137663000D01*
X222498000Y-137053000D02*
X222498000Y-137663000D01*
X223998000Y-144213000D02*
X223498000Y-144213000D01*
X223498000Y-144213000D02*
X223498000Y-144013000D01*
X223498000Y-144013000D02*
X223998000Y-144013000D01*
X223998000Y-144113000D02*
X223498000Y-144113000D01*
X223998000Y-142213000D02*
X223498000Y-142213000D01*
X223498000Y-142213000D02*
X223498000Y-142013000D01*
X223498000Y-142013000D02*
X223998000Y-142013000D01*
X223998000Y-142113000D02*
X223498000Y-142113000D01*
X223998000Y-140213000D02*
X223498000Y-140213000D01*
X223498000Y-140213000D02*
X223498000Y-140013000D01*
X223498000Y-140013000D02*
X223998000Y-140013000D01*
X223998000Y-140113000D02*
X223498000Y-140113000D01*
X219588000Y-146223000D02*
X219588000Y-147473000D01*
X219588000Y-147473000D02*
X220838000Y-147473000D01*
D13*
G04 #@! TO.C,J25*
X152918000Y-114053000D02*
X158118000Y-114053000D01*
X158118000Y-114053000D02*
X158118000Y-124253000D01*
X158118000Y-124253000D02*
X152918000Y-124253000D01*
X152918000Y-124253000D02*
X152918000Y-114053000D01*
G04 #@! TO.C,J26*
X158118000Y-126053000D02*
X158118000Y-136253000D01*
X152918000Y-126053000D02*
X158118000Y-126053000D01*
X152918000Y-136253000D02*
X152918000Y-126053000D01*
X158118000Y-136253000D02*
X152918000Y-136253000D01*
G04 #@! TO.C,J28*
X301978000Y-136133000D02*
X296778000Y-136133000D01*
X296778000Y-136133000D02*
X296778000Y-125933000D01*
X296778000Y-125933000D02*
X301978000Y-125933000D01*
X301978000Y-125933000D02*
X301978000Y-136133000D01*
G04 #@! TO.C,J29*
X158728000Y-84563000D02*
X158728000Y-104373000D01*
X158728000Y-104373000D02*
X151963000Y-104373000D01*
X151963000Y-104373000D02*
X151963000Y-84563000D01*
X151963000Y-84563000D02*
X158728000Y-84563000D01*
G04 #@! TO.C,J30*
X302578000Y-84443000D02*
X302578000Y-104253000D01*
X302578000Y-104253000D02*
X295813000Y-104253000D01*
X295813000Y-104253000D02*
X295813000Y-84443000D01*
X295813000Y-84443000D02*
X302578000Y-84443000D01*
G04 #@! TO.C,J31*
X150418000Y-148253000D02*
X150418000Y-143053000D01*
X150418000Y-143053000D02*
X160618000Y-143053000D01*
X160618000Y-143053000D02*
X160618000Y-148253000D01*
X160618000Y-148253000D02*
X150418000Y-148253000D01*
G04 #@! TO.C,J32*
X304468000Y-148133000D02*
X294268000Y-148133000D01*
X304468000Y-142933000D02*
X304468000Y-148133000D01*
X294268000Y-142933000D02*
X304468000Y-142933000D01*
X294268000Y-148133000D02*
X294268000Y-142933000D01*
D11*
G04 #@! TO.C,J34*
X205648000Y-154303000D02*
X208308000Y-154303000D01*
X205648000Y-154303000D02*
X205648000Y-159443000D01*
X205648000Y-159443000D02*
X208308000Y-159443000D01*
X208308000Y-154303000D02*
X208308000Y-159443000D01*
X208308000Y-151703000D02*
X208308000Y-153033000D01*
X206978000Y-151703000D02*
X208308000Y-151703000D01*
G04 #@! TO.C,J35*
X200578000Y-151803000D02*
X201908000Y-151803000D01*
X201908000Y-151803000D02*
X201908000Y-153133000D01*
X201908000Y-154403000D02*
X201908000Y-159543000D01*
X199248000Y-159543000D02*
X201908000Y-159543000D01*
X199248000Y-154403000D02*
X199248000Y-159543000D01*
X199248000Y-154403000D02*
X201908000Y-154403000D01*
G04 #@! TO.C,J36*
X193228000Y-151903000D02*
X194558000Y-151903000D01*
X194558000Y-151903000D02*
X194558000Y-153233000D01*
X194558000Y-154503000D02*
X194558000Y-159643000D01*
X191898000Y-159643000D02*
X194558000Y-159643000D01*
X191898000Y-154503000D02*
X191898000Y-159643000D01*
X191898000Y-154503000D02*
X194558000Y-154503000D01*
G04 #@! TO.C,J37*
X211888000Y-154193000D02*
X214548000Y-154193000D01*
X211888000Y-154193000D02*
X211888000Y-159333000D01*
X211888000Y-159333000D02*
X214548000Y-159333000D01*
X214548000Y-154193000D02*
X214548000Y-159333000D01*
X214548000Y-151593000D02*
X214548000Y-152923000D01*
X213218000Y-151593000D02*
X214548000Y-151593000D01*
D14*
G04 #@! TO.C,J33*
X104000000Y-188100000D02*
X102730000Y-188100000D01*
X104000000Y-189370000D02*
X104000000Y-188100000D01*
X104000000Y-188100000D02*
X105270000Y-188100000D01*
X104000000Y-186830000D02*
X104000000Y-188100000D01*
D11*
X93620000Y-191320000D02*
X93620000Y-177460000D01*
X93620000Y-177460000D02*
X102150000Y-177460000D01*
X102150000Y-177460000D02*
X102170000Y-191230000D01*
X102170000Y-191230000D02*
X102170000Y-191450000D01*
X102170000Y-191450000D02*
X93640000Y-191460000D01*
X93620000Y-191460000D02*
X93620000Y-191320000D01*
G04 #@! TO.C,R1*
X202285064Y-79558000D02*
X201830936Y-79558000D01*
X202285064Y-78088000D02*
X201830936Y-78088000D01*
G04 #@! TO.C,R2*
X202240936Y-103798000D02*
X202695064Y-103798000D01*
X202240936Y-102328000D02*
X202695064Y-102328000D01*
G04 #@! TO.C,R3*
X189923000Y-90370064D02*
X189923000Y-89915936D01*
X191393000Y-90370064D02*
X191393000Y-89915936D01*
G04 #@! TO.C,R4*
X215533000Y-90490064D02*
X215533000Y-90035936D01*
X214063000Y-90490064D02*
X214063000Y-90035936D01*
G04 #@! TO.C,H5*
D10*
X309238095Y-214752380D02*
X309238095Y-213752380D01*
X309238095Y-214228571D02*
X309809523Y-214228571D01*
X309809523Y-214752380D02*
X309809523Y-213752380D01*
X310761904Y-213752380D02*
X310285714Y-213752380D01*
X310238095Y-214228571D01*
X310285714Y-214180952D01*
X310380952Y-214133333D01*
X310619047Y-214133333D01*
X310714285Y-214180952D01*
X310761904Y-214228571D01*
X310809523Y-214323809D01*
X310809523Y-214561904D01*
X310761904Y-214657142D01*
X310714285Y-214704761D01*
X310619047Y-214752380D01*
X310380952Y-214752380D01*
X310285714Y-214704761D01*
X310238095Y-214657142D01*
G04 #@! TO.C,J49*
X96942380Y-159854523D02*
X97656666Y-159854523D01*
X97799523Y-159902142D01*
X97894761Y-159997380D01*
X97942380Y-160140238D01*
X97942380Y-160235476D01*
X97275714Y-158949761D02*
X97942380Y-158949761D01*
X96894761Y-159187857D02*
X97609047Y-159425952D01*
X97609047Y-158806904D01*
X97942380Y-158378333D02*
X97942380Y-158187857D01*
X97894761Y-158092619D01*
X97847142Y-158045000D01*
X97704285Y-157949761D01*
X97513809Y-157902142D01*
X97132857Y-157902142D01*
X97037619Y-157949761D01*
X96990000Y-157997380D01*
X96942380Y-158092619D01*
X96942380Y-158283095D01*
X96990000Y-158378333D01*
X97037619Y-158425952D01*
X97132857Y-158473571D01*
X97370952Y-158473571D01*
X97466190Y-158425952D01*
X97513809Y-158378333D01*
X97561428Y-158283095D01*
X97561428Y-158092619D01*
X97513809Y-157997380D01*
X97466190Y-157949761D01*
X97370952Y-157902142D01*
G04 #@! TO.C,J47*
X96747380Y-194829523D02*
X97461666Y-194829523D01*
X97604523Y-194877142D01*
X97699761Y-194972380D01*
X97747380Y-195115238D01*
X97747380Y-195210476D01*
X97080714Y-193924761D02*
X97747380Y-193924761D01*
X96699761Y-194162857D02*
X97414047Y-194400952D01*
X97414047Y-193781904D01*
X96747380Y-193496190D02*
X96747380Y-192829523D01*
X97747380Y-193258095D01*
G04 #@! TO.C,R9*
X204852260Y-206511946D02*
X204376070Y-206845280D01*
X204852260Y-207083375D02*
X203852260Y-207083375D01*
X203852260Y-206702422D01*
X203899880Y-206607184D01*
X203947499Y-206559565D01*
X204042737Y-206511946D01*
X204185594Y-206511946D01*
X204280832Y-206559565D01*
X204328451Y-206607184D01*
X204376070Y-206702422D01*
X204376070Y-207083375D01*
X204852260Y-206035756D02*
X204852260Y-205845280D01*
X204804641Y-205750041D01*
X204757022Y-205702422D01*
X204614165Y-205607184D01*
X204423689Y-205559565D01*
X204042737Y-205559565D01*
X203947499Y-205607184D01*
X203899880Y-205654803D01*
X203852260Y-205750041D01*
X203852260Y-205940518D01*
X203899880Y-206035756D01*
X203947499Y-206083375D01*
X204042737Y-206130994D01*
X204280832Y-206130994D01*
X204376070Y-206083375D01*
X204423689Y-206035756D01*
X204471308Y-205940518D01*
X204471308Y-205750041D01*
X204423689Y-205654803D01*
X204376070Y-205607184D01*
X204280832Y-205559565D01*
G04 #@! TO.C,R8*
X218045020Y-79171586D02*
X217568830Y-79504920D01*
X218045020Y-79743015D02*
X217045020Y-79743015D01*
X217045020Y-79362062D01*
X217092640Y-79266824D01*
X217140259Y-79219205D01*
X217235497Y-79171586D01*
X217378354Y-79171586D01*
X217473592Y-79219205D01*
X217521211Y-79266824D01*
X217568830Y-79362062D01*
X217568830Y-79743015D01*
X217473592Y-78600158D02*
X217425973Y-78695396D01*
X217378354Y-78743015D01*
X217283116Y-78790634D01*
X217235497Y-78790634D01*
X217140259Y-78743015D01*
X217092640Y-78695396D01*
X217045020Y-78600158D01*
X217045020Y-78409681D01*
X217092640Y-78314443D01*
X217140259Y-78266824D01*
X217235497Y-78219205D01*
X217283116Y-78219205D01*
X217378354Y-78266824D01*
X217425973Y-78314443D01*
X217473592Y-78409681D01*
X217473592Y-78600158D01*
X217521211Y-78695396D01*
X217568830Y-78743015D01*
X217664068Y-78790634D01*
X217854544Y-78790634D01*
X217949782Y-78743015D01*
X217997401Y-78695396D01*
X218045020Y-78600158D01*
X218045020Y-78409681D01*
X217997401Y-78314443D01*
X217949782Y-78266824D01*
X217854544Y-78219205D01*
X217664068Y-78219205D01*
X217568830Y-78266824D01*
X217521211Y-78314443D01*
X217473592Y-78409681D01*
G04 #@! TO.C,R7*
X184806580Y-93236586D02*
X184330390Y-93569920D01*
X184806580Y-93808015D02*
X183806580Y-93808015D01*
X183806580Y-93427062D01*
X183854200Y-93331824D01*
X183901819Y-93284205D01*
X183997057Y-93236586D01*
X184139914Y-93236586D01*
X184235152Y-93284205D01*
X184282771Y-93331824D01*
X184330390Y-93427062D01*
X184330390Y-93808015D01*
X183806580Y-92903253D02*
X183806580Y-92236586D01*
X184806580Y-92665158D01*
G04 #@! TO.C,R6*
X185207900Y-78723786D02*
X184731710Y-79057120D01*
X185207900Y-79295215D02*
X184207900Y-79295215D01*
X184207900Y-78914262D01*
X184255520Y-78819024D01*
X184303139Y-78771405D01*
X184398377Y-78723786D01*
X184541234Y-78723786D01*
X184636472Y-78771405D01*
X184684091Y-78819024D01*
X184731710Y-78914262D01*
X184731710Y-79295215D01*
X184207900Y-77866643D02*
X184207900Y-78057120D01*
X184255520Y-78152358D01*
X184303139Y-78199977D01*
X184445996Y-78295215D01*
X184636472Y-78342834D01*
X185017424Y-78342834D01*
X185112662Y-78295215D01*
X185160281Y-78247596D01*
X185207900Y-78152358D01*
X185207900Y-77961881D01*
X185160281Y-77866643D01*
X185112662Y-77819024D01*
X185017424Y-77771405D01*
X184779329Y-77771405D01*
X184684091Y-77819024D01*
X184636472Y-77866643D01*
X184588853Y-77961881D01*
X184588853Y-78152358D01*
X184636472Y-78247596D01*
X184684091Y-78295215D01*
X184779329Y-78342834D01*
G04 #@! TO.C,R5*
X217831660Y-95090786D02*
X217355470Y-95424120D01*
X217831660Y-95662215D02*
X216831660Y-95662215D01*
X216831660Y-95281262D01*
X216879280Y-95186024D01*
X216926899Y-95138405D01*
X217022137Y-95090786D01*
X217164994Y-95090786D01*
X217260232Y-95138405D01*
X217307851Y-95186024D01*
X217355470Y-95281262D01*
X217355470Y-95662215D01*
X216831660Y-94186024D02*
X216831660Y-94662215D01*
X217307851Y-94709834D01*
X217260232Y-94662215D01*
X217212613Y-94566977D01*
X217212613Y-94328881D01*
X217260232Y-94233643D01*
X217307851Y-94186024D01*
X217403089Y-94138405D01*
X217641184Y-94138405D01*
X217736422Y-94186024D01*
X217784041Y-94233643D01*
X217831660Y-94328881D01*
X217831660Y-94566977D01*
X217784041Y-94662215D01*
X217736422Y-94709834D01*
G04 #@! TO.C,D9*
X199950060Y-207061135D02*
X198950060Y-207061135D01*
X198950060Y-206823040D01*
X198997680Y-206680182D01*
X199092918Y-206584944D01*
X199188156Y-206537325D01*
X199378632Y-206489706D01*
X199521489Y-206489706D01*
X199711965Y-206537325D01*
X199807203Y-206584944D01*
X199902441Y-206680182D01*
X199950060Y-206823040D01*
X199950060Y-207061135D01*
X199950060Y-206013516D02*
X199950060Y-205823040D01*
X199902441Y-205727801D01*
X199854822Y-205680182D01*
X199711965Y-205584944D01*
X199521489Y-205537325D01*
X199140537Y-205537325D01*
X199045299Y-205584944D01*
X198997680Y-205632563D01*
X198950060Y-205727801D01*
X198950060Y-205918278D01*
X198997680Y-206013516D01*
X199045299Y-206061135D01*
X199140537Y-206108754D01*
X199378632Y-206108754D01*
X199473870Y-206061135D01*
X199521489Y-206013516D01*
X199569108Y-205918278D01*
X199569108Y-205727801D01*
X199521489Y-205632563D01*
X199473870Y-205584944D01*
X199378632Y-205537325D01*
G04 #@! TO.C,D8*
X221284060Y-74368775D02*
X220284060Y-74368775D01*
X220284060Y-74130680D01*
X220331680Y-73987822D01*
X220426918Y-73892584D01*
X220522156Y-73844965D01*
X220712632Y-73797346D01*
X220855489Y-73797346D01*
X221045965Y-73844965D01*
X221141203Y-73892584D01*
X221236441Y-73987822D01*
X221284060Y-74130680D01*
X221284060Y-74368775D01*
X220712632Y-73225918D02*
X220665013Y-73321156D01*
X220617394Y-73368775D01*
X220522156Y-73416394D01*
X220474537Y-73416394D01*
X220379299Y-73368775D01*
X220331680Y-73321156D01*
X220284060Y-73225918D01*
X220284060Y-73035441D01*
X220331680Y-72940203D01*
X220379299Y-72892584D01*
X220474537Y-72844965D01*
X220522156Y-72844965D01*
X220617394Y-72892584D01*
X220665013Y-72940203D01*
X220712632Y-73035441D01*
X220712632Y-73225918D01*
X220760251Y-73321156D01*
X220807870Y-73368775D01*
X220903108Y-73416394D01*
X221093584Y-73416394D01*
X221188822Y-73368775D01*
X221236441Y-73321156D01*
X221284060Y-73225918D01*
X221284060Y-73035441D01*
X221236441Y-72940203D01*
X221188822Y-72892584D01*
X221093584Y-72844965D01*
X220903108Y-72844965D01*
X220807870Y-72892584D01*
X220760251Y-72940203D01*
X220712632Y-73035441D01*
G04 #@! TO.C,D7*
X188091340Y-88404815D02*
X187091340Y-88404815D01*
X187091340Y-88166720D01*
X187138960Y-88023862D01*
X187234198Y-87928624D01*
X187329436Y-87881005D01*
X187519912Y-87833386D01*
X187662769Y-87833386D01*
X187853245Y-87881005D01*
X187948483Y-87928624D01*
X188043721Y-88023862D01*
X188091340Y-88166720D01*
X188091340Y-88404815D01*
X187091340Y-87500053D02*
X187091340Y-86833386D01*
X188091340Y-87261958D01*
G04 #@! TO.C,D6*
X188507900Y-74087055D02*
X187507900Y-74087055D01*
X187507900Y-73848960D01*
X187555520Y-73706102D01*
X187650758Y-73610864D01*
X187745996Y-73563245D01*
X187936472Y-73515626D01*
X188079329Y-73515626D01*
X188269805Y-73563245D01*
X188365043Y-73610864D01*
X188460281Y-73706102D01*
X188507900Y-73848960D01*
X188507900Y-74087055D01*
X187507900Y-72658483D02*
X187507900Y-72848960D01*
X187555520Y-72944198D01*
X187603139Y-72991817D01*
X187745996Y-73087055D01*
X187936472Y-73134674D01*
X188317424Y-73134674D01*
X188412662Y-73087055D01*
X188460281Y-73039436D01*
X188507900Y-72944198D01*
X188507900Y-72753721D01*
X188460281Y-72658483D01*
X188412662Y-72610864D01*
X188317424Y-72563245D01*
X188079329Y-72563245D01*
X187984091Y-72610864D01*
X187936472Y-72658483D01*
X187888853Y-72753721D01*
X187888853Y-72944198D01*
X187936472Y-73039436D01*
X187984091Y-73087055D01*
X188079329Y-73134674D01*
G04 #@! TO.C,D5*
X221167220Y-90776015D02*
X220167220Y-90776015D01*
X220167220Y-90537920D01*
X220214840Y-90395062D01*
X220310078Y-90299824D01*
X220405316Y-90252205D01*
X220595792Y-90204586D01*
X220738649Y-90204586D01*
X220929125Y-90252205D01*
X221024363Y-90299824D01*
X221119601Y-90395062D01*
X221167220Y-90537920D01*
X221167220Y-90776015D01*
X220167220Y-89299824D02*
X220167220Y-89776015D01*
X220643411Y-89823634D01*
X220595792Y-89776015D01*
X220548173Y-89680777D01*
X220548173Y-89442681D01*
X220595792Y-89347443D01*
X220643411Y-89299824D01*
X220738649Y-89252205D01*
X220976744Y-89252205D01*
X221071982Y-89299824D01*
X221119601Y-89347443D01*
X221167220Y-89442681D01*
X221167220Y-89680777D01*
X221119601Y-89776015D01*
X221071982Y-89823634D01*
G04 #@! TO.C,U1*
X113839577Y-191822739D02*
X114411005Y-191822739D01*
X114125291Y-192822739D02*
X114125291Y-191822739D01*
X115030053Y-191822739D02*
X115030053Y-192537025D01*
X114982434Y-192679882D01*
X114887196Y-192775120D01*
X114744339Y-192822739D01*
X114649100Y-192822739D01*
X115458624Y-192537025D02*
X115934815Y-192537025D01*
X115363386Y-192822739D02*
X115696720Y-191822739D01*
X116030053Y-192822739D01*
X116887196Y-192822739D02*
X116315767Y-192822739D01*
X116601481Y-192822739D02*
X116601481Y-191822739D01*
X116506243Y-191965597D01*
X116411005Y-192060835D01*
X116315767Y-192108454D01*
X117506243Y-191822739D02*
X117601481Y-191822739D01*
X117696720Y-191870359D01*
X117744339Y-191917978D01*
X117791958Y-192013216D01*
X117839577Y-192203692D01*
X117839577Y-192441787D01*
X117791958Y-192632263D01*
X117744339Y-192727501D01*
X117696720Y-192775120D01*
X117601481Y-192822739D01*
X117506243Y-192822739D01*
X117411005Y-192775120D01*
X117363386Y-192727501D01*
X117315767Y-192632263D01*
X117268148Y-192441787D01*
X117268148Y-192203692D01*
X117315767Y-192013216D01*
X117363386Y-191917978D01*
X117411005Y-191870359D01*
X117506243Y-191822739D01*
X118744339Y-191822739D02*
X118268148Y-191822739D01*
X118220529Y-192298930D01*
X118268148Y-192251311D01*
X118363386Y-192203692D01*
X118601481Y-192203692D01*
X118696720Y-192251311D01*
X118744339Y-192298930D01*
X118791958Y-192394168D01*
X118791958Y-192632263D01*
X118744339Y-192727501D01*
X118696720Y-192775120D01*
X118601481Y-192822739D01*
X118363386Y-192822739D01*
X118268148Y-192775120D01*
X118220529Y-192727501D01*
X119411005Y-191822739D02*
X119506243Y-191822739D01*
X119601481Y-191870359D01*
X119649100Y-191917978D01*
X119696720Y-192013216D01*
X119744339Y-192203692D01*
X119744339Y-192441787D01*
X119696720Y-192632263D01*
X119649100Y-192727501D01*
X119601481Y-192775120D01*
X119506243Y-192822739D01*
X119411005Y-192822739D01*
X119315767Y-192775120D01*
X119268148Y-192727501D01*
X119220529Y-192632263D01*
X119172910Y-192441787D01*
X119172910Y-192203692D01*
X119220529Y-192013216D01*
X119268148Y-191917978D01*
X119315767Y-191870359D01*
X119411005Y-191822739D01*
X119934815Y-192917978D02*
X120696720Y-192917978D01*
X120934815Y-192822739D02*
X120934815Y-191822739D01*
X121268148Y-192537025D01*
X121601481Y-191822739D01*
X121601481Y-192822739D01*
X122268148Y-191822739D02*
X122458624Y-191822739D01*
X122553862Y-191870359D01*
X122649100Y-191965597D01*
X122696720Y-192156073D01*
X122696720Y-192489406D01*
X122649100Y-192679882D01*
X122553862Y-192775120D01*
X122458624Y-192822739D01*
X122268148Y-192822739D01*
X122172910Y-192775120D01*
X122077672Y-192679882D01*
X122030053Y-192489406D01*
X122030053Y-192156073D01*
X122077672Y-191965597D01*
X122172910Y-191870359D01*
X122268148Y-191822739D01*
X123125291Y-192822739D02*
X123125291Y-191822739D01*
X123363386Y-191822739D01*
X123506243Y-191870359D01*
X123601481Y-191965597D01*
X123649100Y-192060835D01*
X123696720Y-192251311D01*
X123696720Y-192394168D01*
X123649100Y-192584644D01*
X123601481Y-192679882D01*
X123506243Y-192775120D01*
X123363386Y-192822739D01*
X123125291Y-192822739D01*
X124125291Y-191822739D02*
X124125291Y-192632263D01*
X124172910Y-192727501D01*
X124220529Y-192775120D01*
X124315767Y-192822739D01*
X124506243Y-192822739D01*
X124601481Y-192775120D01*
X124649100Y-192727501D01*
X124696720Y-192632263D01*
X124696720Y-191822739D01*
X125649100Y-192822739D02*
X125172910Y-192822739D01*
X125172910Y-191822739D01*
X125982434Y-192298930D02*
X126315767Y-192298930D01*
X126458624Y-192822739D02*
X125982434Y-192822739D01*
X125982434Y-191822739D01*
X126458624Y-191822739D01*
G04 #@! TO.C,J48*
X119918916Y-165212180D02*
X119918916Y-165926466D01*
X119871297Y-166069323D01*
X119776059Y-166164561D01*
X119633201Y-166212180D01*
X119537963Y-166212180D01*
X120823678Y-165545514D02*
X120823678Y-166212180D01*
X120585582Y-165164561D02*
X120347487Y-165878847D01*
X120966535Y-165878847D01*
X121490344Y-165640752D02*
X121395106Y-165593133D01*
X121347487Y-165545514D01*
X121299868Y-165450276D01*
X121299868Y-165402657D01*
X121347487Y-165307419D01*
X121395106Y-165259800D01*
X121490344Y-165212180D01*
X121680820Y-165212180D01*
X121776059Y-165259800D01*
X121823678Y-165307419D01*
X121871297Y-165402657D01*
X121871297Y-165450276D01*
X121823678Y-165545514D01*
X121776059Y-165593133D01*
X121680820Y-165640752D01*
X121490344Y-165640752D01*
X121395106Y-165688371D01*
X121347487Y-165735990D01*
X121299868Y-165831228D01*
X121299868Y-166021704D01*
X121347487Y-166116942D01*
X121395106Y-166164561D01*
X121490344Y-166212180D01*
X121680820Y-166212180D01*
X121776059Y-166164561D01*
X121823678Y-166116942D01*
X121871297Y-166021704D01*
X121871297Y-165831228D01*
X121823678Y-165735990D01*
X121776059Y-165688371D01*
X121680820Y-165640752D01*
G04 #@! TO.C,J40*
X200231476Y-211677900D02*
X200231476Y-212392186D01*
X200183857Y-212535043D01*
X200088619Y-212630281D01*
X199945761Y-212677900D01*
X199850523Y-212677900D01*
X201136238Y-212011234D02*
X201136238Y-212677900D01*
X200898142Y-211630281D02*
X200660047Y-212344567D01*
X201279095Y-212344567D01*
X201850523Y-211677900D02*
X201945761Y-211677900D01*
X202041000Y-211725520D01*
X202088619Y-211773139D01*
X202136238Y-211868377D01*
X202183857Y-212058853D01*
X202183857Y-212296948D01*
X202136238Y-212487424D01*
X202088619Y-212582662D01*
X202041000Y-212630281D01*
X201945761Y-212677900D01*
X201850523Y-212677900D01*
X201755285Y-212630281D01*
X201707666Y-212582662D01*
X201660047Y-212487424D01*
X201612428Y-212296948D01*
X201612428Y-212058853D01*
X201660047Y-211868377D01*
X201707666Y-211773139D01*
X201755285Y-211725520D01*
X201850523Y-211677900D01*
G04 #@! TO.C,J46*
X224742476Y-68040900D02*
X224742476Y-68755186D01*
X224694857Y-68898043D01*
X224599619Y-68993281D01*
X224456761Y-69040900D01*
X224361523Y-69040900D01*
X225647238Y-68374234D02*
X225647238Y-69040900D01*
X225409142Y-67993281D02*
X225171047Y-68707567D01*
X225790095Y-68707567D01*
X226599619Y-68040900D02*
X226409142Y-68040900D01*
X226313904Y-68088520D01*
X226266285Y-68136139D01*
X226171047Y-68278996D01*
X226123428Y-68469472D01*
X226123428Y-68850424D01*
X226171047Y-68945662D01*
X226218666Y-68993281D01*
X226313904Y-69040900D01*
X226504380Y-69040900D01*
X226599619Y-68993281D01*
X226647238Y-68945662D01*
X226694857Y-68850424D01*
X226694857Y-68612329D01*
X226647238Y-68517091D01*
X226599619Y-68469472D01*
X226504380Y-68421853D01*
X226313904Y-68421853D01*
X226218666Y-68469472D01*
X226171047Y-68517091D01*
X226123428Y-68612329D01*
G04 #@! TO.C,J45*
X174902596Y-84073380D02*
X174902596Y-84787666D01*
X174854977Y-84930523D01*
X174759739Y-85025761D01*
X174616881Y-85073380D01*
X174521643Y-85073380D01*
X175807358Y-84406714D02*
X175807358Y-85073380D01*
X175569262Y-84025761D02*
X175331167Y-84740047D01*
X175950215Y-84740047D01*
X176807358Y-84073380D02*
X176331167Y-84073380D01*
X176283548Y-84549571D01*
X176331167Y-84501952D01*
X176426405Y-84454333D01*
X176664500Y-84454333D01*
X176759739Y-84501952D01*
X176807358Y-84549571D01*
X176854977Y-84644809D01*
X176854977Y-84882904D01*
X176807358Y-84978142D01*
X176759739Y-85025761D01*
X176664500Y-85073380D01*
X176426405Y-85073380D01*
X176331167Y-85025761D01*
X176283548Y-84978142D01*
G04 #@! TO.C,J44*
X174917836Y-66516900D02*
X174917836Y-67231186D01*
X174870217Y-67374043D01*
X174774979Y-67469281D01*
X174632121Y-67516900D01*
X174536883Y-67516900D01*
X175822598Y-66850234D02*
X175822598Y-67516900D01*
X175584502Y-66469281D02*
X175346407Y-67183567D01*
X175965455Y-67183567D01*
X176774979Y-66850234D02*
X176774979Y-67516900D01*
X176536883Y-66469281D02*
X176298788Y-67183567D01*
X176917836Y-67183567D01*
G04 #@! TO.C,J43*
X224559596Y-84987780D02*
X224559596Y-85702066D01*
X224511977Y-85844923D01*
X224416739Y-85940161D01*
X224273881Y-85987780D01*
X224178643Y-85987780D01*
X225464358Y-85321114D02*
X225464358Y-85987780D01*
X225226262Y-84940161D02*
X224988167Y-85654447D01*
X225607215Y-85654447D01*
X225892929Y-84987780D02*
X226511977Y-84987780D01*
X226178643Y-85368733D01*
X226321500Y-85368733D01*
X226416739Y-85416352D01*
X226464358Y-85463971D01*
X226511977Y-85559209D01*
X226511977Y-85797304D01*
X226464358Y-85892542D01*
X226416739Y-85940161D01*
X226321500Y-85987780D01*
X226035786Y-85987780D01*
X225940548Y-85940161D01*
X225892929Y-85892542D01*
G04 #@! TO.C,J39*
X137186420Y-206834003D02*
X137900706Y-206834003D01*
X138043563Y-206881622D01*
X138138801Y-206976860D01*
X138186420Y-207119718D01*
X138186420Y-207214956D01*
X137186420Y-206453051D02*
X137186420Y-205834003D01*
X137567373Y-206167337D01*
X137567373Y-206024480D01*
X137614992Y-205929241D01*
X137662611Y-205881622D01*
X137757849Y-205834003D01*
X137995944Y-205834003D01*
X138091182Y-205881622D01*
X138138801Y-205929241D01*
X138186420Y-206024480D01*
X138186420Y-206310194D01*
X138138801Y-206405432D01*
X138091182Y-206453051D01*
X138186420Y-205357813D02*
X138186420Y-205167337D01*
X138138801Y-205072099D01*
X138091182Y-205024480D01*
X137948325Y-204929241D01*
X137757849Y-204881622D01*
X137376897Y-204881622D01*
X137281659Y-204929241D01*
X137234040Y-204976860D01*
X137186420Y-205072099D01*
X137186420Y-205262575D01*
X137234040Y-205357813D01*
X137281659Y-205405432D01*
X137376897Y-205453051D01*
X137614992Y-205453051D01*
X137710230Y-205405432D01*
X137757849Y-205357813D01*
X137805468Y-205262575D01*
X137805468Y-205072099D01*
X137757849Y-204976860D01*
X137710230Y-204929241D01*
X137614992Y-204881622D01*
G04 #@! TO.C,J42*
X304904876Y-215518300D02*
X304904876Y-216232586D01*
X304857257Y-216375443D01*
X304762019Y-216470681D01*
X304619161Y-216518300D01*
X304523923Y-216518300D01*
X305809638Y-215851634D02*
X305809638Y-216518300D01*
X305571542Y-215470681D02*
X305333447Y-216184967D01*
X305952495Y-216184967D01*
X306285828Y-215613539D02*
X306333447Y-215565920D01*
X306428685Y-215518300D01*
X306666780Y-215518300D01*
X306762019Y-215565920D01*
X306809638Y-215613539D01*
X306857257Y-215708777D01*
X306857257Y-215804015D01*
X306809638Y-215946872D01*
X306238209Y-216518300D01*
X306857257Y-216518300D01*
G04 #@! TO.C,J41*
X223020356Y-162572900D02*
X223020356Y-163287186D01*
X222972737Y-163430043D01*
X222877499Y-163525281D01*
X222734641Y-163572900D01*
X222639403Y-163572900D01*
X223925118Y-162906234D02*
X223925118Y-163572900D01*
X223687022Y-162525281D02*
X223448927Y-163239567D01*
X224067975Y-163239567D01*
X224972737Y-163572900D02*
X224401308Y-163572900D01*
X224687022Y-163572900D02*
X224687022Y-162572900D01*
X224591784Y-162715758D01*
X224496546Y-162810996D01*
X224401308Y-162858615D01*
G04 #@! TO.C,J27*
D15*
X305052523Y-120131095D02*
X305959666Y-120131095D01*
X306141095Y-120191571D01*
X306262047Y-120312523D01*
X306322523Y-120493952D01*
X306322523Y-120614904D01*
X305173476Y-119586809D02*
X305113000Y-119526333D01*
X305052523Y-119405380D01*
X305052523Y-119103000D01*
X305113000Y-118982047D01*
X305173476Y-118921571D01*
X305294428Y-118861095D01*
X305415380Y-118861095D01*
X305596809Y-118921571D01*
X306322523Y-119647285D01*
X306322523Y-118861095D01*
X305052523Y-118437761D02*
X305052523Y-117591095D01*
X306322523Y-118135380D01*
G04 #@! TO.C,D1*
D10*
X192544459Y-82222851D02*
X191837352Y-81515745D01*
X192005711Y-81347386D01*
X192140398Y-81280042D01*
X192275085Y-81280042D01*
X192376100Y-81313714D01*
X192544459Y-81414729D01*
X192645474Y-81515745D01*
X192746490Y-81684103D01*
X192780161Y-81785119D01*
X192780161Y-81919806D01*
X192712818Y-82054493D01*
X192544459Y-82222851D01*
X193621955Y-81145355D02*
X193217894Y-81549416D01*
X193419925Y-81347386D02*
X192712818Y-80640279D01*
X192746490Y-80808638D01*
X192746490Y-80943325D01*
X192712818Y-81044340D01*
G04 #@! TO.C,D2*
X209429480Y-83387695D02*
X210136586Y-82680588D01*
X210304945Y-82848947D01*
X210372289Y-82983634D01*
X210372289Y-83118321D01*
X210338617Y-83219336D01*
X210237602Y-83387695D01*
X210136586Y-83488710D01*
X209968228Y-83589726D01*
X209867212Y-83623397D01*
X209732525Y-83623397D01*
X209597838Y-83556054D01*
X209429480Y-83387695D01*
X210742678Y-83421367D02*
X210810022Y-83421367D01*
X210911037Y-83455038D01*
X211079396Y-83623397D01*
X211113067Y-83724413D01*
X211113067Y-83791756D01*
X211079396Y-83892771D01*
X211012052Y-83960115D01*
X210877365Y-84027458D01*
X210069243Y-84027458D01*
X210506976Y-84465191D01*
G04 #@! TO.C,D3*
X191189480Y-99402695D02*
X191896586Y-98695588D01*
X192064945Y-98863947D01*
X192132289Y-98998634D01*
X192132289Y-99133321D01*
X192098617Y-99234336D01*
X191997602Y-99402695D01*
X191896586Y-99503710D01*
X191728228Y-99604726D01*
X191627212Y-99638397D01*
X191492525Y-99638397D01*
X191357838Y-99571054D01*
X191189480Y-99402695D01*
X192536350Y-99335351D02*
X192974083Y-99773084D01*
X192469006Y-99806756D01*
X192570022Y-99907771D01*
X192603693Y-100008787D01*
X192603693Y-100076130D01*
X192570022Y-100177145D01*
X192401663Y-100345504D01*
X192300648Y-100379176D01*
X192233304Y-100379176D01*
X192132289Y-100345504D01*
X191930258Y-100143474D01*
X191896586Y-100042458D01*
X191896586Y-99975115D01*
G04 #@! TO.C,D4*
X210819243Y-97943067D02*
X210112136Y-97235961D01*
X210280495Y-97067602D01*
X210415182Y-97000258D01*
X210549869Y-97000258D01*
X210650884Y-97033930D01*
X210819243Y-97134945D01*
X210920258Y-97235961D01*
X211021274Y-97404319D01*
X211054945Y-97505335D01*
X211054945Y-97640022D01*
X210987602Y-97774709D01*
X210819243Y-97943067D01*
X211357991Y-96461510D02*
X211829396Y-96932915D01*
X210920258Y-96360495D02*
X211256976Y-97033930D01*
X211694709Y-96596197D01*
G04 #@! TO.C,H1*
X92456095Y-65464380D02*
X92456095Y-64464380D01*
X92456095Y-64940571D02*
X93027523Y-64940571D01*
X93027523Y-65464380D02*
X93027523Y-64464380D01*
X94027523Y-65464380D02*
X93456095Y-65464380D01*
X93741809Y-65464380D02*
X93741809Y-64464380D01*
X93646571Y-64607238D01*
X93551333Y-64702476D01*
X93456095Y-64750095D01*
G04 #@! TO.C,H3*
X308991095Y-65337380D02*
X308991095Y-64337380D01*
X308991095Y-64813571D02*
X309562523Y-64813571D01*
X309562523Y-65337380D02*
X309562523Y-64337380D01*
X309943476Y-64337380D02*
X310562523Y-64337380D01*
X310229190Y-64718333D01*
X310372047Y-64718333D01*
X310467285Y-64765952D01*
X310514904Y-64813571D01*
X310562523Y-64908809D01*
X310562523Y-65146904D01*
X310514904Y-65242142D01*
X310467285Y-65289761D01*
X310372047Y-65337380D01*
X310086333Y-65337380D01*
X309991095Y-65289761D01*
X309943476Y-65242142D01*
G04 #@! TO.C,H5*
X92416095Y-214535380D02*
X92416095Y-213535380D01*
X92416095Y-214011571D02*
X92987523Y-214011571D01*
X92987523Y-214535380D02*
X92987523Y-213535380D01*
X93939904Y-213535380D02*
X93463714Y-213535380D01*
X93416095Y-214011571D01*
X93463714Y-213963952D01*
X93558952Y-213916333D01*
X93797047Y-213916333D01*
X93892285Y-213963952D01*
X93939904Y-214011571D01*
X93987523Y-214106809D01*
X93987523Y-214344904D01*
X93939904Y-214440142D01*
X93892285Y-214487761D01*
X93797047Y-214535380D01*
X93558952Y-214535380D01*
X93463714Y-214487761D01*
X93416095Y-214440142D01*
G04 #@! TO.C,J1*
X130336519Y-74401139D02*
X130336519Y-75115740D01*
X130288879Y-75258660D01*
X130193599Y-75353940D01*
X130050679Y-75401580D01*
X129955399Y-75401580D01*
X131336960Y-75401580D02*
X130765280Y-75401580D01*
X131051120Y-75401580D02*
X131051120Y-74401139D01*
X130955840Y-74544059D01*
X130860560Y-74639339D01*
X130765280Y-74686979D01*
X126382624Y-69134432D02*
X127050445Y-70136164D01*
X127050445Y-69134432D02*
X126382624Y-70136164D01*
X127288953Y-69134432D02*
X127861371Y-69134432D01*
X127575162Y-70136164D02*
X127575162Y-69134432D01*
X128624595Y-69134432D02*
X128433789Y-69134432D01*
X128338386Y-69182134D01*
X128290685Y-69229835D01*
X128195282Y-69372940D01*
X128147580Y-69563746D01*
X128147580Y-69945358D01*
X128195282Y-70040761D01*
X128242983Y-70088462D01*
X128338386Y-70136164D01*
X128529192Y-70136164D01*
X128624595Y-70088462D01*
X128672297Y-70040761D01*
X128719998Y-69945358D01*
X128719998Y-69706850D01*
X128672297Y-69611447D01*
X128624595Y-69563746D01*
X128529192Y-69516044D01*
X128338386Y-69516044D01*
X128242983Y-69563746D01*
X128195282Y-69611447D01*
X128147580Y-69706850D01*
X129340118Y-69134432D02*
X129435521Y-69134432D01*
X129530924Y-69182134D01*
X129578626Y-69229835D01*
X129626327Y-69325238D01*
X129674029Y-69516044D01*
X129674029Y-69754552D01*
X129626327Y-69945358D01*
X129578626Y-70040761D01*
X129530924Y-70088462D01*
X129435521Y-70136164D01*
X129340118Y-70136164D01*
X129244715Y-70088462D01*
X129197014Y-70040761D01*
X129149312Y-69945358D01*
X129101611Y-69754552D01*
X129101611Y-69516044D01*
X129149312Y-69325238D01*
X129197014Y-69229835D01*
X129244715Y-69182134D01*
X129340118Y-69134432D01*
X130103343Y-70136164D02*
X130103343Y-69134432D01*
X130484955Y-69134432D01*
X130580358Y-69182134D01*
X130628059Y-69229835D01*
X130675761Y-69325238D01*
X130675761Y-69468343D01*
X130628059Y-69563746D01*
X130580358Y-69611447D01*
X130484955Y-69659149D01*
X130103343Y-69659149D01*
X131009672Y-69134432D02*
X131248179Y-70136164D01*
X131438985Y-69420641D01*
X131629791Y-70136164D01*
X131868299Y-69134432D01*
X132249911Y-69754552D02*
X133013136Y-69754552D01*
X133490151Y-70136164D02*
X133490151Y-69134432D01*
X133824062Y-69849955D01*
X134157972Y-69134432D01*
X134157972Y-70136164D01*
G04 #@! TO.C,J2*
X274186519Y-74291139D02*
X274186519Y-75005740D01*
X274138879Y-75148660D01*
X274043599Y-75243940D01*
X273900679Y-75291580D01*
X273805399Y-75291580D01*
X274615280Y-74386419D02*
X274662920Y-74338779D01*
X274758200Y-74291139D01*
X274996400Y-74291139D01*
X275091680Y-74338779D01*
X275139320Y-74386419D01*
X275186960Y-74481699D01*
X275186960Y-74576979D01*
X275139320Y-74719899D01*
X274567640Y-75291580D01*
X275186960Y-75291580D01*
X270232624Y-69024432D02*
X270900445Y-70026164D01*
X270900445Y-69024432D02*
X270232624Y-70026164D01*
X271138953Y-69024432D02*
X271711371Y-69024432D01*
X271425162Y-70026164D02*
X271425162Y-69024432D01*
X272474595Y-69024432D02*
X272283789Y-69024432D01*
X272188386Y-69072134D01*
X272140685Y-69119835D01*
X272045282Y-69262940D01*
X271997580Y-69453746D01*
X271997580Y-69835358D01*
X272045282Y-69930761D01*
X272092983Y-69978462D01*
X272188386Y-70026164D01*
X272379192Y-70026164D01*
X272474595Y-69978462D01*
X272522297Y-69930761D01*
X272569998Y-69835358D01*
X272569998Y-69596850D01*
X272522297Y-69501447D01*
X272474595Y-69453746D01*
X272379192Y-69406044D01*
X272188386Y-69406044D01*
X272092983Y-69453746D01*
X272045282Y-69501447D01*
X271997580Y-69596850D01*
X273190118Y-69024432D02*
X273285521Y-69024432D01*
X273380924Y-69072134D01*
X273428626Y-69119835D01*
X273476327Y-69215238D01*
X273524029Y-69406044D01*
X273524029Y-69644552D01*
X273476327Y-69835358D01*
X273428626Y-69930761D01*
X273380924Y-69978462D01*
X273285521Y-70026164D01*
X273190118Y-70026164D01*
X273094715Y-69978462D01*
X273047014Y-69930761D01*
X272999312Y-69835358D01*
X272951611Y-69644552D01*
X272951611Y-69406044D01*
X272999312Y-69215238D01*
X273047014Y-69119835D01*
X273094715Y-69072134D01*
X273190118Y-69024432D01*
X273953343Y-70026164D02*
X273953343Y-69024432D01*
X274334955Y-69024432D01*
X274430358Y-69072134D01*
X274478059Y-69119835D01*
X274525761Y-69215238D01*
X274525761Y-69358343D01*
X274478059Y-69453746D01*
X274430358Y-69501447D01*
X274334955Y-69549149D01*
X273953343Y-69549149D01*
X274859672Y-69024432D02*
X275098179Y-70026164D01*
X275288985Y-69310641D01*
X275479791Y-70026164D01*
X275718299Y-69024432D01*
X276099911Y-69644552D02*
X276863136Y-69644552D01*
X277340151Y-70026164D02*
X277340151Y-69024432D01*
X277674062Y-69739955D01*
X278007972Y-69024432D01*
X278007972Y-70026164D01*
G04 #@! TO.C,J3*
D15*
X110722523Y-119596333D02*
X111629666Y-119596333D01*
X111811095Y-119656809D01*
X111932047Y-119777761D01*
X111992523Y-119959190D01*
X111992523Y-120080142D01*
X110722523Y-119112523D02*
X110722523Y-118326333D01*
X111206333Y-118749666D01*
X111206333Y-118568238D01*
X111266809Y-118447285D01*
X111327285Y-118386809D01*
X111448238Y-118326333D01*
X111750619Y-118326333D01*
X111871571Y-118386809D01*
X111932047Y-118447285D01*
X111992523Y-118568238D01*
X111992523Y-118931095D01*
X111932047Y-119052047D01*
X111871571Y-119112523D01*
G04 #@! TO.C,J4*
X110132523Y-131356333D02*
X111039666Y-131356333D01*
X111221095Y-131416809D01*
X111342047Y-131537761D01*
X111402523Y-131719190D01*
X111402523Y-131840142D01*
X110555857Y-130207285D02*
X111402523Y-130207285D01*
X110072047Y-130509666D02*
X110979190Y-130812047D01*
X110979190Y-130025857D01*
G04 #@! TO.C,J5*
X253382523Y-116456333D02*
X254289666Y-116456333D01*
X254471095Y-116516809D01*
X254592047Y-116637761D01*
X254652523Y-116819190D01*
X254652523Y-116940142D01*
X253382523Y-115246809D02*
X253382523Y-115851571D01*
X253987285Y-115912047D01*
X253926809Y-115851571D01*
X253866333Y-115730619D01*
X253866333Y-115428238D01*
X253926809Y-115307285D01*
X253987285Y-115246809D01*
X254108238Y-115186333D01*
X254410619Y-115186333D01*
X254531571Y-115246809D01*
X254592047Y-115307285D01*
X254652523Y-115428238D01*
X254652523Y-115730619D01*
X254592047Y-115851571D01*
X254531571Y-115912047D01*
G04 #@! TO.C,J6*
X253382523Y-128436333D02*
X254289666Y-128436333D01*
X254471095Y-128496809D01*
X254592047Y-128617761D01*
X254652523Y-128799190D01*
X254652523Y-128920142D01*
X253382523Y-127287285D02*
X253382523Y-127529190D01*
X253443000Y-127650142D01*
X253503476Y-127710619D01*
X253684904Y-127831571D01*
X253926809Y-127892047D01*
X254410619Y-127892047D01*
X254531571Y-127831571D01*
X254592047Y-127771095D01*
X254652523Y-127650142D01*
X254652523Y-127408238D01*
X254592047Y-127287285D01*
X254531571Y-127226809D01*
X254410619Y-127166333D01*
X254108238Y-127166333D01*
X253987285Y-127226809D01*
X253926809Y-127287285D01*
X253866333Y-127408238D01*
X253866333Y-127650142D01*
X253926809Y-127771095D01*
X253987285Y-127831571D01*
X254108238Y-127892047D01*
G04 #@! TO.C,J7*
X105139523Y-94841333D02*
X106046666Y-94841333D01*
X106228095Y-94901809D01*
X106349047Y-95022761D01*
X106409523Y-95204190D01*
X106409523Y-95325142D01*
X105139523Y-94357523D02*
X105139523Y-93510857D01*
X106409523Y-94055142D01*
G04 #@! TO.C,J8*
X248999523Y-94741333D02*
X249906666Y-94741333D01*
X250088095Y-94801809D01*
X250209047Y-94922761D01*
X250269523Y-95104190D01*
X250269523Y-95225142D01*
X249543809Y-93955142D02*
X249483333Y-94076095D01*
X249422857Y-94136571D01*
X249301904Y-94197047D01*
X249241428Y-94197047D01*
X249120476Y-94136571D01*
X249060000Y-94076095D01*
X248999523Y-93955142D01*
X248999523Y-93713238D01*
X249060000Y-93592285D01*
X249120476Y-93531809D01*
X249241428Y-93471333D01*
X249301904Y-93471333D01*
X249422857Y-93531809D01*
X249483333Y-93592285D01*
X249543809Y-93713238D01*
X249543809Y-93955142D01*
X249604285Y-94076095D01*
X249664761Y-94136571D01*
X249785714Y-94197047D01*
X250027619Y-94197047D01*
X250148571Y-94136571D01*
X250209047Y-94076095D01*
X250269523Y-93955142D01*
X250269523Y-93713238D01*
X250209047Y-93592285D01*
X250148571Y-93531809D01*
X250027619Y-93471333D01*
X249785714Y-93471333D01*
X249664761Y-93531809D01*
X249604285Y-93592285D01*
X249543809Y-93713238D01*
G04 #@! TO.C,J9*
D10*
X185840380Y-112586333D02*
X186554666Y-112586333D01*
X186697523Y-112633952D01*
X186792761Y-112729190D01*
X186840380Y-112872047D01*
X186840380Y-112967285D01*
X186840380Y-112062523D02*
X186840380Y-111872047D01*
X186792761Y-111776809D01*
X186745142Y-111729190D01*
X186602285Y-111633952D01*
X186411809Y-111586333D01*
X186030857Y-111586333D01*
X185935619Y-111633952D01*
X185888000Y-111681571D01*
X185840380Y-111776809D01*
X185840380Y-111967285D01*
X185888000Y-112062523D01*
X185935619Y-112110142D01*
X186030857Y-112157761D01*
X186268952Y-112157761D01*
X186364190Y-112110142D01*
X186411809Y-112062523D01*
X186459428Y-111967285D01*
X186459428Y-111776809D01*
X186411809Y-111681571D01*
X186364190Y-111633952D01*
X186268952Y-111586333D01*
G04 #@! TO.C,J10*
X185720380Y-128292523D02*
X186434666Y-128292523D01*
X186577523Y-128340142D01*
X186672761Y-128435380D01*
X186720380Y-128578238D01*
X186720380Y-128673476D01*
X186720380Y-127292523D02*
X186720380Y-127863952D01*
X186720380Y-127578238D02*
X185720380Y-127578238D01*
X185863238Y-127673476D01*
X185958476Y-127768714D01*
X186006095Y-127863952D01*
X185720380Y-126673476D02*
X185720380Y-126578238D01*
X185768000Y-126483000D01*
X185815619Y-126435380D01*
X185910857Y-126387761D01*
X186101333Y-126340142D01*
X186339428Y-126340142D01*
X186529904Y-126387761D01*
X186625142Y-126435380D01*
X186672761Y-126483000D01*
X186720380Y-126578238D01*
X186720380Y-126673476D01*
X186672761Y-126768714D01*
X186625142Y-126816333D01*
X186529904Y-126863952D01*
X186339428Y-126911571D01*
X186101333Y-126911571D01*
X185910857Y-126863952D01*
X185815619Y-126816333D01*
X185768000Y-126768714D01*
X185720380Y-126673476D01*
G04 #@! TO.C,J11*
X185710380Y-142912523D02*
X186424666Y-142912523D01*
X186567523Y-142960142D01*
X186662761Y-143055380D01*
X186710380Y-143198238D01*
X186710380Y-143293476D01*
X186710380Y-141912523D02*
X186710380Y-142483952D01*
X186710380Y-142198238D02*
X185710380Y-142198238D01*
X185853238Y-142293476D01*
X185948476Y-142388714D01*
X185996095Y-142483952D01*
X186710380Y-140960142D02*
X186710380Y-141531571D01*
X186710380Y-141245857D02*
X185710380Y-141245857D01*
X185853238Y-141341095D01*
X185948476Y-141436333D01*
X185996095Y-141531571D01*
G04 #@! TO.C,J12*
D15*
X104519904Y-151397523D02*
X104519904Y-152304666D01*
X104459428Y-152486095D01*
X104338476Y-152607047D01*
X104157047Y-152667523D01*
X104036095Y-152667523D01*
X105789904Y-152667523D02*
X105064190Y-152667523D01*
X105427047Y-152667523D02*
X105427047Y-151397523D01*
X105306095Y-151578952D01*
X105185142Y-151699904D01*
X105064190Y-151760380D01*
X106273714Y-151518476D02*
X106334190Y-151458000D01*
X106455142Y-151397523D01*
X106757523Y-151397523D01*
X106878476Y-151458000D01*
X106938952Y-151518476D01*
X106999428Y-151639428D01*
X106999428Y-151760380D01*
X106938952Y-151941809D01*
X106213238Y-152667523D01*
X106999428Y-152667523D01*
G04 #@! TO.C,J13*
X248439904Y-151847523D02*
X248439904Y-152754666D01*
X248379428Y-152936095D01*
X248258476Y-153057047D01*
X248077047Y-153117523D01*
X247956095Y-153117523D01*
X249709904Y-153117523D02*
X248984190Y-153117523D01*
X249347047Y-153117523D02*
X249347047Y-151847523D01*
X249226095Y-152028952D01*
X249105142Y-152149904D01*
X248984190Y-152210380D01*
X250133238Y-151847523D02*
X250919428Y-151847523D01*
X250496095Y-152331333D01*
X250677523Y-152331333D01*
X250798476Y-152391809D01*
X250858952Y-152452285D01*
X250919428Y-152573238D01*
X250919428Y-152875619D01*
X250858952Y-152996571D01*
X250798476Y-153057047D01*
X250677523Y-153117523D01*
X250314666Y-153117523D01*
X250193714Y-153057047D01*
X250133238Y-152996571D01*
G04 #@! TO.C,J14*
X135832523Y-120341095D02*
X136739666Y-120341095D01*
X136921095Y-120401571D01*
X137042047Y-120522523D01*
X137102523Y-120703952D01*
X137102523Y-120824904D01*
X137102523Y-119071095D02*
X137102523Y-119796809D01*
X137102523Y-119433952D02*
X135832523Y-119433952D01*
X136013952Y-119554904D01*
X136134904Y-119675857D01*
X136195380Y-119796809D01*
X136255857Y-117982523D02*
X137102523Y-117982523D01*
X135772047Y-118284904D02*
X136679190Y-118587285D01*
X136679190Y-117801095D01*
G04 #@! TO.C,J15*
X135782523Y-132371095D02*
X136689666Y-132371095D01*
X136871095Y-132431571D01*
X136992047Y-132552523D01*
X137052523Y-132733952D01*
X137052523Y-132854904D01*
X137052523Y-131101095D02*
X137052523Y-131826809D01*
X137052523Y-131463952D02*
X135782523Y-131463952D01*
X135963952Y-131584904D01*
X136084904Y-131705857D01*
X136145380Y-131826809D01*
X135782523Y-129952047D02*
X135782523Y-130556809D01*
X136387285Y-130617285D01*
X136326809Y-130556809D01*
X136266333Y-130435857D01*
X136266333Y-130133476D01*
X136326809Y-130012523D01*
X136387285Y-129952047D01*
X136508238Y-129891571D01*
X136810619Y-129891571D01*
X136931571Y-129952047D01*
X136992047Y-130012523D01*
X137052523Y-130133476D01*
X137052523Y-130435857D01*
X136992047Y-130556809D01*
X136931571Y-130617285D01*
G04 #@! TO.C,J16*
X279582523Y-120031095D02*
X280489666Y-120031095D01*
X280671095Y-120091571D01*
X280792047Y-120212523D01*
X280852523Y-120393952D01*
X280852523Y-120514904D01*
X280852523Y-118761095D02*
X280852523Y-119486809D01*
X280852523Y-119123952D02*
X279582523Y-119123952D01*
X279763952Y-119244904D01*
X279884904Y-119365857D01*
X279945380Y-119486809D01*
X279582523Y-117672523D02*
X279582523Y-117914428D01*
X279643000Y-118035380D01*
X279703476Y-118095857D01*
X279884904Y-118216809D01*
X280126809Y-118277285D01*
X280610619Y-118277285D01*
X280731571Y-118216809D01*
X280792047Y-118156333D01*
X280852523Y-118035380D01*
X280852523Y-117793476D01*
X280792047Y-117672523D01*
X280731571Y-117612047D01*
X280610619Y-117551571D01*
X280308238Y-117551571D01*
X280187285Y-117612047D01*
X280126809Y-117672523D01*
X280066333Y-117793476D01*
X280066333Y-118035380D01*
X280126809Y-118156333D01*
X280187285Y-118216809D01*
X280308238Y-118277285D01*
G04 #@! TO.C,J17*
X279532523Y-131741095D02*
X280439666Y-131741095D01*
X280621095Y-131801571D01*
X280742047Y-131922523D01*
X280802523Y-132103952D01*
X280802523Y-132224904D01*
X280802523Y-130471095D02*
X280802523Y-131196809D01*
X280802523Y-130833952D02*
X279532523Y-130833952D01*
X279713952Y-130954904D01*
X279834904Y-131075857D01*
X279895380Y-131196809D01*
X279532523Y-130047761D02*
X279532523Y-129201095D01*
X280802523Y-129745380D01*
G04 #@! TO.C,J18*
X130029523Y-95446095D02*
X130936666Y-95446095D01*
X131118095Y-95506571D01*
X131239047Y-95627523D01*
X131299523Y-95808952D01*
X131299523Y-95929904D01*
X131299523Y-94176095D02*
X131299523Y-94901809D01*
X131299523Y-94538952D02*
X130029523Y-94538952D01*
X130210952Y-94659904D01*
X130331904Y-94780857D01*
X130392380Y-94901809D01*
X130573809Y-93450380D02*
X130513333Y-93571333D01*
X130452857Y-93631809D01*
X130331904Y-93692285D01*
X130271428Y-93692285D01*
X130150476Y-93631809D01*
X130090000Y-93571333D01*
X130029523Y-93450380D01*
X130029523Y-93208476D01*
X130090000Y-93087523D01*
X130150476Y-93027047D01*
X130271428Y-92966571D01*
X130331904Y-92966571D01*
X130452857Y-93027047D01*
X130513333Y-93087523D01*
X130573809Y-93208476D01*
X130573809Y-93450380D01*
X130634285Y-93571333D01*
X130694761Y-93631809D01*
X130815714Y-93692285D01*
X131057619Y-93692285D01*
X131178571Y-93631809D01*
X131239047Y-93571333D01*
X131299523Y-93450380D01*
X131299523Y-93208476D01*
X131239047Y-93087523D01*
X131178571Y-93027047D01*
X131057619Y-92966571D01*
X130815714Y-92966571D01*
X130694761Y-93027047D01*
X130634285Y-93087523D01*
X130573809Y-93208476D01*
G04 #@! TO.C,J19*
X273909523Y-95326095D02*
X274816666Y-95326095D01*
X274998095Y-95386571D01*
X275119047Y-95507523D01*
X275179523Y-95688952D01*
X275179523Y-95809904D01*
X275179523Y-94056095D02*
X275179523Y-94781809D01*
X275179523Y-94418952D02*
X273909523Y-94418952D01*
X274090952Y-94539904D01*
X274211904Y-94660857D01*
X274272380Y-94781809D01*
X275179523Y-93451333D02*
X275179523Y-93209428D01*
X275119047Y-93088476D01*
X275058571Y-93028000D01*
X274877142Y-92907047D01*
X274635238Y-92846571D01*
X274151428Y-92846571D01*
X274030476Y-92907047D01*
X273970000Y-92967523D01*
X273909523Y-93088476D01*
X273909523Y-93330380D01*
X273970000Y-93451333D01*
X274030476Y-93511809D01*
X274151428Y-93572285D01*
X274453809Y-93572285D01*
X274574761Y-93511809D01*
X274635238Y-93451333D01*
X274695714Y-93330380D01*
X274695714Y-93088476D01*
X274635238Y-92967523D01*
X274574761Y-92907047D01*
X274453809Y-92846571D01*
G04 #@! TO.C,J20*
X129529904Y-151797523D02*
X129529904Y-152704666D01*
X129469428Y-152886095D01*
X129348476Y-153007047D01*
X129167047Y-153067523D01*
X129046095Y-153067523D01*
X130074190Y-151918476D02*
X130134666Y-151858000D01*
X130255619Y-151797523D01*
X130558000Y-151797523D01*
X130678952Y-151858000D01*
X130739428Y-151918476D01*
X130799904Y-152039428D01*
X130799904Y-152160380D01*
X130739428Y-152341809D01*
X130013714Y-153067523D01*
X130799904Y-153067523D01*
X131586095Y-151797523D02*
X131707047Y-151797523D01*
X131828000Y-151858000D01*
X131888476Y-151918476D01*
X131948952Y-152039428D01*
X132009428Y-152281333D01*
X132009428Y-152583714D01*
X131948952Y-152825619D01*
X131888476Y-152946571D01*
X131828000Y-153007047D01*
X131707047Y-153067523D01*
X131586095Y-153067523D01*
X131465142Y-153007047D01*
X131404666Y-152946571D01*
X131344190Y-152825619D01*
X131283714Y-152583714D01*
X131283714Y-152281333D01*
X131344190Y-152039428D01*
X131404666Y-151918476D01*
X131465142Y-151858000D01*
X131586095Y-151797523D01*
G04 #@! TO.C,J21*
X273359904Y-152017523D02*
X273359904Y-152924666D01*
X273299428Y-153106095D01*
X273178476Y-153227047D01*
X272997047Y-153287523D01*
X272876095Y-153287523D01*
X273904190Y-152138476D02*
X273964666Y-152078000D01*
X274085619Y-152017523D01*
X274388000Y-152017523D01*
X274508952Y-152078000D01*
X274569428Y-152138476D01*
X274629904Y-152259428D01*
X274629904Y-152380380D01*
X274569428Y-152561809D01*
X273843714Y-153287523D01*
X274629904Y-153287523D01*
X275839428Y-153287523D02*
X275113714Y-153287523D01*
X275476571Y-153287523D02*
X275476571Y-152017523D01*
X275355619Y-152198952D01*
X275234666Y-152319904D01*
X275113714Y-152380380D01*
G04 #@! TO.C,J22*
D10*
X218370380Y-113082523D02*
X219084666Y-113082523D01*
X219227523Y-113130142D01*
X219322761Y-113225380D01*
X219370380Y-113368238D01*
X219370380Y-113463476D01*
X218465619Y-112653952D02*
X218418000Y-112606333D01*
X218370380Y-112511095D01*
X218370380Y-112273000D01*
X218418000Y-112177761D01*
X218465619Y-112130142D01*
X218560857Y-112082523D01*
X218656095Y-112082523D01*
X218798952Y-112130142D01*
X219370380Y-112701571D01*
X219370380Y-112082523D01*
X218465619Y-111701571D02*
X218418000Y-111653952D01*
X218370380Y-111558714D01*
X218370380Y-111320619D01*
X218418000Y-111225380D01*
X218465619Y-111177761D01*
X218560857Y-111130142D01*
X218656095Y-111130142D01*
X218798952Y-111177761D01*
X219370380Y-111749190D01*
X219370380Y-111130142D01*
G04 #@! TO.C,J23*
X218250380Y-128322523D02*
X218964666Y-128322523D01*
X219107523Y-128370142D01*
X219202761Y-128465380D01*
X219250380Y-128608238D01*
X219250380Y-128703476D01*
X218345619Y-127893952D02*
X218298000Y-127846333D01*
X218250380Y-127751095D01*
X218250380Y-127513000D01*
X218298000Y-127417761D01*
X218345619Y-127370142D01*
X218440857Y-127322523D01*
X218536095Y-127322523D01*
X218678952Y-127370142D01*
X219250380Y-127941571D01*
X219250380Y-127322523D01*
X218250380Y-126989190D02*
X218250380Y-126370142D01*
X218631333Y-126703476D01*
X218631333Y-126560619D01*
X218678952Y-126465380D01*
X218726571Y-126417761D01*
X218821809Y-126370142D01*
X219059904Y-126370142D01*
X219155142Y-126417761D01*
X219202761Y-126465380D01*
X219250380Y-126560619D01*
X219250380Y-126846333D01*
X219202761Y-126941571D01*
X219155142Y-126989190D01*
G04 #@! TO.C,J24*
X218250380Y-142922523D02*
X218964666Y-142922523D01*
X219107523Y-142970142D01*
X219202761Y-143065380D01*
X219250380Y-143208238D01*
X219250380Y-143303476D01*
X218345619Y-142493952D02*
X218298000Y-142446333D01*
X218250380Y-142351095D01*
X218250380Y-142113000D01*
X218298000Y-142017761D01*
X218345619Y-141970142D01*
X218440857Y-141922523D01*
X218536095Y-141922523D01*
X218678952Y-141970142D01*
X219250380Y-142541571D01*
X219250380Y-141922523D01*
X218583714Y-141065380D02*
X219250380Y-141065380D01*
X218202761Y-141303476D02*
X218917047Y-141541571D01*
X218917047Y-140922523D01*
G04 #@! TO.C,J25*
D15*
X160692523Y-120221095D02*
X161599666Y-120221095D01*
X161781095Y-120281571D01*
X161902047Y-120402523D01*
X161962523Y-120583952D01*
X161962523Y-120704904D01*
X160813476Y-119676809D02*
X160753000Y-119616333D01*
X160692523Y-119495380D01*
X160692523Y-119193000D01*
X160753000Y-119072047D01*
X160813476Y-119011571D01*
X160934428Y-118951095D01*
X161055380Y-118951095D01*
X161236809Y-119011571D01*
X161962523Y-119737285D01*
X161962523Y-118951095D01*
X160692523Y-117802047D02*
X160692523Y-118406809D01*
X161297285Y-118467285D01*
X161236809Y-118406809D01*
X161176333Y-118285857D01*
X161176333Y-117983476D01*
X161236809Y-117862523D01*
X161297285Y-117802047D01*
X161418238Y-117741571D01*
X161720619Y-117741571D01*
X161841571Y-117802047D01*
X161902047Y-117862523D01*
X161962523Y-117983476D01*
X161962523Y-118285857D01*
X161902047Y-118406809D01*
X161841571Y-118467285D01*
G04 #@! TO.C,J26*
X160722523Y-132051095D02*
X161629666Y-132051095D01*
X161811095Y-132111571D01*
X161932047Y-132232523D01*
X161992523Y-132413952D01*
X161992523Y-132534904D01*
X160843476Y-131506809D02*
X160783000Y-131446333D01*
X160722523Y-131325380D01*
X160722523Y-131023000D01*
X160783000Y-130902047D01*
X160843476Y-130841571D01*
X160964428Y-130781095D01*
X161085380Y-130781095D01*
X161266809Y-130841571D01*
X161992523Y-131567285D01*
X161992523Y-130781095D01*
X160722523Y-129692523D02*
X160722523Y-129934428D01*
X160783000Y-130055380D01*
X160843476Y-130115857D01*
X161024904Y-130236809D01*
X161266809Y-130297285D01*
X161750619Y-130297285D01*
X161871571Y-130236809D01*
X161932047Y-130176333D01*
X161992523Y-130055380D01*
X161992523Y-129813476D01*
X161932047Y-129692523D01*
X161871571Y-129632047D01*
X161750619Y-129571571D01*
X161448238Y-129571571D01*
X161327285Y-129632047D01*
X161266809Y-129692523D01*
X161206333Y-129813476D01*
X161206333Y-130055380D01*
X161266809Y-130176333D01*
X161327285Y-130236809D01*
X161448238Y-130297285D01*
G04 #@! TO.C,J28*
X305222523Y-132271095D02*
X306129666Y-132271095D01*
X306311095Y-132331571D01*
X306432047Y-132452523D01*
X306492523Y-132633952D01*
X306492523Y-132754904D01*
X305343476Y-131726809D02*
X305283000Y-131666333D01*
X305222523Y-131545380D01*
X305222523Y-131243000D01*
X305283000Y-131122047D01*
X305343476Y-131061571D01*
X305464428Y-131001095D01*
X305585380Y-131001095D01*
X305766809Y-131061571D01*
X306492523Y-131787285D01*
X306492523Y-131001095D01*
X305766809Y-130275380D02*
X305706333Y-130396333D01*
X305645857Y-130456809D01*
X305524904Y-130517285D01*
X305464428Y-130517285D01*
X305343476Y-130456809D01*
X305283000Y-130396333D01*
X305222523Y-130275380D01*
X305222523Y-130033476D01*
X305283000Y-129912523D01*
X305343476Y-129852047D01*
X305464428Y-129791571D01*
X305524904Y-129791571D01*
X305645857Y-129852047D01*
X305706333Y-129912523D01*
X305766809Y-130033476D01*
X305766809Y-130275380D01*
X305827285Y-130396333D01*
X305887761Y-130456809D01*
X306008714Y-130517285D01*
X306250619Y-130517285D01*
X306371571Y-130456809D01*
X306432047Y-130396333D01*
X306492523Y-130275380D01*
X306492523Y-130033476D01*
X306432047Y-129912523D01*
X306371571Y-129852047D01*
X306250619Y-129791571D01*
X306008714Y-129791571D01*
X305887761Y-129852047D01*
X305827285Y-129912523D01*
X305766809Y-130033476D01*
G04 #@! TO.C,J29*
X154649523Y-95496095D02*
X155556666Y-95496095D01*
X155738095Y-95556571D01*
X155859047Y-95677523D01*
X155919523Y-95858952D01*
X155919523Y-95979904D01*
X154770476Y-94951809D02*
X154710000Y-94891333D01*
X154649523Y-94770380D01*
X154649523Y-94468000D01*
X154710000Y-94347047D01*
X154770476Y-94286571D01*
X154891428Y-94226095D01*
X155012380Y-94226095D01*
X155193809Y-94286571D01*
X155919523Y-95012285D01*
X155919523Y-94226095D01*
X155919523Y-93621333D02*
X155919523Y-93379428D01*
X155859047Y-93258476D01*
X155798571Y-93198000D01*
X155617142Y-93077047D01*
X155375238Y-93016571D01*
X154891428Y-93016571D01*
X154770476Y-93077047D01*
X154710000Y-93137523D01*
X154649523Y-93258476D01*
X154649523Y-93500380D01*
X154710000Y-93621333D01*
X154770476Y-93681809D01*
X154891428Y-93742285D01*
X155193809Y-93742285D01*
X155314761Y-93681809D01*
X155375238Y-93621333D01*
X155435714Y-93500380D01*
X155435714Y-93258476D01*
X155375238Y-93137523D01*
X155314761Y-93077047D01*
X155193809Y-93016571D01*
G04 #@! TO.C,J30*
X298499523Y-95376095D02*
X299406666Y-95376095D01*
X299588095Y-95436571D01*
X299709047Y-95557523D01*
X299769523Y-95738952D01*
X299769523Y-95859904D01*
X298499523Y-94892285D02*
X298499523Y-94106095D01*
X298983333Y-94529428D01*
X298983333Y-94348000D01*
X299043809Y-94227047D01*
X299104285Y-94166571D01*
X299225238Y-94106095D01*
X299527619Y-94106095D01*
X299648571Y-94166571D01*
X299709047Y-94227047D01*
X299769523Y-94348000D01*
X299769523Y-94710857D01*
X299709047Y-94831809D01*
X299648571Y-94892285D01*
X298499523Y-93319904D02*
X298499523Y-93198952D01*
X298560000Y-93078000D01*
X298620476Y-93017523D01*
X298741428Y-92957047D01*
X298983333Y-92896571D01*
X299285714Y-92896571D01*
X299527619Y-92957047D01*
X299648571Y-93017523D01*
X299709047Y-93078000D01*
X299769523Y-93198952D01*
X299769523Y-93319904D01*
X299709047Y-93440857D01*
X299648571Y-93501333D01*
X299527619Y-93561809D01*
X299285714Y-93622285D01*
X298983333Y-93622285D01*
X298741428Y-93561809D01*
X298620476Y-93501333D01*
X298560000Y-93440857D01*
X298499523Y-93319904D01*
G04 #@! TO.C,J31*
X154349904Y-151807523D02*
X154349904Y-152714666D01*
X154289428Y-152896095D01*
X154168476Y-153017047D01*
X153987047Y-153077523D01*
X153866095Y-153077523D01*
X154833714Y-151807523D02*
X155619904Y-151807523D01*
X155196571Y-152291333D01*
X155378000Y-152291333D01*
X155498952Y-152351809D01*
X155559428Y-152412285D01*
X155619904Y-152533238D01*
X155619904Y-152835619D01*
X155559428Y-152956571D01*
X155498952Y-153017047D01*
X155378000Y-153077523D01*
X155015142Y-153077523D01*
X154894190Y-153017047D01*
X154833714Y-152956571D01*
X156829428Y-153077523D02*
X156103714Y-153077523D01*
X156466571Y-153077523D02*
X156466571Y-151807523D01*
X156345619Y-151988952D01*
X156224666Y-152109904D01*
X156103714Y-152170380D01*
G04 #@! TO.C,J32*
X298349904Y-151877523D02*
X298349904Y-152784666D01*
X298289428Y-152966095D01*
X298168476Y-153087047D01*
X297987047Y-153147523D01*
X297866095Y-153147523D01*
X298833714Y-151877523D02*
X299619904Y-151877523D01*
X299196571Y-152361333D01*
X299378000Y-152361333D01*
X299498952Y-152421809D01*
X299559428Y-152482285D01*
X299619904Y-152603238D01*
X299619904Y-152905619D01*
X299559428Y-153026571D01*
X299498952Y-153087047D01*
X299378000Y-153147523D01*
X299015142Y-153147523D01*
X298894190Y-153087047D01*
X298833714Y-153026571D01*
X300103714Y-151998476D02*
X300164190Y-151938000D01*
X300285142Y-151877523D01*
X300587523Y-151877523D01*
X300708476Y-151938000D01*
X300768952Y-151998476D01*
X300829428Y-152119428D01*
X300829428Y-152240380D01*
X300768952Y-152421809D01*
X300043238Y-153147523D01*
X300829428Y-153147523D01*
G04 #@! TO.C,J34*
D10*
X203790380Y-156762523D02*
X204504666Y-156762523D01*
X204647523Y-156810142D01*
X204742761Y-156905380D01*
X204790380Y-157048238D01*
X204790380Y-157143476D01*
X203790380Y-156381571D02*
X203790380Y-155762523D01*
X204171333Y-156095857D01*
X204171333Y-155953000D01*
X204218952Y-155857761D01*
X204266571Y-155810142D01*
X204361809Y-155762523D01*
X204599904Y-155762523D01*
X204695142Y-155810142D01*
X204742761Y-155857761D01*
X204790380Y-155953000D01*
X204790380Y-156238714D01*
X204742761Y-156333952D01*
X204695142Y-156381571D01*
X204123714Y-154905380D02*
X204790380Y-154905380D01*
X203742761Y-155143476D02*
X204457047Y-155381571D01*
X204457047Y-154762523D01*
G04 #@! TO.C,J35*
X197550380Y-156652523D02*
X198264666Y-156652523D01*
X198407523Y-156700142D01*
X198502761Y-156795380D01*
X198550380Y-156938238D01*
X198550380Y-157033476D01*
X197550380Y-156271571D02*
X197550380Y-155652523D01*
X197931333Y-155985857D01*
X197931333Y-155843000D01*
X197978952Y-155747761D01*
X198026571Y-155700142D01*
X198121809Y-155652523D01*
X198359904Y-155652523D01*
X198455142Y-155700142D01*
X198502761Y-155747761D01*
X198550380Y-155843000D01*
X198550380Y-156128714D01*
X198502761Y-156223952D01*
X198455142Y-156271571D01*
X197550380Y-154747761D02*
X197550380Y-155223952D01*
X198026571Y-155271571D01*
X197978952Y-155223952D01*
X197931333Y-155128714D01*
X197931333Y-154890619D01*
X197978952Y-154795380D01*
X198026571Y-154747761D01*
X198121809Y-154700142D01*
X198359904Y-154700142D01*
X198455142Y-154747761D01*
X198502761Y-154795380D01*
X198550380Y-154890619D01*
X198550380Y-155128714D01*
X198502761Y-155223952D01*
X198455142Y-155271571D01*
G04 #@! TO.C,J36*
X195410380Y-156572523D02*
X196124666Y-156572523D01*
X196267523Y-156620142D01*
X196362761Y-156715380D01*
X196410380Y-156858238D01*
X196410380Y-156953476D01*
X195410380Y-156191571D02*
X195410380Y-155572523D01*
X195791333Y-155905857D01*
X195791333Y-155763000D01*
X195838952Y-155667761D01*
X195886571Y-155620142D01*
X195981809Y-155572523D01*
X196219904Y-155572523D01*
X196315142Y-155620142D01*
X196362761Y-155667761D01*
X196410380Y-155763000D01*
X196410380Y-156048714D01*
X196362761Y-156143952D01*
X196315142Y-156191571D01*
X195410380Y-154715380D02*
X195410380Y-154905857D01*
X195458000Y-155001095D01*
X195505619Y-155048714D01*
X195648476Y-155143952D01*
X195838952Y-155191571D01*
X196219904Y-155191571D01*
X196315142Y-155143952D01*
X196362761Y-155096333D01*
X196410380Y-155001095D01*
X196410380Y-154810619D01*
X196362761Y-154715380D01*
X196315142Y-154667761D01*
X196219904Y-154620142D01*
X195981809Y-154620142D01*
X195886571Y-154667761D01*
X195838952Y-154715380D01*
X195791333Y-154810619D01*
X195791333Y-155001095D01*
X195838952Y-155096333D01*
X195886571Y-155143952D01*
X195981809Y-155191571D01*
G04 #@! TO.C,J37*
X210220380Y-156502523D02*
X210934666Y-156502523D01*
X211077523Y-156550142D01*
X211172761Y-156645380D01*
X211220380Y-156788238D01*
X211220380Y-156883476D01*
X210220380Y-156121571D02*
X210220380Y-155502523D01*
X210601333Y-155835857D01*
X210601333Y-155693000D01*
X210648952Y-155597761D01*
X210696571Y-155550142D01*
X210791809Y-155502523D01*
X211029904Y-155502523D01*
X211125142Y-155550142D01*
X211172761Y-155597761D01*
X211220380Y-155693000D01*
X211220380Y-155978714D01*
X211172761Y-156073952D01*
X211125142Y-156121571D01*
X210220380Y-155169190D02*
X210220380Y-154502523D01*
X211220380Y-154931095D01*
G04 #@! TO.C,J33*
X97128139Y-185017880D02*
X97842740Y-185017880D01*
X97985660Y-185065520D01*
X98080940Y-185160800D01*
X98128580Y-185303721D01*
X98128580Y-185399001D01*
X97128139Y-184636760D02*
X97128139Y-184017439D01*
X97509259Y-184350920D01*
X97509259Y-184208000D01*
X97556899Y-184112719D01*
X97604539Y-184065079D01*
X97699820Y-184017439D01*
X97938020Y-184017439D01*
X98033300Y-184065079D01*
X98080940Y-184112719D01*
X98128580Y-184208000D01*
X98128580Y-184493840D01*
X98080940Y-184589120D01*
X98033300Y-184636760D01*
X97128139Y-183683959D02*
X97128139Y-183064638D01*
X97509259Y-183398119D01*
X97509259Y-183255199D01*
X97556899Y-183159918D01*
X97604539Y-183112278D01*
X97699820Y-183064638D01*
X97938020Y-183064638D01*
X98033300Y-183112278D01*
X98080940Y-183159918D01*
X98128580Y-183255199D01*
X98128580Y-183541039D01*
X98080940Y-183636319D01*
X98033300Y-183683959D01*
X91861432Y-188495375D02*
X92863164Y-187827554D01*
X91861432Y-187827554D02*
X92863164Y-188495375D01*
X91861432Y-187589046D02*
X91861432Y-187016628D01*
X92863164Y-187302837D02*
X91861432Y-187302837D01*
X91861432Y-186253404D02*
X91861432Y-186444210D01*
X91909134Y-186539613D01*
X91956835Y-186587314D01*
X92099940Y-186682717D01*
X92290746Y-186730419D01*
X92672358Y-186730419D01*
X92767761Y-186682717D01*
X92815462Y-186635016D01*
X92863164Y-186539613D01*
X92863164Y-186348807D01*
X92815462Y-186253404D01*
X92767761Y-186205702D01*
X92672358Y-186158001D01*
X92433850Y-186158001D01*
X92338447Y-186205702D01*
X92290746Y-186253404D01*
X92243044Y-186348807D01*
X92243044Y-186539613D01*
X92290746Y-186635016D01*
X92338447Y-186682717D01*
X92433850Y-186730419D01*
X91861432Y-185537881D02*
X91861432Y-185442478D01*
X91909134Y-185347075D01*
X91956835Y-185299373D01*
X92052238Y-185251672D01*
X92243044Y-185203970D01*
X92481552Y-185203970D01*
X92672358Y-185251672D01*
X92767761Y-185299373D01*
X92815462Y-185347075D01*
X92863164Y-185442478D01*
X92863164Y-185537881D01*
X92815462Y-185633284D01*
X92767761Y-185680985D01*
X92672358Y-185728687D01*
X92481552Y-185776388D01*
X92243044Y-185776388D01*
X92052238Y-185728687D01*
X91956835Y-185680985D01*
X91909134Y-185633284D01*
X91861432Y-185537881D01*
X92863164Y-184774656D02*
X91861432Y-184774656D01*
X91861432Y-184393044D01*
X91909134Y-184297641D01*
X91956835Y-184249940D01*
X92052238Y-184202238D01*
X92195343Y-184202238D01*
X92290746Y-184249940D01*
X92338447Y-184297641D01*
X92386149Y-184393044D01*
X92386149Y-184774656D01*
X91861432Y-183868327D02*
X92863164Y-183629820D01*
X92147641Y-183439014D01*
X92863164Y-183248208D01*
X91861432Y-183009700D01*
X92481552Y-182628088D02*
X92481552Y-181864863D01*
X92863164Y-181387848D02*
X91861432Y-181387848D01*
X92576955Y-181053938D01*
X91861432Y-180720027D01*
X92863164Y-180720027D01*
G04 #@! TO.C,R1*
X201891333Y-80925380D02*
X201558000Y-80449190D01*
X201319904Y-80925380D02*
X201319904Y-79925380D01*
X201700857Y-79925380D01*
X201796095Y-79973000D01*
X201843714Y-80020619D01*
X201891333Y-80115857D01*
X201891333Y-80258714D01*
X201843714Y-80353952D01*
X201796095Y-80401571D01*
X201700857Y-80449190D01*
X201319904Y-80449190D01*
X202843714Y-80925380D02*
X202272285Y-80925380D01*
X202558000Y-80925380D02*
X202558000Y-79925380D01*
X202462761Y-80068238D01*
X202367523Y-80163476D01*
X202272285Y-80211095D01*
G04 #@! TO.C,R2*
X202308333Y-106202380D02*
X201975000Y-105726190D01*
X201736904Y-106202380D02*
X201736904Y-105202380D01*
X202117857Y-105202380D01*
X202213095Y-105250000D01*
X202260714Y-105297619D01*
X202308333Y-105392857D01*
X202308333Y-105535714D01*
X202260714Y-105630952D01*
X202213095Y-105678571D01*
X202117857Y-105726190D01*
X201736904Y-105726190D01*
X202689285Y-105297619D02*
X202736904Y-105250000D01*
X202832142Y-105202380D01*
X203070238Y-105202380D01*
X203165476Y-105250000D01*
X203213095Y-105297619D01*
X203260714Y-105392857D01*
X203260714Y-105488095D01*
X203213095Y-105630952D01*
X202641666Y-106202380D01*
X203260714Y-106202380D01*
G04 #@! TO.C,R3*
X189460380Y-90309666D02*
X188984190Y-90643000D01*
X189460380Y-90881095D02*
X188460380Y-90881095D01*
X188460380Y-90500142D01*
X188508000Y-90404904D01*
X188555619Y-90357285D01*
X188650857Y-90309666D01*
X188793714Y-90309666D01*
X188888952Y-90357285D01*
X188936571Y-90404904D01*
X188984190Y-90500142D01*
X188984190Y-90881095D01*
X188460380Y-89976333D02*
X188460380Y-89357285D01*
X188841333Y-89690619D01*
X188841333Y-89547761D01*
X188888952Y-89452523D01*
X188936571Y-89404904D01*
X189031809Y-89357285D01*
X189269904Y-89357285D01*
X189365142Y-89404904D01*
X189412761Y-89452523D01*
X189460380Y-89547761D01*
X189460380Y-89833476D01*
X189412761Y-89928714D01*
X189365142Y-89976333D01*
G04 #@! TO.C,R4*
X213600380Y-90429666D02*
X213124190Y-90763000D01*
X213600380Y-91001095D02*
X212600380Y-91001095D01*
X212600380Y-90620142D01*
X212648000Y-90524904D01*
X212695619Y-90477285D01*
X212790857Y-90429666D01*
X212933714Y-90429666D01*
X213028952Y-90477285D01*
X213076571Y-90524904D01*
X213124190Y-90620142D01*
X213124190Y-91001095D01*
X212933714Y-89572523D02*
X213600380Y-89572523D01*
X212552761Y-89810619D02*
X213267047Y-90048714D01*
X213267047Y-89429666D01*
G04 #@! TD*
M02*
