G04 #@! TF.GenerationSoftware,KiCad,Pcbnew,(5.1.10)-1*
G04 #@! TF.CreationDate,2022-12-17T23:06:12+05:30*
G04 #@! TF.ProjectId,2023 control pcb,32303233-2063-46f6-9e74-726f6c207063,rev?*
G04 #@! TF.SameCoordinates,Original*
G04 #@! TF.FileFunction,Paste,Top*
G04 #@! TF.FilePolarity,Positive*
%FSLAX46Y46*%
G04 Gerber Fmt 4.6, Leading zero omitted, Abs format (unit mm)*
G04 Created by KiCad (PCBNEW (5.1.10)-1) date 2022-12-17 23:06:12*
%MOMM*%
%LPD*%
G01*
G04 APERTURE LIST*
G04 APERTURE END LIST*
G04 #@! TO.C,R9*
G36*
G01*
X206499881Y-205945280D02*
X205599879Y-205945280D01*
G75*
G02*
X205349880Y-205695281I0J249999D01*
G01*
X205349880Y-204995279D01*
G75*
G02*
X205599879Y-204745280I249999J0D01*
G01*
X206499881Y-204745280D01*
G75*
G02*
X206749880Y-204995279I0J-249999D01*
G01*
X206749880Y-205695281D01*
G75*
G02*
X206499881Y-205945280I-249999J0D01*
G01*
G37*
G36*
G01*
X206499881Y-207945280D02*
X205599879Y-207945280D01*
G75*
G02*
X205349880Y-207695281I0J249999D01*
G01*
X205349880Y-206995279D01*
G75*
G02*
X205599879Y-206745280I249999J0D01*
G01*
X206499881Y-206745280D01*
G75*
G02*
X206749880Y-206995279I0J-249999D01*
G01*
X206749880Y-207695281D01*
G75*
G02*
X206499881Y-207945280I-249999J0D01*
G01*
G37*
G04 #@! TD*
G04 #@! TO.C,R8*
G36*
G01*
X219692641Y-78604920D02*
X218792639Y-78604920D01*
G75*
G02*
X218542640Y-78354921I0J249999D01*
G01*
X218542640Y-77654919D01*
G75*
G02*
X218792639Y-77404920I249999J0D01*
G01*
X219692641Y-77404920D01*
G75*
G02*
X219942640Y-77654919I0J-249999D01*
G01*
X219942640Y-78354921D01*
G75*
G02*
X219692641Y-78604920I-249999J0D01*
G01*
G37*
G36*
G01*
X219692641Y-80604920D02*
X218792639Y-80604920D01*
G75*
G02*
X218542640Y-80354921I0J249999D01*
G01*
X218542640Y-79654919D01*
G75*
G02*
X218792639Y-79404920I249999J0D01*
G01*
X219692641Y-79404920D01*
G75*
G02*
X219942640Y-79654919I0J-249999D01*
G01*
X219942640Y-80354921D01*
G75*
G02*
X219692641Y-80604920I-249999J0D01*
G01*
G37*
G04 #@! TD*
G04 #@! TO.C,R7*
G36*
G01*
X186454201Y-92669920D02*
X185554199Y-92669920D01*
G75*
G02*
X185304200Y-92419921I0J249999D01*
G01*
X185304200Y-91719919D01*
G75*
G02*
X185554199Y-91469920I249999J0D01*
G01*
X186454201Y-91469920D01*
G75*
G02*
X186704200Y-91719919I0J-249999D01*
G01*
X186704200Y-92419921D01*
G75*
G02*
X186454201Y-92669920I-249999J0D01*
G01*
G37*
G36*
G01*
X186454201Y-94669920D02*
X185554199Y-94669920D01*
G75*
G02*
X185304200Y-94419921I0J249999D01*
G01*
X185304200Y-93719919D01*
G75*
G02*
X185554199Y-93469920I249999J0D01*
G01*
X186454201Y-93469920D01*
G75*
G02*
X186704200Y-93719919I0J-249999D01*
G01*
X186704200Y-94419921D01*
G75*
G02*
X186454201Y-94669920I-249999J0D01*
G01*
G37*
G04 #@! TD*
G04 #@! TO.C,R6*
G36*
G01*
X186855521Y-78157120D02*
X185955519Y-78157120D01*
G75*
G02*
X185705520Y-77907121I0J249999D01*
G01*
X185705520Y-77207119D01*
G75*
G02*
X185955519Y-76957120I249999J0D01*
G01*
X186855521Y-76957120D01*
G75*
G02*
X187105520Y-77207119I0J-249999D01*
G01*
X187105520Y-77907121D01*
G75*
G02*
X186855521Y-78157120I-249999J0D01*
G01*
G37*
G36*
G01*
X186855521Y-80157120D02*
X185955519Y-80157120D01*
G75*
G02*
X185705520Y-79907121I0J249999D01*
G01*
X185705520Y-79207119D01*
G75*
G02*
X185955519Y-78957120I249999J0D01*
G01*
X186855521Y-78957120D01*
G75*
G02*
X187105520Y-79207119I0J-249999D01*
G01*
X187105520Y-79907121D01*
G75*
G02*
X186855521Y-80157120I-249999J0D01*
G01*
G37*
G04 #@! TD*
G04 #@! TO.C,R5*
G36*
G01*
X219479281Y-94524120D02*
X218579279Y-94524120D01*
G75*
G02*
X218329280Y-94274121I0J249999D01*
G01*
X218329280Y-93574119D01*
G75*
G02*
X218579279Y-93324120I249999J0D01*
G01*
X219479281Y-93324120D01*
G75*
G02*
X219729280Y-93574119I0J-249999D01*
G01*
X219729280Y-94274121D01*
G75*
G02*
X219479281Y-94524120I-249999J0D01*
G01*
G37*
G36*
G01*
X219479281Y-96524120D02*
X218579279Y-96524120D01*
G75*
G02*
X218329280Y-96274121I0J249999D01*
G01*
X218329280Y-95574119D01*
G75*
G02*
X218579279Y-95324120I249999J0D01*
G01*
X219479281Y-95324120D01*
G75*
G02*
X219729280Y-95574119I0J-249999D01*
G01*
X219729280Y-96274121D01*
G75*
G02*
X219479281Y-96524120I-249999J0D01*
G01*
G37*
G04 #@! TD*
G04 #@! TO.C,D9*
G36*
G01*
X201597681Y-205873040D02*
X200697679Y-205873040D01*
G75*
G02*
X200447680Y-205623041I0J249999D01*
G01*
X200447680Y-204973039D01*
G75*
G02*
X200697679Y-204723040I249999J0D01*
G01*
X201597681Y-204723040D01*
G75*
G02*
X201847680Y-204973039I0J-249999D01*
G01*
X201847680Y-205623041D01*
G75*
G02*
X201597681Y-205873040I-249999J0D01*
G01*
G37*
G36*
G01*
X201597681Y-207923040D02*
X200697679Y-207923040D01*
G75*
G02*
X200447680Y-207673041I0J249999D01*
G01*
X200447680Y-207023039D01*
G75*
G02*
X200697679Y-206773040I249999J0D01*
G01*
X201597681Y-206773040D01*
G75*
G02*
X201847680Y-207023039I0J-249999D01*
G01*
X201847680Y-207673041D01*
G75*
G02*
X201597681Y-207923040I-249999J0D01*
G01*
G37*
G04 #@! TD*
G04 #@! TO.C,D8*
G36*
G01*
X218731679Y-74080680D02*
X219631681Y-74080680D01*
G75*
G02*
X219881680Y-74330679I0J-249999D01*
G01*
X219881680Y-74980681D01*
G75*
G02*
X219631681Y-75230680I-249999J0D01*
G01*
X218731679Y-75230680D01*
G75*
G02*
X218481680Y-74980681I0J249999D01*
G01*
X218481680Y-74330679D01*
G75*
G02*
X218731679Y-74080680I249999J0D01*
G01*
G37*
G36*
G01*
X218731679Y-72030680D02*
X219631681Y-72030680D01*
G75*
G02*
X219881680Y-72280679I0J-249999D01*
G01*
X219881680Y-72930681D01*
G75*
G02*
X219631681Y-73180680I-249999J0D01*
G01*
X218731679Y-73180680D01*
G75*
G02*
X218481680Y-72930681I0J249999D01*
G01*
X218481680Y-72280679D01*
G75*
G02*
X218731679Y-72030680I249999J0D01*
G01*
G37*
G04 #@! TD*
G04 #@! TO.C,D7*
G36*
G01*
X185538959Y-88116720D02*
X186438961Y-88116720D01*
G75*
G02*
X186688960Y-88366719I0J-249999D01*
G01*
X186688960Y-89016721D01*
G75*
G02*
X186438961Y-89266720I-249999J0D01*
G01*
X185538959Y-89266720D01*
G75*
G02*
X185288960Y-89016721I0J249999D01*
G01*
X185288960Y-88366719D01*
G75*
G02*
X185538959Y-88116720I249999J0D01*
G01*
G37*
G36*
G01*
X185538959Y-86066720D02*
X186438961Y-86066720D01*
G75*
G02*
X186688960Y-86316719I0J-249999D01*
G01*
X186688960Y-86966721D01*
G75*
G02*
X186438961Y-87216720I-249999J0D01*
G01*
X185538959Y-87216720D01*
G75*
G02*
X185288960Y-86966721I0J249999D01*
G01*
X185288960Y-86316719D01*
G75*
G02*
X185538959Y-86066720I249999J0D01*
G01*
G37*
G04 #@! TD*
G04 #@! TO.C,D6*
G36*
G01*
X185955519Y-73798960D02*
X186855521Y-73798960D01*
G75*
G02*
X187105520Y-74048959I0J-249999D01*
G01*
X187105520Y-74698961D01*
G75*
G02*
X186855521Y-74948960I-249999J0D01*
G01*
X185955519Y-74948960D01*
G75*
G02*
X185705520Y-74698961I0J249999D01*
G01*
X185705520Y-74048959D01*
G75*
G02*
X185955519Y-73798960I249999J0D01*
G01*
G37*
G36*
G01*
X185955519Y-71748960D02*
X186855521Y-71748960D01*
G75*
G02*
X187105520Y-71998959I0J-249999D01*
G01*
X187105520Y-72648961D01*
G75*
G02*
X186855521Y-72898960I-249999J0D01*
G01*
X185955519Y-72898960D01*
G75*
G02*
X185705520Y-72648961I0J249999D01*
G01*
X185705520Y-71998959D01*
G75*
G02*
X185955519Y-71748960I249999J0D01*
G01*
G37*
G04 #@! TD*
G04 #@! TO.C,D5*
G36*
G01*
X218614839Y-90487920D02*
X219514841Y-90487920D01*
G75*
G02*
X219764840Y-90737919I0J-249999D01*
G01*
X219764840Y-91387921D01*
G75*
G02*
X219514841Y-91637920I-249999J0D01*
G01*
X218614839Y-91637920D01*
G75*
G02*
X218364840Y-91387921I0J249999D01*
G01*
X218364840Y-90737919D01*
G75*
G02*
X218614839Y-90487920I249999J0D01*
G01*
G37*
G36*
G01*
X218614839Y-88437920D02*
X219514841Y-88437920D01*
G75*
G02*
X219764840Y-88687919I0J-249999D01*
G01*
X219764840Y-89337921D01*
G75*
G02*
X219514841Y-89587920I-249999J0D01*
G01*
X218614839Y-89587920D01*
G75*
G02*
X218364840Y-89337921I0J249999D01*
G01*
X218364840Y-88687919D01*
G75*
G02*
X218614839Y-88437920I249999J0D01*
G01*
G37*
G04 #@! TD*
G04 #@! TO.C,D1*
G36*
G01*
X194549612Y-82547785D02*
X193913215Y-81911388D01*
G75*
G02*
X193913215Y-81557836I176776J176776D01*
G01*
X194372836Y-81098215D01*
G75*
G02*
X194726388Y-81098215I176776J-176776D01*
G01*
X195362785Y-81734612D01*
G75*
G02*
X195362785Y-82088164I-176776J-176776D01*
G01*
X194903164Y-82547785D01*
G75*
G02*
X194549612Y-82547785I-176776J176776D01*
G01*
G37*
G36*
G01*
X193100044Y-83997353D02*
X192463647Y-83360956D01*
G75*
G02*
X192463647Y-83007404I176776J176776D01*
G01*
X192923268Y-82547783D01*
G75*
G02*
X193276820Y-82547783I176776J-176776D01*
G01*
X193913217Y-83184180D01*
G75*
G02*
X193913217Y-83537732I-176776J-176776D01*
G01*
X193453596Y-83997353D01*
G75*
G02*
X193100044Y-83997353I-176776J176776D01*
G01*
G37*
G04 #@! TD*
G04 #@! TO.C,D2*
G36*
G01*
X212887569Y-83236172D02*
X212251172Y-83872569D01*
G75*
G02*
X211897620Y-83872569I-176776J176776D01*
G01*
X211437999Y-83412948D01*
G75*
G02*
X211437999Y-83059396I176776J176776D01*
G01*
X212074396Y-82422999D01*
G75*
G02*
X212427948Y-82422999I176776J-176776D01*
G01*
X212887569Y-82882620D01*
G75*
G02*
X212887569Y-83236172I-176776J-176776D01*
G01*
G37*
G36*
G01*
X211438001Y-81786604D02*
X210801604Y-82423001D01*
G75*
G02*
X210448052Y-82423001I-176776J176776D01*
G01*
X209988431Y-81963380D01*
G75*
G02*
X209988431Y-81609828I176776J176776D01*
G01*
X210624828Y-80973431D01*
G75*
G02*
X210978380Y-80973431I176776J-176776D01*
G01*
X211438001Y-81433052D01*
G75*
G02*
X211438001Y-81786604I-176776J-176776D01*
G01*
G37*
G04 #@! TD*
G04 #@! TO.C,D3*
G36*
G01*
X193198001Y-97801604D02*
X192561604Y-98438001D01*
G75*
G02*
X192208052Y-98438001I-176776J176776D01*
G01*
X191748431Y-97978380D01*
G75*
G02*
X191748431Y-97624828I176776J176776D01*
G01*
X192384828Y-96988431D01*
G75*
G02*
X192738380Y-96988431I176776J-176776D01*
G01*
X193198001Y-97448052D01*
G75*
G02*
X193198001Y-97801604I-176776J-176776D01*
G01*
G37*
G36*
G01*
X194647569Y-99251172D02*
X194011172Y-99887569D01*
G75*
G02*
X193657620Y-99887569I-176776J176776D01*
G01*
X193197999Y-99427948D01*
G75*
G02*
X193197999Y-99074396I176776J176776D01*
G01*
X193834396Y-98437999D01*
G75*
G02*
X194187948Y-98437999I176776J-176776D01*
G01*
X194647569Y-98897620D01*
G75*
G02*
X194647569Y-99251172I-176776J-176776D01*
G01*
G37*
G04 #@! TD*
G04 #@! TO.C,D4*
G36*
G01*
X211374828Y-99717569D02*
X210738431Y-99081172D01*
G75*
G02*
X210738431Y-98727620I176776J176776D01*
G01*
X211198052Y-98267999D01*
G75*
G02*
X211551604Y-98267999I176776J-176776D01*
G01*
X212188001Y-98904396D01*
G75*
G02*
X212188001Y-99257948I-176776J-176776D01*
G01*
X211728380Y-99717569D01*
G75*
G02*
X211374828Y-99717569I-176776J176776D01*
G01*
G37*
G36*
G01*
X212824396Y-98268001D02*
X212187999Y-97631604D01*
G75*
G02*
X212187999Y-97278052I176776J176776D01*
G01*
X212647620Y-96818431D01*
G75*
G02*
X213001172Y-96818431I176776J-176776D01*
G01*
X213637569Y-97454828D01*
G75*
G02*
X213637569Y-97808380I-176776J-176776D01*
G01*
X213177948Y-98268001D01*
G75*
G02*
X212824396Y-98268001I-176776J176776D01*
G01*
G37*
G04 #@! TD*
G04 #@! TO.C,R1*
G36*
G01*
X201658000Y-78372999D02*
X201658000Y-79273001D01*
G75*
G02*
X201408001Y-79523000I-249999J0D01*
G01*
X200707999Y-79523000D01*
G75*
G02*
X200458000Y-79273001I0J249999D01*
G01*
X200458000Y-78372999D01*
G75*
G02*
X200707999Y-78123000I249999J0D01*
G01*
X201408001Y-78123000D01*
G75*
G02*
X201658000Y-78372999I0J-249999D01*
G01*
G37*
G36*
G01*
X203658000Y-78372999D02*
X203658000Y-79273001D01*
G75*
G02*
X203408001Y-79523000I-249999J0D01*
G01*
X202707999Y-79523000D01*
G75*
G02*
X202458000Y-79273001I0J249999D01*
G01*
X202458000Y-78372999D01*
G75*
G02*
X202707999Y-78123000I249999J0D01*
G01*
X203408001Y-78123000D01*
G75*
G02*
X203658000Y-78372999I0J-249999D01*
G01*
G37*
G04 #@! TD*
G04 #@! TO.C,R2*
G36*
G01*
X200868000Y-103513001D02*
X200868000Y-102612999D01*
G75*
G02*
X201117999Y-102363000I249999J0D01*
G01*
X201818001Y-102363000D01*
G75*
G02*
X202068000Y-102612999I0J-249999D01*
G01*
X202068000Y-103513001D01*
G75*
G02*
X201818001Y-103763000I-249999J0D01*
G01*
X201117999Y-103763000D01*
G75*
G02*
X200868000Y-103513001I0J249999D01*
G01*
G37*
G36*
G01*
X202868000Y-103513001D02*
X202868000Y-102612999D01*
G75*
G02*
X203117999Y-102363000I249999J0D01*
G01*
X203818001Y-102363000D01*
G75*
G02*
X204068000Y-102612999I0J-249999D01*
G01*
X204068000Y-103513001D01*
G75*
G02*
X203818001Y-103763000I-249999J0D01*
G01*
X203117999Y-103763000D01*
G75*
G02*
X202868000Y-103513001I0J249999D01*
G01*
G37*
G04 #@! TD*
G04 #@! TO.C,R3*
G36*
G01*
X191108001Y-89743000D02*
X190207999Y-89743000D01*
G75*
G02*
X189958000Y-89493001I0J249999D01*
G01*
X189958000Y-88792999D01*
G75*
G02*
X190207999Y-88543000I249999J0D01*
G01*
X191108001Y-88543000D01*
G75*
G02*
X191358000Y-88792999I0J-249999D01*
G01*
X191358000Y-89493001D01*
G75*
G02*
X191108001Y-89743000I-249999J0D01*
G01*
G37*
G36*
G01*
X191108001Y-91743000D02*
X190207999Y-91743000D01*
G75*
G02*
X189958000Y-91493001I0J249999D01*
G01*
X189958000Y-90792999D01*
G75*
G02*
X190207999Y-90543000I249999J0D01*
G01*
X191108001Y-90543000D01*
G75*
G02*
X191358000Y-90792999I0J-249999D01*
G01*
X191358000Y-91493001D01*
G75*
G02*
X191108001Y-91743000I-249999J0D01*
G01*
G37*
G04 #@! TD*
G04 #@! TO.C,R4*
G36*
G01*
X215248001Y-91863000D02*
X214347999Y-91863000D01*
G75*
G02*
X214098000Y-91613001I0J249999D01*
G01*
X214098000Y-90912999D01*
G75*
G02*
X214347999Y-90663000I249999J0D01*
G01*
X215248001Y-90663000D01*
G75*
G02*
X215498000Y-90912999I0J-249999D01*
G01*
X215498000Y-91613001D01*
G75*
G02*
X215248001Y-91863000I-249999J0D01*
G01*
G37*
G36*
G01*
X215248001Y-89863000D02*
X214347999Y-89863000D01*
G75*
G02*
X214098000Y-89613001I0J249999D01*
G01*
X214098000Y-88912999D01*
G75*
G02*
X214347999Y-88663000I249999J0D01*
G01*
X215248001Y-88663000D01*
G75*
G02*
X215498000Y-88912999I0J-249999D01*
G01*
X215498000Y-89613001D01*
G75*
G02*
X215248001Y-89863000I-249999J0D01*
G01*
G37*
G04 #@! TD*
M02*
