%FSTAX23Y23*%
%MOIN*%
%SFA1B1*%

%IPPOS*%
%ADD11C,0.007874*%
%ADD12C,0.005000*%
%ADD13C,0.010000*%
%ADD16C,0.003937*%
%ADD17C,0.011024*%
%ADD18C,0.001969*%
%ADD89C,0.002000*%
%ADD90C,0.002665*%
%ADD91C,0.001335*%
%LNpcb1-1*%
%LPD*%
G54D11*
X03504Y01627D02*
D01*
X03504Y01628*
X03504Y01628*
X03504Y01628*
X03504Y01629*
X03504Y01629*
X03504Y01629*
X03504Y01629*
X03504Y0163*
X03503Y0163*
X03503Y0163*
X03503Y0163*
X03503Y0163*
X03503Y01631*
X03502Y01631*
X03502Y01631*
X03502Y01631*
X03502Y01631*
X03501Y01631*
X03501Y01631*
X03501Y01631*
X03501Y01631*
X035Y01631*
X035*
X035Y01631*
X035Y01631*
X03499Y01631*
X03499Y01631*
X03499Y01631*
X03498Y01631*
X03498Y01631*
X03498Y01631*
X03498Y01631*
X03498Y0163*
X03497Y0163*
X03497Y0163*
X03497Y0163*
X03497Y0163*
X03497Y01629*
X03497Y01629*
X03497Y01629*
X03496Y01629*
X03496Y01628*
X03496Y01628*
X03496Y01628*
X03496Y01627*
X03496Y01627*
X03496Y01627*
X03496Y01627*
X03496Y01626*
X03497Y01626*
X03497Y01626*
X03497Y01626*
X03497Y01625*
X03497Y01625*
X03497Y01625*
X03497Y01625*
X03498Y01625*
X03498Y01624*
X03498Y01624*
X03498Y01624*
X03498Y01624*
X03499Y01624*
X03499Y01624*
X03499Y01624*
X035Y01624*
X035Y01624*
X035Y01624*
X035*
X03501Y01624*
X03501Y01624*
X03501Y01624*
X03501Y01624*
X03502Y01624*
X03502Y01624*
X03502Y01624*
X03502Y01624*
X03503Y01624*
X03503Y01625*
X03503Y01625*
X03503Y01625*
X03503Y01625*
X03504Y01625*
X03504Y01626*
X03504Y01626*
X03504Y01626*
X03504Y01626*
X03504Y01627*
X03504Y01627*
X03504Y01627*
X03504Y01627*
X08678Y03605D02*
D01*
X08678Y03605*
X08678Y03605*
X08678Y03605*
X08678Y03606*
X08678Y03606*
X08678Y03606*
X08678Y03606*
X08678Y03607*
X08678Y03607*
X08678Y03607*
X08677Y03607*
X08677Y03607*
X08677Y03608*
X08677Y03608*
X08676Y03608*
X08676Y03608*
X08676Y03608*
X08676Y03608*
X08675Y03608*
X08675Y03608*
X08675Y03608*
X08675Y03608*
X08674*
X08674Y03608*
X08674Y03608*
X08674Y03608*
X08673Y03608*
X08673Y03608*
X08673Y03608*
X08673Y03608*
X08672Y03608*
X08672Y03608*
X08672Y03607*
X08672Y03607*
X08671Y03607*
X08671Y03607*
X08671Y03607*
X08671Y03606*
X08671Y03606*
X08671Y03606*
X08671Y03606*
X08671Y03605*
X08671Y03605*
X08671Y03605*
X08671Y03605*
X08671Y03604*
X08671Y03604*
X08671Y03604*
X08671Y03603*
X08671Y03603*
X08671Y03603*
X08671Y03603*
X08671Y03602*
X08671Y03602*
X08671Y03602*
X08672Y03602*
X08672Y03602*
X08672Y03601*
X08672Y03601*
X08673Y03601*
X08673Y03601*
X08673Y03601*
X08673Y03601*
X08674Y03601*
X08674Y03601*
X08674Y03601*
X08674Y03601*
X08675*
X08675Y03601*
X08675Y03601*
X08675Y03601*
X08676Y03601*
X08676Y03601*
X08676Y03601*
X08676Y03601*
X08677Y03601*
X08677Y03601*
X08677Y03602*
X08677Y03602*
X08678Y03602*
X08678Y03602*
X08678Y03602*
X08678Y03603*
X08678Y03603*
X08678Y03603*
X08678Y03603*
X08678Y03604*
X08678Y03604*
X08678Y03604*
X08678Y03605*
X08193Y0614D02*
D01*
X08193Y0614*
X08193Y0614*
X08193Y0614*
X08193Y06141*
X08193Y06141*
X08193Y06141*
X08193Y06141*
X08193Y06142*
X08193Y06142*
X08193Y06142*
X08192Y06142*
X08192Y06142*
X08192Y06143*
X08192Y06143*
X08191Y06143*
X08191Y06143*
X08191Y06143*
X08191Y06143*
X0819Y06143*
X0819Y06143*
X0819Y06143*
X0819Y06143*
X08189*
X08189Y06143*
X08189Y06143*
X08189Y06143*
X08188Y06143*
X08188Y06143*
X08188Y06143*
X08188Y06143*
X08187Y06143*
X08187Y06143*
X08187Y06142*
X08187Y06142*
X08186Y06142*
X08186Y06142*
X08186Y06142*
X08186Y06141*
X08186Y06141*
X08186Y06141*
X08186Y06141*
X08186Y0614*
X08186Y0614*
X08186Y0614*
X08186Y0614*
X08186Y06139*
X08186Y06139*
X08186Y06139*
X08186Y06138*
X08186Y06138*
X08186Y06138*
X08186Y06138*
X08186Y06137*
X08186Y06137*
X08186Y06137*
X08187Y06137*
X08187Y06137*
X08187Y06136*
X08187Y06136*
X08188Y06136*
X08188Y06136*
X08188Y06136*
X08188Y06136*
X08189Y06136*
X08189Y06136*
X08189Y06136*
X08189Y06136*
X0819*
X0819Y06136*
X0819Y06136*
X0819Y06136*
X08191Y06136*
X08191Y06136*
X08191Y06136*
X08191Y06136*
X08192Y06136*
X08192Y06136*
X08192Y06137*
X08192Y06137*
X08193Y06137*
X08193Y06137*
X08193Y06137*
X08193Y06138*
X08193Y06138*
X08193Y06138*
X08193Y06138*
X08193Y06139*
X08193Y06139*
X08193Y06139*
X08193Y0614*
X07383D02*
D01*
X07383Y0614*
X07383Y0614*
X07383Y0614*
X07383Y06141*
X07383Y06141*
X07383Y06141*
X07383Y06141*
X07383Y06142*
X07382Y06142*
X07382Y06142*
X07382Y06142*
X07382Y06142*
X07382Y06143*
X07381Y06143*
X07381Y06143*
X07381Y06143*
X07381Y06143*
X0738Y06143*
X0738Y06143*
X0738Y06143*
X0738Y06143*
X07379Y06143*
X07379*
X07379Y06143*
X07379Y06143*
X07378Y06143*
X07378Y06143*
X07378Y06143*
X07377Y06143*
X07377Y06143*
X07377Y06143*
X07377Y06143*
X07377Y06142*
X07376Y06142*
X07376Y06142*
X07376Y06142*
X07376Y06142*
X07376Y06141*
X07376Y06141*
X07375Y06141*
X07375Y06141*
X07375Y0614*
X07375Y0614*
X07375Y0614*
X07375Y0614*
X07375Y06139*
X07375Y06139*
X07375Y06139*
X07375Y06138*
X07375Y06138*
X07376Y06138*
X07376Y06138*
X07376Y06137*
X07376Y06137*
X07376Y06137*
X07376Y06137*
X07377Y06137*
X07377Y06136*
X07377Y06136*
X07377Y06136*
X07377Y06136*
X07378Y06136*
X07378Y06136*
X07378Y06136*
X07379Y06136*
X07379Y06136*
X07379Y06136*
X07379*
X0738Y06136*
X0738Y06136*
X0738Y06136*
X0738Y06136*
X07381Y06136*
X07381Y06136*
X07381Y06136*
X07381Y06136*
X07382Y06136*
X07382Y06137*
X07382Y06137*
X07382Y06137*
X07382Y06137*
X07383Y06137*
X07383Y06138*
X07383Y06138*
X07383Y06138*
X07383Y06138*
X07383Y06139*
X07383Y06139*
X07383Y06139*
X07383Y0614*
X06573D02*
D01*
X06573Y0614*
X06573Y0614*
X06573Y0614*
X06573Y06141*
X06573Y06141*
X06572Y06141*
X06572Y06141*
X06572Y06142*
X06572Y06142*
X06572Y06142*
X06572Y06142*
X06572Y06142*
X06571Y06143*
X06571Y06143*
X06571Y06143*
X06571Y06143*
X0657Y06143*
X0657Y06143*
X0657Y06143*
X0657Y06143*
X06569Y06143*
X06569Y06143*
X06569*
X06568Y06143*
X06568Y06143*
X06568Y06143*
X06568Y06143*
X06567Y06143*
X06567Y06143*
X06567Y06143*
X06567Y06143*
X06566Y06143*
X06566Y06142*
X06566Y06142*
X06566Y06142*
X06566Y06142*
X06566Y06142*
X06565Y06141*
X06565Y06141*
X06565Y06141*
X06565Y06141*
X06565Y0614*
X06565Y0614*
X06565Y0614*
X06565Y0614*
X06565Y06139*
X06565Y06139*
X06565Y06139*
X06565Y06138*
X06565Y06138*
X06565Y06138*
X06565Y06138*
X06566Y06137*
X06566Y06137*
X06566Y06137*
X06566Y06137*
X06566Y06137*
X06566Y06136*
X06567Y06136*
X06567Y06136*
X06567Y06136*
X06567Y06136*
X06568Y06136*
X06568Y06136*
X06568Y06136*
X06568Y06136*
X06569Y06136*
X06569*
X06569Y06136*
X0657Y06136*
X0657Y06136*
X0657Y06136*
X0657Y06136*
X06571Y06136*
X06571Y06136*
X06571Y06136*
X06571Y06136*
X06572Y06137*
X06572Y06137*
X06572Y06137*
X06572Y06137*
X06572Y06137*
X06572Y06138*
X06572Y06138*
X06573Y06138*
X06573Y06138*
X06573Y06139*
X06573Y06139*
X06573Y06139*
X06573Y0614*
X01822Y03443D02*
D01*
X01822Y03443*
X01822Y03444*
X01822Y03444*
X01822Y03444*
X01822Y03445*
X01822Y03445*
X01822Y03445*
X01822Y03445*
X01822Y03445*
X01821Y03446*
X01821Y03446*
X01821Y03446*
X01821Y03446*
X01821Y03446*
X0182Y03447*
X0182Y03447*
X0182Y03447*
X0182Y03447*
X01819Y03447*
X01819Y03447*
X01819Y03447*
X01819Y03447*
X01818*
X01818Y03447*
X01818Y03447*
X01818Y03447*
X01817Y03447*
X01817Y03447*
X01817Y03447*
X01817Y03447*
X01816Y03446*
X01816Y03446*
X01816Y03446*
X01816Y03446*
X01815Y03446*
X01815Y03445*
X01815Y03445*
X01815Y03445*
X01815Y03445*
X01815Y03445*
X01815Y03444*
X01815Y03444*
X01815Y03444*
X01815Y03443*
X01815Y03443*
X01815Y03443*
X01815Y03443*
X01815Y03442*
X01815Y03442*
X01815Y03442*
X01815Y03442*
X01815Y03441*
X01815Y03441*
X01815Y03441*
X01815Y03441*
X01816Y0344*
X01816Y0344*
X01816Y0344*
X01816Y0344*
X01817Y0344*
X01817Y0344*
X01817Y0344*
X01817Y03439*
X01818Y03439*
X01818Y03439*
X01818Y03439*
X01818Y03439*
X01819*
X01819Y03439*
X01819Y03439*
X01819Y03439*
X0182Y03439*
X0182Y0344*
X0182Y0344*
X0182Y0344*
X01821Y0344*
X01821Y0344*
X01821Y0344*
X01821Y0344*
X01821Y03441*
X01822Y03441*
X01822Y03441*
X01822Y03441*
X01822Y03442*
X01822Y03442*
X01822Y03442*
X01822Y03442*
X01822Y03443*
X01822Y03443*
X01822Y03443*
X00163Y03795D02*
D01*
X00163Y03795*
X00163Y03795*
X00163Y03795*
X00163Y03796*
X00163Y03796*
X00163Y03796*
X00163Y03796*
X00163Y03797*
X00163Y03797*
X00163Y03797*
X00162Y03797*
X00162Y03797*
X00162Y03798*
X00162Y03798*
X00161Y03798*
X00161Y03798*
X00161Y03798*
X00161Y03798*
X0016Y03798*
X0016Y03798*
X0016Y03798*
X0016Y03798*
X00159*
X00159Y03798*
X00159Y03798*
X00159Y03798*
X00158Y03798*
X00158Y03798*
X00158Y03798*
X00158Y03798*
X00157Y03798*
X00157Y03798*
X00157Y03797*
X00157Y03797*
X00156Y03797*
X00156Y03797*
X00156Y03797*
X00156Y03796*
X00156Y03796*
X00156Y03796*
X00156Y03796*
X00156Y03795*
X00156Y03795*
X00156Y03795*
X00156Y03795*
X00156Y03794*
X00156Y03794*
X00156Y03794*
X00156Y03793*
X00156Y03793*
X00156Y03793*
X00156Y03793*
X00156Y03792*
X00156Y03792*
X00156Y03792*
X00157Y03792*
X00157Y03792*
X00157Y03791*
X00157Y03791*
X00158Y03791*
X00158Y03791*
X00158Y03791*
X00158Y03791*
X00159Y03791*
X00159Y03791*
X00159Y03791*
X00159Y03791*
X0016*
X0016Y03791*
X0016Y03791*
X0016Y03791*
X00161Y03791*
X00161Y03791*
X00161Y03791*
X00161Y03791*
X00162Y03791*
X00162Y03791*
X00162Y03792*
X00162Y03792*
X00163Y03792*
X00163Y03792*
X00163Y03792*
X00163Y03793*
X00163Y03793*
X00163Y03793*
X00163Y03793*
X00163Y03794*
X00163Y03794*
X00163Y03794*
X00163Y03795*
X01513Y00195D02*
D01*
X01513Y00195*
X01513Y00195*
X01513Y00195*
X01513Y00196*
X01513Y00196*
X01513Y00196*
X01513Y00196*
X01513Y00197*
X01513Y00197*
X01513Y00197*
X01512Y00197*
X01512Y00197*
X01512Y00198*
X01512Y00198*
X01511Y00198*
X01511Y00198*
X01511Y00198*
X01511Y00198*
X0151Y00198*
X0151Y00198*
X0151Y00198*
X0151Y00198*
X01509*
X01509Y00198*
X01509Y00198*
X01509Y00198*
X01508Y00198*
X01508Y00198*
X01508Y00198*
X01508Y00198*
X01507Y00198*
X01507Y00198*
X01507Y00197*
X01507Y00197*
X01506Y00197*
X01506Y00197*
X01506Y00197*
X01506Y00196*
X01506Y00196*
X01506Y00196*
X01506Y00196*
X01506Y00195*
X01506Y00195*
X01506Y00195*
X01506Y00195*
X01506Y00194*
X01506Y00194*
X01506Y00194*
X01506Y00193*
X01506Y00193*
X01506Y00193*
X01506Y00193*
X01506Y00192*
X01506Y00192*
X01506Y00192*
X01507Y00192*
X01507Y00192*
X01507Y00191*
X01507Y00191*
X01508Y00191*
X01508Y00191*
X01508Y00191*
X01508Y00191*
X01509Y00191*
X01509Y00191*
X01509Y00191*
X01509Y00191*
X0151*
X0151Y00191*
X0151Y00191*
X0151Y00191*
X01511Y00191*
X01511Y00191*
X01511Y00191*
X01511Y00191*
X01512Y00191*
X01512Y00191*
X01512Y00192*
X01512Y00192*
X01513Y00192*
X01513Y00192*
X01513Y00192*
X01513Y00193*
X01513Y00193*
X01513Y00193*
X01513Y00193*
X01513Y00194*
X01513Y00194*
X01513Y00194*
X01513Y00195*
X00901Y0614D02*
D01*
X00901Y0614*
X00901Y0614*
X00901Y0614*
X00901Y06141*
X009Y06141*
X009Y06141*
X009Y06141*
X009Y06142*
X009Y06142*
X009Y06142*
X009Y06142*
X00899Y06142*
X00899Y06143*
X00899Y06143*
X00899Y06143*
X00898Y06143*
X00898Y06143*
X00898Y06143*
X00898Y06143*
X00897Y06143*
X00897Y06143*
X00897Y06143*
X00897*
X00896Y06143*
X00896Y06143*
X00896Y06143*
X00896Y06143*
X00895Y06143*
X00895Y06143*
X00895Y06143*
X00895Y06143*
X00894Y06143*
X00894Y06142*
X00894Y06142*
X00894Y06142*
X00894Y06142*
X00893Y06142*
X00893Y06141*
X00893Y06141*
X00893Y06141*
X00893Y06141*
X00893Y0614*
X00893Y0614*
X00893Y0614*
X00893Y0614*
X00893Y06139*
X00893Y06139*
X00893Y06139*
X00893Y06138*
X00893Y06138*
X00893Y06138*
X00893Y06138*
X00893Y06137*
X00894Y06137*
X00894Y06137*
X00894Y06137*
X00894Y06137*
X00894Y06136*
X00895Y06136*
X00895Y06136*
X00895Y06136*
X00895Y06136*
X00896Y06136*
X00896Y06136*
X00896Y06136*
X00896Y06136*
X00897Y06136*
X00897*
X00897Y06136*
X00897Y06136*
X00898Y06136*
X00898Y06136*
X00898Y06136*
X00898Y06136*
X00899Y06136*
X00899Y06136*
X00899Y06136*
X00899Y06137*
X009Y06137*
X009Y06137*
X009Y06137*
X009Y06137*
X009Y06138*
X009Y06138*
X009Y06138*
X00901Y06138*
X00901Y06139*
X00901Y06139*
X00901Y06139*
X00901Y0614*
X01711D02*
D01*
X01711Y0614*
X01711Y0614*
X01711Y0614*
X01711Y06141*
X01711Y06141*
X01711Y06141*
X01711Y06141*
X0171Y06142*
X0171Y06142*
X0171Y06142*
X0171Y06142*
X0171Y06142*
X01709Y06143*
X01709Y06143*
X01709Y06143*
X01709Y06143*
X01709Y06143*
X01708Y06143*
X01708Y06143*
X01708Y06143*
X01707Y06143*
X01707Y06143*
X01707*
X01707Y06143*
X01706Y06143*
X01706Y06143*
X01706Y06143*
X01706Y06143*
X01705Y06143*
X01705Y06143*
X01705Y06143*
X01705Y06143*
X01704Y06142*
X01704Y06142*
X01704Y06142*
X01704Y06142*
X01704Y06142*
X01704Y06141*
X01703Y06141*
X01703Y06141*
X01703Y06141*
X01703Y0614*
X01703Y0614*
X01703Y0614*
X01703Y0614*
X01703Y06139*
X01703Y06139*
X01703Y06139*
X01703Y06138*
X01703Y06138*
X01703Y06138*
X01704Y06138*
X01704Y06137*
X01704Y06137*
X01704Y06137*
X01704Y06137*
X01704Y06137*
X01705Y06136*
X01705Y06136*
X01705Y06136*
X01705Y06136*
X01706Y06136*
X01706Y06136*
X01706Y06136*
X01706Y06136*
X01707Y06136*
X01707Y06136*
X01707*
X01707Y06136*
X01708Y06136*
X01708Y06136*
X01708Y06136*
X01709Y06136*
X01709Y06136*
X01709Y06136*
X01709Y06136*
X01709Y06136*
X0171Y06137*
X0171Y06137*
X0171Y06137*
X0171Y06137*
X0171Y06137*
X01711Y06138*
X01711Y06138*
X01711Y06138*
X01711Y06138*
X01711Y06139*
X01711Y06139*
X01711Y06139*
X01711Y0614*
X02521D02*
D01*
X02521Y0614*
X02521Y0614*
X02521Y0614*
X02521Y06141*
X02521Y06141*
X02521Y06141*
X02521Y06141*
X02521Y06142*
X02521Y06142*
X0252Y06142*
X0252Y06142*
X0252Y06142*
X0252Y06143*
X0252Y06143*
X02519Y06143*
X02519Y06143*
X02519Y06143*
X02519Y06143*
X02518Y06143*
X02518Y06143*
X02518Y06143*
X02517Y06143*
X02517*
X02517Y06143*
X02517Y06143*
X02516Y06143*
X02516Y06143*
X02516Y06143*
X02516Y06143*
X02515Y06143*
X02515Y06143*
X02515Y06143*
X02515Y06142*
X02515Y06142*
X02514Y06142*
X02514Y06142*
X02514Y06142*
X02514Y06141*
X02514Y06141*
X02514Y06141*
X02514Y06141*
X02513Y0614*
X02513Y0614*
X02513Y0614*
X02513Y0614*
X02513Y06139*
X02513Y06139*
X02513Y06139*
X02514Y06138*
X02514Y06138*
X02514Y06138*
X02514Y06138*
X02514Y06137*
X02514Y06137*
X02514Y06137*
X02515Y06137*
X02515Y06137*
X02515Y06136*
X02515Y06136*
X02515Y06136*
X02516Y06136*
X02516Y06136*
X02516Y06136*
X02516Y06136*
X02517Y06136*
X02517Y06136*
X02517Y06136*
X02517*
X02518Y06136*
X02518Y06136*
X02518Y06136*
X02519Y06136*
X02519Y06136*
X02519Y06136*
X02519Y06136*
X0252Y06136*
X0252Y06136*
X0252Y06137*
X0252Y06137*
X0252Y06137*
X02521Y06137*
X02521Y06137*
X02521Y06138*
X02521Y06138*
X02521Y06138*
X02521Y06138*
X02521Y06139*
X02521Y06139*
X02521Y06139*
X02521Y0614*
X03332D02*
D01*
X03332Y0614*
X03332Y0614*
X03332Y0614*
X03331Y06141*
X03331Y06141*
X03331Y06141*
X03331Y06141*
X03331Y06142*
X03331Y06142*
X03331Y06142*
X0333Y06142*
X0333Y06142*
X0333Y06143*
X0333Y06143*
X0333Y06143*
X03329Y06143*
X03329Y06143*
X03329Y06143*
X03329Y06143*
X03328Y06143*
X03328Y06143*
X03328Y06143*
X03328*
X03327Y06143*
X03327Y06143*
X03327Y06143*
X03326Y06143*
X03326Y06143*
X03326Y06143*
X03326Y06143*
X03325Y06143*
X03325Y06143*
X03325Y06142*
X03325Y06142*
X03325Y06142*
X03324Y06142*
X03324Y06142*
X03324Y06141*
X03324Y06141*
X03324Y06141*
X03324Y06141*
X03324Y0614*
X03324Y0614*
X03324Y0614*
X03324Y0614*
X03324Y06139*
X03324Y06139*
X03324Y06139*
X03324Y06138*
X03324Y06138*
X03324Y06138*
X03324Y06138*
X03324Y06137*
X03324Y06137*
X03325Y06137*
X03325Y06137*
X03325Y06137*
X03325Y06136*
X03325Y06136*
X03326Y06136*
X03326Y06136*
X03326Y06136*
X03326Y06136*
X03327Y06136*
X03327Y06136*
X03327Y06136*
X03328Y06136*
X03328*
X03328Y06136*
X03328Y06136*
X03329Y06136*
X03329Y06136*
X03329Y06136*
X03329Y06136*
X0333Y06136*
X0333Y06136*
X0333Y06136*
X0333Y06137*
X0333Y06137*
X03331Y06137*
X03331Y06137*
X03331Y06137*
X03331Y06138*
X03331Y06138*
X03331Y06138*
X03331Y06138*
X03332Y06139*
X03332Y06139*
X03332Y06139*
X03332Y0614*
X04142D02*
D01*
X04142Y0614*
X04142Y0614*
X04142Y0614*
X04142Y06141*
X04142Y06141*
X04142Y06141*
X04141Y06141*
X04141Y06142*
X04141Y06142*
X04141Y06142*
X04141Y06142*
X04141Y06142*
X0414Y06143*
X0414Y06143*
X0414Y06143*
X0414Y06143*
X04139Y06143*
X04139Y06143*
X04139Y06143*
X04139Y06143*
X04138Y06143*
X04138Y06143*
X04138*
X04138Y06143*
X04137Y06143*
X04137Y06143*
X04137Y06143*
X04136Y06143*
X04136Y06143*
X04136Y06143*
X04136Y06143*
X04136Y06143*
X04135Y06142*
X04135Y06142*
X04135Y06142*
X04135Y06142*
X04135Y06142*
X04134Y06141*
X04134Y06141*
X04134Y06141*
X04134Y06141*
X04134Y0614*
X04134Y0614*
X04134Y0614*
X04134Y0614*
X04134Y06139*
X04134Y06139*
X04134Y06139*
X04134Y06138*
X04134Y06138*
X04134Y06138*
X04134Y06138*
X04135Y06137*
X04135Y06137*
X04135Y06137*
X04135Y06137*
X04135Y06137*
X04136Y06136*
X04136Y06136*
X04136Y06136*
X04136Y06136*
X04136Y06136*
X04137Y06136*
X04137Y06136*
X04137Y06136*
X04138Y06136*
X04138Y06136*
X04138*
X04138Y06136*
X04139Y06136*
X04139Y06136*
X04139Y06136*
X04139Y06136*
X0414Y06136*
X0414Y06136*
X0414Y06136*
X0414Y06136*
X04141Y06137*
X04141Y06137*
X04141Y06137*
X04141Y06137*
X04141Y06137*
X04141Y06138*
X04142Y06138*
X04142Y06138*
X04142Y06138*
X04142Y06139*
X04142Y06139*
X04142Y06139*
X04142Y0614*
X04952D02*
D01*
X04952Y0614*
X04952Y0614*
X04952Y0614*
X04952Y06141*
X04952Y06141*
X04952Y06141*
X04952Y06141*
X04952Y06142*
X04951Y06142*
X04951Y06142*
X04951Y06142*
X04951Y06142*
X04951Y06143*
X0495Y06143*
X0495Y06143*
X0495Y06143*
X0495Y06143*
X04949Y06143*
X04949Y06143*
X04949Y06143*
X04949Y06143*
X04948Y06143*
X04948*
X04948Y06143*
X04948Y06143*
X04947Y06143*
X04947Y06143*
X04947Y06143*
X04947Y06143*
X04946Y06143*
X04946Y06143*
X04946Y06143*
X04946Y06142*
X04945Y06142*
X04945Y06142*
X04945Y06142*
X04945Y06142*
X04945Y06141*
X04945Y06141*
X04945Y06141*
X04944Y06141*
X04944Y0614*
X04944Y0614*
X04944Y0614*
X04944Y0614*
X04944Y06139*
X04944Y06139*
X04944Y06139*
X04944Y06138*
X04945Y06138*
X04945Y06138*
X04945Y06138*
X04945Y06137*
X04945Y06137*
X04945Y06137*
X04945Y06137*
X04946Y06137*
X04946Y06136*
X04946Y06136*
X04946Y06136*
X04947Y06136*
X04947Y06136*
X04947Y06136*
X04947Y06136*
X04948Y06136*
X04948Y06136*
X04948Y06136*
X04948*
X04949Y06136*
X04949Y06136*
X04949Y06136*
X04949Y06136*
X0495Y06136*
X0495Y06136*
X0495Y06136*
X0495Y06136*
X04951Y06136*
X04951Y06137*
X04951Y06137*
X04951Y06137*
X04951Y06137*
X04952Y06137*
X04952Y06138*
X04952Y06138*
X04952Y06138*
X04952Y06138*
X04952Y06139*
X04952Y06139*
X04952Y06139*
X04952Y0614*
X05763D02*
D01*
X05763Y0614*
X05762Y0614*
X05762Y0614*
X05762Y06141*
X05762Y06141*
X05762Y06141*
X05762Y06141*
X05762Y06142*
X05762Y06142*
X05762Y06142*
X05761Y06142*
X05761Y06142*
X05761Y06143*
X05761Y06143*
X05761Y06143*
X0576Y06143*
X0576Y06143*
X0576Y06143*
X0576Y06143*
X05759Y06143*
X05759Y06143*
X05759Y06143*
X05758*
X05758Y06143*
X05758Y06143*
X05758Y06143*
X05757Y06143*
X05757Y06143*
X05757Y06143*
X05757Y06143*
X05756Y06143*
X05756Y06143*
X05756Y06142*
X05756Y06142*
X05756Y06142*
X05755Y06142*
X05755Y06142*
X05755Y06141*
X05755Y06141*
X05755Y06141*
X05755Y06141*
X05755Y0614*
X05755Y0614*
X05755Y0614*
X05755Y0614*
X05755Y06139*
X05755Y06139*
X05755Y06139*
X05755Y06138*
X05755Y06138*
X05755Y06138*
X05755Y06138*
X05755Y06137*
X05755Y06137*
X05756Y06137*
X05756Y06137*
X05756Y06137*
X05756Y06136*
X05756Y06136*
X05757Y06136*
X05757Y06136*
X05757Y06136*
X05757Y06136*
X05758Y06136*
X05758Y06136*
X05758Y06136*
X05758Y06136*
X05759*
X05759Y06136*
X05759Y06136*
X0576Y06136*
X0576Y06136*
X0576Y06136*
X0576Y06136*
X05761Y06136*
X05761Y06136*
X05761Y06136*
X05761Y06137*
X05761Y06137*
X05762Y06137*
X05762Y06137*
X05762Y06137*
X05762Y06138*
X05762Y06138*
X05762Y06138*
X05762Y06138*
X05762Y06139*
X05762Y06139*
X05763Y06139*
X05763Y0614*
X08713Y0078D02*
D01*
X08713Y0078*
X08713Y0078*
X08713Y0078*
X08713Y00781*
X08713Y00781*
X08713Y00781*
X08713Y00781*
X08713Y00782*
X08713Y00782*
X08713Y00782*
X08712Y00782*
X08712Y00782*
X08712Y00783*
X08712Y00783*
X08711Y00783*
X08711Y00783*
X08711Y00783*
X08711Y00783*
X0871Y00783*
X0871Y00783*
X0871Y00783*
X0871Y00783*
X08709*
X08709Y00783*
X08709Y00783*
X08709Y00783*
X08708Y00783*
X08708Y00783*
X08708Y00783*
X08708Y00783*
X08707Y00783*
X08707Y00783*
X08707Y00782*
X08707Y00782*
X08706Y00782*
X08706Y00782*
X08706Y00782*
X08706Y00781*
X08706Y00781*
X08706Y00781*
X08706Y00781*
X08706Y0078*
X08706Y0078*
X08706Y0078*
X08706Y0078*
X08706Y00779*
X08706Y00779*
X08706Y00779*
X08706Y00778*
X08706Y00778*
X08706Y00778*
X08706Y00778*
X08706Y00777*
X08706Y00777*
X08706Y00777*
X08707Y00777*
X08707Y00777*
X08707Y00776*
X08707Y00776*
X08708Y00776*
X08708Y00776*
X08708Y00776*
X08708Y00776*
X08709Y00776*
X08709Y00776*
X08709Y00776*
X08709Y00776*
X0871*
X0871Y00776*
X0871Y00776*
X0871Y00776*
X08711Y00776*
X08711Y00776*
X08711Y00776*
X08711Y00776*
X08712Y00776*
X08712Y00776*
X08712Y00777*
X08712Y00777*
X08713Y00777*
X08713Y00777*
X08713Y00777*
X08713Y00778*
X08713Y00778*
X08713Y00778*
X08713Y00778*
X08713Y00779*
X08713Y00779*
X08713Y00779*
X08713Y0078*
X00158Y0426D02*
D01*
X00158Y0426*
X00158Y0426*
X00158Y0426*
X00158Y04261*
X00158Y04261*
X00158Y04261*
X00158Y04261*
X00158Y04262*
X00158Y04262*
X00158Y04262*
X00157Y04262*
X00157Y04262*
X00157Y04263*
X00157Y04263*
X00156Y04263*
X00156Y04263*
X00156Y04263*
X00156Y04263*
X00155Y04263*
X00155Y04263*
X00155Y04263*
X00155Y04263*
X00154*
X00154Y04263*
X00154Y04263*
X00154Y04263*
X00153Y04263*
X00153Y04263*
X00153Y04263*
X00153Y04263*
X00152Y04263*
X00152Y04263*
X00152Y04262*
X00152Y04262*
X00151Y04262*
X00151Y04262*
X00151Y04262*
X00151Y04261*
X00151Y04261*
X00151Y04261*
X00151Y04261*
X00151Y0426*
X00151Y0426*
X00151Y0426*
X00151Y0426*
X00151Y04259*
X00151Y04259*
X00151Y04259*
X00151Y04258*
X00151Y04258*
X00151Y04258*
X00151Y04258*
X00151Y04257*
X00151Y04257*
X00151Y04257*
X00152Y04257*
X00152Y04257*
X00152Y04256*
X00152Y04256*
X00153Y04256*
X00153Y04256*
X00153Y04256*
X00153Y04256*
X00154Y04256*
X00154Y04256*
X00154Y04256*
X00154Y04256*
X00155*
X00155Y04256*
X00155Y04256*
X00155Y04256*
X00156Y04256*
X00156Y04256*
X00156Y04256*
X00156Y04256*
X00157Y04256*
X00157Y04256*
X00157Y04257*
X00157Y04257*
X00158Y04257*
X00158Y04257*
X00158Y04257*
X00158Y04258*
X00158Y04258*
X00158Y04258*
X00158Y04258*
X00158Y04259*
X00158Y04259*
X00158Y04259*
X00158Y0426*
X08713Y0215D02*
D01*
X08713Y0215*
X08713Y0215*
X08713Y0215*
X08713Y02151*
X08713Y02151*
X08713Y02151*
X08713Y02151*
X08713Y02152*
X08713Y02152*
X08713Y02152*
X08712Y02152*
X08712Y02152*
X08712Y02153*
X08712Y02153*
X08711Y02153*
X08711Y02153*
X08711Y02153*
X08711Y02153*
X0871Y02153*
X0871Y02153*
X0871Y02153*
X0871Y02153*
X08709*
X08709Y02153*
X08709Y02153*
X08709Y02153*
X08708Y02153*
X08708Y02153*
X08708Y02153*
X08708Y02153*
X08707Y02153*
X08707Y02153*
X08707Y02152*
X08707Y02152*
X08706Y02152*
X08706Y02152*
X08706Y02152*
X08706Y02151*
X08706Y02151*
X08706Y02151*
X08706Y02151*
X08706Y0215*
X08706Y0215*
X08706Y0215*
X08706Y0215*
X08706Y02149*
X08706Y02149*
X08706Y02149*
X08706Y02148*
X08706Y02148*
X08706Y02148*
X08706Y02148*
X08706Y02147*
X08706Y02147*
X08706Y02147*
X08707Y02147*
X08707Y02147*
X08707Y02146*
X08707Y02146*
X08708Y02146*
X08708Y02146*
X08708Y02146*
X08708Y02146*
X08709Y02146*
X08709Y02146*
X08709Y02146*
X08709Y02146*
X0871*
X0871Y02146*
X0871Y02146*
X0871Y02146*
X08711Y02146*
X08711Y02146*
X08711Y02146*
X08711Y02146*
X08712Y02146*
X08712Y02146*
X08712Y02147*
X08712Y02147*
X08713Y02147*
X08713Y02147*
X08713Y02147*
X08713Y02148*
X08713Y02148*
X08713Y02148*
X08713Y02148*
X08713Y02149*
X08713Y02149*
X08713Y02149*
X08713Y0215*
X05435Y01292D02*
D01*
X05435Y01292*
X05435Y01293*
X05435Y01293*
X05435Y01293*
X05435Y01294*
X05434Y01294*
X05434Y01294*
X05434Y01294*
X05434Y01295*
X05434Y01295*
X05434Y01295*
X05433Y01295*
X05433Y01295*
X05433Y01295*
X05433Y01296*
X05433Y01296*
X05432Y01296*
X05432Y01296*
X05432Y01296*
X05432Y01296*
X05431Y01296*
X05431Y01296*
X05431*
X0543Y01296*
X0543Y01296*
X0543Y01296*
X0543Y01296*
X05429Y01296*
X05429Y01296*
X05429Y01296*
X05429Y01295*
X05428Y01295*
X05428Y01295*
X05428Y01295*
X05428Y01295*
X05428Y01295*
X05427Y01294*
X05427Y01294*
X05427Y01294*
X05427Y01294*
X05427Y01293*
X05427Y01293*
X05427Y01293*
X05427Y01292*
X05427Y01292*
X05427Y01292*
X05427Y01292*
X05427Y01291*
X05427Y01291*
X05427Y01291*
X05427Y01291*
X05427Y0129*
X05427Y0129*
X05428Y0129*
X05428Y0129*
X05428Y01289*
X05428Y01289*
X05428Y01289*
X05429Y01289*
X05429Y01289*
X05429Y01289*
X05429Y01289*
X0543Y01288*
X0543Y01288*
X0543Y01288*
X0543Y01288*
X05431Y01288*
X05431*
X05431Y01288*
X05432Y01288*
X05432Y01288*
X05432Y01288*
X05432Y01289*
X05433Y01289*
X05433Y01289*
X05433Y01289*
X05433Y01289*
X05433Y01289*
X05434Y01289*
X05434Y0129*
X05434Y0129*
X05434Y0129*
X05434Y0129*
X05434Y01291*
X05435Y01291*
X05435Y01291*
X05435Y01291*
X05435Y01292*
X05435Y01292*
X05435Y01292*
X05445Y02887D02*
D01*
X05445Y02887*
X05445Y02888*
X05445Y02888*
X05445Y02888*
X05445Y02889*
X05444Y02889*
X05444Y02889*
X05444Y02889*
X05444Y0289*
X05444Y0289*
X05444Y0289*
X05443Y0289*
X05443Y0289*
X05443Y0289*
X05443Y02891*
X05443Y02891*
X05442Y02891*
X05442Y02891*
X05442Y02891*
X05442Y02891*
X05441Y02891*
X05441Y02891*
X05441*
X0544Y02891*
X0544Y02891*
X0544Y02891*
X0544Y02891*
X05439Y02891*
X05439Y02891*
X05439Y02891*
X05439Y0289*
X05438Y0289*
X05438Y0289*
X05438Y0289*
X05438Y0289*
X05438Y0289*
X05437Y02889*
X05437Y02889*
X05437Y02889*
X05437Y02889*
X05437Y02888*
X05437Y02888*
X05437Y02888*
X05437Y02887*
X05437Y02887*
X05437Y02887*
X05437Y02887*
X05437Y02886*
X05437Y02886*
X05437Y02886*
X05437Y02886*
X05437Y02885*
X05437Y02885*
X05438Y02885*
X05438Y02885*
X05438Y02884*
X05438Y02884*
X05438Y02884*
X05439Y02884*
X05439Y02884*
X05439Y02884*
X05439Y02884*
X0544Y02883*
X0544Y02883*
X0544Y02883*
X0544Y02883*
X05441Y02883*
X05441*
X05441Y02883*
X05442Y02883*
X05442Y02883*
X05442Y02883*
X05442Y02884*
X05443Y02884*
X05443Y02884*
X05443Y02884*
X05443Y02884*
X05443Y02884*
X05444Y02884*
X05444Y02885*
X05444Y02885*
X05444Y02885*
X05444Y02885*
X05444Y02886*
X05445Y02886*
X05445Y02886*
X05445Y02886*
X05445Y02887*
X05445Y02887*
X05445Y02887*
G54D12*
X03278Y0489D02*
D01*
X03278Y04894*
X03278Y04899*
X03277Y04904*
X03276Y04909*
X03274Y04913*
X03272Y04918*
X0327Y04922*
X03268Y04926*
X03265Y0493*
X03262Y04934*
X03259Y04937*
X03255Y04941*
X03252Y04944*
X03248Y04947*
X03244Y04949*
X03239Y04952*
X03235Y04954*
X03231Y04955*
X03226Y04957*
X03221Y04958*
X03216Y04958*
X03212Y04959*
X03207*
X03202Y04958*
X03197Y04958*
X03192Y04957*
X03188Y04955*
X03183Y04954*
X03179Y04952*
X03175Y04949*
X03171Y04947*
X03167Y04944*
X03163Y04941*
X03159Y04937*
X03156Y04934*
X03153Y0493*
X03151Y04926*
X03148Y04922*
X03146Y04918*
X03144Y04913*
X03143Y04909*
X03142Y04904*
X03141Y04899*
X0314Y04894*
X0314Y0489*
X0314Y04885*
X03141Y0488*
X03142Y04875*
X03143Y0487*
X03144Y04866*
X03146Y04861*
X03148Y04857*
X03151Y04853*
X03153Y04849*
X03156Y04845*
X03159Y04842*
X03163Y04838*
X03167Y04835*
X03171Y04832*
X03175Y0483*
X03179Y04827*
X03183Y04825*
X03188Y04824*
X03192Y04822*
X03197Y04821*
X03202Y04821*
X03207Y0482*
X03212*
X03216Y04821*
X03221Y04821*
X03226Y04822*
X03231Y04824*
X03235Y04825*
X03239Y04827*
X03244Y0483*
X03248Y04832*
X03252Y04835*
X03255Y04838*
X03259Y04842*
X03262Y04845*
X03265Y04849*
X03268Y04853*
X0327Y04857*
X03272Y04861*
X03274Y04866*
X03276Y0487*
X03277Y04875*
X03278Y0488*
X03278Y04885*
X03278Y0489*
X07383D02*
D01*
X07383Y04894*
X07382Y04899*
X07381Y04904*
X0738Y04909*
X07379Y04913*
X07377Y04918*
X07375Y04922*
X07372Y04926*
X0737Y0493*
X07367Y04934*
X07363Y04937*
X0736Y04941*
X07356Y04944*
X07352Y04947*
X07348Y04949*
X07344Y04952*
X0734Y04954*
X07335Y04955*
X0733Y04957*
X07326Y04958*
X07321Y04958*
X07316Y04959*
X07311*
X07306Y04958*
X07302Y04958*
X07297Y04957*
X07292Y04955*
X07288Y04954*
X07283Y04952*
X07279Y04949*
X07275Y04947*
X07271Y04944*
X07267Y04941*
X07264Y04937*
X07261Y04934*
X07258Y0493*
X07255Y04926*
X07253Y04922*
X0725Y04918*
X07249Y04913*
X07247Y04909*
X07246Y04904*
X07245Y04899*
X07245Y04894*
X07245Y0489*
X07245Y04885*
X07245Y0488*
X07246Y04875*
X07247Y0487*
X07249Y04866*
X0725Y04861*
X07253Y04857*
X07255Y04853*
X07258Y04849*
X07261Y04845*
X07264Y04842*
X07267Y04838*
X07271Y04835*
X07275Y04832*
X07279Y0483*
X07283Y04827*
X07288Y04825*
X07292Y04824*
X07297Y04822*
X07302Y04821*
X07306Y04821*
X07311Y0482*
X07316*
X07321Y04821*
X07326Y04821*
X0733Y04822*
X07335Y04824*
X0734Y04825*
X07344Y04827*
X07348Y0483*
X07352Y04832*
X07356Y04835*
X0736Y04838*
X07363Y04842*
X07367Y04845*
X0737Y04849*
X07372Y04853*
X07375Y04857*
X07377Y04861*
X07379Y04866*
X0738Y0487*
X07381Y04875*
X07382Y0488*
X07383Y04885*
X07383Y0489*
X06562D02*
D01*
X06562Y04894*
X06561Y04899*
X0656Y04904*
X06559Y04909*
X06558Y04913*
X06556Y04918*
X06554Y04922*
X06551Y04926*
X06549Y0493*
X06546Y04934*
X06542Y04937*
X06539Y04941*
X06535Y04944*
X06531Y04947*
X06527Y04949*
X06523Y04952*
X06519Y04954*
X06514Y04955*
X06509Y04957*
X06505Y04958*
X065Y04958*
X06495Y04959*
X0649*
X06486Y04958*
X06481Y04958*
X06476Y04957*
X06471Y04955*
X06467Y04954*
X06462Y04952*
X06458Y04949*
X06454Y04947*
X0645Y04944*
X06446Y04941*
X06443Y04937*
X0644Y04934*
X06437Y0493*
X06434Y04926*
X06432Y04922*
X0643Y04918*
X06428Y04913*
X06426Y04909*
X06425Y04904*
X06424Y04899*
X06424Y04894*
X06424Y0489*
X06424Y04885*
X06424Y0488*
X06425Y04875*
X06426Y0487*
X06428Y04866*
X0643Y04861*
X06432Y04857*
X06434Y04853*
X06437Y04849*
X0644Y04845*
X06443Y04842*
X06446Y04838*
X0645Y04835*
X06454Y04832*
X06458Y0483*
X06462Y04827*
X06467Y04825*
X06471Y04824*
X06476Y04822*
X06481Y04821*
X06486Y04821*
X0649Y0482*
X06495*
X065Y04821*
X06505Y04821*
X06509Y04822*
X06514Y04824*
X06519Y04825*
X06523Y04827*
X06527Y0483*
X06531Y04832*
X06535Y04835*
X06539Y04838*
X06542Y04842*
X06546Y04845*
X06549Y04849*
X06551Y04853*
X06554Y04857*
X06556Y04861*
X06558Y04866*
X06559Y0487*
X0656Y04875*
X06561Y0488*
X06562Y04885*
X06562Y0489*
X05741D02*
D01*
X05741Y04894*
X0574Y04899*
X05739Y04904*
X05738Y04909*
X05737Y04913*
X05735Y04918*
X05733Y04922*
X0573Y04926*
X05728Y0493*
X05725Y04934*
X05722Y04937*
X05718Y04941*
X05714Y04944*
X0571Y04947*
X05706Y04949*
X05702Y04952*
X05698Y04954*
X05693Y04955*
X05689Y04957*
X05684Y04958*
X05679Y04958*
X05674Y04959*
X05669*
X05665Y04958*
X0566Y04958*
X05655Y04957*
X0565Y04955*
X05646Y04954*
X05642Y04952*
X05637Y04949*
X05633Y04947*
X05629Y04944*
X05626Y04941*
X05622Y04937*
X05619Y04934*
X05616Y0493*
X05613Y04926*
X05611Y04922*
X05609Y04918*
X05607Y04913*
X05605Y04909*
X05604Y04904*
X05603Y04899*
X05603Y04894*
X05603Y0489*
X05603Y04885*
X05603Y0488*
X05604Y04875*
X05605Y0487*
X05607Y04866*
X05609Y04861*
X05611Y04857*
X05613Y04853*
X05616Y04849*
X05619Y04845*
X05622Y04842*
X05626Y04838*
X05629Y04835*
X05633Y04832*
X05637Y0483*
X05642Y04827*
X05646Y04825*
X0565Y04824*
X05655Y04822*
X0566Y04821*
X05665Y04821*
X05669Y0482*
X05674*
X05679Y04821*
X05684Y04821*
X05689Y04822*
X05693Y04824*
X05698Y04825*
X05702Y04827*
X05706Y0483*
X0571Y04832*
X05714Y04835*
X05718Y04838*
X05722Y04842*
X05725Y04845*
X05728Y04849*
X0573Y04853*
X05733Y04857*
X05735Y04861*
X05737Y04866*
X05738Y0487*
X05739Y04875*
X0574Y0488*
X05741Y04885*
X05741Y0489*
X0492D02*
D01*
X0492Y04894*
X04919Y04899*
X04919Y04904*
X04917Y04909*
X04916Y04913*
X04914Y04918*
X04912Y04922*
X0491Y04926*
X04907Y0493*
X04904Y04934*
X04901Y04937*
X04897Y04941*
X04894Y04944*
X0489Y04947*
X04886Y04949*
X04881Y04952*
X04877Y04954*
X04872Y04955*
X04868Y04957*
X04863Y04958*
X04858Y04958*
X04853Y04959*
X04849*
X04844Y04958*
X04839Y04958*
X04834Y04957*
X0483Y04955*
X04825Y04954*
X04821Y04952*
X04816Y04949*
X04812Y04947*
X04808Y04944*
X04805Y04941*
X04801Y04937*
X04798Y04934*
X04795Y0493*
X04792Y04926*
X0479Y04922*
X04788Y04918*
X04786Y04913*
X04785Y04909*
X04783Y04904*
X04783Y04899*
X04782Y04894*
X04782Y0489*
X04782Y04885*
X04783Y0488*
X04783Y04875*
X04785Y0487*
X04786Y04866*
X04788Y04861*
X0479Y04857*
X04792Y04853*
X04795Y04849*
X04798Y04845*
X04801Y04842*
X04805Y04838*
X04808Y04835*
X04812Y04832*
X04816Y0483*
X04821Y04827*
X04825Y04825*
X0483Y04824*
X04834Y04822*
X04839Y04821*
X04844Y04821*
X04849Y0482*
X04853*
X04858Y04821*
X04863Y04821*
X04868Y04822*
X04872Y04824*
X04877Y04825*
X04881Y04827*
X04886Y0483*
X0489Y04832*
X04894Y04835*
X04897Y04838*
X04901Y04842*
X04904Y04845*
X04907Y04849*
X0491Y04853*
X04912Y04857*
X04914Y04861*
X04916Y04866*
X04917Y0487*
X04919Y04875*
X04919Y0488*
X0492Y04885*
X0492Y0489*
X04099D02*
D01*
X04099Y04894*
X04099Y04899*
X04098Y04904*
X04097Y04909*
X04095Y04913*
X04093Y04918*
X04091Y04922*
X04089Y04926*
X04086Y0493*
X04083Y04934*
X0408Y04937*
X04076Y04941*
X04073Y04944*
X04069Y04947*
X04065Y04949*
X0406Y04952*
X04056Y04954*
X04051Y04955*
X04047Y04957*
X04042Y04958*
X04037Y04958*
X04032Y04959*
X04028*
X04023Y04958*
X04018Y04958*
X04013Y04957*
X04009Y04955*
X04004Y04954*
X04Y04952*
X03996Y04949*
X03991Y04947*
X03988Y04944*
X03984Y04941*
X0398Y04937*
X03977Y04934*
X03974Y0493*
X03971Y04926*
X03969Y04922*
X03967Y04918*
X03965Y04913*
X03964Y04909*
X03962Y04904*
X03962Y04899*
X03961Y04894*
X03961Y0489*
X03961Y04885*
X03962Y0488*
X03962Y04875*
X03964Y0487*
X03965Y04866*
X03967Y04861*
X03969Y04857*
X03971Y04853*
X03974Y04849*
X03977Y04845*
X0398Y04842*
X03984Y04838*
X03988Y04835*
X03991Y04832*
X03996Y0483*
X04Y04827*
X04004Y04825*
X04009Y04824*
X04013Y04822*
X04018Y04821*
X04023Y04821*
X04028Y0482*
X04032*
X04037Y04821*
X04042Y04821*
X04047Y04822*
X04051Y04824*
X04056Y04825*
X0406Y04827*
X04065Y0483*
X04069Y04832*
X04073Y04835*
X04076Y04838*
X0408Y04842*
X04083Y04845*
X04086Y04849*
X04089Y04853*
X04091Y04857*
X04093Y04861*
X04095Y04866*
X04097Y0487*
X04098Y04875*
X04099Y0488*
X04099Y04885*
X04099Y0489*
X02457D02*
D01*
X02457Y04894*
X02457Y04899*
X02456Y04904*
X02455Y04909*
X02453Y04913*
X02451Y04918*
X02449Y04922*
X02447Y04926*
X02444Y0493*
X02441Y04934*
X02438Y04937*
X02435Y04941*
X02431Y04944*
X02427Y04947*
X02423Y04949*
X02419Y04952*
X02414Y04954*
X0241Y04955*
X02405Y04957*
X024Y04958*
X02396Y04958*
X02391Y04959*
X02386*
X02381Y04958*
X02376Y04958*
X02372Y04957*
X02367Y04955*
X02362Y04954*
X02358Y04952*
X02354Y04949*
X0235Y04947*
X02346Y04944*
X02342Y04941*
X02339Y04937*
X02335Y04934*
X02332Y0493*
X0233Y04926*
X02327Y04922*
X02325Y04918*
X02323Y04913*
X02322Y04909*
X02321Y04904*
X0232Y04899*
X02319Y04894*
X02319Y0489*
X02319Y04885*
X0232Y0488*
X02321Y04875*
X02322Y0487*
X02323Y04866*
X02325Y04861*
X02327Y04857*
X0233Y04853*
X02332Y04849*
X02335Y04845*
X02339Y04842*
X02342Y04838*
X02346Y04835*
X0235Y04832*
X02354Y0483*
X02358Y04827*
X02362Y04825*
X02367Y04824*
X02372Y04822*
X02376Y04821*
X02381Y04821*
X02386Y0482*
X02391*
X02396Y04821*
X024Y04821*
X02405Y04822*
X0241Y04824*
X02414Y04825*
X02419Y04827*
X02423Y0483*
X02427Y04832*
X02431Y04835*
X02435Y04838*
X02438Y04842*
X02441Y04845*
X02444Y04849*
X02447Y04853*
X02449Y04857*
X02451Y04861*
X02453Y04866*
X02455Y0487*
X02456Y04875*
X02457Y0488*
X02457Y04885*
X02457Y0489*
X01637D02*
D01*
X01636Y04894*
X01636Y04899*
X01635Y04904*
X01634Y04909*
X01632Y04913*
X01631Y04918*
X01628Y04922*
X01626Y04926*
X01623Y0493*
X0162Y04934*
X01617Y04937*
X01614Y04941*
X0161Y04944*
X01606Y04947*
X01602Y04949*
X01598Y04952*
X01593Y04954*
X01589Y04955*
X01584Y04957*
X01579Y04958*
X01575Y04958*
X0157Y04959*
X01565*
X0156Y04958*
X01555Y04958*
X01551Y04957*
X01546Y04955*
X01542Y04954*
X01537Y04952*
X01533Y04949*
X01529Y04947*
X01525Y04944*
X01521Y04941*
X01518Y04937*
X01515Y04934*
X01512Y0493*
X01509Y04926*
X01506Y04922*
X01504Y04918*
X01503Y04913*
X01501Y04909*
X015Y04904*
X01499Y04899*
X01499Y04894*
X01498Y0489*
X01499Y04885*
X01499Y0488*
X015Y04875*
X01501Y0487*
X01503Y04866*
X01504Y04861*
X01506Y04857*
X01509Y04853*
X01512Y04849*
X01515Y04845*
X01518Y04842*
X01521Y04838*
X01525Y04835*
X01529Y04832*
X01533Y0483*
X01537Y04827*
X01542Y04825*
X01546Y04824*
X01551Y04822*
X01555Y04821*
X0156Y04821*
X01565Y0482*
X0157*
X01575Y04821*
X01579Y04821*
X01584Y04822*
X01589Y04824*
X01593Y04825*
X01598Y04827*
X01602Y0483*
X01606Y04832*
X0161Y04835*
X01614Y04838*
X01617Y04842*
X0162Y04845*
X01623Y04849*
X01626Y04853*
X01628Y04857*
X01631Y04861*
X01632Y04866*
X01634Y0487*
X01635Y04875*
X01636Y0488*
X01636Y04885*
X01637Y0489*
X00816D02*
D01*
X00815Y04894*
X00815Y04899*
X00814Y04904*
X00813Y04909*
X00811Y04913*
X0081Y04918*
X00808Y04922*
X00805Y04926*
X00802Y0493*
X00799Y04934*
X00796Y04937*
X00793Y04941*
X00789Y04944*
X00785Y04947*
X00781Y04949*
X00777Y04952*
X00772Y04954*
X00768Y04955*
X00763Y04957*
X00759Y04958*
X00754Y04958*
X00749Y04959*
X00744*
X00739Y04958*
X00735Y04958*
X0073Y04957*
X00725Y04955*
X00721Y04954*
X00716Y04952*
X00712Y04949*
X00708Y04947*
X00704Y04944*
X007Y04941*
X00697Y04937*
X00694Y04934*
X00691Y0493*
X00688Y04926*
X00686Y04922*
X00683Y04918*
X00682Y04913*
X0068Y04909*
X00679Y04904*
X00678Y04899*
X00678Y04894*
X00677Y0489*
X00678Y04885*
X00678Y0488*
X00679Y04875*
X0068Y0487*
X00682Y04866*
X00683Y04861*
X00686Y04857*
X00688Y04853*
X00691Y04849*
X00694Y04845*
X00697Y04842*
X007Y04838*
X00704Y04835*
X00708Y04832*
X00712Y0483*
X00716Y04827*
X00721Y04825*
X00725Y04824*
X0073Y04822*
X00735Y04821*
X00739Y04821*
X00744Y0482*
X00749*
X00754Y04821*
X00759Y04821*
X00763Y04822*
X00768Y04824*
X00772Y04825*
X00777Y04827*
X00781Y0483*
X00785Y04832*
X00789Y04835*
X00793Y04838*
X00796Y04842*
X00799Y04845*
X00802Y04849*
X00805Y04853*
X00808Y04857*
X0081Y04861*
X00811Y04866*
X00813Y0487*
X00814Y04875*
X00815Y0488*
X00815Y04885*
X00816Y0489*
X04739Y04485D02*
D01*
X04743Y04474*
X04747Y04464*
X04753Y04454*
X04758Y04444*
X04765Y04435*
X04767Y04433*
X04902D02*
D01*
X04909Y04442*
X04915Y04451*
X0492Y04461*
X04925Y04472*
X04929Y04482*
X0493Y04485*
X04929Y04484D02*
D01*
X0493Y04491*
X0493Y04498*
X0493Y04504*
X04929Y04511*
X04928Y04518*
X04927Y04524*
X04925Y0453*
X04922Y04537*
X04919Y04543*
X04916Y04548*
X04912Y04554*
X04908Y04559*
X04903Y04564*
X04899Y04569*
X04894Y04573*
X04888Y04577*
X04882Y04581*
X04877Y04584*
X0487Y04586*
X04864Y04589*
X04858Y04591*
X04851Y04592*
X04845Y04593*
X04838Y04593*
X04831*
X04824Y04593*
X04818Y04592*
X04811Y04591*
X04805Y04589*
X04799Y04586*
X04792Y04584*
X04787Y04581*
X04781Y04577*
X04775Y04573*
X0477Y04569*
X04766Y04564*
X04761Y04559*
X04757Y04554*
X04753Y04548*
X0475Y04543*
X04747Y04537*
X04744Y0453*
X04742Y04524*
X04741Y04518*
X0474Y04511*
X04739Y04504*
X04739Y04498*
X04739Y04491*
X0474Y04484*
X00644Y04465D02*
D01*
X00648Y04454*
X00652Y04444*
X00658Y04434*
X00663Y04424*
X0067Y04415*
X00672Y04413*
X00807D02*
D01*
X00814Y04422*
X0082Y04431*
X00825Y04441*
X0083Y04452*
X00834Y04462*
X00835Y04465*
X00834Y04464D02*
D01*
X00835Y04471*
X00835Y04478*
X00835Y04484*
X00834Y04491*
X00833Y04498*
X00832Y04504*
X0083Y0451*
X00827Y04517*
X00824Y04523*
X00821Y04528*
X00817Y04534*
X00813Y04539*
X00808Y04544*
X00804Y04549*
X00799Y04553*
X00793Y04557*
X00787Y04561*
X00782Y04564*
X00775Y04566*
X00769Y04569*
X00763Y04571*
X00756Y04572*
X0075Y04573*
X00743Y04573*
X00736*
X00729Y04573*
X00723Y04572*
X00716Y04571*
X0071Y04569*
X00704Y04566*
X00697Y04564*
X00692Y04561*
X00686Y04557*
X0068Y04553*
X00675Y04549*
X00671Y04544*
X00666Y04539*
X00662Y04534*
X00658Y04528*
X00655Y04523*
X00652Y04517*
X00649Y0451*
X00647Y04504*
X00646Y04498*
X00645Y04491*
X00644Y04484*
X00644Y04478*
X00644Y04471*
X00645Y04464*
X01474Y04484D02*
D01*
X01478Y04474*
X01482Y04463*
X01488Y04453*
X01493Y04444*
X015Y04435*
X01502Y04432*
X01637D02*
D01*
X01644Y04441*
X0165Y04451*
X01655Y04461*
X0166Y04471*
X01664Y04482*
X01665Y04484*
X01664Y04484D02*
D01*
X01665Y04491*
X01665Y04497*
X01665Y04504*
X01664Y04511*
X01663Y04517*
X01662Y04524*
X0166Y0453*
X01657Y04536*
X01654Y04542*
X01651Y04548*
X01647Y04554*
X01643Y04559*
X01638Y04564*
X01634Y04568*
X01629Y04573*
X01623Y04577*
X01617Y0458*
X01612Y04583*
X01605Y04586*
X01599Y04588*
X01593Y0459*
X01586Y04592*
X0158Y04593*
X01573Y04593*
X01566*
X01559Y04593*
X01553Y04592*
X01546Y0459*
X0154Y04588*
X01534Y04586*
X01527Y04583*
X01522Y0458*
X01516Y04577*
X0151Y04573*
X01505Y04568*
X01501Y04564*
X01496Y04559*
X01492Y04554*
X01488Y04548*
X01485Y04542*
X01482Y04536*
X01479Y0453*
X01477Y04524*
X01476Y04517*
X01475Y04511*
X01474Y04504*
X01474Y04497*
X01474Y04491*
X01475Y04484*
X02284Y0448D02*
D01*
X02288Y04469*
X02292Y04459*
X02298Y04449*
X02303Y04439*
X0231Y0443*
X02312Y04428*
X02447D02*
D01*
X02454Y04437*
X0246Y04446*
X02465Y04456*
X0247Y04467*
X02474Y04477*
X02475Y0448*
X02474Y04479D02*
D01*
X02475Y04486*
X02475Y04493*
X02475Y04499*
X02474Y04506*
X02473Y04513*
X02472Y04519*
X0247Y04525*
X02467Y04532*
X02464Y04538*
X02461Y04543*
X02457Y04549*
X02453Y04554*
X02448Y04559*
X02444Y04564*
X02439Y04568*
X02433Y04572*
X02427Y04576*
X02422Y04579*
X02415Y04581*
X02409Y04584*
X02403Y04586*
X02396Y04587*
X0239Y04588*
X02383Y04588*
X02376*
X02369Y04588*
X02363Y04587*
X02356Y04586*
X0235Y04584*
X02344Y04581*
X02337Y04579*
X02332Y04576*
X02326Y04572*
X0232Y04568*
X02315Y04564*
X02311Y04559*
X02306Y04554*
X02302Y04549*
X02298Y04543*
X02295Y04538*
X02292Y04532*
X02289Y04525*
X02287Y04519*
X02286Y04513*
X02285Y04506*
X02284Y04499*
X02284Y04493*
X02284Y04486*
X02285Y04479*
X03104Y04485D02*
D01*
X03108Y04474*
X03112Y04464*
X03118Y04454*
X03123Y04444*
X0313Y04435*
X03132Y04433*
X03267D02*
D01*
X03274Y04442*
X0328Y04451*
X03285Y04461*
X0329Y04472*
X03294Y04482*
X03295Y04485*
X03294Y04484D02*
D01*
X03295Y04491*
X03295Y04498*
X03295Y04504*
X03294Y04511*
X03293Y04518*
X03292Y04524*
X0329Y0453*
X03287Y04537*
X03284Y04543*
X03281Y04548*
X03277Y04554*
X03273Y04559*
X03268Y04564*
X03264Y04569*
X03259Y04573*
X03253Y04577*
X03247Y04581*
X03242Y04584*
X03235Y04586*
X03229Y04589*
X03223Y04591*
X03216Y04592*
X0321Y04593*
X03203Y04593*
X03196*
X03189Y04593*
X03183Y04592*
X03176Y04591*
X0317Y04589*
X03164Y04586*
X03157Y04584*
X03152Y04581*
X03146Y04577*
X0314Y04573*
X03135Y04569*
X03131Y04564*
X03126Y04559*
X03122Y04554*
X03118Y04548*
X03115Y04543*
X03112Y04537*
X03109Y0453*
X03107Y04524*
X03106Y04518*
X03105Y04511*
X03104Y04504*
X03104Y04498*
X03104Y04491*
X03105Y04484*
X05569Y0448D02*
D01*
X05573Y04469*
X05577Y04459*
X05583Y04449*
X05588Y04439*
X05595Y0443*
X05597Y04428*
X05732D02*
D01*
X05739Y04437*
X05745Y04446*
X0575Y04456*
X05755Y04467*
X05759Y04477*
X0576Y0448*
X05759Y04479D02*
D01*
X0576Y04486*
X0576Y04493*
X0576Y04499*
X05759Y04506*
X05758Y04513*
X05757Y04519*
X05755Y04525*
X05752Y04532*
X05749Y04538*
X05746Y04543*
X05742Y04549*
X05738Y04554*
X05733Y04559*
X05729Y04564*
X05724Y04568*
X05718Y04572*
X05712Y04576*
X05707Y04579*
X057Y04581*
X05694Y04584*
X05688Y04586*
X05681Y04587*
X05675Y04588*
X05668Y04588*
X05661*
X05654Y04588*
X05648Y04587*
X05641Y04586*
X05635Y04584*
X05629Y04581*
X05622Y04579*
X05617Y04576*
X05611Y04572*
X05605Y04568*
X056Y04564*
X05596Y04559*
X05591Y04554*
X05587Y04549*
X05583Y04543*
X0558Y04538*
X05577Y04532*
X05574Y04525*
X05572Y04519*
X05571Y04513*
X0557Y04506*
X05569Y04499*
X05569Y04493*
X05569Y04486*
X0557Y04479*
X08044Y0448D02*
D01*
X08048Y04469*
X08052Y04459*
X08058Y04449*
X08063Y04439*
X0807Y0443*
X08072Y04428*
X08207D02*
D01*
X08214Y04437*
X0822Y04446*
X08225Y04456*
X0823Y04467*
X08234Y04477*
X08235Y0448*
X08234Y04479D02*
D01*
X08235Y04486*
X08235Y04493*
X08235Y04499*
X08234Y04506*
X08233Y04513*
X08232Y04519*
X0823Y04525*
X08227Y04532*
X08224Y04538*
X08221Y04543*
X08217Y04549*
X08213Y04554*
X08208Y04559*
X08204Y04564*
X08199Y04568*
X08193Y04572*
X08187Y04576*
X08182Y04579*
X08175Y04581*
X08169Y04584*
X08163Y04586*
X08156Y04587*
X0815Y04588*
X08143Y04588*
X08136*
X08129Y04588*
X08123Y04587*
X08116Y04586*
X0811Y04584*
X08104Y04581*
X08097Y04579*
X08092Y04576*
X08086Y04572*
X0808Y04568*
X08075Y04564*
X08071Y04559*
X08066Y04554*
X08062Y04549*
X08058Y04543*
X08055Y04538*
X08052Y04532*
X08049Y04525*
X08047Y04519*
X08046Y04513*
X08045Y04506*
X08044Y04499*
X08044Y04493*
X08044Y04486*
X08045Y04479*
X03939Y0448D02*
D01*
X03943Y04469*
X03947Y04459*
X03953Y04449*
X03958Y04439*
X03965Y0443*
X03967Y04428*
X04102D02*
D01*
X04109Y04437*
X04115Y04446*
X0412Y04456*
X04125Y04467*
X04129Y04477*
X0413Y0448*
X04129Y04479D02*
D01*
X0413Y04486*
X0413Y04493*
X0413Y04499*
X04129Y04506*
X04128Y04513*
X04127Y04519*
X04125Y04525*
X04122Y04532*
X04119Y04538*
X04116Y04543*
X04112Y04549*
X04108Y04554*
X04103Y04559*
X04099Y04564*
X04094Y04568*
X04088Y04572*
X04082Y04576*
X04077Y04579*
X0407Y04581*
X04064Y04584*
X04058Y04586*
X04051Y04587*
X04045Y04588*
X04038Y04588*
X04031*
X04024Y04588*
X04018Y04587*
X04011Y04586*
X04005Y04584*
X03999Y04581*
X03992Y04579*
X03987Y04576*
X03981Y04572*
X03975Y04568*
X0397Y04564*
X03966Y04559*
X03961Y04554*
X03957Y04549*
X03953Y04543*
X0395Y04538*
X03947Y04532*
X03944Y04525*
X03942Y04519*
X03941Y04513*
X0394Y04506*
X03939Y04499*
X03939Y04493*
X03939Y04486*
X0394Y04479*
X06379Y04465D02*
D01*
X06383Y04454*
X06387Y04444*
X06393Y04434*
X06398Y04424*
X06405Y04415*
X06407Y04413*
X06542D02*
D01*
X06549Y04422*
X06555Y04431*
X0656Y04441*
X06565Y04452*
X06569Y04462*
X0657Y04465*
X06569Y04464D02*
D01*
X0657Y04471*
X0657Y04478*
X0657Y04484*
X06569Y04491*
X06568Y04498*
X06567Y04504*
X06565Y0451*
X06562Y04517*
X06559Y04523*
X06556Y04528*
X06552Y04534*
X06548Y04539*
X06543Y04544*
X06539Y04549*
X06534Y04553*
X06528Y04557*
X06522Y04561*
X06517Y04564*
X0651Y04566*
X06504Y04569*
X06498Y04571*
X06491Y04572*
X06485Y04573*
X06478Y04573*
X06471*
X06464Y04573*
X06458Y04572*
X06451Y04571*
X06445Y04569*
X06439Y04566*
X06432Y04564*
X06427Y04561*
X06421Y04557*
X06415Y04553*
X0641Y04549*
X06406Y04544*
X06401Y04539*
X06397Y04534*
X06393Y04528*
X0639Y04523*
X06387Y04517*
X06384Y0451*
X06382Y04504*
X06381Y04498*
X0638Y04491*
X06379Y04484*
X06379Y04478*
X06379Y04471*
X0638Y04464*
X07249Y04465D02*
D01*
X07253Y04454*
X07257Y04444*
X07263Y04434*
X07268Y04424*
X07275Y04415*
X07277Y04413*
X07412D02*
D01*
X07419Y04422*
X07425Y04431*
X0743Y04441*
X07435Y04452*
X07439Y04462*
X0744Y04465*
X07439Y04464D02*
D01*
X0744Y04471*
X0744Y04478*
X0744Y04484*
X07439Y04491*
X07438Y04498*
X07437Y04504*
X07435Y0451*
X07432Y04517*
X07429Y04523*
X07426Y04528*
X07422Y04534*
X07418Y04539*
X07413Y04544*
X07409Y04549*
X07404Y04553*
X07398Y04557*
X07392Y04561*
X07387Y04564*
X0738Y04566*
X07374Y04569*
X07368Y04571*
X07361Y04572*
X07355Y04573*
X07348Y04573*
X07341*
X07334Y04573*
X07328Y04572*
X07321Y04571*
X07315Y04569*
X07309Y04566*
X07302Y04564*
X07297Y04561*
X07291Y04557*
X07285Y04553*
X0728Y04549*
X07276Y04544*
X07271Y04539*
X07267Y04534*
X07263Y04528*
X0726Y04523*
X07257Y04517*
X07254Y0451*
X07252Y04504*
X07251Y04498*
X0725Y04491*
X07249Y04484*
X07249Y04478*
X07249Y04471*
X0725Y04464*
X08204Y0489D02*
D01*
X08203Y04894*
X08203Y04899*
X08202Y04904*
X08201Y04909*
X08199Y04913*
X08198Y04918*
X08196Y04922*
X08193Y04926*
X0819Y0493*
X08187Y04934*
X08184Y04937*
X08181Y04941*
X08177Y04944*
X08173Y04947*
X08169Y04949*
X08165Y04952*
X0816Y04954*
X08156Y04955*
X08151Y04957*
X08146Y04958*
X08142Y04958*
X08137Y04959*
X08132*
X08127Y04958*
X08123Y04958*
X08118Y04957*
X08113Y04955*
X08109Y04954*
X08104Y04952*
X081Y04949*
X08096Y04947*
X08092Y04944*
X08088Y04941*
X08085Y04937*
X08082Y04934*
X08079Y0493*
X08076Y04926*
X08073Y04922*
X08071Y04918*
X0807Y04913*
X08068Y04909*
X08067Y04904*
X08066Y04899*
X08066Y04894*
X08065Y0489*
X08066Y04885*
X08066Y0488*
X08067Y04875*
X08068Y0487*
X0807Y04866*
X08071Y04861*
X08073Y04857*
X08076Y04853*
X08079Y04849*
X08082Y04845*
X08085Y04842*
X08088Y04838*
X08092Y04835*
X08096Y04832*
X081Y0483*
X08104Y04827*
X08109Y04825*
X08113Y04824*
X08118Y04822*
X08123Y04821*
X08127Y04821*
X08132Y0482*
X08137*
X08142Y04821*
X08146Y04821*
X08151Y04822*
X08156Y04824*
X0816Y04825*
X08165Y04827*
X08169Y0483*
X08173Y04832*
X08177Y04835*
X08181Y04838*
X08184Y04842*
X08187Y04845*
X0819Y04849*
X08193Y04853*
X08196Y04857*
X08198Y04861*
X08199Y04866*
X08201Y0487*
X08202Y04875*
X08203Y0488*
X08203Y04885*
X08204Y0489*
X0835Y05109D02*
Y0586D01*
X07739D02*
X0835D01*
X07739Y05109D02*
Y0586D01*
Y05109D02*
X0835D01*
X03091Y05007D02*
X03327D01*
Y04772D02*
Y05007D01*
X03091Y04772D02*
X03327D01*
X03091D02*
Y05007D01*
X0515Y05109D02*
Y0586D01*
X04539D02*
X0515D01*
X04539Y05109D02*
Y0586D01*
Y05109D02*
X0515D01*
X0435D02*
Y0586D01*
X03739D02*
X0435D01*
X03739Y05109D02*
Y0586D01*
Y05109D02*
X0435D01*
X01339D02*
X0195D01*
X01339D02*
Y0586D01*
X0195*
Y05109D02*
Y0586D01*
X0287Y016D02*
X0347D01*
X0287D02*
Y024D01*
X0347*
Y016D02*
Y024D01*
X08547Y03625D02*
Y03944D01*
X08802*
Y03625D02*
Y03944D01*
X08547Y03625D02*
X08802D01*
X0789Y05928D02*
X0829D01*
X0789D02*
Y06251D01*
X0829*
Y05928D02*
Y06251D01*
X07079Y05928D02*
X07479D01*
X07079D02*
Y06251D01*
X07479*
Y05928D02*
Y06251D01*
X06669Y05928D02*
Y06251D01*
X06269D02*
X06669D01*
X06269Y05928D02*
Y06251D01*
Y05928D02*
X06669D01*
X01787Y03359D02*
Y03559D01*
X01393D02*
X01787D01*
X01393Y03359D02*
Y03559D01*
Y03359D02*
X01787D01*
X04054Y01519D02*
X04435D01*
X04054D02*
Y0247D01*
X04435*
Y01519D02*
Y0247D01*
X00371Y03495D02*
Y03895D01*
X00048Y03495D02*
X00371D01*
X00048D02*
Y03895D01*
X00371*
X0141Y00083D02*
Y00406D01*
Y00083D02*
X0181D01*
Y00406*
X0141D02*
X0181D01*
X00354Y02083D02*
X00393D01*
X00374Y02063D02*
Y02103D01*
Y02772D02*
Y02811D01*
X00214Y02632D02*
X00311Y02742D01*
X00437D02*
X00533Y02632D01*
X00214Y02132D02*
X00533D01*
Y02632*
X00311Y02742D02*
X00437D01*
X00214Y02132D02*
Y02632D01*
X00597Y05928D02*
X00997D01*
X00597D02*
Y06251D01*
X00997*
Y05928D02*
Y06251D01*
X01407Y05928D02*
X01807D01*
X01407D02*
Y06251D01*
X01807*
Y05928D02*
Y06251D01*
X02217Y05928D02*
X02617D01*
X02217D02*
Y06251D01*
X02617*
Y05928D02*
Y06251D01*
X03428Y05928D02*
Y06251D01*
X03028D02*
X03428D01*
X03028Y05928D02*
Y06251D01*
Y05928D02*
X03428D01*
X03838D02*
X04238D01*
X03838D02*
Y06251D01*
X04238*
Y05928D02*
Y06251D01*
X04648Y05928D02*
X05048D01*
X04648D02*
Y06251D01*
X05048*
Y05928D02*
Y06251D01*
X05459Y05928D02*
X05859D01*
X05459D02*
Y06251D01*
X05859*
Y05928D02*
Y06251D01*
X07196Y04772D02*
Y05007D01*
Y04772D02*
X07432D01*
Y05007*
X07196D02*
X07432D01*
X06939Y05109D02*
X0755D01*
X06939D02*
Y0586D01*
X0755*
Y05109D02*
Y0586D01*
X06375Y04772D02*
Y05007D01*
Y04772D02*
X06611D01*
Y05007*
X06375D02*
X06611D01*
X05554Y04772D02*
Y05007D01*
Y04772D02*
X0579D01*
Y05007*
X05554D02*
X0579D01*
X04733D02*
X04969D01*
Y04772D02*
Y05007D01*
X04733Y04772D02*
X04969D01*
X04733D02*
Y05007D01*
X03912D02*
X04148D01*
Y04772D02*
Y05007D01*
X03912Y04772D02*
X04148D01*
X03912D02*
Y05007D01*
X0227Y04772D02*
Y05007D01*
Y04772D02*
X02506D01*
Y05007*
X0227D02*
X02506D01*
X0145D02*
X01685D01*
Y04772D02*
Y05007D01*
X0145Y04772D02*
X01685D01*
X0145D02*
Y05007D01*
X00629Y04772D02*
Y05007D01*
Y04772D02*
X00864D01*
Y05007*
X00629D02*
X00864D01*
X04767Y04432D02*
X04902D01*
X00672Y04412D02*
X00807D01*
X01502Y04432D02*
X01637D01*
X02312Y04427D02*
X02447D01*
X03132Y04432D02*
X03267D01*
X05597Y04427D02*
X05732D01*
X08072D02*
X08207D01*
X03967D02*
X04102D01*
X06407Y04412D02*
X06542D01*
X07277D02*
X07412D01*
X08017Y05007D02*
X08252D01*
Y04772D02*
Y05007D01*
X08017Y04772D02*
X08252D01*
X08017D02*
Y05007D01*
X04665Y00151D02*
X05165D01*
X04554Y00247D02*
Y00373D01*
X04665Y0047D02*
X05165D01*
Y00151D02*
Y0047D01*
X04554Y00373D02*
X04665Y0047D01*
X04554Y00247D02*
X04665Y00151D01*
X04485Y0031D02*
X04525D01*
X05194D02*
X05234D01*
X05214Y00291D02*
Y0033D01*
X05339Y05109D02*
X0595D01*
X05339D02*
Y0586D01*
X0595*
Y05109D02*
Y0586D01*
X06139Y05109D02*
X0675D01*
X06139D02*
Y0586D01*
X0675*
Y05109D02*
Y0586D01*
X0115Y05109D02*
Y0586D01*
X00539D02*
X0115D01*
X00539Y05109D02*
Y0586D01*
Y05109D02*
X0115D01*
X02139D02*
X0275D01*
X02139D02*
Y0586D01*
X0275*
Y05109D02*
Y0586D01*
X02939Y05109D02*
X0355D01*
X02939D02*
Y0586D01*
X0355*
Y05109D02*
Y0586D01*
X03365Y00364D02*
Y01315D01*
X02984D02*
X03365D01*
X02984Y00364D02*
Y01315D01*
Y00364D02*
X03365D01*
X08498Y0068D02*
Y0108D01*
X08821*
Y0068D02*
Y0108D01*
X08498Y0068D02*
X08821D01*
X00366Y0396D02*
Y0436D01*
X00043Y0396D02*
X00366D01*
X00043D02*
Y0436D01*
X00366*
X08498Y0205D02*
Y0245D01*
X08821*
Y0205D02*
Y0245D01*
X08498Y0205D02*
X08821D01*
X02811Y02755D02*
Y03854D01*
X04952*
Y02755D02*
Y03854D01*
X02811Y02755D02*
X04952D01*
X05515Y00867D02*
Y01261D01*
X05315Y00867D02*
X05515D01*
X05315D02*
Y01261D01*
X05515*
X05525Y02462D02*
Y02856D01*
X05325Y02462D02*
X05525D01*
X05325D02*
Y02856D01*
X05525*
G54D13*
X00195Y0629D02*
D01*
X00181Y06289*
X00167Y06288*
X00154Y06285*
X00141Y06282*
X00128Y06278*
X00115Y06273*
X00103Y06267*
X00091Y0626*
X0008Y06252*
X00069Y06244*
X00059Y06235*
X0005Y06225*
X00041Y06215*
X00033Y06204*
X00026Y06192*
X00019Y0618*
X00014Y06168*
X00009Y06155*
X00005Y06142*
X00002Y06128*
X00001Y06115*
X0Y06101*
X0Y06095*
X08915Y0609D02*
D01*
X08914Y06103*
X08913Y06117*
X0891Y06131*
X08907Y06145*
X08902Y06158*
X08897Y06171*
X08891Y06183*
X08884Y06195*
X08876Y06207*
X08868Y06218*
X08858Y06228*
X08848Y06238*
X08838Y06247*
X08826Y06255*
X08815Y06263*
X08802Y06269*
X08789Y06275*
X08776Y0628*
X08763Y06284*
X08749Y06286*
X08735Y06288*
X08721Y06289*
X08715Y0629*
Y0D02*
D01*
X08728Y0*
X08742Y00001*
X08756Y00004*
X0877Y00007*
X08783Y00012*
X08796Y00017*
X08808Y00023*
X0882Y0003*
X08832Y00038*
X08843Y00046*
X08853Y00056*
X08863Y00066*
X08872Y00076*
X0888Y00088*
X08888Y001*
X08894Y00112*
X089Y00125*
X08905Y00138*
X08909Y00151*
X08911Y00165*
X08913Y00179*
X08914Y00193*
X08915Y002*
X0Y00196D02*
D01*
X0Y00183*
X00001Y00169*
X00004Y00155*
X00007Y00142*
X00011Y00129*
X00017Y00116*
X00023Y00104*
X00029Y00092*
X00037Y00081*
X00046Y0007*
X00055Y0006*
X00065Y0005*
X00075Y00041*
X00086Y00033*
X00098Y00026*
X0011Y00019*
X00123Y00014*
X00136Y00009*
X00149Y00005*
X00162Y00002*
X00176Y00001*
X00189Y0*
X00196Y0*
X08915Y0609D02*
Y002D01*
X00195Y0629D02*
X08715D01*
X00196Y0D02*
X08715D01*
X0Y00196D02*
Y061D01*
X09874Y06274D02*
D01*
Y06275D01*
G54D16*
X0543Y00742D02*
Y00757D01*
X05422Y0075D02*
X05438D01*
X0545Y02317D02*
Y02332D01*
X05442Y02325D02*
X05458D01*
X05422Y0138D02*
X05438D01*
X0543Y01372D02*
Y01387D01*
X0392Y01677D02*
Y01692D01*
X03912Y01685D02*
X03927D01*
X0544Y02987D02*
Y03002D01*
X05432Y02995D02*
X05448D01*
X01205Y03436D02*
Y03452D01*
X01197Y03444D02*
X01212D01*
X02Y03436D02*
Y03452D01*
X01992Y03444D02*
X02007D01*
X06872Y04965D02*
X06887D01*
X0688Y04957D02*
Y04972D01*
X06017Y04935D02*
X06032D01*
X06025Y04927D02*
Y04942D01*
X07688Y0469D02*
X07703D01*
X07696Y04682D02*
Y04697D01*
X0273Y011D02*
X02746D01*
X02738Y01092D02*
Y01107D01*
X08522Y0478D02*
X08537D01*
X0853Y04772D02*
Y04787D01*
X08522Y04945D02*
X08537D01*
X0853Y04937D02*
Y04952D01*
X0109Y04677D02*
Y04692D01*
X01082Y04685D02*
X01097D01*
X02725Y04672D02*
Y04687D01*
X02717Y0468D02*
X02732D01*
X0601Y04712D02*
Y04727D01*
X06002Y0472D02*
X06017D01*
X01935Y04682D02*
Y04697D01*
X01927Y0469D02*
X01942D01*
X06855Y04727D02*
Y04742D01*
X06847Y04735D02*
X06862D01*
X0359Y04692D02*
Y04707D01*
X03582Y047D02*
X03597D01*
X04365Y04702D02*
Y04717D01*
X04357Y0471D02*
X04372D01*
X0524Y04702D02*
Y04717D01*
X05232Y0471D02*
X05247D01*
X01105Y04912D02*
Y04927D01*
X01097Y0492D02*
X01112D01*
X08145Y04242D02*
Y04257D01*
X08137Y0425D02*
X08152D01*
X0196Y04907D02*
Y04922D01*
X01952Y04915D02*
X01967D01*
X0275Y04907D02*
Y04922D01*
X02742Y04915D02*
X02757D01*
X03613Y04917D02*
Y04932D01*
X03605Y04925D02*
X03621D01*
X0439Y04932D02*
Y04947D01*
X04382Y0494D02*
X04397D01*
X0525Y04932D02*
Y04947D01*
X05242Y0494D02*
X05257D01*
X07721Y04922D02*
Y04937D01*
X07713Y0493D02*
X07729D01*
X08727Y04821D02*
X08832D01*
X08727Y04618D02*
X08832D01*
Y04821*
X08727Y04618D02*
Y04821D01*
X02106Y03481D02*
Y03548D01*
X02143Y03481D02*
Y03548D01*
X02106Y03481D02*
X02143D01*
X02106Y03548D02*
X02143D01*
X03938Y01422D02*
Y01488D01*
X03901Y01422D02*
Y01488D01*
X03938*
X03901Y01422D02*
X03938D01*
X05326Y01481D02*
X05393D01*
X05326Y01518D02*
X05393D01*
Y01481D02*
Y01518D01*
X05326Y01481D02*
Y01518D01*
Y00611D02*
X05393D01*
X05326Y00648D02*
X05393D01*
Y00611D02*
Y00648D01*
X05326Y00611D02*
Y00648D01*
X05346Y02196D02*
X05413D01*
X05346Y02233D02*
X05413D01*
Y02196D02*
Y02233D01*
X05346Y02196D02*
Y02233D01*
X05336Y03076D02*
X05403D01*
X05336Y03113D02*
X05403D01*
Y03076D02*
Y03113D01*
X05336Y03076D02*
Y03113D01*
X02921Y04626D02*
Y04693D01*
X02958Y04626D02*
Y04693D01*
X02921Y04626D02*
X02958D01*
X02921Y04693D02*
X02958D01*
X00476Y04721D02*
Y04788D01*
X00513Y04721D02*
Y04788D01*
X00476Y04721D02*
X00513D01*
X00476Y04788D02*
X00513D01*
X02126Y04601D02*
Y04668D01*
X02163Y04601D02*
Y04668D01*
X02126Y04601D02*
X02163D01*
X02126Y04668D02*
X02163D01*
X01311Y04716D02*
Y04783D01*
X01348Y04716D02*
Y04783D01*
X01311Y04716D02*
X01348D01*
X01311Y04783D02*
X01348D01*
X00971Y04518D02*
X01037D01*
X00971Y04481D02*
X01037D01*
X00971D02*
Y04518D01*
X01037Y04481D02*
Y04518D01*
X02621D02*
X02688D01*
X02621Y04481D02*
X02688D01*
X02621D02*
Y04518D01*
X02688Y04481D02*
Y04518D01*
X08696Y04472D02*
Y04604D01*
X08593Y04472D02*
Y04604D01*
X08696*
X08593Y04472D02*
X08696D01*
X05101Y04538D02*
X05168D01*
X05101Y04501D02*
X05168D01*
X05101D02*
Y04538D01*
X05168Y04501D02*
Y04538D01*
X01791Y04523D02*
X01857D01*
X01791Y04486D02*
X01857D01*
X01791D02*
Y04523D01*
X01857Y04486D02*
Y04523D01*
X05886Y04548D02*
X05953D01*
X05886Y04511D02*
X05953D01*
X05886D02*
Y04548D01*
X05953Y04511D02*
Y04548D01*
X04246Y04533D02*
X04313D01*
X04246Y04496D02*
X04313D01*
X04246D02*
Y04533D01*
X04313Y04496D02*
Y04533D01*
X03456Y04538D02*
X03523D01*
X03456Y04501D02*
X03523D01*
X03456D02*
Y04538D01*
X03523Y04501D02*
Y04538D01*
X07571Y04563D02*
X07638D01*
X07571Y04526D02*
X07638D01*
X07571D02*
Y04563D01*
X07638Y04526D02*
Y04563D01*
X05421Y04731D02*
Y04798D01*
X05458Y04731D02*
Y04798D01*
X05421Y04731D02*
X05458D01*
X05421Y04798D02*
X05458D01*
X04571Y04711D02*
Y04778D01*
X04608Y04711D02*
Y04778D01*
X04571Y04711D02*
X04608D01*
X04571Y04778D02*
X04608D01*
X03766Y04642D02*
Y04708D01*
X03803Y04642D02*
Y04708D01*
X03766Y04642D02*
X03803D01*
X03766Y04708D02*
X03803D01*
X01066Y03481D02*
Y03548D01*
X01103Y03481D02*
Y03548D01*
X01066Y03481D02*
X01103D01*
X01066Y03548D02*
X01103D01*
X06231Y04711D02*
Y04778D01*
X06268Y04711D02*
Y04778D01*
X06231Y04711D02*
X06268D01*
X06231Y04778D02*
X06268D01*
X07871Y04721D02*
Y04788D01*
X07908Y04721D02*
Y04788D01*
X07871Y04721D02*
X07908D01*
X07871Y04788D02*
X07908D01*
X06798Y04511D02*
Y04548D01*
X06731Y04511D02*
Y04548D01*
Y04511D02*
X06798D01*
X06731Y04548D02*
X06798D01*
X07046Y04788D02*
X07083D01*
X07046Y04721D02*
X07083D01*
Y04788*
X07046Y04721D02*
Y04788D01*
X08724Y04834D02*
X08835D01*
X08724Y04605D02*
X08835D01*
Y04834*
X08724Y04605D02*
Y04834D01*
X0878Y047D02*
Y04739D01*
X0876Y0472D02*
X08799D01*
X02106Y03515D02*
X02143D01*
X02125Y03496D02*
Y03533D01*
X02103Y03467D02*
Y03562D01*
X02146Y03467D02*
Y03562D01*
X02103Y03467D02*
X02146D01*
X02103Y03562D02*
X02146D01*
X03901Y01455D02*
X03938D01*
X0392Y01436D02*
Y01474D01*
X03941Y01408D02*
Y01502D01*
X03898Y01408D02*
Y01502D01*
X03941*
X03898Y01408D02*
X03941D01*
X0536Y01481D02*
Y01518D01*
X05341Y015D02*
X05378D01*
X05312Y01478D02*
X05407D01*
X05312Y01521D02*
X05407D01*
Y01478D02*
Y01521D01*
X05312Y01478D02*
Y01521D01*
X0536Y00611D02*
Y00648D01*
X05341Y0063D02*
X05378D01*
X05312Y00608D02*
X05407D01*
X05312Y00651D02*
X05407D01*
Y00608D02*
Y00651D01*
X05312Y00608D02*
Y00651D01*
X0538Y02196D02*
Y02233D01*
X05361Y02215D02*
X05398D01*
X05332Y02193D02*
X05427D01*
X05332Y02236D02*
X05427D01*
Y02193D02*
Y02236D01*
X05332Y02193D02*
Y02236D01*
X0537Y03076D02*
Y03113D01*
X05351Y03095D02*
X05388D01*
X05322Y03073D02*
X05417D01*
X05322Y03116D02*
X05417D01*
Y03073D02*
Y03116D01*
X05322Y03073D02*
Y03116D01*
X02921Y0466D02*
X02958D01*
X0294Y04641D02*
Y04678D01*
X02918Y04612D02*
Y04707D01*
X02961Y04612D02*
Y04707D01*
X02918Y04612D02*
X02961D01*
X02918Y04707D02*
X02961D01*
X00476Y04755D02*
X00513D01*
X00495Y04736D02*
Y04773D01*
X00473Y04707D02*
Y04802D01*
X00516Y04707D02*
Y04802D01*
X00473Y04707D02*
X00516D01*
X00473Y04802D02*
X00516D01*
X02126Y04635D02*
X02163D01*
X02145Y04616D02*
Y04653D01*
X02123Y04587D02*
Y04682D01*
X02166Y04587D02*
Y04682D01*
X02123Y04587D02*
X02166D01*
X02123Y04682D02*
X02166D01*
X01311Y0475D02*
X01348D01*
X0133Y04731D02*
Y04768D01*
X01308Y04702D02*
Y04797D01*
X01351Y04702D02*
Y04797D01*
X01308Y04702D02*
X01351D01*
X01308Y04797D02*
X01351D01*
X01004Y04481D02*
Y04518D01*
X00985Y045D02*
X01023D01*
X00957Y04521D02*
X01051D01*
X00957Y04478D02*
X01051D01*
X00957D02*
Y04521D01*
X01051Y04478D02*
Y04521D01*
X02655Y04481D02*
Y04518D01*
X02636Y045D02*
X02673D01*
X02607Y04521D02*
X02702D01*
X02607Y04478D02*
X02702D01*
X02607D02*
Y04521D01*
X02702Y04478D02*
Y04521D01*
X08625Y04538D02*
X08664D01*
X08645Y04518D02*
Y04557D01*
X087Y04459D02*
Y04616D01*
X08589Y04459D02*
Y04616D01*
X087*
X08589Y04459D02*
X087D01*
X05135Y04501D02*
Y04538D01*
X05116Y0452D02*
X05153D01*
X05087Y04541D02*
X05182D01*
X05087Y04498D02*
X05182D01*
X05087D02*
Y04541D01*
X05182Y04498D02*
Y04541D01*
X01824Y04486D02*
Y04523D01*
X01805Y04505D02*
X01843D01*
X01777Y04526D02*
X01871D01*
X01777Y04483D02*
X01871D01*
X01777D02*
Y04526D01*
X01871Y04483D02*
Y04526D01*
X0592Y04511D02*
Y04548D01*
X05901Y0453D02*
X05938D01*
X05872Y04551D02*
X05967D01*
X05872Y04508D02*
X05967D01*
X05872D02*
Y04551D01*
X05967Y04508D02*
Y04551D01*
X0428Y04496D02*
Y04533D01*
X04261Y04515D02*
X04298D01*
X04232Y04536D02*
X04327D01*
X04232Y04493D02*
X04327D01*
X04232D02*
Y04536D01*
X04327Y04493D02*
Y04536D01*
X0349Y04501D02*
Y04538D01*
X03471Y0452D02*
X03508D01*
X03442Y04541D02*
X03537D01*
X03442Y04498D02*
X03537D01*
X03442D02*
Y04541D01*
X03537Y04498D02*
Y04541D01*
X07605Y04526D02*
Y04563D01*
X07586Y04545D02*
X07623D01*
X07557Y04566D02*
X07652D01*
X07557Y04523D02*
X07652D01*
X07557D02*
Y04566D01*
X07652Y04523D02*
Y04566D01*
X05421Y04765D02*
X05458D01*
X0544Y04746D02*
Y04783D01*
X05418Y04717D02*
Y04812D01*
X05461Y04717D02*
Y04812D01*
X05418Y04717D02*
X05461D01*
X05418Y04812D02*
X05461D01*
X04571Y04745D02*
X04608D01*
X0459Y04726D02*
Y04763D01*
X04568Y04697D02*
Y04792D01*
X04611Y04697D02*
Y04792D01*
X04568Y04697D02*
X04611D01*
X04568Y04792D02*
X04611D01*
X03766Y04675D02*
X03803D01*
X03785Y04656D02*
Y04694D01*
X03763Y04628D02*
Y04722D01*
X03806Y04628D02*
Y04722D01*
X03763Y04628D02*
X03806D01*
X03763Y04722D02*
X03806D01*
X01066Y03515D02*
X01103D01*
X01085Y03496D02*
Y03533D01*
X01063Y03467D02*
Y03562D01*
X01106Y03467D02*
Y03562D01*
X01063Y03467D02*
X01106D01*
X01063Y03562D02*
X01106D01*
X06231Y04745D02*
X06268D01*
X0625Y04726D02*
Y04763D01*
X06228Y04697D02*
Y04792D01*
X06271Y04697D02*
Y04792D01*
X06228Y04697D02*
X06271D01*
X06228Y04792D02*
X06271D01*
X07871Y04755D02*
X07908D01*
X0789Y04736D02*
Y04773D01*
X07868Y04707D02*
Y04802D01*
X07911Y04707D02*
Y04802D01*
X07868Y04707D02*
X07911D01*
X07868Y04802D02*
X07911D01*
X06812Y04508D02*
Y04551D01*
X06717Y04508D02*
Y04551D01*
Y04508D02*
X06812D01*
X06717Y04551D02*
X06812D01*
X06746Y0453D02*
X06783D01*
X06765Y04511D02*
Y04548D01*
X07043Y04802D02*
X07086D01*
X07043Y04707D02*
X07086D01*
Y04802*
X07043Y04707D02*
Y04802D01*
X07065Y04736D02*
Y04773D01*
X07046Y04755D02*
X07083D01*
G54D17*
X03102Y0273D02*
D01*
X03102Y0273*
X03101Y0273*
X03101Y02731*
X03101Y02731*
X03101Y02732*
X03101Y02732*
X03101Y02732*
X03101Y02733*
X031Y02733*
X031Y02733*
X031Y02734*
X031Y02734*
X03099Y02734*
X03099Y02734*
X03099Y02734*
X03098Y02735*
X03098Y02735*
X03098Y02735*
X03097Y02735*
X03097Y02735*
X03097Y02735*
X03096Y02735*
X03096*
X03095Y02735*
X03095Y02735*
X03095Y02735*
X03094Y02735*
X03094Y02735*
X03094Y02735*
X03093Y02734*
X03093Y02734*
X03093Y02734*
X03092Y02734*
X03092Y02734*
X03092Y02733*
X03092Y02733*
X03091Y02733*
X03091Y02732*
X03091Y02732*
X03091Y02732*
X03091Y02731*
X03091Y02731*
X03091Y0273*
X03091Y0273*
X03091Y0273*
X03091Y02729*
X03091Y02729*
X03091Y02729*
X03091Y02728*
X03091Y02728*
X03091Y02727*
X03091Y02727*
X03091Y02727*
X03092Y02726*
X03092Y02726*
X03092Y02726*
X03092Y02726*
X03093Y02725*
X03093Y02725*
X03093Y02725*
X03094Y02725*
X03094Y02725*
X03094Y02724*
X03095Y02724*
X03095Y02724*
X03095Y02724*
X03096Y02724*
X03096*
X03097Y02724*
X03097Y02724*
X03097Y02724*
X03098Y02724*
X03098Y02725*
X03098Y02725*
X03099Y02725*
X03099Y02725*
X03099Y02725*
X031Y02726*
X031Y02726*
X031Y02726*
X031Y02726*
X03101Y02727*
X03101Y02727*
X03101Y02727*
X03101Y02728*
X03101Y02728*
X03101Y02729*
X03101Y02729*
X03102Y02729*
X03102Y0273*
G54D18*
X08359Y05099D02*
Y0587D01*
X0773D02*
X08359D01*
X0773Y05099D02*
Y0587D01*
Y05099D02*
X08359D01*
X03042Y05017D02*
X03377D01*
Y04762D02*
Y05017D01*
X03042Y04762D02*
X03377D01*
X03042D02*
Y05017D01*
X05159Y05099D02*
Y0587D01*
X0453D02*
X05159D01*
X0453Y05099D02*
Y0587D01*
Y05099D02*
X05159D01*
X04359D02*
Y0587D01*
X0373D02*
X04359D01*
X0373Y05099D02*
Y0587D01*
Y05099D02*
X04359D01*
X0133D02*
X01959D01*
X0133D02*
Y0587D01*
X01959*
Y05099D02*
Y0587D01*
X03479Y0159D02*
Y02409D01*
X0286D02*
X03479D01*
X0286Y0159D02*
Y02409D01*
Y0159D02*
X03479D01*
X08537Y03616D02*
Y03953D01*
X08812*
Y03616D02*
Y03953D01*
X08537Y03616D02*
X08812D01*
X0788Y05918D02*
X08299D01*
X0788D02*
Y06261D01*
X08299*
Y05918D02*
Y06261D01*
X07069Y05918D02*
X07489D01*
X07069D02*
Y06261D01*
X07489*
Y05918D02*
Y06261D01*
X06679Y05918D02*
Y06261D01*
X06259D02*
X06679D01*
X06259Y05918D02*
Y06261D01*
Y05918D02*
X06679D01*
X01797Y03349D02*
Y03569D01*
X01383D02*
X01797D01*
X01383Y03349D02*
Y03569D01*
Y03349D02*
X01797D01*
X04044Y01509D02*
X04445D01*
X04044D02*
Y0248D01*
X04445*
Y01509D02*
Y0248D01*
X00381Y03485D02*
Y03904D01*
X00038Y03485D02*
X00381D01*
X00038D02*
Y03904D01*
X00381*
X014Y00073D02*
Y00416D01*
Y00073D02*
X01819D01*
Y00416*
X014D02*
X01819D01*
X00204Y02122D02*
Y02752D01*
X00543*
Y02122D02*
Y02752D01*
X00204Y02122D02*
X00543D01*
X00587Y05918D02*
X01007D01*
X00587D02*
Y06261D01*
X01007*
Y05918D02*
Y06261D01*
X01397Y05918D02*
X01817D01*
X01397D02*
Y06261D01*
X01817*
Y05918D02*
Y06261D01*
X02208Y05918D02*
X02627D01*
X02208D02*
Y06261D01*
X02627*
Y05918D02*
Y06261D01*
X03437Y05918D02*
Y06261D01*
X03018D02*
X03437D01*
X03018Y05918D02*
Y06261D01*
Y05918D02*
X03437D01*
X03828D02*
X04248D01*
X03828D02*
Y06261D01*
X04248*
Y05918D02*
Y06261D01*
X04638Y05918D02*
X05058D01*
X04638D02*
Y06261D01*
X05058*
Y05918D02*
Y06261D01*
X05449Y05918D02*
X05868D01*
X05449D02*
Y06261D01*
X05868*
Y05918D02*
Y06261D01*
X07146Y04762D02*
Y05017D01*
Y04762D02*
X07481D01*
Y05017*
X07146D02*
X07481D01*
X0693Y05099D02*
X07559D01*
X0693D02*
Y0587D01*
X07559*
Y05099D02*
Y0587D01*
X06325Y04762D02*
Y05017D01*
Y04762D02*
X0666D01*
Y05017*
X06325D02*
X0666D01*
X05505Y04762D02*
Y05017D01*
Y04762D02*
X05839D01*
Y05017*
X05505D02*
X05839D01*
X04684D02*
X05018D01*
Y04762D02*
Y05017D01*
X04684Y04762D02*
X05018D01*
X04684D02*
Y05017D01*
X03863D02*
X04197D01*
Y04762D02*
Y05017D01*
X03863Y04762D02*
X04197D01*
X03863D02*
Y05017D01*
X02221Y04762D02*
Y05017D01*
Y04762D02*
X02556D01*
Y05017*
X02221D02*
X02556D01*
X014D02*
X01735D01*
Y04762D02*
Y05017D01*
X014Y04762D02*
X01735D01*
X014D02*
Y05017D01*
X00579Y04762D02*
Y05017D01*
Y04762D02*
X00914D01*
Y05017*
X00579D02*
X00914D01*
X04695Y0442D02*
Y04606D01*
Y0442D02*
X04974D01*
Y04606*
X04695D02*
X04974D01*
X006Y044D02*
Y04586D01*
Y044D02*
X00879D01*
Y04586*
X006D02*
X00879D01*
X0143Y04419D02*
Y04605D01*
Y04419D02*
X01709D01*
Y04605*
X0143D02*
X01709D01*
X0224Y04415D02*
Y04601D01*
Y04415D02*
X02519D01*
Y04601*
X0224D02*
X02519D01*
X0306Y0442D02*
Y04606D01*
Y0442D02*
X03339D01*
Y04606*
X0306D02*
X03339D01*
X05525Y04415D02*
Y04601D01*
Y04415D02*
X05804D01*
Y04601*
X05525D02*
X05804D01*
X08Y04415D02*
Y04601D01*
Y04415D02*
X08279D01*
Y04601*
X08D02*
X08279D01*
X03895Y04415D02*
Y04601D01*
Y04415D02*
X04174D01*
Y04601*
X03895D02*
X04174D01*
X06335Y044D02*
Y04586D01*
Y044D02*
X06614D01*
Y04586*
X06335D02*
X06614D01*
X07205Y044D02*
Y04586D01*
Y044D02*
X07484D01*
Y04586*
X07205D02*
X07484D01*
X07967Y05017D02*
X08302D01*
Y04762D02*
Y05017D01*
X07967Y04762D02*
X08302D01*
X07967D02*
Y05017D01*
X05174Y00141D02*
Y0048D01*
X04545D02*
X05174D01*
X04545Y00141D02*
Y0048D01*
Y00141D02*
X05174D01*
X0533Y05099D02*
X05959D01*
X0533D02*
Y0587D01*
X05959*
Y05099D02*
Y0587D01*
X0613Y05099D02*
X06759D01*
X0613D02*
Y0587D01*
X06759*
Y05099D02*
Y0587D01*
X01159Y05099D02*
Y0587D01*
X0053D02*
X01159D01*
X0053Y05099D02*
Y0587D01*
Y05099D02*
X01159D01*
X0213D02*
X02759D01*
X0213D02*
Y0587D01*
X02759*
Y05099D02*
Y0587D01*
X0293Y05099D02*
X03559D01*
X0293D02*
Y0587D01*
X03559*
Y05099D02*
Y0587D01*
X03375Y00354D02*
Y01325D01*
X02974D02*
X03375D01*
X02974Y00354D02*
Y01325D01*
Y00354D02*
X03375D01*
X08488Y0067D02*
Y01089D01*
X08831*
Y0067D02*
Y01089D01*
X08488Y0067D02*
X08831D01*
X00376Y0395D02*
Y04369D01*
X00033Y0395D02*
X00376D01*
X00033D02*
Y04369D01*
X00376*
X08488Y0204D02*
Y02459D01*
X08831*
Y0204D02*
Y02459D01*
X08488Y0204D02*
X08831D01*
X02801Y02745D02*
Y03864D01*
X04962*
Y02745D02*
Y03864D01*
X02801Y02745D02*
X04962D01*
X05525Y00857D02*
Y01271D01*
X05305Y00857D02*
X05525D01*
X05305D02*
Y01271D01*
X05525*
X05535Y02452D02*
Y02866D01*
X05315Y02452D02*
X05535D01*
X05315D02*
Y02866D01*
X05535*
G54D89*
X078Y05717D02*
Y05733D01*
X07816*
Y05717*
X078*
X08273D02*
Y05733D01*
X08289*
Y05717*
X08273*
Y05236D02*
Y05252D01*
X08289*
Y05236*
X08273*
X078D02*
Y05252D01*
X07816*
Y05236*
X078*
X03337Y0497D02*
X03329Y04986D01*
X03345*
X03337Y0497*
Y04793D02*
X03329Y04809D01*
X03345*
X03337Y04793*
X03081Y0497D02*
X03073Y04986D01*
X03089*
X03081Y0497*
Y04793D02*
X03073Y04809D01*
X03089*
X03081Y04793*
X00196Y00188D02*
X002Y00192D01*
X00204*
X002Y00196*
X00204Y002*
X002*
X00196Y00204*
X00192Y002*
X00188*
X00192Y00196*
X00188Y00192*
X00192*
X00196Y00188*
X06667Y03612D02*
X06671Y0362D01*
X06667Y03628*
X06675Y03624*
X06683Y03628*
X06679Y0362*
X06683Y03612*
X06675Y03616*
X06667Y03612*
Y03912D02*
X06671Y0392D01*
X06667Y03928*
X06675Y03924*
X06683Y03928*
X06679Y0392*
X06683Y03912*
X06675Y03916*
X06667Y03912*
X03651Y04106D02*
Y04102D01*
X03659*
Y04106*
X03663*
Y04114*
X03659*
Y04118*
X03651*
Y04114*
X03647*
Y04106*
X03651*
X03751D02*
Y04102D01*
X03759*
Y04106*
X03763*
Y04114*
X03759*
Y04118*
X03751*
Y04114*
X03747*
Y04106*
X03751*
X03851D02*
Y04102D01*
X03859*
Y04106*
X03863*
Y04114*
X03859*
Y04118*
X03851*
Y04114*
X03847*
Y04106*
X03851*
X03951D02*
Y04102D01*
X03959*
Y04106*
X03963*
Y04114*
X03959*
Y04118*
X03951*
Y04114*
X03947*
Y04106*
X03951*
X04051D02*
Y04102D01*
X04059*
Y04106*
X04063*
Y04114*
X04059*
Y04118*
X04051*
Y04114*
X04047*
Y04106*
X04051*
X04151D02*
Y04102D01*
X04159*
Y04106*
X04163*
Y04114*
X04159*
Y04118*
X04151*
Y04114*
X04147*
Y04106*
X04151*
X04251D02*
Y04102D01*
X04259*
Y04106*
X04263*
Y04114*
X04259*
Y04118*
X04251*
Y04114*
X04247*
Y04106*
X04251*
X04351D02*
Y04102D01*
X04359*
Y04106*
X04363*
Y04114*
X04359*
Y04118*
X04351*
Y04114*
X04347*
Y04106*
X04351*
X04451D02*
Y04102D01*
X04459*
Y04106*
X04463*
Y04114*
X04459*
Y04118*
X04451*
Y04114*
X04447*
Y04106*
X04451*
X04551D02*
Y04102D01*
X04559*
Y04106*
X04563*
Y04114*
X04559*
Y04118*
X04551*
Y04114*
X04547*
Y04106*
X04551*
X046Y05717D02*
Y05733D01*
X04616*
Y05717*
X046*
X05073D02*
Y05733D01*
X05089*
Y05717*
X05073*
Y05236D02*
Y05252D01*
X05089*
Y05236*
X05073*
X046D02*
Y05252D01*
X04616*
Y05236*
X046*
X038Y05717D02*
Y05733D01*
X03816*
Y05717*
X038*
X04273D02*
Y05733D01*
X04289*
Y05717*
X04273*
Y05236D02*
Y05252D01*
X04289*
Y05236*
X04273*
X038D02*
Y05252D01*
X03816*
Y05236*
X038*
X014D02*
Y05252D01*
X01416*
Y05236*
X014*
X01873D02*
Y05252D01*
X01889*
Y05236*
X01873*
Y05717D02*
Y05733D01*
X01889*
Y05717*
X01873*
X014D02*
Y05733D01*
X01416*
Y05717*
X014*
X03412Y01642D02*
X03416D01*
X0342Y01646*
X03424Y01642*
X03428*
Y01646*
X03424Y0165*
X03428Y01654*
Y01658*
X03424*
X0342Y01654*
X03416Y01658*
X03412*
Y01654*
X03416Y0165*
X03412Y01646*
Y01642*
Y01742D02*
X03416D01*
X0342Y01746*
X03424Y01742*
X03428*
Y01746*
X03424Y0175*
X03428Y01754*
Y01758*
X03424*
X0342Y01754*
X03416Y01758*
X03412*
Y01754*
X03416Y0175*
X03412Y01746*
Y01742*
Y01842D02*
X03416D01*
X0342Y01846*
X03424Y01842*
X03428*
Y01846*
X03424Y0185*
X03428Y01854*
Y01858*
X03424*
X0342Y01854*
X03416Y01858*
X03412*
Y01854*
X03416Y0185*
X03412Y01846*
Y01842*
Y01942D02*
X03416D01*
X0342Y01946*
X03424Y01942*
X03428*
Y01946*
X03424Y0195*
X03428Y01954*
Y01958*
X03424*
X0342Y01954*
X03416Y01958*
X03412*
Y01954*
X03416Y0195*
X03412Y01946*
Y01942*
Y02042D02*
X03416D01*
X0342Y02046*
X03424Y02042*
X03428*
Y02046*
X03424Y0205*
X03428Y02054*
Y02058*
X03424*
X0342Y02054*
X03416Y02058*
X03412*
Y02054*
X03416Y0205*
X03412Y02046*
Y02042*
Y02142D02*
X03416D01*
X0342Y02146*
X03424Y02142*
X03428*
Y02146*
X03424Y0215*
X03428Y02154*
Y02158*
X03424*
X0342Y02154*
X03416Y02158*
X03412*
Y02154*
X03416Y0215*
X03412Y02146*
Y02142*
Y02242D02*
X03416D01*
X0342Y02246*
X03424Y02242*
X03428*
Y02246*
X03424Y0225*
X03428Y02254*
Y02258*
X03424*
X0342Y02254*
X03416Y02258*
X03412*
Y02254*
X03416Y0225*
X03412Y02246*
Y02242*
Y02342D02*
X03416D01*
X0342Y02346*
X03424Y02342*
X03428*
Y02346*
X03424Y0235*
X03428Y02354*
Y02358*
X03424*
X0342Y02354*
X03416Y02358*
X03412*
Y02354*
X03416Y0235*
X03412Y02346*
Y02342*
X02912D02*
X02916D01*
X0292Y02346*
X02924Y02342*
X02928*
Y02346*
X02924Y0235*
X02928Y02354*
Y02358*
X02924*
X0292Y02354*
X02916Y02358*
X02912*
Y02354*
X02916Y0235*
X02912Y02346*
Y02342*
Y02242D02*
X02916D01*
X0292Y02246*
X02924Y02242*
X02928*
Y02246*
X02924Y0225*
X02928Y02254*
Y02258*
X02924*
X0292Y02254*
X02916Y02258*
X02912*
Y02254*
X02916Y0225*
X02912Y02246*
Y02242*
Y02142D02*
X02916D01*
X0292Y02146*
X02924Y02142*
X02928*
Y02146*
X02924Y0215*
X02928Y02154*
Y02158*
X02924*
X0292Y02154*
X02916Y02158*
X02912*
Y02154*
X02916Y0215*
X02912Y02146*
Y02142*
Y02042D02*
X02916D01*
X0292Y02046*
X02924Y02042*
X02928*
Y02046*
X02924Y0205*
X02928Y02054*
Y02058*
X02924*
X0292Y02054*
X02916Y02058*
X02912*
Y02054*
X02916Y0205*
X02912Y02046*
Y02042*
Y01942D02*
X02916D01*
X0292Y01946*
X02924Y01942*
X02928*
Y01946*
X02924Y0195*
X02928Y01954*
Y01958*
X02924*
X0292Y01954*
X02916Y01958*
X02912*
Y01954*
X02916Y0195*
X02912Y01946*
Y01942*
Y01842D02*
X02916D01*
X0292Y01846*
X02924Y01842*
X02928*
Y01846*
X02924Y0185*
X02928Y01854*
Y01858*
X02924*
X0292Y01854*
X02916Y01858*
X02912*
Y01854*
X02916Y0185*
X02912Y01846*
Y01842*
Y01742D02*
X02916D01*
X0292Y01746*
X02924Y01742*
X02928*
Y01746*
X02924Y0175*
X02928Y01754*
Y01758*
X02924*
X0292Y01754*
X02916Y01758*
X02912*
Y01754*
X02916Y0175*
X02912Y01746*
Y01742*
Y01642D02*
X02916D01*
X0292Y01646*
X02924Y01642*
X02928*
Y01646*
X02924Y0165*
X02928Y01654*
Y01658*
X02924*
X0292Y01654*
X02916Y01658*
X02912*
Y01654*
X02916Y0165*
X02912Y01646*
Y01642*
X00196Y06085D02*
X002Y06089D01*
X00204*
X002Y06093*
X00204Y06097*
X002*
X00196Y06101*
X00192Y06097*
X00188*
X00192Y06093*
X00188Y06089*
X00192*
X00196Y06085*
X08718Y00188D02*
X08722Y00192D01*
X08726*
X08722Y00196*
X08726Y002*
X08722*
X08718Y00204*
X08714Y002*
X0871*
X08714Y00196*
X0871Y00192*
X08714*
X08718Y00188*
X06991Y03846D02*
Y03842D01*
X06999*
Y03846*
X07003*
Y03854*
X06999*
Y03858*
X06991*
Y03854*
X06987*
Y03846*
X06991*
Y03746D02*
Y03742D01*
X06999*
Y03746*
X07003*
Y03754*
X06999*
Y03758*
X06991*
Y03754*
X06987*
Y03746*
X06991*
X08718Y06085D02*
X08722Y06089D01*
X08726*
X08722Y06093*
X08726Y06097*
X08722*
X08718Y06101*
X08714Y06097*
X0871*
X08714Y06093*
X0871Y06089*
X08714*
X08718Y06085*
X08667Y03685D02*
X08675Y03693D01*
X08683Y03685*
X08675Y03677*
X08667Y03685*
Y03785D02*
X08675Y03793D01*
X08683Y03785*
X08675Y03777*
X08667Y03785*
Y03885D02*
X08675Y03893D01*
X08683Y03885*
X08675Y03877*
X08667Y03885*
X08182Y06082D02*
Y06098D01*
X08198*
Y06082*
X08182*
X08186Y06086D02*
Y06094D01*
X08194*
Y06086*
X08186*
X07982Y06082D02*
Y06098D01*
X07998*
Y06082*
X07982*
X07986Y06086D02*
Y06094D01*
X07994*
Y06086*
X07986*
X07371Y06082D02*
Y06098D01*
X07387*
Y06082*
X07371*
X07375Y06086D02*
Y06094D01*
X07383*
Y06086*
X07375*
X07171Y06082D02*
Y06098D01*
X07187*
Y06082*
X07171*
X07175Y06086D02*
Y06094D01*
X07183*
Y06086*
X07175*
X06361Y06082D02*
Y06098D01*
X06377*
Y06082*
X06361*
X06365Y06086D02*
Y06094D01*
X06373*
Y06086*
X06365*
X06561Y06082D02*
Y06098D01*
X06577*
Y06082*
X06561*
X06565Y06086D02*
Y06094D01*
X06573*
Y06086*
X06565*
X04237Y01557D02*
Y01573D01*
X04253*
Y01557*
X04237*
Y02416D02*
Y02432D01*
X04253*
Y02416*
X04237*
X00202Y03787D02*
Y03803D01*
X00218*
Y03787*
X00202*
X00206Y03791D02*
Y03799D01*
X00214*
Y03791*
X00206*
X00202Y03587D02*
Y03603D01*
X00218*
Y03587*
X00202*
X00206Y03591D02*
Y03599D01*
X00214*
Y03591*
X00206*
X01702Y00237D02*
Y00253D01*
X01718*
Y00237*
X01702*
X01706Y00241D02*
Y00249D01*
X01714*
Y00241*
X01706*
X01502Y00237D02*
Y00253D01*
X01518*
Y00237*
X01502*
X01506Y00241D02*
Y00249D01*
X01514*
Y00241*
X01506*
X00374Y02571D02*
X00366Y02587D01*
X00382*
X00374Y02571*
Y02575D02*
X0037Y02583D01*
X00378*
X00374Y02575*
Y02288D02*
X00366Y02304D01*
X00382*
X00374Y02288*
Y02292D02*
X0037Y023D01*
X00378*
X00374Y02292*
X00889Y06082D02*
Y06098D01*
X00905*
Y06082*
X00889*
X00893Y06086D02*
Y06094D01*
X00901*
Y06086*
X00893*
X00689Y06082D02*
Y06098D01*
X00705*
Y06082*
X00689*
X00693Y06086D02*
Y06094D01*
X00701*
Y06086*
X00693*
X01699Y06082D02*
Y06098D01*
X01715*
Y06082*
X01699*
X01703Y06086D02*
Y06094D01*
X01711*
Y06086*
X01703*
X01499Y06082D02*
Y06098D01*
X01515*
Y06082*
X01499*
X01503Y06086D02*
Y06094D01*
X01511*
Y06086*
X01503*
X02509Y06082D02*
Y06098D01*
X02525*
Y06082*
X02509*
X02513Y06086D02*
Y06094D01*
X02521*
Y06086*
X02513*
X02309Y06082D02*
Y06098D01*
X02325*
Y06082*
X02309*
X02313Y06086D02*
Y06094D01*
X02321*
Y06086*
X02313*
X0312Y06082D02*
Y06098D01*
X03136*
Y06082*
X0312*
X03124Y06086D02*
Y06094D01*
X03132*
Y06086*
X03124*
X0332Y06082D02*
Y06098D01*
X03336*
Y06082*
X0332*
X03324Y06086D02*
Y06094D01*
X03332*
Y06086*
X03324*
X0413Y06082D02*
Y06098D01*
X04146*
Y06082*
X0413*
X04134Y06086D02*
Y06094D01*
X04142*
Y06086*
X04134*
X0393Y06082D02*
Y06098D01*
X03946*
Y06082*
X0393*
X03934Y06086D02*
Y06094D01*
X03942*
Y06086*
X03934*
X0494Y06082D02*
Y06098D01*
X04956*
Y06082*
X0494*
X04944Y06086D02*
Y06094D01*
X04952*
Y06086*
X04944*
X0474Y06082D02*
Y06098D01*
X04756*
Y06082*
X0474*
X04744Y06086D02*
Y06094D01*
X04752*
Y06086*
X04744*
X05751Y06082D02*
Y06098D01*
X05767*
Y06082*
X05751*
X05755Y06086D02*
Y06094D01*
X05763*
Y06086*
X05755*
X05551Y06082D02*
Y06098D01*
X05567*
Y06082*
X05551*
X05555Y06086D02*
Y06094D01*
X05563*
Y06086*
X05555*
X07186Y04793D02*
X07178Y04809D01*
X07194*
X07186Y04793*
Y0497D02*
X07178Y04986D01*
X07194*
X07186Y0497*
X07442Y04793D02*
X07434Y04809D01*
X0745*
X07442Y04793*
Y0497D02*
X07434Y04986D01*
X0745*
X07442Y0497*
X07Y05236D02*
Y05252D01*
X07016*
Y05236*
X07*
X07473D02*
Y05252D01*
X07489*
Y05236*
X07473*
Y05717D02*
Y05733D01*
X07489*
Y05717*
X07473*
X07D02*
Y05733D01*
X07016*
Y05717*
X07*
X06365Y04793D02*
X06357Y04809D01*
X06373*
X06365Y04793*
Y0497D02*
X06357Y04986D01*
X06373*
X06365Y0497*
X06621Y04793D02*
X06613Y04809D01*
X06629*
X06621Y04793*
Y0497D02*
X06613Y04986D01*
X06629*
X06621Y0497*
X07156Y04691D02*
Y04687D01*
X07164*
Y04691*
X07168*
Y04699*
X07164*
Y04703*
X07156*
Y04699*
X07152*
Y04691*
X07156*
X07435D02*
Y04687D01*
X07443*
Y04691*
X07447*
Y04699*
X07443*
Y04703*
X07435*
Y04699*
X07431*
Y04691*
X07435*
X06336D02*
Y04687D01*
X06344*
Y04691*
X06348*
Y04699*
X06344*
Y04703*
X06336*
Y04699*
X06332*
Y04691*
X06336*
X06615D02*
Y04687D01*
X06623*
Y04691*
X06627*
Y04699*
X06623*
Y04703*
X06615*
Y04699*
X06611*
Y04691*
X06615*
X05544Y04793D02*
X05536Y04809D01*
X05552*
X05544Y04793*
Y0497D02*
X05536Y04986D01*
X05552*
X05544Y0497*
X058Y04793D02*
X05792Y04809D01*
X05808*
X058Y04793*
Y0497D02*
X05792Y04986D01*
X05808*
X058Y0497*
X04979D02*
X04971Y04986D01*
X04987*
X04979Y0497*
Y04793D02*
X04971Y04809D01*
X04987*
X04979Y04793*
X04723Y0497D02*
X04715Y04986D01*
X04731*
X04723Y0497*
Y04793D02*
X04715Y04809D01*
X04731*
X04723Y04793*
X04158Y0497D02*
X0415Y04986D01*
X04166*
X04158Y0497*
Y04793D02*
X0415Y04809D01*
X04166*
X04158Y04793*
X03902Y0497D02*
X03894Y04986D01*
X0391*
X03902Y0497*
Y04793D02*
X03894Y04809D01*
X0391*
X03902Y04793*
X0226D02*
X02252Y04809D01*
X02268*
X0226Y04793*
Y0497D02*
X02252Y04986D01*
X02268*
X0226Y0497*
X02516Y04793D02*
X02508Y04809D01*
X02524*
X02516Y04793*
Y0497D02*
X02508Y04986D01*
X02524*
X02516Y0497*
X01695D02*
X01687Y04986D01*
X01703*
X01695Y0497*
Y04793D02*
X01687Y04809D01*
X01703*
X01695Y04793*
X01439Y0497D02*
X01431Y04986D01*
X01447*
X01439Y0497*
Y04793D02*
X01431Y04809D01*
X01447*
X01439Y04793*
X00619D02*
X00611Y04809D01*
X00627*
X00619Y04793*
Y0497D02*
X00611Y04986D01*
X00627*
X00619Y0497*
X00875Y04793D02*
X00867Y04809D01*
X00883*
X00875Y04793*
Y0497D02*
X00867Y04986D01*
X00883*
X00875Y0497*
X00596Y04691D02*
Y04687D01*
X00604*
Y04691*
X00608*
Y04699*
X00604*
Y04703*
X00596*
Y04699*
X00592*
Y04691*
X00596*
X00875D02*
Y04687D01*
X00883*
Y04691*
X00887*
Y04699*
X00883*
Y04703*
X00875*
Y04699*
X00871*
Y04691*
X00875*
X04728Y04481D02*
Y04477D01*
X04736*
Y04481*
X0474*
Y04489*
X04736*
Y04493*
X04728*
Y04489*
X04724*
Y04481*
X04728*
X04831D02*
Y04477D01*
X04839*
Y04481*
X04843*
Y04489*
X04839*
Y04493*
X04831*
Y04489*
X04827*
Y04481*
X04831*
X04933D02*
Y04477D01*
X04941*
Y04481*
X04945*
Y04489*
X04941*
Y04493*
X04933*
Y04489*
X04929*
Y04481*
X04933*
X01416Y04691D02*
Y04687D01*
X01424*
Y04691*
X01428*
Y04699*
X01424*
Y04703*
X01416*
Y04699*
X01412*
Y04691*
X01416*
X01695D02*
Y04687D01*
X01703*
Y04691*
X01707*
Y04699*
X01703*
Y04703*
X01695*
Y04699*
X01691*
Y04691*
X01695*
X00633Y04461D02*
Y04457D01*
X00641*
Y04461*
X00645*
Y04469*
X00641*
Y04473*
X00633*
Y04469*
X00629*
Y04461*
X00633*
X00736D02*
Y04457D01*
X00744*
Y04461*
X00748*
Y04469*
X00744*
Y04473*
X00736*
Y04469*
X00732*
Y04461*
X00736*
X00838D02*
Y04457D01*
X00846*
Y04461*
X0085*
Y04469*
X00846*
Y04473*
X00838*
Y04469*
X00834*
Y04461*
X00838*
X01463Y0448D02*
Y04476D01*
X01471*
Y0448*
X01475*
Y04488*
X01471*
Y04492*
X01463*
Y04488*
X01459*
Y0448*
X01463*
X01566D02*
Y04476D01*
X01574*
Y0448*
X01578*
Y04488*
X01574*
Y04492*
X01566*
Y04488*
X01562*
Y0448*
X01566*
X01668D02*
Y04476D01*
X01676*
Y0448*
X0168*
Y04488*
X01676*
Y04492*
X01668*
Y04488*
X01664*
Y0448*
X01668*
X05516Y04691D02*
Y04687D01*
X05524*
Y04691*
X05528*
Y04699*
X05524*
Y04703*
X05516*
Y04699*
X05512*
Y04691*
X05516*
X05795D02*
Y04687D01*
X05803*
Y04691*
X05807*
Y04699*
X05803*
Y04703*
X05795*
Y04699*
X05791*
Y04691*
X05795*
X04696D02*
Y04687D01*
X04704*
Y04691*
X04708*
Y04699*
X04704*
Y04703*
X04696*
Y04699*
X04692*
Y04691*
X04696*
X04975D02*
Y04687D01*
X04983*
Y04691*
X04987*
Y04699*
X04983*
Y04703*
X04975*
Y04699*
X04971*
Y04691*
X04975*
X03876D02*
Y04687D01*
X03884*
Y04691*
X03888*
Y04699*
X03884*
Y04703*
X03876*
Y04699*
X03872*
Y04691*
X03876*
X04155D02*
Y04687D01*
X04163*
Y04691*
X04167*
Y04699*
X04163*
Y04703*
X04155*
Y04699*
X04151*
Y04691*
X04155*
X03056D02*
Y04687D01*
X03064*
Y04691*
X03068*
Y04699*
X03064*
Y04703*
X03056*
Y04699*
X03052*
Y04691*
X03056*
X03335D02*
Y04687D01*
X03343*
Y04691*
X03347*
Y04699*
X03343*
Y04703*
X03335*
Y04699*
X03331*
Y04691*
X03335*
X02273Y04476D02*
Y04472D01*
X02281*
Y04476*
X02285*
Y04484*
X02281*
Y04488*
X02273*
Y04484*
X02269*
Y04476*
X02273*
X02376D02*
Y04472D01*
X02384*
Y04476*
X02388*
Y04484*
X02384*
Y04488*
X02376*
Y04484*
X02372*
Y04476*
X02376*
X02478D02*
Y04472D01*
X02486*
Y04476*
X0249*
Y04484*
X02486*
Y04488*
X02478*
Y04484*
X02474*
Y04476*
X02478*
X03093Y04481D02*
Y04477D01*
X03101*
Y04481*
X03105*
Y04489*
X03101*
Y04493*
X03093*
Y04489*
X03089*
Y04481*
X03093*
X03196D02*
Y04477D01*
X03204*
Y04481*
X03208*
Y04489*
X03204*
Y04493*
X03196*
Y04489*
X03192*
Y04481*
X03196*
X03298D02*
Y04477D01*
X03306*
Y04481*
X0331*
Y04489*
X03306*
Y04493*
X03298*
Y04489*
X03294*
Y04481*
X03298*
X05558Y04476D02*
Y04472D01*
X05566*
Y04476*
X0557*
Y04484*
X05566*
Y04488*
X05558*
Y04484*
X05554*
Y04476*
X05558*
X05661D02*
Y04472D01*
X05669*
Y04476*
X05673*
Y04484*
X05669*
Y04488*
X05661*
Y04484*
X05657*
Y04476*
X05661*
X05763D02*
Y04472D01*
X05771*
Y04476*
X05775*
Y04484*
X05771*
Y04488*
X05763*
Y04484*
X05759*
Y04476*
X05763*
X08033D02*
Y04472D01*
X08041*
Y04476*
X08045*
Y04484*
X08041*
Y04488*
X08033*
Y04484*
X08029*
Y04476*
X08033*
X08136D02*
Y04472D01*
X08144*
Y04476*
X08148*
Y04484*
X08144*
Y04488*
X08136*
Y04484*
X08132*
Y04476*
X08136*
X08238D02*
Y04472D01*
X08246*
Y04476*
X0825*
Y04484*
X08246*
Y04488*
X08238*
Y04484*
X08234*
Y04476*
X08238*
X03928D02*
Y04472D01*
X03936*
Y04476*
X0394*
Y04484*
X03936*
Y04488*
X03928*
Y04484*
X03924*
Y04476*
X03928*
X04031D02*
Y04472D01*
X04039*
Y04476*
X04043*
Y04484*
X04039*
Y04488*
X04031*
Y04484*
X04027*
Y04476*
X04031*
X04133D02*
Y04472D01*
X04141*
Y04476*
X04145*
Y04484*
X04141*
Y04488*
X04133*
Y04484*
X04129*
Y04476*
X04133*
X06368Y04461D02*
Y04457D01*
X06376*
Y04461*
X0638*
Y04469*
X06376*
Y04473*
X06368*
Y04469*
X06364*
Y04461*
X06368*
X06471D02*
Y04457D01*
X06479*
Y04461*
X06483*
Y04469*
X06479*
Y04473*
X06471*
Y04469*
X06467*
Y04461*
X06471*
X06573D02*
Y04457D01*
X06581*
Y04461*
X06585*
Y04469*
X06581*
Y04473*
X06573*
Y04469*
X06569*
Y04461*
X06573*
X07238D02*
Y04457D01*
X07246*
Y04461*
X0725*
Y04469*
X07246*
Y04473*
X07238*
Y04469*
X07234*
Y04461*
X07238*
X07341D02*
Y04457D01*
X07349*
Y04461*
X07353*
Y04469*
X07349*
Y04473*
X07341*
Y04469*
X07337*
Y04461*
X07341*
X07443D02*
Y04457D01*
X07451*
Y04461*
X07455*
Y04469*
X07451*
Y04473*
X07443*
Y04469*
X07439*
Y04461*
X07443*
X08262Y0497D02*
X08254Y04986D01*
X0827*
X08262Y0497*
Y04793D02*
X08254Y04809D01*
X0827*
X08262Y04793*
X08007Y0497D02*
X07999Y04986D01*
X08015*
X08007Y0497*
Y04793D02*
X07999Y04809D01*
X08015*
X08007Y04793*
X05001Y00302D02*
X04993Y00318D01*
X05009*
X05001Y00302*
Y00306D02*
X04997Y00314D01*
X05005*
X05001Y00306*
X04718Y00302D02*
X0471Y00318D01*
X04726*
X04718Y00302*
Y00306D02*
X04714Y00314D01*
X04722*
X04718Y00306*
X054Y05236D02*
Y05252D01*
X05416*
Y05236*
X054*
X05873D02*
Y05252D01*
X05889*
Y05236*
X05873*
Y05717D02*
Y05733D01*
X05889*
Y05717*
X05873*
X054D02*
Y05733D01*
X05416*
Y05717*
X054*
X062Y05236D02*
Y05252D01*
X06216*
Y05236*
X062*
X06673D02*
Y05252D01*
X06689*
Y05236*
X06673*
Y05717D02*
Y05733D01*
X06689*
Y05717*
X06673*
X062D02*
Y05733D01*
X06216*
Y05717*
X062*
X006D02*
Y05733D01*
X00616*
Y05717*
X006*
X01073D02*
Y05733D01*
X01089*
Y05717*
X01073*
Y05236D02*
Y05252D01*
X01089*
Y05236*
X01073*
X006D02*
Y05252D01*
X00616*
Y05236*
X006*
X022D02*
Y05252D01*
X02216*
Y05236*
X022*
X02673D02*
Y05252D01*
X02689*
Y05236*
X02673*
Y05717D02*
Y05733D01*
X02689*
Y05717*
X02673*
X022D02*
Y05733D01*
X02216*
Y05717*
X022*
X03Y05236D02*
Y05252D01*
X03016*
Y05236*
X03*
X03473D02*
Y05252D01*
X03489*
Y05236*
X03473*
Y05717D02*
Y05733D01*
X03489*
Y05717*
X03473*
X03D02*
Y05733D01*
X03016*
Y05717*
X03*
X02236Y04691D02*
Y04687D01*
X02244*
Y04691*
X02248*
Y04699*
X02244*
Y04703*
X02236*
Y04699*
X02232*
Y04691*
X02236*
X02515D02*
Y04687D01*
X02523*
Y04691*
X02527*
Y04699*
X02523*
Y04703*
X02515*
Y04699*
X02511*
Y04691*
X02515*
X07976D02*
Y04687D01*
X07984*
Y04691*
X07988*
Y04699*
X07984*
Y04703*
X07976*
Y04699*
X07972*
Y04691*
X07976*
X08255D02*
Y04687D01*
X08263*
Y04691*
X08267*
Y04699*
X08263*
Y04703*
X08255*
Y04699*
X08251*
Y04691*
X08255*
X03167Y01261D02*
Y01277D01*
X03183*
Y01261*
X03167*
Y00402D02*
Y00418D01*
X03183*
Y00402*
X03167*
X05921Y00471D02*
X05925Y00475D01*
X05929*
X05925Y00479*
X05929Y00483*
X05925*
X05921Y00487*
X05917Y00483*
X05913*
X05917Y00479*
X05913Y00475*
X05917*
X05921Y00471*
Y00475D02*
X05923Y00477D01*
X05925*
X05923Y00479*
X05925Y00481*
X05923*
X05921Y00483*
X05919Y00481*
X05917*
X05919Y00479*
X05917Y00477*
X05919*
X05921Y00475*
Y01562D02*
X05925Y01566D01*
X05929*
X05925Y0157*
X05929Y01574*
X05925*
X05921Y01578*
X05917Y01574*
X05913*
X05917Y0157*
X05913Y01566*
X05917*
X05921Y01562*
Y01566D02*
X05923Y01568D01*
X05925*
X05923Y0157*
X05925Y01572*
X05923*
X05921Y01574*
X05919Y01572*
X05917*
X05919Y0157*
X05917Y01568*
X05919*
X05921Y01566*
X08118Y00471D02*
X08122Y00475D01*
X08126*
X08122Y00479*
X08126Y00483*
X08122*
X08118Y00487*
X08114Y00483*
X0811*
X08114Y00479*
X0811Y00475*
X08114*
X08118Y00471*
Y00475D02*
X0812Y00477D01*
X08122*
X0812Y00479*
X08122Y00481*
X0812*
X08118Y00483*
X08116Y00481*
X08114*
X08116Y00479*
X08114Y00477*
X08116*
X08118Y00475*
Y01562D02*
X08122Y01566D01*
X08126*
X08122Y0157*
X08126Y01574*
X08122*
X08118Y01578*
X08114Y01574*
X0811*
X08114Y0157*
X0811Y01566*
X08114*
X08118Y01562*
Y01566D02*
X0812Y01568D01*
X08122*
X0812Y0157*
X08122Y01572*
X0812*
X08118Y01574*
X08116Y01572*
X08114*
X08116Y0157*
X08114Y01568*
X08116*
X08118Y01566*
X01049Y02965D02*
X01053Y02969D01*
X01057*
X01053Y02973*
X01057Y02977*
X01053*
X01049Y02981*
X01045Y02977*
X01041*
X01045Y02973*
X01041Y02969*
X01045*
X01049Y02965*
Y02969D02*
X01051Y02971D01*
X01053*
X01051Y02973*
X01053Y02975*
X01051*
X01049Y02977*
X01047Y02975*
X01045*
X01047Y02973*
X01045Y02971*
X01047*
X01049Y02969*
X0214Y02965D02*
X02144Y02969D01*
X02148*
X02144Y02973*
X02148Y02977*
X02144*
X0214Y02981*
X02136Y02977*
X02132*
X02136Y02973*
X02132Y02969*
X02136*
X0214Y02965*
Y02969D02*
X02142Y02971D01*
X02144*
X02142Y02973*
X02144Y02975*
X02142*
X0214Y02977*
X02138Y02975*
X02136*
X02138Y02973*
X02136Y02971*
X02138*
X0214Y02969*
X01049Y00768D02*
X01053Y00772D01*
X01057*
X01053Y00776*
X01057Y0078*
X01053*
X01049Y00784*
X01045Y0078*
X01041*
X01045Y00776*
X01041Y00772*
X01045*
X01049Y00768*
Y00772D02*
X01051Y00774D01*
X01053*
X01051Y00776*
X01053Y00778*
X01051*
X01049Y0078*
X01047Y00778*
X01045*
X01047Y00776*
X01045Y00774*
X01047*
X01049Y00772*
X0214Y00768D02*
X02144Y00772D01*
X02148*
X02144Y00776*
X02148Y0078*
X02144*
X0214Y00784*
X02136Y0078*
X02132*
X02136Y00776*
X02132Y00772*
X02136*
X0214Y00768*
Y00772D02*
X02142Y00774D01*
X02144*
X02142Y00776*
X02144Y00778*
X02142*
X0214Y0078*
X02138Y00778*
X02136*
X02138Y00776*
X02136Y00774*
X02138*
X0214Y00772*
X05921Y02096D02*
X05925Y021D01*
X05929*
X05925Y02104*
X05929Y02108*
X05925*
X05921Y02112*
X05917Y02108*
X05913*
X05917Y02104*
X05913Y021*
X05917*
X05921Y02096*
Y021D02*
X05923Y02102D01*
X05925*
X05923Y02104*
X05925Y02106*
X05923*
X05921Y02108*
X05919Y02106*
X05917*
X05919Y02104*
X05917Y02102*
X05919*
X05921Y021*
Y03187D02*
X05925Y03191D01*
X05929*
X05925Y03195*
X05929Y03199*
X05925*
X05921Y03203*
X05917Y03199*
X05913*
X05917Y03195*
X05913Y03191*
X05917*
X05921Y03187*
Y03191D02*
X05923Y03193D01*
X05925*
X05923Y03195*
X05925Y03197*
X05923*
X05921Y03199*
X05919Y03197*
X05917*
X05919Y03195*
X05917Y03193*
X05919*
X05921Y03191*
X08118Y02096D02*
X08122Y021D01*
X08126*
X08122Y02104*
X08126Y02108*
X08122*
X08118Y02112*
X08114Y02108*
X0811*
X08114Y02104*
X0811Y021*
X08114*
X08118Y02096*
Y021D02*
X0812Y02102D01*
X08122*
X0812Y02104*
X08122Y02106*
X0812*
X08118Y02108*
X08116Y02106*
X08114*
X08116Y02104*
X08114Y02102*
X08116*
X08118Y021*
Y03187D02*
X08122Y03191D01*
X08126*
X08122Y03195*
X08126Y03199*
X08122*
X08118Y03203*
X08114Y03199*
X0811*
X08114Y03195*
X0811Y03191*
X08114*
X08118Y03187*
Y03191D02*
X0812Y03193D01*
X08122*
X0812Y03195*
X08122Y03197*
X0812*
X08118Y03199*
X08116Y03197*
X08114*
X08116Y03195*
X08114Y03193*
X08116*
X08118Y03191*
X08652Y00772D02*
Y00788D01*
X08668*
Y00772*
X08652*
X08656Y00776D02*
Y00784D01*
X08664*
Y00776*
X08656*
X08652Y00972D02*
Y00988D01*
X08668*
Y00972*
X08652*
X08656Y00976D02*
Y00984D01*
X08664*
Y00976*
X08656*
X06086Y03646D02*
Y03642D01*
X06094*
Y03646*
X06098*
Y03654*
X06094*
Y03658*
X06086*
Y03654*
X06082*
Y03646*
X06086*
Y03746D02*
Y03742D01*
X06094*
Y03746*
X06098*
Y03754*
X06094*
Y03758*
X06086*
Y03754*
X06082*
Y03746*
X06086*
Y03846D02*
Y03842D01*
X06094*
Y03846*
X06098*
Y03854*
X06094*
Y03858*
X06086*
Y03854*
X06082*
Y03846*
X06086*
Y03946D02*
Y03942D01*
X06094*
Y03946*
X06098*
Y03954*
X06094*
Y03958*
X06086*
Y03954*
X06082*
Y03946*
X06086*
X00166Y01481D02*
Y01477D01*
X00174*
Y01481*
X00178*
Y01489*
X00174*
Y01493*
X00166*
Y01489*
X00162*
Y01481*
X00166*
Y01581D02*
Y01577D01*
X00174*
Y01581*
X00178*
Y01589*
X00174*
Y01593*
X00166*
Y01589*
X00162*
Y01581*
X00166*
Y01681D02*
Y01677D01*
X00174*
Y01681*
X00178*
Y01689*
X00174*
Y01693*
X00166*
Y01689*
X00162*
Y01681*
X00166*
Y01781D02*
Y01777D01*
X00174*
Y01781*
X00178*
Y01789*
X00174*
Y01793*
X00166*
Y01789*
X00162*
Y01781*
X00166*
X00197Y04252D02*
Y04268D01*
X00213*
Y04252*
X00197*
X00201Y04256D02*
Y04264D01*
X00209*
Y04256*
X00201*
X00197Y04052D02*
Y04068D01*
X00213*
Y04052*
X00197*
X00201Y04056D02*
Y04064D01*
X00209*
Y04056*
X00201*
X08652Y02142D02*
Y02158D01*
X08668*
Y02142*
X08652*
X08656Y02146D02*
Y02154D01*
X08664*
Y02146*
X08656*
X08652Y02342D02*
Y02358D01*
X08668*
Y02342*
X08652*
X08656Y02346D02*
Y02354D01*
X08664*
Y02346*
X08656*
X03094Y02797D02*
X03098Y02805D01*
X03094Y02813*
X03102Y02809*
X0311Y02813*
X03106Y02805*
X0311Y02797*
X03102Y02801*
X03094Y02797*
X03098Y02801D02*
X031Y02805D01*
X03098Y02809*
X03102Y02807*
X03106Y02809*
X03104Y02805*
X03106Y02801*
X03102Y02803*
X03098Y02801*
X03194Y02797D02*
X03198Y02805D01*
X03194Y02813*
X03202Y02809*
X0321Y02813*
X03206Y02805*
X0321Y02797*
X03202Y02801*
X03194Y02797*
X03198Y02801D02*
X032Y02805D01*
X03198Y02809*
X03202Y02807*
X03206Y02809*
X03204Y02805*
X03206Y02801*
X03202Y02803*
X03198Y02801*
X04894Y02797D02*
X04898Y02805D01*
X04894Y02813*
X04902Y02809*
X0491Y02813*
X04906Y02805*
X0491Y02797*
X04902Y02801*
X04894Y02797*
X04898Y02801D02*
X049Y02805D01*
X04898Y02809*
X04902Y02807*
X04906Y02809*
X04904Y02805*
X04906Y02801*
X04902Y02803*
X04898Y02801*
X03294Y02797D02*
X03298Y02805D01*
X03294Y02813*
X03302Y02809*
X0331Y02813*
X03306Y02805*
X0331Y02797*
X03302Y02801*
X03294Y02797*
X03298Y02801D02*
X033Y02805D01*
X03298Y02809*
X03302Y02807*
X03306Y02809*
X03304Y02805*
X03306Y02801*
X03302Y02803*
X03298Y02801*
X03394Y02797D02*
X03398Y02805D01*
X03394Y02813*
X03402Y02809*
X0341Y02813*
X03406Y02805*
X0341Y02797*
X03402Y02801*
X03394Y02797*
X03398Y02801D02*
X034Y02805D01*
X03398Y02809*
X03402Y02807*
X03406Y02809*
X03404Y02805*
X03406Y02801*
X03402Y02803*
X03398Y02801*
X03494Y02797D02*
X03498Y02805D01*
X03494Y02813*
X03502Y02809*
X0351Y02813*
X03506Y02805*
X0351Y02797*
X03502Y02801*
X03494Y02797*
X03498Y02801D02*
X035Y02805D01*
X03498Y02809*
X03502Y02807*
X03506Y02809*
X03504Y02805*
X03506Y02801*
X03502Y02803*
X03498Y02801*
X03594Y02797D02*
X03598Y02805D01*
X03594Y02813*
X03602Y02809*
X0361Y02813*
X03606Y02805*
X0361Y02797*
X03602Y02801*
X03594Y02797*
X03598Y02801D02*
X036Y02805D01*
X03598Y02809*
X03602Y02807*
X03606Y02809*
X03604Y02805*
X03606Y02801*
X03602Y02803*
X03598Y02801*
X03694Y02797D02*
X03698Y02805D01*
X03694Y02813*
X03702Y02809*
X0371Y02813*
X03706Y02805*
X0371Y02797*
X03702Y02801*
X03694Y02797*
X03698Y02801D02*
X037Y02805D01*
X03698Y02809*
X03702Y02807*
X03706Y02809*
X03704Y02805*
X03706Y02801*
X03702Y02803*
X03698Y02801*
X03794Y02797D02*
X03798Y02805D01*
X03794Y02813*
X03802Y02809*
X0381Y02813*
X03806Y02805*
X0381Y02797*
X03802Y02801*
X03794Y02797*
X03798Y02801D02*
X038Y02805D01*
X03798Y02809*
X03802Y02807*
X03806Y02809*
X03804Y02805*
X03806Y02801*
X03802Y02803*
X03798Y02801*
X03894Y02797D02*
X03898Y02805D01*
X03894Y02813*
X03902Y02809*
X0391Y02813*
X03906Y02805*
X0391Y02797*
X03902Y02801*
X03894Y02797*
X03898Y02801D02*
X039Y02805D01*
X03898Y02809*
X03902Y02807*
X03906Y02809*
X03904Y02805*
X03906Y02801*
X03902Y02803*
X03898Y02801*
X03994Y02797D02*
X03998Y02805D01*
X03994Y02813*
X04002Y02809*
X0401Y02813*
X04006Y02805*
X0401Y02797*
X04002Y02801*
X03994Y02797*
X03998Y02801D02*
X04Y02805D01*
X03998Y02809*
X04002Y02807*
X04006Y02809*
X04004Y02805*
X04006Y02801*
X04002Y02803*
X03998Y02801*
X04094Y02797D02*
X04098Y02805D01*
X04094Y02813*
X04102Y02809*
X0411Y02813*
X04106Y02805*
X0411Y02797*
X04102Y02801*
X04094Y02797*
X04098Y02801D02*
X041Y02805D01*
X04098Y02809*
X04102Y02807*
X04106Y02809*
X04104Y02805*
X04106Y02801*
X04102Y02803*
X04098Y02801*
X04194Y02797D02*
X04198Y02805D01*
X04194Y02813*
X04202Y02809*
X0421Y02813*
X04206Y02805*
X0421Y02797*
X04202Y02801*
X04194Y02797*
X04198Y02801D02*
X042Y02805D01*
X04198Y02809*
X04202Y02807*
X04206Y02809*
X04204Y02805*
X04206Y02801*
X04202Y02803*
X04198Y02801*
X04294Y02797D02*
X04298Y02805D01*
X04294Y02813*
X04302Y02809*
X0431Y02813*
X04306Y02805*
X0431Y02797*
X04302Y02801*
X04294Y02797*
X04298Y02801D02*
X043Y02805D01*
X04298Y02809*
X04302Y02807*
X04306Y02809*
X04304Y02805*
X04306Y02801*
X04302Y02803*
X04298Y02801*
X04394Y02797D02*
X04398Y02805D01*
X04394Y02813*
X04402Y02809*
X0441Y02813*
X04406Y02805*
X0441Y02797*
X04402Y02801*
X04394Y02797*
X04398Y02801D02*
X044Y02805D01*
X04398Y02809*
X04402Y02807*
X04406Y02809*
X04404Y02805*
X04406Y02801*
X04402Y02803*
X04398Y02801*
X04494Y02797D02*
X04498Y02805D01*
X04494Y02813*
X04502Y02809*
X0451Y02813*
X04506Y02805*
X0451Y02797*
X04502Y02801*
X04494Y02797*
X04498Y02801D02*
X045Y02805D01*
X04498Y02809*
X04502Y02807*
X04506Y02809*
X04504Y02805*
X04506Y02801*
X04502Y02803*
X04498Y02801*
X04594Y02797D02*
X04598Y02805D01*
X04594Y02813*
X04602Y02809*
X0461Y02813*
X04606Y02805*
X0461Y02797*
X04602Y02801*
X04594Y02797*
X04598Y02801D02*
X046Y02805D01*
X04598Y02809*
X04602Y02807*
X04606Y02809*
X04604Y02805*
X04606Y02801*
X04602Y02803*
X04598Y02801*
X04694Y02797D02*
X04698Y02805D01*
X04694Y02813*
X04702Y02809*
X0471Y02813*
X04706Y02805*
X0471Y02797*
X04702Y02801*
X04694Y02797*
X04698Y02801D02*
X047Y02805D01*
X04698Y02809*
X04702Y02807*
X04706Y02809*
X04704Y02805*
X04706Y02801*
X04702Y02803*
X04698Y02801*
X04794Y02797D02*
X04798Y02805D01*
X04794Y02813*
X04802Y02809*
X0481Y02813*
X04806Y02805*
X0481Y02797*
X04802Y02801*
X04794Y02797*
X04798Y02801D02*
X048Y02805D01*
X04798Y02809*
X04802Y02807*
X04806Y02809*
X04804Y02805*
X04806Y02801*
X04802Y02803*
X04798Y02801*
X03094Y03797D02*
X03098Y03805D01*
X03094Y03813*
X03102Y03809*
X0311Y03813*
X03106Y03805*
X0311Y03797*
X03102Y03801*
X03094Y03797*
X03098Y03801D02*
X031Y03805D01*
X03098Y03809*
X03102Y03807*
X03106Y03809*
X03104Y03805*
X03106Y03801*
X03102Y03803*
X03098Y03801*
X03194Y03797D02*
X03198Y03805D01*
X03194Y03813*
X03202Y03809*
X0321Y03813*
X03206Y03805*
X0321Y03797*
X03202Y03801*
X03194Y03797*
X03198Y03801D02*
X032Y03805D01*
X03198Y03809*
X03202Y03807*
X03206Y03809*
X03204Y03805*
X03206Y03801*
X03202Y03803*
X03198Y03801*
X03294Y03797D02*
X03298Y03805D01*
X03294Y03813*
X03302Y03809*
X0331Y03813*
X03306Y03805*
X0331Y03797*
X03302Y03801*
X03294Y03797*
X03298Y03801D02*
X033Y03805D01*
X03298Y03809*
X03302Y03807*
X03306Y03809*
X03304Y03805*
X03306Y03801*
X03302Y03803*
X03298Y03801*
X03394Y03797D02*
X03398Y03805D01*
X03394Y03813*
X03402Y03809*
X0341Y03813*
X03406Y03805*
X0341Y03797*
X03402Y03801*
X03394Y03797*
X03398Y03801D02*
X034Y03805D01*
X03398Y03809*
X03402Y03807*
X03406Y03809*
X03404Y03805*
X03406Y03801*
X03402Y03803*
X03398Y03801*
X03494Y03797D02*
X03498Y03805D01*
X03494Y03813*
X03502Y03809*
X0351Y03813*
X03506Y03805*
X0351Y03797*
X03502Y03801*
X03494Y03797*
X03498Y03801D02*
X035Y03805D01*
X03498Y03809*
X03502Y03807*
X03506Y03809*
X03504Y03805*
X03506Y03801*
X03502Y03803*
X03498Y03801*
X03594Y03797D02*
X03598Y03805D01*
X03594Y03813*
X03602Y03809*
X0361Y03813*
X03606Y03805*
X0361Y03797*
X03602Y03801*
X03594Y03797*
X03598Y03801D02*
X036Y03805D01*
X03598Y03809*
X03602Y03807*
X03606Y03809*
X03604Y03805*
X03606Y03801*
X03602Y03803*
X03598Y03801*
X03694Y03797D02*
X03698Y03805D01*
X03694Y03813*
X03702Y03809*
X0371Y03813*
X03706Y03805*
X0371Y03797*
X03702Y03801*
X03694Y03797*
X03698Y03801D02*
X037Y03805D01*
X03698Y03809*
X03702Y03807*
X03706Y03809*
X03704Y03805*
X03706Y03801*
X03702Y03803*
X03698Y03801*
X03794Y03797D02*
X03798Y03805D01*
X03794Y03813*
X03802Y03809*
X0381Y03813*
X03806Y03805*
X0381Y03797*
X03802Y03801*
X03794Y03797*
X03798Y03801D02*
X038Y03805D01*
X03798Y03809*
X03802Y03807*
X03806Y03809*
X03804Y03805*
X03806Y03801*
X03802Y03803*
X03798Y03801*
X03894Y03797D02*
X03898Y03805D01*
X03894Y03813*
X03902Y03809*
X0391Y03813*
X03906Y03805*
X0391Y03797*
X03902Y03801*
X03894Y03797*
X03898Y03801D02*
X039Y03805D01*
X03898Y03809*
X03902Y03807*
X03906Y03809*
X03904Y03805*
X03906Y03801*
X03902Y03803*
X03898Y03801*
X03994Y03797D02*
X03998Y03805D01*
X03994Y03813*
X04002Y03809*
X0401Y03813*
X04006Y03805*
X0401Y03797*
X04002Y03801*
X03994Y03797*
X03998Y03801D02*
X04Y03805D01*
X03998Y03809*
X04002Y03807*
X04006Y03809*
X04004Y03805*
X04006Y03801*
X04002Y03803*
X03998Y03801*
X04094Y03797D02*
X04098Y03805D01*
X04094Y03813*
X04102Y03809*
X0411Y03813*
X04106Y03805*
X0411Y03797*
X04102Y03801*
X04094Y03797*
X04098Y03801D02*
X041Y03805D01*
X04098Y03809*
X04102Y03807*
X04106Y03809*
X04104Y03805*
X04106Y03801*
X04102Y03803*
X04098Y03801*
X04194Y03797D02*
X04198Y03805D01*
X04194Y03813*
X04202Y03809*
X0421Y03813*
X04206Y03805*
X0421Y03797*
X04202Y03801*
X04194Y03797*
X04198Y03801D02*
X042Y03805D01*
X04198Y03809*
X04202Y03807*
X04206Y03809*
X04204Y03805*
X04206Y03801*
X04202Y03803*
X04198Y03801*
X04294Y03797D02*
X04298Y03805D01*
X04294Y03813*
X04302Y03809*
X0431Y03813*
X04306Y03805*
X0431Y03797*
X04302Y03801*
X04294Y03797*
X04298Y03801D02*
X043Y03805D01*
X04298Y03809*
X04302Y03807*
X04306Y03809*
X04304Y03805*
X04306Y03801*
X04302Y03803*
X04298Y03801*
X04394Y03797D02*
X04398Y03805D01*
X04394Y03813*
X04402Y03809*
X0441Y03813*
X04406Y03805*
X0441Y03797*
X04402Y03801*
X04394Y03797*
X04398Y03801D02*
X044Y03805D01*
X04398Y03809*
X04402Y03807*
X04406Y03809*
X04404Y03805*
X04406Y03801*
X04402Y03803*
X04398Y03801*
X04494Y03797D02*
X04498Y03805D01*
X04494Y03813*
X04502Y03809*
X0451Y03813*
X04506Y03805*
X0451Y03797*
X04502Y03801*
X04494Y03797*
X04498Y03801D02*
X045Y03805D01*
X04498Y03809*
X04502Y03807*
X04506Y03809*
X04504Y03805*
X04506Y03801*
X04502Y03803*
X04498Y03801*
X04594Y03797D02*
X04598Y03805D01*
X04594Y03813*
X04602Y03809*
X0461Y03813*
X04606Y03805*
X0461Y03797*
X04602Y03801*
X04594Y03797*
X04598Y03801D02*
X046Y03805D01*
X04598Y03809*
X04602Y03807*
X04606Y03809*
X04604Y03805*
X04606Y03801*
X04602Y03803*
X04598Y03801*
X04694Y03797D02*
X04698Y03805D01*
X04694Y03813*
X04702Y03809*
X0471Y03813*
X04706Y03805*
X0471Y03797*
X04702Y03801*
X04694Y03797*
X04698Y03801D02*
X047Y03805D01*
X04698Y03809*
X04702Y03807*
X04706Y03809*
X04704Y03805*
X04706Y03801*
X04702Y03803*
X04698Y03801*
X04794Y03797D02*
X04798Y03805D01*
X04794Y03813*
X04802Y03809*
X0481Y03813*
X04806Y03805*
X0481Y03797*
X04802Y03801*
X04794Y03797*
X04798Y03801D02*
X048Y03805D01*
X04798Y03809*
X04802Y03807*
X04806Y03809*
X04804Y03805*
X04806Y03801*
X04802Y03803*
X04798Y03801*
X04894Y03797D02*
X04898Y03805D01*
X04894Y03813*
X04902Y03809*
X0491Y03813*
X04906Y03805*
X0491Y03797*
X04902Y03801*
X04894Y03797*
X04898Y03801D02*
X049Y03805D01*
X04898Y03809*
X04902Y03807*
X04906Y03809*
X04904Y03805*
X04906Y03801*
X04902Y03803*
X04898Y03801*
X0753Y04106D02*
Y04102D01*
X07538*
Y04106*
X07542*
Y04114*
X07538*
Y04118*
X0753*
Y04114*
X07526*
Y04106*
X0753*
X07532Y04108D02*
Y04106D01*
X07536*
Y04108*
X07538*
Y04112*
X07536*
Y04114*
X07532*
Y04112*
X0753*
Y04108*
X07532*
X08851Y04106D02*
Y04102D01*
X08859*
Y04106*
X08863*
Y04114*
X08859*
Y04118*
X08851*
Y04114*
X08847*
Y04106*
X08851*
X08853Y04108D02*
Y04106D01*
X08857*
Y04108*
X08859*
Y04112*
X08857*
Y04114*
X08853*
Y04112*
X08851*
Y04108*
X08853*
X08041Y03536D02*
Y03532D01*
X08049*
Y03536*
X08053*
Y03544*
X08049*
Y03548*
X08041*
Y03544*
X08037*
Y03536*
X08041*
X08043Y03538D02*
Y03536D01*
X08047*
Y03538*
X08049*
Y03542*
X08047*
Y03544*
X08043*
Y03542*
X08041*
Y03538*
X08043*
X08561Y03536D02*
Y03532D01*
X08569*
Y03536*
X08573*
Y03544*
X08569*
Y03548*
X08561*
Y03544*
X08557*
Y03536*
X08561*
X08563Y03538D02*
Y03536D01*
X08567*
Y03538*
X08569*
Y03542*
X08567*
Y03544*
X08563*
Y03542*
X08561*
Y03538*
X08563*
X08851Y03821D02*
Y03817D01*
X08859*
Y03821*
X08863*
Y03829*
X08859*
Y03833*
X08851*
Y03829*
X08847*
Y03821*
X08851*
X08853Y03823D02*
Y03821D01*
X08857*
Y03823*
X08859*
Y03827*
X08857*
Y03829*
X08853*
Y03827*
X08851*
Y03823*
X08853*
X08851Y03536D02*
Y03532D01*
X08859*
Y03536*
X08863*
Y03544*
X08859*
Y03548*
X08851*
Y03544*
X08847*
Y03536*
X08851*
X08853Y03538D02*
Y03536D01*
X08857*
Y03538*
X08859*
Y03542*
X08857*
Y03544*
X08853*
Y03542*
X08851*
Y03538*
X08853*
X08301Y03536D02*
Y03532D01*
X08309*
Y03536*
X08313*
Y03544*
X08309*
Y03548*
X08301*
Y03544*
X08297*
Y03536*
X08301*
X08303Y03538D02*
Y03536D01*
X08307*
Y03538*
X08309*
Y03542*
X08307*
Y03544*
X08303*
Y03542*
X08301*
Y03538*
X08303*
X07781Y03536D02*
Y03532D01*
X07789*
Y03536*
X07793*
Y03544*
X07789*
Y03548*
X07781*
Y03544*
X07777*
Y03536*
X07781*
X07783Y03538D02*
Y03536D01*
X07787*
Y03538*
X07789*
Y03542*
X07787*
Y03544*
X07783*
Y03542*
X07781*
Y03538*
X07783*
X07521Y03536D02*
Y03532D01*
X07529*
Y03536*
X07533*
Y03544*
X07529*
Y03548*
X07521*
Y03544*
X07517*
Y03536*
X07521*
X07523Y03538D02*
Y03536D01*
X07527*
Y03538*
X07529*
Y03542*
X07527*
Y03544*
X07523*
Y03542*
X07521*
Y03538*
X07523*
X07261Y03536D02*
Y03532D01*
X07269*
Y03536*
X07273*
Y03544*
X07269*
Y03548*
X07261*
Y03544*
X07257*
Y03536*
X07261*
X07263Y03538D02*
Y03536D01*
X07267*
Y03538*
X07269*
Y03542*
X07267*
Y03544*
X07263*
Y03542*
X07261*
Y03538*
X07263*
X07001Y03536D02*
Y03532D01*
X07009*
Y03536*
X07013*
Y03544*
X07009*
Y03548*
X07001*
Y03544*
X06997*
Y03536*
X07001*
X07003Y03538D02*
Y03536D01*
X07007*
Y03538*
X07009*
Y03542*
X07007*
Y03544*
X07003*
Y03542*
X07001*
Y03538*
X07003*
X08582Y04106D02*
Y04102D01*
X0859*
Y04106*
X08594*
Y04114*
X0859*
Y04118*
X08582*
Y04114*
X08578*
Y04106*
X08582*
X08584Y04108D02*
Y04106D01*
X08588*
Y04108*
X0859*
Y04112*
X08588*
Y04114*
X08584*
Y04112*
X08582*
Y04108*
X08584*
X08319Y04106D02*
Y04102D01*
X08327*
Y04106*
X08331*
Y04114*
X08327*
Y04118*
X08319*
Y04114*
X08315*
Y04106*
X08319*
X08321Y04108D02*
Y04106D01*
X08325*
Y04108*
X08327*
Y04112*
X08325*
Y04114*
X08321*
Y04112*
X08319*
Y04108*
X08321*
X08056Y04106D02*
Y04102D01*
X08064*
Y04106*
X08068*
Y04114*
X08064*
Y04118*
X08056*
Y04114*
X08052*
Y04106*
X08056*
X08058Y04108D02*
Y04106D01*
X08062*
Y04108*
X08064*
Y04112*
X08062*
Y04114*
X08058*
Y04112*
X08056*
Y04108*
X08058*
X07793Y04106D02*
Y04102D01*
X07801*
Y04106*
X07805*
Y04114*
X07801*
Y04118*
X07793*
Y04114*
X07789*
Y04106*
X07793*
X07795Y04108D02*
Y04106D01*
X07799*
Y04108*
X07801*
Y04112*
X07799*
Y04114*
X07795*
Y04112*
X07793*
Y04108*
X07795*
X07004Y04106D02*
Y04102D01*
X07012*
Y04106*
X07016*
Y04114*
X07012*
Y04118*
X07004*
Y04114*
X07*
Y04106*
X07004*
X07006Y04108D02*
Y04106D01*
X0701*
Y04108*
X07012*
Y04112*
X0701*
Y04114*
X07006*
Y04112*
X07004*
Y04108*
X07006*
X06741Y04106D02*
Y04102D01*
X06749*
Y04106*
X06753*
Y04114*
X06749*
Y04118*
X06741*
Y04114*
X06737*
Y04106*
X06741*
X06743Y04108D02*
Y04106D01*
X06747*
Y04108*
X06749*
Y04112*
X06747*
Y04114*
X06743*
Y04112*
X06741*
Y04108*
X06743*
G54D90*
X08053Y05166D02*
D01*
X08052Y05166*
X08052Y05167*
X08052Y05167*
X08052Y05168*
X08052Y05168*
X08052Y05169*
X08052Y05169*
X08051Y0517*
X08051Y0517*
X08051Y05171*
X0805Y05171*
X0805Y05172*
X08049Y05172*
X08049Y05172*
X08049Y05173*
X08048Y05173*
X08047Y05173*
X08047Y05173*
X08046Y05173*
X08046Y05173*
X08045Y05174*
X08045Y05174*
X08044*
X08044Y05174*
X08043Y05173*
X08043Y05173*
X08042Y05173*
X08042Y05173*
X08041Y05173*
X08041Y05173*
X0804Y05172*
X0804Y05172*
X08039Y05172*
X08039Y05171*
X08038Y05171*
X08038Y0517*
X08038Y0517*
X08037Y05169*
X08037Y05169*
X08037Y05168*
X08037Y05168*
X08037Y05167*
X08037Y05167*
X08037Y05166*
X08037Y05166*
X08037Y05165*
X08037Y05164*
X08037Y05164*
X08037Y05163*
X08037Y05163*
X08037Y05162*
X08037Y05162*
X08038Y05161*
X08038Y05161*
X08038Y0516*
X08039Y0516*
X08039Y0516*
X0804Y05159*
X0804Y05159*
X08041Y05159*
X08041Y05158*
X08042Y05158*
X08042Y05158*
X08043Y05158*
X08043Y05158*
X08044Y05158*
X08044Y05158*
X08045*
X08045Y05158*
X08046Y05158*
X08046Y05158*
X08047Y05158*
X08047Y05158*
X08048Y05158*
X08049Y05159*
X08049Y05159*
X08049Y05159*
X0805Y0516*
X0805Y0516*
X08051Y0516*
X08051Y05161*
X08051Y05161*
X08052Y05162*
X08052Y05162*
X08052Y05163*
X08052Y05163*
X08052Y05164*
X08052Y05164*
X08052Y05165*
X08053Y05166*
X04853D02*
D01*
X04852Y05166*
X04852Y05167*
X04852Y05167*
X04852Y05168*
X04852Y05168*
X04852Y05169*
X04852Y05169*
X04851Y0517*
X04851Y0517*
X04851Y05171*
X0485Y05171*
X0485Y05172*
X04849Y05172*
X04849Y05172*
X04849Y05173*
X04848Y05173*
X04847Y05173*
X04847Y05173*
X04846Y05173*
X04846Y05173*
X04845Y05174*
X04845Y05174*
X04844*
X04844Y05174*
X04843Y05173*
X04843Y05173*
X04842Y05173*
X04842Y05173*
X04841Y05173*
X04841Y05173*
X0484Y05172*
X0484Y05172*
X04839Y05172*
X04839Y05171*
X04838Y05171*
X04838Y0517*
X04838Y0517*
X04837Y05169*
X04837Y05169*
X04837Y05168*
X04837Y05168*
X04837Y05167*
X04837Y05167*
X04837Y05166*
X04837Y05166*
X04837Y05165*
X04837Y05164*
X04837Y05164*
X04837Y05163*
X04837Y05163*
X04837Y05162*
X04837Y05162*
X04838Y05161*
X04838Y05161*
X04838Y0516*
X04839Y0516*
X04839Y0516*
X0484Y05159*
X0484Y05159*
X04841Y05159*
X04841Y05158*
X04842Y05158*
X04842Y05158*
X04843Y05158*
X04843Y05158*
X04844Y05158*
X04844Y05158*
X04845*
X04845Y05158*
X04846Y05158*
X04846Y05158*
X04847Y05158*
X04847Y05158*
X04848Y05158*
X04849Y05159*
X04849Y05159*
X04849Y05159*
X0485Y0516*
X0485Y0516*
X04851Y0516*
X04851Y05161*
X04851Y05161*
X04852Y05162*
X04852Y05162*
X04852Y05163*
X04852Y05163*
X04852Y05164*
X04852Y05164*
X04852Y05165*
X04853Y05166*
X04053D02*
D01*
X04052Y05166*
X04052Y05167*
X04052Y05167*
X04052Y05168*
X04052Y05168*
X04052Y05169*
X04052Y05169*
X04051Y0517*
X04051Y0517*
X04051Y05171*
X0405Y05171*
X0405Y05172*
X04049Y05172*
X04049Y05172*
X04049Y05173*
X04048Y05173*
X04047Y05173*
X04047Y05173*
X04046Y05173*
X04046Y05173*
X04045Y05174*
X04045Y05174*
X04044*
X04044Y05174*
X04043Y05173*
X04043Y05173*
X04042Y05173*
X04042Y05173*
X04041Y05173*
X04041Y05173*
X0404Y05172*
X0404Y05172*
X04039Y05172*
X04039Y05171*
X04038Y05171*
X04038Y0517*
X04038Y0517*
X04037Y05169*
X04037Y05169*
X04037Y05168*
X04037Y05168*
X04037Y05167*
X04037Y05167*
X04037Y05166*
X04037Y05166*
X04037Y05165*
X04037Y05164*
X04037Y05164*
X04037Y05163*
X04037Y05163*
X04037Y05162*
X04037Y05162*
X04038Y05161*
X04038Y05161*
X04038Y0516*
X04039Y0516*
X04039Y0516*
X0404Y05159*
X0404Y05159*
X04041Y05159*
X04041Y05158*
X04042Y05158*
X04042Y05158*
X04043Y05158*
X04043Y05158*
X04044Y05158*
X04044Y05158*
X04045*
X04045Y05158*
X04046Y05158*
X04046Y05158*
X04047Y05158*
X04047Y05158*
X04048Y05158*
X04049Y05159*
X04049Y05159*
X04049Y05159*
X0405Y0516*
X0405Y0516*
X04051Y0516*
X04051Y05161*
X04051Y05161*
X04052Y05162*
X04052Y05162*
X04052Y05163*
X04052Y05163*
X04052Y05164*
X04052Y05164*
X04052Y05165*
X04053Y05166*
X01653D02*
D01*
X01652Y05166*
X01652Y05167*
X01652Y05167*
X01652Y05168*
X01652Y05168*
X01652Y05169*
X01652Y05169*
X01651Y0517*
X01651Y0517*
X01651Y05171*
X0165Y05171*
X0165Y05172*
X01649Y05172*
X01649Y05172*
X01649Y05173*
X01648Y05173*
X01647Y05173*
X01647Y05173*
X01646Y05173*
X01646Y05173*
X01645Y05174*
X01645Y05174*
X01644*
X01644Y05174*
X01643Y05173*
X01643Y05173*
X01642Y05173*
X01642Y05173*
X01641Y05173*
X01641Y05173*
X0164Y05172*
X0164Y05172*
X01639Y05172*
X01639Y05171*
X01638Y05171*
X01638Y0517*
X01638Y0517*
X01637Y05169*
X01637Y05169*
X01637Y05168*
X01637Y05168*
X01637Y05167*
X01637Y05167*
X01637Y05166*
X01637Y05166*
X01637Y05165*
X01637Y05164*
X01637Y05164*
X01637Y05163*
X01637Y05163*
X01637Y05162*
X01637Y05162*
X01638Y05161*
X01638Y05161*
X01638Y0516*
X01639Y0516*
X01639Y0516*
X0164Y05159*
X0164Y05159*
X01641Y05159*
X01641Y05158*
X01642Y05158*
X01642Y05158*
X01643Y05158*
X01643Y05158*
X01644Y05158*
X01644Y05158*
X01645*
X01645Y05158*
X01646Y05158*
X01646Y05158*
X01647Y05158*
X01647Y05158*
X01648Y05158*
X01649Y05159*
X01649Y05159*
X01649Y05159*
X0165Y0516*
X0165Y0516*
X01651Y0516*
X01651Y05161*
X01651Y05161*
X01652Y05162*
X01652Y05162*
X01652Y05163*
X01652Y05163*
X01652Y05164*
X01652Y05164*
X01652Y05165*
X01653Y05166*
X0148Y03443D02*
D01*
X0148Y03444*
X0148Y03444*
X0148Y03445*
X0148Y03445*
X0148Y03446*
X01479Y03446*
X01479Y03447*
X01479Y03447*
X01478Y03448*
X01478Y03448*
X01478Y03449*
X01477Y03449*
X01477Y03449*
X01476Y0345*
X01476Y0345*
X01476Y0345*
X01475Y03451*
X01474Y03451*
X01474Y03451*
X01473Y03451*
X01473Y03451*
X01472Y03451*
X01472*
X01471Y03451*
X01471Y03451*
X0147Y03451*
X0147Y03451*
X01469Y03451*
X01469Y0345*
X01468Y0345*
X01468Y0345*
X01467Y03449*
X01467Y03449*
X01466Y03449*
X01466Y03448*
X01466Y03448*
X01465Y03447*
X01465Y03447*
X01465Y03446*
X01465Y03446*
X01464Y03445*
X01464Y03445*
X01464Y03444*
X01464Y03444*
X01464Y03443*
X01464Y03443*
X01464Y03442*
X01464Y03442*
X01464Y03441*
X01465Y0344*
X01465Y0344*
X01465Y03439*
X01465Y03439*
X01466Y03438*
X01466Y03438*
X01466Y03438*
X01467Y03437*
X01467Y03437*
X01468Y03437*
X01468Y03436*
X01469Y03436*
X01469Y03436*
X0147Y03436*
X0147Y03435*
X01471Y03435*
X01471Y03435*
X01472Y03435*
X01472*
X01473Y03435*
X01473Y03435*
X01474Y03435*
X01474Y03436*
X01475Y03436*
X01476Y03436*
X01476Y03436*
X01476Y03437*
X01477Y03437*
X01477Y03437*
X01478Y03438*
X01478Y03438*
X01478Y03438*
X01479Y03439*
X01479Y03439*
X01479Y0344*
X0148Y0344*
X0148Y03441*
X0148Y03442*
X0148Y03442*
X0148Y03443*
X0148Y03443*
X01559D02*
D01*
X01559Y03444*
X01559Y03444*
X01559Y03445*
X01558Y03445*
X01558Y03446*
X01558Y03446*
X01558Y03447*
X01558Y03447*
X01557Y03448*
X01557Y03448*
X01557Y03449*
X01556Y03449*
X01556Y03449*
X01555Y0345*
X01555Y0345*
X01554Y0345*
X01554Y03451*
X01553Y03451*
X01553Y03451*
X01552Y03451*
X01552Y03451*
X01551Y03451*
X0155*
X0155Y03451*
X01549Y03451*
X01549Y03451*
X01548Y03451*
X01548Y03451*
X01547Y0345*
X01547Y0345*
X01546Y0345*
X01546Y03449*
X01545Y03449*
X01545Y03449*
X01545Y03448*
X01544Y03448*
X01544Y03447*
X01544Y03447*
X01543Y03446*
X01543Y03446*
X01543Y03445*
X01543Y03445*
X01543Y03444*
X01543Y03444*
X01543Y03443*
X01543Y03443*
X01543Y03442*
X01543Y03442*
X01543Y03441*
X01543Y0344*
X01543Y0344*
X01544Y03439*
X01544Y03439*
X01544Y03438*
X01545Y03438*
X01545Y03438*
X01545Y03437*
X01546Y03437*
X01546Y03437*
X01547Y03436*
X01547Y03436*
X01548Y03436*
X01548Y03436*
X01549Y03435*
X01549Y03435*
X0155Y03435*
X0155Y03435*
X01551*
X01552Y03435*
X01552Y03435*
X01553Y03435*
X01553Y03436*
X01554Y03436*
X01554Y03436*
X01555Y03436*
X01555Y03437*
X01556Y03437*
X01556Y03437*
X01557Y03438*
X01557Y03438*
X01557Y03438*
X01558Y03439*
X01558Y03439*
X01558Y0344*
X01558Y0344*
X01558Y03441*
X01559Y03442*
X01559Y03442*
X01559Y03443*
X01559Y03443*
X01638D02*
D01*
X01637Y03444*
X01637Y03444*
X01637Y03445*
X01637Y03445*
X01637Y03446*
X01637Y03446*
X01637Y03447*
X01636Y03447*
X01636Y03448*
X01636Y03448*
X01635Y03449*
X01635Y03449*
X01634Y03449*
X01634Y0345*
X01634Y0345*
X01633Y0345*
X01632Y03451*
X01632Y03451*
X01631Y03451*
X01631Y03451*
X0163Y03451*
X0163Y03451*
X01629*
X01629Y03451*
X01628Y03451*
X01628Y03451*
X01627Y03451*
X01627Y03451*
X01626Y0345*
X01626Y0345*
X01625Y0345*
X01625Y03449*
X01624Y03449*
X01624Y03449*
X01623Y03448*
X01623Y03448*
X01623Y03447*
X01622Y03447*
X01622Y03446*
X01622Y03446*
X01622Y03445*
X01622Y03445*
X01622Y03444*
X01622Y03444*
X01622Y03443*
X01622Y03443*
X01622Y03442*
X01622Y03442*
X01622Y03441*
X01622Y0344*
X01622Y0344*
X01622Y03439*
X01623Y03439*
X01623Y03438*
X01623Y03438*
X01624Y03438*
X01624Y03437*
X01625Y03437*
X01625Y03437*
X01626Y03436*
X01626Y03436*
X01627Y03436*
X01627Y03436*
X01628Y03435*
X01628Y03435*
X01629Y03435*
X01629Y03435*
X0163*
X0163Y03435*
X01631Y03435*
X01631Y03435*
X01632Y03436*
X01632Y03436*
X01633Y03436*
X01634Y03436*
X01634Y03437*
X01634Y03437*
X01635Y03437*
X01635Y03438*
X01636Y03438*
X01636Y03438*
X01636Y03439*
X01637Y03439*
X01637Y0344*
X01637Y0344*
X01637Y03441*
X01637Y03442*
X01637Y03442*
X01637Y03443*
X01638Y03443*
X01716D02*
D01*
X01716Y03444*
X01716Y03444*
X01716Y03445*
X01716Y03445*
X01716Y03446*
X01716Y03446*
X01715Y03447*
X01715Y03447*
X01715Y03448*
X01714Y03448*
X01714Y03449*
X01714Y03449*
X01713Y03449*
X01713Y0345*
X01712Y0345*
X01712Y0345*
X01711Y03451*
X01711Y03451*
X0171Y03451*
X0171Y03451*
X01709Y03451*
X01709Y03451*
X01708*
X01707Y03451*
X01707Y03451*
X01706Y03451*
X01706Y03451*
X01705Y03451*
X01705Y0345*
X01704Y0345*
X01704Y0345*
X01703Y03449*
X01703Y03449*
X01702Y03449*
X01702Y03448*
X01702Y03448*
X01701Y03447*
X01701Y03447*
X01701Y03446*
X01701Y03446*
X01701Y03445*
X017Y03445*
X017Y03444*
X017Y03444*
X017Y03443*
X017Y03443*
X017Y03442*
X017Y03442*
X01701Y03441*
X01701Y0344*
X01701Y0344*
X01701Y03439*
X01701Y03439*
X01702Y03438*
X01702Y03438*
X01702Y03438*
X01703Y03437*
X01703Y03437*
X01704Y03437*
X01704Y03436*
X01705Y03436*
X01705Y03436*
X01706Y03436*
X01706Y03435*
X01707Y03435*
X01707Y03435*
X01708Y03435*
X01709*
X01709Y03435*
X0171Y03435*
X0171Y03435*
X01711Y03436*
X01711Y03436*
X01712Y03436*
X01712Y03436*
X01713Y03437*
X01713Y03437*
X01714Y03437*
X01714Y03438*
X01714Y03438*
X01715Y03438*
X01715Y03439*
X01715Y03439*
X01716Y0344*
X01716Y0344*
X01716Y03441*
X01716Y03442*
X01716Y03442*
X01716Y03443*
X01716Y03443*
X07253Y05166D02*
D01*
X07252Y05166*
X07252Y05167*
X07252Y05167*
X07252Y05168*
X07252Y05168*
X07252Y05169*
X07252Y05169*
X07251Y0517*
X07251Y0517*
X07251Y05171*
X0725Y05171*
X0725Y05172*
X07249Y05172*
X07249Y05172*
X07249Y05173*
X07248Y05173*
X07247Y05173*
X07247Y05173*
X07246Y05173*
X07246Y05173*
X07245Y05174*
X07245Y05174*
X07244*
X07244Y05174*
X07243Y05173*
X07243Y05173*
X07242Y05173*
X07242Y05173*
X07241Y05173*
X07241Y05173*
X0724Y05172*
X0724Y05172*
X07239Y05172*
X07239Y05171*
X07238Y05171*
X07238Y0517*
X07238Y0517*
X07237Y05169*
X07237Y05169*
X07237Y05168*
X07237Y05168*
X07237Y05167*
X07237Y05167*
X07237Y05166*
X07237Y05166*
X07237Y05165*
X07237Y05164*
X07237Y05164*
X07237Y05163*
X07237Y05163*
X07237Y05162*
X07237Y05162*
X07238Y05161*
X07238Y05161*
X07238Y0516*
X07239Y0516*
X07239Y0516*
X0724Y05159*
X0724Y05159*
X07241Y05159*
X07241Y05158*
X07242Y05158*
X07242Y05158*
X07243Y05158*
X07243Y05158*
X07244Y05158*
X07244Y05158*
X07245*
X07245Y05158*
X07246Y05158*
X07246Y05158*
X07247Y05158*
X07247Y05158*
X07248Y05158*
X07249Y05159*
X07249Y05159*
X07249Y05159*
X0725Y0516*
X0725Y0516*
X07251Y0516*
X07251Y05161*
X07251Y05161*
X07252Y05162*
X07252Y05162*
X07252Y05163*
X07252Y05163*
X07252Y05164*
X07252Y05164*
X07252Y05165*
X07253Y05166*
X05653D02*
D01*
X05652Y05166*
X05652Y05167*
X05652Y05167*
X05652Y05168*
X05652Y05168*
X05652Y05169*
X05652Y05169*
X05651Y0517*
X05651Y0517*
X05651Y05171*
X0565Y05171*
X0565Y05172*
X05649Y05172*
X05649Y05172*
X05649Y05173*
X05648Y05173*
X05647Y05173*
X05647Y05173*
X05646Y05173*
X05646Y05173*
X05645Y05174*
X05645Y05174*
X05644*
X05644Y05174*
X05643Y05173*
X05643Y05173*
X05642Y05173*
X05642Y05173*
X05641Y05173*
X05641Y05173*
X0564Y05172*
X0564Y05172*
X05639Y05172*
X05639Y05171*
X05638Y05171*
X05638Y0517*
X05638Y0517*
X05637Y05169*
X05637Y05169*
X05637Y05168*
X05637Y05168*
X05637Y05167*
X05637Y05167*
X05637Y05166*
X05637Y05166*
X05637Y05165*
X05637Y05164*
X05637Y05164*
X05637Y05163*
X05637Y05163*
X05637Y05162*
X05637Y05162*
X05638Y05161*
X05638Y05161*
X05638Y0516*
X05639Y0516*
X05639Y0516*
X0564Y05159*
X0564Y05159*
X05641Y05159*
X05641Y05158*
X05642Y05158*
X05642Y05158*
X05643Y05158*
X05643Y05158*
X05644Y05158*
X05644Y05158*
X05645*
X05645Y05158*
X05646Y05158*
X05646Y05158*
X05647Y05158*
X05647Y05158*
X05648Y05158*
X05649Y05159*
X05649Y05159*
X05649Y05159*
X0565Y0516*
X0565Y0516*
X05651Y0516*
X05651Y05161*
X05651Y05161*
X05652Y05162*
X05652Y05162*
X05652Y05163*
X05652Y05163*
X05652Y05164*
X05652Y05164*
X05652Y05165*
X05653Y05166*
X06453D02*
D01*
X06452Y05166*
X06452Y05167*
X06452Y05167*
X06452Y05168*
X06452Y05168*
X06452Y05169*
X06452Y05169*
X06451Y0517*
X06451Y0517*
X06451Y05171*
X0645Y05171*
X0645Y05172*
X06449Y05172*
X06449Y05172*
X06449Y05173*
X06448Y05173*
X06447Y05173*
X06447Y05173*
X06446Y05173*
X06446Y05173*
X06445Y05174*
X06445Y05174*
X06444*
X06444Y05174*
X06443Y05173*
X06443Y05173*
X06442Y05173*
X06442Y05173*
X06441Y05173*
X06441Y05173*
X0644Y05172*
X0644Y05172*
X06439Y05172*
X06439Y05171*
X06438Y05171*
X06438Y0517*
X06438Y0517*
X06437Y05169*
X06437Y05169*
X06437Y05168*
X06437Y05168*
X06437Y05167*
X06437Y05167*
X06437Y05166*
X06437Y05166*
X06437Y05165*
X06437Y05164*
X06437Y05164*
X06437Y05163*
X06437Y05163*
X06437Y05162*
X06437Y05162*
X06438Y05161*
X06438Y05161*
X06438Y0516*
X06439Y0516*
X06439Y0516*
X0644Y05159*
X0644Y05159*
X06441Y05159*
X06441Y05158*
X06442Y05158*
X06442Y05158*
X06443Y05158*
X06443Y05158*
X06444Y05158*
X06444Y05158*
X06445*
X06445Y05158*
X06446Y05158*
X06446Y05158*
X06447Y05158*
X06447Y05158*
X06448Y05158*
X06449Y05159*
X06449Y05159*
X06449Y05159*
X0645Y0516*
X0645Y0516*
X06451Y0516*
X06451Y05161*
X06451Y05161*
X06452Y05162*
X06452Y05162*
X06452Y05163*
X06452Y05163*
X06452Y05164*
X06452Y05164*
X06452Y05165*
X06453Y05166*
X00853D02*
D01*
X00852Y05166*
X00852Y05167*
X00852Y05167*
X00852Y05168*
X00852Y05168*
X00852Y05169*
X00852Y05169*
X00851Y0517*
X00851Y0517*
X00851Y05171*
X0085Y05171*
X0085Y05172*
X00849Y05172*
X00849Y05172*
X00849Y05173*
X00848Y05173*
X00847Y05173*
X00847Y05173*
X00846Y05173*
X00846Y05173*
X00845Y05174*
X00845Y05174*
X00844*
X00844Y05174*
X00843Y05173*
X00843Y05173*
X00842Y05173*
X00842Y05173*
X00841Y05173*
X00841Y05173*
X0084Y05172*
X0084Y05172*
X00839Y05172*
X00839Y05171*
X00838Y05171*
X00838Y0517*
X00838Y0517*
X00837Y05169*
X00837Y05169*
X00837Y05168*
X00837Y05168*
X00837Y05167*
X00837Y05167*
X00837Y05166*
X00837Y05166*
X00837Y05165*
X00837Y05164*
X00837Y05164*
X00837Y05163*
X00837Y05163*
X00837Y05162*
X00837Y05162*
X00838Y05161*
X00838Y05161*
X00838Y0516*
X00839Y0516*
X00839Y0516*
X0084Y05159*
X0084Y05159*
X00841Y05159*
X00841Y05158*
X00842Y05158*
X00842Y05158*
X00843Y05158*
X00843Y05158*
X00844Y05158*
X00844Y05158*
X00845*
X00845Y05158*
X00846Y05158*
X00846Y05158*
X00847Y05158*
X00847Y05158*
X00848Y05158*
X00849Y05159*
X00849Y05159*
X00849Y05159*
X0085Y0516*
X0085Y0516*
X00851Y0516*
X00851Y05161*
X00851Y05161*
X00852Y05162*
X00852Y05162*
X00852Y05163*
X00852Y05163*
X00852Y05164*
X00852Y05164*
X00852Y05165*
X00853Y05166*
X02453D02*
D01*
X02452Y05166*
X02452Y05167*
X02452Y05167*
X02452Y05168*
X02452Y05168*
X02452Y05169*
X02452Y05169*
X02451Y0517*
X02451Y0517*
X02451Y05171*
X0245Y05171*
X0245Y05172*
X02449Y05172*
X02449Y05172*
X02449Y05173*
X02448Y05173*
X02447Y05173*
X02447Y05173*
X02446Y05173*
X02446Y05173*
X02445Y05174*
X02445Y05174*
X02444*
X02444Y05174*
X02443Y05173*
X02443Y05173*
X02442Y05173*
X02442Y05173*
X02441Y05173*
X02441Y05173*
X0244Y05172*
X0244Y05172*
X02439Y05172*
X02439Y05171*
X02438Y05171*
X02438Y0517*
X02438Y0517*
X02437Y05169*
X02437Y05169*
X02437Y05168*
X02437Y05168*
X02437Y05167*
X02437Y05167*
X02437Y05166*
X02437Y05166*
X02437Y05165*
X02437Y05164*
X02437Y05164*
X02437Y05163*
X02437Y05163*
X02437Y05162*
X02437Y05162*
X02438Y05161*
X02438Y05161*
X02438Y0516*
X02439Y0516*
X02439Y0516*
X0244Y05159*
X0244Y05159*
X02441Y05159*
X02441Y05158*
X02442Y05158*
X02442Y05158*
X02443Y05158*
X02443Y05158*
X02444Y05158*
X02444Y05158*
X02445*
X02445Y05158*
X02446Y05158*
X02446Y05158*
X02447Y05158*
X02447Y05158*
X02448Y05158*
X02449Y05159*
X02449Y05159*
X02449Y05159*
X0245Y0516*
X0245Y0516*
X02451Y0516*
X02451Y05161*
X02451Y05161*
X02452Y05162*
X02452Y05162*
X02452Y05163*
X02452Y05163*
X02452Y05164*
X02452Y05164*
X02452Y05165*
X02453Y05166*
X03253D02*
D01*
X03252Y05166*
X03252Y05167*
X03252Y05167*
X03252Y05168*
X03252Y05168*
X03252Y05169*
X03252Y05169*
X03251Y0517*
X03251Y0517*
X03251Y05171*
X0325Y05171*
X0325Y05172*
X03249Y05172*
X03249Y05172*
X03249Y05173*
X03248Y05173*
X03247Y05173*
X03247Y05173*
X03246Y05173*
X03246Y05173*
X03245Y05174*
X03245Y05174*
X03244*
X03244Y05174*
X03243Y05173*
X03243Y05173*
X03242Y05173*
X03242Y05173*
X03241Y05173*
X03241Y05173*
X0324Y05172*
X0324Y05172*
X03239Y05172*
X03239Y05171*
X03238Y05171*
X03238Y0517*
X03238Y0517*
X03237Y05169*
X03237Y05169*
X03237Y05168*
X03237Y05168*
X03237Y05167*
X03237Y05167*
X03237Y05166*
X03237Y05166*
X03237Y05165*
X03237Y05164*
X03237Y05164*
X03237Y05163*
X03237Y05163*
X03237Y05162*
X03237Y05162*
X03238Y05161*
X03238Y05161*
X03238Y0516*
X03239Y0516*
X03239Y0516*
X0324Y05159*
X0324Y05159*
X03241Y05159*
X03241Y05158*
X03242Y05158*
X03242Y05158*
X03243Y05158*
X03243Y05158*
X03244Y05158*
X03244Y05158*
X03245*
X03245Y05158*
X03246Y05158*
X03246Y05158*
X03247Y05158*
X03247Y05158*
X03248Y05158*
X03249Y05159*
X03249Y05159*
X03249Y05159*
X0325Y0516*
X0325Y0516*
X03251Y0516*
X03251Y05161*
X03251Y05161*
X03252Y05162*
X03252Y05162*
X03252Y05163*
X03252Y05163*
X03252Y05164*
X03252Y05164*
X03252Y05165*
X03253Y05166*
X05439Y01182D02*
D01*
X05439Y01183*
X05439Y01183*
X05439Y01184*
X05439Y01184*
X05438Y01185*
X05438Y01185*
X05438Y01186*
X05438Y01186*
X05437Y01187*
X05437Y01187*
X05437Y01188*
X05436Y01188*
X05436Y01188*
X05435Y01189*
X05435Y01189*
X05434Y01189*
X05434Y01189*
X05433Y0119*
X05433Y0119*
X05432Y0119*
X05432Y0119*
X05431Y0119*
X05431*
X0543Y0119*
X05429Y0119*
X05429Y0119*
X05428Y0119*
X05428Y01189*
X05427Y01189*
X05427Y01189*
X05426Y01189*
X05426Y01188*
X05425Y01188*
X05425Y01188*
X05425Y01187*
X05424Y01187*
X05424Y01186*
X05424Y01186*
X05424Y01185*
X05423Y01185*
X05423Y01184*
X05423Y01184*
X05423Y01183*
X05423Y01183*
X05423Y01182*
X05423Y01181*
X05423Y01181*
X05423Y0118*
X05423Y0118*
X05423Y01179*
X05424Y01179*
X05424Y01178*
X05424Y01178*
X05424Y01177*
X05425Y01177*
X05425Y01176*
X05425Y01176*
X05426Y01176*
X05426Y01175*
X05427Y01175*
X05427Y01175*
X05428Y01175*
X05428Y01174*
X05429Y01174*
X05429Y01174*
X0543Y01174*
X05431Y01174*
X05431*
X05432Y01174*
X05432Y01174*
X05433Y01174*
X05433Y01174*
X05434Y01175*
X05434Y01175*
X05435Y01175*
X05435Y01175*
X05436Y01176*
X05436Y01176*
X05437Y01176*
X05437Y01177*
X05437Y01177*
X05438Y01178*
X05438Y01178*
X05438Y01179*
X05438Y01179*
X05439Y0118*
X05439Y0118*
X05439Y01181*
X05439Y01181*
X05439Y01182*
Y01103D02*
D01*
X05439Y01104*
X05439Y01104*
X05439Y01105*
X05439Y01105*
X05438Y01106*
X05438Y01106*
X05438Y01107*
X05438Y01107*
X05437Y01108*
X05437Y01108*
X05437Y01109*
X05436Y01109*
X05436Y0111*
X05435Y0111*
X05435Y0111*
X05434Y0111*
X05434Y01111*
X05433Y01111*
X05433Y01111*
X05432Y01111*
X05432Y01111*
X05431Y01111*
X05431*
X0543Y01111*
X05429Y01111*
X05429Y01111*
X05428Y01111*
X05428Y01111*
X05427Y0111*
X05427Y0111*
X05426Y0111*
X05426Y0111*
X05425Y01109*
X05425Y01109*
X05425Y01108*
X05424Y01108*
X05424Y01107*
X05424Y01107*
X05424Y01106*
X05423Y01106*
X05423Y01105*
X05423Y01105*
X05423Y01104*
X05423Y01104*
X05423Y01103*
X05423Y01103*
X05423Y01102*
X05423Y01102*
X05423Y01101*
X05423Y01101*
X05424Y011*
X05424Y01099*
X05424Y01099*
X05424Y01099*
X05425Y01098*
X05425Y01098*
X05425Y01097*
X05426Y01097*
X05426Y01097*
X05427Y01096*
X05427Y01096*
X05428Y01096*
X05428Y01096*
X05429Y01095*
X05429Y01095*
X0543Y01095*
X05431Y01095*
X05431*
X05432Y01095*
X05432Y01095*
X05433Y01095*
X05433Y01096*
X05434Y01096*
X05434Y01096*
X05435Y01096*
X05435Y01097*
X05436Y01097*
X05436Y01097*
X05437Y01098*
X05437Y01098*
X05437Y01099*
X05438Y01099*
X05438Y01099*
X05438Y011*
X05438Y01101*
X05439Y01101*
X05439Y01102*
X05439Y01102*
X05439Y01103*
X05439Y01103*
Y01025D02*
D01*
X05439Y01025*
X05439Y01026*
X05439Y01026*
X05439Y01027*
X05438Y01027*
X05438Y01028*
X05438Y01028*
X05438Y01029*
X05437Y01029*
X05437Y0103*
X05437Y0103*
X05436Y0103*
X05436Y01031*
X05435Y01031*
X05435Y01031*
X05434Y01032*
X05434Y01032*
X05433Y01032*
X05433Y01032*
X05432Y01032*
X05432Y01032*
X05431Y01032*
X05431*
X0543Y01032*
X05429Y01032*
X05429Y01032*
X05428Y01032*
X05428Y01032*
X05427Y01032*
X05427Y01031*
X05426Y01031*
X05426Y01031*
X05425Y0103*
X05425Y0103*
X05425Y0103*
X05424Y01029*
X05424Y01029*
X05424Y01028*
X05424Y01028*
X05423Y01027*
X05423Y01027*
X05423Y01026*
X05423Y01026*
X05423Y01025*
X05423Y01025*
X05423Y01024*
X05423Y01023*
X05423Y01023*
X05423Y01022*
X05423Y01022*
X05424Y01021*
X05424Y01021*
X05424Y0102*
X05424Y0102*
X05425Y01019*
X05425Y01019*
X05425Y01019*
X05426Y01018*
X05426Y01018*
X05427Y01018*
X05427Y01017*
X05428Y01017*
X05428Y01017*
X05429Y01017*
X05429Y01017*
X0543Y01017*
X05431Y01017*
X05431*
X05432Y01017*
X05432Y01017*
X05433Y01017*
X05433Y01017*
X05434Y01017*
X05434Y01017*
X05435Y01018*
X05435Y01018*
X05436Y01018*
X05436Y01019*
X05437Y01019*
X05437Y01019*
X05437Y0102*
X05438Y0102*
X05438Y01021*
X05438Y01021*
X05438Y01022*
X05439Y01022*
X05439Y01023*
X05439Y01023*
X05439Y01024*
X05439Y01025*
Y00946D02*
D01*
X05439Y00946*
X05439Y00947*
X05439Y00947*
X05439Y00948*
X05438Y00948*
X05438Y00949*
X05438Y0095*
X05438Y0095*
X05437Y0095*
X05437Y00951*
X05437Y00951*
X05436Y00952*
X05436Y00952*
X05435Y00952*
X05435Y00953*
X05434Y00953*
X05434Y00953*
X05433Y00953*
X05433Y00954*
X05432Y00954*
X05432Y00954*
X05431Y00954*
X05431*
X0543Y00954*
X05429Y00954*
X05429Y00954*
X05428Y00953*
X05428Y00953*
X05427Y00953*
X05427Y00953*
X05426Y00952*
X05426Y00952*
X05425Y00952*
X05425Y00951*
X05425Y00951*
X05424Y0095*
X05424Y0095*
X05424Y0095*
X05424Y00949*
X05423Y00948*
X05423Y00948*
X05423Y00947*
X05423Y00947*
X05423Y00946*
X05423Y00946*
X05423Y00945*
X05423Y00945*
X05423Y00944*
X05423Y00944*
X05423Y00943*
X05424Y00943*
X05424Y00942*
X05424Y00942*
X05424Y00941*
X05425Y00941*
X05425Y0094*
X05425Y0094*
X05426Y00939*
X05426Y00939*
X05427Y00939*
X05427Y00939*
X05428Y00938*
X05428Y00938*
X05429Y00938*
X05429Y00938*
X0543Y00938*
X05431Y00938*
X05431*
X05432Y00938*
X05432Y00938*
X05433Y00938*
X05433Y00938*
X05434Y00938*
X05434Y00939*
X05435Y00939*
X05435Y00939*
X05436Y00939*
X05436Y0094*
X05437Y0094*
X05437Y00941*
X05437Y00941*
X05438Y00942*
X05438Y00942*
X05438Y00943*
X05438Y00943*
X05439Y00944*
X05439Y00944*
X05439Y00945*
X05439Y00945*
X05439Y00946*
X05449Y02777D02*
D01*
X05449Y02778*
X05449Y02778*
X05449Y02779*
X05449Y02779*
X05448Y0278*
X05448Y0278*
X05448Y02781*
X05448Y02781*
X05447Y02782*
X05447Y02782*
X05447Y02783*
X05446Y02783*
X05446Y02783*
X05445Y02784*
X05445Y02784*
X05444Y02784*
X05444Y02784*
X05443Y02785*
X05443Y02785*
X05442Y02785*
X05442Y02785*
X05441Y02785*
X05441*
X0544Y02785*
X05439Y02785*
X05439Y02785*
X05438Y02785*
X05438Y02784*
X05437Y02784*
X05437Y02784*
X05436Y02784*
X05436Y02783*
X05435Y02783*
X05435Y02783*
X05435Y02782*
X05434Y02782*
X05434Y02781*
X05434Y02781*
X05434Y0278*
X05433Y0278*
X05433Y02779*
X05433Y02779*
X05433Y02778*
X05433Y02778*
X05433Y02777*
X05433Y02776*
X05433Y02776*
X05433Y02775*
X05433Y02775*
X05433Y02774*
X05434Y02774*
X05434Y02773*
X05434Y02773*
X05434Y02772*
X05435Y02772*
X05435Y02771*
X05435Y02771*
X05436Y02771*
X05436Y0277*
X05437Y0277*
X05437Y0277*
X05438Y0277*
X05438Y02769*
X05439Y02769*
X05439Y02769*
X0544Y02769*
X05441Y02769*
X05441*
X05442Y02769*
X05442Y02769*
X05443Y02769*
X05443Y02769*
X05444Y0277*
X05444Y0277*
X05445Y0277*
X05445Y0277*
X05446Y02771*
X05446Y02771*
X05447Y02771*
X05447Y02772*
X05447Y02772*
X05448Y02773*
X05448Y02773*
X05448Y02774*
X05448Y02774*
X05449Y02775*
X05449Y02775*
X05449Y02776*
X05449Y02776*
X05449Y02777*
Y02698D02*
D01*
X05449Y02699*
X05449Y02699*
X05449Y027*
X05449Y027*
X05448Y02701*
X05448Y02701*
X05448Y02702*
X05448Y02702*
X05447Y02703*
X05447Y02703*
X05447Y02704*
X05446Y02704*
X05446Y02705*
X05445Y02705*
X05445Y02705*
X05444Y02705*
X05444Y02706*
X05443Y02706*
X05443Y02706*
X05442Y02706*
X05442Y02706*
X05441Y02706*
X05441*
X0544Y02706*
X05439Y02706*
X05439Y02706*
X05438Y02706*
X05438Y02706*
X05437Y02705*
X05437Y02705*
X05436Y02705*
X05436Y02705*
X05435Y02704*
X05435Y02704*
X05435Y02703*
X05434Y02703*
X05434Y02702*
X05434Y02702*
X05434Y02701*
X05433Y02701*
X05433Y027*
X05433Y027*
X05433Y02699*
X05433Y02699*
X05433Y02698*
X05433Y02698*
X05433Y02697*
X05433Y02697*
X05433Y02696*
X05433Y02696*
X05434Y02695*
X05434Y02694*
X05434Y02694*
X05434Y02694*
X05435Y02693*
X05435Y02693*
X05435Y02692*
X05436Y02692*
X05436Y02692*
X05437Y02691*
X05437Y02691*
X05438Y02691*
X05438Y02691*
X05439Y0269*
X05439Y0269*
X0544Y0269*
X05441Y0269*
X05441*
X05442Y0269*
X05442Y0269*
X05443Y0269*
X05443Y02691*
X05444Y02691*
X05444Y02691*
X05445Y02691*
X05445Y02692*
X05446Y02692*
X05446Y02692*
X05447Y02693*
X05447Y02693*
X05447Y02694*
X05448Y02694*
X05448Y02694*
X05448Y02695*
X05448Y02696*
X05449Y02696*
X05449Y02697*
X05449Y02697*
X05449Y02698*
X05449Y02698*
Y0262D02*
D01*
X05449Y0262*
X05449Y02621*
X05449Y02621*
X05449Y02622*
X05448Y02622*
X05448Y02623*
X05448Y02623*
X05448Y02624*
X05447Y02624*
X05447Y02625*
X05447Y02625*
X05446Y02625*
X05446Y02626*
X05445Y02626*
X05445Y02626*
X05444Y02627*
X05444Y02627*
X05443Y02627*
X05443Y02627*
X05442Y02627*
X05442Y02627*
X05441Y02627*
X05441*
X0544Y02627*
X05439Y02627*
X05439Y02627*
X05438Y02627*
X05438Y02627*
X05437Y02627*
X05437Y02626*
X05436Y02626*
X05436Y02626*
X05435Y02625*
X05435Y02625*
X05435Y02625*
X05434Y02624*
X05434Y02624*
X05434Y02623*
X05434Y02623*
X05433Y02622*
X05433Y02622*
X05433Y02621*
X05433Y02621*
X05433Y0262*
X05433Y0262*
X05433Y02619*
X05433Y02618*
X05433Y02618*
X05433Y02617*
X05433Y02617*
X05434Y02616*
X05434Y02616*
X05434Y02615*
X05434Y02615*
X05435Y02614*
X05435Y02614*
X05435Y02614*
X05436Y02613*
X05436Y02613*
X05437Y02613*
X05437Y02612*
X05438Y02612*
X05438Y02612*
X05439Y02612*
X05439Y02612*
X0544Y02612*
X05441Y02612*
X05441*
X05442Y02612*
X05442Y02612*
X05443Y02612*
X05443Y02612*
X05444Y02612*
X05444Y02612*
X05445Y02613*
X05445Y02613*
X05446Y02613*
X05446Y02614*
X05447Y02614*
X05447Y02614*
X05447Y02615*
X05448Y02615*
X05448Y02616*
X05448Y02616*
X05448Y02617*
X05449Y02617*
X05449Y02618*
X05449Y02618*
X05449Y02619*
X05449Y0262*
Y02541D02*
D01*
X05449Y02541*
X05449Y02542*
X05449Y02542*
X05449Y02543*
X05448Y02543*
X05448Y02544*
X05448Y02545*
X05448Y02545*
X05447Y02545*
X05447Y02546*
X05447Y02546*
X05446Y02547*
X05446Y02547*
X05445Y02547*
X05445Y02548*
X05444Y02548*
X05444Y02548*
X05443Y02548*
X05443Y02549*
X05442Y02549*
X05442Y02549*
X05441Y02549*
X05441*
X0544Y02549*
X05439Y02549*
X05439Y02549*
X05438Y02548*
X05438Y02548*
X05437Y02548*
X05437Y02548*
X05436Y02547*
X05436Y02547*
X05435Y02547*
X05435Y02546*
X05435Y02546*
X05434Y02545*
X05434Y02545*
X05434Y02545*
X05434Y02544*
X05433Y02543*
X05433Y02543*
X05433Y02542*
X05433Y02542*
X05433Y02541*
X05433Y02541*
X05433Y0254*
X05433Y0254*
X05433Y02539*
X05433Y02539*
X05433Y02538*
X05434Y02538*
X05434Y02537*
X05434Y02537*
X05434Y02536*
X05435Y02536*
X05435Y02535*
X05435Y02535*
X05436Y02534*
X05436Y02534*
X05437Y02534*
X05437Y02534*
X05438Y02533*
X05438Y02533*
X05439Y02533*
X05439Y02533*
X0544Y02533*
X05441Y02533*
X05441*
X05442Y02533*
X05442Y02533*
X05443Y02533*
X05443Y02533*
X05444Y02533*
X05444Y02534*
X05445Y02534*
X05445Y02534*
X05446Y02534*
X05446Y02535*
X05447Y02535*
X05447Y02536*
X05447Y02536*
X05448Y02537*
X05448Y02537*
X05448Y02538*
X05448Y02538*
X05449Y02539*
X05449Y02539*
X05449Y0254*
X05449Y0254*
X05449Y02541*
G54D91*
X01476Y03443D02*
D01*
X01476Y03443*
X01476Y03444*
X01476Y03444*
X01476Y03444*
X01476Y03445*
X01476Y03445*
X01476Y03445*
X01475Y03445*
X01475Y03446*
X01475Y03446*
X01475Y03446*
X01475Y03446*
X01474Y03446*
X01474Y03446*
X01474Y03447*
X01474Y03447*
X01474Y03447*
X01473Y03447*
X01473Y03447*
X01473Y03447*
X01472Y03447*
X01472Y03447*
X01472*
X01472Y03447*
X01471Y03447*
X01471Y03447*
X01471Y03447*
X01471Y03447*
X0147Y03447*
X0147Y03447*
X0147Y03446*
X0147Y03446*
X01469Y03446*
X01469Y03446*
X01469Y03446*
X01469Y03446*
X01469Y03445*
X01468Y03445*
X01468Y03445*
X01468Y03445*
X01468Y03444*
X01468Y03444*
X01468Y03444*
X01468Y03443*
X01468Y03443*
X01468Y03443*
X01468Y03443*
X01468Y03442*
X01468Y03442*
X01468Y03442*
X01468Y03442*
X01468Y03441*
X01469Y03441*
X01469Y03441*
X01469Y03441*
X01469Y0344*
X01469Y0344*
X0147Y0344*
X0147Y0344*
X0147Y0344*
X0147Y0344*
X01471Y03439*
X01471Y03439*
X01471Y03439*
X01471Y03439*
X01472Y03439*
X01472Y03439*
X01472*
X01472Y03439*
X01473Y03439*
X01473Y03439*
X01473Y03439*
X01474Y03439*
X01474Y0344*
X01474Y0344*
X01474Y0344*
X01474Y0344*
X01475Y0344*
X01475Y0344*
X01475Y03441*
X01475Y03441*
X01475Y03441*
X01476Y03441*
X01476Y03442*
X01476Y03442*
X01476Y03442*
X01476Y03442*
X01476Y03443*
X01476Y03443*
X01476Y03443*
X01555D02*
D01*
X01555Y03443*
X01555Y03444*
X01555Y03444*
X01555Y03444*
X01555Y03445*
X01554Y03445*
X01554Y03445*
X01554Y03445*
X01554Y03446*
X01554Y03446*
X01554Y03446*
X01553Y03446*
X01553Y03446*
X01553Y03446*
X01553Y03447*
X01553Y03447*
X01552Y03447*
X01552Y03447*
X01552Y03447*
X01551Y03447*
X01551Y03447*
X01551Y03447*
X01551*
X0155Y03447*
X0155Y03447*
X0155Y03447*
X0155Y03447*
X01549Y03447*
X01549Y03447*
X01549Y03447*
X01549Y03446*
X01548Y03446*
X01548Y03446*
X01548Y03446*
X01548Y03446*
X01548Y03446*
X01547Y03445*
X01547Y03445*
X01547Y03445*
X01547Y03445*
X01547Y03444*
X01547Y03444*
X01547Y03444*
X01547Y03443*
X01547Y03443*
X01547Y03443*
X01547Y03443*
X01547Y03442*
X01547Y03442*
X01547Y03442*
X01547Y03442*
X01547Y03441*
X01547Y03441*
X01548Y03441*
X01548Y03441*
X01548Y0344*
X01548Y0344*
X01548Y0344*
X01549Y0344*
X01549Y0344*
X01549Y0344*
X01549Y03439*
X0155Y03439*
X0155Y03439*
X0155Y03439*
X0155Y03439*
X01551Y03439*
X01551*
X01551Y03439*
X01551Y03439*
X01552Y03439*
X01552Y03439*
X01552Y03439*
X01553Y0344*
X01553Y0344*
X01553Y0344*
X01553Y0344*
X01553Y0344*
X01554Y0344*
X01554Y03441*
X01554Y03441*
X01554Y03441*
X01554Y03441*
X01554Y03442*
X01555Y03442*
X01555Y03442*
X01555Y03442*
X01555Y03443*
X01555Y03443*
X01555Y03443*
X01634D02*
D01*
X01633Y03443*
X01633Y03444*
X01633Y03444*
X01633Y03444*
X01633Y03445*
X01633Y03445*
X01633Y03445*
X01633Y03445*
X01633Y03446*
X01633Y03446*
X01632Y03446*
X01632Y03446*
X01632Y03446*
X01632Y03446*
X01632Y03447*
X01631Y03447*
X01631Y03447*
X01631Y03447*
X0163Y03447*
X0163Y03447*
X0163Y03447*
X0163Y03447*
X01629*
X01629Y03447*
X01629Y03447*
X01629Y03447*
X01628Y03447*
X01628Y03447*
X01628Y03447*
X01628Y03447*
X01627Y03446*
X01627Y03446*
X01627Y03446*
X01627Y03446*
X01626Y03446*
X01626Y03446*
X01626Y03445*
X01626Y03445*
X01626Y03445*
X01626Y03445*
X01626Y03444*
X01626Y03444*
X01626Y03444*
X01626Y03443*
X01626Y03443*
X01626Y03443*
X01626Y03443*
X01626Y03442*
X01626Y03442*
X01626Y03442*
X01626Y03442*
X01626Y03441*
X01626Y03441*
X01626Y03441*
X01626Y03441*
X01627Y0344*
X01627Y0344*
X01627Y0344*
X01627Y0344*
X01628Y0344*
X01628Y0344*
X01628Y03439*
X01628Y03439*
X01629Y03439*
X01629Y03439*
X01629Y03439*
X01629Y03439*
X0163*
X0163Y03439*
X0163Y03439*
X0163Y03439*
X01631Y03439*
X01631Y03439*
X01631Y0344*
X01632Y0344*
X01632Y0344*
X01632Y0344*
X01632Y0344*
X01632Y0344*
X01633Y03441*
X01633Y03441*
X01633Y03441*
X01633Y03441*
X01633Y03442*
X01633Y03442*
X01633Y03442*
X01633Y03442*
X01633Y03443*
X01633Y03443*
X01634Y03443*
X01712D02*
D01*
X01712Y03443*
X01712Y03444*
X01712Y03444*
X01712Y03444*
X01712Y03445*
X01712Y03445*
X01712Y03445*
X01712Y03445*
X01711Y03446*
X01711Y03446*
X01711Y03446*
X01711Y03446*
X01711Y03446*
X0171Y03446*
X0171Y03447*
X0171Y03447*
X0171Y03447*
X01709Y03447*
X01709Y03447*
X01709Y03447*
X01709Y03447*
X01708Y03447*
X01708*
X01708Y03447*
X01708Y03447*
X01707Y03447*
X01707Y03447*
X01707Y03447*
X01706Y03447*
X01706Y03447*
X01706Y03446*
X01706Y03446*
X01706Y03446*
X01705Y03446*
X01705Y03446*
X01705Y03446*
X01705Y03445*
X01705Y03445*
X01705Y03445*
X01704Y03445*
X01704Y03444*
X01704Y03444*
X01704Y03444*
X01704Y03443*
X01704Y03443*
X01704Y03443*
X01704Y03443*
X01704Y03442*
X01704Y03442*
X01704Y03442*
X01705Y03442*
X01705Y03441*
X01705Y03441*
X01705Y03441*
X01705Y03441*
X01705Y0344*
X01706Y0344*
X01706Y0344*
X01706Y0344*
X01706Y0344*
X01706Y0344*
X01707Y03439*
X01707Y03439*
X01707Y03439*
X01708Y03439*
X01708Y03439*
X01708Y03439*
X01708*
X01709Y03439*
X01709Y03439*
X01709Y03439*
X01709Y03439*
X0171Y03439*
X0171Y0344*
X0171Y0344*
X0171Y0344*
X01711Y0344*
X01711Y0344*
X01711Y0344*
X01711Y03441*
X01711Y03441*
X01712Y03441*
X01712Y03441*
X01712Y03442*
X01712Y03442*
X01712Y03442*
X01712Y03442*
X01712Y03443*
X01712Y03443*
X01712Y03443*
X05435Y01182D02*
D01*
X05435Y01182*
X05435Y01183*
X05435Y01183*
X05435Y01183*
X05435Y01183*
X05434Y01184*
X05434Y01184*
X05434Y01184*
X05434Y01184*
X05434Y01185*
X05434Y01185*
X05434Y01185*
X05433Y01185*
X05433Y01185*
X05433Y01185*
X05433Y01186*
X05432Y01186*
X05432Y01186*
X05432Y01186*
X05432Y01186*
X05431Y01186*
X05431Y01186*
X05431*
X0543Y01186*
X0543Y01186*
X0543Y01186*
X0543Y01186*
X05429Y01186*
X05429Y01186*
X05429Y01185*
X05429Y01185*
X05428Y01185*
X05428Y01185*
X05428Y01185*
X05428Y01185*
X05428Y01184*
X05427Y01184*
X05427Y01184*
X05427Y01184*
X05427Y01183*
X05427Y01183*
X05427Y01183*
X05427Y01183*
X05427Y01182*
X05427Y01182*
X05427Y01182*
X05427Y01181*
X05427Y01181*
X05427Y01181*
X05427Y01181*
X05427Y0118*
X05427Y0118*
X05427Y0118*
X05428Y0118*
X05428Y01179*
X05428Y01179*
X05428Y01179*
X05428Y01179*
X05429Y01179*
X05429Y01179*
X05429Y01178*
X05429Y01178*
X0543Y01178*
X0543Y01178*
X0543Y01178*
X0543Y01178*
X05431Y01178*
X05431*
X05431Y01178*
X05432Y01178*
X05432Y01178*
X05432Y01178*
X05432Y01178*
X05433Y01178*
X05433Y01179*
X05433Y01179*
X05433Y01179*
X05434Y01179*
X05434Y01179*
X05434Y01179*
X05434Y0118*
X05434Y0118*
X05434Y0118*
X05434Y0118*
X05435Y01181*
X05435Y01181*
X05435Y01181*
X05435Y01181*
X05435Y01182*
X05435Y01182*
Y01103D02*
D01*
X05435Y01104*
X05435Y01104*
X05435Y01104*
X05435Y01104*
X05435Y01105*
X05434Y01105*
X05434Y01105*
X05434Y01105*
X05434Y01106*
X05434Y01106*
X05434Y01106*
X05434Y01106*
X05433Y01106*
X05433Y01107*
X05433Y01107*
X05433Y01107*
X05432Y01107*
X05432Y01107*
X05432Y01107*
X05432Y01107*
X05431Y01107*
X05431Y01107*
X05431*
X0543Y01107*
X0543Y01107*
X0543Y01107*
X0543Y01107*
X05429Y01107*
X05429Y01107*
X05429Y01107*
X05429Y01107*
X05428Y01106*
X05428Y01106*
X05428Y01106*
X05428Y01106*
X05428Y01106*
X05427Y01105*
X05427Y01105*
X05427Y01105*
X05427Y01105*
X05427Y01104*
X05427Y01104*
X05427Y01104*
X05427Y01104*
X05427Y01103*
X05427Y01103*
X05427Y01103*
X05427Y01102*
X05427Y01102*
X05427Y01102*
X05427Y01102*
X05427Y01101*
X05427Y01101*
X05428Y01101*
X05428Y01101*
X05428Y011*
X05428Y011*
X05428Y011*
X05429Y011*
X05429Y011*
X05429Y011*
X05429Y011*
X0543Y01099*
X0543Y01099*
X0543Y01099*
X0543Y01099*
X05431Y01099*
X05431*
X05431Y01099*
X05432Y01099*
X05432Y01099*
X05432Y01099*
X05432Y011*
X05433Y011*
X05433Y011*
X05433Y011*
X05433Y011*
X05434Y011*
X05434Y011*
X05434Y01101*
X05434Y01101*
X05434Y01101*
X05434Y01101*
X05434Y01102*
X05435Y01102*
X05435Y01102*
X05435Y01102*
X05435Y01103*
X05435Y01103*
X05435Y01103*
Y01025D02*
D01*
X05435Y01025*
X05435Y01025*
X05435Y01025*
X05435Y01026*
X05435Y01026*
X05434Y01026*
X05434Y01026*
X05434Y01027*
X05434Y01027*
X05434Y01027*
X05434Y01027*
X05434Y01027*
X05433Y01028*
X05433Y01028*
X05433Y01028*
X05433Y01028*
X05432Y01028*
X05432Y01028*
X05432Y01028*
X05432Y01028*
X05431Y01028*
X05431Y01028*
X05431*
X0543Y01028*
X0543Y01028*
X0543Y01028*
X0543Y01028*
X05429Y01028*
X05429Y01028*
X05429Y01028*
X05429Y01028*
X05428Y01028*
X05428Y01027*
X05428Y01027*
X05428Y01027*
X05428Y01027*
X05427Y01027*
X05427Y01026*
X05427Y01026*
X05427Y01026*
X05427Y01026*
X05427Y01025*
X05427Y01025*
X05427Y01025*
X05427Y01025*
X05427Y01024*
X05427Y01024*
X05427Y01024*
X05427Y01023*
X05427Y01023*
X05427Y01023*
X05427Y01023*
X05427Y01022*
X05428Y01022*
X05428Y01022*
X05428Y01022*
X05428Y01022*
X05428Y01021*
X05429Y01021*
X05429Y01021*
X05429Y01021*
X05429Y01021*
X0543Y01021*
X0543Y01021*
X0543Y01021*
X0543Y01021*
X05431Y01021*
X05431*
X05431Y01021*
X05432Y01021*
X05432Y01021*
X05432Y01021*
X05432Y01021*
X05433Y01021*
X05433Y01021*
X05433Y01021*
X05433Y01021*
X05434Y01022*
X05434Y01022*
X05434Y01022*
X05434Y01022*
X05434Y01022*
X05434Y01023*
X05434Y01023*
X05435Y01023*
X05435Y01023*
X05435Y01024*
X05435Y01024*
X05435Y01024*
X05435Y01025*
Y00946D02*
D01*
X05435Y00946*
X05435Y00946*
X05435Y00947*
X05435Y00947*
X05435Y00947*
X05434Y00947*
X05434Y00948*
X05434Y00948*
X05434Y00948*
X05434Y00948*
X05434Y00949*
X05434Y00949*
X05433Y00949*
X05433Y00949*
X05433Y00949*
X05433Y00949*
X05432Y00949*
X05432Y0095*
X05432Y0095*
X05432Y0095*
X05431Y0095*
X05431Y0095*
X05431*
X0543Y0095*
X0543Y0095*
X0543Y0095*
X0543Y0095*
X05429Y00949*
X05429Y00949*
X05429Y00949*
X05429Y00949*
X05428Y00949*
X05428Y00949*
X05428Y00949*
X05428Y00948*
X05428Y00948*
X05427Y00948*
X05427Y00948*
X05427Y00947*
X05427Y00947*
X05427Y00947*
X05427Y00947*
X05427Y00946*
X05427Y00946*
X05427Y00946*
X05427Y00945*
X05427Y00945*
X05427Y00945*
X05427Y00945*
X05427Y00944*
X05427Y00944*
X05427Y00944*
X05427Y00944*
X05428Y00943*
X05428Y00943*
X05428Y00943*
X05428Y00943*
X05428Y00943*
X05429Y00942*
X05429Y00942*
X05429Y00942*
X05429Y00942*
X0543Y00942*
X0543Y00942*
X0543Y00942*
X0543Y00942*
X05431Y00942*
X05431*
X05431Y00942*
X05432Y00942*
X05432Y00942*
X05432Y00942*
X05432Y00942*
X05433Y00942*
X05433Y00942*
X05433Y00942*
X05433Y00943*
X05434Y00943*
X05434Y00943*
X05434Y00943*
X05434Y00943*
X05434Y00944*
X05434Y00944*
X05434Y00944*
X05435Y00944*
X05435Y00945*
X05435Y00945*
X05435Y00945*
X05435Y00945*
X05435Y00946*
X05445Y02777D02*
D01*
X05445Y02777*
X05445Y02778*
X05445Y02778*
X05445Y02778*
X05445Y02778*
X05444Y02779*
X05444Y02779*
X05444Y02779*
X05444Y02779*
X05444Y0278*
X05444Y0278*
X05444Y0278*
X05443Y0278*
X05443Y0278*
X05443Y0278*
X05443Y02781*
X05442Y02781*
X05442Y02781*
X05442Y02781*
X05442Y02781*
X05441Y02781*
X05441Y02781*
X05441*
X0544Y02781*
X0544Y02781*
X0544Y02781*
X0544Y02781*
X05439Y02781*
X05439Y02781*
X05439Y0278*
X05439Y0278*
X05438Y0278*
X05438Y0278*
X05438Y0278*
X05438Y0278*
X05438Y02779*
X05437Y02779*
X05437Y02779*
X05437Y02779*
X05437Y02778*
X05437Y02778*
X05437Y02778*
X05437Y02778*
X05437Y02777*
X05437Y02777*
X05437Y02777*
X05437Y02776*
X05437Y02776*
X05437Y02776*
X05437Y02776*
X05437Y02775*
X05437Y02775*
X05437Y02775*
X05438Y02775*
X05438Y02774*
X05438Y02774*
X05438Y02774*
X05438Y02774*
X05439Y02774*
X05439Y02774*
X05439Y02773*
X05439Y02773*
X0544Y02773*
X0544Y02773*
X0544Y02773*
X0544Y02773*
X05441Y02773*
X05441*
X05441Y02773*
X05442Y02773*
X05442Y02773*
X05442Y02773*
X05442Y02773*
X05443Y02773*
X05443Y02774*
X05443Y02774*
X05443Y02774*
X05444Y02774*
X05444Y02774*
X05444Y02774*
X05444Y02775*
X05444Y02775*
X05444Y02775*
X05444Y02775*
X05445Y02776*
X05445Y02776*
X05445Y02776*
X05445Y02776*
X05445Y02777*
X05445Y02777*
Y02698D02*
D01*
X05445Y02699*
X05445Y02699*
X05445Y02699*
X05445Y02699*
X05445Y027*
X05444Y027*
X05444Y027*
X05444Y027*
X05444Y02701*
X05444Y02701*
X05444Y02701*
X05444Y02701*
X05443Y02701*
X05443Y02702*
X05443Y02702*
X05443Y02702*
X05442Y02702*
X05442Y02702*
X05442Y02702*
X05442Y02702*
X05441Y02702*
X05441Y02702*
X05441*
X0544Y02702*
X0544Y02702*
X0544Y02702*
X0544Y02702*
X05439Y02702*
X05439Y02702*
X05439Y02702*
X05439Y02702*
X05438Y02701*
X05438Y02701*
X05438Y02701*
X05438Y02701*
X05438Y02701*
X05437Y027*
X05437Y027*
X05437Y027*
X05437Y027*
X05437Y02699*
X05437Y02699*
X05437Y02699*
X05437Y02699*
X05437Y02698*
X05437Y02698*
X05437Y02698*
X05437Y02697*
X05437Y02697*
X05437Y02697*
X05437Y02697*
X05437Y02696*
X05437Y02696*
X05438Y02696*
X05438Y02696*
X05438Y02695*
X05438Y02695*
X05438Y02695*
X05439Y02695*
X05439Y02695*
X05439Y02695*
X05439Y02695*
X0544Y02694*
X0544Y02694*
X0544Y02694*
X0544Y02694*
X05441Y02694*
X05441*
X05441Y02694*
X05442Y02694*
X05442Y02694*
X05442Y02694*
X05442Y02695*
X05443Y02695*
X05443Y02695*
X05443Y02695*
X05443Y02695*
X05444Y02695*
X05444Y02695*
X05444Y02696*
X05444Y02696*
X05444Y02696*
X05444Y02696*
X05444Y02697*
X05445Y02697*
X05445Y02697*
X05445Y02697*
X05445Y02698*
X05445Y02698*
X05445Y02698*
Y0262D02*
D01*
X05445Y0262*
X05445Y0262*
X05445Y0262*
X05445Y02621*
X05445Y02621*
X05444Y02621*
X05444Y02621*
X05444Y02622*
X05444Y02622*
X05444Y02622*
X05444Y02622*
X05444Y02622*
X05443Y02623*
X05443Y02623*
X05443Y02623*
X05443Y02623*
X05442Y02623*
X05442Y02623*
X05442Y02623*
X05442Y02623*
X05441Y02623*
X05441Y02623*
X05441*
X0544Y02623*
X0544Y02623*
X0544Y02623*
X0544Y02623*
X05439Y02623*
X05439Y02623*
X05439Y02623*
X05439Y02623*
X05438Y02623*
X05438Y02622*
X05438Y02622*
X05438Y02622*
X05438Y02622*
X05437Y02622*
X05437Y02621*
X05437Y02621*
X05437Y02621*
X05437Y02621*
X05437Y0262*
X05437Y0262*
X05437Y0262*
X05437Y0262*
X05437Y02619*
X05437Y02619*
X05437Y02619*
X05437Y02618*
X05437Y02618*
X05437Y02618*
X05437Y02618*
X05437Y02617*
X05438Y02617*
X05438Y02617*
X05438Y02617*
X05438Y02617*
X05438Y02616*
X05439Y02616*
X05439Y02616*
X05439Y02616*
X05439Y02616*
X0544Y02616*
X0544Y02616*
X0544Y02616*
X0544Y02616*
X05441Y02616*
X05441*
X05441Y02616*
X05442Y02616*
X05442Y02616*
X05442Y02616*
X05442Y02616*
X05443Y02616*
X05443Y02616*
X05443Y02616*
X05443Y02616*
X05444Y02617*
X05444Y02617*
X05444Y02617*
X05444Y02617*
X05444Y02617*
X05444Y02618*
X05444Y02618*
X05445Y02618*
X05445Y02618*
X05445Y02619*
X05445Y02619*
X05445Y02619*
X05445Y0262*
Y02541D02*
D01*
X05445Y02541*
X05445Y02541*
X05445Y02542*
X05445Y02542*
X05445Y02542*
X05444Y02542*
X05444Y02543*
X05444Y02543*
X05444Y02543*
X05444Y02543*
X05444Y02544*
X05444Y02544*
X05443Y02544*
X05443Y02544*
X05443Y02544*
X05443Y02544*
X05442Y02544*
X05442Y02545*
X05442Y02545*
X05442Y02545*
X05441Y02545*
X05441Y02545*
X05441*
X0544Y02545*
X0544Y02545*
X0544Y02545*
X0544Y02545*
X05439Y02544*
X05439Y02544*
X05439Y02544*
X05439Y02544*
X05438Y02544*
X05438Y02544*
X05438Y02544*
X05438Y02543*
X05438Y02543*
X05437Y02543*
X05437Y02543*
X05437Y02542*
X05437Y02542*
X05437Y02542*
X05437Y02542*
X05437Y02541*
X05437Y02541*
X05437Y02541*
X05437Y0254*
X05437Y0254*
X05437Y0254*
X05437Y0254*
X05437Y02539*
X05437Y02539*
X05437Y02539*
X05437Y02539*
X05438Y02538*
X05438Y02538*
X05438Y02538*
X05438Y02538*
X05438Y02538*
X05439Y02537*
X05439Y02537*
X05439Y02537*
X05439Y02537*
X0544Y02537*
X0544Y02537*
X0544Y02537*
X0544Y02537*
X05441Y02537*
X05441*
X05441Y02537*
X05442Y02537*
X05442Y02537*
X05442Y02537*
X05442Y02537*
X05443Y02537*
X05443Y02537*
X05443Y02537*
X05443Y02538*
X05444Y02538*
X05444Y02538*
X05444Y02538*
X05444Y02538*
X05444Y02539*
X05444Y02539*
X05444Y02539*
X05445Y02539*
X05445Y0254*
X05445Y0254*
X05445Y0254*
X05445Y0254*
X05445Y02541*
M02*