%FSTAX23Y23*%
%MOIN*%
%SFA1B1*%

%IPPOS*%
%ADD11C,0.007874*%
%ADD12C,0.005000*%
%ADD13C,0.010000*%
%ADD16C,0.003937*%
%ADD17C,0.011024*%
%ADD18C,0.001969*%
%ADD20R,0.059055X0.059055*%
%ADD24R,0.059055X0.059055*%
%ADD63C,0.077953*%
%ADD64C,0.076181*%
%ADD65R,0.077953X0.077953*%
%ADD66C,0.058976*%
%ADD67R,0.058976X0.058976*%
%ADD68C,0.314960*%
%ADD69C,0.055118*%
%ADD70C,0.059055*%
%ADD71R,0.060236X0.060236*%
%ADD72C,0.060236*%
%ADD73R,0.080315X0.080315*%
%ADD74C,0.080315*%
%ADD75R,0.064960X0.064960*%
%ADD76C,0.064960*%
%ADD77C,0.051496*%
%ADD78R,0.051496X0.051496*%
%ADD79R,0.064960X0.064960*%
%ADD80C,0.236220*%
%ADD81R,0.236220X0.236220*%
%ADD82R,0.055118X0.055118*%
%ADD83R,0.236220X0.236220*%
%ADD84R,0.061417X0.061417*%
%ADD85C,0.061417*%
%ADD86R,0.051496X0.051496*%
%ADD87C,0.050000*%
%ADD88C,0.078740*%
%LNpcb1-1*%
%LPD*%
G36*
X08715Y06279D02*
X08727D01*
X08752Y06276*
X08776Y0627*
X08799Y0626*
X0882Y06248*
X0884Y06233*
X08858Y06215*
X08873Y06195*
X08885Y06174*
X08895Y06151*
X08901Y06127*
X08904Y06102*
Y0609*
Y035*
X0886*
X0886Y03505*
X08868Y03507*
X08876Y03511*
X08883Y03518*
X08887Y03526*
X08889Y03535*
X0882*
X08822Y03526*
X08826Y03518*
X08833Y03511*
X08841Y03507*
X08849Y03505*
X08849Y035*
X0857*
X0857Y03505*
X08578Y03507*
X08586Y03511*
X08593Y03518*
X08597Y03526*
X08599Y03535*
X0853*
X08532Y03526*
X08536Y03518*
X08543Y03511*
X08551Y03507*
X08559Y03505*
X08559Y035*
X0831*
X0831Y03505*
X08318Y03507*
X08326Y03511*
X08333Y03518*
X08337Y03526*
X08339Y03535*
X0827*
X08272Y03526*
X08276Y03518*
X08283Y03511*
X08291Y03507*
X08299Y03505*
X08299Y035*
X0805*
X0805Y03505*
X08058Y03507*
X08066Y03511*
X08073Y03518*
X08077Y03526*
X08079Y03535*
X0801*
X08012Y03526*
X08016Y03518*
X08023Y03511*
X08031Y03507*
X08039Y03505*
X08039Y035*
X07793*
X0779*
X0779Y03505*
X07792Y03505*
X07798Y03507*
X07806Y03511*
X07813Y03518*
X07817Y03526*
X07819Y03535*
X0775*
X07752Y03526*
X07756Y03518*
X07763Y03511*
X07771Y03507*
X0778Y03505*
X07782*
X07786Y03501*
X07786Y035*
X07786Y03499*
X07786Y03499*
X07786Y03499*
X07786*
X07786Y03499*
X07785Y03499*
X07784Y03499*
X07784Y03498*
X07783Y03498*
X07783Y03498*
X07782Y03497*
X07782Y03497*
X07782Y03497*
X07781Y03497*
X07781Y03496*
X07779Y03494*
X07779Y03494*
X07778Y03494*
X07777Y03494*
X07776Y03494*
X07775Y03495*
X07774*
X07773Y03495*
X06838*
X06836Y03499*
X07516Y0418*
X07519Y04185*
X07521Y0419*
Y04347*
X0768Y04507*
X08*
Y04485*
X08075*
Y04507*
X08087*
X08093Y04508*
X08098Y04511*
X08244Y04658*
X08254Y04655*
X08264*
X08275Y04658*
X08284Y04663*
X08291Y0467*
X08296Y04679*
X08299Y04689*
Y047*
X08296Y0471*
X08291Y04719*
X08284Y04726*
X08275Y04731*
X08264Y04734*
X08254*
X08244Y04731*
X08235Y04726*
X08228Y04719*
X08222Y0471*
X0822Y047*
Y04689*
X08222Y04679*
X0808Y04537*
X07674*
X07668Y04536*
X07663Y04533*
X07495Y04364*
X07491Y04359*
X0749Y04354*
Y04197*
X0704Y03746*
X07035Y03748*
Y03755*
X07032Y03765*
X07027Y03774*
X07019Y03781*
X0701Y03786*
X07Y03789*
X0699*
X0698Y03786*
X06971Y03781*
X06963Y03774*
X06958Y03765*
X06955Y03755*
Y03744*
X06958Y03734*
X06963Y03725*
X06971Y03718*
X0698Y03713*
X0699Y0371*
X06996*
X06998Y03705*
X06753Y0346*
X0457*
X04564Y03459*
X04559Y03455*
X04291Y03187*
X04287Y03182*
X04286Y03177*
Y02843*
X04286Y02842*
X04277Y02837*
X04269Y02829*
X04264Y0282*
X04261Y0281*
Y02799*
X04264Y02789*
X04269Y0278*
X04277Y02772*
X04286Y02767*
X04296Y02764*
X04307*
X04317Y02767*
X04327Y02772*
X04334Y0278*
X04339Y02789*
X04342Y02799*
Y0281*
X04339Y0282*
X04334Y02829*
X04327Y02837*
X04317Y02842*
X04317Y02843*
Y0317*
X04576Y03429*
X05709*
Y02663*
X05709Y02662*
X05708Y02661*
X05708Y02661*
X05708Y0266*
X05708Y0266*
X05708Y02659*
X05708Y02659*
Y02659*
X05708Y02659*
X05708Y02659*
X05708Y02658*
X05708Y02658*
X05707Y02658*
X05707Y02657*
Y02657*
X05707Y02655*
X05707Y02654*
X05707Y02654*
X05707Y02653*
X05707Y02652*
X05707Y02652*
X05707Y02652*
X05708Y02651*
X05708Y02651*
X05708Y02651*
X05708Y0265*
X05708Y0265*
X05708Y02649*
X05708Y02649*
X05709Y02648*
X05709Y02648*
X05709Y02648*
X05709Y02647*
X0571Y02647*
X0571Y02646*
X0571Y02646*
X05711Y02646*
X05711Y02646*
X05711Y02645*
X05713Y02643*
X05713Y02643*
X05714Y02642*
X05714Y02642*
X05714Y02642*
X05714Y02642*
X05714Y02642*
X05715Y02642*
X05716Y02641*
X05717Y02641*
X05717Y0264*
X05717Y0264*
X05718Y0264*
X05718Y0264*
X05719Y0264*
X05719Y0264*
X0572Y0264*
X05721*
X05721Y02639*
X05721*
X05722Y02639*
X06159*
Y0186*
X06155Y01855*
X05724*
X05724Y01855*
X05724Y01855*
X05722Y01854*
X0572Y01854*
X0572Y01854*
X0572Y01854*
X05715Y01852*
X05715Y01851*
X05714Y01851*
X05713Y0185*
X05712Y0185*
X05712Y0185*
X05712Y0185*
X05712Y01849*
X05711Y01848*
X05711Y01847*
X0571Y01846*
X0571Y01846*
X0571Y01846*
X0571Y01845*
X0571Y01845*
Y01845*
X0571Y01844*
X05709Y01842*
Y01169*
X05709Y01169*
X05709Y01169*
X0571Y01167*
X0571Y01165*
X0571Y01165*
X0571Y01165*
X05712Y0116*
X05713Y0116*
X05713Y01159*
X05714Y01158*
X05714Y01157*
X05714Y01157*
X05714Y01157*
X05715Y01157*
X05716Y01156*
X05717Y01156*
X05718Y01155*
X05718Y01155*
X05718Y01155*
X05719Y01155*
X05719Y01155*
X05719*
X0572Y01155*
X05722Y01154*
X06099*
Y00214*
X0609Y00205*
X05175*
Y00463*
X05175Y00464*
Y00464*
Y00464*
X05175Y00465*
Y00465*
X05174Y00466*
X05174Y00466*
X05174Y00467*
X05174Y00467*
X05174Y00468*
X05174Y00468*
X05174Y00469*
Y00469*
X05173Y00471*
X05173Y00471*
X05173Y00471*
X05173Y00472*
X05173Y00472*
Y00472*
X05173Y00472*
Y00472*
X05173Y00472*
X05172Y00473*
X05172Y00474*
X05172Y00474*
X05172Y00474*
X05172Y00474*
X05172Y00474*
X05172Y00474*
X05172Y00474*
X05171Y00475*
X05171Y00475*
X05171Y00475*
X05171Y00475*
X0517Y00476*
X0517Y00476*
X0517Y00476*
X0517Y00476*
X05169Y00477*
X05169Y00477*
X05169Y00477*
X05169Y00477*
X05169Y00477*
X05168Y00478*
X05168Y00478*
X05168Y00478*
X05167Y00478*
X05166Y00479*
X05166Y00479*
X05166Y00479*
X05166Y00479*
X05166Y00479*
X05165Y00479*
X05164Y0048*
X05163*
X05163Y0048*
X05162Y0048*
X05162Y0048*
X05162Y0048*
X05161*
X05161*
X04864*
X04864Y0048*
X04864Y0048*
X04862Y00479*
X0486Y00479*
X0486Y00479*
X0486Y00479*
X04855Y00477*
X04855Y00476*
X04854Y00476*
X04853Y00475*
X04852Y00475*
X04852Y00475*
X04852Y00475*
X04852Y00474*
X04851Y00473*
X04851Y00472*
X0485Y00471*
X0485Y00471*
X0485Y00471*
X0485Y0047*
X0485Y0047*
Y0047*
X0485Y00469*
X04849Y00467*
Y00331*
X04844Y0033*
X04843Y0034*
X04836Y00359*
X04827Y00377*
X04815Y00394*
X04801Y00408*
X04785Y0042*
X04767Y00429*
X04748Y00435*
X04728Y00438*
X04723*
Y0031*
Y00182*
X04728*
X04748Y00185*
X04767Y00192*
X04785Y00201*
X04801Y00213*
X04815Y00227*
X04827Y00243*
X04836Y00261*
X04843Y0028*
X04844Y0029*
X04849Y0029*
Y0001*
X04844*
X00196Y0001*
X00184*
X0016Y00013*
X00136Y00019*
X00114Y00029*
X00092Y00041*
X00073Y00056*
X00056Y00073*
X00041Y00092*
X00029Y00114*
X00019Y00136*
X00013Y0016*
X0001Y00184*
Y00196*
Y06095*
Y06107*
X00013Y06131*
X00019Y06154*
X00028Y06176*
X00041Y06197*
X00055Y06217*
X00072Y06234*
X00092Y06248*
X00113Y06261*
X00135Y0627*
X00158Y06276*
X00182Y06279*
X00195*
X08715*
G37*
G36*
X07774Y03484D02*
Y03484D01*
X07775Y03483*
Y02525*
Y02515*
X08703*
X08704Y02514*
X08705Y02513*
Y0237*
X08703Y02369*
X08701Y02369*
X08697Y0237*
X08693Y02376*
X08686Y02383*
X08676Y02389*
X08665Y02392*
X08665*
Y0235*
Y02307*
X08665*
X08676Y0231*
X08686Y02316*
X08693Y02323*
X08697Y02329*
X08701Y0233*
X08703Y0233*
X08705Y02329*
Y02271*
X08704Y0227*
X08703Y0227*
X0827*
Y01825*
X08268Y01825*
X06685*
X06685Y01826*
Y03429*
X0676*
X06765Y0343*
X0677Y03434*
X06821Y03485*
X07773*
X07774Y03484*
G37*
G36*
X08904Y01825D02*
X08281D01*
X0828Y01825*
Y02259*
X08705*
X08708Y0226*
X08712Y02262*
X08714Y02266*
X08715Y0227*
Y02334*
X08714Y02335*
X08714Y02337*
X08714Y02337*
X08714Y02338*
X08713Y02339*
X08713Y0234*
X08712Y02341*
X08712Y02341*
X08711Y02342*
X0871Y02343*
X08709Y02343*
X08708Y02343*
X08707Y02344*
X08706Y02344*
X08705Y02344*
Y02355*
X08706Y02355*
X08707Y02355*
X08708Y02356*
X08709Y02356*
X0871Y02356*
X08711Y02357*
X08712Y02358*
X08712Y02358*
X08713Y02359*
X08713Y0236*
X08714Y02361*
X08714Y02362*
X08714Y02362*
X08714Y02364*
X08715Y02365*
Y02515*
X08714Y02518*
X08712Y02522*
X08708Y02524*
X08705Y02525*
X07785*
Y03485*
X07784Y03486*
X07785Y03486*
X07785Y03486*
X07788Y03489*
X07788Y03489*
X07789Y03489*
X07789Y03489*
X07789Y0349*
X08904*
Y01825*
G37*
G36*
X07644Y0109D02*
X07645Y01086D01*
X07647Y01082*
X07651Y0108*
X07655Y01079*
X08699*
Y01006*
X08694Y01004*
X08693Y01006*
X08686Y01013*
X08676Y01019*
X08665Y01022*
X08665*
Y0098*
Y00937*
X08665*
X08676Y0094*
X08686Y00946*
X08693Y00953*
X08694Y00955*
X08699Y00953*
Y0084*
X08285*
X08281Y00839*
X08277Y00837*
X08275Y00833*
X08274Y0083*
Y00265*
X0669*
X06689Y00264*
X06685Y00266*
Y01814*
X07644*
Y0109*
G37*
G36*
X08276Y01815D02*
X0828Y01814D01*
X08904*
Y00265*
X08871*
X08868Y00271*
X08857Y0029*
X08844Y00307*
X08828Y00323*
X08811Y00336*
X08792Y00347*
X08772Y00355*
X0875Y00361*
X08729Y00364*
X08707*
X08685Y00361*
X08664Y00355*
X08643Y00347*
X08624Y00336*
X08607Y00323*
X08591Y00307*
X08578Y0029*
X08567Y00271*
X08565Y00265*
X08286*
X08285Y00265*
X08285Y00265*
X08285Y00265*
X08285Y00265*
Y00828*
X08285Y00829*
X08286Y0083*
X0871*
Y0109*
X07656*
X07655Y0109*
X07655Y01091*
Y01814*
X0827*
X08273Y01815*
X08275Y01816*
X08276Y01815*
G37*
G36*
X06674Y01826D02*
X06675Y01825D01*
Y01824*
X06675Y01823*
X06675Y01822*
X06675Y01821*
X06676Y0182*
X06676Y0182*
X06675Y01818*
X06674Y01814*
Y00266*
X06675Y00262*
X06677Y00259*
X06681Y00257*
X06685Y00255*
X06689Y00254*
X06691Y00254*
X08274*
X08278Y00255*
X0828Y00256*
X0828Y00256*
X08281Y00255*
X08281Y00255*
X08282Y00255*
X08283Y00255*
X08283*
X08283*
X08283Y00255*
X08284*
X08285Y00255*
X08286Y00254*
X08556*
X08558Y00249*
X08553Y00229*
X0855Y00207*
Y00185*
X08553Y00164*
X08559Y00142*
X08567Y00122*
X08578Y00103*
X08591Y00086*
X08607Y0007*
X08624Y00057*
X08643Y00046*
X08664Y00037*
X08685Y00032*
X08707Y00029*
X08729*
X0875Y00032*
X08772Y00037*
X08792Y00046*
X08811Y00057*
X08828Y0007*
X08844Y00086*
X08857Y00103*
X08868Y00122*
X08877Y00142*
X08882Y00164*
X08885Y00185*
Y00207*
X08882Y00229*
X08877Y00249*
X08879Y00254*
X08904*
Y002*
Y00187*
X08901Y00162*
X08895Y00138*
X08885Y00115*
X08873Y00094*
X08858Y00074*
X0884Y00056*
X0882Y00041*
X08799Y00029*
X08776Y00019*
X08752Y00013*
X08727Y0001*
X08715*
X0486*
Y00467*
X04864Y0047*
X05161*
X05161*
X05162*
X05162Y00469*
X05162Y00469*
X05163Y00469*
X05163Y00468*
X05163Y00468*
X05163Y00468*
X05163Y00468*
X05163Y00468*
X05164Y00466*
X05164Y00465*
X05164Y00465*
X05164Y00464*
Y00464*
X05165Y00463*
Y00205*
Y00195*
X06095*
X0611Y0021*
Y01165*
X05722*
X0572Y01169*
Y01842*
X05724Y01845*
X06185*
X0617Y0186*
Y0265*
X05722*
X05721Y0265*
X05721*
X05721Y0265*
X05721Y0265*
X0572Y0265*
X0572Y02651*
X0572*
X05718Y02653*
X05718Y02653*
X05718Y02653*
X05717Y02653*
X05717Y02654*
X05717Y02654*
X05718Y02656*
X05718Y02656*
X05718Y02657*
X05718Y02657*
X05718*
X05718Y02657*
X05718Y02658*
X0572Y0266*
Y03429*
X06674*
Y01826*
G37*
%LNpcb1-2*%
%LPC*%
G36*
X08232Y06132D02*
X08147D01*
Y06047*
X08232*
Y06132*
G37*
G36*
X07995D02*
X07984D01*
X07973Y06129*
X07963Y06123*
X07956Y06116*
X0795Y06106*
X07947Y06095*
Y06084*
X0795Y06073*
X07956Y06063*
X07963Y06056*
X07973Y0605*
X07984Y06047*
X07995*
X08006Y0605*
X08016Y06056*
X08023Y06063*
X08029Y06073*
X08032Y06084*
Y06095*
X08029Y06106*
X08023Y06116*
X08016Y06123*
X08006Y06129*
X07995Y06132*
G37*
G36*
X07422D02*
X07337D01*
Y06047*
X07422*
Y06132*
G37*
G36*
X07185D02*
X07174D01*
X07163Y06129*
X07153Y06123*
X07145Y06116*
X0714Y06106*
X07137Y06095*
Y06084*
X0714Y06073*
X07145Y06063*
X07153Y06056*
X07163Y0605*
X07174Y06047*
X07185*
X07196Y0605*
X07205Y06056*
X07213Y06063*
X07219Y06073*
X07222Y06084*
Y06095*
X07219Y06106*
X07213Y06116*
X07205Y06123*
X07196Y06129*
X07185Y06132*
G37*
G36*
X06611D02*
X06526D01*
Y06047*
X06611*
Y06132*
G37*
G36*
X06374D02*
X06363D01*
X06352Y06129*
X06343Y06123*
X06335Y06116*
X06329Y06106*
X06326Y06095*
Y06084*
X06329Y06073*
X06335Y06063*
X06343Y06056*
X06352Y0605*
X06363Y06047*
X06374*
X06385Y0605*
X06395Y06056*
X06403Y06063*
X06408Y06073*
X06411Y06084*
Y06095*
X06408Y06106*
X06403Y06116*
X06395Y06123*
X06385Y06129*
X06374Y06132*
G37*
G36*
X05801D02*
X05716D01*
Y06047*
X05801*
Y06132*
G37*
G36*
X05564D02*
X05553D01*
X05542Y06129*
X05532Y06123*
X05525Y06116*
X05519Y06106*
X05516Y06095*
Y06084*
X05519Y06073*
X05525Y06063*
X05532Y06056*
X05542Y0605*
X05553Y06047*
X05564*
X05575Y0605*
X05585Y06056*
X05593Y06063*
X05598Y06073*
X05601Y06084*
Y06095*
X05598Y06106*
X05593Y06116*
X05585Y06123*
X05575Y06129*
X05564Y06132*
G37*
G36*
X04991D02*
X04906D01*
Y06047*
X04991*
Y06132*
G37*
G36*
X04754D02*
X04743D01*
X04732Y06129*
X04722Y06123*
X04714Y06116*
X04709Y06106*
X04706Y06095*
Y06084*
X04709Y06073*
X04714Y06063*
X04722Y06056*
X04732Y0605*
X04743Y06047*
X04754*
X04765Y0605*
X04774Y06056*
X04782Y06063*
X04788Y06073*
X04791Y06084*
Y06095*
X04788Y06106*
X04782Y06116*
X04774Y06123*
X04765Y06129*
X04754Y06132*
G37*
G36*
X0418D02*
X04095D01*
Y06047*
X0418*
Y06132*
G37*
G36*
X03944D02*
X03932D01*
X03922Y06129*
X03912Y06123*
X03904Y06116*
X03898Y06106*
X03895Y06095*
Y06084*
X03898Y06073*
X03904Y06063*
X03912Y06056*
X03922Y0605*
X03932Y06047*
X03944*
X03954Y0605*
X03964Y06056*
X03972Y06063*
X03978Y06073*
X0398Y06084*
Y06095*
X03978Y06106*
X03972Y06116*
X03964Y06123*
X03954Y06129*
X03944Y06132*
G37*
G36*
X0337D02*
X03285D01*
Y06047*
X0337*
Y06132*
G37*
G36*
X03133D02*
X03122D01*
X03111Y06129*
X03102Y06123*
X03094Y06116*
X03088Y06106*
X03085Y06095*
Y06084*
X03088Y06073*
X03094Y06063*
X03102Y06056*
X03111Y0605*
X03122Y06047*
X03133*
X03144Y0605*
X03154Y06056*
X03162Y06063*
X03167Y06073*
X0317Y06084*
Y06095*
X03167Y06106*
X03162Y06116*
X03154Y06123*
X03144Y06129*
X03133Y06132*
G37*
G36*
X0256D02*
X02475D01*
Y06047*
X0256*
Y06132*
G37*
G36*
X02323D02*
X02312D01*
X02301Y06129*
X02291Y06123*
X02283Y06116*
X02278Y06106*
X02275Y06095*
Y06084*
X02278Y06073*
X02283Y06063*
X02291Y06056*
X02301Y0605*
X02312Y06047*
X02323*
X02334Y0605*
X02343Y06056*
X02351Y06063*
X02357Y06073*
X0236Y06084*
Y06095*
X02357Y06106*
X02351Y06116*
X02343Y06123*
X02334Y06129*
X02323Y06132*
G37*
G36*
X0175D02*
X01665D01*
Y06047*
X0175*
Y06132*
G37*
G36*
X01513D02*
X01501D01*
X01491Y06129*
X01481Y06123*
X01473Y06116*
X01467Y06106*
X01465Y06095*
Y06084*
X01467Y06073*
X01473Y06063*
X01481Y06056*
X01491Y0605*
X01501Y06047*
X01513*
X01523Y0605*
X01533Y06056*
X01541Y06063*
X01547Y06073*
X0155Y06084*
Y06095*
X01547Y06106*
X01541Y06116*
X01533Y06123*
X01523Y06129*
X01513Y06132*
G37*
G36*
X00939D02*
X00854D01*
Y06047*
X00939*
Y06132*
G37*
G36*
X00702D02*
X00691D01*
X0068Y06129*
X00671Y06123*
X00663Y06116*
X00657Y06106*
X00654Y06095*
Y06084*
X00657Y06073*
X00663Y06063*
X00671Y06056*
X0068Y0605*
X00691Y06047*
X00702*
X00713Y0605*
X00723Y06056*
X00731Y06063*
X00736Y06073*
X00739Y06084*
Y06095*
X00736Y06106*
X00731Y06116*
X00723Y06123*
X00713Y06129*
X00702Y06132*
G37*
G36*
X08729Y0626D02*
X08707D01*
X08685Y06257*
X08664Y06252*
X08643Y06243*
X08624Y06232*
X08607Y06219*
X08591Y06203*
X08578Y06186*
X08567Y06167*
X08559Y06147*
X08553Y06125*
X0855Y06104*
Y06082*
X08553Y0606*
X08559Y06039*
X08567Y06018*
X08578Y05999*
X08591Y05982*
X08607Y05966*
X08624Y05953*
X08643Y05942*
X08664Y05934*
X08685Y05928*
X08707Y05925*
X08729*
X0875Y05928*
X08772Y05934*
X08792Y05942*
X08811Y05953*
X08828Y05966*
X08844Y05982*
X08857Y05999*
X08868Y06018*
X08877Y06039*
X08882Y0606*
X08885Y06082*
Y06104*
X08882Y06125*
X08877Y06147*
X08868Y06167*
X08857Y06186*
X08844Y06203*
X08828Y06219*
X08811Y06232*
X08792Y06243*
X08772Y06252*
X0875Y06257*
X08729Y0626*
G37*
G36*
X00207D02*
X00185D01*
X00164Y06257*
X00142Y06252*
X00122Y06243*
X00103Y06232*
X00086Y06219*
X0007Y06203*
X00057Y06186*
X00046Y06167*
X00037Y06147*
X00032Y06125*
X00029Y06104*
Y06082*
X00032Y0606*
X00037Y06039*
X00046Y06018*
X00057Y05999*
X0007Y05982*
X00086Y05966*
X00103Y05953*
X00122Y05942*
X00142Y05934*
X00164Y05928*
X00185Y05925*
X00207*
X00229Y05928*
X0025Y05934*
X00271Y05942*
X0029Y05953*
X00307Y05966*
X00323Y05982*
X00336Y05999*
X00347Y06018*
X00355Y06039*
X00361Y0606*
X00364Y06082*
Y06104*
X00361Y06125*
X00355Y06147*
X00347Y06167*
X00336Y06186*
X00323Y06203*
X00307Y06219*
X0029Y06232*
X00271Y06243*
X0025Y06252*
X00229Y06257*
X00207Y0626*
G37*
G36*
X08287Y05774D02*
X08274D01*
X08262Y0577*
X08251Y05764*
X08242Y05755*
X08235Y05744*
X08232Y05731*
Y05718*
X08235Y05706*
X08242Y05695*
X08251Y05685*
X08262Y05679*
X08274Y05676*
X08287*
X083Y05679*
X08311Y05685*
X0832Y05695*
X08326Y05706*
X0833Y05718*
Y05731*
X08326Y05744*
X0832Y05755*
X08311Y05764*
X083Y0577*
X08287Y05774*
G37*
G36*
X07815D02*
X07802D01*
X07789Y0577*
X07778Y05764*
X07769Y05755*
X07763Y05744*
X07759Y05731*
Y05718*
X07763Y05706*
X07769Y05695*
X07778Y05685*
X07789Y05679*
X07802Y05676*
X07815*
X07827Y05679*
X07838Y05685*
X07847Y05695*
X07854Y05706*
X07857Y05718*
Y05731*
X07854Y05744*
X07847Y05755*
X07838Y05764*
X07827Y0577*
X07815Y05774*
G37*
G36*
X07487D02*
X07474D01*
X07462Y0577*
X07451Y05764*
X07442Y05755*
X07435Y05744*
X07432Y05731*
Y05718*
X07435Y05706*
X07442Y05695*
X07451Y05685*
X07462Y05679*
X07474Y05676*
X07487*
X075Y05679*
X07511Y05685*
X0752Y05695*
X07526Y05706*
X0753Y05718*
Y05731*
X07526Y05744*
X0752Y05755*
X07511Y05764*
X075Y0577*
X07487Y05774*
G37*
G36*
X07015D02*
X07002D01*
X06989Y0577*
X06978Y05764*
X06969Y05755*
X06963Y05744*
X06959Y05731*
Y05718*
X06963Y05706*
X06969Y05695*
X06978Y05685*
X06989Y05679*
X07002Y05676*
X07015*
X07027Y05679*
X07038Y05685*
X07047Y05695*
X07054Y05706*
X07057Y05718*
Y05731*
X07054Y05744*
X07047Y05755*
X07038Y05764*
X07027Y0577*
X07015Y05774*
G37*
G36*
X06687D02*
X06674D01*
X06662Y0577*
X06651Y05764*
X06642Y05755*
X06635Y05744*
X06632Y05731*
Y05718*
X06635Y05706*
X06642Y05695*
X06651Y05685*
X06662Y05679*
X06674Y05676*
X06687*
X067Y05679*
X06711Y05685*
X0672Y05695*
X06726Y05706*
X0673Y05718*
Y05731*
X06726Y05744*
X0672Y05755*
X06711Y05764*
X067Y0577*
X06687Y05774*
G37*
G36*
X06215D02*
X06202D01*
X06189Y0577*
X06178Y05764*
X06169Y05755*
X06163Y05744*
X06159Y05731*
Y05718*
X06163Y05706*
X06169Y05695*
X06178Y05685*
X06189Y05679*
X06202Y05676*
X06215*
X06227Y05679*
X06238Y05685*
X06247Y05695*
X06254Y05706*
X06257Y05718*
Y05731*
X06254Y05744*
X06247Y05755*
X06238Y05764*
X06227Y0577*
X06215Y05774*
G37*
G36*
X05887D02*
X05874D01*
X05862Y0577*
X05851Y05764*
X05842Y05755*
X05835Y05744*
X05832Y05731*
Y05718*
X05835Y05706*
X05842Y05695*
X05851Y05685*
X05862Y05679*
X05874Y05676*
X05887*
X059Y05679*
X05911Y05685*
X0592Y05695*
X05926Y05706*
X0593Y05718*
Y05731*
X05926Y05744*
X0592Y05755*
X05911Y05764*
X059Y0577*
X05887Y05774*
G37*
G36*
X05415D02*
X05402D01*
X05389Y0577*
X05378Y05764*
X05369Y05755*
X05363Y05744*
X05359Y05731*
Y05718*
X05363Y05706*
X05369Y05695*
X05378Y05685*
X05389Y05679*
X05402Y05676*
X05415*
X05427Y05679*
X05438Y05685*
X05447Y05695*
X05454Y05706*
X05457Y05718*
Y05731*
X05454Y05744*
X05447Y05755*
X05438Y05764*
X05427Y0577*
X05415Y05774*
G37*
G36*
X05087D02*
X05074D01*
X05062Y0577*
X05051Y05764*
X05042Y05755*
X05035Y05744*
X05032Y05731*
Y05718*
X05035Y05706*
X05042Y05695*
X05051Y05685*
X05062Y05679*
X05074Y05676*
X05087*
X051Y05679*
X05111Y05685*
X0512Y05695*
X05126Y05706*
X0513Y05718*
Y05731*
X05126Y05744*
X0512Y05755*
X05111Y05764*
X051Y0577*
X05087Y05774*
G37*
G36*
X04615D02*
X04602D01*
X04589Y0577*
X04578Y05764*
X04569Y05755*
X04563Y05744*
X04559Y05731*
Y05718*
X04563Y05706*
X04569Y05695*
X04578Y05685*
X04589Y05679*
X04602Y05676*
X04615*
X04627Y05679*
X04638Y05685*
X04647Y05695*
X04654Y05706*
X04657Y05718*
Y05731*
X04654Y05744*
X04647Y05755*
X04638Y05764*
X04627Y0577*
X04615Y05774*
G37*
G36*
X04287D02*
X04274D01*
X04262Y0577*
X04251Y05764*
X04242Y05755*
X04235Y05744*
X04232Y05731*
Y05718*
X04235Y05706*
X04242Y05695*
X04251Y05685*
X04262Y05679*
X04274Y05676*
X04287*
X043Y05679*
X04311Y05685*
X0432Y05695*
X04326Y05706*
X0433Y05718*
Y05731*
X04326Y05744*
X0432Y05755*
X04311Y05764*
X043Y0577*
X04287Y05774*
G37*
G36*
X03815D02*
X03802D01*
X03789Y0577*
X03778Y05764*
X03769Y05755*
X03763Y05744*
X03759Y05731*
Y05718*
X03763Y05706*
X03769Y05695*
X03778Y05685*
X03789Y05679*
X03802Y05676*
X03815*
X03827Y05679*
X03838Y05685*
X03847Y05695*
X03854Y05706*
X03857Y05718*
Y05731*
X03854Y05744*
X03847Y05755*
X03838Y05764*
X03827Y0577*
X03815Y05774*
G37*
G36*
X03487D02*
X03474D01*
X03462Y0577*
X03451Y05764*
X03442Y05755*
X03435Y05744*
X03432Y05731*
Y05718*
X03435Y05706*
X03442Y05695*
X03451Y05685*
X03462Y05679*
X03474Y05676*
X03487*
X035Y05679*
X03511Y05685*
X0352Y05695*
X03526Y05706*
X0353Y05718*
Y05731*
X03526Y05744*
X0352Y05755*
X03511Y05764*
X035Y0577*
X03487Y05774*
G37*
G36*
X03015D02*
X03002D01*
X02989Y0577*
X02978Y05764*
X02969Y05755*
X02963Y05744*
X02959Y05731*
Y05718*
X02963Y05706*
X02969Y05695*
X02978Y05685*
X02989Y05679*
X03002Y05676*
X03015*
X03027Y05679*
X03038Y05685*
X03047Y05695*
X03054Y05706*
X03057Y05718*
Y05731*
X03054Y05744*
X03047Y05755*
X03038Y05764*
X03027Y0577*
X03015Y05774*
G37*
G36*
X02687D02*
X02674D01*
X02662Y0577*
X02651Y05764*
X02642Y05755*
X02635Y05744*
X02632Y05731*
Y05718*
X02635Y05706*
X02642Y05695*
X02651Y05685*
X02662Y05679*
X02674Y05676*
X02687*
X027Y05679*
X02711Y05685*
X0272Y05695*
X02726Y05706*
X0273Y05718*
Y05731*
X02726Y05744*
X0272Y05755*
X02711Y05764*
X027Y0577*
X02687Y05774*
G37*
G36*
X02215D02*
X02202D01*
X02189Y0577*
X02178Y05764*
X02169Y05755*
X02163Y05744*
X02159Y05731*
Y05718*
X02163Y05706*
X02169Y05695*
X02178Y05685*
X02189Y05679*
X02202Y05676*
X02215*
X02227Y05679*
X02238Y05685*
X02247Y05695*
X02254Y05706*
X02257Y05718*
Y05731*
X02254Y05744*
X02247Y05755*
X02238Y05764*
X02227Y0577*
X02215Y05774*
G37*
G36*
X01887D02*
X01874D01*
X01862Y0577*
X01851Y05764*
X01842Y05755*
X01835Y05744*
X01832Y05731*
Y05718*
X01835Y05706*
X01842Y05695*
X01851Y05685*
X01862Y05679*
X01874Y05676*
X01887*
X019Y05679*
X01911Y05685*
X0192Y05695*
X01926Y05706*
X0193Y05718*
Y05731*
X01926Y05744*
X0192Y05755*
X01911Y05764*
X019Y0577*
X01887Y05774*
G37*
G36*
X01415D02*
X01402D01*
X01389Y0577*
X01378Y05764*
X01369Y05755*
X01363Y05744*
X01359Y05731*
Y05718*
X01363Y05706*
X01369Y05695*
X01378Y05685*
X01389Y05679*
X01402Y05676*
X01415*
X01427Y05679*
X01438Y05685*
X01447Y05695*
X01454Y05706*
X01457Y05718*
Y05731*
X01454Y05744*
X01447Y05755*
X01438Y05764*
X01427Y0577*
X01415Y05774*
G37*
G36*
X01087D02*
X01074D01*
X01062Y0577*
X01051Y05764*
X01042Y05755*
X01035Y05744*
X01032Y05731*
Y05718*
X01035Y05706*
X01042Y05695*
X01051Y05685*
X01062Y05679*
X01074Y05676*
X01087*
X011Y05679*
X01111Y05685*
X0112Y05695*
X01126Y05706*
X0113Y05718*
Y05731*
X01126Y05744*
X0112Y05755*
X01111Y05764*
X011Y0577*
X01087Y05774*
G37*
G36*
X00615D02*
X00602D01*
X00589Y0577*
X00578Y05764*
X00569Y05755*
X00563Y05744*
X00559Y05731*
Y05718*
X00563Y05706*
X00569Y05695*
X00578Y05685*
X00589Y05679*
X00602Y05676*
X00615*
X00627Y05679*
X00638Y05685*
X00647Y05695*
X00654Y05706*
X00657Y05718*
Y05731*
X00654Y05744*
X00647Y05755*
X00638Y05764*
X00627Y0577*
X00615Y05774*
G37*
G36*
X08287Y05293D02*
X08274D01*
X08262Y0529*
X08251Y05284*
X08242Y05274*
X08235Y05263*
X08232Y05251*
Y05238*
X08235Y05225*
X08242Y05214*
X08251Y05205*
X08262Y05199*
X08274Y05195*
X08287*
X083Y05199*
X08311Y05205*
X0832Y05214*
X08326Y05225*
X0833Y05238*
Y05251*
X08326Y05263*
X0832Y05274*
X08311Y05284*
X083Y0529*
X08287Y05293*
G37*
G36*
X07857D02*
X07759D01*
Y05195*
X07857*
Y05293*
G37*
G36*
X07487D02*
X07474D01*
X07462Y0529*
X07451Y05284*
X07442Y05274*
X07435Y05263*
X07432Y05251*
Y05238*
X07435Y05225*
X07442Y05214*
X07451Y05205*
X07462Y05199*
X07474Y05195*
X07487*
X075Y05199*
X07511Y05205*
X0752Y05214*
X07526Y05225*
X0753Y05238*
Y05251*
X07526Y05263*
X0752Y05274*
X07511Y05284*
X075Y0529*
X07487Y05293*
G37*
G36*
X07057D02*
X06959D01*
Y05195*
X07057*
Y05293*
G37*
G36*
X06687D02*
X06674D01*
X06662Y0529*
X06651Y05284*
X06642Y05274*
X06635Y05263*
X06632Y05251*
Y05238*
X06635Y05225*
X06642Y05214*
X06651Y05205*
X06662Y05199*
X06674Y05195*
X06687*
X067Y05199*
X06711Y05205*
X0672Y05214*
X06726Y05225*
X0673Y05238*
Y05251*
X06726Y05263*
X0672Y05274*
X06711Y05284*
X067Y0529*
X06687Y05293*
G37*
G36*
X06257D02*
X06159D01*
Y05195*
X06257*
Y05293*
G37*
G36*
X05887D02*
X05874D01*
X05862Y0529*
X05851Y05284*
X05842Y05274*
X05835Y05263*
X05832Y05251*
Y05238*
X05835Y05225*
X05842Y05214*
X05851Y05205*
X05862Y05199*
X05874Y05195*
X05887*
X059Y05199*
X05911Y05205*
X0592Y05214*
X05926Y05225*
X0593Y05238*
Y05251*
X05926Y05263*
X0592Y05274*
X05911Y05284*
X059Y0529*
X05887Y05293*
G37*
G36*
X05457D02*
X05359D01*
Y05195*
X05457*
Y05293*
G37*
G36*
X05087D02*
X05074D01*
X05062Y0529*
X05051Y05284*
X05042Y05274*
X05035Y05263*
X05032Y05251*
Y05238*
X05035Y05225*
X05042Y05214*
X05051Y05205*
X05062Y05199*
X05074Y05195*
X05087*
X051Y05199*
X05111Y05205*
X0512Y05214*
X05126Y05225*
X0513Y05238*
Y05251*
X05126Y05263*
X0512Y05274*
X05111Y05284*
X051Y0529*
X05087Y05293*
G37*
G36*
X04657D02*
X04559D01*
Y05195*
X04657*
Y05293*
G37*
G36*
X04287D02*
X04274D01*
X04262Y0529*
X04251Y05284*
X04242Y05274*
X04235Y05263*
X04232Y05251*
Y05238*
X04235Y05225*
X04242Y05214*
X04251Y05205*
X04262Y05199*
X04274Y05195*
X04287*
X043Y05199*
X04311Y05205*
X0432Y05214*
X04326Y05225*
X0433Y05238*
Y05251*
X04326Y05263*
X0432Y05274*
X04311Y05284*
X043Y0529*
X04287Y05293*
G37*
G36*
X03857D02*
X03759D01*
Y05195*
X03857*
Y05293*
G37*
G36*
X03487D02*
X03474D01*
X03462Y0529*
X03451Y05284*
X03442Y05274*
X03435Y05263*
X03432Y05251*
Y05238*
X03435Y05225*
X03442Y05214*
X03451Y05205*
X03462Y05199*
X03474Y05195*
X03487*
X035Y05199*
X03511Y05205*
X0352Y05214*
X03526Y05225*
X0353Y05238*
Y05251*
X03526Y05263*
X0352Y05274*
X03511Y05284*
X035Y0529*
X03487Y05293*
G37*
G36*
X03057D02*
X02959D01*
Y05195*
X03057*
Y05293*
G37*
G36*
X02687D02*
X02674D01*
X02662Y0529*
X02651Y05284*
X02642Y05274*
X02635Y05263*
X02632Y05251*
Y05238*
X02635Y05225*
X02642Y05214*
X02651Y05205*
X02662Y05199*
X02674Y05195*
X02687*
X027Y05199*
X02711Y05205*
X0272Y05214*
X02726Y05225*
X0273Y05238*
Y05251*
X02726Y05263*
X0272Y05274*
X02711Y05284*
X027Y0529*
X02687Y05293*
G37*
G36*
X02257D02*
X02159D01*
Y05195*
X02257*
Y05293*
G37*
G36*
X01887D02*
X01874D01*
X01862Y0529*
X01851Y05284*
X01842Y05274*
X01835Y05263*
X01832Y05251*
Y05238*
X01835Y05225*
X01842Y05214*
X01851Y05205*
X01862Y05199*
X01874Y05195*
X01887*
X019Y05199*
X01911Y05205*
X0192Y05214*
X01926Y05225*
X0193Y05238*
Y05251*
X01926Y05263*
X0192Y05274*
X01911Y05284*
X019Y0529*
X01887Y05293*
G37*
G36*
X01457D02*
X01359D01*
Y05195*
X01457*
Y05293*
G37*
G36*
X01087D02*
X01074D01*
X01062Y0529*
X01051Y05284*
X01042Y05274*
X01035Y05263*
X01032Y05251*
Y05238*
X01035Y05225*
X01042Y05214*
X01051Y05205*
X01062Y05199*
X01074Y05195*
X01087*
X011Y05199*
X01111Y05205*
X0112Y05214*
X01126Y05225*
X0113Y05238*
Y05251*
X01126Y05263*
X0112Y05274*
X01111Y05284*
X011Y0529*
X01087Y05293*
G37*
G36*
X00657D02*
X00559D01*
Y05195*
X00657*
Y05293*
G37*
G36*
X08051Y05214D02*
X08038D01*
X08026Y0521*
X08015Y05204*
X08006Y05195*
X08Y05184*
X07996Y05172*
Y05159*
X08Y05147*
X08006Y05136*
X08015Y05127*
X08026Y05121*
X08038Y05118*
X08051*
X08063Y05121*
X08074Y05127*
X08083Y05136*
X08089Y05147*
X08093Y05159*
Y05172*
X08089Y05184*
X08083Y05195*
X08074Y05204*
X08063Y0521*
X08051Y05214*
G37*
G36*
X07251D02*
X07238D01*
X07226Y0521*
X07215Y05204*
X07206Y05195*
X072Y05184*
X07196Y05172*
Y05159*
X072Y05147*
X07206Y05136*
X07215Y05127*
X07226Y05121*
X07238Y05118*
X07251*
X07263Y05121*
X07274Y05127*
X07283Y05136*
X07289Y05147*
X07293Y05159*
Y05172*
X07289Y05184*
X07283Y05195*
X07274Y05204*
X07263Y0521*
X07251Y05214*
G37*
G36*
X06451D02*
X06438D01*
X06426Y0521*
X06415Y05204*
X06406Y05195*
X064Y05184*
X06396Y05172*
Y05159*
X064Y05147*
X06406Y05136*
X06415Y05127*
X06426Y05121*
X06438Y05118*
X06451*
X06463Y05121*
X06474Y05127*
X06483Y05136*
X06489Y05147*
X06493Y05159*
Y05172*
X06489Y05184*
X06483Y05195*
X06474Y05204*
X06463Y0521*
X06451Y05214*
G37*
G36*
X05651D02*
X05638D01*
X05626Y0521*
X05615Y05204*
X05606Y05195*
X056Y05184*
X05596Y05172*
Y05159*
X056Y05147*
X05606Y05136*
X05615Y05127*
X05626Y05121*
X05638Y05118*
X05651*
X05663Y05121*
X05674Y05127*
X05683Y05136*
X05689Y05147*
X05693Y05159*
Y05172*
X05689Y05184*
X05683Y05195*
X05674Y05204*
X05663Y0521*
X05651Y05214*
G37*
G36*
X04851D02*
X04838D01*
X04826Y0521*
X04815Y05204*
X04806Y05195*
X048Y05184*
X04796Y05172*
Y05159*
X048Y05147*
X04806Y05136*
X04815Y05127*
X04826Y05121*
X04838Y05118*
X04851*
X04863Y05121*
X04874Y05127*
X04883Y05136*
X04889Y05147*
X04893Y05159*
Y05172*
X04889Y05184*
X04883Y05195*
X04874Y05204*
X04863Y0521*
X04851Y05214*
G37*
G36*
X04051D02*
X04038D01*
X04026Y0521*
X04015Y05204*
X04006Y05195*
X04Y05184*
X03996Y05172*
Y05159*
X04Y05147*
X04006Y05136*
X04015Y05127*
X04026Y05121*
X04038Y05118*
X04051*
X04063Y05121*
X04074Y05127*
X04083Y05136*
X04089Y05147*
X04093Y05159*
Y05172*
X04089Y05184*
X04083Y05195*
X04074Y05204*
X04063Y0521*
X04051Y05214*
G37*
G36*
X03251D02*
X03238D01*
X03226Y0521*
X03215Y05204*
X03206Y05195*
X032Y05184*
X03196Y05172*
Y05159*
X032Y05147*
X03206Y05136*
X03215Y05127*
X03226Y05121*
X03238Y05118*
X03251*
X03263Y05121*
X03274Y05127*
X03283Y05136*
X03289Y05147*
X03293Y05159*
Y05172*
X03289Y05184*
X03283Y05195*
X03274Y05204*
X03263Y0521*
X03251Y05214*
G37*
G36*
X02451D02*
X02438D01*
X02426Y0521*
X02415Y05204*
X02406Y05195*
X024Y05184*
X02396Y05172*
Y05159*
X024Y05147*
X02406Y05136*
X02415Y05127*
X02426Y05121*
X02438Y05118*
X02451*
X02463Y05121*
X02474Y05127*
X02483Y05136*
X02489Y05147*
X02493Y05159*
Y05172*
X02489Y05184*
X02483Y05195*
X02474Y05204*
X02463Y0521*
X02451Y05214*
G37*
G36*
X01651D02*
X01638D01*
X01626Y0521*
X01615Y05204*
X01606Y05195*
X016Y05184*
X01596Y05172*
Y05159*
X016Y05147*
X01606Y05136*
X01615Y05127*
X01626Y05121*
X01638Y05118*
X01651*
X01663Y05121*
X01674Y05127*
X01683Y05136*
X01689Y05147*
X01693Y05159*
Y05172*
X01689Y05184*
X01683Y05195*
X01674Y05204*
X01663Y0521*
X01651Y05214*
G37*
G36*
X00851D02*
X00838D01*
X00826Y0521*
X00815Y05204*
X00806Y05195*
X008Y05184*
X00796Y05172*
Y05159*
X008Y05147*
X00806Y05136*
X00815Y05127*
X00826Y05121*
X00838Y05118*
X00851*
X00863Y05121*
X00874Y05127*
X00883Y05136*
X00889Y05147*
X00893Y05159*
Y05172*
X00889Y05184*
X00883Y05195*
X00874Y05204*
X00863Y0521*
X00851Y05214*
G37*
G36*
X08268Y05018D02*
X08257D01*
X08247Y05015*
X08238Y0501*
X08231Y05002*
X08226Y04993*
X08223Y04983*
Y04973*
X08226Y04963*
X08231Y04954*
X08238Y04946*
X08247Y04941*
X08257Y04939*
X08268*
X08278Y04941*
X08287Y04946*
X08294Y04954*
X08299Y04963*
X08302Y04973*
Y04983*
X08299Y04993*
X08294Y05002*
X08287Y0501*
X08278Y05015*
X08268Y05018*
G37*
G36*
X08046D02*
X07967D01*
Y04939*
X08046*
Y05018*
G37*
G36*
X07447D02*
X07436D01*
X07426Y05015*
X07417Y0501*
X0741Y05002*
X07405Y04993*
X07402Y04983*
Y04973*
X07405Y04963*
X0741Y04954*
X07417Y04946*
X07426Y04941*
X07436Y04939*
X07447*
X07457Y04941*
X07466Y04946*
X07473Y04954*
X07478Y04963*
X07481Y04973*
Y04983*
X07478Y04993*
X07473Y05002*
X07466Y0501*
X07457Y05015*
X07447Y05018*
G37*
G36*
X07225D02*
X07146D01*
Y04939*
X07225*
Y05018*
G37*
G36*
X06626D02*
X06615D01*
X06605Y05015*
X06596Y0501*
X06589Y05002*
X06584Y04993*
X06581Y04983*
Y04973*
X06584Y04963*
X06589Y04954*
X06596Y04946*
X06605Y04941*
X06615Y04939*
X06626*
X06636Y04941*
X06645Y04946*
X06652Y04954*
X06657Y04963*
X0666Y04973*
Y04983*
X06657Y04993*
X06652Y05002*
X06645Y0501*
X06636Y05015*
X06626Y05018*
G37*
G36*
X06404D02*
X06325D01*
Y04939*
X06404*
Y05018*
G37*
G36*
X05805D02*
X05795D01*
X05785Y05015*
X05776Y0501*
X05768Y05002*
X05763Y04993*
X0576Y04983*
Y04973*
X05763Y04963*
X05768Y04954*
X05776Y04946*
X05785Y04941*
X05795Y04939*
X05805*
X05815Y04941*
X05824Y04946*
X05831Y04954*
X05837Y04963*
X05839Y04973*
Y04983*
X05837Y04993*
X05831Y05002*
X05824Y0501*
X05815Y05015*
X05805Y05018*
G37*
G36*
X05583D02*
X05504D01*
Y04939*
X05583*
Y05018*
G37*
G36*
X04984D02*
X04974D01*
X04964Y05015*
X04955Y0501*
X04947Y05002*
X04942Y04993*
X04939Y04983*
Y04973*
X04942Y04963*
X04947Y04954*
X04955Y04946*
X04964Y04941*
X04974Y04939*
X04984*
X04994Y04941*
X05003Y04946*
X05011Y04954*
X05016Y04963*
X05018Y04973*
Y04983*
X05016Y04993*
X05011Y05002*
X05003Y0501*
X04994Y05015*
X04984Y05018*
G37*
G36*
X04163D02*
X04153D01*
X04143Y05015*
X04134Y0501*
X04126Y05002*
X04121Y04993*
X04119Y04983*
Y04973*
X04121Y04963*
X04126Y04954*
X04134Y04946*
X04143Y04941*
X04153Y04939*
X04163*
X04173Y04941*
X04182Y04946*
X0419Y04954*
X04195Y04963*
X04198Y04973*
Y04983*
X04195Y04993*
X0419Y05002*
X04182Y0501*
X04173Y05015*
X04163Y05018*
G37*
G36*
X03942D02*
X03863D01*
Y04939*
X03942*
Y05018*
G37*
G36*
X03342D02*
X03332D01*
X03322Y05015*
X03313Y0501*
X03306Y05002*
X033Y04993*
X03298Y04983*
Y04973*
X033Y04963*
X03306Y04954*
X03313Y04946*
X03322Y04941*
X03332Y04939*
X03342*
X03352Y04941*
X03361Y04946*
X03369Y04954*
X03374Y04963*
X03377Y04973*
Y04983*
X03374Y04993*
X03369Y05002*
X03361Y0501*
X03352Y05015*
X03342Y05018*
G37*
G36*
X03121D02*
X03042D01*
Y04939*
X03121*
Y05018*
G37*
G36*
X02521D02*
X02511D01*
X02501Y05015*
X02492Y0501*
X02485Y05002*
X02479Y04993*
X02477Y04983*
Y04973*
X02479Y04963*
X02485Y04954*
X02492Y04946*
X02501Y04941*
X02511Y04939*
X02521*
X02532Y04941*
X02541Y04946*
X02548Y04954*
X02553Y04963*
X02556Y04973*
Y04983*
X02553Y04993*
X02548Y05002*
X02541Y0501*
X02532Y05015*
X02521Y05018*
G37*
G36*
X023D02*
X02221D01*
Y04939*
X023*
Y05018*
G37*
G36*
X01701D02*
X0169D01*
X0168Y05015*
X01671Y0501*
X01664Y05002*
X01659Y04993*
X01656Y04983*
Y04973*
X01659Y04963*
X01664Y04954*
X01671Y04946*
X0168Y04941*
X0169Y04939*
X01701*
X01711Y04941*
X0172Y04946*
X01727Y04954*
X01732Y04963*
X01735Y04973*
Y04983*
X01732Y04993*
X01727Y05002*
X0172Y0501*
X01711Y05015*
X01701Y05018*
G37*
G36*
X01479D02*
X014D01*
Y04939*
X01479*
Y05018*
G37*
G36*
X0088D02*
X00869D01*
X00859Y05015*
X0085Y0501*
X00843Y05002*
X00838Y04993*
X00835Y04983*
Y04973*
X00838Y04963*
X00843Y04954*
X0085Y04946*
X00859Y04941*
X00869Y04939*
X0088*
X0089Y04941*
X00899Y04946*
X00906Y04954*
X00911Y04963*
X00914Y04973*
Y04983*
X00911Y04993*
X00906Y05002*
X00899Y0501*
X0089Y05015*
X0088Y05018*
G37*
G36*
X00658D02*
X00579D01*
Y04939*
X00658*
Y05018*
G37*
G36*
X08268Y0484D02*
X08257D01*
X08247Y04838*
X08238Y04833*
X08231Y04825*
X08226Y04816*
X08223Y04806*
Y04796*
X08226Y04786*
X08231Y04777*
X08238Y04769*
X08247Y04764*
X08257Y04761*
X08268*
X08278Y04764*
X08287Y04769*
X08294Y04777*
X08299Y04786*
X08302Y04796*
Y04806*
X08299Y04816*
X08294Y04825*
X08287Y04833*
X08278Y04838*
X08268Y0484*
G37*
G36*
X08012D02*
X08001D01*
X07991Y04838*
X07982Y04833*
X07975Y04825*
X0797Y04816*
X07967Y04806*
Y04796*
X0797Y04786*
X07975Y04777*
X07982Y04769*
X07991Y04764*
X08001Y04761*
X08012*
X08022Y04764*
X08031Y04769*
X08038Y04777*
X08043Y04786*
X08046Y04796*
Y04806*
X08043Y04816*
X08038Y04825*
X08031Y04833*
X08022Y04838*
X08012Y0484*
G37*
G36*
X07447D02*
X07436D01*
X07426Y04838*
X07417Y04833*
X0741Y04825*
X07405Y04816*
X07402Y04806*
Y04796*
X07405Y04786*
X0741Y04777*
X07417Y04769*
X07426Y04764*
X07436Y04761*
X07447*
X07457Y04764*
X07466Y04769*
X07473Y04777*
X07478Y04786*
X07481Y04796*
Y04806*
X07478Y04816*
X07473Y04825*
X07466Y04833*
X07457Y04838*
X07447Y0484*
G37*
G36*
X07191D02*
X0718D01*
X0717Y04838*
X07161Y04833*
X07154Y04825*
X07149Y04816*
X07146Y04806*
Y04796*
X07149Y04786*
X07154Y04777*
X07161Y04769*
X0717Y04764*
X0718Y04761*
X07191*
X07201Y04764*
X0721Y04769*
X07217Y04777*
X07222Y04786*
X07225Y04796*
Y04806*
X07222Y04816*
X07217Y04825*
X0721Y04833*
X07201Y04838*
X07191Y0484*
G37*
G36*
X06626D02*
X06615D01*
X06605Y04838*
X06596Y04833*
X06589Y04825*
X06584Y04816*
X06581Y04806*
Y04796*
X06584Y04786*
X06589Y04777*
X06596Y04769*
X06605Y04764*
X06615Y04761*
X06626*
X06636Y04764*
X06645Y04769*
X06652Y04777*
X06657Y04786*
X0666Y04796*
Y04806*
X06657Y04816*
X06652Y04825*
X06645Y04833*
X06636Y04838*
X06626Y0484*
G37*
G36*
X0637D02*
X0636D01*
X0635Y04838*
X06341Y04833*
X06333Y04825*
X06328Y04816*
X06325Y04806*
Y04796*
X06328Y04786*
X06333Y04777*
X06341Y04769*
X0635Y04764*
X0636Y04761*
X0637*
X0638Y04764*
X06389Y04769*
X06396Y04777*
X06402Y04786*
X06404Y04796*
Y04806*
X06402Y04816*
X06396Y04825*
X06389Y04833*
X0638Y04838*
X0637Y0484*
G37*
G36*
X05805D02*
X05795D01*
X05785Y04838*
X05776Y04833*
X05768Y04825*
X05763Y04816*
X0576Y04806*
Y04796*
X05763Y04786*
X05768Y04777*
X05776Y04769*
X05785Y04764*
X05795Y04761*
X05805*
X05815Y04764*
X05824Y04769*
X05831Y04777*
X05837Y04786*
X05839Y04796*
Y04806*
X05837Y04816*
X05831Y04825*
X05824Y04833*
X05815Y04838*
X05805Y0484*
G37*
G36*
X05549D02*
X05539D01*
X05529Y04838*
X0552Y04833*
X05512Y04825*
X05507Y04816*
X05504Y04806*
Y04796*
X05507Y04786*
X05512Y04777*
X0552Y04769*
X05529Y04764*
X05539Y04761*
X05549*
X05559Y04764*
X05568Y04769*
X05575Y04777*
X05581Y04786*
X05583Y04796*
Y04806*
X05581Y04816*
X05575Y04825*
X05568Y04833*
X05559Y04838*
X05549Y0484*
G37*
G36*
X04984D02*
X04974D01*
X04964Y04838*
X04955Y04833*
X04947Y04825*
X04942Y04816*
X04939Y04806*
Y04796*
X04942Y04786*
X04947Y04777*
X04955Y04769*
X04964Y04764*
X04974Y04761*
X04984*
X04994Y04764*
X05003Y04769*
X05011Y04777*
X05016Y04786*
X05018Y04796*
Y04806*
X05016Y04816*
X05011Y04825*
X05003Y04833*
X04994Y04838*
X04984Y0484*
G37*
G36*
X04728D02*
X04718D01*
X04708Y04838*
X04699Y04833*
X04691Y04825*
X04686Y04816*
X04684Y04806*
Y04796*
X04686Y04786*
X04691Y04777*
X04699Y04769*
X04708Y04764*
X04718Y04761*
X04728*
X04738Y04764*
X04747Y04769*
X04755Y04777*
X0476Y04786*
X04763Y04796*
Y04806*
X0476Y04816*
X04755Y04825*
X04747Y04833*
X04738Y04838*
X04728Y0484*
G37*
G36*
X04163D02*
X04153D01*
X04143Y04838*
X04134Y04833*
X04126Y04825*
X04121Y04816*
X04119Y04806*
Y04796*
X04121Y04786*
X04126Y04777*
X04134Y04769*
X04143Y04764*
X04153Y04761*
X04163*
X04173Y04764*
X04182Y04769*
X0419Y04777*
X04195Y04786*
X04198Y04796*
Y04806*
X04195Y04816*
X0419Y04825*
X04182Y04833*
X04173Y04838*
X04163Y0484*
G37*
G36*
X03907D02*
X03897D01*
X03887Y04838*
X03878Y04833*
X03871Y04825*
X03865Y04816*
X03863Y04806*
Y04796*
X03865Y04786*
X03871Y04777*
X03878Y04769*
X03887Y04764*
X03897Y04761*
X03907*
X03917Y04764*
X03926Y04769*
X03934Y04777*
X03939Y04786*
X03942Y04796*
Y04806*
X03939Y04816*
X03934Y04825*
X03926Y04833*
X03917Y04838*
X03907Y0484*
G37*
G36*
X03342D02*
X03332D01*
X03322Y04838*
X03313Y04833*
X03306Y04825*
X033Y04816*
X03298Y04806*
Y04796*
X033Y04786*
X03306Y04777*
X03313Y04769*
X03322Y04764*
X03332Y04761*
X03342*
X03352Y04764*
X03361Y04769*
X03369Y04777*
X03374Y04786*
X03377Y04796*
Y04806*
X03374Y04816*
X03369Y04825*
X03361Y04833*
X03352Y04838*
X03342Y0484*
G37*
G36*
X03086D02*
X03076D01*
X03066Y04838*
X03057Y04833*
X0305Y04825*
X03044Y04816*
X03042Y04806*
Y04796*
X03044Y04786*
X0305Y04777*
X03057Y04769*
X03066Y04764*
X03076Y04761*
X03086*
X03096Y04764*
X03105Y04769*
X03113Y04777*
X03118Y04786*
X03121Y04796*
Y04806*
X03118Y04816*
X03113Y04825*
X03105Y04833*
X03096Y04838*
X03086Y0484*
G37*
G36*
X02521D02*
X02511D01*
X02501Y04838*
X02492Y04833*
X02485Y04825*
X02479Y04816*
X02477Y04806*
Y04796*
X02479Y04786*
X02485Y04777*
X02492Y04769*
X02501Y04764*
X02511Y04761*
X02521*
X02532Y04764*
X02541Y04769*
X02548Y04777*
X02553Y04786*
X02556Y04796*
Y04806*
X02553Y04816*
X02548Y04825*
X02541Y04833*
X02532Y04838*
X02521Y0484*
G37*
G36*
X02266D02*
X02255D01*
X02245Y04838*
X02236Y04833*
X02229Y04825*
X02224Y04816*
X02221Y04806*
Y04796*
X02224Y04786*
X02229Y04777*
X02236Y04769*
X02245Y04764*
X02255Y04761*
X02266*
X02276Y04764*
X02285Y04769*
X02292Y04777*
X02297Y04786*
X023Y04796*
Y04806*
X02297Y04816*
X02292Y04825*
X02285Y04833*
X02276Y04838*
X02266Y0484*
G37*
G36*
X01701D02*
X0169D01*
X0168Y04838*
X01671Y04833*
X01664Y04825*
X01659Y04816*
X01656Y04806*
Y04796*
X01659Y04786*
X01664Y04777*
X01671Y04769*
X0168Y04764*
X0169Y04761*
X01701*
X01711Y04764*
X0172Y04769*
X01727Y04777*
X01732Y04786*
X01735Y04796*
Y04806*
X01732Y04816*
X01727Y04825*
X0172Y04833*
X01711Y04838*
X01701Y0484*
G37*
G36*
X01445D02*
X01434D01*
X01424Y04838*
X01415Y04833*
X01408Y04825*
X01403Y04816*
X014Y04806*
Y04796*
X01403Y04786*
X01408Y04777*
X01415Y04769*
X01424Y04764*
X01434Y04761*
X01445*
X01455Y04764*
X01464Y04769*
X01471Y04777*
X01476Y04786*
X01479Y04796*
Y04806*
X01476Y04816*
X01471Y04825*
X01464Y04833*
X01455Y04838*
X01445Y0484*
G37*
G36*
X0088D02*
X00869D01*
X00859Y04838*
X0085Y04833*
X00843Y04825*
X00838Y04816*
X00835Y04806*
Y04796*
X00838Y04786*
X00843Y04777*
X0085Y04769*
X00859Y04764*
X00869Y04761*
X0088*
X0089Y04764*
X00899Y04769*
X00906Y04777*
X00911Y04786*
X00914Y04796*
Y04806*
X00911Y04816*
X00906Y04825*
X00899Y04833*
X0089Y04838*
X0088Y0484*
G37*
G36*
X00624D02*
X00613D01*
X00603Y04838*
X00594Y04833*
X00587Y04825*
X00582Y04816*
X00579Y04806*
Y04796*
X00582Y04786*
X00587Y04777*
X00594Y04769*
X00603Y04764*
X00613Y04761*
X00624*
X00634Y04764*
X00643Y04769*
X0065Y04777*
X00655Y04786*
X00658Y04796*
Y04806*
X00655Y04816*
X0065Y04825*
X00643Y04833*
X00634Y04838*
X00624Y0484*
G37*
G36*
X08019Y04734D02*
X0794D01*
Y04655*
X08019*
Y04734*
G37*
G36*
X07444D02*
X07434D01*
X07424Y04731*
X07415Y04726*
X07408Y04719*
X07402Y0471*
X074Y047*
Y04689*
X07402Y04679*
X07408Y0467*
X07415Y04663*
X07424Y04658*
X07434Y04655*
X07444*
X07455Y04658*
X07464Y04663*
X07471Y0467*
X07476Y04679*
X07479Y04689*
Y047*
X07476Y0471*
X07471Y04719*
X07464Y04726*
X07455Y04731*
X07444Y04734*
G37*
G36*
X07199D02*
X0712D01*
Y04655*
X07199*
Y04734*
G37*
G36*
X06624D02*
X06614D01*
X06604Y04731*
X06595Y04726*
X06588Y04719*
X06582Y0471*
X0658Y047*
Y04689*
X06582Y04679*
X06588Y0467*
X06595Y04663*
X06604Y04658*
X06614Y04655*
X06624*
X06635Y04658*
X06644Y04663*
X06651Y0467*
X06656Y04679*
X06659Y04689*
Y047*
X06656Y0471*
X06651Y04719*
X06644Y04726*
X06635Y04731*
X06624Y04734*
G37*
G36*
X06379D02*
X063D01*
Y04655*
X06379*
Y04734*
G37*
G36*
X05804D02*
X05794D01*
X05784Y04731*
X05775Y04726*
X05768Y04719*
X05762Y0471*
X0576Y047*
Y04689*
X05762Y04679*
X05768Y0467*
X05775Y04663*
X05784Y04658*
X05794Y04655*
X05804*
X05815Y04658*
X05824Y04663*
X05831Y0467*
X05836Y04679*
X05839Y04689*
Y047*
X05836Y0471*
X05831Y04719*
X05824Y04726*
X05815Y04731*
X05804Y04734*
G37*
G36*
X05559D02*
X0548D01*
Y04655*
X05559*
Y04734*
G37*
G36*
X04984D02*
X04974D01*
X04964Y04731*
X04955Y04726*
X04948Y04719*
X04942Y0471*
X0494Y047*
Y04689*
X04942Y04679*
X04948Y0467*
X04955Y04663*
X04964Y04658*
X04974Y04655*
X04984*
X04995Y04658*
X05004Y04663*
X05011Y0467*
X05016Y04679*
X05019Y04689*
Y047*
X05016Y0471*
X05011Y04719*
X05004Y04726*
X04995Y04731*
X04984Y04734*
G37*
G36*
X04164D02*
X04154D01*
X04144Y04731*
X04135Y04726*
X04128Y04719*
X04122Y0471*
X0412Y047*
Y04689*
X04122Y04679*
X04128Y0467*
X04135Y04663*
X04144Y04658*
X04154Y04655*
X04164*
X04175Y04658*
X04184Y04663*
X04191Y0467*
X04196Y04679*
X04199Y04689*
Y047*
X04196Y0471*
X04191Y04719*
X04184Y04726*
X04175Y04731*
X04164Y04734*
G37*
G36*
X03919D02*
X0384D01*
Y04655*
X03919*
Y04734*
G37*
G36*
X03344D02*
X03334D01*
X03324Y04731*
X03315Y04726*
X03308Y04719*
X03302Y0471*
X033Y047*
Y04689*
X03302Y04679*
X03308Y0467*
X03315Y04663*
X03324Y04658*
X03334Y04655*
X03344*
X03355Y04658*
X03364Y04663*
X03371Y0467*
X03376Y04679*
X03379Y04689*
Y047*
X03376Y0471*
X03371Y04719*
X03364Y04726*
X03355Y04731*
X03344Y04734*
G37*
G36*
X03099D02*
X0302D01*
Y04655*
X03099*
Y04734*
G37*
G36*
X02524D02*
X02514D01*
X02504Y04731*
X02495Y04726*
X02488Y04719*
X02482Y0471*
X0248Y047*
Y04689*
X02482Y04679*
X02488Y0467*
X02495Y04663*
X02504Y04658*
X02514Y04655*
X02524*
X02535Y04658*
X02544Y04663*
X02551Y0467*
X02556Y04679*
X02559Y04689*
Y047*
X02556Y0471*
X02551Y04719*
X02544Y04726*
X02535Y04731*
X02524Y04734*
G37*
G36*
X02279D02*
X022D01*
Y04655*
X02279*
Y04734*
G37*
G36*
X01704D02*
X01694D01*
X01684Y04731*
X01675Y04726*
X01668Y04719*
X01662Y0471*
X0166Y047*
Y04689*
X01662Y04679*
X01668Y0467*
X01675Y04663*
X01684Y04658*
X01694Y04655*
X01704*
X01715Y04658*
X01724Y04663*
X01731Y0467*
X01736Y04679*
X01739Y04689*
Y047*
X01736Y0471*
X01731Y04719*
X01724Y04726*
X01715Y04731*
X01704Y04734*
G37*
G36*
X01459D02*
X0138D01*
Y04655*
X01459*
Y04734*
G37*
G36*
X00884D02*
X00874D01*
X00864Y04731*
X00855Y04726*
X00848Y04719*
X00842Y0471*
X0084Y047*
Y04689*
X00842Y04679*
X00848Y0467*
X00855Y04663*
X00864Y04658*
X00874Y04655*
X00884*
X00895Y04658*
X00904Y04663*
X00911Y0467*
X00916Y04679*
X00919Y04689*
Y047*
X00916Y0471*
X00911Y04719*
X00904Y04726*
X00895Y04731*
X00884Y04734*
G37*
G36*
X00639D02*
X0056D01*
Y04655*
X00639*
Y04734*
G37*
G36*
X0477Y04522D02*
X04737D01*
Y0449*
X0477*
Y04522*
G37*
G36*
X04727D02*
X04695D01*
Y0449*
X04727*
Y04522*
G37*
G36*
X03135D02*
X03102D01*
Y0449*
X03135*
Y04522*
G37*
G36*
X03092D02*
X0306D01*
Y0449*
X03092*
Y04522*
G37*
G36*
X01505Y04522D02*
X01472D01*
Y04489*
X01505*
Y04522*
G37*
G36*
X01462D02*
X0143D01*
Y04489*
X01462*
Y04522*
G37*
G36*
X056Y04517D02*
X05567D01*
Y04485*
X056*
Y04517*
G37*
G36*
X05557D02*
X05525D01*
Y04485*
X05557*
Y04517*
G37*
G36*
X0397D02*
X03937D01*
Y04485*
X0397*
Y04517*
G37*
G36*
X03927D02*
X03895D01*
Y04485*
X03927*
Y04517*
G37*
G36*
X02315D02*
X02282D01*
Y04485*
X02315*
Y04517*
G37*
G36*
X02272D02*
X0224D01*
Y04485*
X02272*
Y04517*
G37*
G36*
X0728Y04502D02*
X07247D01*
Y0447*
X0728*
Y04502*
G37*
G36*
X07237D02*
X07205D01*
Y0447*
X07237*
Y04502*
G37*
G36*
X0641D02*
X06377D01*
Y0447*
X0641*
Y04502*
G37*
G36*
X06367D02*
X06335D01*
Y0447*
X06367*
Y04502*
G37*
G36*
X00675D02*
X00642D01*
Y0447*
X00675*
Y04502*
G37*
G36*
X00632D02*
X006D01*
Y0447*
X00632*
Y04502*
G37*
G36*
X04942Y04522D02*
X04932D01*
X04922Y0452*
X04914Y04515*
X04907Y04508*
X04902Y04499*
X04899Y04489*
Y0448*
X04902Y0447*
X04907Y04461*
X04914Y04454*
X04922Y0445*
X04932Y04447*
X04942*
X04951Y0445*
X0496Y04454*
X04967Y04461*
X04972Y0447*
X04974Y0448*
Y04489*
X04972Y04499*
X04967Y04508*
X0496Y04515*
X04951Y0452*
X04942Y04522*
G37*
G36*
X04839D02*
X0483D01*
X0482Y0452*
X04811Y04515*
X04804Y04508*
X048Y04499*
X04797Y04489*
Y0448*
X048Y0447*
X04804Y04461*
X04811Y04454*
X0482Y0445*
X0483Y04447*
X04839*
X04849Y0445*
X04858Y04454*
X04865Y04461*
X0487Y0447*
X04872Y0448*
Y04489*
X0487Y04499*
X04865Y04508*
X04858Y04515*
X04849Y0452*
X04839Y04522*
G37*
G36*
X0477Y0448D02*
X04737D01*
Y04447*
X0477*
Y0448*
G37*
G36*
X04727D02*
X04695D01*
Y04447*
X04727*
Y0448*
G37*
G36*
X03307Y04522D02*
X03297D01*
X03287Y0452*
X03279Y04515*
X03272Y04508*
X03267Y04499*
X03264Y04489*
Y0448*
X03267Y0447*
X03272Y04461*
X03279Y04454*
X03287Y0445*
X03297Y04447*
X03307*
X03316Y0445*
X03325Y04454*
X03332Y04461*
X03337Y0447*
X03339Y0448*
Y04489*
X03337Y04499*
X03332Y04508*
X03325Y04515*
X03316Y0452*
X03307Y04522*
G37*
G36*
X03204D02*
X03195D01*
X03185Y0452*
X03176Y04515*
X03169Y04508*
X03165Y04499*
X03162Y04489*
Y0448*
X03165Y0447*
X03169Y04461*
X03176Y04454*
X03185Y0445*
X03195Y04447*
X03204*
X03214Y0445*
X03223Y04454*
X0323Y04461*
X03235Y0447*
X03237Y0448*
Y04489*
X03235Y04499*
X0323Y04508*
X03223Y04515*
X03214Y0452*
X03204Y04522*
G37*
G36*
X03135Y0448D02*
X03102D01*
Y04447*
X03135*
Y0448*
G37*
G36*
X03092D02*
X0306D01*
Y04447*
X03092*
Y0448*
G37*
G36*
X01677Y04522D02*
X01667D01*
X01657Y04519*
X01649Y04514*
X01642Y04507*
X01637Y04499*
X01634Y04489*
Y04479*
X01637Y0447*
X01642Y04461*
X01649Y04454*
X01657Y04449*
X01667Y04447*
X01677*
X01686Y04449*
X01695Y04454*
X01702Y04461*
X01707Y0447*
X01709Y04479*
Y04489*
X01707Y04499*
X01702Y04507*
X01695Y04514*
X01686Y04519*
X01677Y04522*
G37*
G36*
X01574D02*
X01565D01*
X01555Y04519*
X01546Y04514*
X01539Y04507*
X01535Y04499*
X01532Y04489*
Y04479*
X01535Y0447*
X01539Y04461*
X01546Y04454*
X01555Y04449*
X01565Y04447*
X01574*
X01584Y04449*
X01593Y04454*
X016Y04461*
X01605Y0447*
X01607Y04479*
Y04489*
X01605Y04499*
X016Y04507*
X01593Y04514*
X01584Y04519*
X01574Y04522*
G37*
G36*
X01505Y04479D02*
X01472D01*
Y04447*
X01505*
Y04479*
G37*
G36*
X01462D02*
X0143D01*
Y04447*
X01462*
Y04479*
G37*
G36*
X08247Y04517D02*
X08237D01*
X08227Y04515*
X08219Y0451*
X08212Y04503*
X08207Y04494*
X08204Y04484*
Y04475*
X08207Y04465*
X08212Y04456*
X08219Y04449*
X08227Y04445*
X08237Y04442*
X08247*
X08256Y04445*
X08265Y04449*
X08272Y04456*
X08277Y04465*
X08279Y04475*
Y04484*
X08277Y04494*
X08272Y04503*
X08265Y0451*
X08256Y04515*
X08247Y04517*
G37*
G36*
X08144D02*
X08135D01*
X08125Y04515*
X08116Y0451*
X08109Y04503*
X08105Y04494*
X08102Y04484*
Y04475*
X08105Y04465*
X08109Y04456*
X08116Y04449*
X08125Y04445*
X08135Y04442*
X08144*
X08154Y04445*
X08163Y04449*
X0817Y04456*
X08175Y04465*
X08177Y04475*
Y04484*
X08175Y04494*
X0817Y04503*
X08163Y0451*
X08154Y04515*
X08144Y04517*
G37*
G36*
X08075Y04475D02*
X08042D01*
Y04442*
X08075*
Y04475*
G37*
G36*
X08032D02*
X08D01*
Y04442*
X08032*
Y04475*
G37*
G36*
X05772Y04517D02*
X05762D01*
X05752Y04515*
X05744Y0451*
X05737Y04503*
X05732Y04494*
X05729Y04484*
Y04475*
X05732Y04465*
X05737Y04456*
X05744Y04449*
X05752Y04445*
X05762Y04442*
X05772*
X05781Y04445*
X0579Y04449*
X05797Y04456*
X05802Y04465*
X05804Y04475*
Y04484*
X05802Y04494*
X05797Y04503*
X0579Y0451*
X05781Y04515*
X05772Y04517*
G37*
G36*
X05669D02*
X0566D01*
X0565Y04515*
X05641Y0451*
X05634Y04503*
X0563Y04494*
X05627Y04484*
Y04475*
X0563Y04465*
X05634Y04456*
X05641Y04449*
X0565Y04445*
X0566Y04442*
X05669*
X05679Y04445*
X05688Y04449*
X05695Y04456*
X057Y04465*
X05702Y04475*
Y04484*
X057Y04494*
X05695Y04503*
X05688Y0451*
X05679Y04515*
X05669Y04517*
G37*
G36*
X056Y04475D02*
X05567D01*
Y04442*
X056*
Y04475*
G37*
G36*
X05557D02*
X05525D01*
Y04442*
X05557*
Y04475*
G37*
G36*
X04142Y04517D02*
X04132D01*
X04122Y04515*
X04114Y0451*
X04107Y04503*
X04102Y04494*
X04099Y04484*
Y04475*
X04102Y04465*
X04107Y04456*
X04114Y04449*
X04122Y04445*
X04132Y04442*
X04142*
X04151Y04445*
X0416Y04449*
X04167Y04456*
X04172Y04465*
X04174Y04475*
Y04484*
X04172Y04494*
X04167Y04503*
X0416Y0451*
X04151Y04515*
X04142Y04517*
G37*
G36*
X04039D02*
X0403D01*
X0402Y04515*
X04011Y0451*
X04004Y04503*
X04Y04494*
X03997Y04484*
Y04475*
X04Y04465*
X04004Y04456*
X04011Y04449*
X0402Y04445*
X0403Y04442*
X04039*
X04049Y04445*
X04058Y04449*
X04065Y04456*
X0407Y04465*
X04072Y04475*
Y04484*
X0407Y04494*
X04065Y04503*
X04058Y0451*
X04049Y04515*
X04039Y04517*
G37*
G36*
X0397Y04475D02*
X03937D01*
Y04442*
X0397*
Y04475*
G37*
G36*
X03927D02*
X03895D01*
Y04442*
X03927*
Y04475*
G37*
G36*
X02487Y04517D02*
X02477D01*
X02467Y04515*
X02459Y0451*
X02452Y04503*
X02447Y04494*
X02444Y04484*
Y04475*
X02447Y04465*
X02452Y04456*
X02459Y04449*
X02467Y04445*
X02477Y04442*
X02487*
X02496Y04445*
X02505Y04449*
X02512Y04456*
X02517Y04465*
X02519Y04475*
Y04484*
X02517Y04494*
X02512Y04503*
X02505Y0451*
X02496Y04515*
X02487Y04517*
G37*
G36*
X02384D02*
X02375D01*
X02365Y04515*
X02356Y0451*
X02349Y04503*
X02345Y04494*
X02342Y04484*
Y04475*
X02345Y04465*
X02349Y04456*
X02356Y04449*
X02365Y04445*
X02375Y04442*
X02384*
X02394Y04445*
X02403Y04449*
X0241Y04456*
X02415Y04465*
X02417Y04475*
Y04484*
X02415Y04494*
X0241Y04503*
X02403Y0451*
X02394Y04515*
X02384Y04517*
G37*
G36*
X02315Y04475D02*
X02282D01*
Y04442*
X02315*
Y04475*
G37*
G36*
X02272D02*
X0224D01*
Y04442*
X02272*
Y04475*
G37*
G36*
X07452Y04502D02*
X07442D01*
X07432Y045*
X07424Y04495*
X07417Y04488*
X07412Y04479*
X07409Y04469*
Y0446*
X07412Y0445*
X07417Y04441*
X07424Y04434*
X07432Y0443*
X07442Y04427*
X07452*
X07461Y0443*
X0747Y04434*
X07477Y04441*
X07482Y0445*
X07484Y0446*
Y04469*
X07482Y04479*
X07477Y04488*
X0747Y04495*
X07461Y045*
X07452Y04502*
G37*
G36*
X07349D02*
X0734D01*
X0733Y045*
X07321Y04495*
X07314Y04488*
X0731Y04479*
X07307Y04469*
Y0446*
X0731Y0445*
X07314Y04441*
X07321Y04434*
X0733Y0443*
X0734Y04427*
X07349*
X07359Y0443*
X07368Y04434*
X07375Y04441*
X0738Y0445*
X07382Y0446*
Y04469*
X0738Y04479*
X07375Y04488*
X07368Y04495*
X07359Y045*
X07349Y04502*
G37*
G36*
X0728Y0446D02*
X07247D01*
Y04427*
X0728*
Y0446*
G37*
G36*
X07237D02*
X07205D01*
Y04427*
X07237*
Y0446*
G37*
G36*
X06582Y04502D02*
X06572D01*
X06562Y045*
X06554Y04495*
X06547Y04488*
X06542Y04479*
X06539Y04469*
Y0446*
X06542Y0445*
X06547Y04441*
X06554Y04434*
X06562Y0443*
X06572Y04427*
X06582*
X06591Y0443*
X066Y04434*
X06607Y04441*
X06612Y0445*
X06614Y0446*
Y04469*
X06612Y04479*
X06607Y04488*
X066Y04495*
X06591Y045*
X06582Y04502*
G37*
G36*
X06479D02*
X0647D01*
X0646Y045*
X06451Y04495*
X06444Y04488*
X0644Y04479*
X06437Y04469*
Y0446*
X0644Y0445*
X06444Y04441*
X06451Y04434*
X0646Y0443*
X0647Y04427*
X06479*
X06489Y0443*
X06498Y04434*
X06505Y04441*
X0651Y0445*
X06512Y0446*
Y04469*
X0651Y04479*
X06505Y04488*
X06498Y04495*
X06489Y045*
X06479Y04502*
G37*
G36*
X0641Y0446D02*
X06377D01*
Y04427*
X0641*
Y0446*
G37*
G36*
X06367D02*
X06335D01*
Y04427*
X06367*
Y0446*
G37*
G36*
X00847Y04502D02*
X00837D01*
X00827Y045*
X00819Y04495*
X00812Y04488*
X00807Y04479*
X00804Y04469*
Y0446*
X00807Y0445*
X00812Y04441*
X00819Y04434*
X00827Y0443*
X00837Y04427*
X00847*
X00856Y0443*
X00865Y04434*
X00872Y04441*
X00877Y0445*
X00879Y0446*
Y04469*
X00877Y04479*
X00872Y04488*
X00865Y04495*
X00856Y045*
X00847Y04502*
G37*
G36*
X00744D02*
X00735D01*
X00725Y045*
X00716Y04495*
X00709Y04488*
X00705Y04479*
X00702Y04469*
Y0446*
X00705Y0445*
X00709Y04441*
X00716Y04434*
X00725Y0443*
X00735Y04427*
X00744*
X00754Y0443*
X00763Y04434*
X0077Y04441*
X00775Y0445*
X00777Y0446*
Y04469*
X00775Y04479*
X0077Y04488*
X00763Y04495*
X00754Y045*
X00744Y04502*
G37*
G36*
X00675Y0446D02*
X00642D01*
Y04427*
X00675*
Y0446*
G37*
G36*
X00632D02*
X006D01*
Y04427*
X00632*
Y0446*
G37*
G36*
X00247Y04302D02*
X00162D01*
Y04217*
X00247*
Y04302*
G37*
G36*
X0886Y04144D02*
Y04115D01*
X08889*
X08887Y04123*
X08883Y04131*
X08876Y04138*
X08868Y04142*
X0886Y04144*
G37*
G36*
X0885D02*
X08841Y04142D01*
X08833Y04138*
X08826Y04131*
X08822Y04123*
X0882Y04115*
X0885*
Y04144*
G37*
G36*
X08591D02*
Y04115D01*
X08621*
X08619Y04123*
X08614Y04131*
X08608Y04138*
X086Y04142*
X08591Y04144*
G37*
G36*
X08581D02*
X08573Y04142D01*
X08565Y04138*
X08558Y04131*
X08554Y04123*
X08551Y04115*
X08581*
Y04144*
G37*
G36*
X08328D02*
Y04115D01*
X08358*
X08356Y04123*
X08351Y04131*
X08345Y04138*
X08337Y04142*
X08328Y04144*
G37*
G36*
X08318D02*
X0831Y04142D01*
X08302Y04138*
X08295Y04131*
X08291Y04123*
X08288Y04115*
X08318*
Y04144*
G37*
G36*
X08065D02*
Y04115D01*
X08095*
X08093Y04123*
X08088Y04131*
X08082Y04138*
X08074Y04142*
X08065Y04144*
G37*
G36*
X08055D02*
X08047Y04142D01*
X08039Y04138*
X08032Y04131*
X08028Y04123*
X08025Y04115*
X08055*
Y04144*
G37*
G36*
X07802D02*
Y04115D01*
X07832*
X0783Y04123*
X07825Y04131*
X07818Y04138*
X07811Y04142*
X07802Y04144*
G37*
G36*
X07792D02*
X07783Y04142D01*
X07776Y04138*
X07769Y04131*
X07764Y04123*
X07762Y04115*
X07792*
Y04144*
G37*
G36*
X07539D02*
Y04115D01*
X07569*
X07566Y04123*
X07562Y04131*
X07555Y04138*
X07547Y04142*
X07539Y04144*
G37*
G36*
X07529D02*
X0752Y04142D01*
X07512Y04138*
X07506Y04131*
X07501Y04123*
X07499Y04115*
X07529*
Y04144*
G37*
G36*
X07013D02*
Y04115D01*
X07043*
X0704Y04123*
X07036Y04131*
X07029Y04138*
X07021Y04142*
X07013Y04144*
G37*
G36*
X07003D02*
X06994Y04142D01*
X06986Y04138*
X0698Y04131*
X06975Y04123*
X06973Y04115*
X07003*
Y04144*
G37*
G36*
X0675D02*
Y04115D01*
X06779*
X06777Y04123*
X06773Y04131*
X06766Y04138*
X06758Y04142*
X0675Y04144*
G37*
G36*
X0674D02*
X06731Y04142D01*
X06723Y04138*
X06716Y04131*
X06712Y04123*
X0671Y04115*
X0674*
Y04144*
G37*
G36*
X03694Y04149D02*
X0366D01*
Y04115*
X03694*
Y04149*
G37*
G36*
X0365D02*
X03615D01*
Y04115*
X0365*
Y04149*
G37*
G36*
X08889Y04105D02*
X0886D01*
Y04075*
X08868Y04077*
X08876Y04081*
X08883Y04088*
X08887Y04096*
X08889Y04105*
G37*
G36*
X0885D02*
X0882D01*
X08822Y04096*
X08826Y04088*
X08833Y04081*
X08841Y04077*
X0885Y04075*
Y04105*
G37*
G36*
X08621D02*
X08591D01*
Y04075*
X086Y04077*
X08608Y04081*
X08614Y04088*
X08619Y04096*
X08621Y04105*
G37*
G36*
X08581D02*
X08551D01*
X08554Y04096*
X08558Y04088*
X08565Y04081*
X08573Y04077*
X08581Y04075*
Y04105*
G37*
G36*
X08358D02*
X08328D01*
Y04075*
X08337Y04077*
X08345Y04081*
X08351Y04088*
X08356Y04096*
X08358Y04105*
G37*
G36*
X08318D02*
X08288D01*
X08291Y04096*
X08295Y04088*
X08302Y04081*
X0831Y04077*
X08318Y04075*
Y04105*
G37*
G36*
X08095D02*
X08065D01*
Y04075*
X08074Y04077*
X08082Y04081*
X08088Y04088*
X08093Y04096*
X08095Y04105*
G37*
G36*
X08055D02*
X08025D01*
X08028Y04096*
X08032Y04088*
X08039Y04081*
X08047Y04077*
X08055Y04075*
Y04105*
G37*
G36*
X07832D02*
X07802D01*
Y04075*
X07811Y04077*
X07818Y04081*
X07825Y04088*
X0783Y04096*
X07832Y04105*
G37*
G36*
X07792D02*
X07762D01*
X07764Y04096*
X07769Y04088*
X07776Y04081*
X07783Y04077*
X07792Y04075*
Y04105*
G37*
G36*
X07569D02*
X07539D01*
Y04075*
X07547Y04077*
X07555Y04081*
X07562Y04088*
X07566Y04096*
X07569Y04105*
G37*
G36*
X07529D02*
X07499D01*
X07501Y04096*
X07506Y04088*
X07512Y04081*
X0752Y04077*
X07529Y04075*
Y04105*
G37*
G36*
X07043D02*
X07013D01*
Y04075*
X07021Y04077*
X07029Y04081*
X07036Y04088*
X0704Y04096*
X07043Y04105*
G37*
G36*
X07003D02*
X06973D01*
X06975Y04096*
X0698Y04088*
X06986Y04081*
X06994Y04077*
X07003Y04075*
Y04105*
G37*
G36*
X06779D02*
X0675D01*
Y04075*
X06758Y04077*
X06766Y04081*
X06773Y04088*
X06777Y04096*
X06779Y04105*
G37*
G36*
X0674D02*
X0671D01*
X06712Y04096*
X06716Y04088*
X06723Y04081*
X06731Y04077*
X0674Y04075*
Y04105*
G37*
G36*
X0446Y04149D02*
X04449D01*
X04439Y04146*
X0443Y04141*
X04423Y04134*
X04418Y04125*
X04415Y04115*
Y04104*
X04418Y04094*
X04423Y04085*
X0443Y04078*
X04439Y04073*
X04449Y0407*
X0446*
X0447Y04073*
X04479Y04078*
X04486Y04085*
X04491Y04094*
X04494Y04104*
Y04115*
X04491Y04125*
X04486Y04134*
X04479Y04141*
X0447Y04146*
X0446Y04149*
G37*
G36*
X0436D02*
X04349D01*
X04339Y04146*
X0433Y04141*
X04323Y04134*
X04318Y04125*
X04315Y04115*
Y04104*
X04318Y04094*
X04323Y04085*
X0433Y04078*
X04339Y04073*
X04349Y0407*
X0436*
X0437Y04073*
X04379Y04078*
X04386Y04085*
X04391Y04094*
X04394Y04104*
Y04115*
X04391Y04125*
X04386Y04134*
X04379Y04141*
X0437Y04146*
X0436Y04149*
G37*
G36*
X0426D02*
X04249D01*
X04239Y04146*
X0423Y04141*
X04223Y04134*
X04218Y04125*
X04215Y04115*
Y04104*
X04218Y04094*
X04223Y04085*
X0423Y04078*
X04239Y04073*
X04249Y0407*
X0426*
X0427Y04073*
X04279Y04078*
X04286Y04085*
X04291Y04094*
X04294Y04104*
Y04115*
X04291Y04125*
X04286Y04134*
X04279Y04141*
X0427Y04146*
X0426Y04149*
G37*
G36*
X0416D02*
X04149D01*
X04139Y04146*
X0413Y04141*
X04123Y04134*
X04118Y04125*
X04115Y04115*
Y04104*
X04118Y04094*
X04123Y04085*
X0413Y04078*
X04139Y04073*
X04149Y0407*
X0416*
X0417Y04073*
X04179Y04078*
X04186Y04085*
X04191Y04094*
X04194Y04104*
Y04115*
X04191Y04125*
X04186Y04134*
X04179Y04141*
X0417Y04146*
X0416Y04149*
G37*
G36*
X0406D02*
X04049D01*
X04039Y04146*
X0403Y04141*
X04023Y04134*
X04018Y04125*
X04015Y04115*
Y04104*
X04018Y04094*
X04023Y04085*
X0403Y04078*
X04039Y04073*
X04049Y0407*
X0406*
X0407Y04073*
X04079Y04078*
X04086Y04085*
X04091Y04094*
X04094Y04104*
Y04115*
X04091Y04125*
X04086Y04134*
X04079Y04141*
X0407Y04146*
X0406Y04149*
G37*
G36*
X0396D02*
X03949D01*
X03939Y04146*
X0393Y04141*
X03923Y04134*
X03918Y04125*
X03915Y04115*
Y04104*
X03918Y04094*
X03923Y04085*
X0393Y04078*
X03939Y04073*
X03949Y0407*
X0396*
X0397Y04073*
X03979Y04078*
X03986Y04085*
X03991Y04094*
X03994Y04104*
Y04115*
X03991Y04125*
X03986Y04134*
X03979Y04141*
X0397Y04146*
X0396Y04149*
G37*
G36*
X0386D02*
X03849D01*
X03839Y04146*
X0383Y04141*
X03823Y04134*
X03818Y04125*
X03815Y04115*
Y04104*
X03818Y04094*
X03823Y04085*
X0383Y04078*
X03839Y04073*
X03849Y0407*
X0386*
X0387Y04073*
X03879Y04078*
X03886Y04085*
X03891Y04094*
X03894Y04104*
Y04115*
X03891Y04125*
X03886Y04134*
X03879Y04141*
X0387Y04146*
X0386Y04149*
G37*
G36*
X0376D02*
X03749D01*
X03739Y04146*
X0373Y04141*
X03723Y04134*
X03718Y04125*
X03715Y04115*
Y04104*
X03718Y04094*
X03723Y04085*
X0373Y04078*
X03739Y04073*
X03749Y0407*
X0376*
X0377Y04073*
X03779Y04078*
X03786Y04085*
X03791Y04094*
X03794Y04104*
Y04115*
X03791Y04125*
X03786Y04134*
X03779Y04141*
X0377Y04146*
X0376Y04149*
G37*
G36*
X03694Y04105D02*
X0366D01*
Y0407*
X03694*
Y04105*
G37*
G36*
X0365D02*
X03615D01*
Y0407*
X0365*
Y04105*
G37*
G36*
X0021Y04102D02*
X0021D01*
Y04065*
X00247*
Y04065*
X00244Y04076*
X00238Y04086*
X00231Y04093*
X00221Y04099*
X0021Y04102*
G37*
G36*
X002D02*
X00199D01*
X00188Y04099*
X00178Y04093*
X00171Y04086*
X00165Y04076*
X00162Y04065*
Y04065*
X002*
Y04102*
G37*
G36*
X04679Y0503D02*
X0451D01*
X04506Y05029*
X04502Y05027*
X045Y05023*
X04499Y0502*
Y0407*
X045Y04066*
X04502Y04062*
X04506Y0406*
X0451Y04059*
X04535*
X04535Y04059*
X04536Y04059*
X04537Y0406*
X04539Y0406*
X04539Y0406*
X0454Y04061*
X04541Y04062*
X04542Y04062*
X04542Y04063*
X04543Y04063*
X04543Y04064*
X04544Y04066*
X04544Y04066*
X04545Y04067*
X04546Y04071*
X04549Y0407*
X0456*
X04563Y04071*
X04564Y04067*
X04565Y04066*
X04565Y04066*
X04566Y04064*
X04566Y04063*
X04567Y04063*
X04567Y04062*
X04568Y04062*
X04569Y04061*
X0457Y0406*
X0457Y0406*
X04572Y0406*
X04573Y04059*
X04574Y04059*
X04574Y04059*
X04665*
X04668Y0406*
X04672Y04062*
X04674Y04066*
X04675Y0407*
Y04655*
X04739*
Y04734*
X04675*
Y04924*
X04681*
X04683Y04925*
X04684Y04925*
X04685Y04925*
X04685Y04925*
X04686Y04926*
X04688Y04927*
X04688Y04927*
X04689Y04927*
X04689Y04929*
X0469Y0493*
X04693Y04934*
X04693Y04934*
X04693Y04935*
X04693Y04936*
X04694Y04938*
X04699Y04939*
X04763*
Y05018*
X04694*
X04693Y05019*
X04693Y05021*
X04693Y05021*
X04693Y05021*
X04692Y05023*
X04691Y05025*
X04691Y05025*
X04691Y05025*
X04689Y05026*
X04688Y05027*
X04684Y05029*
X04683Y05029*
X04683Y05029*
X04681Y05029*
X0468Y0503*
X0468Y0503*
X04679Y0503*
G37*
G36*
X00247Y04055D02*
X0021D01*
Y04017*
X0021*
X00221Y0402*
X00231Y04026*
X00238Y04033*
X00244Y04043*
X00247Y04054*
Y04055*
G37*
G36*
X002D02*
X00162D01*
Y04054*
X00165Y04043*
X00171Y04033*
X00178Y04026*
X00188Y0402*
X00199Y04017*
X002*
Y04055*
G37*
G36*
X06129Y03989D02*
X0605D01*
Y0391*
X06129*
Y03989*
G37*
G36*
X06679Y03957D02*
X0667D01*
X0666Y03955*
X06651Y0395*
X06644Y03943*
X0664Y03934*
X06637Y03924*
Y03915*
X0664Y03905*
X06644Y03896*
X06651Y03889*
X0666Y03885*
X0667Y03882*
X06679*
X06689Y03885*
X06698Y03889*
X06705Y03896*
X0671Y03905*
X06712Y03915*
Y03924*
X0671Y03934*
X06705Y03943*
X06698Y0395*
X06689Y03955*
X06679Y03957*
G37*
G36*
X0886Y03859D02*
Y0383D01*
X08889*
X08887Y03838*
X08883Y03846*
X08876Y03853*
X08868Y03857*
X0886Y03859*
G37*
G36*
X0885D02*
X08841Y03857D01*
X08833Y03853*
X08826Y03846*
X08822Y03838*
X0882Y0383*
X0885*
Y03859*
G37*
G36*
X07035Y03889D02*
X06955D01*
Y0381*
X07035*
Y03889*
G37*
G36*
X06095D02*
X06084D01*
X06074Y03886*
X06065Y03881*
X06058Y03874*
X06053Y03865*
X0605Y03855*
Y03844*
X06053Y03834*
X06058Y03825*
X06065Y03818*
X06074Y03813*
X06084Y0381*
X06095*
X06105Y03813*
X06114Y03818*
X06121Y03825*
X06126Y03834*
X06129Y03844*
Y03855*
X06126Y03865*
X06121Y03874*
X06114Y03881*
X06105Y03886*
X06095Y03889*
G37*
G36*
X03107Y03845D02*
X03107D01*
Y0381*
X03142*
Y0381*
X03139Y0382*
X03134Y03829*
X03127Y03837*
X03117Y03842*
X03107Y03845*
G37*
G36*
X03097D02*
X03096D01*
X03086Y03842*
X03077Y03837*
X03069Y03829*
X03064Y0382*
X03061Y0381*
Y0381*
X03097*
Y03845*
G37*
G36*
X08889Y0382D02*
X0886D01*
Y0379*
X08868Y03792*
X08876Y03796*
X08883Y03803*
X08887Y03811*
X08889Y0382*
G37*
G36*
X0885D02*
X0882D01*
X08822Y03811*
X08826Y03803*
X08833Y03796*
X08841Y03792*
X0885Y0379*
Y0382*
G37*
G36*
X04907Y03845D02*
X04896D01*
X04886Y03842*
X04877Y03837*
X04869Y03829*
X04864Y0382*
X04861Y0381*
Y03799*
X04864Y03789*
X04869Y0378*
X04877Y03772*
X04886Y03767*
X04896Y03764*
X04907*
X04917Y03767*
X04927Y03772*
X04934Y0378*
X04939Y03789*
X04942Y03799*
Y0381*
X04939Y0382*
X04934Y03829*
X04927Y03837*
X04917Y03842*
X04907Y03845*
G37*
G36*
X04807D02*
X04796D01*
X04786Y03842*
X04777Y03837*
X04769Y03829*
X04764Y0382*
X04761Y0381*
Y03799*
X04764Y03789*
X04769Y0378*
X04777Y03772*
X04786Y03767*
X04796Y03764*
X04807*
X04817Y03767*
X04827Y03772*
X04834Y0378*
X04839Y03789*
X04842Y03799*
Y0381*
X04839Y0382*
X04834Y03829*
X04827Y03837*
X04817Y03842*
X04807Y03845*
G37*
G36*
X04707D02*
X04696D01*
X04686Y03842*
X04677Y03837*
X04669Y03829*
X04664Y0382*
X04661Y0381*
Y03799*
X04664Y03789*
X04669Y0378*
X04677Y03772*
X04686Y03767*
X04696Y03764*
X04707*
X04717Y03767*
X04727Y03772*
X04734Y0378*
X04739Y03789*
X04742Y03799*
Y0381*
X04739Y0382*
X04734Y03829*
X04727Y03837*
X04717Y03842*
X04707Y03845*
G37*
G36*
X04607D02*
X04596D01*
X04586Y03842*
X04577Y03837*
X04569Y03829*
X04564Y0382*
X04561Y0381*
Y03799*
X04564Y03789*
X04569Y0378*
X04577Y03772*
X04586Y03767*
X04596Y03764*
X04607*
X04617Y03767*
X04627Y03772*
X04634Y0378*
X04639Y03789*
X04642Y03799*
Y0381*
X04639Y0382*
X04634Y03829*
X04627Y03837*
X04617Y03842*
X04607Y03845*
G37*
G36*
X04507D02*
X04496D01*
X04486Y03842*
X04477Y03837*
X04469Y03829*
X04464Y0382*
X04461Y0381*
Y03799*
X04464Y03789*
X04469Y0378*
X04477Y03772*
X04486Y03767*
X04496Y03764*
X04507*
X04517Y03767*
X04527Y03772*
X04534Y0378*
X04539Y03789*
X04542Y03799*
Y0381*
X04539Y0382*
X04534Y03829*
X04527Y03837*
X04517Y03842*
X04507Y03845*
G37*
G36*
X04407D02*
X04396D01*
X04386Y03842*
X04377Y03837*
X04369Y03829*
X04364Y0382*
X04361Y0381*
Y03799*
X04364Y03789*
X04369Y0378*
X04377Y03772*
X04386Y03767*
X04396Y03764*
X04407*
X04417Y03767*
X04427Y03772*
X04434Y0378*
X04439Y03789*
X04442Y03799*
Y0381*
X04439Y0382*
X04434Y03829*
X04427Y03837*
X04417Y03842*
X04407Y03845*
G37*
G36*
X04307D02*
X04296D01*
X04286Y03842*
X04277Y03837*
X04269Y03829*
X04264Y0382*
X04261Y0381*
Y03799*
X04264Y03789*
X04269Y0378*
X04277Y03772*
X04286Y03767*
X04296Y03764*
X04307*
X04317Y03767*
X04327Y03772*
X04334Y0378*
X04339Y03789*
X04342Y03799*
Y0381*
X04339Y0382*
X04334Y03829*
X04327Y03837*
X04317Y03842*
X04307Y03845*
G37*
G36*
X04207D02*
X04196D01*
X04186Y03842*
X04177Y03837*
X04169Y03829*
X04164Y0382*
X04161Y0381*
Y03799*
X04164Y03789*
X04169Y0378*
X04177Y03772*
X04186Y03767*
X04196Y03764*
X04207*
X04217Y03767*
X04227Y03772*
X04234Y0378*
X04239Y03789*
X04242Y03799*
Y0381*
X04239Y0382*
X04234Y03829*
X04227Y03837*
X04217Y03842*
X04207Y03845*
G37*
G36*
X04107D02*
X04096D01*
X04086Y03842*
X04077Y03837*
X04069Y03829*
X04064Y0382*
X04061Y0381*
Y03799*
X04064Y03789*
X04069Y0378*
X04077Y03772*
X04086Y03767*
X04096Y03764*
X04107*
X04117Y03767*
X04127Y03772*
X04134Y0378*
X04139Y03789*
X04142Y03799*
Y0381*
X04139Y0382*
X04134Y03829*
X04127Y03837*
X04117Y03842*
X04107Y03845*
G37*
G36*
X04007D02*
X03996D01*
X03986Y03842*
X03977Y03837*
X03969Y03829*
X03964Y0382*
X03961Y0381*
Y03799*
X03964Y03789*
X03969Y0378*
X03977Y03772*
X03986Y03767*
X03996Y03764*
X04007*
X04017Y03767*
X04027Y03772*
X04034Y0378*
X04039Y03789*
X04042Y03799*
Y0381*
X04039Y0382*
X04034Y03829*
X04027Y03837*
X04017Y03842*
X04007Y03845*
G37*
G36*
X03907D02*
X03896D01*
X03886Y03842*
X03877Y03837*
X03869Y03829*
X03864Y0382*
X03861Y0381*
Y03799*
X03864Y03789*
X03869Y0378*
X03877Y03772*
X03886Y03767*
X03896Y03764*
X03907*
X03917Y03767*
X03927Y03772*
X03934Y0378*
X03939Y03789*
X03942Y03799*
Y0381*
X03939Y0382*
X03934Y03829*
X03927Y03837*
X03917Y03842*
X03907Y03845*
G37*
G36*
X03807D02*
X03796D01*
X03786Y03842*
X03777Y03837*
X03769Y03829*
X03764Y0382*
X03761Y0381*
Y03799*
X03764Y03789*
X03769Y0378*
X03777Y03772*
X03786Y03767*
X03796Y03764*
X03807*
X03817Y03767*
X03827Y03772*
X03834Y0378*
X03839Y03789*
X03842Y03799*
Y0381*
X03839Y0382*
X03834Y03829*
X03827Y03837*
X03817Y03842*
X03807Y03845*
G37*
G36*
X03707D02*
X03696D01*
X03686Y03842*
X03677Y03837*
X03669Y03829*
X03664Y0382*
X03661Y0381*
Y03799*
X03664Y03789*
X03669Y0378*
X03677Y03772*
X03686Y03767*
X03696Y03764*
X03707*
X03717Y03767*
X03727Y03772*
X03734Y0378*
X03739Y03789*
X03742Y03799*
Y0381*
X03739Y0382*
X03734Y03829*
X03727Y03837*
X03717Y03842*
X03707Y03845*
G37*
G36*
X03607D02*
X03596D01*
X03586Y03842*
X03577Y03837*
X03569Y03829*
X03564Y0382*
X03561Y0381*
Y03799*
X03564Y03789*
X03569Y0378*
X03577Y03772*
X03586Y03767*
X03596Y03764*
X03607*
X03617Y03767*
X03627Y03772*
X03634Y0378*
X03639Y03789*
X03642Y03799*
Y0381*
X03639Y0382*
X03634Y03829*
X03627Y03837*
X03617Y03842*
X03607Y03845*
G37*
G36*
X03507D02*
X03496D01*
X03486Y03842*
X03477Y03837*
X03469Y03829*
X03464Y0382*
X03461Y0381*
Y03799*
X03464Y03789*
X03469Y0378*
X03477Y03772*
X03486Y03767*
X03496Y03764*
X03507*
X03517Y03767*
X03527Y03772*
X03534Y0378*
X03539Y03789*
X03542Y03799*
Y0381*
X03539Y0382*
X03534Y03829*
X03527Y03837*
X03517Y03842*
X03507Y03845*
G37*
G36*
X03407D02*
X03396D01*
X03386Y03842*
X03377Y03837*
X03369Y03829*
X03364Y0382*
X03361Y0381*
Y03799*
X03364Y03789*
X03369Y0378*
X03377Y03772*
X03386Y03767*
X03396Y03764*
X03407*
X03417Y03767*
X03427Y03772*
X03434Y0378*
X03439Y03789*
X03442Y03799*
Y0381*
X03439Y0382*
X03434Y03829*
X03427Y03837*
X03417Y03842*
X03407Y03845*
G37*
G36*
X03142Y038D02*
X03107D01*
Y03764*
X03107*
X03117Y03767*
X03127Y03772*
X03134Y0378*
X03139Y03789*
X03142Y03799*
Y038*
G37*
G36*
X03097D02*
X03061D01*
Y03799*
X03064Y03789*
X03069Y0378*
X03077Y03772*
X03086Y03767*
X03096Y03764*
X03097*
Y038*
G37*
G36*
X00252Y03837D02*
X00167D01*
Y03752*
X00252*
Y03837*
G37*
G36*
X06095Y03789D02*
X06084D01*
X06074Y03786*
X06065Y03781*
X06058Y03774*
X06053Y03765*
X0605Y03755*
Y03744*
X06053Y03734*
X06058Y03725*
X06065Y03718*
X06074Y03713*
X06084Y0371*
X06095*
X06105Y03713*
X06114Y03718*
X06121Y03725*
X06126Y03734*
X06129Y03744*
Y03755*
X06126Y03765*
X06121Y03774*
X06114Y03781*
X06105Y03786*
X06095Y03789*
G37*
G36*
X08681Y03935D02*
X08668D01*
X08655Y03931*
X08644Y03925*
X08634Y03915*
X08628Y03904*
X08624Y03891*
Y03878*
X08628Y03865*
X08634Y03854*
X08644Y03844*
X08655Y03838*
X08658Y03837*
Y03832*
X08655Y03831*
X08644Y03825*
X08634Y03815*
X08628Y03804*
X08624Y03791*
Y03778*
X08628Y03765*
X08634Y03754*
X08644Y03744*
X08652Y0374*
X08651Y03735*
X08624*
Y0369*
X08675*
X08725*
Y03735*
X08698*
X08697Y0374*
X08705Y03744*
X08715Y03754*
X08721Y03765*
X08725Y03778*
Y03791*
X08721Y03804*
X08715Y03815*
X08705Y03825*
X08694Y03831*
X08691Y03832*
Y03837*
X08694Y03838*
X08705Y03844*
X08715Y03854*
X08721Y03865*
X08725Y03878*
Y03891*
X08721Y03904*
X08715Y03915*
X08705Y03925*
X08694Y03931*
X08681Y03935*
G37*
G36*
X06095Y03689D02*
X06095D01*
Y03655*
X06129*
Y03655*
X06126Y03665*
X06121Y03674*
X06114Y03681*
X06105Y03686*
X06095Y03689*
G37*
G36*
X06085D02*
X06084D01*
X06074Y03686*
X06065Y03681*
X06058Y03674*
X06053Y03665*
X0605Y03655*
Y03655*
X06085*
Y03689*
G37*
G36*
X08725Y0368D02*
X0868D01*
Y03634*
X08725*
Y0368*
G37*
G36*
X0867D02*
X08624D01*
Y03634*
X0867*
Y0368*
G37*
G36*
X06129Y03645D02*
X06095D01*
Y0361*
X06095*
X06105Y03613*
X06114Y03618*
X06121Y03625*
X06126Y03634*
X06129Y03644*
Y03645*
G37*
G36*
X06085D02*
X0605D01*
Y03644*
X06053Y03634*
X06058Y03625*
X06065Y03618*
X06074Y03613*
X06084Y0361*
X06085*
Y03645*
G37*
G36*
X00215Y03637D02*
X00215D01*
Y036*
X00252*
Y036*
X00249Y03611*
X00243Y03621*
X00236Y03628*
X00226Y03634*
X00215Y03637*
G37*
G36*
X00205D02*
X00204D01*
X00193Y03634*
X00183Y03628*
X00176Y03621*
X0017Y03611*
X00167Y036*
Y036*
X00205*
Y03637*
G37*
G36*
X06679Y03657D02*
X0667D01*
X0666Y03655*
X06651Y0365*
X06644Y03643*
X0664Y03634*
X06637Y03624*
Y03615*
X0664Y03605*
X06644Y03596*
X06651Y03589*
X0666Y03585*
X0667Y03582*
X06679*
X06689Y03585*
X06698Y03589*
X06705Y03596*
X0671Y03605*
X06712Y03615*
Y03624*
X0671Y03634*
X06705Y03643*
X06698Y0365*
X06689Y03655*
X06679Y03657*
G37*
G36*
X00252Y0359D02*
X00215D01*
Y03552*
X00215*
X00226Y03555*
X00236Y03561*
X00243Y03568*
X00249Y03578*
X00252Y03589*
Y0359*
G37*
G36*
X00205D02*
X00167D01*
Y03589*
X0017Y03578*
X00176Y03568*
X00183Y03561*
X00193Y03555*
X00204Y03552*
X00205*
Y0359*
G37*
G36*
X0886Y03574D02*
Y03545D01*
X08889*
X08887Y03553*
X08883Y03561*
X08876Y03568*
X08868Y03572*
X0886Y03574*
G37*
G36*
X0885D02*
X08841Y03572D01*
X08833Y03568*
X08826Y03561*
X08822Y03553*
X0882Y03545*
X0885*
Y03574*
G37*
G36*
X0857D02*
Y03545D01*
X08599*
X08597Y03553*
X08593Y03561*
X08586Y03568*
X08578Y03572*
X0857Y03574*
G37*
G36*
X0856D02*
X08551Y03572D01*
X08543Y03568*
X08536Y03561*
X08532Y03553*
X0853Y03545*
X0856*
Y03574*
G37*
G36*
X0831D02*
Y03545D01*
X08339*
X08337Y03553*
X08333Y03561*
X08326Y03568*
X08318Y03572*
X0831Y03574*
G37*
G36*
X083D02*
X08291Y03572D01*
X08283Y03568*
X08276Y03561*
X08272Y03553*
X0827Y03545*
X083*
Y03574*
G37*
G36*
X0805D02*
Y03545D01*
X08079*
X08077Y03553*
X08073Y03561*
X08066Y03568*
X08058Y03572*
X0805Y03574*
G37*
G36*
X0804D02*
X08031Y03572D01*
X08023Y03568*
X08016Y03561*
X08012Y03553*
X0801Y03545*
X0804*
Y03574*
G37*
G36*
X0779D02*
Y03545D01*
X07819*
X07817Y03553*
X07813Y03561*
X07806Y03568*
X07798Y03572*
X0779Y03574*
G37*
G36*
X0778D02*
X07771Y03572D01*
X07763Y03568*
X07756Y03561*
X07752Y03553*
X0775Y03545*
X0778*
Y03574*
G37*
G36*
X0753D02*
Y03545D01*
X07559*
X07557Y03553*
X07553Y03561*
X07546Y03568*
X07538Y03572*
X0753Y03574*
G37*
G36*
X0752D02*
X07511Y03572D01*
X07503Y03568*
X07496Y03561*
X07492Y03553*
X0749Y03545*
X0752*
Y03574*
G37*
G36*
X0727D02*
Y03545D01*
X07299*
X07297Y03553*
X07293Y03561*
X07286Y03568*
X07278Y03572*
X0727Y03574*
G37*
G36*
X0726D02*
X07251Y03572D01*
X07243Y03568*
X07236Y03561*
X07232Y03553*
X0723Y03545*
X0726*
Y03574*
G37*
G36*
X0701D02*
Y03545D01*
X07039*
X07037Y03553*
X07033Y03561*
X07026Y03568*
X07018Y03572*
X0701Y03574*
G37*
G36*
X07D02*
X06991Y03572D01*
X06983Y03568*
X06976Y03561*
X06972Y03553*
X0697Y03545*
X07*
Y03574*
G37*
G36*
X07559Y03535D02*
X0753D01*
Y03505*
X07538Y03507*
X07546Y03511*
X07553Y03518*
X07557Y03526*
X07559Y03535*
G37*
G36*
X0752D02*
X0749D01*
X07492Y03526*
X07496Y03518*
X07503Y03511*
X07511Y03507*
X0752Y03505*
Y03535*
G37*
G36*
X07299D02*
X0727D01*
Y03505*
X07278Y03507*
X07286Y03511*
X07293Y03518*
X07297Y03526*
X07299Y03535*
G37*
G36*
X0726D02*
X0723D01*
X07232Y03526*
X07236Y03518*
X07243Y03511*
X07251Y03507*
X0726Y03505*
Y03535*
G37*
G36*
X07039D02*
X0701D01*
Y03505*
X07018Y03507*
X07026Y03511*
X07033Y03518*
X07037Y03526*
X07039Y03535*
G37*
G36*
X07D02*
X0697D01*
X06972Y03526*
X06976Y03518*
X06983Y03511*
X06991Y03507*
X07Y03505*
Y03535*
G37*
G36*
X01477Y03479D02*
Y03448D01*
X01508*
X01505Y03457*
X01501Y03465*
X01494Y03472*
X01486Y03476*
X01477Y03479*
G37*
G36*
X01467D02*
X01458Y03476D01*
X0145Y03472*
X01443Y03465*
X01439Y03457*
X01436Y03448*
X01467*
Y03479*
G37*
G36*
X01508Y03438D02*
X01477D01*
Y03407*
X01486Y0341*
X01494Y03415*
X01501Y03421*
X01505Y03429*
X01508Y03438*
G37*
G36*
X01467D02*
X01436D01*
X01439Y03429*
X01443Y03421*
X0145Y03415*
X01458Y0341*
X01467Y03407*
Y03438*
G37*
G36*
X01744Y03479D02*
X01672D01*
Y03407*
X01744*
Y03479*
G37*
G36*
X01634D02*
X01625D01*
X01616Y03476*
X01608Y03472*
X01601Y03465*
X01596Y03457*
X01594Y03448*
Y03438*
X01596Y03429*
X01601Y03421*
X01608Y03415*
X01616Y0341*
X01625Y03407*
X01634*
X01643Y0341*
X01651Y03415*
X01658Y03421*
X01663Y03429*
X01665Y03438*
Y03448*
X01663Y03457*
X01658Y03465*
X01651Y03472*
X01643Y03476*
X01634Y03479*
G37*
G36*
X01555D02*
X01546D01*
X01537Y03476*
X01529Y03472*
X01522Y03465*
X01517Y03457*
X01515Y03448*
Y03438*
X01517Y03429*
X01522Y03421*
X01529Y03415*
X01537Y0341*
X01546Y03407*
X01555*
X01565Y0341*
X01573Y03415*
X01579Y03421*
X01584Y03429*
X01587Y03438*
Y03448*
X01584Y03457*
X01579Y03465*
X01573Y03472*
X01565Y03476*
X01555Y03479*
G37*
G36*
X01177Y03101D02*
X01054D01*
Y02978*
X01177*
Y03101*
G37*
G36*
X01044D02*
X00921D01*
Y02978*
X01044*
Y03101*
G37*
G36*
X02268D02*
X02012D01*
Y02845*
X02268*
Y03101*
G37*
G36*
X01177Y02968D02*
X01054D01*
Y02845*
X01177*
Y02968*
G37*
G36*
X01044D02*
X00921D01*
Y02845*
X01044*
Y02968*
G37*
G36*
X0496Y02875D02*
X04845D01*
X04841Y02874*
X04837Y02872*
X04835Y02868*
X04834Y02865*
Y02836*
X04829Y02834*
X04827Y02837*
X04817Y02842*
X04807Y02845*
X04796*
X04786Y02842*
X04777Y02837*
X04769Y02829*
X04764Y0282*
X04761Y0281*
Y02799*
X04764Y02789*
X04769Y0278*
X04777Y02772*
X04786Y02767*
X04796Y02764*
X04807*
X04817Y02767*
X04827Y02772*
X04829Y02775*
X04834Y02773*
Y02485*
X04265*
X04265Y02485*
X04265Y02485*
X04263Y02484*
X04261Y02484*
X04261Y02484*
X04261Y02484*
X0426Y02483*
X04258Y02482*
X04258Y02482*
X04258Y02482*
X04257Y0248*
X04257Y0248*
X04256Y02479*
X04256Y02479*
X04256Y02478*
X04256Y02478*
X04256Y02478*
X04256Y02478*
X04255Y02477*
X04253Y02474*
X04252Y02473*
X04251Y02473*
X04238*
X04237Y02473*
X04236Y02474*
X04234Y02477*
X04233Y02478*
X04233Y02478*
X04233Y02478*
X04233Y02478*
X04233Y02479*
X04233Y02479*
X04232Y0248*
X04232Y0248*
X04231Y02482*
X04231Y02482*
X04231Y02482*
X04229Y02483*
X04228Y02484*
X04228Y02484*
X04228Y02484*
X04226Y02484*
X04224Y02485*
X04224Y02485*
X04224Y02485*
X04045*
X04041Y02484*
X04037Y02482*
X04035Y02478*
X04034Y02475*
Y0247*
Y0223*
X04035Y02226*
X04037Y02222*
X04041Y0222*
X04045Y02219*
X0496*
X04963Y0222*
X04967Y02222*
X04969Y02226*
X0497Y0223*
Y02865*
X04969Y02868*
X04967Y02872*
X04963Y02874*
X0496Y02875*
G37*
G36*
X03307Y03845D02*
X03296D01*
X03286Y03842*
X03277Y03837*
X03269Y03829*
X03264Y0382*
X03261Y0381*
Y03799*
X03264Y03789*
X03269Y0378*
X03277Y03772*
X03286Y03767*
X03286Y03766*
Y03677*
X03287Y03672*
X03291Y03667*
X03739Y03218*
Y0283*
X03734Y02829*
X03734Y02829*
X03727Y02837*
X03717Y02842*
X03707Y02845*
X03696*
X03686Y02842*
X03677Y02837*
X03669Y02829*
X03664Y0282*
X03661Y0281*
Y02799*
X03664Y02789*
X03669Y0278*
X03677Y02772*
X03686Y02767*
X03696Y02764*
X03707*
X03717Y02767*
X03727Y02772*
X03734Y0278*
X03734Y0278*
X03739Y02779*
Y02556*
X03548Y02365*
X03457*
X03457Y02365*
X03452Y02374*
X03444Y02382*
X03435Y02387*
X03425Y0239*
X03414*
X03404Y02387*
X03395Y02382*
X03387Y02374*
X03382Y02365*
X03379Y02355*
Y02344*
X03382Y02334*
X03387Y02325*
X03395Y02317*
X03404Y02312*
X03414Y02309*
X03425*
X03435Y02312*
X03444Y02317*
X03452Y02325*
X03457Y02334*
X03457Y02334*
X03555*
X0356Y02335*
X03565Y02339*
X03765Y02539*
X03769Y02544*
X0377Y0255*
Y02772*
X03774Y02774*
X03777Y02772*
X03786Y02767*
X03796Y02764*
X03807*
X03817Y02767*
X03827Y02772*
X03834Y0278*
X03839Y02789*
X03842Y02799*
Y0281*
X03839Y0282*
X03834Y02829*
X03827Y02837*
X03817Y02842*
X03807Y02845*
X03796*
X03786Y02842*
X03777Y02837*
X03774Y02835*
X0377Y02837*
Y03225*
X03769Y0323*
X03765Y03235*
X03317Y03684*
Y03766*
X03317Y03767*
X03327Y03772*
X03334Y0378*
X03339Y03789*
X03342Y03799*
Y0381*
X03339Y0382*
X03334Y03829*
X03327Y03837*
X03317Y03842*
X03307Y03845*
G37*
G36*
X04707Y02845D02*
X04696D01*
X04686Y02842*
X04677Y02837*
X04669Y02829*
X04664Y0282*
X04661Y0281*
Y02799*
X04664Y02789*
X04669Y0278*
X04677Y02772*
X04686Y02767*
X04696Y02764*
X04707*
X04717Y02767*
X04727Y02772*
X04734Y0278*
X04739Y02789*
X04742Y02799*
Y0281*
X04739Y0282*
X04734Y02829*
X04727Y02837*
X04717Y02842*
X04707Y02845*
G37*
G36*
X04607D02*
X04596D01*
X04586Y02842*
X04577Y02837*
X04569Y02829*
X04564Y0282*
X04561Y0281*
Y02799*
X04564Y02789*
X04569Y0278*
X04577Y02772*
X04586Y02767*
X04596Y02764*
X04607*
X04617Y02767*
X04627Y02772*
X04634Y0278*
X04639Y02789*
X04642Y02799*
Y0281*
X04639Y0282*
X04634Y02829*
X04627Y02837*
X04617Y02842*
X04607Y02845*
G37*
G36*
X04507D02*
X04496D01*
X04486Y02842*
X04477Y02837*
X04469Y02829*
X04464Y0282*
X04461Y0281*
Y02799*
X04464Y02789*
X04469Y0278*
X04477Y02772*
X04486Y02767*
X04496Y02764*
X04507*
X04517Y02767*
X04527Y02772*
X04534Y0278*
X04539Y02789*
X04542Y02799*
Y0281*
X04539Y0282*
X04534Y02829*
X04527Y02837*
X04517Y02842*
X04507Y02845*
G37*
G36*
X04407D02*
X04396D01*
X04386Y02842*
X04377Y02837*
X04369Y02829*
X04364Y0282*
X04361Y0281*
Y02799*
X04364Y02789*
X04369Y0278*
X04377Y02772*
X04386Y02767*
X04396Y02764*
X04407*
X04417Y02767*
X04427Y02772*
X04434Y0278*
X04439Y02789*
X04442Y02799*
Y0281*
X04439Y0282*
X04434Y02829*
X04427Y02837*
X04417Y02842*
X04407Y02845*
G37*
G36*
X04207D02*
X04196D01*
X04186Y02842*
X04177Y02837*
X04169Y02829*
X04164Y0282*
X04161Y0281*
Y02799*
X04164Y02789*
X04169Y0278*
X04177Y02772*
X04186Y02767*
X04196Y02764*
X04207*
X04217Y02767*
X04227Y02772*
X04234Y0278*
X04239Y02789*
X04242Y02799*
Y0281*
X04239Y0282*
X04234Y02829*
X04227Y02837*
X04217Y02842*
X04207Y02845*
G37*
G36*
X04107D02*
X04096D01*
X04086Y02842*
X04077Y02837*
X04069Y02829*
X04064Y0282*
X04061Y0281*
Y02799*
X04064Y02789*
X04069Y0278*
X04077Y02772*
X04086Y02767*
X04096Y02764*
X04107*
X04117Y02767*
X04127Y02772*
X04134Y0278*
X04139Y02789*
X04142Y02799*
Y0281*
X04139Y0282*
X04134Y02829*
X04127Y02837*
X04117Y02842*
X04107Y02845*
G37*
G36*
X04007D02*
X03996D01*
X03986Y02842*
X03977Y02837*
X03969Y02829*
X03964Y0282*
X03961Y0281*
Y02799*
X03964Y02789*
X03969Y0278*
X03977Y02772*
X03986Y02767*
X03996Y02764*
X04007*
X04017Y02767*
X04027Y02772*
X04034Y0278*
X04039Y02789*
X04042Y02799*
Y0281*
X04039Y0282*
X04034Y02829*
X04027Y02837*
X04017Y02842*
X04007Y02845*
G37*
G36*
X03907D02*
X03896D01*
X03886Y02842*
X03877Y02837*
X03869Y02829*
X03864Y0282*
X03861Y0281*
Y02799*
X03864Y02789*
X03869Y0278*
X03877Y02772*
X03886Y02767*
X03896Y02764*
X03907*
X03917Y02767*
X03927Y02772*
X03934Y0278*
X03939Y02789*
X03942Y02799*
Y0281*
X03939Y0282*
X03934Y02829*
X03927Y02837*
X03917Y02842*
X03907Y02845*
G37*
G36*
X03607D02*
X03596D01*
X03586Y02842*
X03577Y02837*
X03569Y02829*
X03564Y0282*
X03561Y0281*
Y02799*
X03564Y02789*
X03569Y0278*
X03577Y02772*
X03586Y02767*
X03596Y02764*
X03607*
X03617Y02767*
X03627Y02772*
X03634Y0278*
X03639Y02789*
X03642Y02799*
Y0281*
X03639Y0282*
X03634Y02829*
X03627Y02837*
X03617Y02842*
X03607Y02845*
G37*
G36*
X03507D02*
X03496D01*
X03486Y02842*
X03477Y02837*
X03469Y02829*
X03464Y0282*
X03461Y0281*
Y02799*
X03464Y02789*
X03469Y0278*
X03477Y02772*
X03486Y02767*
X03496Y02764*
X03507*
X03517Y02767*
X03527Y02772*
X03534Y0278*
X03539Y02789*
X03542Y02799*
Y0281*
X03539Y0282*
X03534Y02829*
X03527Y02837*
X03517Y02842*
X03507Y02845*
G37*
G36*
X03407D02*
X03396D01*
X03386Y02842*
X03377Y02837*
X03369Y02829*
X03364Y0282*
X03361Y0281*
Y02799*
X03364Y02789*
X03369Y0278*
X03377Y02772*
X03386Y02767*
X03396Y02764*
X03407*
X03417Y02767*
X03427Y02772*
X03434Y0278*
X03439Y02789*
X03442Y02799*
Y0281*
X03439Y0282*
X03434Y02829*
X03427Y02837*
X03417Y02842*
X03407Y02845*
G37*
G36*
X03307D02*
X03296D01*
X03286Y02842*
X03277Y02837*
X03269Y02829*
X03264Y0282*
X03261Y0281*
Y02799*
X03264Y02789*
X03269Y0278*
X03277Y02772*
X03286Y02767*
X03296Y02764*
X03307*
X03317Y02767*
X03327Y02772*
X03334Y0278*
X03339Y02789*
X03342Y02799*
Y0281*
X03339Y0282*
X03334Y02829*
X03327Y02837*
X03317Y02842*
X03307Y02845*
G37*
G36*
X03207Y03845D02*
X03196D01*
X03186Y03842*
X03177Y03837*
X03169Y03829*
X03164Y0382*
X03161Y0381*
Y03799*
X03164Y03789*
X03169Y0378*
X03177Y03772*
X03186Y03767*
X03186Y03766*
Y03539*
X03139Y03491*
X03135Y03486*
X03134Y0348*
Y02845*
X03061*
Y02764*
X03134*
Y02395*
X03135Y02389*
X03139Y02384*
X0328Y02243*
X03285Y0224*
X0329Y02238*
X03381*
X03382Y02234*
X03387Y02225*
X03395Y02217*
X03404Y02212*
X03411Y0221*
X03413Y0221*
X03412Y02205*
X03411Y02205*
X03355*
X03351Y02204*
X03347Y02202*
X03345Y02198*
X03344Y02195*
Y01985*
X03345Y01981*
X03347Y01977*
X03351Y01975*
X03355Y01974*
X03382*
X03385Y01969*
X03382Y01965*
X03379Y01955*
Y01944*
X03382Y01934*
X03387Y01925*
X03395Y01917*
X03404Y01912*
X03414Y01909*
X03425*
X03435Y01912*
X03444Y01917*
X03452Y01925*
X03457Y01934*
X0346Y01944*
Y01955*
X03457Y01965*
X03454Y01969*
X03457Y01974*
X0351*
X03513Y01975*
X03517Y01977*
X03519Y01981*
X0352Y01985*
Y02195*
X03519Y02198*
X03517Y02202*
X03513Y02204*
X0351Y02205*
X03428*
X03427Y02205*
X03426Y02209*
X03427Y0221*
X03428Y0221*
X03435Y02212*
X03444Y02217*
X03452Y02225*
X03457Y02234*
X0346Y02244*
Y02255*
X03457Y02265*
X03452Y02274*
X03444Y02282*
X03435Y02287*
X03425Y0229*
X03414*
X03404Y02287*
X03395Y02282*
X03387Y02274*
X03384Y02269*
X03297*
X03165Y02401*
Y02778*
X0317Y02779*
X03177Y02772*
X03186Y02767*
X03196Y02764*
X03207*
X03217Y02767*
X03227Y02772*
X03234Y0278*
X03239Y02789*
X03242Y02799*
Y0281*
X03239Y0282*
X03234Y02829*
X03227Y02837*
X03217Y02842*
X03207Y02845*
X03196*
X03186Y02842*
X03177Y02837*
X0317Y0283*
X03165Y02831*
Y03474*
X03212Y03522*
X03216Y03527*
X03217Y03532*
Y03766*
X03217Y03767*
X03227Y03772*
X03234Y0378*
X03239Y03789*
X03242Y03799*
Y0381*
X03239Y0382*
X03234Y03829*
X03227Y03837*
X03217Y03842*
X03207Y03845*
G37*
G36*
X05477Y02813D02*
X05405D01*
Y02741*
X05477*
Y02813*
G37*
G36*
X05446Y02734D02*
X05436D01*
X05427Y02732*
X05419Y02727*
X05412Y0272*
X05408Y02712*
X05405Y02703*
Y02694*
X05408Y02684*
X05412Y02676*
X05419Y0267*
X05427Y02665*
X05436Y02662*
X05446*
X05455Y02665*
X05463Y0267*
X05469Y02676*
X05474Y02684*
X05477Y02694*
Y02703*
X05474Y02712*
X05469Y0272*
X05463Y02727*
X05455Y02732*
X05446Y02734*
G37*
G36*
X00384Y02707D02*
X00379D01*
Y02584*
X00502*
Y02589*
X00499Y02609*
X00492Y02628*
X00483Y02646*
X00471Y02663*
X00457Y02677*
X00441Y02689*
X00423Y02698*
X00404Y02704*
X00384Y02707*
G37*
G36*
X00369D02*
X00364D01*
X00344Y02704*
X00325Y02698*
X00307Y02689*
X0029Y02677*
X00276Y02663*
X00264Y02646*
X00255Y02628*
X00249Y02609*
X00246Y02589*
Y02584*
X00369*
Y02707*
G37*
G36*
X05446Y02655D02*
X05436D01*
X05427Y02653*
X05419Y02648*
X05412Y02641*
X05408Y02633*
X05405Y02624*
Y02615*
X05408Y02606*
X05412Y02598*
X05419Y02591*
X05427Y02586*
X05436Y02584*
X05446*
X05455Y02586*
X05463Y02591*
X05469Y02598*
X05474Y02606*
X05477Y02615*
Y02624*
X05474Y02633*
X05469Y02641*
X05463Y02648*
X05455Y02653*
X05446Y02655*
G37*
G36*
X05446Y02576D02*
Y02546D01*
X05477*
X05474Y02555*
X05469Y02563*
X05463Y02569*
X05455Y02574*
X05446Y02576*
G37*
G36*
X05436D02*
X05427Y02574D01*
X05419Y02569*
X05412Y02563*
X05408Y02555*
X05405Y02546*
X05436*
Y02576*
G37*
G36*
X05477Y02536D02*
X05446D01*
Y02505*
X05455Y02507*
X05463Y02512*
X05469Y02519*
X05474Y02527*
X05477Y02536*
G37*
G36*
X05436D02*
X05405D01*
X05408Y02527*
X05412Y02519*
X05419Y02512*
X05427Y02507*
X05436Y02505*
Y02536*
G37*
G36*
X00502Y02574D02*
X00379D01*
Y02451*
X00384*
X00404Y02454*
X00423Y0246*
X00441Y0247*
X00457Y02481*
X00471Y02496*
X00483Y02512*
X00492Y0253*
X00499Y02549*
X00502Y02569*
Y02574*
G37*
G36*
X00369D02*
X00246D01*
Y02569*
X00249Y02549*
X00255Y0253*
X00264Y02512*
X00276Y02496*
X0029Y02481*
X00307Y0247*
X00325Y0246*
X00344Y02454*
X00364Y02451*
X00369*
Y02574*
G37*
G36*
X02925Y0239D02*
X02925D01*
Y02355*
X0296*
Y02355*
X02957Y02365*
X02952Y02374*
X02944Y02382*
X02935Y02387*
X02925Y0239*
G37*
G36*
X02915D02*
X02914D01*
X02904Y02387*
X02895Y02382*
X02887Y02374*
X02882Y02365*
X02879Y02355*
Y02355*
X02915*
Y0239*
G37*
G36*
X0296Y02345D02*
X02925D01*
Y02309*
X02925*
X02935Y02312*
X02944Y02317*
X02952Y02325*
X02957Y02334*
X0296Y02344*
Y02345*
G37*
G36*
X02915D02*
X02879D01*
Y02344*
X02882Y02334*
X02887Y02325*
X02895Y02317*
X02904Y02312*
X02914Y02309*
X02915*
Y02345*
G37*
G36*
X02925Y0229D02*
X02914D01*
X02904Y02287*
X02895Y02282*
X02887Y02274*
X02882Y02265*
X02879Y02255*
Y02244*
X02882Y02234*
X02887Y02225*
X02895Y02217*
X02904Y02212*
X02914Y02209*
X02925*
X02935Y02212*
X02944Y02217*
X02952Y02225*
X02957Y02234*
X0296Y02244*
Y02255*
X02957Y02265*
X02952Y02274*
X02944Y02282*
X02935Y02287*
X02925Y0229*
G37*
G36*
X00502Y02424D02*
X00246D01*
Y02168*
X00502*
Y02424*
G37*
G36*
X06049Y02232D02*
X05926D01*
Y02109*
X06049*
Y02232*
G37*
G36*
X05916D02*
X05793D01*
Y02109*
X05916*
Y02232*
G37*
G36*
X06049Y02099D02*
X05926D01*
Y01976*
X06049*
Y02099*
G37*
G36*
X05916D02*
X05793D01*
Y01976*
X05916*
Y02099*
G37*
G36*
X03425Y0189D02*
X03414D01*
X03404Y01887*
X03395Y01882*
X03387Y01874*
X03382Y01865*
X03379Y01855*
Y01844*
X03382Y01834*
X03387Y01825*
X03395Y01817*
X03404Y01812*
X03414Y01809*
X03425*
X03435Y01812*
X03444Y01817*
X03452Y01825*
X03457Y01834*
X0346Y01844*
Y01855*
X03457Y01865*
X03452Y01874*
X03444Y01882*
X03435Y01887*
X03425Y0189*
G37*
G36*
X02925Y0179D02*
X02925D01*
Y01755*
X0296*
Y01755*
X02957Y01765*
X02952Y01774*
X02944Y01782*
X02935Y01787*
X02925Y0179*
G37*
G36*
X02915D02*
X02914D01*
X02904Y01787*
X02895Y01782*
X02887Y01774*
X02882Y01765*
X02879Y01755*
Y01755*
X02915*
Y0179*
G37*
G36*
X03425D02*
X03414D01*
X03404Y01787*
X03395Y01782*
X03387Y01774*
X03382Y01765*
X03379Y01755*
Y01744*
X03382Y01734*
X03387Y01725*
X03395Y01717*
X03404Y01712*
X03414Y01709*
X03425*
X03435Y01712*
X03444Y01717*
X03452Y01725*
X03457Y01734*
X0346Y01744*
Y01755*
X03457Y01765*
X03452Y01774*
X03444Y01782*
X03435Y01787*
X03425Y0179*
G37*
G36*
X0296Y01745D02*
X02925D01*
Y01709*
X02925*
X02935Y01712*
X02944Y01717*
X02952Y01725*
X02957Y01734*
X0296Y01744*
Y01745*
G37*
G36*
X02915D02*
X02879D01*
Y01744*
X02882Y01734*
X02887Y01725*
X02895Y01717*
X02904Y01712*
X02914Y01709*
X02915*
Y01745*
G37*
G36*
X0346Y0169D02*
X03379D01*
Y01609*
X0346*
Y0169*
G37*
G36*
X02925D02*
X02914D01*
X02904Y01687*
X02895Y01682*
X02887Y01674*
X02882Y01665*
X02879Y01655*
Y01644*
X02882Y01634*
X02887Y01625*
X02895Y01617*
X02904Y01612*
X02914Y01609*
X02925*
X02935Y01612*
X02944Y01617*
X02952Y01625*
X02957Y01634*
X0296Y01644*
Y01655*
X02957Y01665*
X02952Y01674*
X02944Y01682*
X02935Y01687*
X02925Y0169*
G37*
G36*
X04293Y01614D02*
X04196D01*
Y01516*
X04293*
Y01614*
G37*
G36*
X0227Y02199D02*
X02257Y02198D01*
X02245Y02193*
X02234Y02185*
Y02185*
X01884Y01834*
X00165*
X00152Y01833*
X0014Y01828*
X00135Y01824*
X0013*
Y0182*
X00129Y0182*
X00121Y01809*
X00116Y01797*
X00115Y01785*
X00116Y01772*
X00121Y0176*
X00129Y01749*
X0013Y01749*
Y01745*
X00135*
X0014Y01741*
X00152Y01736*
X00152Y01736*
X00153Y01731*
X00145Y01728*
X00134Y0172*
X00126Y01709*
X00121Y01697*
X0012Y01685*
X00121Y01672*
X00126Y0166*
X00134Y01649*
X00145Y01641*
X00153Y01638*
X00152Y01633*
X00152Y01633*
X0014Y01628*
X00129Y0162*
X00121Y01609*
X00116Y01597*
X00115Y01585*
X00116Y01572*
X00121Y0156*
X00129Y01549*
X0014Y01541*
X00141Y01541*
Y01535*
X00135Y01533*
X00124Y01525*
X00116Y01514*
X00111Y01502*
X0011Y0149*
X00111Y01477*
X00116Y01465*
X00124Y01454*
X00127Y01452*
X00129Y01449*
X0014Y01441*
X00152Y01436*
X00165Y01435*
X0017*
X00182Y01436*
X0019Y0144*
X01986*
X01999Y01441*
X02011Y01446*
X02021Y01454*
X02367Y018*
X0292*
X02932Y01801*
X02944Y01806*
X02955Y01814*
X02963Y01825*
X02968Y01837*
X02969Y0185*
X02968Y01862*
X02963Y01874*
X02955Y01885*
X02944Y01893*
X02934Y01897*
Y01902*
X02944Y01906*
X02955Y01914*
X02963Y01925*
X02968Y01937*
X02969Y0195*
X02968Y01962*
X02963Y01974*
X02955Y01985*
X02944Y01993*
X02934Y01997*
Y02002*
X02944Y02006*
X02955Y02014*
X02963Y02025*
X02968Y02037*
X02969Y0205*
X02968Y02062*
X02963Y02074*
X02955Y02085*
X02944Y02093*
X02934Y02097*
Y02102*
X02944Y02106*
X02955Y02114*
X02963Y02125*
X02968Y02137*
X02969Y0215*
X02968Y02162*
X02963Y02174*
X02955Y02185*
X02944Y02193*
X02932Y02198*
X0292Y02199*
X0227*
G37*
G36*
X03181Y01318D02*
X03168D01*
X03156Y01315*
X03144Y01309*
X03135Y01299*
X03129Y01288*
X03126Y01276*
Y01263*
X03129Y01251*
X03135Y01239*
X03144Y0123*
X03156Y01224*
X03168Y0122*
X03181*
X03193Y01224*
X03205Y0123*
X03214Y01239*
X0322Y01251*
X03223Y01263*
Y01276*
X0322Y01288*
X03214Y01299*
X03205Y01309*
X03193Y01315*
X03181Y01318*
G37*
G36*
X05467Y01218D02*
X05395D01*
Y01146*
X05467*
Y01218*
G37*
G36*
X05436Y01139D02*
X05426D01*
X05417Y01137*
X05409Y01132*
X05402Y01125*
X05398Y01117*
X05395Y01108*
Y01099*
X05398Y01089*
X05402Y01081*
X05409Y01075*
X05417Y0107*
X05426Y01067*
X05436*
X05445Y0107*
X05453Y01075*
X05459Y01081*
X05464Y01089*
X05467Y01099*
Y01108*
X05464Y01117*
X05459Y01125*
X05453Y01132*
X05445Y01137*
X05436Y01139*
G37*
G36*
Y0106D02*
X05426D01*
X05417Y01058*
X05409Y01053*
X05402Y01046*
X05398Y01038*
X05395Y01029*
Y0102*
X05398Y01011*
X05402Y01003*
X05409Y00996*
X05417Y00991*
X05426Y00989*
X05436*
X05445Y00991*
X05453Y00996*
X05459Y01003*
X05464Y01011*
X05467Y0102*
Y01029*
X05464Y01038*
X05459Y01046*
X05453Y01053*
X05445Y01058*
X05436Y0106*
G37*
G36*
X05436Y00981D02*
Y00951D01*
X05467*
X05464Y0096*
X05459Y00968*
X05453Y00974*
X05445Y00979*
X05436Y00981*
G37*
G36*
X05426D02*
X05417Y00979D01*
X05409Y00974*
X05402Y00968*
X05398Y0096*
X05395Y00951*
X05426*
Y00981*
G37*
G36*
X05467Y00941D02*
X05436D01*
Y0091*
X05445Y00912*
X05453Y00917*
X05459Y00924*
X05464Y00932*
X05467Y00941*
G37*
G36*
X05426D02*
X05395D01*
X05398Y00932*
X05402Y00924*
X05409Y00917*
X05417Y00912*
X05426Y0091*
Y00941*
G37*
G36*
X02268Y00904D02*
X02012D01*
Y00648*
X02268*
Y00904*
G37*
G36*
X01177D02*
X00921D01*
Y00648*
X01177*
Y00904*
G37*
G36*
X06049Y00607D02*
X05926D01*
Y00484*
X06049*
Y00607*
G37*
G36*
X05916D02*
X05793D01*
Y00484*
X05916*
Y00607*
G37*
G36*
X03223Y00459D02*
X03126D01*
Y00361*
X03223*
Y00459*
G37*
G36*
X06049Y00474D02*
X05926D01*
Y00351*
X06049*
Y00474*
G37*
G36*
X05916D02*
X05793D01*
Y00351*
X05916*
Y00474*
G37*
G36*
X04713Y00438D02*
X04708D01*
X04688Y00435*
X04669Y00429*
X04651Y0042*
X04634Y00408*
X0462Y00394*
X04608Y00377*
X04599Y00359*
X04593Y0034*
X0459Y0032*
Y00315*
X04713*
Y00438*
G37*
G36*
X01715Y00287D02*
X01704D01*
X01693Y00284*
X01683Y00278*
X01676Y00271*
X0167Y00261*
X01667Y0025*
Y00239*
X0167Y00228*
X01676Y00218*
X01683Y00211*
X01693Y00205*
X01704Y00202*
X01715*
X01726Y00205*
X01736Y00211*
X01743Y00218*
X01749Y00228*
X01752Y00239*
Y0025*
X01749Y00261*
X01743Y00271*
X01736Y00278*
X01726Y00284*
X01715Y00287*
G37*
G36*
X01552D02*
X01467D01*
Y00202*
X01552*
Y00287*
G37*
G36*
X04713Y00305D02*
X0459D01*
Y003*
X04593Y0028*
X04599Y00261*
X04608Y00243*
X0462Y00227*
X04634Y00213*
X04651Y00201*
X04669Y00192*
X04688Y00185*
X04708Y00182*
X04713*
Y00305*
G37*
G36*
X00207Y00364D02*
X00185D01*
X00164Y00361*
X00142Y00355*
X00122Y00347*
X00103Y00336*
X00086Y00323*
X0007Y00307*
X00057Y0029*
X00046Y00271*
X00037Y0025*
X00032Y00229*
X00029Y00207*
Y00185*
X00032Y00164*
X00037Y00142*
X00046Y00122*
X00057Y00103*
X0007Y00086*
X00086Y0007*
X00103Y00057*
X00122Y00046*
X00142Y00037*
X00164Y00032*
X00185Y00029*
X00207*
X00229Y00032*
X0025Y00037*
X00271Y00046*
X0029Y00057*
X00307Y0007*
X00323Y00086*
X00336Y00103*
X00347Y00122*
X00355Y00142*
X00361Y00164*
X00364Y00185*
Y00207*
X00361Y00229*
X00355Y0025*
X00347Y00271*
X00336Y0029*
X00323Y00307*
X00307Y00323*
X0029Y00336*
X00271Y00347*
X0025Y00355*
X00229Y00361*
X00207Y00364*
G37*
G36*
X08655Y02392D02*
X08654D01*
X08643Y02389*
X08633Y02383*
X08626Y02376*
X0862Y02366*
X08617Y02355*
Y02355*
X08655*
Y02392*
G37*
G36*
Y02345D02*
X08617D01*
Y02344*
X0862Y02333*
X08626Y02323*
X08633Y02316*
X08643Y0231*
X08654Y02307*
X08655*
Y02345*
G37*
G36*
X08246Y02232D02*
X08123D01*
Y02109*
X08246*
Y02232*
G37*
G36*
X08113D02*
X0799D01*
Y02109*
X08113*
Y02232*
G37*
G36*
X08246Y02099D02*
X08123D01*
Y01976*
X08246*
Y02099*
G37*
G36*
X08113D02*
X0799D01*
Y01976*
X08113*
Y02099*
G37*
G36*
X08246Y03323D02*
X08123D01*
Y032*
X08246*
Y03323*
G37*
G36*
X08113D02*
X0799D01*
Y032*
X08113*
Y03323*
G37*
G36*
X08246Y0319D02*
X08123D01*
Y03067*
X08246*
Y0319*
G37*
G36*
X08113D02*
X0799D01*
Y03067*
X08113*
Y0319*
G37*
G36*
X08702Y02192D02*
X08665D01*
Y02155*
X08702*
Y02192*
G37*
G36*
X08655D02*
X08617D01*
Y02155*
X08655*
Y02192*
G37*
G36*
X08702Y02145D02*
X08665D01*
Y02107*
X08702*
Y02145*
G37*
G36*
X08655D02*
X08617D01*
Y02107*
X08655*
Y02145*
G37*
G36*
Y01022D02*
X08654D01*
X08643Y01019*
X08633Y01013*
X08626Y01006*
X0862Y00996*
X08617Y00985*
Y00985*
X08655*
Y01022*
G37*
G36*
Y00975D02*
X08617D01*
Y00974*
X0862Y00963*
X08626Y00953*
X08633Y00946*
X08643Y0094*
X08654Y00937*
X08655*
Y00975*
G37*
G36*
X08246Y00607D02*
X08123D01*
Y00484*
X08246*
Y00607*
G37*
G36*
X08113D02*
X0799D01*
Y00484*
X08113*
Y00607*
G37*
G36*
X08246Y00474D02*
X08123D01*
Y00351*
X08246*
Y00474*
G37*
G36*
X08113D02*
X0799D01*
Y00351*
X08113*
Y00474*
G37*
G36*
X08246Y01698D02*
X08123D01*
Y01575*
X08246*
Y01698*
G37*
G36*
X08113D02*
X0799D01*
Y01575*
X08113*
Y01698*
G37*
G36*
X08246Y01565D02*
X08123D01*
Y01442*
X08246*
Y01565*
G37*
G36*
X08113D02*
X0799D01*
Y01442*
X08113*
Y01565*
G37*
G36*
X08702Y00822D02*
X08665D01*
Y00785*
X08702*
Y00822*
G37*
G36*
X08655D02*
X08617D01*
Y00785*
X08655*
Y00822*
G37*
G36*
X08702Y00775D02*
X08665D01*
Y00737*
X08702*
Y00775*
G37*
G36*
X08655D02*
X08617D01*
Y00737*
X08655*
Y00775*
G37*
G36*
X06049Y03323D02*
X05926D01*
Y032*
X06049*
Y03323*
G37*
G36*
X05916D02*
X05793D01*
Y032*
X05916*
Y03323*
G37*
G36*
X06049Y0319D02*
X05926D01*
Y03067*
X06049*
Y0319*
G37*
G36*
X05916D02*
X05793D01*
Y03067*
X05916*
Y0319*
G37*
G36*
X06049Y01698D02*
X05926D01*
Y01575*
X06049*
Y01698*
G37*
G36*
X05916D02*
X05793D01*
Y01575*
X05916*
Y01698*
G37*
G36*
X06049Y01565D02*
X05926D01*
Y01442*
X06049*
Y01565*
G37*
G36*
X05916D02*
X05793D01*
Y01442*
X05916*
Y01565*
G37*
G36*
X05129Y00438D02*
X05006D01*
Y00315*
X05129*
Y00438*
G37*
G36*
X04996D02*
X04873D01*
Y00315*
X04996*
Y00438*
G37*
G36*
X05129Y00305D02*
X05006D01*
Y00182*
X05129*
Y00305*
G37*
G36*
X04996D02*
X04873D01*
Y00182*
X04996*
Y00305*
G37*
%LNpcb1-3*%
%LPD*%
G36*
X04684Y05018D02*
Y05015D01*
Y04983*
X04723*
Y04973*
X04684*
Y0494*
Y04939*
X04681Y04935*
X04665*
Y04734*
X0466*
Y04655*
X04665*
Y0407*
X04574*
X04573Y04075*
X04579Y04078*
X04586Y04085*
X04591Y04094*
X04594Y04104*
Y04105*
X04515*
Y04104*
X04518Y04094*
X04523Y04085*
X0453Y04078*
X04536Y04075*
X04535Y0407*
X0451*
Y0502*
X04679*
X04684Y05018*
G37*
G36*
X0496Y0223D02*
X04045D01*
Y0247*
Y02475*
X04224*
X04224Y02474*
X04225Y0247*
X04214Y02464*
X04205Y02454*
X04199Y02443*
X04196Y02431*
Y02429*
X04245*
X04293*
Y02431*
X0429Y02443*
X04284Y02454*
X04275Y02464*
X04264Y0247*
X04265Y02474*
X04265Y02475*
X04845*
Y02865*
X0496*
Y0223*
G37*
G36*
X0351Y01985D02*
X03439D01*
X03435Y01987*
X03425Y0199*
X03414*
X03404Y01987*
X034Y01985*
X03355*
Y02195*
X03414*
X03414Y0219*
X03404Y02187*
X03395Y02182*
X03387Y02174*
X03382Y02165*
X03379Y02155*
Y02155*
X0342*
X0346*
Y02155*
X03457Y02165*
X03452Y02174*
X03444Y02182*
X03435Y02187*
X03425Y0219*
X03425Y02195*
X0351*
Y01985*
G37*
%LNpcb1-4*%
%LPC*%
G36*
X0456Y04149D02*
X0456D01*
Y04115*
X04594*
Y04115*
X04591Y04125*
X04586Y04134*
X04579Y04141*
X0457Y04146*
X0456Y04149*
G37*
G36*
X0455D02*
X04549D01*
X04539Y04146*
X0453Y04141*
X04523Y04134*
X04518Y04125*
X04515Y04115*
Y04115*
X0455*
Y04149*
G37*
G36*
X04907Y02845D02*
X04907D01*
Y0281*
X04942*
Y0281*
X04939Y0282*
X04934Y02829*
X04927Y02837*
X04917Y02842*
X04907Y02845*
G37*
G36*
X04897D02*
X04896D01*
X04886Y02842*
X04877Y02837*
X04869Y02829*
X04864Y0282*
X04861Y0281*
Y0281*
X04897*
Y02845*
G37*
G36*
X04942Y028D02*
X04907D01*
Y02764*
X04907*
X04917Y02767*
X04927Y02772*
X04934Y0278*
X04939Y02789*
X04942Y02799*
Y028*
G37*
G36*
X04897D02*
X04861D01*
Y02799*
X04864Y02789*
X04869Y0278*
X04877Y02772*
X04886Y02767*
X04896Y02764*
X04897*
Y028*
G37*
G36*
X04293Y02419D02*
X0425D01*
Y02375*
X04251*
X04263Y02379*
X04275Y02385*
X04284Y02394*
X0429Y02406*
X04293Y02418*
Y02419*
G37*
G36*
X0424D02*
X04196D01*
Y02418*
X04199Y02406*
X04205Y02394*
X04214Y02385*
X04226Y02379*
X04238Y02375*
X0424*
Y02419*
G37*
G36*
X0346Y02145D02*
X0342D01*
X03379*
Y02144*
X03382Y02134*
X03387Y02125*
X03395Y02117*
X03404Y02112*
X03404Y02112*
Y02087*
X03404Y02087*
X03395Y02082*
X03387Y02074*
X03382Y02065*
X03379Y02055*
Y02055*
X0342*
X0346*
Y02055*
X03457Y02065*
X03452Y02074*
X03444Y02082*
X03435Y02087*
X03435Y02087*
Y02112*
X03435Y02112*
X03444Y02117*
X03452Y02125*
X03457Y02134*
X0346Y02144*
Y02145*
G37*
G36*
Y02045D02*
X03425D01*
Y02009*
X03425*
X03435Y02012*
X03444Y02017*
X03452Y02025*
X03457Y02034*
X0346Y02044*
Y02045*
G37*
G36*
X03415D02*
X03379D01*
Y02044*
X03382Y02034*
X03387Y02025*
X03395Y02017*
X03404Y02012*
X03414Y02009*
X03415*
Y02045*
G37*
%LNpcb1-5*%
%LPD*%
G54D11*
X03504Y01627D02*
D01*
X03504Y01628*
X03504Y01628*
X03504Y01628*
X03504Y01629*
X03504Y01629*
X03504Y01629*
X03504Y01629*
X03504Y0163*
X03503Y0163*
X03503Y0163*
X03503Y0163*
X03503Y0163*
X03503Y01631*
X03502Y01631*
X03502Y01631*
X03502Y01631*
X03502Y01631*
X03501Y01631*
X03501Y01631*
X03501Y01631*
X03501Y01631*
X035Y01631*
X035*
X035Y01631*
X035Y01631*
X03499Y01631*
X03499Y01631*
X03499Y01631*
X03498Y01631*
X03498Y01631*
X03498Y01631*
X03498Y01631*
X03498Y0163*
X03497Y0163*
X03497Y0163*
X03497Y0163*
X03497Y0163*
X03497Y01629*
X03497Y01629*
X03497Y01629*
X03496Y01629*
X03496Y01628*
X03496Y01628*
X03496Y01628*
X03496Y01627*
X03496Y01627*
X03496Y01627*
X03496Y01627*
X03496Y01626*
X03497Y01626*
X03497Y01626*
X03497Y01626*
X03497Y01625*
X03497Y01625*
X03497Y01625*
X03497Y01625*
X03498Y01625*
X03498Y01624*
X03498Y01624*
X03498Y01624*
X03498Y01624*
X03499Y01624*
X03499Y01624*
X03499Y01624*
X035Y01624*
X035Y01624*
X035Y01624*
X035*
X03501Y01624*
X03501Y01624*
X03501Y01624*
X03501Y01624*
X03502Y01624*
X03502Y01624*
X03502Y01624*
X03502Y01624*
X03503Y01624*
X03503Y01625*
X03503Y01625*
X03503Y01625*
X03503Y01625*
X03504Y01625*
X03504Y01626*
X03504Y01626*
X03504Y01626*
X03504Y01626*
X03504Y01627*
X03504Y01627*
X03504Y01627*
X03504Y01627*
X08678Y03605D02*
D01*
X08678Y03605*
X08678Y03605*
X08678Y03605*
X08678Y03606*
X08678Y03606*
X08678Y03606*
X08678Y03606*
X08678Y03607*
X08678Y03607*
X08678Y03607*
X08677Y03607*
X08677Y03607*
X08677Y03608*
X08677Y03608*
X08676Y03608*
X08676Y03608*
X08676Y03608*
X08676Y03608*
X08675Y03608*
X08675Y03608*
X08675Y03608*
X08675Y03608*
X08674*
X08674Y03608*
X08674Y03608*
X08674Y03608*
X08673Y03608*
X08673Y03608*
X08673Y03608*
X08673Y03608*
X08672Y03608*
X08672Y03608*
X08672Y03607*
X08672Y03607*
X08671Y03607*
X08671Y03607*
X08671Y03607*
X08671Y03606*
X08671Y03606*
X08671Y03606*
X08671Y03606*
X08671Y03605*
X08671Y03605*
X08671Y03605*
X08671Y03605*
X08671Y03604*
X08671Y03604*
X08671Y03604*
X08671Y03603*
X08671Y03603*
X08671Y03603*
X08671Y03603*
X08671Y03602*
X08671Y03602*
X08671Y03602*
X08672Y03602*
X08672Y03602*
X08672Y03601*
X08672Y03601*
X08673Y03601*
X08673Y03601*
X08673Y03601*
X08673Y03601*
X08674Y03601*
X08674Y03601*
X08674Y03601*
X08674Y03601*
X08675*
X08675Y03601*
X08675Y03601*
X08675Y03601*
X08676Y03601*
X08676Y03601*
X08676Y03601*
X08676Y03601*
X08677Y03601*
X08677Y03601*
X08677Y03602*
X08677Y03602*
X08678Y03602*
X08678Y03602*
X08678Y03602*
X08678Y03603*
X08678Y03603*
X08678Y03603*
X08678Y03603*
X08678Y03604*
X08678Y03604*
X08678Y03604*
X08678Y03605*
X08193Y0614D02*
D01*
X08193Y0614*
X08193Y0614*
X08193Y0614*
X08193Y06141*
X08193Y06141*
X08193Y06141*
X08193Y06141*
X08193Y06142*
X08193Y06142*
X08193Y06142*
X08192Y06142*
X08192Y06142*
X08192Y06143*
X08192Y06143*
X08191Y06143*
X08191Y06143*
X08191Y06143*
X08191Y06143*
X0819Y06143*
X0819Y06143*
X0819Y06143*
X0819Y06143*
X08189*
X08189Y06143*
X08189Y06143*
X08189Y06143*
X08188Y06143*
X08188Y06143*
X08188Y06143*
X08188Y06143*
X08187Y06143*
X08187Y06143*
X08187Y06142*
X08187Y06142*
X08186Y06142*
X08186Y06142*
X08186Y06142*
X08186Y06141*
X08186Y06141*
X08186Y06141*
X08186Y06141*
X08186Y0614*
X08186Y0614*
X08186Y0614*
X08186Y0614*
X08186Y06139*
X08186Y06139*
X08186Y06139*
X08186Y06138*
X08186Y06138*
X08186Y06138*
X08186Y06138*
X08186Y06137*
X08186Y06137*
X08186Y06137*
X08187Y06137*
X08187Y06137*
X08187Y06136*
X08187Y06136*
X08188Y06136*
X08188Y06136*
X08188Y06136*
X08188Y06136*
X08189Y06136*
X08189Y06136*
X08189Y06136*
X08189Y06136*
X0819*
X0819Y06136*
X0819Y06136*
X0819Y06136*
X08191Y06136*
X08191Y06136*
X08191Y06136*
X08191Y06136*
X08192Y06136*
X08192Y06136*
X08192Y06137*
X08192Y06137*
X08193Y06137*
X08193Y06137*
X08193Y06137*
X08193Y06138*
X08193Y06138*
X08193Y06138*
X08193Y06138*
X08193Y06139*
X08193Y06139*
X08193Y06139*
X08193Y0614*
X07383D02*
D01*
X07383Y0614*
X07383Y0614*
X07383Y0614*
X07383Y06141*
X07383Y06141*
X07383Y06141*
X07383Y06141*
X07383Y06142*
X07382Y06142*
X07382Y06142*
X07382Y06142*
X07382Y06142*
X07382Y06143*
X07381Y06143*
X07381Y06143*
X07381Y06143*
X07381Y06143*
X0738Y06143*
X0738Y06143*
X0738Y06143*
X0738Y06143*
X07379Y06143*
X07379*
X07379Y06143*
X07379Y06143*
X07378Y06143*
X07378Y06143*
X07378Y06143*
X07377Y06143*
X07377Y06143*
X07377Y06143*
X07377Y06143*
X07377Y06142*
X07376Y06142*
X07376Y06142*
X07376Y06142*
X07376Y06142*
X07376Y06141*
X07376Y06141*
X07375Y06141*
X07375Y06141*
X07375Y0614*
X07375Y0614*
X07375Y0614*
X07375Y0614*
X07375Y06139*
X07375Y06139*
X07375Y06139*
X07375Y06138*
X07375Y06138*
X07376Y06138*
X07376Y06138*
X07376Y06137*
X07376Y06137*
X07376Y06137*
X07376Y06137*
X07377Y06137*
X07377Y06136*
X07377Y06136*
X07377Y06136*
X07377Y06136*
X07378Y06136*
X07378Y06136*
X07378Y06136*
X07379Y06136*
X07379Y06136*
X07379Y06136*
X07379*
X0738Y06136*
X0738Y06136*
X0738Y06136*
X0738Y06136*
X07381Y06136*
X07381Y06136*
X07381Y06136*
X07381Y06136*
X07382Y06136*
X07382Y06137*
X07382Y06137*
X07382Y06137*
X07382Y06137*
X07383Y06137*
X07383Y06138*
X07383Y06138*
X07383Y06138*
X07383Y06138*
X07383Y06139*
X07383Y06139*
X07383Y06139*
X07383Y0614*
X06573D02*
D01*
X06573Y0614*
X06573Y0614*
X06573Y0614*
X06573Y06141*
X06573Y06141*
X06572Y06141*
X06572Y06141*
X06572Y06142*
X06572Y06142*
X06572Y06142*
X06572Y06142*
X06572Y06142*
X06571Y06143*
X06571Y06143*
X06571Y06143*
X06571Y06143*
X0657Y06143*
X0657Y06143*
X0657Y06143*
X0657Y06143*
X06569Y06143*
X06569Y06143*
X06569*
X06568Y06143*
X06568Y06143*
X06568Y06143*
X06568Y06143*
X06567Y06143*
X06567Y06143*
X06567Y06143*
X06567Y06143*
X06566Y06143*
X06566Y06142*
X06566Y06142*
X06566Y06142*
X06566Y06142*
X06566Y06142*
X06565Y06141*
X06565Y06141*
X06565Y06141*
X06565Y06141*
X06565Y0614*
X06565Y0614*
X06565Y0614*
X06565Y0614*
X06565Y06139*
X06565Y06139*
X06565Y06139*
X06565Y06138*
X06565Y06138*
X06565Y06138*
X06565Y06138*
X06566Y06137*
X06566Y06137*
X06566Y06137*
X06566Y06137*
X06566Y06137*
X06566Y06136*
X06567Y06136*
X06567Y06136*
X06567Y06136*
X06567Y06136*
X06568Y06136*
X06568Y06136*
X06568Y06136*
X06568Y06136*
X06569Y06136*
X06569*
X06569Y06136*
X0657Y06136*
X0657Y06136*
X0657Y06136*
X0657Y06136*
X06571Y06136*
X06571Y06136*
X06571Y06136*
X06571Y06136*
X06572Y06137*
X06572Y06137*
X06572Y06137*
X06572Y06137*
X06572Y06137*
X06572Y06138*
X06572Y06138*
X06573Y06138*
X06573Y06138*
X06573Y06139*
X06573Y06139*
X06573Y06139*
X06573Y0614*
X01822Y03443D02*
D01*
X01822Y03443*
X01822Y03444*
X01822Y03444*
X01822Y03444*
X01822Y03445*
X01822Y03445*
X01822Y03445*
X01822Y03445*
X01822Y03445*
X01821Y03446*
X01821Y03446*
X01821Y03446*
X01821Y03446*
X01821Y03446*
X0182Y03447*
X0182Y03447*
X0182Y03447*
X0182Y03447*
X01819Y03447*
X01819Y03447*
X01819Y03447*
X01819Y03447*
X01818*
X01818Y03447*
X01818Y03447*
X01818Y03447*
X01817Y03447*
X01817Y03447*
X01817Y03447*
X01817Y03447*
X01816Y03446*
X01816Y03446*
X01816Y03446*
X01816Y03446*
X01815Y03446*
X01815Y03445*
X01815Y03445*
X01815Y03445*
X01815Y03445*
X01815Y03445*
X01815Y03444*
X01815Y03444*
X01815Y03444*
X01815Y03443*
X01815Y03443*
X01815Y03443*
X01815Y03443*
X01815Y03442*
X01815Y03442*
X01815Y03442*
X01815Y03442*
X01815Y03441*
X01815Y03441*
X01815Y03441*
X01815Y03441*
X01816Y0344*
X01816Y0344*
X01816Y0344*
X01816Y0344*
X01817Y0344*
X01817Y0344*
X01817Y0344*
X01817Y03439*
X01818Y03439*
X01818Y03439*
X01818Y03439*
X01818Y03439*
X01819*
X01819Y03439*
X01819Y03439*
X01819Y03439*
X0182Y03439*
X0182Y0344*
X0182Y0344*
X0182Y0344*
X01821Y0344*
X01821Y0344*
X01821Y0344*
X01821Y0344*
X01821Y03441*
X01822Y03441*
X01822Y03441*
X01822Y03441*
X01822Y03442*
X01822Y03442*
X01822Y03442*
X01822Y03442*
X01822Y03443*
X01822Y03443*
X01822Y03443*
X00163Y03795D02*
D01*
X00163Y03795*
X00163Y03795*
X00163Y03795*
X00163Y03796*
X00163Y03796*
X00163Y03796*
X00163Y03796*
X00163Y03797*
X00163Y03797*
X00163Y03797*
X00162Y03797*
X00162Y03797*
X00162Y03798*
X00162Y03798*
X00161Y03798*
X00161Y03798*
X00161Y03798*
X00161Y03798*
X0016Y03798*
X0016Y03798*
X0016Y03798*
X0016Y03798*
X00159*
X00159Y03798*
X00159Y03798*
X00159Y03798*
X00158Y03798*
X00158Y03798*
X00158Y03798*
X00158Y03798*
X00157Y03798*
X00157Y03798*
X00157Y03797*
X00157Y03797*
X00156Y03797*
X00156Y03797*
X00156Y03797*
X00156Y03796*
X00156Y03796*
X00156Y03796*
X00156Y03796*
X00156Y03795*
X00156Y03795*
X00156Y03795*
X00156Y03795*
X00156Y03794*
X00156Y03794*
X00156Y03794*
X00156Y03793*
X00156Y03793*
X00156Y03793*
X00156Y03793*
X00156Y03792*
X00156Y03792*
X00156Y03792*
X00157Y03792*
X00157Y03792*
X00157Y03791*
X00157Y03791*
X00158Y03791*
X00158Y03791*
X00158Y03791*
X00158Y03791*
X00159Y03791*
X00159Y03791*
X00159Y03791*
X00159Y03791*
X0016*
X0016Y03791*
X0016Y03791*
X0016Y03791*
X00161Y03791*
X00161Y03791*
X00161Y03791*
X00161Y03791*
X00162Y03791*
X00162Y03791*
X00162Y03792*
X00162Y03792*
X00163Y03792*
X00163Y03792*
X00163Y03792*
X00163Y03793*
X00163Y03793*
X00163Y03793*
X00163Y03793*
X00163Y03794*
X00163Y03794*
X00163Y03794*
X00163Y03795*
X01513Y00195D02*
D01*
X01513Y00195*
X01513Y00195*
X01513Y00195*
X01513Y00196*
X01513Y00196*
X01513Y00196*
X01513Y00196*
X01513Y00197*
X01513Y00197*
X01513Y00197*
X01512Y00197*
X01512Y00197*
X01512Y00198*
X01512Y00198*
X01511Y00198*
X01511Y00198*
X01511Y00198*
X01511Y00198*
X0151Y00198*
X0151Y00198*
X0151Y00198*
X0151Y00198*
X01509*
X01509Y00198*
X01509Y00198*
X01509Y00198*
X01508Y00198*
X01508Y00198*
X01508Y00198*
X01508Y00198*
X01507Y00198*
X01507Y00198*
X01507Y00197*
X01507Y00197*
X01506Y00197*
X01506Y00197*
X01506Y00197*
X01506Y00196*
X01506Y00196*
X01506Y00196*
X01506Y00196*
X01506Y00195*
X01506Y00195*
X01506Y00195*
X01506Y00195*
X01506Y00194*
X01506Y00194*
X01506Y00194*
X01506Y00193*
X01506Y00193*
X01506Y00193*
X01506Y00193*
X01506Y00192*
X01506Y00192*
X01506Y00192*
X01507Y00192*
X01507Y00192*
X01507Y00191*
X01507Y00191*
X01508Y00191*
X01508Y00191*
X01508Y00191*
X01508Y00191*
X01509Y00191*
X01509Y00191*
X01509Y00191*
X01509Y00191*
X0151*
X0151Y00191*
X0151Y00191*
X0151Y00191*
X01511Y00191*
X01511Y00191*
X01511Y00191*
X01511Y00191*
X01512Y00191*
X01512Y00191*
X01512Y00192*
X01512Y00192*
X01513Y00192*
X01513Y00192*
X01513Y00192*
X01513Y00193*
X01513Y00193*
X01513Y00193*
X01513Y00193*
X01513Y00194*
X01513Y00194*
X01513Y00194*
X01513Y00195*
X00901Y0614D02*
D01*
X00901Y0614*
X00901Y0614*
X00901Y0614*
X00901Y06141*
X009Y06141*
X009Y06141*
X009Y06141*
X009Y06142*
X009Y06142*
X009Y06142*
X009Y06142*
X00899Y06142*
X00899Y06143*
X00899Y06143*
X00899Y06143*
X00898Y06143*
X00898Y06143*
X00898Y06143*
X00898Y06143*
X00897Y06143*
X00897Y06143*
X00897Y06143*
X00897*
X00896Y06143*
X00896Y06143*
X00896Y06143*
X00896Y06143*
X00895Y06143*
X00895Y06143*
X00895Y06143*
X00895Y06143*
X00894Y06143*
X00894Y06142*
X00894Y06142*
X00894Y06142*
X00894Y06142*
X00893Y06142*
X00893Y06141*
X00893Y06141*
X00893Y06141*
X00893Y06141*
X00893Y0614*
X00893Y0614*
X00893Y0614*
X00893Y0614*
X00893Y06139*
X00893Y06139*
X00893Y06139*
X00893Y06138*
X00893Y06138*
X00893Y06138*
X00893Y06138*
X00893Y06137*
X00894Y06137*
X00894Y06137*
X00894Y06137*
X00894Y06137*
X00894Y06136*
X00895Y06136*
X00895Y06136*
X00895Y06136*
X00895Y06136*
X00896Y06136*
X00896Y06136*
X00896Y06136*
X00896Y06136*
X00897Y06136*
X00897*
X00897Y06136*
X00897Y06136*
X00898Y06136*
X00898Y06136*
X00898Y06136*
X00898Y06136*
X00899Y06136*
X00899Y06136*
X00899Y06136*
X00899Y06137*
X009Y06137*
X009Y06137*
X009Y06137*
X009Y06137*
X009Y06138*
X009Y06138*
X009Y06138*
X00901Y06138*
X00901Y06139*
X00901Y06139*
X00901Y06139*
X00901Y0614*
X01711D02*
D01*
X01711Y0614*
X01711Y0614*
X01711Y0614*
X01711Y06141*
X01711Y06141*
X01711Y06141*
X01711Y06141*
X0171Y06142*
X0171Y06142*
X0171Y06142*
X0171Y06142*
X0171Y06142*
X01709Y06143*
X01709Y06143*
X01709Y06143*
X01709Y06143*
X01709Y06143*
X01708Y06143*
X01708Y06143*
X01708Y06143*
X01707Y06143*
X01707Y06143*
X01707*
X01707Y06143*
X01706Y06143*
X01706Y06143*
X01706Y06143*
X01706Y06143*
X01705Y06143*
X01705Y06143*
X01705Y06143*
X01705Y06143*
X01704Y06142*
X01704Y06142*
X01704Y06142*
X01704Y06142*
X01704Y06142*
X01704Y06141*
X01703Y06141*
X01703Y06141*
X01703Y06141*
X01703Y0614*
X01703Y0614*
X01703Y0614*
X01703Y0614*
X01703Y06139*
X01703Y06139*
X01703Y06139*
X01703Y06138*
X01703Y06138*
X01703Y06138*
X01704Y06138*
X01704Y06137*
X01704Y06137*
X01704Y06137*
X01704Y06137*
X01704Y06137*
X01705Y06136*
X01705Y06136*
X01705Y06136*
X01705Y06136*
X01706Y06136*
X01706Y06136*
X01706Y06136*
X01706Y06136*
X01707Y06136*
X01707Y06136*
X01707*
X01707Y06136*
X01708Y06136*
X01708Y06136*
X01708Y06136*
X01709Y06136*
X01709Y06136*
X01709Y06136*
X01709Y06136*
X01709Y06136*
X0171Y06137*
X0171Y06137*
X0171Y06137*
X0171Y06137*
X0171Y06137*
X01711Y06138*
X01711Y06138*
X01711Y06138*
X01711Y06138*
X01711Y06139*
X01711Y06139*
X01711Y06139*
X01711Y0614*
X02521D02*
D01*
X02521Y0614*
X02521Y0614*
X02521Y0614*
X02521Y06141*
X02521Y06141*
X02521Y06141*
X02521Y06141*
X02521Y06142*
X02521Y06142*
X0252Y06142*
X0252Y06142*
X0252Y06142*
X0252Y06143*
X0252Y06143*
X02519Y06143*
X02519Y06143*
X02519Y06143*
X02519Y06143*
X02518Y06143*
X02518Y06143*
X02518Y06143*
X02517Y06143*
X02517*
X02517Y06143*
X02517Y06143*
X02516Y06143*
X02516Y06143*
X02516Y06143*
X02516Y06143*
X02515Y06143*
X02515Y06143*
X02515Y06143*
X02515Y06142*
X02515Y06142*
X02514Y06142*
X02514Y06142*
X02514Y06142*
X02514Y06141*
X02514Y06141*
X02514Y06141*
X02514Y06141*
X02513Y0614*
X02513Y0614*
X02513Y0614*
X02513Y0614*
X02513Y06139*
X02513Y06139*
X02513Y06139*
X02514Y06138*
X02514Y06138*
X02514Y06138*
X02514Y06138*
X02514Y06137*
X02514Y06137*
X02514Y06137*
X02515Y06137*
X02515Y06137*
X02515Y06136*
X02515Y06136*
X02515Y06136*
X02516Y06136*
X02516Y06136*
X02516Y06136*
X02516Y06136*
X02517Y06136*
X02517Y06136*
X02517Y06136*
X02517*
X02518Y06136*
X02518Y06136*
X02518Y06136*
X02519Y06136*
X02519Y06136*
X02519Y06136*
X02519Y06136*
X0252Y06136*
X0252Y06136*
X0252Y06137*
X0252Y06137*
X0252Y06137*
X02521Y06137*
X02521Y06137*
X02521Y06138*
X02521Y06138*
X02521Y06138*
X02521Y06138*
X02521Y06139*
X02521Y06139*
X02521Y06139*
X02521Y0614*
X03332D02*
D01*
X03332Y0614*
X03332Y0614*
X03332Y0614*
X03331Y06141*
X03331Y06141*
X03331Y06141*
X03331Y06141*
X03331Y06142*
X03331Y06142*
X03331Y06142*
X0333Y06142*
X0333Y06142*
X0333Y06143*
X0333Y06143*
X0333Y06143*
X03329Y06143*
X03329Y06143*
X03329Y06143*
X03329Y06143*
X03328Y06143*
X03328Y06143*
X03328Y06143*
X03328*
X03327Y06143*
X03327Y06143*
X03327Y06143*
X03326Y06143*
X03326Y06143*
X03326Y06143*
X03326Y06143*
X03325Y06143*
X03325Y06143*
X03325Y06142*
X03325Y06142*
X03325Y06142*
X03324Y06142*
X03324Y06142*
X03324Y06141*
X03324Y06141*
X03324Y06141*
X03324Y06141*
X03324Y0614*
X03324Y0614*
X03324Y0614*
X03324Y0614*
X03324Y06139*
X03324Y06139*
X03324Y06139*
X03324Y06138*
X03324Y06138*
X03324Y06138*
X03324Y06138*
X03324Y06137*
X03324Y06137*
X03325Y06137*
X03325Y06137*
X03325Y06137*
X03325Y06136*
X03325Y06136*
X03326Y06136*
X03326Y06136*
X03326Y06136*
X03326Y06136*
X03327Y06136*
X03327Y06136*
X03327Y06136*
X03328Y06136*
X03328*
X03328Y06136*
X03328Y06136*
X03329Y06136*
X03329Y06136*
X03329Y06136*
X03329Y06136*
X0333Y06136*
X0333Y06136*
X0333Y06136*
X0333Y06137*
X0333Y06137*
X03331Y06137*
X03331Y06137*
X03331Y06137*
X03331Y06138*
X03331Y06138*
X03331Y06138*
X03331Y06138*
X03332Y06139*
X03332Y06139*
X03332Y06139*
X03332Y0614*
X04142D02*
D01*
X04142Y0614*
X04142Y0614*
X04142Y0614*
X04142Y06141*
X04142Y06141*
X04142Y06141*
X04141Y06141*
X04141Y06142*
X04141Y06142*
X04141Y06142*
X04141Y06142*
X04141Y06142*
X0414Y06143*
X0414Y06143*
X0414Y06143*
X0414Y06143*
X04139Y06143*
X04139Y06143*
X04139Y06143*
X04139Y06143*
X04138Y06143*
X04138Y06143*
X04138*
X04138Y06143*
X04137Y06143*
X04137Y06143*
X04137Y06143*
X04136Y06143*
X04136Y06143*
X04136Y06143*
X04136Y06143*
X04136Y06143*
X04135Y06142*
X04135Y06142*
X04135Y06142*
X04135Y06142*
X04135Y06142*
X04134Y06141*
X04134Y06141*
X04134Y06141*
X04134Y06141*
X04134Y0614*
X04134Y0614*
X04134Y0614*
X04134Y0614*
X04134Y06139*
X04134Y06139*
X04134Y06139*
X04134Y06138*
X04134Y06138*
X04134Y06138*
X04134Y06138*
X04135Y06137*
X04135Y06137*
X04135Y06137*
X04135Y06137*
X04135Y06137*
X04136Y06136*
X04136Y06136*
X04136Y06136*
X04136Y06136*
X04136Y06136*
X04137Y06136*
X04137Y06136*
X04137Y06136*
X04138Y06136*
X04138Y06136*
X04138*
X04138Y06136*
X04139Y06136*
X04139Y06136*
X04139Y06136*
X04139Y06136*
X0414Y06136*
X0414Y06136*
X0414Y06136*
X0414Y06136*
X04141Y06137*
X04141Y06137*
X04141Y06137*
X04141Y06137*
X04141Y06137*
X04141Y06138*
X04142Y06138*
X04142Y06138*
X04142Y06138*
X04142Y06139*
X04142Y06139*
X04142Y06139*
X04142Y0614*
X04952D02*
D01*
X04952Y0614*
X04952Y0614*
X04952Y0614*
X04952Y06141*
X04952Y06141*
X04952Y06141*
X04952Y06141*
X04952Y06142*
X04951Y06142*
X04951Y06142*
X04951Y06142*
X04951Y06142*
X04951Y06143*
X0495Y06143*
X0495Y06143*
X0495Y06143*
X0495Y06143*
X04949Y06143*
X04949Y06143*
X04949Y06143*
X04949Y06143*
X04948Y06143*
X04948*
X04948Y06143*
X04948Y06143*
X04947Y06143*
X04947Y06143*
X04947Y06143*
X04947Y06143*
X04946Y06143*
X04946Y06143*
X04946Y06143*
X04946Y06142*
X04945Y06142*
X04945Y06142*
X04945Y06142*
X04945Y06142*
X04945Y06141*
X04945Y06141*
X04945Y06141*
X04944Y06141*
X04944Y0614*
X04944Y0614*
X04944Y0614*
X04944Y0614*
X04944Y06139*
X04944Y06139*
X04944Y06139*
X04944Y06138*
X04945Y06138*
X04945Y06138*
X04945Y06138*
X04945Y06137*
X04945Y06137*
X04945Y06137*
X04945Y06137*
X04946Y06137*
X04946Y06136*
X04946Y06136*
X04946Y06136*
X04947Y06136*
X04947Y06136*
X04947Y06136*
X04947Y06136*
X04948Y06136*
X04948Y06136*
X04948Y06136*
X04948*
X04949Y06136*
X04949Y06136*
X04949Y06136*
X04949Y06136*
X0495Y06136*
X0495Y06136*
X0495Y06136*
X0495Y06136*
X04951Y06136*
X04951Y06137*
X04951Y06137*
X04951Y06137*
X04951Y06137*
X04952Y06137*
X04952Y06138*
X04952Y06138*
X04952Y06138*
X04952Y06138*
X04952Y06139*
X04952Y06139*
X04952Y06139*
X04952Y0614*
X05763D02*
D01*
X05763Y0614*
X05762Y0614*
X05762Y0614*
X05762Y06141*
X05762Y06141*
X05762Y06141*
X05762Y06141*
X05762Y06142*
X05762Y06142*
X05762Y06142*
X05761Y06142*
X05761Y06142*
X05761Y06143*
X05761Y06143*
X05761Y06143*
X0576Y06143*
X0576Y06143*
X0576Y06143*
X0576Y06143*
X05759Y06143*
X05759Y06143*
X05759Y06143*
X05758*
X05758Y06143*
X05758Y06143*
X05758Y06143*
X05757Y06143*
X05757Y06143*
X05757Y06143*
X05757Y06143*
X05756Y06143*
X05756Y06143*
X05756Y06142*
X05756Y06142*
X05756Y06142*
X05755Y06142*
X05755Y06142*
X05755Y06141*
X05755Y06141*
X05755Y06141*
X05755Y06141*
X05755Y0614*
X05755Y0614*
X05755Y0614*
X05755Y0614*
X05755Y06139*
X05755Y06139*
X05755Y06139*
X05755Y06138*
X05755Y06138*
X05755Y06138*
X05755Y06138*
X05755Y06137*
X05755Y06137*
X05756Y06137*
X05756Y06137*
X05756Y06137*
X05756Y06136*
X05756Y06136*
X05757Y06136*
X05757Y06136*
X05757Y06136*
X05757Y06136*
X05758Y06136*
X05758Y06136*
X05758Y06136*
X05758Y06136*
X05759*
X05759Y06136*
X05759Y06136*
X0576Y06136*
X0576Y06136*
X0576Y06136*
X0576Y06136*
X05761Y06136*
X05761Y06136*
X05761Y06136*
X05761Y06137*
X05761Y06137*
X05762Y06137*
X05762Y06137*
X05762Y06137*
X05762Y06138*
X05762Y06138*
X05762Y06138*
X05762Y06138*
X05762Y06139*
X05762Y06139*
X05763Y06139*
X05763Y0614*
X08713Y0078D02*
D01*
X08713Y0078*
X08713Y0078*
X08713Y0078*
X08713Y00781*
X08713Y00781*
X08713Y00781*
X08713Y00781*
X08713Y00782*
X08713Y00782*
X08713Y00782*
X08712Y00782*
X08712Y00782*
X08712Y00783*
X08712Y00783*
X08711Y00783*
X08711Y00783*
X08711Y00783*
X08711Y00783*
X0871Y00783*
X0871Y00783*
X0871Y00783*
X0871Y00783*
X08709*
X08709Y00783*
X08709Y00783*
X08709Y00783*
X08708Y00783*
X08708Y00783*
X08708Y00783*
X08708Y00783*
X08707Y00783*
X08707Y00783*
X08707Y00782*
X08707Y00782*
X08706Y00782*
X08706Y00782*
X08706Y00782*
X08706Y00781*
X08706Y00781*
X08706Y00781*
X08706Y00781*
X08706Y0078*
X08706Y0078*
X08706Y0078*
X08706Y0078*
X08706Y00779*
X08706Y00779*
X08706Y00779*
X08706Y00778*
X08706Y00778*
X08706Y00778*
X08706Y00778*
X08706Y00777*
X08706Y00777*
X08706Y00777*
X08707Y00777*
X08707Y00777*
X08707Y00776*
X08707Y00776*
X08708Y00776*
X08708Y00776*
X08708Y00776*
X08708Y00776*
X08709Y00776*
X08709Y00776*
X08709Y00776*
X08709Y00776*
X0871*
X0871Y00776*
X0871Y00776*
X0871Y00776*
X08711Y00776*
X08711Y00776*
X08711Y00776*
X08711Y00776*
X08712Y00776*
X08712Y00776*
X08712Y00777*
X08712Y00777*
X08713Y00777*
X08713Y00777*
X08713Y00777*
X08713Y00778*
X08713Y00778*
X08713Y00778*
X08713Y00778*
X08713Y00779*
X08713Y00779*
X08713Y00779*
X08713Y0078*
X00158Y0426D02*
D01*
X00158Y0426*
X00158Y0426*
X00158Y0426*
X00158Y04261*
X00158Y04261*
X00158Y04261*
X00158Y04261*
X00158Y04262*
X00158Y04262*
X00158Y04262*
X00157Y04262*
X00157Y04262*
X00157Y04263*
X00157Y04263*
X00156Y04263*
X00156Y04263*
X00156Y04263*
X00156Y04263*
X00155Y04263*
X00155Y04263*
X00155Y04263*
X00155Y04263*
X00154*
X00154Y04263*
X00154Y04263*
X00154Y04263*
X00153Y04263*
X00153Y04263*
X00153Y04263*
X00153Y04263*
X00152Y04263*
X00152Y04263*
X00152Y04262*
X00152Y04262*
X00151Y04262*
X00151Y04262*
X00151Y04262*
X00151Y04261*
X00151Y04261*
X00151Y04261*
X00151Y04261*
X00151Y0426*
X00151Y0426*
X00151Y0426*
X00151Y0426*
X00151Y04259*
X00151Y04259*
X00151Y04259*
X00151Y04258*
X00151Y04258*
X00151Y04258*
X00151Y04258*
X00151Y04257*
X00151Y04257*
X00151Y04257*
X00152Y04257*
X00152Y04257*
X00152Y04256*
X00152Y04256*
X00153Y04256*
X00153Y04256*
X00153Y04256*
X00153Y04256*
X00154Y04256*
X00154Y04256*
X00154Y04256*
X00154Y04256*
X00155*
X00155Y04256*
X00155Y04256*
X00155Y04256*
X00156Y04256*
X00156Y04256*
X00156Y04256*
X00156Y04256*
X00157Y04256*
X00157Y04256*
X00157Y04257*
X00157Y04257*
X00158Y04257*
X00158Y04257*
X00158Y04257*
X00158Y04258*
X00158Y04258*
X00158Y04258*
X00158Y04258*
X00158Y04259*
X00158Y04259*
X00158Y04259*
X00158Y0426*
X08713Y0215D02*
D01*
X08713Y0215*
X08713Y0215*
X08713Y0215*
X08713Y02151*
X08713Y02151*
X08713Y02151*
X08713Y02151*
X08713Y02152*
X08713Y02152*
X08713Y02152*
X08712Y02152*
X08712Y02152*
X08712Y02153*
X08712Y02153*
X08711Y02153*
X08711Y02153*
X08711Y02153*
X08711Y02153*
X0871Y02153*
X0871Y02153*
X0871Y02153*
X0871Y02153*
X08709*
X08709Y02153*
X08709Y02153*
X08709Y02153*
X08708Y02153*
X08708Y02153*
X08708Y02153*
X08708Y02153*
X08707Y02153*
X08707Y02153*
X08707Y02152*
X08707Y02152*
X08706Y02152*
X08706Y02152*
X08706Y02152*
X08706Y02151*
X08706Y02151*
X08706Y02151*
X08706Y02151*
X08706Y0215*
X08706Y0215*
X08706Y0215*
X08706Y0215*
X08706Y02149*
X08706Y02149*
X08706Y02149*
X08706Y02148*
X08706Y02148*
X08706Y02148*
X08706Y02148*
X08706Y02147*
X08706Y02147*
X08706Y02147*
X08707Y02147*
X08707Y02147*
X08707Y02146*
X08707Y02146*
X08708Y02146*
X08708Y02146*
X08708Y02146*
X08708Y02146*
X08709Y02146*
X08709Y02146*
X08709Y02146*
X08709Y02146*
X0871*
X0871Y02146*
X0871Y02146*
X0871Y02146*
X08711Y02146*
X08711Y02146*
X08711Y02146*
X08711Y02146*
X08712Y02146*
X08712Y02146*
X08712Y02147*
X08712Y02147*
X08713Y02147*
X08713Y02147*
X08713Y02147*
X08713Y02148*
X08713Y02148*
X08713Y02148*
X08713Y02148*
X08713Y02149*
X08713Y02149*
X08713Y02149*
X08713Y0215*
X05435Y01292D02*
D01*
X05435Y01292*
X05435Y01293*
X05435Y01293*
X05435Y01293*
X05435Y01294*
X05434Y01294*
X05434Y01294*
X05434Y01294*
X05434Y01295*
X05434Y01295*
X05434Y01295*
X05433Y01295*
X05433Y01295*
X05433Y01295*
X05433Y01296*
X05433Y01296*
X05432Y01296*
X05432Y01296*
X05432Y01296*
X05432Y01296*
X05431Y01296*
X05431Y01296*
X05431*
X0543Y01296*
X0543Y01296*
X0543Y01296*
X0543Y01296*
X05429Y01296*
X05429Y01296*
X05429Y01296*
X05429Y01295*
X05428Y01295*
X05428Y01295*
X05428Y01295*
X05428Y01295*
X05428Y01295*
X05427Y01294*
X05427Y01294*
X05427Y01294*
X05427Y01294*
X05427Y01293*
X05427Y01293*
X05427Y01293*
X05427Y01292*
X05427Y01292*
X05427Y01292*
X05427Y01292*
X05427Y01291*
X05427Y01291*
X05427Y01291*
X05427Y01291*
X05427Y0129*
X05427Y0129*
X05428Y0129*
X05428Y0129*
X05428Y01289*
X05428Y01289*
X05428Y01289*
X05429Y01289*
X05429Y01289*
X05429Y01289*
X05429Y01289*
X0543Y01288*
X0543Y01288*
X0543Y01288*
X0543Y01288*
X05431Y01288*
X05431*
X05431Y01288*
X05432Y01288*
X05432Y01288*
X05432Y01288*
X05432Y01289*
X05433Y01289*
X05433Y01289*
X05433Y01289*
X05433Y01289*
X05433Y01289*
X05434Y01289*
X05434Y0129*
X05434Y0129*
X05434Y0129*
X05434Y0129*
X05434Y01291*
X05435Y01291*
X05435Y01291*
X05435Y01291*
X05435Y01292*
X05435Y01292*
X05435Y01292*
X05445Y02887D02*
D01*
X05445Y02887*
X05445Y02888*
X05445Y02888*
X05445Y02888*
X05445Y02889*
X05444Y02889*
X05444Y02889*
X05444Y02889*
X05444Y0289*
X05444Y0289*
X05444Y0289*
X05443Y0289*
X05443Y0289*
X05443Y0289*
X05443Y02891*
X05443Y02891*
X05442Y02891*
X05442Y02891*
X05442Y02891*
X05442Y02891*
X05441Y02891*
X05441Y02891*
X05441*
X0544Y02891*
X0544Y02891*
X0544Y02891*
X0544Y02891*
X05439Y02891*
X05439Y02891*
X05439Y02891*
X05439Y0289*
X05438Y0289*
X05438Y0289*
X05438Y0289*
X05438Y0289*
X05438Y0289*
X05437Y02889*
X05437Y02889*
X05437Y02889*
X05437Y02889*
X05437Y02888*
X05437Y02888*
X05437Y02888*
X05437Y02887*
X05437Y02887*
X05437Y02887*
X05437Y02887*
X05437Y02886*
X05437Y02886*
X05437Y02886*
X05437Y02886*
X05437Y02885*
X05437Y02885*
X05438Y02885*
X05438Y02885*
X05438Y02884*
X05438Y02884*
X05438Y02884*
X05439Y02884*
X05439Y02884*
X05439Y02884*
X05439Y02884*
X0544Y02883*
X0544Y02883*
X0544Y02883*
X0544Y02883*
X05441Y02883*
X05441*
X05441Y02883*
X05442Y02883*
X05442Y02883*
X05442Y02883*
X05442Y02884*
X05443Y02884*
X05443Y02884*
X05443Y02884*
X05443Y02884*
X05443Y02884*
X05444Y02884*
X05444Y02885*
X05444Y02885*
X05444Y02885*
X05444Y02885*
X05444Y02886*
X05445Y02886*
X05445Y02886*
X05445Y02886*
X05445Y02887*
X05445Y02887*
X05445Y02887*
G54D12*
X03278Y0489D02*
D01*
X03278Y04894*
X03278Y04899*
X03277Y04904*
X03276Y04909*
X03274Y04913*
X03272Y04918*
X0327Y04922*
X03268Y04926*
X03265Y0493*
X03262Y04934*
X03259Y04937*
X03255Y04941*
X03252Y04944*
X03248Y04947*
X03244Y04949*
X03239Y04952*
X03235Y04954*
X03231Y04955*
X03226Y04957*
X03221Y04958*
X03216Y04958*
X03212Y04959*
X03207*
X03202Y04958*
X03197Y04958*
X03192Y04957*
X03188Y04955*
X03183Y04954*
X03179Y04952*
X03175Y04949*
X03171Y04947*
X03167Y04944*
X03163Y04941*
X03159Y04937*
X03156Y04934*
X03153Y0493*
X03151Y04926*
X03148Y04922*
X03146Y04918*
X03144Y04913*
X03143Y04909*
X03142Y04904*
X03141Y04899*
X0314Y04894*
X0314Y0489*
X0314Y04885*
X03141Y0488*
X03142Y04875*
X03143Y0487*
X03144Y04866*
X03146Y04861*
X03148Y04857*
X03151Y04853*
X03153Y04849*
X03156Y04845*
X03159Y04842*
X03163Y04838*
X03167Y04835*
X03171Y04832*
X03175Y0483*
X03179Y04827*
X03183Y04825*
X03188Y04824*
X03192Y04822*
X03197Y04821*
X03202Y04821*
X03207Y0482*
X03212*
X03216Y04821*
X03221Y04821*
X03226Y04822*
X03231Y04824*
X03235Y04825*
X03239Y04827*
X03244Y0483*
X03248Y04832*
X03252Y04835*
X03255Y04838*
X03259Y04842*
X03262Y04845*
X03265Y04849*
X03268Y04853*
X0327Y04857*
X03272Y04861*
X03274Y04866*
X03276Y0487*
X03277Y04875*
X03278Y0488*
X03278Y04885*
X03278Y0489*
X07383D02*
D01*
X07383Y04894*
X07382Y04899*
X07381Y04904*
X0738Y04909*
X07379Y04913*
X07377Y04918*
X07375Y04922*
X07372Y04926*
X0737Y0493*
X07367Y04934*
X07363Y04937*
X0736Y04941*
X07356Y04944*
X07352Y04947*
X07348Y04949*
X07344Y04952*
X0734Y04954*
X07335Y04955*
X0733Y04957*
X07326Y04958*
X07321Y04958*
X07316Y04959*
X07311*
X07306Y04958*
X07302Y04958*
X07297Y04957*
X07292Y04955*
X07288Y04954*
X07283Y04952*
X07279Y04949*
X07275Y04947*
X07271Y04944*
X07267Y04941*
X07264Y04937*
X07261Y04934*
X07258Y0493*
X07255Y04926*
X07253Y04922*
X0725Y04918*
X07249Y04913*
X07247Y04909*
X07246Y04904*
X07245Y04899*
X07245Y04894*
X07245Y0489*
X07245Y04885*
X07245Y0488*
X07246Y04875*
X07247Y0487*
X07249Y04866*
X0725Y04861*
X07253Y04857*
X07255Y04853*
X07258Y04849*
X07261Y04845*
X07264Y04842*
X07267Y04838*
X07271Y04835*
X07275Y04832*
X07279Y0483*
X07283Y04827*
X07288Y04825*
X07292Y04824*
X07297Y04822*
X07302Y04821*
X07306Y04821*
X07311Y0482*
X07316*
X07321Y04821*
X07326Y04821*
X0733Y04822*
X07335Y04824*
X0734Y04825*
X07344Y04827*
X07348Y0483*
X07352Y04832*
X07356Y04835*
X0736Y04838*
X07363Y04842*
X07367Y04845*
X0737Y04849*
X07372Y04853*
X07375Y04857*
X07377Y04861*
X07379Y04866*
X0738Y0487*
X07381Y04875*
X07382Y0488*
X07383Y04885*
X07383Y0489*
X06562D02*
D01*
X06562Y04894*
X06561Y04899*
X0656Y04904*
X06559Y04909*
X06558Y04913*
X06556Y04918*
X06554Y04922*
X06551Y04926*
X06549Y0493*
X06546Y04934*
X06542Y04937*
X06539Y04941*
X06535Y04944*
X06531Y04947*
X06527Y04949*
X06523Y04952*
X06519Y04954*
X06514Y04955*
X06509Y04957*
X06505Y04958*
X065Y04958*
X06495Y04959*
X0649*
X06486Y04958*
X06481Y04958*
X06476Y04957*
X06471Y04955*
X06467Y04954*
X06462Y04952*
X06458Y04949*
X06454Y04947*
X0645Y04944*
X06446Y04941*
X06443Y04937*
X0644Y04934*
X06437Y0493*
X06434Y04926*
X06432Y04922*
X0643Y04918*
X06428Y04913*
X06426Y04909*
X06425Y04904*
X06424Y04899*
X06424Y04894*
X06424Y0489*
X06424Y04885*
X06424Y0488*
X06425Y04875*
X06426Y0487*
X06428Y04866*
X0643Y04861*
X06432Y04857*
X06434Y04853*
X06437Y04849*
X0644Y04845*
X06443Y04842*
X06446Y04838*
X0645Y04835*
X06454Y04832*
X06458Y0483*
X06462Y04827*
X06467Y04825*
X06471Y04824*
X06476Y04822*
X06481Y04821*
X06486Y04821*
X0649Y0482*
X06495*
X065Y04821*
X06505Y04821*
X06509Y04822*
X06514Y04824*
X06519Y04825*
X06523Y04827*
X06527Y0483*
X06531Y04832*
X06535Y04835*
X06539Y04838*
X06542Y04842*
X06546Y04845*
X06549Y04849*
X06551Y04853*
X06554Y04857*
X06556Y04861*
X06558Y04866*
X06559Y0487*
X0656Y04875*
X06561Y0488*
X06562Y04885*
X06562Y0489*
X05741D02*
D01*
X05741Y04894*
X0574Y04899*
X05739Y04904*
X05738Y04909*
X05737Y04913*
X05735Y04918*
X05733Y04922*
X0573Y04926*
X05728Y0493*
X05725Y04934*
X05722Y04937*
X05718Y04941*
X05714Y04944*
X0571Y04947*
X05706Y04949*
X05702Y04952*
X05698Y04954*
X05693Y04955*
X05689Y04957*
X05684Y04958*
X05679Y04958*
X05674Y04959*
X05669*
X05665Y04958*
X0566Y04958*
X05655Y04957*
X0565Y04955*
X05646Y04954*
X05642Y04952*
X05637Y04949*
X05633Y04947*
X05629Y04944*
X05626Y04941*
X05622Y04937*
X05619Y04934*
X05616Y0493*
X05613Y04926*
X05611Y04922*
X05609Y04918*
X05607Y04913*
X05605Y04909*
X05604Y04904*
X05603Y04899*
X05603Y04894*
X05603Y0489*
X05603Y04885*
X05603Y0488*
X05604Y04875*
X05605Y0487*
X05607Y04866*
X05609Y04861*
X05611Y04857*
X05613Y04853*
X05616Y04849*
X05619Y04845*
X05622Y04842*
X05626Y04838*
X05629Y04835*
X05633Y04832*
X05637Y0483*
X05642Y04827*
X05646Y04825*
X0565Y04824*
X05655Y04822*
X0566Y04821*
X05665Y04821*
X05669Y0482*
X05674*
X05679Y04821*
X05684Y04821*
X05689Y04822*
X05693Y04824*
X05698Y04825*
X05702Y04827*
X05706Y0483*
X0571Y04832*
X05714Y04835*
X05718Y04838*
X05722Y04842*
X05725Y04845*
X05728Y04849*
X0573Y04853*
X05733Y04857*
X05735Y04861*
X05737Y04866*
X05738Y0487*
X05739Y04875*
X0574Y0488*
X05741Y04885*
X05741Y0489*
X0492D02*
D01*
X0492Y04894*
X04919Y04899*
X04919Y04904*
X04917Y04909*
X04916Y04913*
X04914Y04918*
X04912Y04922*
X0491Y04926*
X04907Y0493*
X04904Y04934*
X04901Y04937*
X04897Y04941*
X04894Y04944*
X0489Y04947*
X04886Y04949*
X04881Y04952*
X04877Y04954*
X04872Y04955*
X04868Y04957*
X04863Y04958*
X04858Y04958*
X04853Y04959*
X04849*
X04844Y04958*
X04839Y04958*
X04834Y04957*
X0483Y04955*
X04825Y04954*
X04821Y04952*
X04816Y04949*
X04812Y04947*
X04808Y04944*
X04805Y04941*
X04801Y04937*
X04798Y04934*
X04795Y0493*
X04792Y04926*
X0479Y04922*
X04788Y04918*
X04786Y04913*
X04785Y04909*
X04783Y04904*
X04783Y04899*
X04782Y04894*
X04782Y0489*
X04782Y04885*
X04783Y0488*
X04783Y04875*
X04785Y0487*
X04786Y04866*
X04788Y04861*
X0479Y04857*
X04792Y04853*
X04795Y04849*
X04798Y04845*
X04801Y04842*
X04805Y04838*
X04808Y04835*
X04812Y04832*
X04816Y0483*
X04821Y04827*
X04825Y04825*
X0483Y04824*
X04834Y04822*
X04839Y04821*
X04844Y04821*
X04849Y0482*
X04853*
X04858Y04821*
X04863Y04821*
X04868Y04822*
X04872Y04824*
X04877Y04825*
X04881Y04827*
X04886Y0483*
X0489Y04832*
X04894Y04835*
X04897Y04838*
X04901Y04842*
X04904Y04845*
X04907Y04849*
X0491Y04853*
X04912Y04857*
X04914Y04861*
X04916Y04866*
X04917Y0487*
X04919Y04875*
X04919Y0488*
X0492Y04885*
X0492Y0489*
X04099D02*
D01*
X04099Y04894*
X04099Y04899*
X04098Y04904*
X04097Y04909*
X04095Y04913*
X04093Y04918*
X04091Y04922*
X04089Y04926*
X04086Y0493*
X04083Y04934*
X0408Y04937*
X04076Y04941*
X04073Y04944*
X04069Y04947*
X04065Y04949*
X0406Y04952*
X04056Y04954*
X04051Y04955*
X04047Y04957*
X04042Y04958*
X04037Y04958*
X04032Y04959*
X04028*
X04023Y04958*
X04018Y04958*
X04013Y04957*
X04009Y04955*
X04004Y04954*
X04Y04952*
X03996Y04949*
X03991Y04947*
X03988Y04944*
X03984Y04941*
X0398Y04937*
X03977Y04934*
X03974Y0493*
X03971Y04926*
X03969Y04922*
X03967Y04918*
X03965Y04913*
X03964Y04909*
X03962Y04904*
X03962Y04899*
X03961Y04894*
X03961Y0489*
X03961Y04885*
X03962Y0488*
X03962Y04875*
X03964Y0487*
X03965Y04866*
X03967Y04861*
X03969Y04857*
X03971Y04853*
X03974Y04849*
X03977Y04845*
X0398Y04842*
X03984Y04838*
X03988Y04835*
X03991Y04832*
X03996Y0483*
X04Y04827*
X04004Y04825*
X04009Y04824*
X04013Y04822*
X04018Y04821*
X04023Y04821*
X04028Y0482*
X04032*
X04037Y04821*
X04042Y04821*
X04047Y04822*
X04051Y04824*
X04056Y04825*
X0406Y04827*
X04065Y0483*
X04069Y04832*
X04073Y04835*
X04076Y04838*
X0408Y04842*
X04083Y04845*
X04086Y04849*
X04089Y04853*
X04091Y04857*
X04093Y04861*
X04095Y04866*
X04097Y0487*
X04098Y04875*
X04099Y0488*
X04099Y04885*
X04099Y0489*
X02457D02*
D01*
X02457Y04894*
X02457Y04899*
X02456Y04904*
X02455Y04909*
X02453Y04913*
X02451Y04918*
X02449Y04922*
X02447Y04926*
X02444Y0493*
X02441Y04934*
X02438Y04937*
X02435Y04941*
X02431Y04944*
X02427Y04947*
X02423Y04949*
X02419Y04952*
X02414Y04954*
X0241Y04955*
X02405Y04957*
X024Y04958*
X02396Y04958*
X02391Y04959*
X02386*
X02381Y04958*
X02376Y04958*
X02372Y04957*
X02367Y04955*
X02362Y04954*
X02358Y04952*
X02354Y04949*
X0235Y04947*
X02346Y04944*
X02342Y04941*
X02339Y04937*
X02335Y04934*
X02332Y0493*
X0233Y04926*
X02327Y04922*
X02325Y04918*
X02323Y04913*
X02322Y04909*
X02321Y04904*
X0232Y04899*
X02319Y04894*
X02319Y0489*
X02319Y04885*
X0232Y0488*
X02321Y04875*
X02322Y0487*
X02323Y04866*
X02325Y04861*
X02327Y04857*
X0233Y04853*
X02332Y04849*
X02335Y04845*
X02339Y04842*
X02342Y04838*
X02346Y04835*
X0235Y04832*
X02354Y0483*
X02358Y04827*
X02362Y04825*
X02367Y04824*
X02372Y04822*
X02376Y04821*
X02381Y04821*
X02386Y0482*
X02391*
X02396Y04821*
X024Y04821*
X02405Y04822*
X0241Y04824*
X02414Y04825*
X02419Y04827*
X02423Y0483*
X02427Y04832*
X02431Y04835*
X02435Y04838*
X02438Y04842*
X02441Y04845*
X02444Y04849*
X02447Y04853*
X02449Y04857*
X02451Y04861*
X02453Y04866*
X02455Y0487*
X02456Y04875*
X02457Y0488*
X02457Y04885*
X02457Y0489*
X01637D02*
D01*
X01636Y04894*
X01636Y04899*
X01635Y04904*
X01634Y04909*
X01632Y04913*
X01631Y04918*
X01628Y04922*
X01626Y04926*
X01623Y0493*
X0162Y04934*
X01617Y04937*
X01614Y04941*
X0161Y04944*
X01606Y04947*
X01602Y04949*
X01598Y04952*
X01593Y04954*
X01589Y04955*
X01584Y04957*
X01579Y04958*
X01575Y04958*
X0157Y04959*
X01565*
X0156Y04958*
X01555Y04958*
X01551Y04957*
X01546Y04955*
X01542Y04954*
X01537Y04952*
X01533Y04949*
X01529Y04947*
X01525Y04944*
X01521Y04941*
X01518Y04937*
X01515Y04934*
X01512Y0493*
X01509Y04926*
X01506Y04922*
X01504Y04918*
X01503Y04913*
X01501Y04909*
X015Y04904*
X01499Y04899*
X01499Y04894*
X01498Y0489*
X01499Y04885*
X01499Y0488*
X015Y04875*
X01501Y0487*
X01503Y04866*
X01504Y04861*
X01506Y04857*
X01509Y04853*
X01512Y04849*
X01515Y04845*
X01518Y04842*
X01521Y04838*
X01525Y04835*
X01529Y04832*
X01533Y0483*
X01537Y04827*
X01542Y04825*
X01546Y04824*
X01551Y04822*
X01555Y04821*
X0156Y04821*
X01565Y0482*
X0157*
X01575Y04821*
X01579Y04821*
X01584Y04822*
X01589Y04824*
X01593Y04825*
X01598Y04827*
X01602Y0483*
X01606Y04832*
X0161Y04835*
X01614Y04838*
X01617Y04842*
X0162Y04845*
X01623Y04849*
X01626Y04853*
X01628Y04857*
X01631Y04861*
X01632Y04866*
X01634Y0487*
X01635Y04875*
X01636Y0488*
X01636Y04885*
X01637Y0489*
X00816D02*
D01*
X00815Y04894*
X00815Y04899*
X00814Y04904*
X00813Y04909*
X00811Y04913*
X0081Y04918*
X00808Y04922*
X00805Y04926*
X00802Y0493*
X00799Y04934*
X00796Y04937*
X00793Y04941*
X00789Y04944*
X00785Y04947*
X00781Y04949*
X00777Y04952*
X00772Y04954*
X00768Y04955*
X00763Y04957*
X00759Y04958*
X00754Y04958*
X00749Y04959*
X00744*
X00739Y04958*
X00735Y04958*
X0073Y04957*
X00725Y04955*
X00721Y04954*
X00716Y04952*
X00712Y04949*
X00708Y04947*
X00704Y04944*
X007Y04941*
X00697Y04937*
X00694Y04934*
X00691Y0493*
X00688Y04926*
X00686Y04922*
X00683Y04918*
X00682Y04913*
X0068Y04909*
X00679Y04904*
X00678Y04899*
X00678Y04894*
X00677Y0489*
X00678Y04885*
X00678Y0488*
X00679Y04875*
X0068Y0487*
X00682Y04866*
X00683Y04861*
X00686Y04857*
X00688Y04853*
X00691Y04849*
X00694Y04845*
X00697Y04842*
X007Y04838*
X00704Y04835*
X00708Y04832*
X00712Y0483*
X00716Y04827*
X00721Y04825*
X00725Y04824*
X0073Y04822*
X00735Y04821*
X00739Y04821*
X00744Y0482*
X00749*
X00754Y04821*
X00759Y04821*
X00763Y04822*
X00768Y04824*
X00772Y04825*
X00777Y04827*
X00781Y0483*
X00785Y04832*
X00789Y04835*
X00793Y04838*
X00796Y04842*
X00799Y04845*
X00802Y04849*
X00805Y04853*
X00808Y04857*
X0081Y04861*
X00811Y04866*
X00813Y0487*
X00814Y04875*
X00815Y0488*
X00815Y04885*
X00816Y0489*
X04739Y04485D02*
D01*
X04743Y04474*
X04747Y04464*
X04753Y04454*
X04758Y04444*
X04765Y04435*
X04767Y04433*
X04902D02*
D01*
X04909Y04442*
X04915Y04451*
X0492Y04461*
X04925Y04472*
X04929Y04482*
X0493Y04485*
X04929Y04484D02*
D01*
X0493Y04491*
X0493Y04498*
X0493Y04504*
X04929Y04511*
X04928Y04518*
X04927Y04524*
X04925Y0453*
X04922Y04537*
X04919Y04543*
X04916Y04548*
X04912Y04554*
X04908Y04559*
X04903Y04564*
X04899Y04569*
X04894Y04573*
X04888Y04577*
X04882Y04581*
X04877Y04584*
X0487Y04586*
X04864Y04589*
X04858Y04591*
X04851Y04592*
X04845Y04593*
X04838Y04593*
X04831*
X04824Y04593*
X04818Y04592*
X04811Y04591*
X04805Y04589*
X04799Y04586*
X04792Y04584*
X04787Y04581*
X04781Y04577*
X04775Y04573*
X0477Y04569*
X04766Y04564*
X04761Y04559*
X04757Y04554*
X04753Y04548*
X0475Y04543*
X04747Y04537*
X04744Y0453*
X04742Y04524*
X04741Y04518*
X0474Y04511*
X04739Y04504*
X04739Y04498*
X04739Y04491*
X0474Y04484*
X00644Y04465D02*
D01*
X00648Y04454*
X00652Y04444*
X00658Y04434*
X00663Y04424*
X0067Y04415*
X00672Y04413*
X00807D02*
D01*
X00814Y04422*
X0082Y04431*
X00825Y04441*
X0083Y04452*
X00834Y04462*
X00835Y04465*
X00834Y04464D02*
D01*
X00835Y04471*
X00835Y04478*
X00835Y04484*
X00834Y04491*
X00833Y04498*
X00832Y04504*
X0083Y0451*
X00827Y04517*
X00824Y04523*
X00821Y04528*
X00817Y04534*
X00813Y04539*
X00808Y04544*
X00804Y04549*
X00799Y04553*
X00793Y04557*
X00787Y04561*
X00782Y04564*
X00775Y04566*
X00769Y04569*
X00763Y04571*
X00756Y04572*
X0075Y04573*
X00743Y04573*
X00736*
X00729Y04573*
X00723Y04572*
X00716Y04571*
X0071Y04569*
X00704Y04566*
X00697Y04564*
X00692Y04561*
X00686Y04557*
X0068Y04553*
X00675Y04549*
X00671Y04544*
X00666Y04539*
X00662Y04534*
X00658Y04528*
X00655Y04523*
X00652Y04517*
X00649Y0451*
X00647Y04504*
X00646Y04498*
X00645Y04491*
X00644Y04484*
X00644Y04478*
X00644Y04471*
X00645Y04464*
X01474Y04484D02*
D01*
X01478Y04474*
X01482Y04463*
X01488Y04453*
X01493Y04444*
X015Y04435*
X01502Y04432*
X01637D02*
D01*
X01644Y04441*
X0165Y04451*
X01655Y04461*
X0166Y04471*
X01664Y04482*
X01665Y04484*
X01664Y04484D02*
D01*
X01665Y04491*
X01665Y04497*
X01665Y04504*
X01664Y04511*
X01663Y04517*
X01662Y04524*
X0166Y0453*
X01657Y04536*
X01654Y04542*
X01651Y04548*
X01647Y04554*
X01643Y04559*
X01638Y04564*
X01634Y04568*
X01629Y04573*
X01623Y04577*
X01617Y0458*
X01612Y04583*
X01605Y04586*
X01599Y04588*
X01593Y0459*
X01586Y04592*
X0158Y04593*
X01573Y04593*
X01566*
X01559Y04593*
X01553Y04592*
X01546Y0459*
X0154Y04588*
X01534Y04586*
X01527Y04583*
X01522Y0458*
X01516Y04577*
X0151Y04573*
X01505Y04568*
X01501Y04564*
X01496Y04559*
X01492Y04554*
X01488Y04548*
X01485Y04542*
X01482Y04536*
X01479Y0453*
X01477Y04524*
X01476Y04517*
X01475Y04511*
X01474Y04504*
X01474Y04497*
X01474Y04491*
X01475Y04484*
X02284Y0448D02*
D01*
X02288Y04469*
X02292Y04459*
X02298Y04449*
X02303Y04439*
X0231Y0443*
X02312Y04428*
X02447D02*
D01*
X02454Y04437*
X0246Y04446*
X02465Y04456*
X0247Y04467*
X02474Y04477*
X02475Y0448*
X02474Y04479D02*
D01*
X02475Y04486*
X02475Y04493*
X02475Y04499*
X02474Y04506*
X02473Y04513*
X02472Y04519*
X0247Y04525*
X02467Y04532*
X02464Y04538*
X02461Y04543*
X02457Y04549*
X02453Y04554*
X02448Y04559*
X02444Y04564*
X02439Y04568*
X02433Y04572*
X02427Y04576*
X02422Y04579*
X02415Y04581*
X02409Y04584*
X02403Y04586*
X02396Y04587*
X0239Y04588*
X02383Y04588*
X02376*
X02369Y04588*
X02363Y04587*
X02356Y04586*
X0235Y04584*
X02344Y04581*
X02337Y04579*
X02332Y04576*
X02326Y04572*
X0232Y04568*
X02315Y04564*
X02311Y04559*
X02306Y04554*
X02302Y04549*
X02298Y04543*
X02295Y04538*
X02292Y04532*
X02289Y04525*
X02287Y04519*
X02286Y04513*
X02285Y04506*
X02284Y04499*
X02284Y04493*
X02284Y04486*
X02285Y04479*
X03104Y04485D02*
D01*
X03108Y04474*
X03112Y04464*
X03118Y04454*
X03123Y04444*
X0313Y04435*
X03132Y04433*
X03267D02*
D01*
X03274Y04442*
X0328Y04451*
X03285Y04461*
X0329Y04472*
X03294Y04482*
X03295Y04485*
X03294Y04484D02*
D01*
X03295Y04491*
X03295Y04498*
X03295Y04504*
X03294Y04511*
X03293Y04518*
X03292Y04524*
X0329Y0453*
X03287Y04537*
X03284Y04543*
X03281Y04548*
X03277Y04554*
X03273Y04559*
X03268Y04564*
X03264Y04569*
X03259Y04573*
X03253Y04577*
X03247Y04581*
X03242Y04584*
X03235Y04586*
X03229Y04589*
X03223Y04591*
X03216Y04592*
X0321Y04593*
X03203Y04593*
X03196*
X03189Y04593*
X03183Y04592*
X03176Y04591*
X0317Y04589*
X03164Y04586*
X03157Y04584*
X03152Y04581*
X03146Y04577*
X0314Y04573*
X03135Y04569*
X03131Y04564*
X03126Y04559*
X03122Y04554*
X03118Y04548*
X03115Y04543*
X03112Y04537*
X03109Y0453*
X03107Y04524*
X03106Y04518*
X03105Y04511*
X03104Y04504*
X03104Y04498*
X03104Y04491*
X03105Y04484*
X05569Y0448D02*
D01*
X05573Y04469*
X05577Y04459*
X05583Y04449*
X05588Y04439*
X05595Y0443*
X05597Y04428*
X05732D02*
D01*
X05739Y04437*
X05745Y04446*
X0575Y04456*
X05755Y04467*
X05759Y04477*
X0576Y0448*
X05759Y04479D02*
D01*
X0576Y04486*
X0576Y04493*
X0576Y04499*
X05759Y04506*
X05758Y04513*
X05757Y04519*
X05755Y04525*
X05752Y04532*
X05749Y04538*
X05746Y04543*
X05742Y04549*
X05738Y04554*
X05733Y04559*
X05729Y04564*
X05724Y04568*
X05718Y04572*
X05712Y04576*
X05707Y04579*
X057Y04581*
X05694Y04584*
X05688Y04586*
X05681Y04587*
X05675Y04588*
X05668Y04588*
X05661*
X05654Y04588*
X05648Y04587*
X05641Y04586*
X05635Y04584*
X05629Y04581*
X05622Y04579*
X05617Y04576*
X05611Y04572*
X05605Y04568*
X056Y04564*
X05596Y04559*
X05591Y04554*
X05587Y04549*
X05583Y04543*
X0558Y04538*
X05577Y04532*
X05574Y04525*
X05572Y04519*
X05571Y04513*
X0557Y04506*
X05569Y04499*
X05569Y04493*
X05569Y04486*
X0557Y04479*
X08044Y0448D02*
D01*
X08048Y04469*
X08052Y04459*
X08058Y04449*
X08063Y04439*
X0807Y0443*
X08072Y04428*
X08207D02*
D01*
X08214Y04437*
X0822Y04446*
X08225Y04456*
X0823Y04467*
X08234Y04477*
X08235Y0448*
X08234Y04479D02*
D01*
X08235Y04486*
X08235Y04493*
X08235Y04499*
X08234Y04506*
X08233Y04513*
X08232Y04519*
X0823Y04525*
X08227Y04532*
X08224Y04538*
X08221Y04543*
X08217Y04549*
X08213Y04554*
X08208Y04559*
X08204Y04564*
X08199Y04568*
X08193Y04572*
X08187Y04576*
X08182Y04579*
X08175Y04581*
X08169Y04584*
X08163Y04586*
X08156Y04587*
X0815Y04588*
X08143Y04588*
X08136*
X08129Y04588*
X08123Y04587*
X08116Y04586*
X0811Y04584*
X08104Y04581*
X08097Y04579*
X08092Y04576*
X08086Y04572*
X0808Y04568*
X08075Y04564*
X08071Y04559*
X08066Y04554*
X08062Y04549*
X08058Y04543*
X08055Y04538*
X08052Y04532*
X08049Y04525*
X08047Y04519*
X08046Y04513*
X08045Y04506*
X08044Y04499*
X08044Y04493*
X08044Y04486*
X08045Y04479*
X03939Y0448D02*
D01*
X03943Y04469*
X03947Y04459*
X03953Y04449*
X03958Y04439*
X03965Y0443*
X03967Y04428*
X04102D02*
D01*
X04109Y04437*
X04115Y04446*
X0412Y04456*
X04125Y04467*
X04129Y04477*
X0413Y0448*
X04129Y04479D02*
D01*
X0413Y04486*
X0413Y04493*
X0413Y04499*
X04129Y04506*
X04128Y04513*
X04127Y04519*
X04125Y04525*
X04122Y04532*
X04119Y04538*
X04116Y04543*
X04112Y04549*
X04108Y04554*
X04103Y04559*
X04099Y04564*
X04094Y04568*
X04088Y04572*
X04082Y04576*
X04077Y04579*
X0407Y04581*
X04064Y04584*
X04058Y04586*
X04051Y04587*
X04045Y04588*
X04038Y04588*
X04031*
X04024Y04588*
X04018Y04587*
X04011Y04586*
X04005Y04584*
X03999Y04581*
X03992Y04579*
X03987Y04576*
X03981Y04572*
X03975Y04568*
X0397Y04564*
X03966Y04559*
X03961Y04554*
X03957Y04549*
X03953Y04543*
X0395Y04538*
X03947Y04532*
X03944Y04525*
X03942Y04519*
X03941Y04513*
X0394Y04506*
X03939Y04499*
X03939Y04493*
X03939Y04486*
X0394Y04479*
X06379Y04465D02*
D01*
X06383Y04454*
X06387Y04444*
X06393Y04434*
X06398Y04424*
X06405Y04415*
X06407Y04413*
X06542D02*
D01*
X06549Y04422*
X06555Y04431*
X0656Y04441*
X06565Y04452*
X06569Y04462*
X0657Y04465*
X06569Y04464D02*
D01*
X0657Y04471*
X0657Y04478*
X0657Y04484*
X06569Y04491*
X06568Y04498*
X06567Y04504*
X06565Y0451*
X06562Y04517*
X06559Y04523*
X06556Y04528*
X06552Y04534*
X06548Y04539*
X06543Y04544*
X06539Y04549*
X06534Y04553*
X06528Y04557*
X06522Y04561*
X06517Y04564*
X0651Y04566*
X06504Y04569*
X06498Y04571*
X06491Y04572*
X06485Y04573*
X06478Y04573*
X06471*
X06464Y04573*
X06458Y04572*
X06451Y04571*
X06445Y04569*
X06439Y04566*
X06432Y04564*
X06427Y04561*
X06421Y04557*
X06415Y04553*
X0641Y04549*
X06406Y04544*
X06401Y04539*
X06397Y04534*
X06393Y04528*
X0639Y04523*
X06387Y04517*
X06384Y0451*
X06382Y04504*
X06381Y04498*
X0638Y04491*
X06379Y04484*
X06379Y04478*
X06379Y04471*
X0638Y04464*
X07249Y04465D02*
D01*
X07253Y04454*
X07257Y04444*
X07263Y04434*
X07268Y04424*
X07275Y04415*
X07277Y04413*
X07412D02*
D01*
X07419Y04422*
X07425Y04431*
X0743Y04441*
X07435Y04452*
X07439Y04462*
X0744Y04465*
X07439Y04464D02*
D01*
X0744Y04471*
X0744Y04478*
X0744Y04484*
X07439Y04491*
X07438Y04498*
X07437Y04504*
X07435Y0451*
X07432Y04517*
X07429Y04523*
X07426Y04528*
X07422Y04534*
X07418Y04539*
X07413Y04544*
X07409Y04549*
X07404Y04553*
X07398Y04557*
X07392Y04561*
X07387Y04564*
X0738Y04566*
X07374Y04569*
X07368Y04571*
X07361Y04572*
X07355Y04573*
X07348Y04573*
X07341*
X07334Y04573*
X07328Y04572*
X07321Y04571*
X07315Y04569*
X07309Y04566*
X07302Y04564*
X07297Y04561*
X07291Y04557*
X07285Y04553*
X0728Y04549*
X07276Y04544*
X07271Y04539*
X07267Y04534*
X07263Y04528*
X0726Y04523*
X07257Y04517*
X07254Y0451*
X07252Y04504*
X07251Y04498*
X0725Y04491*
X07249Y04484*
X07249Y04478*
X07249Y04471*
X0725Y04464*
X08204Y0489D02*
D01*
X08203Y04894*
X08203Y04899*
X08202Y04904*
X08201Y04909*
X08199Y04913*
X08198Y04918*
X08196Y04922*
X08193Y04926*
X0819Y0493*
X08187Y04934*
X08184Y04937*
X08181Y04941*
X08177Y04944*
X08173Y04947*
X08169Y04949*
X08165Y04952*
X0816Y04954*
X08156Y04955*
X08151Y04957*
X08146Y04958*
X08142Y04958*
X08137Y04959*
X08132*
X08127Y04958*
X08123Y04958*
X08118Y04957*
X08113Y04955*
X08109Y04954*
X08104Y04952*
X081Y04949*
X08096Y04947*
X08092Y04944*
X08088Y04941*
X08085Y04937*
X08082Y04934*
X08079Y0493*
X08076Y04926*
X08073Y04922*
X08071Y04918*
X0807Y04913*
X08068Y04909*
X08067Y04904*
X08066Y04899*
X08066Y04894*
X08065Y0489*
X08066Y04885*
X08066Y0488*
X08067Y04875*
X08068Y0487*
X0807Y04866*
X08071Y04861*
X08073Y04857*
X08076Y04853*
X08079Y04849*
X08082Y04845*
X08085Y04842*
X08088Y04838*
X08092Y04835*
X08096Y04832*
X081Y0483*
X08104Y04827*
X08109Y04825*
X08113Y04824*
X08118Y04822*
X08123Y04821*
X08127Y04821*
X08132Y0482*
X08137*
X08142Y04821*
X08146Y04821*
X08151Y04822*
X08156Y04824*
X0816Y04825*
X08165Y04827*
X08169Y0483*
X08173Y04832*
X08177Y04835*
X08181Y04838*
X08184Y04842*
X08187Y04845*
X0819Y04849*
X08193Y04853*
X08196Y04857*
X08198Y04861*
X08199Y04866*
X08201Y0487*
X08202Y04875*
X08203Y0488*
X08203Y04885*
X08204Y0489*
X0835Y05109D02*
Y0586D01*
X07739D02*
X0835D01*
X07739Y05109D02*
Y0586D01*
Y05109D02*
X0835D01*
X03091Y05007D02*
X03327D01*
Y04772D02*
Y05007D01*
X03091Y04772D02*
X03327D01*
X03091D02*
Y05007D01*
X0515Y05109D02*
Y0586D01*
X04539D02*
X0515D01*
X04539Y05109D02*
Y0586D01*
Y05109D02*
X0515D01*
X0435D02*
Y0586D01*
X03739D02*
X0435D01*
X03739Y05109D02*
Y0586D01*
Y05109D02*
X0435D01*
X01339D02*
X0195D01*
X01339D02*
Y0586D01*
X0195*
Y05109D02*
Y0586D01*
X0287Y016D02*
X0347D01*
X0287D02*
Y024D01*
X0347*
Y016D02*
Y024D01*
X08547Y03625D02*
Y03944D01*
X08802*
Y03625D02*
Y03944D01*
X08547Y03625D02*
X08802D01*
X0789Y05928D02*
X0829D01*
X0789D02*
Y06251D01*
X0829*
Y05928D02*
Y06251D01*
X07079Y05928D02*
X07479D01*
X07079D02*
Y06251D01*
X07479*
Y05928D02*
Y06251D01*
X06669Y05928D02*
Y06251D01*
X06269D02*
X06669D01*
X06269Y05928D02*
Y06251D01*
Y05928D02*
X06669D01*
X01787Y03359D02*
Y03559D01*
X01393D02*
X01787D01*
X01393Y03359D02*
Y03559D01*
Y03359D02*
X01787D01*
X04054Y01519D02*
X04435D01*
X04054D02*
Y0247D01*
X04435*
Y01519D02*
Y0247D01*
X00371Y03495D02*
Y03895D01*
X00048Y03495D02*
X00371D01*
X00048D02*
Y03895D01*
X00371*
X0141Y00083D02*
Y00406D01*
Y00083D02*
X0181D01*
Y00406*
X0141D02*
X0181D01*
X00354Y02083D02*
X00393D01*
X00374Y02063D02*
Y02103D01*
Y02772D02*
Y02811D01*
X00214Y02632D02*
X00311Y02742D01*
X00437D02*
X00533Y02632D01*
X00214Y02132D02*
X00533D01*
Y02632*
X00311Y02742D02*
X00437D01*
X00214Y02132D02*
Y02632D01*
X00597Y05928D02*
X00997D01*
X00597D02*
Y06251D01*
X00997*
Y05928D02*
Y06251D01*
X01407Y05928D02*
X01807D01*
X01407D02*
Y06251D01*
X01807*
Y05928D02*
Y06251D01*
X02217Y05928D02*
X02617D01*
X02217D02*
Y06251D01*
X02617*
Y05928D02*
Y06251D01*
X03428Y05928D02*
Y06251D01*
X03028D02*
X03428D01*
X03028Y05928D02*
Y06251D01*
Y05928D02*
X03428D01*
X03838D02*
X04238D01*
X03838D02*
Y06251D01*
X04238*
Y05928D02*
Y06251D01*
X04648Y05928D02*
X05048D01*
X04648D02*
Y06251D01*
X05048*
Y05928D02*
Y06251D01*
X05459Y05928D02*
X05859D01*
X05459D02*
Y06251D01*
X05859*
Y05928D02*
Y06251D01*
X07196Y04772D02*
Y05007D01*
Y04772D02*
X07432D01*
Y05007*
X07196D02*
X07432D01*
X06939Y05109D02*
X0755D01*
X06939D02*
Y0586D01*
X0755*
Y05109D02*
Y0586D01*
X06375Y04772D02*
Y05007D01*
Y04772D02*
X06611D01*
Y05007*
X06375D02*
X06611D01*
X05554Y04772D02*
Y05007D01*
Y04772D02*
X0579D01*
Y05007*
X05554D02*
X0579D01*
X04733D02*
X04969D01*
Y04772D02*
Y05007D01*
X04733Y04772D02*
X04969D01*
X04733D02*
Y05007D01*
X03912D02*
X04148D01*
Y04772D02*
Y05007D01*
X03912Y04772D02*
X04148D01*
X03912D02*
Y05007D01*
X0227Y04772D02*
Y05007D01*
Y04772D02*
X02506D01*
Y05007*
X0227D02*
X02506D01*
X0145D02*
X01685D01*
Y04772D02*
Y05007D01*
X0145Y04772D02*
X01685D01*
X0145D02*
Y05007D01*
X00629Y04772D02*
Y05007D01*
Y04772D02*
X00864D01*
Y05007*
X00629D02*
X00864D01*
X04767Y04432D02*
X04902D01*
X00672Y04412D02*
X00807D01*
X01502Y04432D02*
X01637D01*
X02312Y04427D02*
X02447D01*
X03132Y04432D02*
X03267D01*
X05597Y04427D02*
X05732D01*
X08072D02*
X08207D01*
X03967D02*
X04102D01*
X06407Y04412D02*
X06542D01*
X07277D02*
X07412D01*
X08017Y05007D02*
X08252D01*
Y04772D02*
Y05007D01*
X08017Y04772D02*
X08252D01*
X08017D02*
Y05007D01*
X04665Y00151D02*
X05165D01*
X04554Y00247D02*
Y00373D01*
X04665Y0047D02*
X05165D01*
Y00151D02*
Y0047D01*
X04554Y00373D02*
X04665Y0047D01*
X04554Y00247D02*
X04665Y00151D01*
X04485Y0031D02*
X04525D01*
X05194D02*
X05234D01*
X05214Y00291D02*
Y0033D01*
X05339Y05109D02*
X0595D01*
X05339D02*
Y0586D01*
X0595*
Y05109D02*
Y0586D01*
X06139Y05109D02*
X0675D01*
X06139D02*
Y0586D01*
X0675*
Y05109D02*
Y0586D01*
X0115Y05109D02*
Y0586D01*
X00539D02*
X0115D01*
X00539Y05109D02*
Y0586D01*
Y05109D02*
X0115D01*
X02139D02*
X0275D01*
X02139D02*
Y0586D01*
X0275*
Y05109D02*
Y0586D01*
X02939Y05109D02*
X0355D01*
X02939D02*
Y0586D01*
X0355*
Y05109D02*
Y0586D01*
X03365Y00364D02*
Y01315D01*
X02984D02*
X03365D01*
X02984Y00364D02*
Y01315D01*
Y00364D02*
X03365D01*
X08498Y0068D02*
Y0108D01*
X08821*
Y0068D02*
Y0108D01*
X08498Y0068D02*
X08821D01*
X00366Y0396D02*
Y0436D01*
X00043Y0396D02*
X00366D01*
X00043D02*
Y0436D01*
X00366*
X08498Y0205D02*
Y0245D01*
X08821*
Y0205D02*
Y0245D01*
X08498Y0205D02*
X08821D01*
X02811Y02755D02*
Y03854D01*
X04952*
Y02755D02*
Y03854D01*
X02811Y02755D02*
X04952D01*
X05515Y00867D02*
Y01261D01*
X05315Y00867D02*
X05515D01*
X05315D02*
Y01261D01*
X05515*
X05525Y02462D02*
Y02856D01*
X05325Y02462D02*
X05525D01*
X05325D02*
Y02856D01*
X05525*
G54D13*
X0457Y03445D02*
X0676D01*
X07505Y0419D02*
Y04354D01*
X0676Y03445D02*
X07505Y0419D01*
Y04354D02*
X07674Y04522D01*
X08087*
X0342Y02055D02*
X03425Y0205D01*
X0342Y02055D02*
Y0215D01*
X0315Y0348D02*
X03202Y03532D01*
X0315Y02395D02*
X0329Y02254D01*
X0315Y02395D02*
Y0348D01*
X0329Y02254D02*
X03419D01*
X0342Y0235D02*
X03555D01*
X03755Y0255*
Y03225*
X03425Y02245D02*
X0343Y0225D01*
X03202Y03532D02*
Y03805D01*
X03302Y03677D02*
X03755Y03225D01*
X03302Y03677D02*
Y03805D01*
X08087Y04522D02*
X08249Y04685D01*
X08255*
X04302Y03177D02*
X0457Y03445D01*
X04302Y02805D02*
Y03177D01*
X00195Y0629D02*
D01*
X00181Y06289*
X00167Y06288*
X00154Y06285*
X00141Y06282*
X00128Y06278*
X00115Y06273*
X00103Y06267*
X00091Y0626*
X0008Y06252*
X00069Y06244*
X00059Y06235*
X0005Y06225*
X00041Y06215*
X00033Y06204*
X00026Y06192*
X00019Y0618*
X00014Y06168*
X00009Y06155*
X00005Y06142*
X00002Y06128*
X00001Y06115*
X0Y06101*
X0Y06095*
X08915Y0609D02*
D01*
X08914Y06103*
X08913Y06117*
X0891Y06131*
X08907Y06145*
X08902Y06158*
X08897Y06171*
X08891Y06183*
X08884Y06195*
X08876Y06207*
X08868Y06218*
X08858Y06228*
X08848Y06238*
X08838Y06247*
X08826Y06255*
X08815Y06263*
X08802Y06269*
X08789Y06275*
X08776Y0628*
X08763Y06284*
X08749Y06286*
X08735Y06288*
X08721Y06289*
X08715Y0629*
Y0D02*
D01*
X08728Y0*
X08742Y00001*
X08756Y00004*
X0877Y00007*
X08783Y00012*
X08796Y00017*
X08808Y00023*
X0882Y0003*
X08832Y00038*
X08843Y00046*
X08853Y00056*
X08863Y00066*
X08872Y00076*
X0888Y00088*
X08888Y001*
X08894Y00112*
X089Y00125*
X08905Y00138*
X08909Y00151*
X08911Y00165*
X08913Y00179*
X08914Y00193*
X08915Y002*
X0Y00196D02*
D01*
X0Y00183*
X00001Y00169*
X00004Y00155*
X00007Y00142*
X00011Y00129*
X00017Y00116*
X00023Y00104*
X00029Y00092*
X00037Y00081*
X00046Y0007*
X00055Y0006*
X00065Y0005*
X00075Y00041*
X00086Y00033*
X00098Y00026*
X0011Y00019*
X00123Y00014*
X00136Y00009*
X00149Y00005*
X00162Y00002*
X00176Y00001*
X00189Y0*
X00196Y0*
X08915Y0609D02*
Y002D01*
X00195Y0629D02*
X08715D01*
X00196Y0D02*
X08715D01*
X0Y00196D02*
Y061D01*
X09874Y06274D02*
D01*
Y06275D01*
G54D16*
X0543Y00742D02*
Y00757D01*
X05422Y0075D02*
X05438D01*
X0545Y02317D02*
Y02332D01*
X05442Y02325D02*
X05458D01*
X05422Y0138D02*
X05438D01*
X0543Y01372D02*
Y01387D01*
X0392Y01677D02*
Y01692D01*
X03912Y01685D02*
X03927D01*
X0544Y02987D02*
Y03002D01*
X05432Y02995D02*
X05448D01*
X01205Y03436D02*
Y03452D01*
X01197Y03444D02*
X01212D01*
X02Y03436D02*
Y03452D01*
X01992Y03444D02*
X02007D01*
X06872Y04965D02*
X06887D01*
X0688Y04957D02*
Y04972D01*
X06017Y04935D02*
X06032D01*
X06025Y04927D02*
Y04942D01*
X07688Y0469D02*
X07703D01*
X07696Y04682D02*
Y04697D01*
X0273Y011D02*
X02746D01*
X02738Y01092D02*
Y01107D01*
X08522Y0478D02*
X08537D01*
X0853Y04772D02*
Y04787D01*
X08522Y04945D02*
X08537D01*
X0853Y04937D02*
Y04952D01*
X0109Y04677D02*
Y04692D01*
X01082Y04685D02*
X01097D01*
X02725Y04672D02*
Y04687D01*
X02717Y0468D02*
X02732D01*
X0601Y04712D02*
Y04727D01*
X06002Y0472D02*
X06017D01*
X01935Y04682D02*
Y04697D01*
X01927Y0469D02*
X01942D01*
X06855Y04727D02*
Y04742D01*
X06847Y04735D02*
X06862D01*
X0359Y04692D02*
Y04707D01*
X03582Y047D02*
X03597D01*
X04365Y04702D02*
Y04717D01*
X04357Y0471D02*
X04372D01*
X0524Y04702D02*
Y04717D01*
X05232Y0471D02*
X05247D01*
X01105Y04912D02*
Y04927D01*
X01097Y0492D02*
X01112D01*
X08145Y04242D02*
Y04257D01*
X08137Y0425D02*
X08152D01*
X0196Y04907D02*
Y04922D01*
X01952Y04915D02*
X01967D01*
X0275Y04907D02*
Y04922D01*
X02742Y04915D02*
X02757D01*
X03613Y04917D02*
Y04932D01*
X03605Y04925D02*
X03621D01*
X0439Y04932D02*
Y04947D01*
X04382Y0494D02*
X04397D01*
X0525Y04932D02*
Y04947D01*
X05242Y0494D02*
X05257D01*
X07721Y04922D02*
Y04937D01*
X07713Y0493D02*
X07729D01*
X08727Y04821D02*
X08832D01*
X08727Y04618D02*
X08832D01*
Y04821*
X08727Y04618D02*
Y04821D01*
X02106Y03481D02*
Y03548D01*
X02143Y03481D02*
Y03548D01*
X02106Y03481D02*
X02143D01*
X02106Y03548D02*
X02143D01*
X03938Y01422D02*
Y01488D01*
X03901Y01422D02*
Y01488D01*
X03938*
X03901Y01422D02*
X03938D01*
X05326Y01481D02*
X05393D01*
X05326Y01518D02*
X05393D01*
Y01481D02*
Y01518D01*
X05326Y01481D02*
Y01518D01*
Y00611D02*
X05393D01*
X05326Y00648D02*
X05393D01*
Y00611D02*
Y00648D01*
X05326Y00611D02*
Y00648D01*
X05346Y02196D02*
X05413D01*
X05346Y02233D02*
X05413D01*
Y02196D02*
Y02233D01*
X05346Y02196D02*
Y02233D01*
X05336Y03076D02*
X05403D01*
X05336Y03113D02*
X05403D01*
Y03076D02*
Y03113D01*
X05336Y03076D02*
Y03113D01*
X02921Y04626D02*
Y04693D01*
X02958Y04626D02*
Y04693D01*
X02921Y04626D02*
X02958D01*
X02921Y04693D02*
X02958D01*
X00476Y04721D02*
Y04788D01*
X00513Y04721D02*
Y04788D01*
X00476Y04721D02*
X00513D01*
X00476Y04788D02*
X00513D01*
X02126Y04601D02*
Y04668D01*
X02163Y04601D02*
Y04668D01*
X02126Y04601D02*
X02163D01*
X02126Y04668D02*
X02163D01*
X01311Y04716D02*
Y04783D01*
X01348Y04716D02*
Y04783D01*
X01311Y04716D02*
X01348D01*
X01311Y04783D02*
X01348D01*
X00971Y04518D02*
X01037D01*
X00971Y04481D02*
X01037D01*
X00971D02*
Y04518D01*
X01037Y04481D02*
Y04518D01*
X02621D02*
X02688D01*
X02621Y04481D02*
X02688D01*
X02621D02*
Y04518D01*
X02688Y04481D02*
Y04518D01*
X08696Y04472D02*
Y04604D01*
X08593Y04472D02*
Y04604D01*
X08696*
X08593Y04472D02*
X08696D01*
X05101Y04538D02*
X05168D01*
X05101Y04501D02*
X05168D01*
X05101D02*
Y04538D01*
X05168Y04501D02*
Y04538D01*
X01791Y04523D02*
X01857D01*
X01791Y04486D02*
X01857D01*
X01791D02*
Y04523D01*
X01857Y04486D02*
Y04523D01*
X05886Y04548D02*
X05953D01*
X05886Y04511D02*
X05953D01*
X05886D02*
Y04548D01*
X05953Y04511D02*
Y04548D01*
X04246Y04533D02*
X04313D01*
X04246Y04496D02*
X04313D01*
X04246D02*
Y04533D01*
X04313Y04496D02*
Y04533D01*
X03456Y04538D02*
X03523D01*
X03456Y04501D02*
X03523D01*
X03456D02*
Y04538D01*
X03523Y04501D02*
Y04538D01*
X07571Y04563D02*
X07638D01*
X07571Y04526D02*
X07638D01*
X07571D02*
Y04563D01*
X07638Y04526D02*
Y04563D01*
X05421Y04731D02*
Y04798D01*
X05458Y04731D02*
Y04798D01*
X05421Y04731D02*
X05458D01*
X05421Y04798D02*
X05458D01*
X04571Y04711D02*
Y04778D01*
X04608Y04711D02*
Y04778D01*
X04571Y04711D02*
X04608D01*
X04571Y04778D02*
X04608D01*
X03766Y04642D02*
Y04708D01*
X03803Y04642D02*
Y04708D01*
X03766Y04642D02*
X03803D01*
X03766Y04708D02*
X03803D01*
X01066Y03481D02*
Y03548D01*
X01103Y03481D02*
Y03548D01*
X01066Y03481D02*
X01103D01*
X01066Y03548D02*
X01103D01*
X06231Y04711D02*
Y04778D01*
X06268Y04711D02*
Y04778D01*
X06231Y04711D02*
X06268D01*
X06231Y04778D02*
X06268D01*
X07871Y04721D02*
Y04788D01*
X07908Y04721D02*
Y04788D01*
X07871Y04721D02*
X07908D01*
X07871Y04788D02*
X07908D01*
X06798Y04511D02*
Y04548D01*
X06731Y04511D02*
Y04548D01*
Y04511D02*
X06798D01*
X06731Y04548D02*
X06798D01*
X07046Y04788D02*
X07083D01*
X07046Y04721D02*
X07083D01*
Y04788*
X07046Y04721D02*
Y04788D01*
X08724Y04834D02*
X08835D01*
X08724Y04605D02*
X08835D01*
Y04834*
X08724Y04605D02*
Y04834D01*
X0878Y047D02*
Y04739D01*
X0876Y0472D02*
X08799D01*
X02106Y03515D02*
X02143D01*
X02125Y03496D02*
Y03533D01*
X02103Y03467D02*
Y03562D01*
X02146Y03467D02*
Y03562D01*
X02103Y03467D02*
X02146D01*
X02103Y03562D02*
X02146D01*
X03901Y01455D02*
X03938D01*
X0392Y01436D02*
Y01474D01*
X03941Y01408D02*
Y01502D01*
X03898Y01408D02*
Y01502D01*
X03941*
X03898Y01408D02*
X03941D01*
X0536Y01481D02*
Y01518D01*
X05341Y015D02*
X05378D01*
X05312Y01478D02*
X05407D01*
X05312Y01521D02*
X05407D01*
Y01478D02*
Y01521D01*
X05312Y01478D02*
Y01521D01*
X0536Y00611D02*
Y00648D01*
X05341Y0063D02*
X05378D01*
X05312Y00608D02*
X05407D01*
X05312Y00651D02*
X05407D01*
Y00608D02*
Y00651D01*
X05312Y00608D02*
Y00651D01*
X0538Y02196D02*
Y02233D01*
X05361Y02215D02*
X05398D01*
X05332Y02193D02*
X05427D01*
X05332Y02236D02*
X05427D01*
Y02193D02*
Y02236D01*
X05332Y02193D02*
Y02236D01*
X0537Y03076D02*
Y03113D01*
X05351Y03095D02*
X05388D01*
X05322Y03073D02*
X05417D01*
X05322Y03116D02*
X05417D01*
Y03073D02*
Y03116D01*
X05322Y03073D02*
Y03116D01*
X02921Y0466D02*
X02958D01*
X0294Y04641D02*
Y04678D01*
X02918Y04612D02*
Y04707D01*
X02961Y04612D02*
Y04707D01*
X02918Y04612D02*
X02961D01*
X02918Y04707D02*
X02961D01*
X00476Y04755D02*
X00513D01*
X00495Y04736D02*
Y04773D01*
X00473Y04707D02*
Y04802D01*
X00516Y04707D02*
Y04802D01*
X00473Y04707D02*
X00516D01*
X00473Y04802D02*
X00516D01*
X02126Y04635D02*
X02163D01*
X02145Y04616D02*
Y04653D01*
X02123Y04587D02*
Y04682D01*
X02166Y04587D02*
Y04682D01*
X02123Y04587D02*
X02166D01*
X02123Y04682D02*
X02166D01*
X01311Y0475D02*
X01348D01*
X0133Y04731D02*
Y04768D01*
X01308Y04702D02*
Y04797D01*
X01351Y04702D02*
Y04797D01*
X01308Y04702D02*
X01351D01*
X01308Y04797D02*
X01351D01*
X01004Y04481D02*
Y04518D01*
X00985Y045D02*
X01023D01*
X00957Y04521D02*
X01051D01*
X00957Y04478D02*
X01051D01*
X00957D02*
Y04521D01*
X01051Y04478D02*
Y04521D01*
X02655Y04481D02*
Y04518D01*
X02636Y045D02*
X02673D01*
X02607Y04521D02*
X02702D01*
X02607Y04478D02*
X02702D01*
X02607D02*
Y04521D01*
X02702Y04478D02*
Y04521D01*
X08625Y04538D02*
X08664D01*
X08645Y04518D02*
Y04557D01*
X087Y04459D02*
Y04616D01*
X08589Y04459D02*
Y04616D01*
X087*
X08589Y04459D02*
X087D01*
X05135Y04501D02*
Y04538D01*
X05116Y0452D02*
X05153D01*
X05087Y04541D02*
X05182D01*
X05087Y04498D02*
X05182D01*
X05087D02*
Y04541D01*
X05182Y04498D02*
Y04541D01*
X01824Y04486D02*
Y04523D01*
X01805Y04505D02*
X01843D01*
X01777Y04526D02*
X01871D01*
X01777Y04483D02*
X01871D01*
X01777D02*
Y04526D01*
X01871Y04483D02*
Y04526D01*
X0592Y04511D02*
Y04548D01*
X05901Y0453D02*
X05938D01*
X05872Y04551D02*
X05967D01*
X05872Y04508D02*
X05967D01*
X05872D02*
Y04551D01*
X05967Y04508D02*
Y04551D01*
X0428Y04496D02*
Y04533D01*
X04261Y04515D02*
X04298D01*
X04232Y04536D02*
X04327D01*
X04232Y04493D02*
X04327D01*
X04232D02*
Y04536D01*
X04327Y04493D02*
Y04536D01*
X0349Y04501D02*
Y04538D01*
X03471Y0452D02*
X03508D01*
X03442Y04541D02*
X03537D01*
X03442Y04498D02*
X03537D01*
X03442D02*
Y04541D01*
X03537Y04498D02*
Y04541D01*
X07605Y04526D02*
Y04563D01*
X07586Y04545D02*
X07623D01*
X07557Y04566D02*
X07652D01*
X07557Y04523D02*
X07652D01*
X07557D02*
Y04566D01*
X07652Y04523D02*
Y04566D01*
X05421Y04765D02*
X05458D01*
X0544Y04746D02*
Y04783D01*
X05418Y04717D02*
Y04812D01*
X05461Y04717D02*
Y04812D01*
X05418Y04717D02*
X05461D01*
X05418Y04812D02*
X05461D01*
X04571Y04745D02*
X04608D01*
X0459Y04726D02*
Y04763D01*
X04568Y04697D02*
Y04792D01*
X04611Y04697D02*
Y04792D01*
X04568Y04697D02*
X04611D01*
X04568Y04792D02*
X04611D01*
X03766Y04675D02*
X03803D01*
X03785Y04656D02*
Y04694D01*
X03763Y04628D02*
Y04722D01*
X03806Y04628D02*
Y04722D01*
X03763Y04628D02*
X03806D01*
X03763Y04722D02*
X03806D01*
X01066Y03515D02*
X01103D01*
X01085Y03496D02*
Y03533D01*
X01063Y03467D02*
Y03562D01*
X01106Y03467D02*
Y03562D01*
X01063Y03467D02*
X01106D01*
X01063Y03562D02*
X01106D01*
X06231Y04745D02*
X06268D01*
X0625Y04726D02*
Y04763D01*
X06228Y04697D02*
Y04792D01*
X06271Y04697D02*
Y04792D01*
X06228Y04697D02*
X06271D01*
X06228Y04792D02*
X06271D01*
X07871Y04755D02*
X07908D01*
X0789Y04736D02*
Y04773D01*
X07868Y04707D02*
Y04802D01*
X07911Y04707D02*
Y04802D01*
X07868Y04707D02*
X07911D01*
X07868Y04802D02*
X07911D01*
X06812Y04508D02*
Y04551D01*
X06717Y04508D02*
Y04551D01*
Y04508D02*
X06812D01*
X06717Y04551D02*
X06812D01*
X06746Y0453D02*
X06783D01*
X06765Y04511D02*
Y04548D01*
X07043Y04802D02*
X07086D01*
X07043Y04707D02*
X07086D01*
Y04802*
X07043Y04707D02*
Y04802D01*
X07065Y04736D02*
Y04773D01*
X07046Y04755D02*
X07083D01*
G54D17*
X03102Y0273D02*
D01*
X03102Y0273*
X03101Y0273*
X03101Y02731*
X03101Y02731*
X03101Y02732*
X03101Y02732*
X03101Y02732*
X03101Y02733*
X031Y02733*
X031Y02733*
X031Y02734*
X031Y02734*
X03099Y02734*
X03099Y02734*
X03099Y02734*
X03098Y02735*
X03098Y02735*
X03098Y02735*
X03097Y02735*
X03097Y02735*
X03097Y02735*
X03096Y02735*
X03096*
X03095Y02735*
X03095Y02735*
X03095Y02735*
X03094Y02735*
X03094Y02735*
X03094Y02735*
X03093Y02734*
X03093Y02734*
X03093Y02734*
X03092Y02734*
X03092Y02734*
X03092Y02733*
X03092Y02733*
X03091Y02733*
X03091Y02732*
X03091Y02732*
X03091Y02732*
X03091Y02731*
X03091Y02731*
X03091Y0273*
X03091Y0273*
X03091Y0273*
X03091Y02729*
X03091Y02729*
X03091Y02729*
X03091Y02728*
X03091Y02728*
X03091Y02727*
X03091Y02727*
X03091Y02727*
X03092Y02726*
X03092Y02726*
X03092Y02726*
X03092Y02726*
X03093Y02725*
X03093Y02725*
X03093Y02725*
X03094Y02725*
X03094Y02725*
X03094Y02724*
X03095Y02724*
X03095Y02724*
X03095Y02724*
X03096Y02724*
X03096*
X03097Y02724*
X03097Y02724*
X03097Y02724*
X03098Y02724*
X03098Y02725*
X03098Y02725*
X03099Y02725*
X03099Y02725*
X03099Y02725*
X031Y02726*
X031Y02726*
X031Y02726*
X031Y02726*
X03101Y02727*
X03101Y02727*
X03101Y02727*
X03101Y02728*
X03101Y02728*
X03101Y02729*
X03101Y02729*
X03102Y02729*
X03102Y0273*
G54D18*
X08359Y05099D02*
Y0587D01*
X0773D02*
X08359D01*
X0773Y05099D02*
Y0587D01*
Y05099D02*
X08359D01*
X03042Y05017D02*
X03377D01*
Y04762D02*
Y05017D01*
X03042Y04762D02*
X03377D01*
X03042D02*
Y05017D01*
X05159Y05099D02*
Y0587D01*
X0453D02*
X05159D01*
X0453Y05099D02*
Y0587D01*
Y05099D02*
X05159D01*
X04359D02*
Y0587D01*
X0373D02*
X04359D01*
X0373Y05099D02*
Y0587D01*
Y05099D02*
X04359D01*
X0133D02*
X01959D01*
X0133D02*
Y0587D01*
X01959*
Y05099D02*
Y0587D01*
X03479Y0159D02*
Y02409D01*
X0286D02*
X03479D01*
X0286Y0159D02*
Y02409D01*
Y0159D02*
X03479D01*
X08537Y03616D02*
Y03953D01*
X08812*
Y03616D02*
Y03953D01*
X08537Y03616D02*
X08812D01*
X0788Y05918D02*
X08299D01*
X0788D02*
Y06261D01*
X08299*
Y05918D02*
Y06261D01*
X07069Y05918D02*
X07489D01*
X07069D02*
Y06261D01*
X07489*
Y05918D02*
Y06261D01*
X06679Y05918D02*
Y06261D01*
X06259D02*
X06679D01*
X06259Y05918D02*
Y06261D01*
Y05918D02*
X06679D01*
X01797Y03349D02*
Y03569D01*
X01383D02*
X01797D01*
X01383Y03349D02*
Y03569D01*
Y03349D02*
X01797D01*
X04044Y01509D02*
X04445D01*
X04044D02*
Y0248D01*
X04445*
Y01509D02*
Y0248D01*
X00381Y03485D02*
Y03904D01*
X00038Y03485D02*
X00381D01*
X00038D02*
Y03904D01*
X00381*
X014Y00073D02*
Y00416D01*
Y00073D02*
X01819D01*
Y00416*
X014D02*
X01819D01*
X00204Y02122D02*
Y02752D01*
X00543*
Y02122D02*
Y02752D01*
X00204Y02122D02*
X00543D01*
X00587Y05918D02*
X01007D01*
X00587D02*
Y06261D01*
X01007*
Y05918D02*
Y06261D01*
X01397Y05918D02*
X01817D01*
X01397D02*
Y06261D01*
X01817*
Y05918D02*
Y06261D01*
X02208Y05918D02*
X02627D01*
X02208D02*
Y06261D01*
X02627*
Y05918D02*
Y06261D01*
X03437Y05918D02*
Y06261D01*
X03018D02*
X03437D01*
X03018Y05918D02*
Y06261D01*
Y05918D02*
X03437D01*
X03828D02*
X04248D01*
X03828D02*
Y06261D01*
X04248*
Y05918D02*
Y06261D01*
X04638Y05918D02*
X05058D01*
X04638D02*
Y06261D01*
X05058*
Y05918D02*
Y06261D01*
X05449Y05918D02*
X05868D01*
X05449D02*
Y06261D01*
X05868*
Y05918D02*
Y06261D01*
X07146Y04762D02*
Y05017D01*
Y04762D02*
X07481D01*
Y05017*
X07146D02*
X07481D01*
X0693Y05099D02*
X07559D01*
X0693D02*
Y0587D01*
X07559*
Y05099D02*
Y0587D01*
X06325Y04762D02*
Y05017D01*
Y04762D02*
X0666D01*
Y05017*
X06325D02*
X0666D01*
X05505Y04762D02*
Y05017D01*
Y04762D02*
X05839D01*
Y05017*
X05505D02*
X05839D01*
X04684D02*
X05018D01*
Y04762D02*
Y05017D01*
X04684Y04762D02*
X05018D01*
X04684D02*
Y05017D01*
X03863D02*
X04197D01*
Y04762D02*
Y05017D01*
X03863Y04762D02*
X04197D01*
X03863D02*
Y05017D01*
X02221Y04762D02*
Y05017D01*
Y04762D02*
X02556D01*
Y05017*
X02221D02*
X02556D01*
X014D02*
X01735D01*
Y04762D02*
Y05017D01*
X014Y04762D02*
X01735D01*
X014D02*
Y05017D01*
X00579Y04762D02*
Y05017D01*
Y04762D02*
X00914D01*
Y05017*
X00579D02*
X00914D01*
X04695Y0442D02*
Y04606D01*
Y0442D02*
X04974D01*
Y04606*
X04695D02*
X04974D01*
X006Y044D02*
Y04586D01*
Y044D02*
X00879D01*
Y04586*
X006D02*
X00879D01*
X0143Y04419D02*
Y04605D01*
Y04419D02*
X01709D01*
Y04605*
X0143D02*
X01709D01*
X0224Y04415D02*
Y04601D01*
Y04415D02*
X02519D01*
Y04601*
X0224D02*
X02519D01*
X0306Y0442D02*
Y04606D01*
Y0442D02*
X03339D01*
Y04606*
X0306D02*
X03339D01*
X05525Y04415D02*
Y04601D01*
Y04415D02*
X05804D01*
Y04601*
X05525D02*
X05804D01*
X08Y04415D02*
Y04601D01*
Y04415D02*
X08279D01*
Y04601*
X08D02*
X08279D01*
X03895Y04415D02*
Y04601D01*
Y04415D02*
X04174D01*
Y04601*
X03895D02*
X04174D01*
X06335Y044D02*
Y04586D01*
Y044D02*
X06614D01*
Y04586*
X06335D02*
X06614D01*
X07205Y044D02*
Y04586D01*
Y044D02*
X07484D01*
Y04586*
X07205D02*
X07484D01*
X07967Y05017D02*
X08302D01*
Y04762D02*
Y05017D01*
X07967Y04762D02*
X08302D01*
X07967D02*
Y05017D01*
X05174Y00141D02*
Y0048D01*
X04545D02*
X05174D01*
X04545Y00141D02*
Y0048D01*
Y00141D02*
X05174D01*
X0533Y05099D02*
X05959D01*
X0533D02*
Y0587D01*
X05959*
Y05099D02*
Y0587D01*
X0613Y05099D02*
X06759D01*
X0613D02*
Y0587D01*
X06759*
Y05099D02*
Y0587D01*
X01159Y05099D02*
Y0587D01*
X0053D02*
X01159D01*
X0053Y05099D02*
Y0587D01*
Y05099D02*
X01159D01*
X0213D02*
X02759D01*
X0213D02*
Y0587D01*
X02759*
Y05099D02*
Y0587D01*
X0293Y05099D02*
X03559D01*
X0293D02*
Y0587D01*
X03559*
Y05099D02*
Y0587D01*
X03375Y00354D02*
Y01325D01*
X02974D02*
X03375D01*
X02974Y00354D02*
Y01325D01*
Y00354D02*
X03375D01*
X08488Y0067D02*
Y01089D01*
X08831*
Y0067D02*
Y01089D01*
X08488Y0067D02*
X08831D01*
X00376Y0395D02*
Y04369D01*
X00033Y0395D02*
X00376D01*
X00033D02*
Y04369D01*
X00376*
X08488Y0204D02*
Y02459D01*
X08831*
Y0204D02*
Y02459D01*
X08488Y0204D02*
X08831D01*
X02801Y02745D02*
Y03864D01*
X04962*
Y02745D02*
Y03864D01*
X02801Y02745D02*
X04962D01*
X05525Y00857D02*
Y01271D01*
X05305Y00857D02*
X05525D01*
X05305D02*
Y01271D01*
X05525*
X05535Y02452D02*
Y02866D01*
X05315Y02452D02*
X05535D01*
X05315D02*
Y02866D01*
X05535*
G54D20*
X03655Y0411D03*
X0716Y04695D03*
X0634D03*
X006D03*
X0142D03*
X0552D03*
X047D03*
X0388D03*
X0306D03*
X0224D03*
X0798D03*
G54D24*
X06995Y0385D03*
X0609Y0395D03*
X0017Y01785D03*
G54D63*
X07808Y05725D03*
X08281D03*
Y05244D03*
X04608Y05725D03*
X05081D03*
Y05244D03*
X03808Y05725D03*
X04281D03*
Y05244D03*
X01881D03*
Y05725D03*
X01408D03*
X04245Y02424D03*
X07481Y05244D03*
Y05725D03*
X07008D03*
X05881Y05244D03*
Y05725D03*
X05408D03*
X06681Y05244D03*
Y05725D03*
X06208D03*
X00608D03*
X01081D03*
Y05244D03*
X02681D03*
Y05725D03*
X02208D03*
X03481Y05244D03*
Y05725D03*
X03008D03*
X03175Y01269D03*
G54D64*
X08045Y05166D03*
X04845D03*
X04045D03*
X01645D03*
X07245D03*
X05645D03*
X06445D03*
X00845D03*
X02445D03*
X03245D03*
G54D65*
X07808Y05244D03*
X04608D03*
X03808D03*
X01408D03*
X04245Y01565D03*
X07008Y05244D03*
X05408D03*
X06208D03*
X00608D03*
X02208D03*
X03008D03*
X03175Y0041D03*
G54D66*
X03337Y04978D03*
Y04801D03*
X03081D03*
X07186D03*
X07442D03*
Y04978D03*
X06365Y04801D03*
X06621D03*
Y04978D03*
X05544Y04801D03*
X058D03*
Y04978D03*
X04979D03*
Y04801D03*
X04723D03*
X04158Y04978D03*
Y04801D03*
X03902D03*
X0226D03*
X02516D03*
Y04978D03*
X01695D03*
Y04801D03*
X01439D03*
X00619D03*
X00875D03*
Y04978D03*
X08262D03*
Y04801D03*
X08007D03*
G54D67*
X03081Y04978D03*
X07186D03*
X06365D03*
X05544D03*
X04723D03*
X03902D03*
X0226D03*
X01439D03*
X00619D03*
X08007D03*
G54D68*
X00196Y00196D03*
Y06093D03*
X08718Y00196D03*
Y06093D03*
G54D69*
X06675Y0362D03*
Y0392D03*
X04835Y04485D03*
X04937D03*
X0074Y04465D03*
X00842D03*
X0157Y04484D03*
X01672D03*
X0238Y0448D03*
X02482D03*
X032Y04485D03*
X03302D03*
X05665Y0448D03*
X05767D03*
X0814D03*
X08242D03*
X04035D03*
X04137D03*
X06475Y04465D03*
X06577D03*
X07345D03*
X07447D03*
G54D70*
X03755Y0411D03*
X03855D03*
X03955D03*
X04055D03*
X04155D03*
X04255D03*
X04355D03*
X04455D03*
X04555D03*
X06995Y0375D03*
X07439Y04695D03*
X06619D03*
X00879D03*
X01699D03*
X05799D03*
X04979D03*
X04159D03*
X03339D03*
X02519D03*
X08259D03*
X0609Y0365D03*
Y0375D03*
Y0385D03*
X0017Y01485D03*
Y01585D03*
Y01685D03*
G54D71*
X0342Y0165D03*
G54D72*
X0342Y0175D03*
Y0185D03*
Y0195D03*
Y0205D03*
Y0215D03*
Y0225D03*
Y0235D03*
X0292D03*
Y0225D03*
Y0215D03*
Y0205D03*
Y0195D03*
Y0185D03*
Y0175D03*
Y0165D03*
G54D73*
X08675Y03685D03*
G54D74*
X08675Y03785D03*
Y03885D03*
G54D75*
X0819Y0609D03*
X07379D03*
X06569D03*
X0151Y00245D03*
X00897Y0609D03*
X01707D03*
X02517D03*
X03328D03*
X04138D03*
X04948D03*
X05759D03*
G54D76*
X0799Y0609D03*
X07179D03*
X06369D03*
X0021Y03595D03*
X0171Y00245D03*
X00697Y0609D03*
X01507D03*
X02317D03*
X03128D03*
X03938D03*
X04748D03*
X05559D03*
X0866Y0098D03*
X00205Y0406D03*
X0866Y0235D03*
G54D77*
X01472Y03443D03*
X01551D03*
X0163D03*
X05431Y01103D03*
Y01025D03*
Y00946D03*
X05441Y02698D03*
Y0262D03*
Y02541D03*
G54D78*
X01708Y03443D03*
G54D79*
X0021Y03795D03*
X0866Y0078D03*
X00205Y0426D03*
X0866Y0215D03*
G54D80*
X00374Y02579D03*
X04718Y0031D03*
G54D81*
X00374Y02296D03*
X05921Y00479D03*
Y0157D03*
X08118Y00479D03*
Y0157D03*
X05921Y02104D03*
Y03195D03*
X08118Y02104D03*
Y03195D03*
G54D82*
X04732Y04485D03*
X00637Y04465D03*
X01467Y04484D03*
X02277Y0448D03*
X03097Y04485D03*
X05562Y0448D03*
X08037D03*
X03932D03*
X06372Y04465D03*
X07242D03*
G54D83*
X05001Y0031D03*
X01049Y02973D03*
X0214D03*
X01049Y00776D03*
X0214D03*
G54D84*
X03102Y02805D03*
G54D85*
X03202Y02805D03*
X04902D03*
X03302D03*
X03402D03*
X03502D03*
X03602D03*
X03702D03*
X03802D03*
X03902D03*
X04002D03*
X04102D03*
X04202D03*
X04302D03*
X04402D03*
X04502D03*
X04602D03*
X04702D03*
X04802D03*
X03102Y03805D03*
X03202D03*
X03302D03*
X03402D03*
X03502D03*
X03602D03*
X03702D03*
X03802D03*
X03902D03*
X04002D03*
X04102D03*
X04202D03*
X04302D03*
X04402D03*
X04502D03*
X04602D03*
X04702D03*
X04802D03*
X04902D03*
G54D86*
X05431Y01182D03*
X05441Y02777D03*
G54D87*
X07534Y0411D03*
X08855D03*
X08045Y0354D03*
X08565D03*
X08855Y03825D03*
Y0354D03*
X08305D03*
X07785D03*
X07525D03*
X07265D03*
X07005D03*
X08586Y0411D03*
X08323D03*
X0806D03*
X07797D03*
X07008D03*
X06745D03*
G54D88*
X0016Y0149D02*
X01986D01*
X02346Y0185*
X0292*
X0017Y01585D02*
X01955D01*
X0232Y0195*
X0292*
X00165Y01485D02*
X0017D01*
X00165Y01585D02*
X0017D01*
Y01685D02*
X0193D01*
X02295Y0205*
X0017Y01785D02*
X01905D01*
X00165D02*
X0017D01*
X01905D02*
X0227Y0215D01*
X0292*
X02295Y0205D02*
X0292D01*
M02*