M48
; DRILL file {KiCad (6.0.5)} date Sun Jul 10 15:06:15 2022
; FORMAT={-:-/ absolute / inch / decimal}
; #@! TF.CreationDate,2022-07-10T15:06:15+05:30
; #@! TF.GenerationSoftware,Kicad,Pcbnew,(6.0.5)
; #@! TF.FileFunction,Plated,1,2,PTH
FMAT,2
INCH
; #@! TA.AperFunction,Plated,PTH,ComponentDrill
T1C0.0276
; #@! TA.AperFunction,Plated,PTH,ComponentDrill
T2C0.0295
; #@! TA.AperFunction,Plated,PTH,ComponentDrill
T3C0.0300
; #@! TA.AperFunction,Plated,PTH,ComponentDrill
T4C0.0315
; #@! TA.AperFunction,Plated,PTH,ComponentDrill
T5C0.0394
; #@! TA.AperFunction,Plated,PTH,ComponentDrill
T6C0.0461
; #@! TA.AperFunction,Plated,PTH,ComponentDrill
T7C0.0512
; #@! TA.AperFunction,Plated,PTH,ComponentDrill
T8C0.0591
; #@! TA.AperFunction,Plated,PTH,ComponentDrill
T9C0.0630
%
G90
G05
T1
X6.1504Y-3.236
X6.2252Y-3.236
X6.3504Y-2.536
X6.4252Y-2.536
X6.5504Y-2.936
X6.6252Y-2.936
T3
X6.174Y-2.784
X6.174Y-2.884
X6.174Y-2.984
X6.174Y-3.084
X6.474Y-2.784
X6.474Y-2.884
X6.474Y-2.984
X6.474Y-3.084
T4
X6.6252Y-2.6573
X6.6252Y-2.736
T5
X6.6252Y-3.1486
X6.7252Y-3.1486
T6
X5.1645Y-2.14
T7
X5.7006Y-3.0769
X5.799Y-2.6831
X5.8974Y-3.0769
T8
X5.9519Y-2.14
T9
X6.2752Y-2.236
X6.7752Y-2.236
T2
G00X5.0699Y-3.8566
M15
G01X5.0699Y-3.7956
M16
G05
G00X5.0699Y-4.3664
M15
G01X5.0699Y-4.3054
M16
G05
T0
M30
